<svg width="36" height="36" viewBox="0 0 36 36" fill="none" xmlns="http://www.w3.org/2000/svg">
<path d="M15.7977 3.75312L8.52057 6.48021C6.84349 7.10729 5.47266 9.09062 5.47266 10.8844V21.7198C5.47266 23.4406 6.61016 25.701 7.99557 26.7365L14.2664 31.4177C16.3227 32.9635 19.706 32.9635 21.7622 31.4177L28.0331 26.7365C29.4185 25.701 30.556 23.4406 30.556 21.7198V10.8844C30.556 9.09062 29.1852 7.10729 27.5081 6.48021L20.231 3.75312C18.9914 3.30104 17.0081 3.30104 15.7977 3.75312Z" stroke="#0D80F8" stroke-width="1.5" stroke-linecap="round" stroke-linejoin="round"/>
<path d="M18.0003 23.1042C19.5474 23.1042 21.0312 22.4896 22.1251 21.3956C23.2191 20.3017 23.8337 18.8179 23.8337 17.2708C23.8337 15.7237 23.2191 14.24 22.1251 13.146C21.0312 12.0521 19.5474 11.4375 18.0003 11.4375C16.4532 11.4375 14.9695 12.0521 13.8755 13.146C12.7816 14.24 12.167 15.7237 12.167 17.2708C12.167 18.8179 12.7816 20.3017 13.8755 21.3956C14.9695 22.4896 16.4532 23.1042 18.0003 23.1042Z" stroke="#0D80F8" stroke-width="1.5" stroke-miterlimit="10" stroke-linecap="round" stroke-linejoin="round"/>
<path d="M18.3649 15.4473V16.8035C18.3649 17.3139 18.1024 17.7952 17.6503 18.0577L16.542 18.7285" stroke="#0D80F8" stroke-width="1.5" stroke-miterlimit="10" stroke-linecap="round" stroke-linejoin="round"/>
</svg>
