<svg width="195" height="78" viewBox="0 0 195 78" fill="none" xmlns="http://www.w3.org/2000/svg">
<g style="mix-blend-mode:luminosity">
<g clip-path="url(#clip0_2578_54426)">
<path fill-rule="evenodd" clip-rule="evenodd" d="M72.6494 25.997C72.6494 24.9804 73.4825 24.1562 74.5104 24.1562H77.7523C78.4838 24.1562 79.1927 24.407 79.7583 24.8658L80.7445 25.6658L80.7692 25.688C80.7919 25.6804 80.8147 25.673 80.8375 25.6658C82.6167 25.1021 84.7754 24.9949 86.9787 24.9949C89.1819 24.9949 91.3406 25.1021 93.1198 25.6658C93.1426 25.673 93.1654 25.6804 93.1881 25.688L93.2128 25.6658L94.199 24.8658C94.7646 24.407 95.4736 24.1562 96.205 24.1562H99.4469C100.475 24.1562 101.308 24.9804 101.308 25.997V27.135C101.308 28.0154 100.933 28.8551 100.275 29.4481L99.4794 30.1651C99.091 30.5152 98.6249 30.77 98.1185 30.9088L97.9303 30.9605C98.6675 32.7004 99.0748 34.5603 99.0748 36.0648C99.0748 42.1171 95.289 44.7309 91.9533 47.0341C89.3264 48.8478 86.9787 50.4688 86.9787 53.4246C86.9787 50.4688 84.6309 48.8478 82.004 47.0341C78.6683 44.7309 74.8825 42.1171 74.8825 36.0648C74.8825 34.5603 75.2898 32.7004 76.027 30.9605L75.8388 30.9088C75.3324 30.77 74.8663 30.5152 74.4779 30.1651L73.6823 29.4481C73.0243 28.8551 72.6494 28.0154 72.6494 27.135V25.997ZM89.3979 41.0128C89.3979 41.3019 89.2704 41.5792 89.0436 41.7837C88.8168 41.9881 88.5091 42.103 88.1882 42.103C87.9113 42.103 87.6441 42.0173 87.4303 41.8624C87.7942 42.826 88.7256 43.7391 90.1423 42.2707C91.3929 40.9063 90.0867 38.0286 88.8141 36.3209C88.3899 35.7517 87.6935 35.4778 86.9787 35.4778C86.2638 35.4778 85.5674 35.7517 85.1432 36.3209C83.8707 38.0286 82.5644 40.9063 83.815 42.2707C85.2317 43.7391 86.1631 42.826 86.527 41.8624C86.3132 42.0173 86.046 42.103 85.7691 42.103C85.4482 42.103 85.1405 41.9881 84.9137 41.7837C84.6869 41.5792 84.5594 41.3019 84.5594 41.0128H89.3979ZM82.3464 32.4942H78.9766L81.6324 34.5976C82.2168 35.0604 83.071 34.9125 83.4326 34.2857C83.8892 33.4945 83.2827 32.4942 82.3464 32.4942ZM91.6109 32.4942H94.9807L92.3249 34.5976C91.7405 35.0604 90.8863 34.9125 90.5247 34.2857C90.0681 33.4945 90.6746 32.4942 91.6109 32.4942Z" fill="#72B800"/>
<path d="M105.322 44.8875H108.308V33.6265H105.322V44.8875ZM105.322 31.8704H108.308V29.1924H105.322V31.8704Z" fill="#355030"/>
<path d="M110.23 48.5754H113.216V43.6145H113.26C113.896 44.5803 114.928 45.2169 116.509 45.2169C119.406 45.2169 121.382 42.912 121.382 39.2681C121.382 35.7559 119.472 33.3193 116.487 33.3193C114.95 33.3193 113.896 34.0437 113.172 35.0315H113.106V33.6267H110.23V48.5754ZM115.872 42.7364C114.094 42.7364 113.15 41.3974 113.15 39.3559C113.15 37.3364 113.896 35.734 115.762 35.734C117.606 35.734 118.352 37.2267 118.352 39.3559C118.352 41.4852 117.387 42.7364 115.872 42.7364Z" fill="#355030"/>
<path d="M127.338 45.2169C130.147 45.2169 132.079 43.8559 132.079 41.5949C132.079 38.9608 129.994 38.434 128.106 38.0388C126.503 37.7096 125.011 37.6218 125.011 36.6559C125.011 35.8437 125.779 35.4047 126.943 35.4047C128.216 35.4047 128.984 35.8437 129.116 37.051H131.816C131.596 34.7901 129.95 33.3193 126.986 33.3193C124.418 33.3193 122.399 34.4827 122.399 36.9193C122.399 39.3779 124.374 39.9267 126.394 40.3218C127.93 40.6291 129.357 40.7388 129.357 41.8145C129.357 42.6047 128.611 43.1096 127.294 43.1096C125.955 43.1096 125.033 42.5388 124.835 41.2437H122.069C122.245 43.6364 124.067 45.2169 127.338 45.2169Z" fill="#355030"/>
<path d="M143.413 44.8879V33.627H140.428V40.1245C140.428 41.6172 139.572 42.6709 138.167 42.6709C136.894 42.6709 136.301 41.9465 136.301 40.6294V33.627H133.338V41.1343C133.338 43.5928 134.743 45.1952 137.245 45.1952C138.826 45.1952 139.704 44.6026 140.472 43.5709H140.538V44.8879H143.413Z" fill="#355030"/>
<path d="M145.345 44.8876H148.33V38.3462C148.33 36.8535 149.142 35.8876 150.35 35.8876C151.447 35.8876 152.084 36.5462 152.084 37.8193V44.8876H155.069V38.3462C155.069 36.8535 155.837 35.8876 157.089 35.8876C158.186 35.8876 158.823 36.5462 158.823 37.8193V44.8876H161.808V37.3145C161.808 34.8559 160.469 33.3193 158.098 33.3193C156.672 33.3193 155.486 34.0657 154.718 35.2949H154.674C154.125 34.1096 152.984 33.3193 151.557 33.3193C149.998 33.3193 148.901 34.1096 148.286 35.1413H148.22V33.6267H145.345V44.8876Z" fill="#355030"/>
<path d="M29.9521 44.8875H32.9375V29.1924H29.9521V44.8875Z" fill="#355030"/>
<path d="M40.2365 45.2169C43.7267 45.2169 46.1194 42.6267 46.1194 39.2681C46.1194 35.9096 43.7267 33.3193 40.2365 33.3193C36.7462 33.3193 34.3535 35.9096 34.3535 39.2681C34.3535 42.6267 36.7462 45.2169 40.2365 45.2169ZM40.2365 42.934C38.3926 42.934 37.3828 41.4632 37.3828 39.2681C37.3828 37.073 38.3926 35.5803 40.2365 35.5803C42.0584 35.5803 43.0901 37.073 43.0901 39.2681C43.0901 41.4632 42.0584 42.934 40.2365 42.934Z" fill="#355030"/>
<path d="M52.4687 48.7291C54.137 48.7291 55.5858 48.334 56.5297 47.4559C57.3639 46.6876 57.8687 45.612 57.8687 44.0315V33.6267H54.9931V34.812H54.9492C54.2687 33.8681 53.237 33.3193 51.8322 33.3193C48.9785 33.3193 46.959 35.4706 46.959 38.8291C46.959 42.2315 49.4175 44.2071 51.92 44.2071C53.3468 44.2071 54.2029 43.6364 54.8614 42.8901H54.9273V44.1193C54.9273 45.6559 54.1151 46.4681 52.4248 46.4681C51.0419 46.4681 50.4053 45.9193 50.1639 45.2169H47.2004C47.5078 47.412 49.3956 48.7291 52.4687 48.7291ZM52.4248 41.8145C50.8883 41.8145 49.8785 40.6949 49.8785 38.7852C49.8785 36.8974 50.8883 35.712 52.4029 35.712C54.2029 35.712 55.0809 37.1169 55.0809 38.7632C55.0809 40.4315 54.3126 41.8145 52.4248 41.8145Z" fill="#355030"/>
<path d="M65.1251 45.2169C68.6154 45.2169 71.008 42.6267 71.008 39.2681C71.008 35.9096 68.6154 33.3193 65.1251 33.3193C61.6349 33.3193 59.2422 35.9096 59.2422 39.2681C59.2422 42.6267 61.6349 45.2169 65.1251 45.2169ZM65.1251 42.934C63.2812 42.934 62.2715 41.4632 62.2715 39.2681C62.2715 37.073 63.2812 35.5803 65.1251 35.5803C66.9471 35.5803 67.9788 37.073 67.9788 39.2681C67.9788 41.4632 66.9471 42.934 65.1251 42.934Z" fill="#355030"/>
<path d="M161.674 31.1676C161.674 30.6624 162.083 30.2529 162.588 30.2529H164.418C164.923 30.2529 165.332 30.6624 165.332 31.1676C165.332 31.6727 164.923 32.0822 164.418 32.0822H162.588C162.083 32.0822 161.674 31.6727 161.674 31.1676Z" fill="#355030"/>
</g>
</g>
<defs>
<clipPath id="clip0_2578_54426">
<rect width="136.098" height="30" fill="white" transform="translate(29.4512 24)"/>
</clipPath>
</defs>
</svg>
