<svg width="195" height="78" viewBox="0 0 195 78" fill="none" xmlns="http://www.w3.org/2000/svg">
<g style="mix-blend-mode:luminosity">
<g clip-path="url(#clip0_2578_54439)">
<path d="M107.517 46.1425H111.014V32.9511H107.517V46.1425ZM107.517 30.894H111.014V27.7568H107.517V30.894Z" fill="#0F172A"/>
<path d="M113.268 50.4632H116.765V44.6518H116.816C117.561 45.7832 118.77 46.529 120.621 46.529C124.016 46.529 126.33 43.829 126.33 39.5604C126.33 35.4461 124.093 32.5918 120.596 32.5918C118.796 32.5918 117.561 33.4404 116.713 34.5975H116.636V32.9518H113.268V50.4632ZM119.876 43.6232C117.793 43.6232 116.688 42.0547 116.688 39.6632C116.688 37.2975 117.561 35.4204 119.748 35.4204C121.908 35.4204 122.781 37.169 122.781 39.6632C122.781 42.1575 121.65 43.6232 119.876 43.6232Z" fill="#0F172A"/>
<path d="M133.306 46.529C136.598 46.529 138.86 44.9347 138.86 42.2861C138.86 39.2004 136.418 38.5832 134.206 38.1204C132.329 37.7347 130.58 37.6318 130.58 36.5004C130.58 35.549 131.48 35.0347 132.843 35.0347C134.335 35.0347 135.235 35.549 135.389 36.9632H138.551C138.295 34.3147 136.366 32.5918 132.895 32.5918C129.886 32.5918 127.52 33.9547 127.52 36.809C127.52 39.689 129.835 40.3318 132.2 40.7947C134 41.1547 135.671 41.2832 135.671 42.5432C135.671 43.469 134.798 44.0604 133.255 44.0604C131.686 44.0604 130.606 43.3918 130.375 41.8747H127.135C127.34 44.6775 129.475 46.529 133.306 46.529Z" fill="#0F172A"/>
<path d="M152.138 46.1426V32.9512H148.64V40.5626C148.64 42.3112 147.638 43.5454 145.992 43.5454C144.5 43.5454 143.807 42.6969 143.807 41.1541V32.9512H140.335V41.7454C140.335 44.6254 141.98 46.5026 144.912 46.5026C146.764 46.5026 147.792 45.8083 148.692 44.5998H148.769V46.1426H152.138Z" fill="#0F172A"/>
<path d="M154.399 46.1432H157.897V38.4804C157.897 36.7318 158.848 35.6004 160.263 35.6004C161.548 35.6004 162.294 36.3718 162.294 37.8632V46.1432H165.791V38.4804C165.791 36.7318 166.691 35.6004 168.157 35.6004C169.443 35.6004 170.188 36.3718 170.188 37.8632V46.1432H173.686V37.2718C173.686 34.3918 172.117 32.5918 169.339 32.5918C167.668 32.5918 166.279 33.4661 165.379 34.9061H165.328C164.686 33.5175 163.348 32.5918 161.677 32.5918C159.851 32.5918 158.566 33.5175 157.846 34.7261H157.768V32.9518H154.399V46.1432Z" fill="#0F172A"/>
<path d="M16.3682 46.1425H19.8653V27.7568H16.3682V46.1425Z" fill="#0F172A"/>
<path d="M28.4159 46.529C32.5044 46.529 35.3073 43.4947 35.3073 39.5604C35.3073 35.6261 32.5044 32.5918 28.4159 32.5918C24.3273 32.5918 21.5244 35.6261 21.5244 39.5604C21.5244 43.4947 24.3273 46.529 28.4159 46.529ZM28.4159 43.8547C26.2559 43.8547 25.073 42.1318 25.073 39.5604C25.073 36.989 26.2559 35.2404 28.4159 35.2404C30.5502 35.2404 31.7587 36.989 31.7587 39.5604C31.7587 42.1318 30.5502 43.8547 28.4159 43.8547Z" fill="#0F172A"/>
<path d="M42.7443 50.6432C44.6986 50.6432 46.3958 50.1804 47.5014 49.1518C48.4786 48.2518 49.07 46.9918 49.07 45.1404V32.9518H45.7015V34.3404H45.65C44.8529 33.2347 43.6443 32.5918 41.9986 32.5918C38.6558 32.5918 36.29 35.1118 36.29 39.0461C36.29 43.0318 39.17 45.3461 42.1015 45.3461C43.7729 45.3461 44.7758 44.6775 45.5471 43.8032H45.6243V45.2432C45.6243 47.0432 44.6729 47.9947 42.6929 47.9947C41.0729 47.9947 40.3271 47.3518 40.0443 46.529H36.5729C36.9329 49.1004 39.1443 50.6432 42.7443 50.6432ZM42.6929 42.5432C40.8929 42.5432 39.71 41.2318 39.71 38.9947C39.71 36.7832 40.8929 35.3947 42.6671 35.3947C44.7758 35.3947 45.8043 37.0404 45.8043 38.969C45.8043 40.9232 44.9043 42.5432 42.6929 42.5432Z" fill="#0F172A"/>
<path d="M57.5711 46.529C61.6597 46.529 64.4626 43.4947 64.4626 39.5604C64.4626 35.6261 61.6597 32.5918 57.5711 32.5918C53.4826 32.5918 50.6797 35.6261 50.6797 39.5604C50.6797 43.4947 53.4826 46.529 57.5711 46.529ZM57.5711 43.8547C55.4111 43.8547 54.2283 42.1318 54.2283 39.5604C54.2283 36.989 55.4111 35.2404 57.5711 35.2404C59.7054 35.2404 60.914 36.989 60.914 39.5604C60.914 42.1318 59.7054 43.8547 57.5711 43.8547Z" fill="#0F172A"/>
<path d="M174.956 30.7853C174.956 30.1936 175.436 29.7139 176.028 29.7139H178.171C178.762 29.7139 179.242 30.1936 179.242 30.7853C179.242 31.377 178.762 31.8567 178.171 31.8567H176.028C175.436 31.8567 174.956 31.377 174.956 30.7853Z" fill="#0F172A"/>
<path fill-rule="evenodd" clip-rule="evenodd" d="M85.6709 24C93.9549 24 100.671 30.7157 100.671 39C100.671 47.2843 93.9549 54 85.6709 54C77.3866 54 70.6709 47.2843 70.6709 39C70.6709 30.7157 77.3866 24 85.6709 24ZM85.1287 25.1224C83.4174 25.3633 81.788 26.7383 80.5231 29.0381C80.1562 29.7051 79.8252 30.4421 79.5367 31.2378C81.2566 30.8056 83.1459 30.5508 85.1287 30.5114V25.1224ZM78.2689 31.5981C78.6277 30.4722 79.0665 29.4363 79.573 28.5155C80.2 27.3754 80.9442 26.391 81.7826 25.6348C77.2234 26.9589 73.6298 30.5526 72.3057 35.1118C73.0618 34.2733 74.0463 33.5292 75.1863 32.9022C76.1072 32.3957 77.143 31.9568 78.2689 31.5981ZM77.9087 32.8658C77.4765 34.5857 77.2217 36.475 77.1822 38.4578H71.7933C72.0341 36.7465 73.4091 35.1171 75.7089 33.8523C76.376 33.4854 77.1129 33.1544 77.9087 32.8658ZM78.2668 38.4578C78.3116 36.294 78.6231 34.2626 79.1385 32.4677C80.9334 31.9523 82.9649 31.6407 85.1287 31.5959V33.9381C84.3215 36.0047 82.6751 37.6509 80.6085 38.4578H78.2668ZM77.1822 39.5422H71.7933C72.0341 41.2535 73.4091 42.8828 75.7089 44.1477C76.376 44.5146 77.1129 44.8456 77.9087 45.1342C77.4765 43.4143 77.2217 41.525 77.1822 39.5422ZM79.1385 45.5324C78.6231 43.7374 78.3116 41.706 78.2668 39.5422H80.6085C82.6751 40.3491 84.3215 41.9953 85.1287 44.0619V46.4041C82.9649 46.3593 80.9334 46.0478 79.1385 45.5324ZM78.2689 46.4019C77.143 46.0432 76.1072 45.6043 75.1863 45.0978C74.0463 44.4708 73.0618 43.7267 72.3057 42.8882C73.6298 47.4474 77.2234 51.0411 81.7826 52.3652C80.9442 51.609 80.2 50.6246 79.573 49.4845C79.0665 48.5637 78.6277 47.5278 78.2689 46.4019ZM85.1287 52.8775C83.4174 52.6367 81.788 51.2617 80.5231 48.962C80.1562 48.2949 79.8252 47.5579 79.5367 46.7622C81.2566 47.1943 83.1459 47.4492 85.1287 47.4886V52.8775ZM89.5591 52.3652C90.3976 51.609 91.1416 50.6246 91.7686 49.4845C92.2749 48.5637 92.7144 47.5278 93.0729 46.4019C94.1986 46.0432 95.2344 45.6043 96.1554 45.0978C97.2954 44.4708 98.2801 43.7267 99.0361 42.8882C97.7116 47.4474 94.1184 51.0411 89.5591 52.3652ZM91.8054 46.7622C91.5166 47.5579 91.1851 48.2949 90.8184 48.962C89.5537 51.2617 87.9243 52.6367 86.213 52.8775V47.4886C88.1958 47.4492 90.0851 47.1943 91.8054 46.7622ZM93.4329 45.1342C94.2286 44.8456 94.9659 44.5146 95.6326 44.1477C97.9329 42.8829 99.3076 41.2535 99.5484 39.5422H94.1596C94.1199 41.525 93.8649 43.4143 93.4329 45.1342ZM93.0751 39.5422C93.0301 41.706 92.7189 43.7374 92.2029 45.5324C90.4083 46.0478 88.3768 46.3593 86.213 46.4041V44.0636C87.02 41.9963 88.6668 40.3493 90.7339 39.5422H93.0751ZM94.1596 38.4578H99.5484C99.3076 36.7465 97.9329 35.1171 95.6326 33.8523C94.9659 33.4854 94.2286 33.1544 93.4329 32.8658C93.8649 34.5857 94.1199 36.475 94.1596 38.4578ZM92.2029 32.4677C92.7189 34.2626 93.0301 36.294 93.0751 38.4578H90.734C88.6668 37.6507 87.02 36.0037 86.213 33.9364V31.5959C88.3768 31.6407 90.4083 31.9523 92.2029 32.4677ZM93.0729 31.5981C94.1986 31.9568 95.2344 32.3957 96.1554 32.9022C97.2954 33.5292 98.2801 34.2733 99.0361 35.1118C97.7116 30.5526 94.1184 26.9589 89.5591 25.6348C90.3976 26.391 91.1416 27.3754 91.7686 28.5155C92.2749 29.4363 92.7144 30.4722 93.0729 31.5981ZM86.213 25.1224C87.9243 25.3633 89.5537 26.7383 90.8184 29.0381C91.1851 29.7051 91.5166 30.4421 91.8054 31.2378C90.0851 30.8056 88.1958 30.5508 86.213 30.5114V25.1224Z" fill="#0F172A"/>
</g>
</g>
<defs>
<clipPath id="clip0_2578_54439">
<rect width="163.5" height="30" fill="white" transform="translate(15.75 24)"/>
</clipPath>
</defs>
</svg>
