<svg width="195" height="78" viewBox="0 0 195 78" fill="none" xmlns="http://www.w3.org/2000/svg">
<g style="mix-blend-mode:luminosity">
<g clip-path="url(#clip0_2578_54452)">
<path d="M29.9996 54C38.2841 54 44.9996 47.2845 44.9996 39V28.5C44.9996 27.3065 44.5255 26.1619 43.6816 25.318C42.8376 24.4741 41.6931 24 40.4996 24H30.7496V30.5805C30.7496 32.082 30.8411 33.6375 31.6286 34.9155C32.1923 35.8314 32.9465 36.6153 33.8399 37.2141C34.7334 37.8129 35.7451 38.2124 36.8066 38.3857L37.0938 38.4323C37.2123 38.4727 37.3151 38.5492 37.3878 38.651C37.4606 38.7528 37.4998 38.8749 37.4998 39C37.4998 39.1251 37.4606 39.2472 37.3878 39.349C37.3151 39.4508 37.2123 39.5273 37.0938 39.5677L36.8066 39.6143C35.2557 39.8676 33.8236 40.6017 32.7124 41.7128C31.6012 42.824 30.8672 44.2561 30.6138 45.807L30.5673 46.0942C30.5268 46.2127 30.4504 46.3155 30.3485 46.3883C30.2467 46.4611 30.1247 46.5002 29.9996 46.5002C29.8744 46.5002 29.7524 46.4611 29.6506 46.3883C29.5488 46.3155 29.4723 46.2127 29.4318 46.0942L29.3853 45.807C29.212 44.7456 28.8124 43.7338 28.2136 42.8404C27.6149 41.947 26.831 41.1928 25.9151 40.629C24.6371 39.8415 23.0816 39.75 21.5801 39.75H15.0176C15.4098 47.6858 21.9671 54 29.9996 54Z" fill="#0E1534"/>
<path d="M15 38.25H21.5805C23.082 38.25 24.6375 38.1585 25.9155 37.371C26.9145 36.7555 27.7555 35.9145 28.371 34.9155C29.1585 33.6375 29.25 32.082 29.25 30.5805V24H19.5C18.3065 24 17.1619 24.4741 16.318 25.318C15.4741 26.1619 15 27.3065 15 28.5V38.25ZM49.8413 25.5C49.8413 25.8978 49.6832 26.2794 49.4019 26.5607C49.1206 26.842 48.7391 27 48.3413 27C47.9434 27 47.5619 26.842 47.2806 26.5607C46.9993 26.2794 46.8413 25.8978 46.8413 25.5C46.8413 25.1022 46.9993 24.7206 47.2806 24.4393C47.5619 24.158 47.9434 24 48.3413 24C48.7391 24 49.1206 24.158 49.4019 24.4393C49.6832 24.7206 49.8413 25.1022 49.8413 25.5ZM173.783 33.078C177.977 33.078 180 36.0068 180 39.399V45.7703H175.612V40.155C175.612 38.6175 175.051 37.3485 173.442 37.3485C171.833 37.3485 171.297 38.6175 171.297 40.155V45.7695H166.909V40.155C166.909 38.6175 166.372 37.3485 164.763 37.3485C163.154 37.3485 162.593 38.6175 162.593 40.155V45.7695H158.206V39.3983C158.206 36.006 160.229 33.0772 164.422 33.0772C166.714 33.0772 168.371 33.9802 169.127 35.469C169.931 33.9802 171.687 33.0765 173.783 33.0765V33.078ZM150.32 41.865C151.734 41.865 152.344 40.5713 152.344 39.033V33.5655H156.731V39.57C156.731 43.158 154.635 46.1362 150.32 46.1362C146.005 46.1362 143.909 43.1588 143.909 39.57V33.5655H148.297V39.033C148.297 40.5705 148.906 41.865 150.32 41.865ZM137.456 46.1603C134.701 46.1603 132.922 45.2085 131.873 43.3538L135.043 41.5718C135.482 42.3525 136.139 42.7432 137.236 42.7432C138.139 42.7432 138.553 42.426 138.553 42.0353C138.553 40.5465 132.117 42.06 132.117 37.3253C132.117 35.0303 134.067 33.1755 137.383 33.1755C140.284 33.1755 141.868 34.5907 142.576 35.958L139.406 37.764C139.138 37.032 138.309 36.5925 137.48 36.5925C136.847 36.5925 136.505 36.861 136.505 37.227C136.505 38.7405 142.941 37.3492 142.941 41.9377C142.941 44.5005 140.43 46.1603 137.456 46.1603ZM122.125 51.384H117.736V39.6435C117.736 35.9085 120.54 33.1995 124.441 33.1995C128.244 33.1995 131.145 36.1042 131.145 39.6435C131.145 43.5487 128.561 46.1362 124.685 46.1362C123.782 46.1362 122.881 45.8678 122.125 45.4523V51.384ZM124.441 42.0112C125.831 42.0112 126.757 40.9373 126.757 39.6675C126.757 38.3745 125.831 37.3245 124.441 37.3245C123.051 37.3245 122.125 38.3745 122.125 39.6683C122.125 40.9373 123.051 42.0112 124.441 42.0112ZM113.341 32.2725C111.902 32.2725 110.708 31.0763 110.708 29.6363C110.708 28.1962 111.902 27 113.341 27C114.779 27 115.974 28.1962 115.974 29.6363C115.974 31.0763 114.779 32.2725 113.341 32.2725ZM111.147 33.5655H115.535V45.7703H111.147V33.5655ZM102.728 46.1362C98.9242 46.1362 96.0232 43.2075 96.0232 39.6435C96.0232 36.1042 98.9242 33.1755 102.728 33.1755C106.531 33.1755 109.432 36.1042 109.432 39.6435C109.432 43.2075 106.531 46.1362 102.728 46.1362ZM102.728 42.0112C104.117 42.0112 105.044 40.9373 105.044 39.6675C105.044 38.3745 104.117 37.3005 102.728 37.3005C101.338 37.3005 100.411 38.3745 100.411 39.6675C100.411 40.9373 101.338 42.0112 102.728 42.0112ZM87.7373 51.75C84.7148 51.75 82.5202 50.4075 81.399 48.015L85.0312 46.0627C85.4212 46.893 86.1525 47.7472 87.6637 47.7472C89.2493 47.7472 90.297 46.746 90.4193 44.9888C89.8343 45.5018 88.9072 45.8918 87.5182 45.8918C84.129 45.8918 81.3982 43.2803 81.3982 39.6188C81.3982 36.0803 84.3 33.1995 88.1032 33.1995C92.004 33.1995 94.8075 35.9093 94.8075 39.6435V44.4765C94.8075 48.87 91.7595 51.75 87.7373 51.75ZM88.0298 41.7675C89.346 41.7675 90.3457 40.8638 90.3457 39.5212C90.3457 38.2035 89.3467 37.3245 88.0298 37.3245C86.7375 37.3245 85.7138 38.2035 85.7138 39.522C85.7138 40.8645 86.7375 41.7668 88.0298 41.7668V41.7675ZM73.9553 46.1362C70.152 46.1362 67.2503 43.2075 67.2503 39.6435C67.2503 36.1042 70.152 33.1755 73.9553 33.1755C77.7578 33.1755 80.6595 36.1042 80.6595 39.6435C80.6595 43.2075 77.7585 46.1362 73.9553 46.1362ZM73.9553 42.0112C75.345 42.0112 76.2712 40.9373 76.2712 39.6675C76.2712 38.3745 75.345 37.3005 73.9553 37.3005C72.5655 37.3005 71.6392 38.3745 71.6392 39.6675C71.6392 40.9373 72.5655 42.0112 73.9553 42.0112ZM59.2598 29.295V41.6205H66.525V45.7703H58.65C55.8713 45.7703 54.75 44.3055 54.75 41.9865V29.295H59.2598Z" fill="#0E1534"/>
</g>
</g>
<defs>
<clipPath id="clip0_2578_54452">
<rect width="165" height="30" fill="white" transform="translate(15 24)"/>
</clipPath>
</defs>
</svg>
