<svg width="100" height="78" viewBox="0 0 100 78" fill="none" xmlns="http://www.w3.org/2000/svg">
<path d="M87.8736 27.3258C86.0203 20.3189 80.0259 17.4579 75.2104 21.7378C71.8656 19.0587 66.5159 19.0587 63.1707 21.7378C58.3422 17.4528 52.3598 20.3297 50.5087 27.3263C49.9143 29.3358 49.6862 32.4758 52.1249 33.4486C55.9041 34.9547 57.6351 30.8326 57.6351 30.8326C57.2077 36.3544 60.161 38.0757 60.161 39.7973V41.804C60.161 44.3123 63.1708 45.8175 65.1776 45.8175C67.1843 45.8175 68.4384 44.8144 69.191 43.8108C69.9436 44.8139 71.1978 45.8175 73.2045 45.8175C75.2112 45.8175 78.221 44.3123 78.221 41.804V39.7973C78.221 38.0757 81.1748 36.3545 80.7475 30.8318C82.5844 35.4844 90.0872 34.8013 87.8738 27.3259L87.8736 27.3258ZM64.174 33.7771C63.0659 33.7771 62.1673 32.879 62.1673 31.7704C62.1673 30.6623 63.0654 29.7636 64.174 29.7636C65.2821 29.7636 66.1808 30.6618 66.1808 31.7704C66.1808 32.879 65.2822 33.7771 64.174 33.7771ZM71.9102 37.4634L69.8863 39.4874C69.5023 39.8713 68.879 39.8713 68.4951 39.4874L66.4711 37.4634C65.8511 36.8434 66.2896 35.7838 67.1668 35.7838H71.2156C72.0918 35.7838 72.5303 36.8434 71.9102 37.4634ZM74.2071 33.7771C73.099 33.7771 72.2004 32.879 72.2004 31.7704C72.2004 30.6623 73.0985 29.7636 74.2071 29.7636C75.3152 29.7636 76.2138 30.6618 76.2138 31.7704C76.2138 32.879 75.3152 33.7771 74.2071 33.7771Z" fill="white"/>
<path d="M34.7559 22.6422C35.3906 22.6413 35.9636 22.2591 36.2064 21.6717C36.45 21.0851 36.3154 20.4095 35.8658 19.9608L35.3754 19.4704V19.4696C34.7623 18.8565 33.7678 18.8565 33.154 19.4696C32.541 20.0834 32.541 21.0779 33.154 21.6909L33.6444 22.1813C33.9393 22.4762 34.3392 22.6422 34.7559 22.6422Z" fill="white"/>
<path d="M28.2505 24.374C27.9556 24.6689 27.7905 25.068 27.7905 25.4847C27.7905 25.9014 27.9556 26.3013 28.2505 26.5954L28.7409 27.0858C29.3548 27.6997 30.3493 27.6997 30.9623 27.0858C31.5762 26.4728 31.5762 25.4783 30.9623 24.8645L30.4719 24.374C30.177 24.0791 29.7779 23.9141 29.3612 23.9141C28.9445 23.9141 28.5446 24.0799 28.2505 24.374Z" fill="white"/>
<path d="M39.661 17.7377C40.2965 17.7377 40.8695 17.3546 41.1123 16.768C41.3559 16.1806 41.2213 15.5051 40.7717 15.0555L40.2812 14.5651V14.5659C39.6682 13.952 38.6737 13.952 38.0599 14.5659C37.4468 15.1789 37.4468 16.1734 38.0599 16.7872L38.5503 17.2776C38.8444 17.5725 39.2443 17.7377 39.661 17.7377Z" fill="white"/>
<path d="M39.0414 27.5759C39.6544 28.1897 40.6489 28.1897 41.2628 27.5759C41.8758 26.9628 41.8758 25.9683 41.2628 25.3545L40.7723 24.8641C40.1585 24.251 39.164 24.251 38.551 24.8641C37.9371 25.4779 37.9371 26.4724 38.551 27.0854L39.0414 27.5759Z" fill="white"/>
<path d="M34.1364 32.4802C34.7494 33.094 35.7439 33.094 36.3577 32.4802C36.9708 31.8671 36.9708 30.8726 36.3577 30.2588L35.8673 29.7684C35.2534 29.1553 34.259 29.1553 33.6459 29.7684C33.0321 30.3822 33.0321 31.3767 33.6459 31.9897L34.1364 32.4802Z" fill="white"/>
<path d="M43.9465 22.6722C44.5604 23.2852 45.5549 23.2852 46.1679 22.6722C46.7818 22.0583 46.7818 21.0638 46.1679 20.4508L45.6775 19.9604C45.0636 19.3465 44.0691 19.3465 43.4561 19.9604C42.8423 20.5734 42.8423 21.5679 43.4561 22.1817L43.9465 22.6722Z" fill="white"/>
<path d="M98.2415 43.9321H10.0599V8.71201C10.0616 7.34407 10.6057 6.03234 11.5729 5.06506C12.541 4.097 13.8528 3.55288 15.2207 3.55128C16.2232 3.55289 17.1969 3.89105 17.9861 4.50972C18.7747 5.12917 19.334 5.99466 19.5736 6.96824C17.587 9.19206 16.5267 12.0914 16.6086 15.0725C16.6911 18.0527 17.91 20.8895 20.0159 23.0005L20.8093 23.7938C21.1042 24.0887 21.5033 24.2538 21.92 24.2538C22.3367 24.2538 22.7358 24.0887 23.0307 23.7938L37.3101 9.51439C37.6042 9.22029 37.7701 8.82041 37.7701 8.40369C37.7701 7.98697 37.6042 7.58789 37.3101 7.29299L36.5168 6.49963V6.50043C34.6584 4.64207 32.2279 3.46566 29.6178 3.16121C27.0077 2.85669 24.3713 3.44169 22.1345 4.82165C21.5215 3.505 20.5446 2.39022 19.3201 1.60901C18.0956 0.827678 16.6733 0.411777 15.2204 0.410156C13.0191 0.41256 10.909 1.28844 9.35269 2.84467C7.79645 4.40091 6.92064 6.5109 6.91818 8.71236V43.9325H1.75744C0.89035 43.9325 0.186768 44.6361 0.186768 45.5031C0.186768 46.3702 0.89037 47.0738 1.75744 47.0738H10.0596V61.2187C10.0652 65.5604 11.793 69.7227 14.8638 72.792C17.9347 75.8612 22.0978 77.5865 26.4396 77.5898H73.5604C77.9022 77.5866 82.0653 75.8613 85.1362 72.792C88.2071 69.7227 89.9349 65.5604 89.9404 61.2187V47.0738H98.2426C99.1097 47.0738 99.8133 46.3702 99.8133 45.5031C99.8133 44.6361 99.1097 43.9325 98.2426 43.9325L98.2415 43.9321Z" fill="white"/>
</svg>
