<svg width="50" height="76" viewBox="0 0 50 76" fill="none" xmlns="http://www.w3.org/2000/svg">
<path d="M16.9597 0.335938H33.0405C34.4426 0.335938 35.5797 1.73806 35.5797 2.87515V10.0695C35.5797 11.4716 34.4426 12.6087 33.0405 12.6087H16.9597C15.5576 12.6087 14.4205 11.2066 14.4205 10.0695V2.87515C14.4205 1.47303 15.5576 0.335938 16.9597 0.335938Z" fill="white"/>
<path d="M28.8767 17.6855H21.124C9.76589 17.6855 0.456299 26.5046 0.456299 37.3466V73.2487C0.47401 73.9052 0.750891 74.5274 1.22674 74.9796C1.70316 75.4318 2.339 75.6768 2.99486 75.6609H47.0053C47.6611 75.6768 48.297 75.4318 48.7734 74.9796C49.2492 74.5274 49.5261 73.9051 49.5438 73.2487V37.3466C49.5438 26.5052 40.2342 17.6855 28.8762 17.6855H28.8767ZM31.7712 49.4918H27.5395V53.5205C27.5395 54.4279 27.0554 55.2662 26.2696 55.7196C25.4844 56.173 24.5161 56.173 23.731 55.7196C22.9452 55.2662 22.4611 54.4279 22.4611 53.5205V49.4918H18.2293C17.564 49.5314 16.9116 49.2946 16.4263 48.8371C15.941 48.3796 15.6659 47.7426 15.6659 47.0755C15.6659 46.4089 15.941 45.7714 16.4263 45.3145C16.9116 44.8569 17.5639 44.6202 18.2293 44.6592H22.4611V40.6305C22.4611 39.7237 22.9452 38.8854 23.731 38.432C24.5162 37.9786 25.4844 37.9786 26.2696 38.432C27.0554 38.8854 27.5395 39.7237 27.5395 40.6305V44.6592H31.7712C32.4366 44.6202 33.0889 44.8569 33.5743 45.3145C34.0595 45.7714 34.3347 46.409 34.3347 47.0755C34.3347 47.7426 34.0595 48.3796 33.5743 48.8371C33.089 49.2946 32.4366 49.5314 31.7712 49.4918Z" fill="white"/>
</svg>
