<svg width="30" height="30" viewBox="0 0 30 30" fill="none" xmlns="http://www.w3.org/2000/svg">
<g clip-path="url(#clip0)">
<path d="M29.0019 6.87255C28.403 6.24518 27.576 5.87445 26.635 5.87445H21.9011V5.81742C21.9011 5.10449 21.616 4.42008 21.1312 3.96381C20.6464 3.47902 19.9905 3.19385 19.2776 3.19385H10.7224C9.98099 3.19385 9.3251 3.47902 8.8403 3.96381C8.35551 4.4486 8.07034 5.10449 8.07034 5.81742V5.87445H3.36502C2.42395 5.87445 1.59696 6.24518 0.998099 6.87255C0.39924 7.47141 0 8.32692 0 9.23947V23.441C0 24.382 0.370722 25.209 0.998099 25.8079C1.59696 26.4068 2.45247 26.806 3.36502 26.806H26.635C27.576 26.806 28.403 26.4353 29.0019 25.8079C29.6008 25.209 30 24.3535 30 23.441V9.23947C30 8.29841 29.6293 7.47141 29.0019 6.87255ZM28.5171 23.441H28.4886C28.4886 23.9543 28.289 24.4106 27.9468 24.7528C27.6046 25.095 27.1483 25.2946 26.635 25.2946H3.36502C2.85171 25.2946 2.39544 25.095 2.05323 24.7528C1.71103 24.4106 1.51141 23.9543 1.51141 23.441V9.23947C1.51141 8.72616 1.71103 8.26989 2.05323 7.92768C2.39544 7.58548 2.85171 7.38586 3.36502 7.38586H8.86882C9.29658 7.38586 9.63878 7.04366 9.63878 6.6159V5.7889C9.63878 5.47521 9.75285 5.19004 9.95247 4.99042C10.1521 4.7908 10.4373 4.67674 10.751 4.67674H19.2776C19.5913 4.67674 19.8764 4.7908 20.076 4.99042C20.2757 5.19004 20.3897 5.47521 20.3897 5.7889V6.6159C20.3897 7.04366 20.7319 7.38586 21.1597 7.38586H26.6635C27.1768 7.38586 27.6331 7.58548 27.9753 7.92768C28.3175 8.26989 28.5171 8.72616 28.5171 9.23947V23.441Z" fill="#3239BB"/>
<path d="M14.9996 9.3252C13.0604 9.3252 11.2924 10.1237 10.0376 11.3784C8.75434 12.6617 7.98438 14.4012 7.98438 16.3404C7.98438 18.2796 8.78285 20.0476 10.0376 21.3024C11.3209 22.5856 13.0604 23.3556 14.9996 23.3556C16.9387 23.3556 18.7068 22.5571 19.9615 21.3024C21.2448 20.0191 22.0148 18.2796 22.0148 16.3404C22.0148 14.4012 21.2163 12.6332 19.9615 11.3784C18.7068 10.1237 16.9387 9.3252 14.9996 9.3252ZM18.8779 20.2472C17.8798 21.2168 16.511 21.8442 14.9996 21.8442C13.4882 21.8442 12.1194 21.2168 11.1213 20.2472C10.1232 19.2491 9.5243 17.8803 9.5243 16.3689C9.5243 14.8575 10.1517 13.4887 11.1213 12.4906C12.1194 11.4925 13.4882 10.8936 14.9996 10.8936C16.511 10.8936 17.8798 11.521 18.8779 12.4906C19.876 13.4887 20.4749 14.8575 20.4749 16.3689C20.5034 17.8803 19.876 19.2491 18.8779 20.2472Z" fill="#3239BB"/>
<path d="M25.1522 12.0911C25.9239 12.0911 26.5496 11.4655 26.5496 10.6937C26.5496 9.922 25.9239 9.29639 25.1522 9.29639C24.3805 9.29639 23.7549 9.922 23.7549 10.6937C23.7549 11.4655 24.3805 12.0911 25.1522 12.0911Z" fill="#3239BB"/>
</g>
<defs>
<clipPath id="clip0">
<rect width="30" height="30" fill="white"/>
</clipPath>
</defs>
</svg>
