<svg width="27" height="26" viewBox="0 0 27 26" fill="none" xmlns="http://www.w3.org/2000/svg">
<path d="M15.75 20.5833C19.9924 20.5833 22.1141 20.5833 23.4315 19.3137C24.75 18.0451 24.75 16.0019 24.75 11.9167C24.75 7.83142 24.75 5.78825 23.4315 4.51967C22.1141 3.25 19.9924 3.25 15.75 3.25H11.25C7.00763 3.25 4.88587 3.25 3.5685 4.51967C2.25 5.78825 2.25 7.83142 2.25 11.9167C2.25 16.0019 2.25 18.0451 3.5685 19.3137C4.30312 20.0222 5.2875 20.3353 6.75 20.4728" stroke="black" stroke-width="2" stroke-linecap="round" stroke-linejoin="round"/>
<path d="M15.7499 20.5834C14.3594 20.5834 12.8272 21.1251 11.4288 21.8238C9.18103 22.9472 8.05715 23.5095 7.50365 23.1509C6.95015 22.7934 7.05478 21.683 7.26515 19.4632L7.3124 18.9584M13.4999 11.9167V11.9276V11.9167ZM8.9999 11.9167V11.9276V11.9167ZM17.9999 11.9167V11.9276V11.9167Z" stroke="black" stroke-width="2" stroke-linecap="round"/>
</svg>
