<svg width="16" height="16" viewBox="0 0 16 16" fill="none" xmlns="http://www.w3.org/2000/svg">
<g clip-path="url(#clip0_89_179)">
<path d="M9.25 12.0005C11.6069 12.0005 12.7856 12.0005 13.5175 11.268C14.25 10.5361 14.25 9.35736 14.25 7.00049C14.25 4.64361 14.25 3.46486 13.5175 2.73299C12.7856 2.00049 11.6069 2.00049 9.25 2.00049H6.75C4.39313 2.00049 3.21437 2.00049 2.4825 2.73299C1.75 3.46486 1.75 4.64361 1.75 7.00049C1.75 9.35736 1.75 10.5361 2.4825 11.268C2.89062 11.6767 3.4375 11.8574 4.25 11.9367" stroke="#585858" stroke-width="2" stroke-linecap="round" stroke-linejoin="round"/>
<path d="M9.25027 12.0005C8.47777 12.0005 7.62652 12.313 6.84965 12.7161C5.6009 13.3642 4.97652 13.6886 4.66902 13.4817C4.36152 13.2755 4.41965 12.6349 4.53652 11.3542L4.56277 11.063M8.00027 7.00049V7.00674V7.00049ZM5.50027 7.00049V7.00674V7.00049ZM10.5003 7.00049V7.00674V7.00049Z" stroke="#585858" stroke-width="2" stroke-linecap="round"/>
</g>
<defs>
<clipPath id="clip0_89_179">
<rect width="15" height="15" fill="white" transform="translate(0.5 0.125488)"/>
</clipPath>
</defs>
</svg>
