<svg width="44" height="44" viewBox="0 0 44 44" fill="none" xmlns="http://www.w3.org/2000/svg">
<path d="M4.22315 21.9741C4.21368 12.1309 12.1867 4.15347 22.0292 4.15821C31.8138 4.16413 39.7394 12.1356 39.7418 21.9717C39.743 31.6562 31.7853 39.6797 22.1607 39.6963C12.2269 39.7141 4.23381 31.8173 4.22315 21.9741ZM38.321 21.9314C38.3174 12.9163 31.0039 5.57978 22.0221 5.57978C12.9729 5.57978 5.65105 12.8973 5.64395 21.948C5.63684 30.9951 12.9646 38.2653 22.1015 38.2759C30.9921 38.2854 38.3245 30.8968 38.321 21.9314Z" fill="white"/>
<path d="M35.4854 9.80769C35.4854 8.60646 35.4723 7.42537 35.4925 6.24309C35.4996 5.85453 35.7612 5.59746 36.1496 5.59036C37.33 5.57022 38.5105 5.58325 39.717 5.58325C39.717 6.05118 39.717 6.4895 39.717 6.97876C39.254 6.97876 38.7745 6.97876 38.1825 6.97876C41.6007 10.8383 43.5543 15.2262 43.932 20.2788C44.3097 25.3431 43.1162 30.0284 40.2498 34.2054C35.8808 40.5729 29.7252 43.7146 22.0127 44.0001C22.0127 43.4871 22.0127 43.0381 22.0127 42.6602C32.1157 41.8594 39.0551 36.9491 41.8943 27.062C44.0492 19.5609 41.2159 12.1142 36.9215 7.80801C36.9215 8.48444 36.9215 9.1277 36.9215 9.8065C36.4408 9.80769 35.9921 9.80769 35.4854 9.80769Z" fill="white"/>
<path d="M11.0715 4.43641C10.817 4.02653 10.5849 3.65573 10.3232 3.23518C10.7365 2.99233 11.1307 2.76014 11.5617 2.50781C11.7938 2.94139 12.0069 3.33825 12.2307 3.75524C11.8435 3.98269 11.4788 4.19711 11.0715 4.43641Z" fill="white"/>
<path d="M5.21558 9.93937C4.82131 9.65387 4.46492 9.39681 4.06592 9.10775C4.36547 8.72037 4.64844 8.35313 4.94326 7.97168C5.32095 8.28087 5.66076 8.56045 6.03135 8.86372C5.76021 9.22266 5.50447 9.56029 5.21558 9.93937Z" fill="white"/>
<path d="M12.2593 40.1098C12.0308 40.5374 11.8248 40.9248 11.5915 41.3607C11.1677 41.1167 10.777 40.8916 10.3472 40.644C10.5982 40.2377 10.8362 39.8539 11.0919 39.4404C11.4767 39.6608 11.8414 39.8705 12.2593 40.1098Z" fill="white"/>
<path d="M16.9711 43.3879C16.4916 43.2612 16.0559 43.1451 15.5835 43.0195C15.7244 42.5528 15.8558 42.1227 15.9943 41.6631C16.4312 41.7816 16.8385 41.8917 17.2861 42.0114C17.1831 42.4592 17.086 42.8833 16.9711 43.3879Z" fill="white"/>
<path d="M15.5459 0.853135C16.0136 0.722824 16.4327 0.606729 16.9217 0.47168C17.0342 0.927767 17.1396 1.36016 17.258 1.83994C16.8365 1.96078 16.4339 2.07687 15.971 2.21074C15.8312 1.76768 15.6951 1.33173 15.5459 0.853135Z" fill="white"/>
<path d="M14.1735 1.30762C14.3488 1.76726 14.5051 2.17715 14.6791 2.63205C14.2825 2.80264 13.8965 2.96849 13.4501 3.15921C13.2559 2.73985 13.0677 2.33352 12.8569 1.87862C13.2891 1.69026 13.7011 1.51256 14.1735 1.30762Z" fill="white"/>
<path d="M3.19693 13.4371C3.01815 13.8683 2.86068 14.2474 2.68308 14.6775C2.24619 14.5152 1.82705 14.3588 1.35938 14.1846C1.54053 13.7404 1.71102 13.3246 1.90283 12.8555C2.33499 13.0498 2.74228 13.2334 3.19693 13.4371Z" fill="white"/>
<path d="M0.247678 18.3623C0.730748 18.4429 1.17356 18.5163 1.64479 18.5933C1.58204 19.0447 1.52521 19.4605 1.46127 19.9201C0.977019 19.8715 0.531837 19.8265 0.0546875 19.7791C0.122175 19.2899 0.182559 18.8445 0.247678 18.3623Z" fill="white"/>
<path d="M2.24973 15.9609C2.12777 16.4241 2.0224 16.8198 1.90637 17.2616C1.45882 17.1609 1.03376 17.0638 0.540039 16.9524C0.653702 16.4952 0.761446 16.0628 0.883397 15.5664C1.34752 15.7003 1.77731 15.8247 2.24973 15.9609Z" fill="white"/>
<path d="M1.36278 22.6276C0.890363 22.6276 0.46531 22.6276 0 22.6276C0 22.1869 0 21.7391 0 21.2676C0.443998 21.2676 0.892731 21.2676 1.36278 21.2676C1.36278 21.7296 1.36278 22.1513 1.36278 22.6276Z" fill="white"/>
<path d="M0.90693 28.3351C0.781427 27.8671 0.664212 27.4336 0.535156 26.9561C1.00047 26.8424 1.42315 26.7394 1.9003 26.6221C2.0187 27.0485 2.13473 27.4644 2.26142 27.9193C1.80795 28.0579 1.37934 28.1894 0.90693 28.3351Z" fill="white"/>
<path d="M3.8075 31.6582C4.04075 32.0622 4.25387 32.4294 4.48001 32.8203C4.07627 33.0715 3.69028 33.3108 3.27707 33.5678C3.03554 33.1485 2.80939 32.7576 2.55957 32.324C2.99528 32.0918 3.39073 31.8809 3.8075 31.6582Z" fill="white"/>
<path d="M18.3423 0.189543C18.8313 0.124388 19.2658 0.06634 19.7572 0C19.8081 0.462011 19.8566 0.906252 19.9111 1.39906C19.4683 1.46422 19.0539 1.52464 18.5862 1.59216C18.5069 1.12897 18.4299 0.689463 18.3423 0.189543Z" fill="white"/>
<path d="M7.98828 4.91235C8.379 4.60908 8.72709 4.34017 9.11663 4.03809C9.39487 4.41954 9.66008 4.78204 9.95016 5.18008C9.58904 5.45966 9.24687 5.72502 8.88812 6.00341C8.5862 5.63617 8.30559 5.29618 7.98828 4.91235Z" fill="white"/>
<path d="M14.7148 41.2232C14.5431 41.6769 14.388 42.088 14.214 42.55C13.7664 42.3652 13.3414 42.1887 12.8867 42.0003C13.0892 41.5561 13.2703 41.158 13.4692 40.7197C13.886 40.8879 14.2755 41.0455 14.7148 41.2232Z" fill="white"/>
<path d="M2.54346 11.5595C2.79683 11.1212 3.02061 10.7326 3.26214 10.3145C3.67536 10.5692 4.04713 10.7978 4.46153 11.0537C4.23657 11.4493 4.02345 11.8213 3.79375 12.2241C3.37225 12.0002 2.98745 11.7953 2.54346 11.5595Z" fill="white"/>
<path d="M0.0639648 24.1115C0.555322 24.0629 0.988664 24.0191 1.46345 23.9717C1.5262 24.4076 1.58658 24.8223 1.65644 25.3008C1.19349 25.3755 0.742393 25.4477 0.253404 25.5271C0.188284 25.0402 0.130268 24.6102 0.0639648 24.1115Z" fill="white"/>
<path d="M1.36865 29.7081C1.82923 29.5328 2.24126 29.3776 2.68881 29.207C2.85693 29.6051 3.02269 29.9936 3.21095 30.4402C2.78944 30.6345 2.38333 30.8217 1.92276 31.0338C1.73687 30.5907 1.56283 30.1749 1.36865 29.7081Z" fill="white"/>
<path d="M4.96097 35.9063C4.66734 35.5272 4.3891 35.1695 4.08008 34.7702C4.4708 34.4883 4.83547 34.2253 5.22618 33.9434C5.50205 34.2999 5.76016 34.634 6.04906 35.0072C5.68557 35.3093 5.33866 35.5948 4.96097 35.9063Z" fill="white"/>
<path d="M8.90953 37.8682C9.27538 38.1489 9.5998 38.3977 9.97275 38.6832C9.70399 39.0587 9.44469 39.4248 9.15225 39.8335C8.76271 39.5361 8.39449 39.2554 8.00732 38.9604C8.31398 38.5884 8.59458 38.2484 8.90953 37.8682Z" fill="white"/>
<path d="M7.79437 37.0743C7.56704 37.3195 7.26039 37.6512 6.9194 38.0185C6.59617 37.6619 6.29188 37.3266 5.94971 36.9487C6.24807 36.6703 6.57486 36.3647 6.92769 36.0342C7.21303 36.3789 7.49008 36.7118 7.79437 37.0743Z" fill="white"/>
<path d="M18.6196 42.2676C19.0767 42.3315 19.4922 42.3896 19.9504 42.4536C19.9031 42.9239 19.8581 43.3693 19.8084 43.8538C19.336 43.7946 18.9038 43.7413 18.3994 43.6785C18.4728 43.2011 18.5439 42.7497 18.6196 42.2676Z" fill="white"/>
<path d="M6.87531 7.80395C6.57576 7.52319 6.24542 7.21281 5.90088 6.88941C6.24069 6.54941 6.56036 6.22956 6.91201 5.87891C7.23642 6.22127 7.54545 6.54704 7.85684 6.87638C7.52295 7.19268 7.21511 7.4841 6.87531 7.80395Z" fill="white"/>
<path d="M22.0104 7.001C30.2569 7.01522 36.9133 13.7144 36.9003 21.9856C36.8873 30.1762 30.1598 36.8813 21.9808 36.854C13.7011 36.8256 7.03642 30.1193 7.06602 21.8434C7.09443 13.6468 13.8006 6.98678 22.0104 7.001ZM8.48562 21.9536C8.48326 29.4073 14.537 35.4218 22.053 35.4324C29.4163 35.4419 35.4736 29.3576 35.4795 21.9476C35.4854 14.5057 29.4601 8.43797 22.0495 8.42257C14.5524 8.40717 8.48918 14.456 8.48562 21.9536Z" fill="white"/>
<path d="M21.2727 23.3562C21.7712 23.3562 22.2105 23.3562 22.6698 23.3562C22.6698 23.8265 22.6698 24.2648 22.6698 24.7517C22.227 24.7517 21.7771 24.7517 21.281 24.7517C21.281 25.2481 21.281 25.6971 21.281 26.1686C20.7956 26.1686 20.3575 26.1686 19.8709 26.1686C19.8709 25.7243 19.8709 25.2753 19.8709 24.7695C19.0906 24.7695 18.3566 24.7695 17.6225 24.7695C17.4603 24.7695 17.2969 24.773 17.1347 24.7683C16.403 24.7505 16.0939 24.2186 16.4681 23.5943C16.8777 22.9096 17.3099 22.2379 17.7326 21.5615C18.4454 20.4207 19.1605 19.2822 19.8685 18.1379C20.0733 17.8073 20.3315 17.5775 20.7388 17.6901C21.1614 17.8062 21.2798 18.1343 21.2775 18.5489C21.268 20.1304 21.2727 21.7119 21.2727 23.3562ZM19.8354 21.0438C19.8117 21.0284 19.7868 21.0118 19.7631 20.9964C19.2848 21.7605 18.8077 22.5234 18.308 23.3219C18.8621 23.3219 19.3416 23.3219 19.8354 23.3219C19.8354 22.5447 19.8354 21.7937 19.8354 21.0438Z" fill="white"/>
<path d="M12.8498 24.7722C13.8135 24.7722 14.6684 24.7722 15.5576 24.7722C15.5576 25.2389 15.5576 25.6879 15.5576 26.1926C14.9904 26.1926 14.4197 26.1926 13.8491 26.1926C13.0511 26.1926 12.253 26.1878 11.4538 26.1949C11.1152 26.1973 10.8441 26.0978 10.6902 25.7756C10.5327 25.4462 10.6546 25.1785 10.8678 24.9238C11.7688 23.8458 12.6935 22.7867 13.5495 21.6755C13.842 21.2953 14.048 20.8001 14.1427 20.3274C14.2729 19.6747 13.7922 19.1345 13.1777 19.0906C12.5621 19.0468 12.0778 19.5112 12.0399 20.1841C12.0352 20.2729 12.0316 20.3606 12.0269 20.4779C11.5734 20.4779 11.1223 20.4779 10.6724 20.4779C10.438 19.2352 11.2869 18.0174 12.5869 17.7247C13.8621 17.4381 15.1811 18.2282 15.496 19.5005C15.7683 20.5999 15.451 21.5819 14.7702 22.4479C14.1687 23.2108 13.5329 23.9465 12.8498 24.7722Z" fill="white"/>
<path d="M31.4293 19.1025C30.6088 19.1025 29.8735 19.1025 29.1063 19.1025C29.0957 19.3205 29.085 19.5219 29.0732 19.76C28.6268 19.76 28.1781 19.76 27.6808 19.76C27.6808 19.2625 27.6441 18.7471 27.6926 18.2401C27.727 17.88 28.0076 17.6703 28.3782 17.6679C29.7978 17.6596 31.2174 17.649 32.637 17.6727C33.2527 17.6833 33.5202 18.2567 33.1899 18.8301C32.476 20.068 31.9041 21.3676 31.6176 22.7655C31.3902 23.8743 31.2801 25.0068 31.112 26.1666C30.7367 26.1666 30.2879 26.1666 29.7989 26.1666C29.7918 23.6895 30.3424 21.3593 31.4293 19.1025Z" fill="white"/>
<path d="M26.9441 17.8452C26.2255 20.7156 25.521 23.5244 24.8094 26.3664C24.3547 26.255 23.9321 26.1508 23.4336 26.0287C24.1428 23.1903 24.8461 20.3756 25.5636 17.5088C26.0242 17.6213 26.4611 17.7279 26.9441 17.8452Z" fill="white"/>
</svg>
