<svg width="44" height="44" viewBox="0 0 44 44" fill="none" xmlns="http://www.w3.org/2000/svg">
<path d="M0 42.5384C0.399185 42.5508 0.798371 42.573 1.19756 42.5739C2.90075 42.5784 4.60483 42.5757 6.3435 42.5757C6.3435 38.7886 6.3435 35.0281 6.3435 31.2206C5.90528 31.2206 5.46795 31.2206 5.00312 31.2206C5.00312 29.7913 5.00312 28.4082 5.00312 26.971C5.92036 26.971 6.84115 26.971 7.8125 26.971C7.8125 26.1481 7.81162 25.3793 7.8125 24.6096C7.81428 22.9167 8.55144 21.9393 10.1766 21.4776C10.9332 21.2628 11.6873 21.0409 12.4475 20.8411C12.6959 20.7754 12.7793 20.6645 12.7917 20.4008C12.8183 19.8389 12.7287 19.3702 12.302 18.9325C11.7742 18.391 11.485 17.6834 11.4176 16.9227C11.3165 15.7819 11.21 14.6323 11.6012 13.5199C12.1468 11.9717 13.2485 11.0201 14.8435 10.7102C16.4163 10.4049 17.7522 10.9197 18.8149 12.1111C19.5308 12.9136 19.8688 13.8688 19.8626 14.9439C19.859 15.5742 19.8945 16.2098 19.828 16.8339C19.7286 17.7713 19.3179 18.5845 18.6579 19.2663C18.492 19.4376 18.3528 20.5136 18.492 20.692C18.5524 20.7701 18.681 20.8056 18.7857 20.8358C19.5273 21.0506 20.2662 21.277 21.014 21.467C22.381 21.8132 23.1945 22.6557 23.4189 24.1222C23.779 24.1222 24.1463 24.1222 24.5135 24.1222C25.3589 24.1222 26.2034 24.1293 27.0488 24.116C27.2058 24.1133 27.4072 24.0761 27.5101 23.9749C28.7147 22.7888 29.9043 21.5886 31.0974 20.3911C31.1161 20.3724 31.1214 20.3396 31.117 20.3493C30.6672 20.0395 30.1917 19.7705 29.7872 19.4208C28.9738 18.7186 28.5143 17.8077 28.4318 16.7309C28.3502 15.6594 28.2614 14.5808 28.626 13.5386C29.1743 11.9735 30.2831 11.0121 31.8985 10.7067C33.473 10.4093 34.8045 10.9313 35.8628 12.1271C36.5432 12.8959 36.8839 13.8102 36.8901 14.8365C36.8945 15.5378 36.9184 16.2453 36.8422 16.9404C36.7357 17.9098 36.2514 18.7194 35.5284 19.4376C36.8226 20.162 36.9956 21.3516 36.8821 22.6814C37.8534 22.6814 38.7636 22.6814 39.7083 22.6814C39.7198 22.8625 39.7358 23.0001 39.7358 23.1377C39.7376 25.99 39.7438 28.8423 39.7349 31.6947C39.7269 33.9717 38.6953 35.6007 36.6 36.5222C36.2895 36.6589 35.9506 36.7308 35.5639 36.8507C35.634 37.5999 35.7005 38.3643 35.7768 39.1286C35.877 40.1406 36.0048 41.1509 36.0775 42.1647C36.1032 42.5171 36.2345 42.5819 36.5476 42.581C38.8532 42.5704 41.1596 42.5757 43.4651 42.5757C43.6327 42.5757 43.8013 42.5757 44 42.5757C44 43.0861 44 43.5433 44 44.0005C29.333 44.0005 14.6661 44.0005 0 44.0005C0 43.5131 0 43.0258 0 42.5384ZM7.83557 34.0507C7.83557 36.919 7.83557 39.7225 7.83557 42.5721C8.35451 42.5721 8.85216 42.5872 9.34715 42.5597C9.44739 42.5544 9.57247 42.4061 9.63013 42.2952C10.0178 41.545 10.3983 40.7913 10.762 40.0297C10.8712 39.8015 11.0095 39.7278 11.2579 39.7287C15.1096 39.7358 18.9622 39.7358 22.8139 39.7287C23.0658 39.7278 23.1962 39.8113 23.3044 40.0376C23.6611 40.7869 24.0345 41.5282 24.4168 42.2641C24.4807 42.3875 24.6147 42.5517 24.7255 42.5588C25.2205 42.5908 25.7191 42.573 26.2256 42.573C26.2256 39.7074 26.2256 36.895 26.2256 34.0374C21.2553 34.0374 16.3223 34.0374 11.3741 34.0374C11.3741 33.5554 11.3741 33.1195 11.3741 32.6472C16.3329 32.6472 21.2677 32.6472 26.2327 32.6472C26.2327 32.1616 26.2327 31.7124 26.2327 31.2375C20.0888 31.2375 13.9697 31.2375 7.84355 31.2375C7.84355 31.7151 7.84355 32.1634 7.84355 32.6596C8.55233 32.6596 9.23094 32.6596 9.91045 32.6596C9.91045 33.1434 9.91045 33.5793 9.91045 34.0516C9.21054 34.0507 8.54168 34.0507 7.83557 34.0507ZM21.9082 24.0929C21.8452 23.4928 21.5347 23.1182 20.9058 22.9247C20.0462 22.6601 19.1813 22.4098 18.3111 22.1843C18.1754 22.1488 17.9758 22.2464 17.8436 22.337C17.4577 22.6006 17.1242 22.9646 16.709 23.1599C15.5966 23.6828 14.3574 23.357 13.4304 22.3973C13.3133 22.2757 13.0835 22.1443 12.946 22.179C12.0465 22.4062 11.155 22.6672 10.2679 22.9398C9.77472 23.0916 9.34271 23.4183 9.30723 23.9349C9.23981 24.9256 9.28772 25.9235 9.28772 26.9275C12.5956 26.9275 15.916 26.9275 19.2399 26.9275C19.0207 24.9993 19.6727 24.3104 21.9082 24.0929ZM27.699 32.6428C27.8667 32.6428 28.006 32.6428 28.1461 32.6428C29.7775 32.6428 31.4097 32.6437 33.041 32.6428C34.6271 32.6419 35.4867 31.7861 35.4876 30.2059C35.4885 27.556 35.4876 24.9061 35.4876 22.2562C35.4876 22.1257 35.4876 21.9952 35.4876 21.9766C35.1789 22.3796 34.8773 22.8634 34.4879 23.2629C33.0588 24.7294 31.6057 26.1729 30.1483 27.6102C29.9052 27.8498 29.7952 28.0842 29.8041 28.4304C29.828 29.3421 29.8121 30.2547 29.8121 31.2126C29.0811 31.2126 28.4007 31.2126 27.6981 31.2126C27.699 31.6955 27.699 32.1341 27.699 32.6428ZM29.8298 15.7127C29.8298 15.9266 29.8076 16.2568 29.8333 16.5844C29.9398 17.9249 31.0247 18.9822 32.4263 19.1278C33.6797 19.2583 35.0299 18.4256 35.3004 17.1739C35.4867 16.311 35.4894 15.3833 35.4202 14.4973C35.327 13.3024 34.4178 12.3801 33.2681 12.1138C32.1744 11.8608 31.0034 12.3179 30.3266 13.2581C29.82 13.9638 29.7713 14.7699 29.8298 15.7127ZM12.7988 15.6612C12.7988 15.8929 12.7837 16.1938 12.8014 16.4939C12.8822 17.8805 13.9227 18.9503 15.3474 19.1225C16.6327 19.2778 18.0006 18.4354 18.2818 17.1375C18.4654 16.2897 18.4619 15.3744 18.3865 14.5036C18.2827 13.3069 17.5509 12.5168 16.4021 12.1795C15.2711 11.8466 14.2873 12.1555 13.488 13.0219C12.8112 13.7525 12.7305 14.6563 12.7988 15.6612ZM6.40116 29.7736C13.7488 29.7736 21.0459 29.7736 28.3422 29.7736C28.3422 29.296 28.3422 28.8477 28.3422 28.4002C21.0096 28.4002 13.7151 28.4002 6.40116 28.4002C6.40116 28.8708 6.40116 29.3084 6.40116 29.7736ZM38.3254 24.148C37.8197 24.148 37.3806 24.148 36.8972 24.148C36.8972 24.3424 36.898 24.5111 36.8972 24.6797C36.8883 26.7277 36.9184 28.7775 36.8572 30.8247C36.8076 32.4759 35.3439 33.9522 33.7001 34.0099C31.8701 34.0747 30.0365 34.041 28.2038 34.0498C28.037 34.0507 27.8702 34.0498 27.7088 34.0498C27.7088 34.5621 27.7088 35.0113 27.7088 35.4738C30.1181 35.4738 32.4928 35.4782 34.8684 35.4684C35.1363 35.4676 35.4113 35.4161 35.6703 35.3424C37.3283 34.8692 38.3165 33.5438 38.3236 31.771C38.3325 29.3501 38.3262 26.9284 38.3262 24.5075C38.3254 24.3965 38.3254 24.2847 38.3254 24.148ZM24.9784 26.9621C26.1236 26.9621 27.2688 26.9754 28.4131 26.9506C28.6278 26.9461 28.8922 26.8467 29.043 26.6985C30.5847 25.1831 32.1078 23.6491 33.6345 22.1177C33.7445 22.0067 33.8589 21.8913 33.9361 21.7582C34.1295 21.4226 34.094 21.0862 33.8261 20.8118C33.5573 20.5375 33.2193 20.4976 32.8849 20.6884C32.727 20.7781 32.5913 20.9148 32.46 21.0453C31.0504 22.4497 29.6497 23.863 28.2286 25.2568C28.0769 25.405 27.8152 25.5133 27.6032 25.5151C25.6144 25.5346 23.6247 25.5249 21.6359 25.5293C21.4522 25.5293 21.2615 25.5426 21.0859 25.5897C20.7736 25.6731 20.6104 25.9039 20.6024 26.2208C20.5935 26.5564 20.7523 26.8032 21.0814 26.8991C21.2429 26.9461 21.4185 26.9586 21.5888 26.9586C22.7172 26.9648 23.8482 26.9621 24.9784 26.9621ZM31.2979 36.9305C30.0507 36.9305 28.8735 36.9305 27.6999 36.9305C27.6999 38.8232 27.6999 40.6777 27.6999 42.5473C29.0882 42.5473 30.4525 42.5473 31.8568 42.5473C31.6687 40.6573 31.4833 38.8001 31.2979 36.9305ZM11.1098 42.5384C15.0901 42.5384 18.9995 42.5384 22.9549 42.5384C22.7474 42.1194 22.5788 41.7412 22.3712 41.3852C22.3091 41.2778 22.1379 41.1713 22.0164 41.1713C18.6934 41.1597 15.3704 41.1606 12.0474 41.1695C11.9321 41.1695 11.7653 41.2494 11.7121 41.3426C11.501 41.7119 11.3253 42.1025 11.1098 42.5384ZM34.1348 36.9279C33.6292 36.9279 33.1954 36.9279 32.7261 36.9279C32.9089 38.7744 33.0854 40.5818 33.2734 42.3884C33.2805 42.455 33.3941 42.5606 33.4606 42.5633C33.8669 42.5792 34.2741 42.5713 34.6981 42.5713C34.5065 40.6413 34.3211 38.7921 34.1348 36.9279ZM14.2367 20.3316C14.1161 21.0817 14.2296 21.3329 14.8373 21.7236C15.4032 22.0866 15.8938 22.0671 16.4686 21.6747C16.9423 21.3516 17.1534 20.9352 16.9698 20.3325C16.0597 20.6254 15.1451 20.6112 14.2367 20.3316Z" fill="white"/>
<path d="M22.0103 11.411C22.0103 9.93382 22.0103 8.53829 22.0103 7.0824C20.3399 7.0824 18.705 7.0824 17.0488 7.0824C17.0488 4.69171 17.0488 2.36317 17.0488 0C22.696 0 28.3405 0 34.0222 0C34.0222 2.32854 34.0222 4.66685 34.0222 7.07618C33.8581 7.07618 33.694 7.07618 33.529 7.07618C31.5676 7.07618 29.6072 7.06553 27.6459 7.08861C27.3886 7.09127 27.0852 7.2049 26.8848 7.36825C25.4193 8.56137 23.976 9.78024 22.5248 10.9911C22.3748 11.1154 22.2232 11.237 22.0103 11.411ZM32.6259 5.64603C32.6259 4.20789 32.6259 2.82479 32.6259 1.42127C27.9014 1.42127 23.2016 1.42127 18.4806 1.42127C18.4806 2.83367 18.4806 4.21588 18.4806 5.64337C20.1252 5.64337 21.7495 5.64337 23.4287 5.64337C23.4287 6.54886 23.4287 7.41263 23.4287 8.36074C23.6141 8.21782 23.7259 8.13792 23.8314 8.05003C24.6901 7.3354 25.5382 6.60745 26.4128 5.91413C26.6044 5.76232 26.891 5.66023 27.1349 5.65668C28.9525 5.63626 30.7693 5.64603 32.6259 5.64603Z" fill="white"/>
<path d="M28.3576 2.8291C28.3576 3.28806 28.3576 3.72572 28.3576 4.198C26.4867 4.198 24.6265 4.198 22.7344 4.198C22.7344 3.74436 22.7344 3.29872 22.7344 2.8291C24.6105 2.8291 26.4725 2.8291 28.3576 2.8291Z" fill="white"/>
<path d="M21.2694 4.20581C20.801 4.20581 20.3531 4.20581 19.8838 4.20581C19.8838 3.73975 19.8838 3.30387 19.8838 2.83691C20.3442 2.83691 20.7922 2.83691 21.2694 2.83691C21.2694 3.27635 21.2694 3.71223 21.2694 4.20581Z" fill="white"/>
<path d="M29.8315 2.83008C30.3061 2.83008 30.7408 2.83008 31.1968 2.83008C31.1968 3.28993 31.1968 3.7267 31.1968 4.19897C30.7399 4.19897 30.2955 4.19897 29.8315 4.19897C29.8315 3.74179 29.8315 3.30413 29.8315 2.83008Z" fill="white"/>
</svg>
