<svg width="44" height="44" viewBox="0 0 44 44" fill="none" xmlns="http://www.w3.org/2000/svg">
<path d="M15.6069 43.9989C15.6103 43.3813 15.6147 42.7637 15.6169 42.1461C15.6258 39.8458 17.1205 38.3444 19.4325 38.3366C22.4596 38.3278 25.4868 38.3344 28.5151 38.3344C28.6869 38.3344 28.8599 38.3344 29.0894 38.3344C29.0894 37.4064 29.0894 36.4971 29.0894 35.5326C26.0689 35.5326 23.0074 35.5326 19.957 35.5326C19.6764 34.041 20.3362 32.555 21.5925 31.7949C22.2301 31.4093 22.9265 31.2657 23.6561 31.2646C27.0725 31.2591 30.4899 31.2491 33.9063 31.2734C34.5439 31.2778 35.1804 31.4303 35.8812 31.5231C35.9621 31.0149 36.0508 30.4569 36.1373 29.9067C34.1702 29.2991 33.4439 28.5511 33.3663 27.0927C33.3009 25.8586 34.0571 24.8687 35.5751 24.2445C34.7767 21.5896 33.3363 19.3434 31.3349 17.4972C30.0109 18.8164 28.7014 20.1234 27.3452 21.4758C27.7544 21.8591 28.2323 22.3066 28.6892 22.7342C27.6047 23.8125 26.5779 24.8344 25.5799 25.8277C22.4452 22.7043 19.2883 19.5589 16.1514 16.4333C17.1383 15.4533 18.1673 14.4324 19.2284 13.3773C19.631 13.8148 20.0645 14.2877 20.4881 14.7484C23.8623 11.3864 27.16 8.09954 30.491 4.78062C30.9967 5.31535 31.4391 5.78159 31.8616 6.22905C32.7365 5.34629 33.5637 4.51104 34.4153 3.65037C34.2567 3.48465 34.0416 3.26036 33.8132 3.02062C34.8821 1.99975 35.9399 0.991036 36.9778 0C38.6411 1.64068 40.3809 3.35648 42.104 5.05682C41.0517 6.07658 40.0061 7.08972 38.936 8.12605C38.813 8.00894 38.5868 7.7946 38.3927 7.61009C37.5411 8.44977 36.7061 9.27287 35.8313 10.1346C36.2715 10.5545 36.7361 10.9986 37.2073 11.4483C36.5376 12.1001 35.9122 12.7089 35.3068 13.2989C42.3757 20.762 43.734 29.0582 39.4406 38.309C39.8653 38.3322 40.3343 38.3433 40.8 38.3863C42.552 38.5454 43.8937 39.9198 43.9813 41.6754C44.0201 42.4488 43.9869 43.2255 43.9857 44C34.525 43.9989 25.0654 43.9989 15.6069 43.9989ZM30.5188 38.351C31.0388 38.351 31.479 38.351 31.9259 38.351C31.9259 38.8382 31.9259 39.2768 31.9259 39.763C31.7329 39.763 31.5644 39.763 31.3948 39.763C27.3585 39.763 23.3212 39.7563 19.285 39.7663C17.7293 39.7696 16.7025 41.1109 17.1227 42.5549C25.6043 42.5549 34.0859 42.5549 42.5631 42.5549C42.8037 40.8556 41.757 39.69 40.0737 39.7464C38.0002 39.8171 35.9222 39.763 33.8464 39.763C33.6945 39.763 33.5426 39.763 33.3851 39.763C33.3851 39.2592 33.3851 38.8216 33.3851 38.3289C34.8011 38.3289 36.1905 38.3289 37.5855 38.3289C37.5855 37.4726 37.6221 36.6694 37.5777 35.8717C37.4945 34.3913 36.3435 33.1251 34.8233 32.776C33.3829 32.4456 31.7706 33.1583 31.0322 34.4134C30.3092 35.6408 30.582 36.9733 30.5188 38.351ZM35.1083 11.5068C33.5781 9.98217 32.0346 8.44424 30.5565 6.9715C27.6213 9.89599 24.6585 12.847 21.7189 15.777C23.2192 17.2697 24.7583 18.7998 26.2796 20.3124C29.2114 17.389 32.1632 14.4446 35.1083 11.5068ZM39.0392 35.5436C40.6281 31.6203 40.8909 27.6098 39.8065 23.533C38.8595 19.971 37.0011 16.9415 34.3354 14.4711C33.6446 15.1594 32.9948 15.8057 32.3295 16.4686C32.3506 16.4919 32.3916 16.5482 32.4415 16.5957C34.6404 18.6805 36.1717 21.1675 37.01 24.0798C37.0532 24.229 37.2118 24.3892 37.357 24.4588C39.3807 25.4311 39.6291 27.9976 37.8283 29.3366C37.6997 29.4317 37.5943 29.6162 37.5655 29.7753C37.4236 30.5509 37.3027 31.3298 37.1985 32.112C37.1818 32.2368 37.2517 32.4191 37.346 32.5053C38.2552 33.3262 38.8063 34.336 39.0392 35.5436ZM19.204 15.4334C18.8548 15.7671 18.4866 16.1195 18.1506 16.441C20.6234 18.9048 23.1072 21.3796 25.5833 23.8467C25.917 23.5109 26.2752 23.1496 26.6056 22.817C24.1307 20.3488 21.648 17.8718 19.204 15.4334ZM21.424 34.093C24.1406 34.093 26.7775 34.0941 29.4143 34.0874C29.4986 34.0874 29.6162 34.0344 29.6627 33.967C29.9477 33.5626 30.2172 33.1472 30.5077 32.7119C28.025 32.7119 25.5633 32.6766 23.1039 32.7329C22.3266 32.7506 21.7788 33.2864 21.424 34.093ZM34.7934 8.9591C35.5851 8.16583 36.4212 7.32947 37.1841 6.56713C36.6208 6.00256 36.0275 5.40595 35.4365 4.81486C34.6537 5.60151 33.8342 6.42571 33.0403 7.22451C33.6246 7.80234 34.2234 8.39453 34.7934 8.9591ZM39.0015 6.12409C39.374 5.78601 39.7433 5.45014 40.0948 5.13085C39.0248 4.0691 37.958 3.01067 36.9268 1.9887C36.5842 2.31021 36.2116 2.66044 35.8612 2.98968C36.9268 4.05253 37.9913 5.11538 39.0015 6.12409ZM34.7967 27.0209C34.7934 27.8031 35.3922 28.4174 36.1728 28.4329C36.9701 28.4495 37.6065 27.8319 37.6099 27.0364C37.6143 26.242 36.9889 25.6233 36.1883 25.6277C35.4077 25.6332 34.8 26.242 34.7967 27.0209Z" fill="white"/>
<path d="M0.724979 43.9986C0.554215 42.1524 1.29493 40.609 2.4692 39.2854C3.67009 37.932 4.9874 36.6813 6.25593 35.3875C6.41671 35.224 6.58969 35.0716 6.84694 34.8296C6.4777 34.4904 6.1029 34.18 5.76692 33.8319C4.31433 32.3283 2.95488 30.7484 1.92586 28.9176C-0.775297 24.1083 -0.608969 19.3575 2.26074 14.6774C3.23542 13.0887 4.45072 11.6867 5.74031 10.3476C6.07851 9.99737 6.45441 9.68249 6.654 9.49688C5.84122 8.59754 5.06946 7.76229 4.31987 6.90936C3.46717 5.93931 2.57676 4.99358 1.80611 3.96056C0.989994 2.86677 0.574175 1.60616 0.756026 0.179816C1.20068 0.179816 1.64089 0.179816 2.05338 0.179816C2.16538 0.890224 2.27515 1.57633 2.38382 2.26243C6.02418 2.26243 9.56806 2.26243 13.2317 2.26243C13.3459 1.58958 13.4635 0.896853 13.5843 0.178711C13.9902 0.178711 14.4304 0.178711 14.8806 0.178711C15.0524 1.60174 14.6433 2.86456 13.8249 3.95835C13.0443 5.00241 12.1428 5.95589 11.2812 6.93808C10.5416 7.78107 9.78207 8.60749 9.06575 9.40297C10.0682 10.5586 11.2568 11.8314 12.3324 13.1925C13.9037 15.1801 15.0114 17.4064 15.4328 19.9298C16.0061 23.3625 15.211 26.5091 13.3991 29.4369C12.41 31.0345 11.1959 32.4542 9.89406 33.7999C9.55586 34.1501 9.17996 34.465 8.73753 34.8727C8.9593 35.045 9.11898 35.1423 9.2465 35.2715C10.5583 36.6029 11.9077 37.901 13.1607 39.2865C14.0334 40.251 14.691 41.378 14.8617 42.7093C14.916 43.1346 14.8983 43.5688 14.9138 43.9986C14.4525 43.9986 13.9913 43.9986 13.53 43.9986C13.4391 43.3788 13.3625 42.7568 13.2417 42.1425C13.2206 42.0342 13.0122 41.8851 12.8902 41.8851C9.50818 41.8707 6.12508 41.8707 2.74309 41.8851C2.62111 41.8851 2.41265 42.0342 2.39158 42.1414C2.27293 42.7557 2.19864 43.3788 2.10993 43.9986C1.64865 43.9986 1.18626 43.9986 0.724979 43.9986ZM13.571 25.6065C10.953 25.6065 8.33724 25.6065 5.72146 25.6065C5.72146 25.1126 5.72146 24.6651 5.72146 24.1945C7.10309 24.1945 8.44258 24.1945 9.78096 24.1945C11.0639 24.1945 12.3457 24.2 13.6287 24.1856C13.7662 24.1845 14.0012 24.0873 14.0201 23.9989C14.1022 23.6167 14.121 23.22 14.1642 22.8212C9.89739 22.8212 5.69817 22.8212 1.46569 22.8212C1.50117 23.1537 1.55883 23.452 1.55773 23.7503C1.55551 24.1403 1.74069 24.2144 2.09219 24.2022C2.8074 24.1768 3.52372 24.1945 4.23227 24.1945C4.23227 24.7049 4.23227 25.1535 4.23227 25.6352C3.48047 25.6352 2.76526 25.6352 1.99572 25.6352C2.12102 25.9755 2.25187 26.2627 2.3317 26.5632C2.42928 26.9289 2.62666 27.035 3.00921 27.0328C5.96319 27.0151 8.91828 27.0229 11.8723 27.0229C13.2239 27.0229 13.2239 27.0229 13.5954 25.728C13.5987 25.7147 13.5899 25.6993 13.571 25.6065ZM12.3635 15.7193C12.0663 15.2685 11.8312 14.8785 11.5573 14.5172C11.4731 14.4057 11.2857 14.3117 11.1448 14.3106C8.92604 14.2985 6.70834 14.3007 4.48953 14.3051C4.38308 14.3051 4.22562 14.3095 4.17794 14.3736C3.87411 14.7934 3.59468 15.2299 3.25205 15.7414C5.31784 15.7414 7.25611 15.7414 9.19438 15.7414C9.19438 16.2154 9.19438 16.6518 9.19438 17.1224C9.00698 17.1224 8.85174 17.1224 8.6954 17.1224C6.76489 17.1224 4.83438 17.1202 2.90387 17.128C2.76194 17.1291 2.53573 17.1655 2.49249 17.255C2.29955 17.6572 2.15872 18.0836 1.99018 18.5223C5.90996 18.5223 9.74659 18.5223 13.6331 18.5223C13.4945 18.1477 13.3603 17.8185 13.2517 17.4804C13.1652 17.2097 13.0199 17.1037 12.7183 17.1147C12.0463 17.1412 11.3733 17.1224 10.6802 17.1224C10.6802 16.6363 10.6802 16.1999 10.6802 15.7182C11.2269 15.7193 11.7503 15.7193 12.3635 15.7193ZM14.1642 21.3484C14.1277 21.007 14.07 20.6966 14.0689 20.3861C14.0678 20.0248 13.9114 19.9453 13.5688 19.9464C9.7355 19.9585 5.90109 19.9541 2.0678 19.9552C1.92808 19.9552 1.78726 19.9674 1.60984 19.9762C1.56216 20.4458 1.51781 20.8899 1.47123 21.3495C5.73809 21.3484 9.92622 21.3484 14.1642 21.3484ZM3.31969 3.72523C3.73551 4.20031 4.08369 4.61572 4.45404 5.00904C4.52612 5.08638 4.68579 5.10958 4.80555 5.10958C6.82033 5.11511 8.83511 5.114 10.8488 5.11179C10.9441 5.11179 11.0761 5.10848 11.1304 5.05103C11.513 4.63892 11.8811 4.21246 12.3102 3.72523C9.26978 3.72523 6.34574 3.72523 3.31969 3.72523ZM3.29086 28.4702C3.56696 28.89 3.79095 29.2701 4.05818 29.617C4.15133 29.7385 4.3487 29.8479 4.4984 29.849C6.7161 29.8634 8.9338 29.8601 11.1515 29.8556C11.2568 29.8556 11.4121 29.8446 11.4598 29.7783C11.7569 29.3684 12.0308 28.9419 12.3457 28.4702C9.28974 28.4702 6.33022 28.4702 3.29086 28.4702ZM12.3158 40.4433C11.9432 40.0113 11.6427 39.629 11.3023 39.2854C11.1792 39.1617 10.963 39.0666 10.7889 39.0655C8.80074 39.0501 6.81368 39.0534 4.82551 39.0611C4.69245 39.0611 4.51503 39.0865 4.43408 39.1716C4.06373 39.5616 3.71998 39.977 3.31525 40.4444C6.34574 40.4433 9.27754 40.4433 12.3158 40.4433ZM5.30453 31.2842C6.18607 32.21 6.98333 33.0464 7.8183 33.9225C8.66213 33.0331 9.45385 32.1979 10.3199 31.2842C8.60669 31.2842 7.0299 31.2842 5.30453 31.2842ZM5.33004 12.85C7.03656 12.85 8.61999 12.85 10.3021 12.85C9.44276 11.9463 8.64772 11.1088 7.81275 10.2305C6.97779 11.1132 6.18496 11.9496 5.33004 12.85ZM5.95875 6.53924C6.62295 7.16678 7.21286 7.72472 7.8183 8.29592C8.4459 7.69931 9.02583 7.14911 9.67008 6.53924C8.38492 6.53924 7.23061 6.53924 5.95875 6.53924ZM7.81608 35.8637C7.20177 36.4438 6.6163 36.9973 5.99091 37.5895C7.24391 37.5895 8.4082 37.5895 9.64125 37.5895C9.0092 36.9918 8.43482 36.4482 7.81608 35.8637Z" fill="white"/>
</svg>
