<svg width="33" height="44" viewBox="0 0 33 44" fill="none" xmlns="http://www.w3.org/2000/svg">
<path d="M6.58432 42.31C9.51437 42.31 12.3958 42.31 15.3368 42.31C15.3197 41.281 15.3732 40.2691 15.1349 39.2449C13.9915 34.3372 12.8762 29.4222 11.7876 24.5023C11.6465 23.8613 11.7171 23.1741 11.6927 22.5076C11.6867 22.3409 11.6782 22.1719 11.694 22.0064C11.7986 20.9361 11.6113 20.0348 10.8073 19.1749C9.86223 18.1654 9.52288 16.8141 9.50829 15.4202C9.49369 13.9911 9.50221 12.5619 9.50464 11.1328C9.50585 10.4748 9.75884 10.2194 10.4108 10.2169C11.7025 10.2133 12.9966 10.1853 14.2871 10.2242C15.5131 10.2619 16.3049 9.68541 16.7914 8.61872C16.9508 8.26964 17.1697 7.96314 17.5614 8.05436C17.8131 8.11274 18.1099 8.34262 18.223 8.57493C18.7643 9.68419 19.5731 10.3057 20.8502 10.2206C21.1981 10.1975 21.5496 10.2072 21.8986 10.2218C22.3231 10.2388 22.6211 10.4748 22.6223 10.892C22.626 12.6544 22.6613 14.4204 22.553 16.1768C22.4618 17.6679 21.7308 18.9183 20.6933 19.991C20.5559 20.1333 20.4488 20.3851 20.461 20.5773C20.624 23.061 20.2031 25.4656 19.6242 27.8714C18.6572 31.8852 17.756 35.9147 16.89 39.9516C16.7318 40.6887 16.8669 41.489 16.8669 42.2954C19.7118 42.2954 22.6053 42.2954 25.556 42.2954C25.556 41.7724 25.556 41.247 25.556 40.7203C25.556 40.128 25.5548 39.5344 25.556 38.9421C25.5573 38.2537 25.775 37.9532 26.2761 37.9472C26.7845 37.9411 27.0144 38.2427 27.0156 38.9202C27.0168 39.8932 27.0156 40.8662 27.0156 41.8393C27.0156 41.9877 27.0156 42.1361 27.0156 42.3063C28.2367 42.3063 29.4165 42.3063 30.6377 42.3063C30.6462 42.1811 30.6632 42.0509 30.6632 41.9208C30.6645 38.8655 30.6778 35.8089 30.6596 32.7536C30.6377 29.0767 28.1455 25.9424 24.5745 25.0581C24.4322 25.0228 24.285 25.0022 24.1147 24.9705C24.1147 26.666 24.1147 28.3202 24.1147 29.9853C25.477 30.3563 26.4658 31.159 26.838 32.5371C27.001 33.1392 26.9961 33.7972 26.9925 34.4296C26.99 34.8298 26.6848 35.0414 26.2761 35.0366C25.8674 35.0317 25.6132 34.814 25.5682 34.4102C25.5354 34.1098 25.5621 33.8032 25.5524 33.4992C25.5122 32.3036 24.5599 31.3853 23.3643 31.3853C22.1674 31.3853 21.2212 32.2999 21.1798 33.5016C21.1701 33.7753 21.1883 34.0502 21.1713 34.3226C21.1445 34.7641 20.8551 35.0354 20.4391 35.0317C20.0231 35.0281 19.7507 34.7544 19.7191 34.3092C19.5597 32.0858 20.4938 30.6847 22.6175 29.9817C22.6175 28.2886 22.6175 26.5882 22.6175 24.8501C22.5798 24.838 22.5275 24.8234 22.4764 24.8039C22.0397 24.6458 21.8342 24.3454 21.9145 23.9476C22.0008 23.5219 22.2915 23.3517 22.7099 23.3577C24.78 23.3869 26.6653 23.9902 28.3097 25.2479C30.7824 27.138 32.0754 29.6642 32.1131 32.7767C32.1544 36.1361 32.124 39.4955 32.1216 42.8561C32.1216 43.5409 31.871 43.7914 31.1862 43.7914C21.1068 43.7926 11.0274 43.7926 0.948028 43.7914C0.279067 43.7914 0.0139157 43.5409 0.0126994 42.9023C0.0114831 39.4517 -0.0213568 35.9999 0.023646 32.5493C0.0881095 27.5454 4.41081 23.32 9.37693 23.3748C9.63478 23.3772 9.97656 23.5463 10.1201 23.7506C10.2381 23.9184 10.1858 24.2809 10.0872 24.5035C10.0106 24.6762 9.74425 24.765 9.49977 24.9353C9.49977 26.7621 9.49369 28.6754 9.51437 30.5886C9.51558 30.7102 9.70046 30.8647 9.83547 30.945C10.7015 31.4631 11.1296 32.4228 10.8912 33.3544C10.6467 34.3117 9.82087 34.9928 8.86 35.0317C7.87967 35.0706 6.96381 34.4236 6.67798 33.4882C6.38607 32.531 6.75582 31.5069 7.63885 31.0143C7.97333 30.8282 8.05117 30.6214 8.04752 30.2687C8.03049 28.5221 8.03901 26.7755 8.03901 24.9693C7.76656 25.0253 7.53303 25.0593 7.3068 25.1226C3.88294 26.0786 1.49536 29.185 1.47468 32.7451C1.45765 35.8162 1.47103 38.8873 1.46982 41.9573C1.46982 42.0619 1.46982 42.1665 1.46982 42.3027C2.68611 42.3027 3.87564 42.3027 5.11869 42.3027C5.11869 41.3297 5.11869 40.3627 5.11869 39.3945C5.11869 39.1817 5.11383 38.9688 5.11991 38.756C5.1345 38.2366 5.39357 37.952 5.84603 37.9508C6.30214 37.9496 6.57216 38.2306 6.57581 38.7487C6.58311 39.8275 6.57824 40.9076 6.57824 41.9865C6.58432 42.0752 6.58432 42.1653 6.58432 42.31ZM10.9763 11.6765C10.9763 13.063 10.9204 14.3852 10.9885 15.7012C11.1187 18.1909 13.0963 20.1723 15.6092 20.4192C18.0868 20.6624 20.5096 19.0545 20.9682 16.6037C21.2662 15.0152 21.1737 13.3537 21.2601 11.6594C19.7154 11.7859 18.4663 11.4211 17.5249 10.2291C16.5944 11.4296 15.3672 11.7422 13.9733 11.6838C12.9905 11.6436 12.0053 11.6765 10.9763 11.6765ZM13.7191 26.486C14.4999 29.9221 15.2589 33.2632 16.0179 36.6044C16.0544 36.6032 16.0921 36.6031 16.1286 36.6019C16.8875 33.2559 17.6465 29.9099 18.4237 26.4848C16.8218 27.1684 15.3185 27.1659 13.7191 26.486ZM13.1523 21.2146C13.1523 22.06 13.1365 22.8311 13.162 23.6022C13.1693 23.8284 13.2472 24.0839 13.3737 24.27C14.5413 25.9837 17.61 25.9764 18.7801 24.2651C18.8713 24.1313 18.9759 23.9707 18.9795 23.8199C18.999 22.9758 18.9893 22.1305 18.9893 21.2158C17.0396 22.1135 15.1324 22.1171 13.1523 21.2146ZM8.79311 32.115C8.39173 32.1041 8.06577 32.4069 8.04752 32.8095C8.02928 33.2085 8.33213 33.5442 8.73108 33.5673C9.14583 33.5916 9.49734 33.2644 9.50099 32.8497C9.50464 32.4483 9.19448 32.126 8.79311 32.115Z" fill="white"/>
<path d="M5.85297 15.6033C5.85297 13.8251 5.84932 12.0469 5.85419 10.2675C5.87 4.33198 10.7218 -0.276552 16.6439 0.012925C21.9068 0.270779 26.2149 4.68957 26.2745 9.95611C26.3183 13.8008 26.2867 17.6479 26.2854 21.4926C26.2854 22.0813 26.0276 22.3793 25.5459 22.3757C25.0667 22.3708 24.8271 22.0777 24.8271 21.4744C24.8259 17.7197 24.8381 13.965 24.8223 10.2103C24.8052 6.11019 22.116 2.70093 18.146 1.70965C12.7104 0.353487 7.35874 4.47307 7.3186 10.0704C7.29185 13.7789 7.31252 17.4886 7.31252 21.1971C7.31252 21.3333 7.31617 21.4707 7.31131 21.607C7.29306 22.1129 7.01332 22.4073 6.56572 22.3976C6.13394 22.3878 5.86392 22.1044 5.85662 21.6203C5.84689 20.9976 5.85419 20.3736 5.85419 19.7509C5.85297 18.3692 5.85297 16.9863 5.85297 15.6033Z" fill="white"/>
</svg>
