<svg width="38" height="38" viewBox="0 0 38 38" fill="none" xmlns="http://www.w3.org/2000/svg">
<g clip-path="url(#clip0_1385_190660)">
<path fill-rule="evenodd" clip-rule="evenodd" d="M31.2163 25.4169C31.2262 32.1668 25.7416 37.6592 18.9934 37.6574C12.261 37.6556 6.79669 32.1968 6.77594 25.4524C6.75519 18.7031 12.2259 13.2062 18.9786 13.1914C25.7216 13.1767 31.2064 18.6562 31.2163 25.4169ZM8.08618 25.4287C8.08847 31.4523 12.9739 36.3444 18.9898 36.3471C25.0084 36.3498 29.8939 31.4688 29.906 25.4408C29.9181 19.4034 25.0131 14.492 18.9815 14.5017C12.9632 14.5114 8.08399 19.4046 8.08618 25.4287Z" fill="#1B5A90"/>
<path fill-rule="evenodd" clip-rule="evenodd" d="M23.1944 9.8447C23.2712 11.1689 22.1195 11.9825 21.0313 11.5076C20.4577 11.2572 19.8981 10.9722 19.3437 10.6808C19.1011 10.5533 18.899 10.5472 18.6558 10.6771C18.1635 10.9399 17.6544 11.1709 17.1563 11.4231C16.576 11.717 15.9992 11.7465 15.4524 11.3685C14.9056 10.9907 14.7145 10.4471 14.8096 9.79566C14.8922 9.22933 14.9647 8.66136 15.0566 8.09655C15.1017 7.8195 15.049 7.60775 14.8347 7.40353C14.4104 6.99937 14.0148 6.56506 13.6073 6.1432C13.1726 5.69295 13.0173 5.15927 13.2059 4.56312C13.3936 3.9697 13.8154 3.60888 14.4362 3.49837C15.0262 3.39331 15.6153 3.2804 16.2078 3.19183C16.4746 3.15197 16.6489 3.04495 16.7711 2.79465C17.0339 2.25616 17.3216 1.72969 17.6056 1.20179C17.9017 0.651291 18.3685 0.343442 18.9918 0.341804C19.6149 0.340057 20.0847 0.643319 20.3826 1.19371C20.6614 1.70894 20.9467 2.22155 21.1994 2.74955C21.3319 3.0265 21.5133 3.15405 21.8156 3.19609C22.4089 3.27854 23.0005 3.38239 23.5864 3.50765C24.8343 3.77433 25.2757 5.15675 24.4168 6.10585C24.0234 6.54038 23.6198 6.96846 23.1907 7.36717C22.9364 7.60349 22.8904 7.8504 22.945 8.16961C23.0483 8.77373 23.1267 9.38222 23.1944 9.8447ZM16.1255 9.8044C16.0865 10.3228 16.2128 10.4147 16.5881 10.2367C17.1299 9.97978 17.6703 9.71955 18.2037 9.44588C18.7293 9.17615 19.2469 9.1744 19.7726 9.43507C20.3219 9.70765 20.8702 9.98251 21.4246 10.2446C21.7752 10.4105 21.9175 10.3142 21.8732 9.93163C21.809 9.37654 21.7302 8.82276 21.6376 8.27171C21.5232 7.59126 21.6637 7.00996 22.1857 6.52378C22.5947 6.14298 22.9769 5.73237 23.3549 5.32023C23.4436 5.22348 23.5228 5.0577 23.5025 4.94195C23.4886 4.86267 23.301 4.78229 23.1801 4.75881C22.5649 4.63912 21.9466 4.53472 21.3282 4.43098C20.7901 4.34045 20.4087 4.04199 20.1563 3.56771C19.8809 3.05041 19.6168 2.52688 19.3286 2.0169C19.2491 1.87613 19.1013 1.77392 18.9849 1.65412C18.8789 1.76846 18.7458 1.86772 18.6717 1.99997C18.3858 2.51138 18.1186 3.03316 17.8449 3.55133C17.5866 4.04046 17.1967 4.34492 16.6418 4.43567C16.0501 4.53243 15.4589 4.63443 14.8714 4.75379C14.7267 4.78316 14.5974 4.88844 14.461 4.95887C14.5327 5.09582 14.5795 5.25569 14.6806 5.36577C15.0407 5.75727 15.4045 6.14768 15.7943 6.50904C16.3285 7.00439 16.4733 7.59748 16.3501 8.29366C16.2553 8.83019 16.1888 9.37184 16.1255 9.8044Z" fill="#1B5A90"/>
<path fill-rule="evenodd" clip-rule="evenodd" d="M31.7647 18.0113C31.0226 18.0062 30.4611 17.6065 30.2218 16.9481C30.0124 16.3723 29.8461 15.7796 29.6152 15.213C29.54 15.0287 29.3474 14.8386 29.1626 14.7628C28.6092 14.5358 28.0327 14.365 27.4659 14.1705C26.856 13.961 26.4818 13.5346 26.3864 12.9017C26.2955 12.298 26.531 11.8038 27.011 11.4334C27.4969 11.0583 28.0046 10.7101 28.4743 10.3162C28.6164 10.197 28.7288 9.96968 28.7426 9.78349C28.7872 9.18559 28.7812 8.58377 28.7913 7.98347C28.8023 7.34189 29.0696 6.84817 29.6468 6.55496C30.2263 6.26065 30.7829 6.34955 31.3049 6.71582C31.785 7.05271 32.2516 7.41113 32.7499 7.71843C32.9199 7.82315 33.185 7.87077 33.3774 7.82403C33.9454 7.68621 34.4994 7.4903 35.0575 7.31306C35.669 7.11889 36.2263 7.21423 36.6867 7.66448C37.1602 8.12751 37.2631 8.69559 37.0655 9.32341C36.8937 9.869 36.7369 10.4197 36.55 10.9601C36.4553 11.2338 36.4945 11.4436 36.6704 11.6742C37.0176 12.1293 37.336 12.6065 37.6647 13.0756C38.0309 13.5981 38.1175 14.1559 37.8229 14.7341C37.5379 15.2936 37.0611 15.5693 36.4334 15.5834C35.8195 15.597 35.2042 15.5907 34.5928 15.6364C34.4069 15.6503 34.1808 15.765 34.061 15.9074C33.6755 16.3662 33.332 16.8604 32.9705 17.3396C32.6469 17.7689 32.2199 18.0019 31.7647 18.0113ZM35.8788 8.68565C35.7313 8.64809 35.5692 8.55046 35.4414 8.58399C34.849 8.73906 34.2618 8.91761 33.6812 9.11286C33.0884 9.31216 32.5613 9.22087 32.0615 8.85263C31.5896 8.50481 31.107 8.1713 30.6207 7.8439C30.5169 7.7739 30.3227 7.68752 30.266 7.73175C30.1702 7.80645 30.1117 7.97757 30.1057 8.11113C30.0784 8.7242 30.0675 9.33837 30.0649 9.95221C30.0625 10.513 29.8352 10.9506 29.3903 11.2833C28.888 11.659 28.383 12.0315 27.8866 12.4148C27.5798 12.6515 27.6051 12.8195 27.9683 12.9512C28.557 13.1649 29.1491 13.3698 29.7434 13.5674C30.2895 13.749 30.639 14.1116 30.8185 14.6551C31.0107 15.2371 31.2096 15.8167 31.4168 16.3933C31.5548 16.7769 31.7274 16.8021 31.9788 16.4757C32.3699 15.968 32.7471 15.4495 33.1364 14.9404C33.4445 14.5372 33.8535 14.3251 34.3665 14.3175C35.0075 14.3078 35.6487 14.2994 36.2893 14.2772C36.7059 14.2626 36.7816 14.1123 36.5486 13.7718C36.2097 13.2767 35.8661 12.7847 35.5133 12.2997C35.1583 11.8113 35.0658 11.2939 35.2607 10.7162C35.4392 10.1873 35.594 9.65048 35.7581 9.1168C35.7902 9.01261 35.817 8.90701 35.8788 8.68565Z" fill="#1B5A90"/>
<path fill-rule="evenodd" clip-rule="evenodd" d="M11.6241 12.5777C11.6208 13.3515 11.2245 13.9165 10.5686 14.1567C9.99322 14.3676 9.40024 14.5326 8.83325 14.7627C8.64825 14.8378 8.45452 15.0268 8.37874 15.2107C8.15083 15.7637 7.9785 16.3396 7.78565 16.9071C7.57794 17.5182 7.15335 17.8954 6.52171 17.9926C5.90143 18.0881 5.40072 17.8382 5.02451 17.3427C4.65343 16.8537 4.30059 16.3501 3.91204 15.8757C3.80884 15.7496 3.60747 15.6468 3.44464 15.6366C2.80514 15.5963 2.16203 15.6146 1.52209 15.5791C0.216659 15.5066 -0.422626 14.207 0.30577 13.1161C0.61624 12.6511 0.932169 12.1883 1.27442 11.7467C1.48737 11.4718 1.54612 11.2244 1.4178 10.8867C1.22462 10.3785 1.09161 9.84751 0.927801 9.32792C0.730031 8.70021 0.829517 8.13267 1.3027 7.66822C1.76245 7.21699 2.31907 7.11914 2.93095 7.31254C3.50231 7.49317 4.07028 7.68821 4.65005 7.83684C4.81964 7.8803 5.05782 7.84022 5.20688 7.74652C5.70267 7.43474 6.1752 7.08529 6.65101 6.74249C7.18163 6.36028 7.7448 6.25446 8.34204 6.55412C8.93874 6.85356 9.19537 7.36584 9.20291 8.02117C9.20935 8.58063 9.24189 9.1403 9.23032 9.69921C9.22409 10.0019 9.31003 10.204 9.56798 10.3798C10.0522 10.7097 10.5119 11.0759 10.979 11.4305C11.3963 11.7475 11.6107 12.1706 11.6241 12.5777ZM2.29363 8.49556C2.25726 8.6526 2.16498 8.81553 2.19895 8.94548C2.3503 9.52471 2.52066 10.1005 2.7169 10.6662C2.93324 11.2898 2.8296 11.8384 2.43996 12.3592C2.12152 12.7848 1.81749 13.2218 1.52362 13.6648C1.43244 13.8021 1.39531 13.9755 1.33339 14.1323C1.49359 14.1823 1.65194 14.2679 1.81411 14.2759C2.38601 14.3042 2.95945 14.3173 3.53212 14.3141C4.12641 14.3108 4.57961 14.5516 4.92645 15.0271C5.28005 15.5118 5.64064 15.9917 6.01019 16.4642C6.08686 16.5622 6.24498 16.7003 6.3152 16.6757C6.42834 16.6361 6.53591 16.4903 6.58221 16.3657C6.79538 15.7913 6.99031 15.21 7.18436 14.6288C7.36106 14.0996 7.70844 13.7492 8.2383 13.5733C8.79382 13.3888 9.35088 13.207 9.89909 13.0023C10.0499 12.946 10.1719 12.8118 10.307 12.7134C10.2109 12.591 10.134 12.4441 10.0152 12.3506C9.55444 11.988 9.08212 11.6402 8.6108 11.2912C8.15017 10.9503 7.9251 10.5005 7.92586 9.92407C7.92663 9.31023 7.91178 8.69617 7.88917 8.08287C7.87388 7.66768 7.72711 7.6003 7.37908 7.83531C7.10792 8.01844 6.81798 8.18389 6.58046 8.40459C5.66751 9.253 4.67145 9.41288 3.53922 8.87854C3.18638 8.712 2.78701 8.64353 2.29363 8.49556Z" fill="#1B5A90"/>
<path fill-rule="evenodd" clip-rule="evenodd" d="M16.1257 9.8048C16.1892 9.37235 16.2556 8.83058 16.3506 8.29384C16.4737 7.59766 16.3288 7.00457 15.7947 6.50922C15.405 6.14775 15.0411 5.75745 14.681 5.36595C14.5799 5.25598 14.5332 5.09611 14.4614 4.95905C14.5978 4.88862 14.7271 4.78323 14.8718 4.75397C15.4593 4.63461 16.0505 4.53272 16.6422 4.43585C17.1972 4.34499 17.587 4.04064 17.8454 3.55151C18.119 3.03334 18.3862 2.51155 18.6721 2.00015C18.7461 1.8679 18.8793 1.76863 18.9853 1.6543C19.1018 1.77409 19.2495 1.87631 19.329 2.01708C19.6172 2.52706 19.8813 3.05059 20.1567 3.56789C20.4092 4.04217 20.7906 4.34063 21.3287 4.43116C21.9469 4.53501 22.5652 4.6393 23.1806 4.75899C23.3014 4.78247 23.4891 4.86284 23.5029 4.94213C23.5232 5.05788 23.4441 5.22377 23.3553 5.32041C22.9773 5.73255 22.5951 6.14316 22.1861 6.52396C21.6641 7.01014 21.5236 7.59133 21.638 8.27189C21.7308 8.82294 21.8094 9.37683 21.8736 9.9318C21.9178 10.3143 21.7756 10.4107 21.425 10.2448C20.8707 9.98269 20.3223 9.70782 19.773 9.43525C19.2473 9.17458 18.7297 9.17632 18.2041 9.44606C17.6707 9.71973 17.1303 9.97996 16.5885 10.2369C16.213 10.4151 16.0867 10.3232 16.1257 9.8048Z" fill="#0CE0FF"/>
<path fill-rule="evenodd" clip-rule="evenodd" d="M35.8785 8.68674C35.8167 8.9081 35.7897 9.01381 35.7577 9.11777C35.5937 9.65145 35.4388 10.1883 35.2604 10.7172C35.0655 11.2949 35.158 11.8123 35.513 12.3007C35.8657 12.7857 36.2095 13.2777 36.5483 13.7727C36.7813 14.1132 36.7056 14.2637 36.289 14.2781C35.6483 14.3004 35.0072 14.3088 34.3661 14.3184C33.8532 14.3261 33.4443 14.5382 33.136 14.9413C32.7467 15.4504 32.3695 15.969 31.9785 16.4766C31.7272 16.8029 31.5545 16.7778 31.4165 16.3943C31.2091 15.8177 31.0103 15.238 30.8182 14.6561C30.6386 14.1125 30.2892 13.75 29.743 13.5684C29.1487 13.3708 28.5566 13.1659 27.9679 12.9522C27.6048 12.8205 27.5796 12.6526 27.8862 12.4158C28.3827 12.0323 28.8876 11.6599 29.39 11.2843C29.8349 10.9515 30.0621 10.514 30.0645 9.95319C30.0672 9.33935 30.0781 8.72518 30.1054 8.1121C30.1114 7.97855 30.1697 7.80742 30.2657 7.73273C30.3224 7.68861 30.5165 7.77499 30.6204 7.84488C31.1067 8.17238 31.5893 8.5059 32.0611 8.8536C32.5609 9.22184 33.088 9.31314 33.6809 9.11384C34.2615 8.91858 34.8487 8.74014 35.441 8.58496C35.5689 8.55154 35.7311 8.64917 35.8785 8.68674Z" fill="#0CE0FF"/>
<path fill-rule="evenodd" clip-rule="evenodd" d="M2.29362 8.49585C2.78701 8.64382 3.18637 8.7123 3.53932 8.87883C4.67145 9.41328 5.66762 9.2533 6.58057 8.40488C6.81809 8.18418 7.10803 8.01863 7.37918 7.8356C7.72722 7.60059 7.87399 7.66797 7.88928 8.08317C7.91199 8.69657 7.92685 9.31063 7.92597 9.92436C7.92521 10.5007 8.15028 10.9506 8.6109 11.2915C9.08223 11.6404 9.55454 11.9883 10.0153 12.3509C10.1341 12.4444 10.211 12.5913 10.3071 12.7137C10.1719 12.8121 10.05 12.9463 9.89919 13.0026C9.35088 13.2074 8.79393 13.3891 8.23841 13.5735C7.70855 13.7495 7.36117 14.0998 7.18447 14.6291C6.99042 15.2103 6.79538 15.7917 6.58232 16.366C6.53612 16.4906 6.42845 16.6364 6.31531 16.6759C6.24509 16.7006 6.08696 16.5625 6.0103 16.4645C5.64075 15.9919 5.28016 15.512 4.92655 15.0274C4.57972 14.5519 4.12652 14.3111 3.53223 14.3144C2.95945 14.3176 2.38612 14.3045 1.81422 14.2762C1.65194 14.2682 1.49359 14.1826 1.3335 14.1326C1.39542 13.9757 1.43254 13.8026 1.52373 13.6651C1.8176 13.2221 2.12163 12.7851 2.44007 12.3595C2.8296 11.8386 2.93335 11.2901 2.71701 10.6665C2.52077 10.1008 2.35041 9.525 2.19905 8.94577C2.16498 8.81571 2.25726 8.65278 2.29362 8.49585Z" fill="#0CE0FF"/>
<path fill-rule="evenodd" clip-rule="evenodd" d="M18.9961 26.5154C20.5235 26.5154 22.0509 26.5107 23.5784 26.5167C25.1914 26.523 26.1008 27.9341 25.4435 29.4008C23.7476 33.1846 19.2767 34.7279 15.6528 32.7592C14.1908 31.965 13.1316 30.7798 12.5014 29.2331C11.964 27.9142 12.8701 26.5444 14.2915 26.5313C15.8595 26.5168 17.4279 26.5279 18.9962 26.5279C18.9961 26.5238 18.9961 26.5196 18.9961 26.5154ZM22.6928 30.9364C23.3457 30.3781 23.8526 29.7158 24.2116 28.9391C24.5319 28.2466 24.262 27.8273 23.494 27.8263C21.8025 27.824 20.1109 27.824 18.4194 27.8262C17.0689 27.8278 15.7184 27.8296 14.368 27.8401C13.8543 27.8441 13.5286 28.2178 13.6915 28.6639C14.0193 29.5614 14.5662 30.3142 15.3088 30.9271C17.1696 28.5744 20.8321 28.5701 22.6928 30.9364ZM16.4782 31.658C17.8259 32.4761 20.2443 32.4734 21.5166 31.6522C20.4323 30.0753 17.5133 30.0787 16.4782 31.658Z" fill="#1B5A90"/>
<path fill-rule="evenodd" clip-rule="evenodd" d="M14.814 21.9908C14.5645 22.0616 14.191 22.0958 13.9025 22.2703C13.635 22.432 13.4657 22.7508 13.2386 22.9866C13.1295 23.0999 12.9934 23.2409 12.8579 23.2545C12.7788 23.2625 12.5924 23.0374 12.6009 22.9288C12.6266 22.5983 12.6507 22.2325 12.8068 21.9541C13.2712 21.1265 14.0351 20.7167 14.9718 20.7308C15.9062 20.7449 16.666 21.1657 17.1033 22.0097C17.2551 22.3027 17.2524 22.6843 17.2765 23.0284C17.2818 23.1058 17.1097 23.2548 17.0092 23.264C16.9076 23.2735 16.7217 23.1717 16.6962 23.083C16.4314 22.164 15.6802 22.0915 14.814 21.9908Z" fill="#1B5A90"/>
<path fill-rule="evenodd" clip-rule="evenodd" d="M25.4803 22.8075C25.3785 22.9529 25.2984 23.1956 25.1463 23.2557C24.8806 23.3608 24.8392 23.0829 24.7144 22.9033C24.5235 22.6288 24.2666 22.3468 23.9718 22.2088C23.3416 21.9134 22.6539 21.9203 22.0394 22.2509C21.7566 22.4032 21.5783 22.7439 21.34 22.9869C21.2298 23.0993 21.0951 23.2435 20.9609 23.2557C20.8792 23.2631 20.6937 23.0409 20.7004 22.9307C20.7195 22.6136 20.7444 22.2645 20.8893 21.9933C21.3465 21.1372 22.1196 20.7207 23.0709 20.7327C24.0215 20.7447 24.7704 21.1877 25.2314 22.0404C25.3445 22.2496 25.3832 22.4993 25.4803 22.8075Z" fill="#1B5A90"/>
<path fill-rule="evenodd" clip-rule="evenodd" d="M16.478 31.6591C17.5132 30.0798 20.4321 30.0765 21.5164 31.6533C20.2441 32.4744 17.8256 32.4772 16.478 31.6591Z" fill="#0CE0FF"/>
</g>
<defs>
<clipPath id="clip0_1385_190660">
<rect width="38" height="37.3164" fill="white" transform="translate(0 0.341797)"/>
</clipPath>
</defs>
</svg>
