<svg width="38" height="48" viewBox="0 0 38 48" fill="none" xmlns="http://www.w3.org/2000/svg">
<g clip-path="url(#clip0_1385_190678)">
<path fill-rule="evenodd" clip-rule="evenodd" d="M30.328 0.820312C31.1536 1.08287 31.9317 1.45611 32.2603 2.30829C32.4655 2.84088 32.5047 3.4416 32.5844 4.01639C32.6253 4.31143 32.5915 4.61688 32.5915 4.98537C33.1306 4.98537 33.6518 4.98469 34.1731 4.9856C34.5805 4.98628 34.9887 4.97213 35.395 4.9942C36.8206 5.07127 37.9659 6.10419 37.9956 7.51725C38.0627 10.7207 37.3694 13.7186 35.2758 16.2585C34.2045 17.5584 32.8514 18.4657 31.2457 18.9787C30.9376 19.0772 30.7377 19.2193 30.5925 19.522C29.0936 22.6467 26.9329 25.2226 24.0835 27.1966C23.0569 27.9077 22.5893 28.8253 22.6229 30.0659C22.6608 31.4681 22.6254 32.8722 22.6415 34.2753C22.6432 34.4156 22.7483 34.6385 22.8596 34.6808C24.4262 35.2772 25.2184 36.4313 25.3662 38.1256C25.6447 38.1256 25.9273 38.1192 26.2096 38.1267C27.8007 38.1679 28.9445 39.2947 28.9641 40.8868C28.9859 42.6369 28.9751 44.3875 28.9668 46.1375C28.9635 46.8189 28.6096 47.1758 27.9283 47.1763C21.9833 47.1811 16.0382 47.181 10.0932 47.1763C9.41136 47.1758 9.05646 46.8196 9.05317 46.1392C9.04469 44.389 9.03416 42.6384 9.05566 40.8884C9.07513 39.2961 10.2181 38.1687 11.8088 38.1268C12.0785 38.1197 12.3486 38.1257 12.5832 38.1257C12.7443 37.5763 12.8415 37.0394 13.0567 36.5551C13.4536 35.6617 14.1511 35.0483 15.077 34.7254C15.3222 34.6399 15.3959 34.5282 15.394 34.2758C15.3822 32.767 15.3874 31.2581 15.3883 29.7491C15.389 28.6811 14.9132 27.8826 14.0433 27.2818C11.5056 25.5291 9.43275 23.3268 8.01154 20.5934C7.47522 19.5618 6.78736 18.9871 5.7369 18.5369C3.43295 17.5494 1.9727 15.6856 1.03439 13.3997C0.29674 11.6038 0.00305966 9.71946 4.02727e-06 7.78795C-0.00248575 6.18431 1.14972 5.02102 2.76026 4.9891C3.63191 4.9719 4.50424 4.98605 5.42806 4.98605C5.42806 4.57886 5.42761 4.20652 5.42806 3.8343C5.43066 2.2516 6.07642 1.36818 7.57832 0.889234C7.61929 0.876219 7.65392 0.843852 7.69149 0.820426C15.2372 0.820312 22.7826 0.820312 30.328 0.820312ZM23.5186 38.1093C23.457 37.1042 22.8318 36.4404 21.8775 36.3236C21.0778 36.2257 20.8227 35.9473 20.8216 35.1526C20.8191 33.3574 20.8108 31.562 20.8281 29.7669C20.8323 29.3341 20.8898 28.8936 20.9869 28.4714C21.2824 27.1856 22.1712 26.3676 23.1926 25.6084C28.1289 21.9397 30.6552 17.0057 30.7732 10.8597C30.8182 8.50705 30.7821 6.15296 30.78 3.79944C30.7792 2.94862 30.457 2.63197 29.5938 2.63185C22.5335 2.63072 15.4732 2.63072 8.41285 2.63185C7.5567 2.63197 7.2405 2.95145 7.23982 3.81269C7.2379 6.15115 7.23711 8.48951 7.23994 10.8279C7.24209 12.618 7.4871 14.3744 8.01607 16.0858C9.27148 20.147 11.6402 23.4025 15.1279 25.8332C16.5571 26.8292 17.222 28.1851 17.2031 29.9152C17.1844 31.6198 17.1994 33.3247 17.1989 35.0294C17.1987 35.9737 17.0048 36.199 16.0867 36.3263C15.1484 36.4565 14.4562 37.2486 14.5399 38.1091C17.5225 38.1093 20.5063 38.1093 23.5186 38.1093ZM10.8653 45.3383C16.3234 45.3383 21.7274 45.3383 27.1589 45.3383C27.1589 43.9382 27.1594 42.5682 27.1588 41.1983C27.1584 40.2209 26.8714 39.9361 25.8862 39.9361C21.3025 39.9356 16.7189 39.9358 12.1352 39.9361C12.0147 39.9361 11.8932 39.93 11.7735 39.9405C11.2442 39.9865 10.8801 40.3089 10.8727 40.835C10.8516 42.3254 10.8653 43.8162 10.8653 45.3383ZM5.42942 6.79748C4.49688 6.79748 3.63757 6.7839 2.77882 6.802C2.16011 6.81502 1.80724 7.19256 1.81369 7.81647C1.81845 8.28342 1.84323 8.75161 1.88839 9.21641C2.06833 11.0683 2.53143 12.8329 3.57872 14.4007C4.27042 15.4361 5.15407 16.2626 6.38968 16.8742C5.22639 13.5399 5.44005 10.1798 5.42942 6.79748ZM31.6605 16.785C31.716 16.8226 31.7716 16.8601 31.8272 16.8977C32.4484 16.3814 33.1363 15.9266 33.6789 15.3378C35.6719 13.1746 36.1624 10.4879 36.1983 7.67048C36.2042 7.20569 35.8688 6.84139 35.4103 6.8235C34.4827 6.78706 33.5528 6.81264 32.5908 6.81264C32.5767 10.1876 32.7981 13.5481 31.6605 16.785Z" fill="#1B5A90"/>
<path fill-rule="evenodd" clip-rule="evenodd" d="M10.8652 45.3376C10.8652 43.8156 10.8515 42.3246 10.8726 40.8343C10.88 40.3081 11.2441 39.9858 11.7733 39.9398C11.893 39.9292 12.0144 39.9354 12.135 39.9354C16.7187 39.9351 21.3024 39.9349 25.886 39.9354C26.8712 39.9354 27.1581 40.2203 27.1587 41.1976C27.1593 42.5675 27.1588 43.9375 27.1588 45.3376C21.7272 45.3376 16.3234 45.3376 10.8652 45.3376ZM17.2311 41.7463C16.6579 41.7463 16.0845 41.738 15.5114 41.7487C14.8946 41.7601 14.4806 42.1401 14.4898 42.6646C14.4987 43.1738 14.9009 43.5472 15.4922 43.5532C16.6236 43.5647 17.7551 43.5639 18.8865 43.5538C19.503 43.5483 19.9173 43.1629 19.908 42.6385C19.8988 42.1146 19.4858 41.7573 18.8603 41.7479C18.3172 41.7399 17.7742 41.7461 17.2311 41.7463ZM22.6531 41.7532C22.1802 41.74 21.747 42.153 21.7335 42.6301C21.7201 43.1034 22.1325 43.5358 22.6103 43.5496C23.0826 43.5633 23.5162 43.1498 23.5298 42.6729C23.5433 42.1996 23.1305 41.7667 22.6531 41.7532Z" fill="#0CE0FF"/>
<path fill-rule="evenodd" clip-rule="evenodd" d="M14.1716 19.1047C14.366 17.9518 14.5816 16.7354 14.7652 15.514C14.7906 15.3453 14.7095 15.1016 14.5893 14.9795C13.8067 14.1844 13.0059 13.4066 12.1978 12.6371C11.8692 12.3242 11.6407 11.9815 11.7891 11.5209C11.938 11.0587 12.3255 10.9209 12.7755 10.8621C13.8659 10.72 14.9524 10.5464 16.0426 10.4022C16.33 10.3642 16.4811 10.2314 16.6042 9.97089C17.0739 8.97735 17.5758 7.99898 18.0544 7.00952C18.2435 6.6184 18.4897 6.30933 18.9586 6.30096C19.4505 6.29224 19.7066 6.61003 19.9032 7.01699C20.3812 8.00691 20.8836 8.98516 21.3521 9.97938C21.4771 10.2444 21.6397 10.3654 21.922 10.403C23.0271 10.5504 24.1292 10.7188 25.2339 10.8692C25.6486 10.9257 26.0001 11.0666 26.1524 11.4883C26.3119 11.9297 26.13 12.273 25.8122 12.5793C25.0196 13.3432 24.2472 14.1287 23.4402 14.877C23.1823 15.1161 23.1283 15.3464 23.1879 15.6699C23.3865 16.7512 23.555 17.8382 23.7577 18.9188C23.8377 19.3449 23.7742 19.711 23.4237 19.9709C23.0689 20.234 22.6908 20.1674 22.3174 19.9689C21.3198 19.4391 20.3126 18.927 19.3215 18.3853C19.0641 18.2448 18.8689 18.257 18.6199 18.3921C17.6138 18.9378 16.6022 19.4739 15.5827 19.9943C14.8461 20.3705 14.1305 19.9432 14.1716 19.1047ZM16.2683 17.5893C17.0288 17.1901 17.7014 16.8525 18.3585 16.4869C18.7822 16.251 19.1722 16.251 19.5964 16.4873C20.252 16.8526 20.9241 17.1883 21.6753 17.5817C21.5893 17.0395 21.5241 16.5837 21.444 16.1306C21.128 14.344 21.0855 14.6791 22.3339 13.4369C22.6563 13.1163 22.9583 12.7748 23.2915 12.4197C22.5406 12.3125 21.8268 12.1915 21.1082 12.1142C20.5552 12.0548 20.205 11.7959 19.9789 11.2839C19.6836 10.6152 19.3332 9.971 18.9742 9.25112C18.5968 10.0143 18.2486 10.698 17.9202 11.391C17.7298 11.7927 17.4487 12.0253 16.9947 12.082C16.2241 12.1782 15.4577 12.3077 14.7094 12.4201C15.237 12.9784 15.7376 13.5365 16.2706 14.0614C16.6115 14.397 16.7659 14.75 16.6698 15.2342C16.5205 15.9853 16.4101 16.7441 16.2683 17.5893Z" fill="#1B5A90"/>
<path fill-rule="evenodd" clip-rule="evenodd" d="M17.2313 41.7472C17.7744 41.7471 18.3175 41.7407 18.8605 41.7488C19.486 41.7581 19.8991 42.1154 19.9081 42.6393C19.9174 43.1637 19.5032 43.5491 18.8866 43.5546C17.7552 43.5647 16.6237 43.5655 15.4924 43.5541C14.901 43.5481 14.4988 43.1746 14.4899 42.6654C14.4807 42.1409 14.8947 41.761 15.5115 41.7495C16.0846 41.7389 16.6579 41.7473 17.2313 41.7472Z" fill="#1B5A90"/>
<path fill-rule="evenodd" clip-rule="evenodd" d="M22.6532 41.7542C23.1307 41.7677 23.5436 42.2006 23.53 42.6739C23.5164 43.1508 23.0826 43.5643 22.6105 43.5506C22.1326 43.5368 21.7203 43.1044 21.7337 42.6311C21.7472 42.1539 22.1803 41.741 22.6532 41.7542Z" fill="#1B5A90"/>
<path fill-rule="evenodd" clip-rule="evenodd" d="M16.2684 17.5882C16.4102 16.7431 16.5206 15.9843 16.6698 15.233C16.7661 14.7489 16.6115 14.3959 16.2707 14.0603C15.7376 13.5352 15.2371 12.9772 14.7095 12.419C15.4579 12.3065 16.2243 12.1771 16.9947 12.0809C17.4488 12.0243 17.7299 11.7916 17.9203 11.3899C18.2488 10.6969 18.5969 10.0132 18.9742 9.25C19.3333 9.96989 19.6837 10.6141 19.979 11.2828C20.2051 11.7947 20.5554 12.0537 21.1083 12.1131C21.8268 12.1904 22.5406 12.3114 23.2916 12.4186C22.9583 12.7738 22.6564 13.1152 22.334 13.4358C21.0856 14.6779 21.128 14.343 21.4441 16.1295C21.5242 16.5826 21.5894 17.0384 21.6754 17.5806C20.9242 17.1872 20.2521 16.8514 19.5965 16.4862C19.1723 16.2499 18.7823 16.2499 18.3586 16.4857C17.7015 16.8514 17.0289 17.189 16.2684 17.5882Z" fill="#0CE0FF"/>
</g>
<defs>
<clipPath id="clip0_1385_190678">
<rect width="38" height="46.3597" fill="white" transform="translate(0 0.820312)"/>
</clipPath>
</defs>
</svg>
