<svg width="38" height="40" viewBox="0 0 38 40" fill="none" xmlns="http://www.w3.org/2000/svg">
<g clip-path="url(#clip0_1385_190650)">
<path fill-rule="evenodd" clip-rule="evenodd" d="M17.5473 29.4429C16.8453 29.2222 16.0459 29.0583 15.322 28.7286C11.6317 27.0476 9.65335 24.1547 9.52108 20.1019C9.4326 17.3897 9.50128 14.6723 9.50467 11.9571C9.50592 11.055 10.0598 10.4997 10.9573 10.4962C12.2584 10.491 13.5594 10.4902 14.8604 10.4965C15.6859 10.5005 16.2915 11.0843 16.2894 11.8554C16.2873 12.6262 15.6824 13.2014 14.854 13.2085C14.0197 13.2158 13.1854 13.2127 12.3511 13.2155C12.3249 13.2157 12.2988 13.2297 12.2375 13.2475C12.2315 13.372 12.2193 13.5083 12.2191 13.6444C12.218 15.7372 12.2139 17.8302 12.2193 19.9231C12.2292 23.8356 15.3069 26.8548 19.2055 26.7827C22.6775 26.7185 25.6666 23.8456 25.7736 20.3721C25.8455 18.0409 25.7906 15.7059 25.7912 13.3726C25.7912 13.333 25.7746 13.2935 25.7557 13.2093C24.8717 13.2093 23.9851 13.2208 23.099 13.2063C22.1033 13.1899 21.4494 12.2334 21.8237 11.3432C22.0462 10.8143 22.463 10.5074 23.04 10.5011C24.4257 10.4856 25.8119 10.4835 27.1974 10.5014C27.9176 10.5107 28.499 11.084 28.5014 11.8048C28.5115 14.7178 28.5896 17.6343 28.4757 20.5431C28.3053 24.8935 25.0042 28.565 20.7339 29.3209C20.4246 29.3757 20.3465 29.4873 20.3579 29.7833C20.4203 31.3961 20.9389 32.8412 22.0184 34.0378C22.6074 34.6905 23.4426 34.9742 24.3062 35.0119C26.4861 35.107 28.3764 34.3289 30.021 32.9395C31.9515 31.3085 33.2068 29.2099 34.0511 26.8618C35.4987 22.8357 35.8774 18.7365 34.3764 14.6602C32.1232 8.54117 27.7058 4.92369 21.2657 3.87268C17.9933 3.33863 14.8541 3.92167 11.8593 5.33338C11.5673 5.47097 11.2067 5.55606 10.89 5.52845C10.3003 5.47697 9.8569 4.98422 9.76796 4.41566C9.67632 3.82889 9.96699 3.26294 10.5297 2.98211C12.1956 2.15038 13.9431 1.54562 15.7828 1.26094C21.3836 0.394248 26.4679 1.64156 30.8996 5.19648C34.8921 8.39917 37.2592 12.5863 37.8439 17.6823C38.451 22.9732 37.2858 27.8868 34.2566 32.2942C32.61 34.69 30.4289 36.4411 27.5814 37.2419C25.997 37.6874 24.3768 37.8579 22.7643 37.4456C20.3637 36.8318 18.93 35.1887 18.2593 32.8754C17.9353 31.7565 17.7794 30.5887 17.5473 29.4429Z" fill="#1B5A90"/>
<path fill-rule="evenodd" clip-rule="evenodd" d="M12.2338 33.5964C12.225 36.4595 9.96626 38.8538 7.13876 38.9971C4.20761 39.1457 1.70936 37.0121 1.42231 34.1134C1.27749 32.6511 1.66433 31.3379 2.5833 30.1981C2.7813 29.9524 2.73152 29.8015 2.60027 29.5752C0.528579 26.003 -0.320012 22.1529 0.107791 18.0509C0.557996 13.7329 2.31005 9.99291 5.30094 6.83989C5.88081 6.22879 6.69025 6.18116 7.26548 6.71531C7.8509 7.25898 7.85248 8.0803 7.25145 8.71414C5.40888 10.6566 4.08089 12.8996 3.36016 15.4799C2.13377 19.8707 2.64643 24.0651 4.84824 28.0573C4.9968 28.3265 5.11923 28.4249 5.46545 28.3376C8.95576 27.458 12.2449 30.0247 12.2338 33.5964ZM9.50237 33.5828C9.50904 32.0847 8.2882 30.8603 6.78665 30.8594C5.30524 30.8583 4.0861 32.0642 4.07376 33.5428C4.0612 35.0464 5.27322 36.2818 6.76753 36.2886C8.26965 36.2955 9.49569 35.0825 9.50237 33.5828Z" fill="#1B5A90"/>
<path fill-rule="evenodd" clip-rule="evenodd" d="M9.50243 33.5828C9.49575 35.0823 8.26971 36.2954 6.76759 36.2885C5.27328 36.2818 4.06138 35.0463 4.07383 33.5427C4.08616 32.0641 5.3053 30.8582 6.78671 30.8594C8.28827 30.8604 9.50899 32.0846 9.50243 33.5828Z" fill="#0CE0FF"/>
</g>
<defs>
<clipPath id="clip0_1385_190650">
<rect width="38" height="38.0077" fill="white" transform="translate(0 0.996094)"/>
</clipPath>
</defs>
</svg>
