<svg width="25" height="26" viewBox="0 0 25 26" fill="none" xmlns="http://www.w3.org/2000/svg">
<g clip-path="url(#clip0_1476_163704)">
<path d="M22.0281 20.5689C22.0281 19.6422 22.0814 18.7261 22.0175 17.8207C21.9216 16.5744 20.8564 15.701 19.6208 15.7436C18.3958 15.7862 17.4371 16.7662 17.4052 18.0231C17.3839 18.8965 17.4052 19.7593 17.3945 20.6328C17.3839 23.3171 15.4772 25.3622 12.8142 25.554C10.343 25.7351 7.97826 23.7112 7.77587 21.2293C7.74391 20.7713 7.75457 20.3239 7.73326 19.8659C7.72261 19.7593 7.64805 19.6209 7.55218 19.5676C6.97698 19.2374 6.68937 18.7581 6.68937 18.0976C6.68937 17.81 6.68937 17.5224 6.68937 17.2455C6.06091 17.0324 5.4431 16.8727 4.8679 16.6064C2.40731 15.5305 0.713661 13.7623 0.14911 11.0674C0.0106355 10.4176 0.0212874 9.7359 -1.643e-05 9.06483C-0.0106683 8.72397 0.159762 8.43637 0.436711 8.21268C0.511275 8.14877 0.575186 8.02094 0.575186 7.91442C0.585838 7.16879 0.59649 6.42316 0.575186 5.67753C0.553882 4.61234 0.841483 3.66432 1.46995 2.80151C1.53386 2.7163 1.53386 2.55652 1.51255 2.43935C1.40603 1.62981 1.88537 0.937432 2.67361 0.788306C3.39794 0.649831 4.13292 1.11851 4.314 1.83219C4.50574 2.60978 4.05836 3.38737 3.29142 3.5578C2.96121 3.63236 2.6097 3.5578 2.18362 3.54715C1.84276 4.00518 1.60842 4.62299 1.59777 5.29406C1.57646 6.18882 1.58712 7.07292 1.58712 7.96768C1.58712 8.0529 1.64038 8.15942 1.71494 8.21268C2.0558 8.47898 2.18362 8.83049 2.16232 9.24591C2.11971 10.2898 2.30079 11.2911 2.85469 12.1858C3.91988 13.9114 5.50701 14.9021 7.47762 15.1151C10.0873 15.4027 12.1858 14.4014 13.6344 12.1752C14.1351 11.4082 14.3374 10.5241 14.3268 9.60808C14.3161 9.04353 14.3055 8.50028 14.87 8.14877C14.902 8.12746 14.9233 8.06355 14.9233 8.01029C14.902 6.96641 14.9233 5.92252 14.8487 4.87863C14.8168 4.45256 14.5505 4.04779 14.3907 3.64301C14.3268 3.48324 14.2416 3.45128 14.0498 3.51519C13.3894 3.74953 12.729 3.51519 12.3668 2.96129C12.0153 2.41805 12.0686 1.72567 12.5053 1.23569C12.9207 0.767002 13.6131 0.628527 14.1777 0.905477C14.7742 1.19308 15.0724 1.81089 14.9552 2.50326C14.9339 2.60978 14.9766 2.74825 15.0405 2.83347C15.6476 3.67497 15.9352 4.61234 15.9246 5.65622C15.9139 6.41251 15.9139 7.16879 15.9246 7.92508C15.9246 8.02094 15.9778 8.14877 16.0417 8.20203C16.372 8.45767 16.4891 8.79853 16.4998 9.20331C16.5743 12.5267 15.0085 14.8595 12.1431 16.3827C11.4188 16.7662 10.6199 16.9898 9.78908 17.3094C9.78908 17.5118 9.78908 17.7994 9.78908 18.087C9.79973 18.7794 9.50148 19.28 8.89432 19.5996C8.83041 19.6315 8.74519 19.7274 8.73454 19.7913C8.70258 20.8245 8.72389 21.8365 9.30974 22.7525C10.2152 24.1905 11.9621 24.8936 13.5812 24.4355C15.2322 23.9775 16.372 22.5075 16.4039 20.8032C16.4146 19.8978 16.3933 19.003 16.4146 18.0976C16.4465 16.6596 17.1069 15.5838 18.4384 15.0192C19.7273 14.476 20.931 14.6997 21.9748 15.6371C22.6672 16.2655 23.0081 17.0751 23.0294 18.0018C23.04 18.8539 23.0294 19.6954 23.0294 20.5582C23.775 20.75 24.3502 21.1547 24.7124 21.8365C24.9893 22.369 25.0639 22.9336 24.9361 23.5195C24.6804 24.7125 23.6152 25.5007 22.3583 25.4368C21.1973 25.3835 20.2386 24.4568 20.0788 23.2319C19.9723 22.3264 20.4623 20.995 22.0281 20.5689Z" fill="white"/>
<path d="M5.28316 8.30839C5.58141 7.44559 5.87966 6.59343 6.15661 5.74128C6.24183 5.47498 6.34835 5.25129 6.65725 5.22999C6.9555 5.20869 7.08333 5.42172 7.21115 5.64541C7.74374 6.65734 8.28699 7.66927 8.81959 8.68121C8.87285 8.77707 8.92611 8.87294 9.01132 9.01141C9.25631 8.3936 9.48 7.8184 9.70369 7.2432C9.88478 6.77452 9.98064 6.7106 10.4813 6.7106C11.2376 6.7106 11.9939 6.7106 12.7395 6.7106C12.814 6.7106 12.8886 6.7106 12.9525 6.7106C13.2508 6.74256 13.4425 6.93429 13.4319 7.21124C13.4319 7.48819 13.2401 7.69058 12.9312 7.69058C12.2388 7.70123 11.5465 7.70123 10.8541 7.69058C10.6411 7.69058 10.5452 7.75449 10.4706 7.94622C10.183 8.72381 9.87412 9.4801 9.57587 10.2577C9.48 10.5027 9.35218 10.6944 9.08588 10.7051C8.80893 10.7157 8.67046 10.5346 8.55329 10.3109C8.02069 9.30967 7.4881 8.30839 6.9555 7.29646C6.9129 7.21124 6.85964 7.11538 6.77442 6.9769C6.60399 7.47754 6.44421 7.93557 6.28444 8.38295C5.97553 9.27771 5.97553 9.27771 5.02751 9.27771C4.6547 9.27771 4.28188 9.27771 3.90906 9.27771C3.5469 9.26706 3.32321 9.07533 3.33386 8.77707C3.33386 8.46817 3.5469 8.29774 3.91971 8.28708C4.3884 8.30839 4.83578 8.30839 5.28316 8.30839Z" fill="white"/>
</g>
<defs>
<clipPath id="clip0_1476_163704">
<rect width="25" height="24.8189" fill="white" transform="translate(0 0.755859)"/>
</clipPath>
</defs>
</svg>
