<svg width="25" height="23" viewBox="0 0 25 23" fill="none" xmlns="http://www.w3.org/2000/svg">
<g clip-path="url(#clip0_1476_163723)">
<path d="M9.51317 15.0516C9.51317 14.992 9.50573 14.9399 9.51317 14.8878C9.57277 14.2024 9.42378 13.6363 8.98427 13.0478C7.94881 11.6771 7.99351 9.75516 8.95447 8.30254C9.91544 6.84991 11.666 6.14223 13.4017 6.4998C15.0555 6.84246 16.3815 8.20569 16.6869 9.87435C17.1934 12.6306 15.0629 15.0889 12.2694 14.9474C12.0162 14.9325 11.8374 14.992 11.666 15.1783C11.2414 15.6252 10.7945 16.0424 10.3624 16.4819C10.1985 16.6458 10.0197 16.7426 9.7888 16.6533C9.55787 16.5564 9.51317 16.3478 9.51317 16.1243C9.51317 15.7593 9.51317 15.4018 9.51317 15.0516ZM10.8988 10.299C10.6455 10.2915 10.4369 10.4926 10.4369 10.7534C10.4294 11.0066 10.638 11.2227 10.8839 11.2301C11.1297 11.2376 11.3457 11.029 11.3457 10.7683C11.3532 10.5075 11.152 10.299 10.8988 10.299ZM14.5638 10.7459C14.5564 10.4926 14.3478 10.2915 14.0871 10.299C13.8338 10.3064 13.6252 10.5224 13.6327 10.7683C13.6401 11.0215 13.8561 11.2152 14.1094 11.2152C14.3701 11.2078 14.5713 10.9992 14.5638 10.7459ZM12.4929 11.2152C12.7536 11.2152 12.9548 11.0215 12.9548 10.7608C12.9548 10.5075 12.7536 10.299 12.5004 10.299C12.2471 10.299 12.0385 10.4926 12.0385 10.7534C12.0311 11.0141 12.2322 11.2152 12.4929 11.2152Z" fill="white"/>
<path d="M22.2959 14.2551C22.2959 15.1564 22.2884 16.0578 22.2959 16.9592C22.3108 18.0542 21.3423 18.8811 20.3441 18.8662C19.2714 18.8513 18.4073 18.017 18.3998 16.9368C18.3849 15.2086 18.3849 13.4729 18.3998 11.7446C18.4073 10.7986 19.1075 10.0387 20.0759 9.8674C20.9401 9.71842 21.8489 10.2324 22.1767 11.0742C22.2214 11.1934 22.2512 11.3275 22.2512 11.4541C22.2586 12.3853 22.2512 13.3165 22.2512 14.2476C22.2735 14.2551 22.281 14.2551 22.2959 14.2551Z" fill="white"/>
<path d="M6.59281 14.3667C6.59281 15.2382 6.6077 16.1173 6.59281 16.9888C6.57791 17.8753 5.92236 18.65 5.05079 18.8363C4.17922 19.0225 3.29275 18.6128 2.90538 17.8157C2.80854 17.622 2.75639 17.3911 2.74894 17.1751C2.73404 15.35 2.77129 13.5249 2.7266 11.6998C2.70425 10.858 3.40449 10.0982 4.12707 9.91197C5.37111 9.5991 6.57046 10.5005 6.59281 11.7892C6.60025 12.6533 6.59281 13.51 6.59281 14.3667Z" fill="white"/>
<path d="M2.69678 9.68819C3.18843 3.78831 7.59845 0.413758 12.5597 0.443555C17.5955 0.473352 21.8416 3.97454 22.2886 9.65094C22.0055 9.49451 21.7075 9.33807 21.4319 9.15929C21.3648 9.11459 21.335 8.98795 21.3201 8.89111C20.9924 6.79785 20.0686 5.01 18.4819 3.61698C15.9119 1.35238 12.9322 0.681934 9.68426 1.76209C6.4438 2.84224 4.46972 5.16644 3.73969 8.51864C3.65774 8.90601 3.5907 9.24123 3.15119 9.37532C2.99475 9.42746 2.86811 9.569 2.69678 9.68819Z" fill="white"/>
<path d="M2.70435 19.0742C2.94273 19.2158 3.18111 19.3498 3.40459 19.5137C3.47908 19.5659 3.55358 19.6776 3.56848 19.7745C3.68022 20.5045 4.19422 21.0408 4.93171 21.0557C6.23534 21.0855 7.53153 21.0706 8.83516 21.0632C8.90966 21.0632 9.0065 20.9738 9.05119 20.8993C9.32682 20.4002 9.73653 20.132 10.3176 20.132C10.9582 20.132 11.5989 20.1171 12.2395 20.1395C12.9323 20.1618 13.4165 20.6758 13.4761 21.4059C13.5357 22.0987 13.1185 22.7095 12.4704 22.851C12.2619 22.8957 12.0458 22.8883 11.8298 22.8883C11.3083 22.8957 10.7869 22.8957 10.2654 22.8883C9.72163 22.8808 9.31937 22.635 9.07354 22.1508C8.9916 21.9869 8.89476 21.9497 8.73087 21.9497C7.52408 21.9571 6.31728 21.9571 5.10304 21.9497C3.859 21.9422 2.91293 21.1824 2.7118 19.9979C2.65966 19.7 2.70435 19.3796 2.70435 19.0742Z" fill="white"/>
<path d="M23.1973 17.4056C23.1973 15.3645 23.1973 13.3532 23.1973 11.3418C24.121 11.3344 24.9479 12.1389 24.9777 13.0999C25 13.9491 25 14.7909 24.9777 15.6401C24.9553 16.4893 24.2998 17.2268 23.4729 17.3833C23.3909 17.4056 23.3016 17.3982 23.1973 17.4056Z" fill="white"/>
<path d="M1.78802 17.3837C1.05798 17.4507 0.253454 16.8026 0.0597706 15.9981C0.0299732 15.8714 0.0076252 15.7448 0.0076252 15.6107C0.000175855 14.7838 -0.00727349 13.957 0.0076252 13.1301C0.0299732 12.1542 0.871749 11.3199 1.78802 11.3422C1.78802 13.3461 1.78802 15.3574 1.78802 17.3837Z" fill="white"/>
</g>
<defs>
<clipPath id="clip0_1476_163723">
<rect width="25" height="22.4449" fill="white" transform="translate(0 0.443359)"/>
</clipPath>
</defs>
</svg>
