<svg width="30" height="30" viewBox="0 0 30 30" fill="none" xmlns="http://www.w3.org/2000/svg">
<path d="M25 15.2499V17.375C25 21.3125 22.75 23 19.375 23H8.125C4.75 23 2.5 21.3125 2.5 17.375V10.625C2.5 6.6875 4.75 5 8.125 5H11.5C11.3375 5.475 11.25 6 11.25 6.5625V11.4375C11.25 12.65 11.65 13.675 12.3625 14.3875C13.075 15.1 14.1 15.5 15.3125 15.5V17.2375C15.3125 17.875 16.0375 18.2624 16.575 17.9124L20.1875 15.5H23.4375C24 15.5 24.525 15.4124 25 15.2499Z" stroke="#0E82FD" stroke-width="1.5" stroke-miterlimit="10" stroke-linecap="round" stroke-linejoin="round"/>
<path d="M27.5 6.5625V11.4375C27.5 13.3 26.55 14.6999 25 15.2499C24.525 15.4124 24 15.5 23.4375 15.5H20.1875L16.575 17.9124C16.0375 18.2624 15.3125 17.875 15.3125 17.2375V15.5C14.1 15.5 13.075 15.1 12.3625 14.3875C11.65 13.675 11.25 12.65 11.25 11.4375V6.5625C11.25 6 11.3375 5.475 11.5 5C12.05 3.45 13.45 2.5 15.3125 2.5H23.4375C25.875 2.5 27.5 4.125 27.5 6.5625Z" stroke="#0E82FD" stroke-width="1.5" stroke-miterlimit="10" stroke-linecap="round" stroke-linejoin="round"/>
<path d="M9.25 27.5H18.25" stroke="#0E82FD" stroke-width="1.5" stroke-miterlimit="10" stroke-linecap="round" stroke-linejoin="round"/>
<path d="M13.75 23V27.5" stroke="#0E82FD" stroke-width="1.5" stroke-miterlimit="10" stroke-linecap="round" stroke-linejoin="round"/>
<path d="M23.1194 9.0625H23.1306" stroke="#0E82FD" stroke-width="1.5" stroke-linecap="round" stroke-linejoin="round"/>
<path d="M19.6196 9.0625H19.6309" stroke="#0E82FD" stroke-width="1.5" stroke-linecap="round" stroke-linejoin="round"/>
<path d="M16.1194 9.0625H16.1306" stroke="#0E82FD" stroke-width="1.5" stroke-linecap="round" stroke-linejoin="round"/>
</svg>
