<svg width="200" height="209" viewBox="0 0 200 209" fill="none" xmlns="http://www.w3.org/2000/svg">
<path opacity="0.5" d="M36.7812 128.865C37.054 127.233 40.6708 106.588 43.5836 89.6833C46.0652 82.2605 52.762 62.1965 52.718 61.9501C52.6916 61.8005 52.0096 61.7829 52.0008 61.7345C51.948 61.4353 49.7436 64.8717 48.1948 67.9033C48.0012 68.2773 47.4908 69.4037 46.7428 71.0801C47.042 69.2629 47.2312 68.0441 47.2752 67.6261C47.6448 64.2425 47.6932 60.1593 47.482 60.3793C47.4424 60.4189 46.7032 59.9877 46.536 60.0845C46.5272 60.0801 46.5228 60.0845 46.514 60.0933C46.382 60.2341 43.1436 72.3385 40.7412 81.3717C40.684 81.5829 40.6268 81.7985 40.574 82.0053C39.65 85.4769 38.8712 88.4205 38.4664 89.9429C31.752 105.347 23.9552 123.365 23.3084 124.831C23.2292 125.011 23.1544 125.178 23.0796 125.337C23.0576 125.385 23.0356 125.429 23.0136 125.473C22.9608 125.583 22.9124 125.684 22.864 125.781C22.842 125.825 22.82 125.865 22.8024 125.904C22.7496 126.005 22.7012 126.098 22.6528 126.186C22.6396 126.208 22.6264 126.234 22.6132 126.256C22.5516 126.366 22.49 126.467 22.4372 126.555C22.4372 126.555 22.4372 126.555 22.4372 126.56C22.38 126.643 22.3272 126.718 22.2788 126.784C22.27 126.797 22.2612 126.811 22.248 126.819C22.204 126.872 22.16 126.921 22.1204 126.965C22.1116 126.973 22.1028 126.982 22.094 126.991C21.9928 127.088 21.9004 127.149 21.808 127.18C20.7388 126.419 19.7796 124.316 15.9912 123.299C15.9824 123.295 15.9692 123.295 15.9604 123.291C15.802 123.238 15.6436 123.189 15.4764 123.141C15.274 123.084 15.0672 123.027 14.8428 122.974C10.3196 121.927 4.96484 125.007 3.18284 130.96C1.57684 136.323 1.19404 143.553 8.45844 145.726C8.57284 145.761 8.68724 145.788 8.80164 145.814C8.92484 145.854 9.04804 145.902 9.17564 145.937C17.0252 148.287 20.9104 140.323 21.3636 139.034C21.8212 137.745 36.68 99.1213 38.154 95.5793C38.484 94.7873 38.968 93.7445 40.0196 93.0757C40.5256 94.2153 40.3584 95.3505 40.2 96.1953C39.7116 98.7781 35.4216 118.556 32.6628 131.193C32.6364 131.307 32.6144 131.413 32.588 131.527C32.368 132.531 32.1612 133.485 31.9632 134.383C31.9632 134.387 31.9588 134.396 31.9588 134.401C31.8532 134.889 31.752 135.355 31.6508 135.804C31.6244 135.919 31.6024 136.029 31.576 136.143C30.8808 139.32 30.41 141.436 30.3396 141.727C30.014 143.055 28.8788 151.842 36.7328 154.192C36.9088 154.245 37.0804 154.289 37.252 154.333C37.3972 154.385 37.5424 154.438 37.6964 154.482C44.9608 156.656 48.6128 150.408 50.2188 145.04C52.0008 139.087 49.2244 133.569 44.8684 131.959C44.4152 131.791 43.9928 131.664 43.588 131.563C43.5836 131.563 43.5792 131.563 43.5792 131.558C40.5256 130.515 38.6468 131.131 37.34 131.435C37.318 131.439 37.296 131.444 37.274 131.448C37.252 131.453 37.23 131.457 37.208 131.461C37.0892 131.488 36.9792 131.51 36.8692 131.527C36.8516 131.532 36.834 131.532 36.8164 131.536C36.8032 131.536 36.79 131.541 36.7812 131.541C36.746 131.545 36.7152 131.545 36.6844 131.549C36.4952 131.197 36.5172 130.436 36.7812 128.865ZM18.0988 133.811C18.0856 133.956 18.068 134.106 18.0504 134.251C18.0328 134.379 18.024 134.506 18.002 134.634C17.9756 134.805 17.9404 134.981 17.9052 135.157C17.8832 135.263 17.87 135.364 17.8436 135.47C17.782 135.751 17.7072 136.033 17.6236 136.315C17.54 136.596 17.4432 136.873 17.342 137.142C17.3068 137.234 17.2672 137.318 17.232 137.406C17.1616 137.582 17.0912 137.758 17.012 137.929C16.9636 138.039 16.9064 138.141 16.8536 138.246C16.7832 138.387 16.7128 138.532 16.638 138.669C16.572 138.787 16.506 138.897 16.4356 139.012C16.3652 139.131 16.2992 139.249 16.2244 139.364C16.1452 139.487 16.0616 139.601 15.9824 139.72C15.9164 139.817 15.8504 139.914 15.78 140.006C15.6876 140.129 15.5908 140.248 15.494 140.367C15.4324 140.442 15.3708 140.521 15.3092 140.591C15.1992 140.715 15.0892 140.833 14.9748 140.952C14.9176 141.009 14.8648 141.067 14.812 141.124C14.6888 141.247 14.5568 141.361 14.4292 141.471C14.3808 141.511 14.3368 141.555 14.2884 141.595C14.1476 141.709 14.0024 141.819 13.8616 141.925C13.8264 141.951 13.7868 141.982 13.7472 142.008C13.5932 142.114 13.4348 142.215 13.2764 142.307C13.25 142.325 13.2192 142.343 13.1928 142.356C13.0256 142.448 12.854 142.536 12.6824 142.615C12.6648 142.624 12.6428 142.633 12.6252 142.642C12.4448 142.721 12.2644 142.787 12.084 142.849C12.0708 142.853 12.0576 142.857 12.0488 142.862C11.8596 142.919 11.6748 142.972 11.4856 143.007C11.4768 143.007 11.4724 143.011 11.4636 143.011C11.27 143.047 11.0764 143.073 10.8872 143.086C10.8828 143.086 10.8784 143.086 10.874 143.086C10.6804 143.099 10.4868 143.099 10.2932 143.086C10.2888 143.086 10.2888 143.086 10.2844 143.086C10.0908 143.073 9.89724 143.047 9.70804 143.007C9.70364 143.007 9.70364 143.007 9.69924 143.007C6.75124 141.832 5.43124 137.498 6.76004 133.063C8.08884 128.628 11.5736 125.733 14.6844 126.375C15.2344 126.595 15.7272 126.925 16.1584 127.343C16.1628 127.347 16.1672 127.352 16.1716 127.356C16.308 127.493 16.44 127.638 16.5632 127.792C16.572 127.801 16.5808 127.809 16.5852 127.823C16.704 127.972 16.8184 128.126 16.924 128.293C16.9372 128.311 16.946 128.329 16.9592 128.351C17.0604 128.509 17.1528 128.676 17.2408 128.848C17.254 128.879 17.2716 128.905 17.2848 128.936C17.3684 129.099 17.4432 129.27 17.5136 129.446C17.5312 129.486 17.5444 129.53 17.562 129.574C17.628 129.741 17.6852 129.913 17.7424 130.089C17.76 130.146 17.7732 130.203 17.7908 130.26C17.8392 130.427 17.8832 130.599 17.9184 130.771C17.936 130.841 17.9448 130.916 17.9624 130.991C17.9932 131.153 18.024 131.321 18.046 131.488C18.0592 131.576 18.0636 131.668 18.0768 131.756C18.0944 131.915 18.112 132.073 18.1208 132.236C18.1252 132.341 18.1296 132.451 18.1296 132.557C18.134 132.707 18.1384 132.861 18.1384 133.015C18.1384 133.138 18.1296 133.265 18.1208 133.393C18.1164 133.529 18.112 133.67 18.0988 133.811ZM43.5352 135.14C43.6848 135.228 43.8256 135.329 43.962 135.439C43.984 135.457 44.006 135.47 44.0236 135.487C44.1512 135.589 44.2744 135.703 44.3888 135.817C44.4152 135.844 44.446 135.87 44.4724 135.897C44.5824 136.011 44.6836 136.13 44.7848 136.257C44.8156 136.297 44.8464 136.332 44.8772 136.372C44.9696 136.495 45.0576 136.623 45.1412 136.755C45.172 136.803 45.2072 136.856 45.2336 136.904C45.3128 137.032 45.3832 137.164 45.4536 137.3C45.4844 137.362 45.5152 137.423 45.546 137.489C45.6076 137.621 45.6692 137.758 45.722 137.899C45.7528 137.973 45.7792 138.048 45.81 138.127C45.8584 138.264 45.9068 138.4 45.9464 138.541C45.9728 138.629 45.9992 138.717 46.0212 138.809C46.0564 138.946 46.0916 139.082 46.1224 139.223C46.1444 139.324 46.162 139.425 46.1796 139.531C46.206 139.667 46.228 139.804 46.2456 139.945C46.2588 140.059 46.272 140.173 46.2808 140.292C46.294 140.424 46.3072 140.561 46.316 140.697C46.3248 140.825 46.3248 140.952 46.3292 141.08C46.3336 141.212 46.338 141.339 46.3336 141.476C46.3336 141.617 46.3248 141.757 46.316 141.898C46.3116 142.026 46.3072 142.149 46.294 142.277C46.2808 142.431 46.2588 142.589 46.2412 142.743C46.228 142.862 46.2148 142.976 46.1972 143.095C46.1708 143.271 46.1312 143.451 46.096 143.632C46.0784 143.729 46.0608 143.83 46.0388 143.927C45.9772 144.204 45.9024 144.485 45.8188 144.767C45.7352 145.049 45.6428 145.321 45.5416 145.59C45.5108 145.678 45.4712 145.757 45.436 145.845C45.3656 146.025 45.2952 146.201 45.216 146.373C45.1676 146.474 45.1192 146.571 45.0708 146.668C44.996 146.817 44.9256 146.967 44.8464 147.108C44.7892 147.213 44.7276 147.315 44.666 147.416C44.5912 147.543 44.5164 147.675 44.4372 147.799C44.3712 147.904 44.2964 148.005 44.226 148.111C44.1512 148.221 44.072 148.335 43.9928 148.441C43.9136 148.547 43.83 148.648 43.7508 148.749C43.676 148.841 43.5968 148.938 43.5176 149.031C43.4296 149.132 43.3372 149.233 43.2448 149.33C43.17 149.409 43.0952 149.488 43.0204 149.563C42.9192 149.66 42.818 149.757 42.7124 149.849C42.642 149.911 42.5716 149.977 42.4968 150.038C42.3868 150.131 42.2724 150.219 42.158 150.307C42.092 150.355 42.026 150.403 41.96 150.452C41.8368 150.535 41.7136 150.619 41.5904 150.694C41.5288 150.729 41.4716 150.764 41.41 150.799C41.278 150.874 41.1416 150.945 41.0052 151.011C40.9524 151.037 40.8996 151.059 40.8468 151.085C40.7016 151.147 40.5608 151.209 40.4156 151.257C40.3716 151.275 40.3232 151.288 40.2792 151.301C40.1252 151.349 39.9712 151.393 39.8172 151.429C39.7776 151.437 39.7424 151.442 39.7028 151.451C39.54 151.481 39.3772 151.512 39.2188 151.525C39.1924 151.53 39.1616 151.53 39.1352 151.53C38.9636 151.543 38.7964 151.552 38.6248 151.543C38.6072 151.543 38.5896 151.539 38.5676 151.539C38.3872 151.53 38.2112 151.512 38.0352 151.481H38.0308C35.1664 150.236 33.9036 145.959 35.2104 141.586C36.5216 137.212 39.9272 134.33 43.0028 134.867C43.1744 134.942 43.3372 135.025 43.4956 135.122C43.5132 135.127 43.5264 135.131 43.5352 135.14Z" fill="#F9A195"/>
<path opacity="0.5" d="M199.405 183.512C198.934 181.602 196.409 179.019 195.445 175.209C194.922 173.137 190.922 154.538 187.288 137.708C187.288 137.703 187.292 137.703 187.292 137.699C187.151 137.043 187.006 136.388 186.865 135.737C186.865 135.737 186.865 135.741 186.861 135.741C183.983 122.422 181.431 110.687 181.163 109.873C180.903 109.086 180.067 108.712 179.077 108.567C176.82 103.036 176.173 98.4863 175.988 96.2335L176.389 96.1323C176.389 96.1323 176.002 67.2155 162.379 60.8047C160.716 65.1783 160.738 70.9071 161.499 76.5699C161.653 77.7139 161.834 78.8535 162.04 79.9799C162.04 79.9843 162.04 79.9887 162.04 79.9887C162.362 81.7531 162.74 83.4823 163.14 85.1323C163.14 85.1367 163.145 85.1455 163.145 85.1499C163.633 87.1695 164.161 89.0615 164.667 90.7555C164.676 90.7863 164.685 90.8171 164.694 90.8523C166.044 95.3535 167.246 98.3939 167.246 98.3939L168.654 98.0463C169.542 100.123 171.091 104.448 171.676 110.397C170.867 110.987 170.304 111.708 170.44 112.527C170.55 113.169 172.451 120.059 174.972 129.119C174.972 129.123 174.968 129.123 174.968 129.128C175.355 130.505 175.751 131.935 176.164 133.396C181.167 151.321 187.723 174.624 188.295 176.982C189.219 180.806 188.194 184.264 188.665 186.174C189.074 187.833 192.233 188.048 194.037 187.828H194.042C194.152 187.815 194.257 187.797 194.358 187.784C194.38 187.78 194.402 187.78 194.424 187.775C194.539 187.753 194.649 187.731 194.746 187.709C196.242 187.335 199.88 185.421 199.405 183.512Z" fill="#F9A195"/>
<path d="M104 40.1651L111.339 40.5215C111.339 40.5215 112.188 55.6047 112.971 58.5395C113.755 61.4743 121.186 61.9363 121.186 61.9363C125.881 53.7919 131.553 47.7815 134.096 44.5519C136.639 41.3179 138.989 36.2403 138.989 36.2403C120.795 22.9347 104 14.2843 104 14.2843V8.72266C145.452 16.4975 156.831 32.3639 156.831 32.3639C154.094 63.3707 130.967 78.1019 130.576 79.0787C130.576 79.0787 124.513 107.564 125.296 111.867C126.079 116.171 135.134 126.418 128.816 137.766C128.816 137.766 140.031 150.873 140.031 168.086C140.031 185.299 133.902 208.386 133.902 208.386H107.295C107.295 208.386 105.914 190.192 105.236 182.954C104.559 175.716 102.407 164.76 106.121 156.545L103.995 156.153L101.87 156.545C105.588 164.76 103.437 175.716 102.759 182.954C102.081 190.192 100.7 208.386 100.7 208.386H74.0931C74.0931 208.386 67.9639 185.303 67.9639 168.086C67.9639 150.869 79.1795 137.766 79.1795 137.766C71.9415 127.201 81.9163 116.171 82.6995 111.867C83.4827 107.564 77.4195 79.0787 77.4195 79.0787C77.0279 78.1019 53.3955 63.5071 50.6587 32.5003C50.6587 32.5003 61.2187 16.4975 103.995 8.72266V14.2843C103.995 14.2843 87.2007 22.9347 69.0067 36.2403C69.0067 36.2403 71.3519 41.3179 73.8951 44.5519C76.4383 47.7815 82.1099 53.7919 86.8047 61.9363C86.8047 61.9363 94.2407 61.4743 95.0195 58.5395C95.8027 55.6047 96.6519 40.5215 96.6519 40.5215L104 40.1651Z" fill="#FFCCB8"/>
<path d="M109.39 182.112C109.39 177.554 113.917 159.144 106.041 156.746C102.446 164.939 104.567 175.776 105.24 182.957C105.918 190.195 107.3 208.389 107.3 208.389H114.775C113.275 206.281 112.087 203.786 111.224 200.645C109.618 194.696 109.39 188.518 109.39 182.112Z" fill="#FFCCB8"/>
<path d="M104 40.1641L96.6606 40.5205C96.6606 40.5205 96.1326 49.8969 95.5254 55.3001C100.203 52.3609 107.339 51.2653 111.836 48.1017C111.541 44.0933 111.339 40.5205 111.339 40.5205L104 40.1641Z" fill="#FFCCB8"/>
<path d="M94.7466 148.021C97.9498 146.42 102.755 146.191 102.297 142.073C102.068 138.183 97.721 137.039 96.1194 133.836C94.5178 130.861 95.433 128.573 96.577 125.37C98.865 117.82 98.6362 114.617 93.6026 108.668C84.2218 97.4566 88.569 83.4997 82.1626 71.3733C78.9594 64.9669 72.3242 61.5349 67.5194 56.7301C61.5178 50.8869 53.8574 45.3693 51.4902 38.5273C55.9738 65.5829 77.0586 78.167 77.4282 79.0821C77.4282 79.0821 83.4914 107.568 82.7082 111.871C81.925 116.174 71.9502 127.205 79.1882 137.769C79.1882 137.769 67.9726 150.877 67.9726 168.09C67.9726 172.076 68.3026 176.375 68.8086 180.63C71.7214 172.521 76.359 164.521 80.1078 160.148C84.2218 155.343 89.2554 150.996 94.7466 148.021Z" fill="#FFCCB8"/>
<path d="M126.123 122.363C122.422 121.157 122.915 133.975 124.033 135.704C124.187 135.941 124.504 136.051 124.759 135.893C128.076 133.851 131.214 124.022 126.123 122.363Z" fill="#FFCCB8"/>
<path d="M116.975 76.2677C115.4 75.7089 112.879 76.8133 111.506 77.5261C109.566 78.5293 107.44 80.8041 108.193 83.1449C108.426 83.8665 109.319 84.3505 110.014 83.8841C111.444 82.9205 112.373 81.3497 113.424 80.0121C113.948 79.3477 114.555 78.7317 115.136 78.1113C115.708 77.4997 116.518 77.1389 117.041 76.5097C117.112 76.4217 117.085 76.3073 116.975 76.2677Z" fill="#FFCCB8"/>
<path d="M120.372 74.834C119.233 74.834 119.233 76.6028 120.372 76.6028C121.512 76.6072 121.512 74.834 120.372 74.834Z" fill="#FFCCB8"/>
<path d="M146.491 43.0392C143.441 46.8936 142.592 52.3804 140.489 56.7716C138.769 60.362 136.401 63.3672 137.158 67.5868C137.224 67.9564 137.836 67.9564 137.902 67.5868C138.285 65.4044 140.111 64.0052 141.655 62.5708C143.296 61.0484 144.581 59.2532 145.505 57.2204C147.335 53.1724 148.95 47.91 148.026 43.444C147.894 42.8104 146.913 42.5068 146.491 43.0392Z" fill="#FFCCB8"/>
<path d="M149.562 39.6686C149.126 39.233 148.224 39.1362 147.806 39.6686C147.793 39.6906 147.775 39.7082 147.758 39.7302C147.542 40.003 147.393 40.2494 147.393 40.6102C147.393 40.9402 147.525 41.257 147.758 41.4902C147.991 41.7234 148.308 41.8554 148.633 41.8554C149.113 41.8554 149.43 41.6002 149.707 41.2394C149.725 41.2174 149.738 41.1998 149.751 41.1778C150.09 40.7378 149.918 40.025 149.562 39.6686Z" fill="#FFCCB8"/>
<path d="M134.945 157.932C134.272 155.464 133.013 153.224 132.323 150.791C132.111 150.043 131.055 150.065 130.835 150.791C130.167 152.969 129.524 154.848 129.485 157.153C129.445 159.446 129.788 161.756 130.114 164.017C130.787 168.69 131.764 173.262 131.843 177.992C131.865 179.316 133.647 179.818 134.329 178.665C136.784 174.533 137.589 169.302 136.608 164.598C136.142 162.354 135.552 160.15 134.945 157.932Z" fill="#FFCCB8"/>
<path d="M132.728 187.781C130.963 187.781 130.963 190.514 132.728 190.514C134.492 190.514 134.488 187.781 132.728 187.781Z" fill="#FFCCB8"/>
<path d="M111.145 127.998C110.463 128.83 110.221 129.714 109.777 130.651C109.416 131.421 109.011 132.156 108.598 132.9C108.255 133.524 107.524 134.035 107.463 134.752C107.454 134.862 107.533 134.976 107.621 135.029C108.175 135.364 108.879 135.056 109.482 134.968C110.389 134.831 111.194 134.585 112.03 134.211C114.005 133.322 116.923 130.739 115.193 128.381C114.305 127.162 112.254 126.638 111.145 127.998Z" fill="#FFCCB8"/>
<path d="M115.11 124.439C113.614 124.439 113.614 126.758 115.11 126.758C116.601 126.758 116.601 124.439 115.11 124.439Z" fill="#FFCCB8"/>
<path d="M131.007 62.9114C128.803 66.3478 127.606 71.6454 128.987 75.5834C129.163 76.0806 129.881 75.997 129.903 75.4602C130.079 71.2714 129.445 67.0166 131.284 63.0742C131.372 62.8894 131.117 62.7354 131.007 62.9114Z" fill="#FFCCB8"/>
<path d="M76.7155 63.0742C78.5547 67.0166 77.9211 71.2714 78.0971 75.4602C78.1191 75.997 78.8407 76.0806 79.0123 75.5834C80.3939 71.641 79.1971 66.3434 76.9927 62.9114C76.8827 62.7354 76.6319 62.8894 76.7155 63.0742Z" fill="#EF9575"/>
<path d="M102.434 82.9977C103.274 84.9953 103.49 87.0941 104.066 89.1533C104.211 89.6681 104.906 89.5229 104.95 89.0345C105.034 88.1413 104.959 87.2525 104.779 86.3813C104.849 84.1461 104.779 81.9285 105.668 79.7989C105.698 79.7285 105.584 79.6889 105.549 79.7505C104.722 81.1585 104.295 82.6809 104.114 84.2517C103.05 81.6777 101.166 79.3149 99.4372 77.4009C99.3624 77.3217 99.2216 77.4273 99.2876 77.5197C100.528 79.2489 101.606 81.0353 102.434 82.9977Z" fill="#FFCCB8"/>
<path d="M123.65 112.17C120.368 117.111 122.581 123.962 121.56 129.488C121.512 129.739 121.877 129.937 122 129.673C123.232 127.051 123.597 124.358 123.593 121.485C123.584 118.44 122.818 115.224 123.976 112.306C124.05 112.113 123.756 112.016 123.65 112.17Z" fill="#EF9575"/>
<path d="M113.487 138.45C108.339 139.242 103.516 139.282 98.4781 137.777C94.7073 136.646 88.7453 133.487 88.0281 129.259C87.9929 129.047 87.6981 129.122 87.6805 129.307C87.2361 134.055 92.0497 138.173 95.9217 139.977C101.519 142.586 108.418 142.19 113.808 139.22C114.257 138.969 113.927 138.384 113.487 138.45Z" fill="#EF9575"/>
<path d="M105.285 124.74C104.528 125.598 104.392 127.033 105.452 127.719C105.765 127.922 106.297 127.878 106.543 127.578C107.401 126.536 106.746 125.268 105.699 124.683C105.571 124.613 105.386 124.622 105.285 124.74Z" fill="#EF9575"/>
<path d="M112.875 164.416C111.828 168.882 109.346 172.793 107.85 177.101C106.319 181.51 105.694 186.231 105.989 190.89C106.002 191.097 106.297 191.097 106.31 190.89C106.671 186.257 107.265 181.774 108.673 177.33C110.05 172.978 112.334 169.027 113.099 164.477C113.112 164.336 112.906 164.275 112.875 164.416Z" fill="#EF9575"/>
<path d="M84.3493 112.17C87.6317 117.111 85.4185 123.962 86.4393 129.488C86.4877 129.739 86.1225 129.937 85.9993 129.673C84.7673 127.051 84.4021 124.358 84.4065 121.485C84.4153 118.44 85.1809 115.224 84.0237 112.306C83.9489 112.113 84.2437 112.016 84.3493 112.17Z" fill="#EF9575"/>
<path d="M95.1295 164.416C96.1767 168.882 98.6583 172.793 100.159 177.101C101.69 181.51 102.315 186.231 102.02 190.89C102.007 191.097 101.716 191.097 101.699 190.89C101.338 186.257 100.748 181.774 99.3403 177.33C97.9631 172.978 95.6795 169.027 94.9139 164.477C94.8875 164.336 95.0943 164.275 95.1295 164.416Z" fill="#EF9575"/>
<path d="M119.866 61.7943C119.541 63.7655 119.523 65.7367 119.831 67.4351C119.844 67.5143 119.972 67.5099 119.985 67.4351C120.368 65.3979 120.817 63.4311 121.459 61.4688C121.367 61.6227 121.274 61.7723 121.186 61.9307C121.186 61.9351 120.654 61.8999 119.866 61.7943Z" fill="#FFCCB8"/>
<path d="M88.1377 61.7943C88.4633 63.7655 88.4809 65.7367 88.1729 67.4351C88.1597 67.5143 88.0321 67.5099 88.0189 67.4351C87.6361 65.3979 87.1829 63.4311 86.5449 61.4688C86.6373 61.6227 86.7297 61.7723 86.8177 61.9307C86.8133 61.9351 87.3457 61.8999 88.1377 61.7943Z" fill="#FFCCB8"/>
<path d="M104 98.2005C113.887 98.2005 126.295 101.588 126.295 101.588C128.257 96.5725 130.14 83.4253 130.14 83.4253C130.14 83.4253 118.031 77.5601 104 84.9125C89.9726 77.5645 77.8638 83.4253 77.8638 83.4253C77.8638 83.4253 79.7426 96.5681 81.7094 101.588C81.705 101.588 94.113 98.2005 104 98.2005Z" fill="#0E82FD"/>
<path d="M81.705 101.589C81.705 101.589 94.113 98.2011 104 98.2011C112.153 98.2011 122.009 100.502 125.221 101.307C118.071 96.3443 106.547 95.2443 99.5074 93.6999C95.301 92.6483 88.987 92.1203 85.8322 88.9655C83.9006 87.0295 83.245 84.4863 83.2274 81.7891C79.879 82.4447 77.8594 83.4215 77.8594 83.4215C77.8594 83.4215 79.7426 96.5731 81.705 101.589Z" fill="#5CB7BA"/>
<path d="M97.3822 88.2738C101.135 89.4794 105.399 88.5554 109.35 88.6874C107.397 89.5234 105.131 89.7654 103.093 90.1878C101.386 90.5398 99.0674 90.9886 98.0158 92.5462C97.8794 92.7442 98.183 92.9686 98.3458 92.8014C101.465 89.5938 106.983 90.8082 110.719 88.7226C111.018 88.5554 110.851 88.1594 110.556 88.1286C106.217 87.6666 101.765 88.2122 97.4042 88.089C97.2942 88.0802 97.281 88.2386 97.3822 88.2738Z" fill="#5CB7BA"/>
<path d="M129.555 137.677C129.506 137.532 129.348 137.448 129.203 137.492C128.802 137.611 128.38 137.761 127.949 137.937C124.165 139.248 111.295 143.52 104.004 143.52C96.7131 143.52 83.8387 139.248 80.0591 137.937C79.6279 137.761 79.2055 137.611 78.8051 137.492C78.6555 137.448 78.5015 137.532 78.4531 137.677C78.4047 137.822 78.4795 137.985 78.6291 138.038C78.6291 138.038 79.0735 138.201 79.8611 138.473C86.9407 141.369 96.6119 151.519 100.255 155.339C101.166 156.293 101.54 156.685 101.685 156.782C102.262 157.178 103.612 157.209 104.013 157.209C104.413 157.209 105.76 157.178 106.34 156.782C106.481 156.685 106.86 156.293 107.77 155.339C111.414 151.519 121.085 141.369 128.164 138.473C128.952 138.201 129.396 138.038 129.396 138.038C129.528 137.981 129.603 137.822 129.555 137.677Z" fill="#0E82FD"/>
<path d="M99.7711 143.168C92.5111 142.121 83.1831 139.019 80.0547 137.937C79.6235 137.761 79.2011 137.611 78.8007 137.492C78.6511 137.448 78.4971 137.532 78.4487 137.677C78.4003 137.822 78.4751 137.985 78.6247 138.038C78.6247 138.038 79.0691 138.201 79.8567 138.473C84.0851 140.203 89.2419 144.523 93.4835 148.532C94.1523 148.14 94.8475 147.753 95.5735 147.353C97.6591 146.248 99.1067 144.823 99.7711 143.168Z" fill="#5CB7BA"/>
<path d="M112.368 144.629C106.116 147.19 99.9427 145.879 93.7959 144.097C93.0655 143.631 92.3263 143.182 91.5651 142.781C91.1955 142.588 90.8831 142.944 90.9623 143.257C90.8523 143.221 90.7423 143.191 90.6323 143.16C90.3111 143.063 90.1879 143.543 90.4959 143.657C91.0943 143.877 91.6971 144.088 92.2999 144.295C95.5119 146.526 99.2255 149.271 103.225 148.281C103.384 148.242 103.348 147.995 103.186 147.995C100.365 148.057 98.0375 146.807 95.7715 145.369C101.302 146.882 106.934 147.349 112.439 144.801C112.544 144.761 112.47 144.585 112.368 144.629Z" fill="#5CB7BA"/>
<path d="M104.942 136.9C104.937 136.9 104.928 136.9 104.92 136.9C104.458 136.9 103.991 136.882 103.534 136.851C103.283 136.834 103.089 136.614 103.107 136.363C103.124 136.112 103.344 135.927 103.595 135.936C104.035 135.967 104.48 135.98 104.924 135.98C104.942 135.98 104.959 135.98 104.977 135.984C105.228 135.984 105.417 136.187 105.417 136.442C105.421 136.697 105.197 136.9 104.942 136.9ZM106.772 136.812C106.539 136.812 106.336 136.636 106.314 136.398C106.292 136.147 106.477 135.923 106.728 135.901C107.172 135.861 107.621 135.8 108.061 135.729C108.312 135.685 108.545 135.857 108.589 136.103C108.629 136.354 108.462 136.587 108.215 136.631C107.753 136.706 107.282 136.768 106.82 136.812C106.803 136.812 106.785 136.812 106.772 136.812ZM101.747 136.64C101.721 136.64 101.699 136.64 101.672 136.636C101.206 136.556 100.74 136.464 100.291 136.354C100.044 136.297 99.8947 136.046 99.9519 135.8C100.014 135.553 100.26 135.404 100.506 135.465C100.933 135.571 101.378 135.659 101.822 135.734C102.073 135.773 102.24 136.011 102.2 136.262C102.161 136.482 101.967 136.64 101.747 136.64ZM109.927 136.244C109.724 136.244 109.54 136.112 109.487 135.905C109.421 135.663 109.566 135.408 109.808 135.342C110.244 135.223 110.67 135.087 111.084 134.942C111.322 134.854 111.586 134.981 111.669 135.219C111.753 135.456 111.63 135.72 111.392 135.804C110.956 135.958 110.503 136.103 110.046 136.226C110.01 136.24 109.966 136.244 109.927 136.244ZM98.6451 135.844C98.5923 135.844 98.5439 135.835 98.4911 135.817C98.0467 135.659 97.6067 135.478 97.1799 135.285C96.9511 135.179 96.8499 134.906 96.9511 134.678C97.0567 134.449 97.3295 134.348 97.5583 134.449C97.9587 134.634 98.3767 134.801 98.7947 134.95C99.0323 135.034 99.1555 135.298 99.0719 135.536C99.0059 135.725 98.8299 135.844 98.6451 135.844ZM112.928 135.118C112.76 135.118 112.598 135.025 112.518 134.862C112.408 134.634 112.501 134.361 112.725 134.251C113.126 134.053 113.517 133.837 113.891 133.608C114.107 133.476 114.388 133.542 114.52 133.758C114.652 133.974 114.586 134.255 114.371 134.387C113.975 134.634 113.557 134.862 113.13 135.074C113.064 135.104 112.998 135.118 112.928 135.118ZM95.7499 134.466C95.6663 134.466 95.5871 134.444 95.5123 134.4C95.1031 134.15 94.7115 133.881 94.3419 133.595C94.1395 133.441 94.1043 133.155 94.2583 132.953C94.4123 132.75 94.6983 132.715 94.9007 132.869C95.2483 133.133 95.6135 133.384 95.9963 133.622C96.2119 133.754 96.2779 134.035 96.1459 134.251C96.0535 134.387 95.9039 134.466 95.7499 134.466ZM115.625 133.388C115.493 133.388 115.361 133.331 115.273 133.221C115.11 133.028 115.141 132.737 115.334 132.579C115.678 132.293 116.003 131.989 116.302 131.681C116.474 131.496 116.764 131.492 116.949 131.664C117.134 131.84 117.143 132.126 116.967 132.31C116.646 132.649 116.294 132.975 115.92 133.287C115.827 133.353 115.726 133.388 115.625 133.388ZM93.2507 132.469C93.1319 132.469 93.0087 132.42 92.9207 132.328C92.5863 131.976 92.2739 131.606 92.0011 131.228C91.8515 131.021 91.8999 130.735 92.1023 130.59C92.3047 130.44 92.5951 130.489 92.7403 130.691C92.9911 131.039 93.2771 131.378 93.5807 131.699C93.7567 131.879 93.7479 132.17 93.5675 132.346C93.4751 132.425 93.3651 132.469 93.2507 132.469ZM117.763 131.017C117.68 131.017 117.592 130.995 117.512 130.942C117.301 130.806 117.24 130.52 117.376 130.308C117.618 129.939 117.825 129.556 117.996 129.164C118.098 128.936 118.37 128.83 118.599 128.931C118.828 129.032 118.934 129.305 118.832 129.534C118.639 129.965 118.41 130.392 118.142 130.806C118.062 130.942 117.913 131.017 117.763 131.017ZM91.4511 129.833C91.2751 129.833 91.1079 129.732 91.0331 129.565C90.8351 129.12 90.6723 128.658 90.5535 128.192C90.4919 127.946 90.6415 127.699 90.8835 127.638C91.1299 127.576 91.3763 127.726 91.4379 127.968C91.5435 128.381 91.6843 128.79 91.8647 129.186C91.9659 129.42 91.8647 129.688 91.6359 129.794C91.5743 129.82 91.5127 129.833 91.4511 129.833ZM118.969 128.064C118.942 128.064 118.912 128.06 118.885 128.056C118.639 128.007 118.472 127.77 118.52 127.523C118.599 127.101 118.639 126.67 118.639 126.238V126.19C118.639 125.935 118.846 125.732 119.096 125.732C119.347 125.732 119.554 125.935 119.554 126.19V126.234C119.554 126.727 119.51 127.211 119.422 127.69C119.374 127.91 119.184 128.064 118.969 128.064ZM90.7691 126.714C90.5183 126.714 90.3115 126.52 90.3115 126.269H90.7691L90.3115 126.256C90.3115 125.768 90.3555 125.288 90.4391 124.822C90.4831 124.575 90.7251 124.408 90.9715 124.452C91.2179 124.496 91.3851 124.734 91.3411 124.984C91.2663 125.398 91.2267 125.82 91.2267 126.243C91.2267 126.494 91.0199 126.714 90.7691 126.714ZM118.859 124.835C118.656 124.835 118.467 124.698 118.414 124.492C118.309 124.078 118.164 123.669 117.988 123.273C117.882 123.044 117.988 122.771 118.216 122.666C118.445 122.56 118.718 122.666 118.824 122.894C119.026 123.339 119.189 123.801 119.303 124.263C119.365 124.509 119.22 124.756 118.973 124.817C118.934 124.83 118.894 124.835 118.859 124.835ZM91.4291 123.612C91.3675 123.612 91.3059 123.598 91.2443 123.572C91.0111 123.471 90.9099 123.202 91.0111 122.969C91.2003 122.538 91.4335 122.111 91.6975 121.698C91.8339 121.486 92.1155 121.425 92.3311 121.561C92.5423 121.698 92.6039 121.979 92.4675 122.195C92.2299 122.564 92.0187 122.952 91.8471 123.339C91.7723 123.51 91.6051 123.612 91.4291 123.612ZM117.477 121.962C117.336 121.962 117.196 121.896 117.108 121.772C116.857 121.429 116.571 121.09 116.263 120.769C116.087 120.584 116.096 120.298 116.276 120.122C116.456 119.946 116.747 119.955 116.923 120.136C117.262 120.488 117.57 120.857 117.847 121.236C117.996 121.438 117.952 121.724 117.746 121.874C117.666 121.935 117.57 121.962 117.477 121.962ZM93.2155 120.967C93.1011 120.967 92.9911 120.928 92.9031 120.844C92.7183 120.668 92.7095 120.382 92.8855 120.197C93.2067 119.858 93.5587 119.528 93.9283 119.22C94.1219 119.058 94.4123 119.084 94.5707 119.278C94.7335 119.471 94.7071 119.762 94.5135 119.92C94.1703 120.206 93.8447 120.51 93.5499 120.822C93.4575 120.919 93.3387 120.967 93.2155 120.967ZM115.224 119.691C115.128 119.691 115.031 119.66 114.947 119.599C114.604 119.335 114.234 119.084 113.852 118.851C113.636 118.719 113.57 118.437 113.698 118.222C113.83 118.006 114.111 117.936 114.327 118.068C114.736 118.318 115.132 118.587 115.502 118.868C115.704 119.022 115.744 119.308 115.59 119.511C115.497 119.63 115.361 119.691 115.224 119.691ZM95.7059 118.956C95.5519 118.956 95.4023 118.882 95.3187 118.741C95.1867 118.525 95.2527 118.244 95.4683 118.112C95.8643 117.87 96.2779 117.636 96.7091 117.425C96.9335 117.315 97.2107 117.408 97.3207 117.632C97.4307 117.856 97.3383 118.134 97.1139 118.244C96.7091 118.442 96.3175 118.662 95.9479 118.89C95.8731 118.934 95.7895 118.956 95.7059 118.956ZM112.47 118.063C112.408 118.063 112.342 118.05 112.281 118.024C111.885 117.843 111.467 117.676 111.04 117.522C110.802 117.438 110.679 117.174 110.763 116.937C110.846 116.699 111.11 116.576 111.348 116.66C111.797 116.818 112.237 116.998 112.659 117.188C112.888 117.293 112.989 117.562 112.888 117.795C112.809 117.962 112.642 118.063 112.47 118.063ZM98.5967 117.575C98.4075 117.575 98.2315 117.46 98.1655 117.271C98.0819 117.034 98.2007 116.77 98.4427 116.686C98.8783 116.528 99.3315 116.387 99.7891 116.259C100.031 116.193 100.286 116.334 100.352 116.58C100.418 116.822 100.278 117.078 100.031 117.144C99.5999 117.262 99.1687 117.399 98.7551 117.548C98.7023 117.566 98.6495 117.575 98.5967 117.575ZM109.438 117.025C109.403 117.025 109.368 117.02 109.328 117.012C108.897 116.906 108.453 116.818 108.013 116.748C107.762 116.708 107.595 116.47 107.634 116.22C107.674 115.969 107.907 115.802 108.158 115.841C108.62 115.916 109.086 116.013 109.54 116.118C109.786 116.176 109.936 116.426 109.878 116.668C109.83 116.884 109.645 117.025 109.438 117.025ZM101.699 116.765C101.479 116.765 101.285 116.607 101.25 116.382C101.21 116.132 101.378 115.898 101.624 115.854C102.082 115.78 102.552 115.718 103.019 115.67C103.27 115.639 103.494 115.832 103.516 116.083C103.538 116.334 103.353 116.558 103.102 116.58C102.658 116.624 102.209 116.682 101.774 116.756C101.747 116.765 101.721 116.765 101.699 116.765ZM106.266 116.545C106.257 116.545 106.244 116.545 106.235 116.545C105.804 116.514 105.364 116.501 104.928 116.501C104.678 116.501 104.453 116.299 104.453 116.044C104.453 115.793 104.638 115.586 104.893 115.586H104.928C105.382 115.586 105.844 115.604 106.297 115.63C106.548 115.648 106.741 115.863 106.724 116.118C106.706 116.356 106.508 116.545 106.266 116.545Z" fill="white"/>
<path d="M123.298 111.477C123.25 111.477 123.202 111.468 123.153 111.455C122.916 111.376 122.784 111.116 122.863 110.878C123.008 110.443 123.105 110.205 123.105 110.205C123.202 109.972 123.466 109.858 123.699 109.954C123.932 110.051 124.046 110.315 123.954 110.548C123.95 110.557 123.862 110.777 123.734 111.164C123.668 111.354 123.488 111.477 123.298 111.477Z" fill="white"/>
<path d="M126.115 129.591C125.991 129.591 125.868 129.543 125.776 129.442C125.455 129.09 125.151 128.724 124.869 128.355C124.715 128.152 124.755 127.866 124.957 127.712C125.16 127.558 125.446 127.598 125.6 127.8C125.864 128.148 126.15 128.491 126.453 128.821C126.625 129.006 126.612 129.296 126.423 129.468C126.335 129.552 126.225 129.591 126.115 129.591ZM124.223 127.013C124.064 127.013 123.91 126.929 123.827 126.784C123.593 126.379 123.373 125.957 123.175 125.526C123.07 125.297 123.171 125.024 123.4 124.918C123.629 124.813 123.901 124.914 124.007 125.143C124.192 125.548 124.399 125.944 124.614 126.322C124.742 126.542 124.667 126.819 124.447 126.947C124.377 126.995 124.297 127.013 124.223 127.013ZM122.933 124.087C122.74 124.087 122.559 123.964 122.498 123.77C122.357 123.33 122.234 122.872 122.128 122.406C122.071 122.16 122.225 121.913 122.471 121.856C122.718 121.803 122.964 121.953 123.021 122.199C123.123 122.639 123.237 123.07 123.373 123.484C123.448 123.726 123.316 123.981 123.079 124.06C123.026 124.082 122.977 124.087 122.933 124.087ZM122.26 120.958C122.031 120.958 121.833 120.787 121.807 120.554C121.754 120.096 121.715 119.625 121.693 119.15C121.679 118.899 121.877 118.684 122.128 118.67C122.379 118.657 122.595 118.855 122.608 119.106C122.63 119.555 122.665 120.004 122.718 120.444C122.749 120.694 122.568 120.923 122.317 120.95C122.3 120.958 122.278 120.958 122.26 120.958ZM122.15 117.76C122.141 117.76 122.137 117.76 122.128 117.76C121.877 117.746 121.679 117.535 121.693 117.284C121.71 116.822 121.745 116.352 121.798 115.89C121.825 115.639 122.045 115.454 122.3 115.48C122.551 115.507 122.735 115.731 122.709 115.982C122.661 116.431 122.63 116.88 122.612 117.324C122.599 117.57 122.397 117.76 122.15 117.76ZM122.515 114.578C122.489 114.578 122.463 114.574 122.432 114.57C122.181 114.526 122.018 114.288 122.062 114.037C122.146 113.58 122.243 113.118 122.353 112.669C122.41 112.422 122.661 112.268 122.903 112.33C123.149 112.387 123.299 112.638 123.241 112.88C123.136 113.311 123.043 113.756 122.964 114.2C122.925 114.424 122.731 114.578 122.515 114.578Z" fill="white"/>
<path d="M127.963 131.307C127.862 131.307 127.76 131.276 127.677 131.206C127.492 131.056 127.307 130.907 127.136 130.757C126.946 130.59 126.924 130.304 127.087 130.11C127.25 129.917 127.54 129.899 127.734 130.062C127.901 130.207 128.073 130.348 128.249 130.489C128.447 130.647 128.482 130.933 128.324 131.131C128.231 131.25 128.099 131.307 127.963 131.307Z" fill="white"/>
<path d="M131.359 148.446C131.311 148.446 131.258 148.437 131.21 148.419C130.972 148.336 130.844 148.076 130.928 147.838C131.078 147.407 131.17 147.174 131.17 147.174C131.267 146.941 131.531 146.826 131.764 146.923C131.997 147.02 132.112 147.284 132.019 147.517C132.015 147.522 131.927 147.742 131.79 148.138C131.729 148.327 131.548 148.446 131.359 148.446Z" fill="white"/>
<path d="M136.116 175.809C136.001 175.809 135.883 175.765 135.795 175.677C135.456 175.342 135.126 174.995 134.813 174.647C134.646 174.458 134.659 174.167 134.848 174C135.038 173.833 135.328 173.846 135.495 174.035C135.794 174.37 136.111 174.704 136.437 175.025C136.617 175.201 136.617 175.492 136.441 175.672C136.349 175.76 136.23 175.809 136.116 175.809ZM133.977 173.358C133.837 173.358 133.7 173.296 133.612 173.173C133.326 172.795 133.053 172.399 132.798 172.007C132.662 171.796 132.719 171.51 132.935 171.373C133.146 171.237 133.432 171.294 133.568 171.51C133.815 171.888 134.079 172.262 134.351 172.627C134.501 172.83 134.461 173.116 134.259 173.27C134.166 173.327 134.07 173.358 133.977 173.358ZM132.235 170.612C132.072 170.612 131.914 170.524 131.83 170.37C131.61 169.952 131.399 169.521 131.205 169.09C131.1 168.861 131.205 168.588 131.434 168.483C131.667 168.381 131.936 168.483 132.041 168.711C132.226 169.125 132.429 169.539 132.64 169.939C132.759 170.163 132.675 170.441 132.451 170.559C132.38 170.595 132.305 170.612 132.235 170.612ZM130.932 167.633C130.743 167.633 130.567 167.515 130.501 167.325C130.347 166.881 130.202 166.428 130.075 165.97C130.004 165.728 130.145 165.473 130.391 165.407C130.633 165.337 130.889 165.477 130.955 165.724C131.078 166.164 131.219 166.604 131.368 167.026C131.452 167.264 131.329 167.528 131.087 167.611C131.034 167.625 130.981 167.633 130.932 167.633ZM130.079 164.496C129.863 164.496 129.674 164.347 129.63 164.127C129.538 163.669 129.458 163.198 129.392 162.727C129.357 162.477 129.533 162.243 129.78 162.208C130.026 162.173 130.259 162.345 130.299 162.595C130.365 163.049 130.44 163.506 130.528 163.946C130.576 164.193 130.418 164.435 130.171 164.483C130.136 164.492 130.105 164.496 130.079 164.496ZM129.643 161.271C129.406 161.271 129.203 161.086 129.186 160.849C129.15 160.382 129.129 159.907 129.12 159.432C129.115 159.181 129.313 158.97 129.568 158.965C129.81 158.974 130.031 159.159 130.035 159.414C130.044 159.872 130.066 160.334 130.101 160.787C130.119 161.038 129.929 161.258 129.678 161.275C129.665 161.271 129.657 161.271 129.643 161.271ZM129.591 158.015C129.586 158.015 129.577 158.015 129.573 158.015C129.322 158.006 129.124 157.795 129.133 157.54C129.151 157.06 129.181 156.589 129.217 156.127C129.239 155.877 129.458 155.692 129.709 155.709C129.96 155.731 130.149 155.951 130.127 156.202C130.092 156.651 130.061 157.109 130.044 157.575C130.039 157.821 129.837 158.015 129.591 158.015ZM129.881 154.777C129.859 154.777 129.841 154.777 129.819 154.772C129.568 154.737 129.393 154.508 129.428 154.257C129.494 153.773 129.569 153.307 129.648 152.863C129.692 152.612 129.925 152.445 130.18 152.493C130.427 152.537 130.594 152.775 130.55 153.025C130.475 153.461 130.4 153.914 130.334 154.385C130.299 154.609 130.105 154.777 129.881 154.777ZM130.471 151.573C130.435 151.573 130.4 151.569 130.365 151.56C130.119 151.503 129.965 151.257 130.022 151.01C130.136 150.513 130.255 150.055 130.369 149.642C130.435 149.4 130.69 149.255 130.932 149.321C131.174 149.387 131.32 149.642 131.249 149.884C131.139 150.289 131.025 150.733 130.911 151.217C130.867 151.433 130.677 151.573 130.471 151.573Z" fill="white"/>
<path d="M138.03 177.502C137.929 177.502 137.827 177.472 137.744 177.401C137.559 177.256 137.379 177.106 137.203 176.957C137.009 176.794 136.983 176.504 137.145 176.314C137.308 176.121 137.599 176.094 137.788 176.257C137.959 176.402 138.131 176.543 138.311 176.684C138.509 176.842 138.545 177.128 138.386 177.326C138.298 177.441 138.162 177.502 138.03 177.502Z" fill="white"/>
<path d="M84.7014 111.477C84.5078 111.477 84.3318 111.354 84.2658 111.165C84.1382 110.773 84.0502 110.553 84.0458 110.549C83.9534 110.315 84.0634 110.047 84.301 109.955C84.5342 109.862 84.8026 109.972 84.895 110.205C84.895 110.205 84.9918 110.443 85.137 110.879C85.2162 111.116 85.0886 111.376 84.8466 111.455C84.7982 111.468 84.7498 111.477 84.7014 111.477Z" fill="white"/>
<path d="M81.8856 129.593C81.7756 129.593 81.6656 129.553 81.5776 129.474C81.3928 129.302 81.3796 129.016 81.5468 128.827C81.8504 128.497 82.1364 128.154 82.4004 127.806C82.5544 127.604 82.8404 127.564 83.0428 127.718C83.2452 127.872 83.2848 128.158 83.1308 128.361C82.8492 128.73 82.5456 129.095 82.2244 129.447C82.1364 129.54 82.0088 129.593 81.8856 129.593ZM83.7776 127.014C83.6984 127.014 83.6192 126.997 83.5488 126.953C83.3288 126.825 83.254 126.548 83.3816 126.328C83.6016 125.945 83.8084 125.549 83.9932 125.149C84.0988 124.92 84.3716 124.819 84.6004 124.924C84.8292 125.03 84.9304 125.303 84.8248 125.531C84.6268 125.958 84.4112 126.385 84.1736 126.79C84.09 126.935 83.936 127.014 83.7776 127.014ZM85.0712 124.088C85.0272 124.088 84.9788 124.079 84.9304 124.066C84.6884 123.991 84.5564 123.732 84.6356 123.49C84.7676 123.076 84.8864 122.641 84.9876 122.205C85.0448 121.959 85.2868 121.805 85.5332 121.862C85.7796 121.919 85.9336 122.161 85.8764 122.412C85.7708 122.874 85.6476 123.331 85.5068 123.776C85.4452 123.965 85.2648 124.088 85.0712 124.088ZM85.74 120.96C85.7224 120.96 85.7048 120.96 85.6872 120.955C85.4364 120.925 85.256 120.7 85.2868 120.449C85.3396 120.014 85.3748 119.565 85.3968 119.112C85.41 118.861 85.6256 118.663 85.8764 118.676C86.1272 118.689 86.3252 118.901 86.312 119.156C86.29 119.627 86.2504 120.097 86.1976 120.559C86.1668 120.788 85.9688 120.96 85.74 120.96ZM85.85 117.761C85.608 117.761 85.4056 117.567 85.3924 117.325C85.3748 116.885 85.3396 116.432 85.2912 115.983C85.2648 115.733 85.4452 115.508 85.7004 115.482C85.9512 115.455 86.1756 115.636 86.202 115.891C86.2504 116.357 86.2856 116.828 86.3076 117.286C86.3164 117.537 86.1228 117.752 85.872 117.761C85.8632 117.761 85.8544 117.761 85.85 117.761ZM85.4892 114.58C85.2736 114.58 85.08 114.426 85.0404 114.206C84.9612 113.766 84.8644 113.321 84.7632 112.886C84.706 112.639 84.8556 112.393 85.102 112.336C85.3484 112.274 85.5948 112.428 85.6564 112.675C85.7664 113.123 85.8632 113.585 85.9468 114.043C85.9908 114.294 85.828 114.531 85.5772 114.575C85.542 114.58 85.5156 114.58 85.4892 114.58Z" fill="white"/>
<path d="M80.0374 131.308C79.901 131.308 79.769 131.251 79.6766 131.137C79.5182 130.939 79.5534 130.653 79.7514 130.494C79.9274 130.353 80.099 130.213 80.2662 130.067C80.4554 129.9 80.7458 129.922 80.913 130.116C81.0802 130.305 81.0582 130.595 80.8646 130.763C80.6886 130.912 80.5082 131.066 80.319 131.211C80.2398 131.277 80.1386 131.308 80.0374 131.308Z" fill="white"/>
<path d="M109.086 162.762C108.928 162.762 108.774 162.683 108.69 162.534C108.483 162.177 108.351 161.983 108.347 161.975C108.206 161.763 108.263 161.482 108.47 161.341C108.681 161.2 108.963 161.257 109.104 161.464C109.104 161.464 109.249 161.68 109.478 162.071C109.605 162.291 109.531 162.569 109.311 162.696C109.245 162.74 109.165 162.762 109.086 162.762Z" fill="white"/>
<path d="M110.072 181.067C109.993 181.067 109.914 181.045 109.839 181.005C109.623 180.878 109.548 180.596 109.676 180.38C109.9 179.998 110.112 179.602 110.301 179.206C110.411 178.977 110.684 178.88 110.908 178.986C111.137 179.096 111.234 179.368 111.124 179.597C110.926 180.02 110.701 180.438 110.459 180.847C110.38 180.988 110.226 181.067 110.072 181.067ZM111.392 178.154C111.344 178.154 111.295 178.145 111.251 178.132C111.009 178.053 110.882 177.793 110.956 177.556C111.093 177.138 111.212 176.706 111.308 176.275C111.366 176.029 111.608 175.875 111.854 175.928C112.1 175.985 112.254 176.227 112.202 176.473C112.096 176.935 111.973 177.393 111.828 177.837C111.762 178.031 111.586 178.154 111.392 178.154ZM112.048 175.026C112.034 175.026 112.017 175.026 112.004 175.026C111.753 174.999 111.568 174.775 111.594 174.524C111.638 174.088 111.665 173.64 111.669 173.191C111.674 172.94 111.876 172.742 112.127 172.742C112.131 172.742 112.131 172.742 112.136 172.742C112.386 172.746 112.589 172.953 112.584 173.208C112.576 173.679 112.549 174.154 112.505 174.616C112.479 174.85 112.281 175.026 112.048 175.026ZM112.056 171.827C111.823 171.827 111.621 171.646 111.599 171.409C111.559 170.969 111.502 170.524 111.427 170.08C111.388 169.829 111.555 169.596 111.806 169.552C112.056 169.508 112.29 169.68 112.334 169.93C112.408 170.397 112.47 170.863 112.51 171.325C112.532 171.576 112.347 171.8 112.096 171.822C112.087 171.827 112.07 171.827 112.056 171.827ZM111.506 168.672C111.304 168.672 111.115 168.536 111.062 168.329C110.952 167.898 110.824 167.466 110.688 167.035C110.609 166.793 110.741 166.538 110.983 166.459C111.225 166.38 111.48 166.512 111.559 166.754C111.704 167.198 111.836 167.651 111.951 168.1C112.012 168.346 111.867 168.593 111.621 168.659C111.581 168.668 111.542 168.672 111.506 168.672ZM110.494 165.636C110.314 165.636 110.142 165.53 110.072 165.35C109.9 164.932 109.716 164.518 109.526 164.118C109.416 163.889 109.513 163.616 109.742 163.506C109.971 163.396 110.244 163.493 110.354 163.722C110.552 164.14 110.741 164.567 110.921 165.002C111.018 165.236 110.904 165.504 110.67 165.601C110.609 165.627 110.552 165.636 110.494 165.636Z" fill="white"/>
<path d="M108.615 183.129C108.514 183.129 108.409 183.094 108.325 183.024C108.131 182.861 108.105 182.575 108.263 182.381C108.409 182.21 108.545 182.034 108.677 181.858C108.831 181.655 109.117 181.616 109.319 181.77C109.522 181.924 109.561 182.21 109.407 182.412C109.267 182.597 109.121 182.782 108.967 182.962C108.879 183.072 108.747 183.129 108.615 183.129Z" fill="white"/>
<path d="M66.7364 58.6145C66.6528 58.6145 66.5736 58.5925 66.4988 58.5485C66.1468 58.3329 65.94 58.2229 65.9312 58.2185C65.7068 58.0997 65.6232 57.8225 65.742 57.6025C65.8608 57.3781 66.138 57.2945 66.358 57.4133C66.358 57.4133 66.5868 57.5321 66.974 57.7741C67.1896 57.9061 67.2556 58.1877 67.1236 58.4033C67.04 58.5397 66.886 58.6145 66.7364 58.6145Z" fill="white"/>
<path d="M76.2491 74.2878C76.2447 74.2878 76.2359 74.2878 76.2315 74.2878C75.9807 74.279 75.7827 74.0634 75.7915 73.8126C75.8003 73.6058 75.8047 73.399 75.8047 73.1966C75.8047 72.9546 75.8003 72.717 75.7871 72.4794C75.7739 72.2286 75.9675 72.013 76.2227 71.9998C76.4691 71.9866 76.6891 72.1802 76.7023 72.4354C76.7155 72.6862 76.7199 72.9414 76.7199 73.1966C76.7199 73.4122 76.7155 73.6322 76.7067 73.8522C76.6979 74.0942 76.4955 74.2878 76.2491 74.2878ZM76.0379 71.0978C75.8179 71.0978 75.6287 70.9438 75.5891 70.7194C75.5143 70.2882 75.4131 69.8526 75.2943 69.4214C75.2283 69.1794 75.3691 68.9242 75.6155 68.8582C75.8575 68.7922 76.1127 68.933 76.1787 69.1794C76.3063 69.637 76.4119 70.099 76.4911 70.561C76.5351 70.8118 76.3679 71.0494 76.1215 71.0934C76.0907 71.0978 76.0643 71.0978 76.0379 71.0978ZM75.1403 68.031C74.9599 68.031 74.7883 67.9254 74.7179 67.7494C74.5507 67.3446 74.3615 66.9398 74.1591 66.5394C74.0447 66.315 74.1327 66.0378 74.3571 65.9234C74.5815 65.809 74.8587 65.897 74.9731 66.1214C75.1887 66.5438 75.3911 66.975 75.5671 67.4018C75.6639 67.635 75.5539 67.9034 75.3207 68.0002C75.2591 68.0178 75.1975 68.031 75.1403 68.031ZM73.6399 65.2062C73.4903 65.2062 73.3451 65.1358 73.2571 64.9994C73.0151 64.6342 72.7555 64.2646 72.4783 63.9082C72.3243 63.7058 72.3639 63.4198 72.5619 63.2658C72.7643 63.1118 73.0503 63.1514 73.2043 63.3494C73.4903 63.7234 73.7675 64.1106 74.0183 64.4934C74.1591 64.7046 74.0975 64.9862 73.8863 65.127C73.8115 65.1798 73.7235 65.2062 73.6399 65.2062ZM71.6643 62.685C71.5411 62.685 71.4179 62.6366 71.3255 62.5354C71.0263 62.2098 70.7095 61.8842 70.3839 61.5718C70.2035 61.3958 70.1947 61.1054 70.3707 60.925C70.5467 60.7446 70.8371 60.7358 71.0175 60.9118C71.3563 61.2374 71.6863 61.5762 71.9987 61.915C72.1703 62.0998 72.1571 62.3902 71.9723 62.5618C71.8843 62.6454 71.7743 62.685 71.6643 62.685ZM69.3367 60.485C69.2355 60.485 69.1299 60.4498 69.0463 60.3794C68.6987 60.0934 68.3423 59.8162 67.9815 59.5522C67.7791 59.4026 67.7351 59.1166 67.8847 58.9142C68.0343 58.7118 68.3203 58.6678 68.5227 58.8174C68.8967 59.0902 69.2663 59.3806 69.6271 59.6798C69.8207 59.8426 69.8515 60.1286 69.6887 60.3222C69.5963 60.4278 69.4687 60.485 69.3367 60.485Z" fill="white"/>
<path d="M75.9412 76.7921C75.9104 76.7921 75.8796 76.7877 75.8488 76.7833C75.6024 76.7349 75.4396 76.4929 75.4924 76.2421C75.5364 76.0221 75.576 75.8021 75.6112 75.5865C75.6508 75.3357 75.884 75.1641 76.1348 75.2081C76.3856 75.2477 76.5528 75.4809 76.5132 75.7317C76.478 75.9605 76.434 76.1937 76.3856 76.4269C76.346 76.6425 76.1568 76.7921 75.9412 76.7921Z" fill="white"/>
<path d="M76.6409 148.446C76.4517 148.446 76.2757 148.327 76.2097 148.138C76.0733 147.742 75.9853 147.522 75.9809 147.517C75.8885 147.284 75.9985 147.016 76.2317 146.923C76.4649 146.826 76.7333 146.941 76.8257 147.174C76.8257 147.174 76.9225 147.407 77.0677 147.838C77.1513 148.076 77.0237 148.336 76.7861 148.419C76.7421 148.437 76.6893 148.446 76.6409 148.446Z" fill="white"/>
<path d="M71.8887 175.808C71.7699 175.808 71.6511 175.764 71.5631 175.672C71.3871 175.492 71.3871 175.201 71.5675 175.025C71.8931 174.704 72.2099 174.37 72.5091 174.035C72.6763 173.846 72.9667 173.833 73.1559 174C73.3451 174.167 73.3627 174.458 73.1911 174.647C72.8787 174.994 72.5487 175.342 72.2099 175.676C72.1175 175.764 72.0031 175.808 71.8887 175.808ZM74.0227 173.358C73.9259 173.358 73.8291 173.327 73.7499 173.265C73.5475 173.116 73.5079 172.825 73.6575 172.623C73.9303 172.258 74.1943 171.884 74.4363 171.505C74.5727 171.294 74.8587 171.232 75.0699 171.369C75.2811 171.505 75.3427 171.791 75.2063 172.002C74.9511 172.398 74.6739 172.79 74.3923 173.168C74.2999 173.296 74.1635 173.358 74.0227 173.358ZM75.7651 170.612C75.6947 170.612 75.6199 170.594 75.5495 170.559C75.3251 170.44 75.2415 170.163 75.3603 169.939C75.5715 169.538 75.7739 169.129 75.9587 168.711C76.0599 168.482 76.3327 168.377 76.5659 168.482C76.7947 168.588 76.9003 168.856 76.7947 169.09C76.6011 169.521 76.3899 169.952 76.1699 170.37C76.0863 170.524 75.9323 170.612 75.7651 170.612ZM77.0675 167.633C77.0191 167.633 76.9663 167.624 76.9179 167.607C76.6803 167.523 76.5527 167.264 76.6363 167.022C76.7859 166.599 76.9223 166.159 77.0499 165.719C77.1203 165.477 77.3711 165.332 77.6131 165.402C77.8551 165.473 77.9959 165.724 77.9299 165.966C77.8023 166.423 77.6571 166.881 77.5031 167.321C77.4327 167.514 77.2567 167.633 77.0675 167.633ZM77.9255 164.496C77.8947 164.496 77.8639 164.492 77.8331 164.487C77.5867 164.439 77.4239 164.197 77.4723 163.95C77.5603 163.51 77.6395 163.057 77.7055 162.6C77.7407 162.349 77.9739 162.177 78.2247 162.212C78.4755 162.248 78.6471 162.481 78.6119 162.732C78.5459 163.202 78.4623 163.673 78.3743 164.131C78.3303 164.342 78.1367 164.496 77.9255 164.496ZM78.3567 161.271C78.3479 161.271 78.3347 161.271 78.3215 161.271C78.0707 161.253 77.8815 161.033 77.8991 160.782C77.9299 160.329 77.9519 159.872 77.9651 159.41C77.9695 159.159 78.1763 158.961 78.4227 158.961C78.4271 158.961 78.4315 158.961 78.4315 158.961C78.6823 158.965 78.8847 159.176 78.8803 159.427C78.8715 159.902 78.8451 160.378 78.8143 160.844C78.7967 161.086 78.5943 161.271 78.3567 161.271ZM78.4095 158.015C78.1631 158.015 77.9607 157.821 77.9519 157.575C77.9343 157.108 77.9079 156.651 77.8683 156.202C77.8463 155.951 78.0355 155.731 78.2863 155.709C78.5415 155.692 78.7615 155.876 78.7791 156.127C78.8187 156.589 78.8451 157.06 78.8627 157.54C78.8715 157.795 78.6735 158.006 78.4227 158.015C78.4227 158.015 78.4139 158.015 78.4095 158.015ZM78.1191 154.776C77.8947 154.776 77.6967 154.609 77.6659 154.38C77.5999 153.91 77.5295 153.456 77.4503 153.021C77.4063 152.774 77.5735 152.537 77.8199 152.488C78.0707 152.444 78.3083 152.612 78.3523 152.858C78.4315 153.302 78.5063 153.769 78.5723 154.253C78.6075 154.504 78.4315 154.732 78.1807 154.768C78.1631 154.772 78.1411 154.776 78.1191 154.776ZM77.5295 151.573C77.3227 151.573 77.1335 151.432 77.0851 151.221C76.9707 150.737 76.8563 150.288 76.7463 149.888C76.6803 149.646 76.8211 149.391 77.0675 149.325C77.3095 149.259 77.5647 149.4 77.6307 149.646C77.7451 150.06 77.8639 150.517 77.9783 151.014C78.0355 151.261 77.8815 151.507 77.6351 151.564C77.5999 151.569 77.5647 151.573 77.5295 151.573Z" fill="white"/>
<path d="M69.9749 177.504C69.8385 177.504 69.7065 177.442 69.6141 177.332C69.4557 177.134 69.4909 176.848 69.6889 176.69C69.8649 176.549 70.0409 176.408 70.2081 176.263C70.4017 176.1 70.6921 176.127 70.8549 176.32C71.0177 176.514 70.9913 176.8 70.7977 176.963C70.6217 177.112 70.4413 177.258 70.2565 177.407C70.1729 177.469 70.0717 177.504 69.9749 177.504Z" fill="white"/>
<path d="M98.9135 162.763C98.8343 162.763 98.7551 162.741 98.6847 162.701C98.4647 162.574 98.3943 162.292 98.5219 162.077C98.7507 161.681 98.8959 161.469 98.8959 161.469C99.0367 161.258 99.3227 161.205 99.5295 161.346C99.7407 161.487 99.7935 161.773 99.6527 161.98C99.6483 161.989 99.5163 162.182 99.3095 162.539C99.2259 162.679 99.0719 162.763 98.9135 162.763Z" fill="white"/>
<path d="M97.928 181.067C97.7696 181.067 97.62 180.988 97.532 180.842C97.29 180.433 97.07 180.015 96.8676 179.593C96.7576 179.364 96.8588 179.091 97.0876 178.981C97.3164 178.876 97.5892 178.972 97.6948 179.201C97.884 179.597 98.0908 179.993 98.3196 180.376C98.4472 180.592 98.3768 180.873 98.1568 181.001C98.0864 181.049 98.0072 181.067 97.928 181.067ZM96.608 178.154C96.4144 178.154 96.234 178.031 96.1724 177.837C96.0272 177.393 95.8996 176.935 95.7984 176.473C95.7412 176.227 95.8996 175.98 96.146 175.928C96.3924 175.87 96.6388 176.029 96.6916 176.275C96.7884 176.706 96.9072 177.138 97.0436 177.556C97.1228 177.798 96.9908 178.053 96.7488 178.132C96.7048 178.15 96.6564 178.154 96.608 178.154ZM95.9524 175.026C95.7192 175.026 95.5212 174.85 95.4992 174.612C95.4508 174.15 95.4244 173.675 95.42 173.204C95.4156 172.949 95.618 172.742 95.8688 172.738C95.8688 172.738 95.8732 172.738 95.8776 172.738C96.1284 172.738 96.3308 172.94 96.3352 173.186C96.344 173.635 96.366 174.08 96.41 174.52C96.4364 174.77 96.2516 174.995 96.0008 175.021C95.9832 175.026 95.9656 175.026 95.9524 175.026ZM95.9436 171.827C95.9304 171.827 95.9172 171.827 95.8996 171.827C95.6488 171.805 95.464 171.58 95.486 171.33C95.53 170.868 95.5872 170.401 95.6664 169.935C95.706 169.684 95.9392 169.512 96.19 169.556C96.4408 169.596 96.608 169.834 96.5684 170.084C96.4936 170.529 96.4364 170.973 96.3968 171.413C96.3792 171.651 96.1768 171.827 95.9436 171.827ZM96.4936 168.672C96.454 168.672 96.4188 168.668 96.3792 168.659C96.1328 168.597 95.9876 168.346 96.0492 168.1C96.1636 167.651 96.2956 167.202 96.4408 166.754C96.52 166.512 96.7752 166.38 97.0172 166.459C97.2592 166.538 97.3912 166.793 97.312 167.035C97.1756 167.462 97.048 167.898 96.938 168.329C96.8852 168.536 96.7004 168.672 96.4936 168.672ZM97.5056 165.636C97.4484 165.636 97.3912 165.627 97.334 165.601C97.1008 165.504 96.9864 165.24 97.0832 165.002C97.2592 164.571 97.4528 164.14 97.6508 163.722C97.7608 163.493 98.0336 163.396 98.2624 163.506C98.4912 163.616 98.588 163.889 98.478 164.118C98.2888 164.518 98.104 164.932 97.9324 165.35C97.8576 165.53 97.686 165.636 97.5056 165.636Z" fill="white"/>
<path d="M99.3844 183.131C99.2524 183.131 99.1204 183.074 99.0324 182.964C98.8784 182.779 98.7332 182.599 98.5924 182.414C98.4384 182.212 98.478 181.926 98.6804 181.772C98.8828 181.618 99.1688 181.657 99.3228 181.86C99.4548 182.036 99.5956 182.207 99.7364 182.383C99.8992 182.577 99.8684 182.867 99.6748 183.026C99.5912 183.096 99.4856 183.131 99.3844 183.131Z" fill="white"/>
<path d="M141.268 58.6147C141.114 58.6147 140.964 58.5355 140.876 58.3947C140.744 58.1791 140.81 57.8975 141.026 57.7655C141.413 57.5279 141.642 57.4047 141.642 57.4047C141.866 57.2859 142.143 57.3739 142.258 57.5939C142.376 57.8183 142.293 58.0955 142.068 58.2099C142.06 58.2143 141.853 58.3243 141.501 58.5399C141.43 58.5927 141.347 58.6147 141.268 58.6147Z" fill="white"/>
<path d="M131.751 74.2883C131.509 74.2883 131.302 74.0947 131.293 73.8483C131.284 73.6283 131.28 73.4127 131.28 73.1971C131.28 72.9419 131.284 72.6867 131.297 72.4359C131.311 72.1851 131.539 71.9915 131.777 72.0003C132.028 72.0135 132.226 72.2291 132.213 72.4799C132.199 72.7175 132.195 72.9551 132.195 73.1971C132.195 73.3995 132.199 73.6063 132.208 73.8131C132.217 74.0639 132.023 74.2795 131.768 74.2883C131.764 74.2883 131.755 74.2883 131.751 74.2883ZM131.962 71.0983C131.935 71.0983 131.909 71.0983 131.883 71.0895C131.632 71.0455 131.469 70.8079 131.513 70.5571C131.597 70.0951 131.698 69.6331 131.825 69.1755C131.891 68.9335 132.147 68.7883 132.389 68.8543C132.631 68.9203 132.776 69.1755 132.705 69.4175C132.587 69.8443 132.49 70.2799 132.411 70.7155C132.371 70.9443 132.177 71.0983 131.962 71.0983ZM132.859 68.0315C132.802 68.0315 132.741 68.0183 132.683 67.9963C132.45 67.8995 132.34 67.6311 132.433 67.3979C132.609 66.9711 132.811 66.5399 133.027 66.1175C133.141 65.8931 133.418 65.8051 133.643 65.9195C133.867 66.0339 133.955 66.3111 133.841 66.5355C133.634 66.9315 133.445 67.3407 133.277 67.7455C133.211 67.9259 133.04 68.0315 132.859 68.0315ZM134.36 65.2067C134.272 65.2067 134.188 65.1803 134.109 65.1319C133.898 64.9911 133.841 64.7095 133.977 64.4983C134.232 64.1111 134.505 63.7283 134.791 63.3543C134.945 63.1519 135.231 63.1167 135.433 63.2707C135.636 63.4247 135.671 63.7107 135.517 63.9131C135.244 64.2695 134.98 64.6391 134.738 65.0043C134.655 65.1319 134.509 65.2067 134.36 65.2067ZM136.34 62.6855C136.23 62.6855 136.12 62.6459 136.032 62.5667C135.847 62.3951 135.834 62.1047 136.005 61.9199C136.318 61.5811 136.648 61.2423 136.987 60.9167C137.167 60.7407 137.457 60.7451 137.633 60.9299C137.809 61.1103 137.805 61.4007 137.62 61.5767C137.295 61.8891 136.978 62.2147 136.679 62.5403C136.586 62.6371 136.463 62.6855 136.34 62.6855ZM138.667 60.4855C138.535 60.4855 138.403 60.4283 138.315 60.3183C138.153 60.1247 138.183 59.8343 138.377 59.6759C138.738 59.3767 139.107 59.0907 139.481 58.8135C139.684 58.6639 139.97 58.7079 140.119 58.9103C140.269 59.1127 140.225 59.3987 140.023 59.5483C139.662 59.8123 139.305 60.0895 138.958 60.3755C138.87 60.4503 138.769 60.4855 138.667 60.4855Z" fill="white"/>
<path d="M132.059 76.791C131.843 76.791 131.654 76.6414 131.61 76.4258C131.562 76.1926 131.522 75.9594 131.482 75.7306C131.443 75.4798 131.61 75.2466 131.861 75.207C132.107 75.1674 132.345 75.3346 132.384 75.5854C132.42 75.801 132.459 76.021 132.503 76.241C132.552 76.4874 132.393 76.7294 132.147 76.7822C132.12 76.7866 132.09 76.791 132.059 76.791Z" fill="white"/>
<path d="M119.84 24.3552C119.84 33.7756 112.747 47.7808 104 47.7808C95.253 47.7808 88.1602 33.7756 88.1602 24.3552C88.1602 14.9348 95.253 7.30078 104 7.30078C112.747 7.30078 119.84 14.9392 119.84 24.3552Z" fill="#FFCCB8"/>
<path d="M106.244 33.9077C105.945 33.8549 105.593 33.8637 105.369 34.0837C105.091 34.3565 105.496 34.7217 105.791 34.4929C105.945 34.3741 106.042 34.2773 106.244 34.2289C106.407 34.1937 106.42 33.9385 106.244 33.9077Z" fill="#FFCCB8"/>
<path d="M101.787 33.9077C102.086 33.8549 102.438 33.8637 102.662 34.0837C102.94 34.3565 102.535 34.7217 102.24 34.4929C102.086 34.3741 101.989 34.2773 101.787 34.2289C101.628 34.1937 101.615 33.9385 101.787 33.9077Z" fill="#FFCCB8"/>
<path d="M109.447 27.6816C110.279 28.434 111.146 28.676 112.277 28.7816C114.01 28.94 115.093 27.3868 116.712 27.2196C116.848 27.2064 116.857 26.9996 116.712 27.004C115.788 27.0436 114.917 27.3516 114.028 27.5716C112.519 27.9412 111.009 27.9148 109.496 27.6024C109.447 27.598 109.412 27.6508 109.447 27.6816Z" fill="#4C3126"/>
<path d="M116.58 22.0544C115.181 21.3768 113.927 21.1392 112.396 21.4912C111.313 21.7376 110.301 22.2392 109.285 22.2524C108.928 22.2568 108.717 21.3944 109.012 21.2448C111.542 19.9776 114.472 20.2636 116.659 21.9532C116.712 22.006 116.637 22.0852 116.58 22.0544Z" fill="#4C3126"/>
<path d="M98.5531 27.6816C97.7215 28.434 96.8547 28.676 95.7239 28.7816C93.9903 28.94 92.9079 27.3868 91.2887 27.2196C91.1523 27.2064 91.1435 26.9996 91.2887 27.004C92.2127 27.0436 93.0839 27.3516 93.9727 27.5716C95.4819 27.9412 96.9911 27.9148 98.5047 27.6024C98.5531 27.598 98.5927 27.6508 98.5531 27.6816Z" fill="#4C3126"/>
<path d="M91.4205 22.0544C92.8197 21.3768 94.0737 21.1392 95.6049 21.4912C96.6873 21.7376 97.6993 22.2392 98.7157 22.2524C99.0721 22.2568 99.2833 21.3944 98.9885 21.2448C96.4585 19.9776 93.5281 20.2636 91.3457 21.9532C91.2885 22.006 91.3633 22.0852 91.4205 22.0544Z" fill="#4C3126"/>
<path d="M113.104 37.3273C114.762 35.5321 117.539 34.0625 118.005 31.5061C118.058 31.2245 117.737 31.0177 117.504 31.2245C115.669 32.8437 113.909 34.9601 112.853 37.1425C112.782 37.2921 112.976 37.4681 113.104 37.3273Z" fill="#FFCCB8"/>
<path d="M94.8966 37.3273C93.2378 35.5321 90.4614 34.0625 89.995 31.5061C89.9422 31.2245 90.2634 31.0177 90.4966 31.2245C92.3314 32.8437 94.0914 34.9601 95.1474 37.1425C95.2178 37.2921 95.0242 37.4681 94.8966 37.3273Z" fill="#FFCCB8"/>
<path d="M108.277 23.458C106.112 25.086 105.756 27.6292 105.963 30.1328C105.98 30.3352 106.271 30.388 106.332 30.1812C107.023 27.9504 107.005 25.5568 108.501 23.6208C108.603 23.4888 108.391 23.37 108.277 23.458Z" fill="#FFCCB8"/>
<path d="M109.338 39.6795C107.916 39.1867 106.843 38.1571 105.488 37.5411C104.863 37.2551 104.278 37.5587 104 38.0075C103.719 37.5587 103.138 37.2595 102.513 37.5411C101.162 38.1571 100.084 39.1867 98.6631 39.6795C98.5223 39.7279 98.4871 39.9611 98.6631 39.9919C98.9227 40.0359 99.1779 40.0711 99.4287 40.1019C99.8643 41.6727 102.922 41.8619 103.996 41.8619C104.845 41.8619 108.114 41.6727 108.563 40.1019C108.818 40.0711 109.074 40.0359 109.333 39.9919C109.514 39.9611 109.478 39.7279 109.338 39.6795Z" fill="#C94B4B"/>
<path d="M109.069 39.9339C107.952 39.9339 106.794 39.7887 105.686 39.6435C105.118 39.5687 104.528 39.4323 104.005 39.7095C103.552 39.4719 103.059 39.5379 102.557 39.6083C101.374 39.7711 100.133 39.9339 98.9361 39.9339C98.9185 39.9339 98.9185 39.9559 98.9361 39.9603C99.7809 40.0131 100.582 40.0131 101.422 39.9295C102.17 39.8547 103.274 39.5027 103.952 39.8987C103.956 39.9031 103.961 39.8987 103.965 39.8987C103.978 39.9031 103.987 39.9031 104 39.9031C104.014 39.9031 104.027 39.9031 104.036 39.8987C104.04 39.8987 104.044 39.8987 104.049 39.8987C104.682 39.5291 105.54 39.8283 106.222 39.8943C107.186 39.9911 108.097 40.0219 109.065 39.9603C109.082 39.9603 109.082 39.9339 109.069 39.9339Z" fill="#8E3833"/>
<path d="M105.659 40.5161C105.531 40.6041 105.404 40.6569 105.333 40.8065C105.245 40.9913 105.263 41.1629 105.399 41.3169C105.575 41.5149 105.822 41.5105 106.064 41.4489C106.829 41.2641 106.284 40.1025 105.659 40.5161Z" fill="#E87765"/>
<path d="M106.808 40.4668C106.377 40.4668 106.377 41.118 106.808 41.118C107.239 41.118 107.239 40.4668 106.808 40.4668Z" fill="#E87765"/>
<path d="M105.237 37.7305C104.889 37.7305 104.889 38.2541 105.237 38.2541C105.584 38.2541 105.584 37.7305 105.237 37.7305Z" fill="#E87765"/>
<path d="M105.738 38.3412C105.919 38.3412 105.919 38.0684 105.738 38.0684C105.558 38.0684 105.558 38.3412 105.738 38.3412Z" fill="#E87765"/>
<path d="M117.737 28.4643C117.601 28.1079 117.121 28.1035 116.985 28.4643C116.871 28.7679 116.51 29.0627 116.246 29.2475C115.894 29.4939 115.577 29.7667 115.278 30.0747C114.847 30.5279 115.26 31.4035 115.938 31.1747C117.016 30.8095 118.191 29.6655 117.737 28.4643Z" fill="#FFCCB8"/>
<path d="M104.26 24.9941C103.345 27.2249 102.685 29.7153 103.468 32.0869C103.653 32.6457 104.436 32.6369 104.625 32.0869C105.413 29.7901 105.166 27.3261 104.717 24.9941C104.669 24.7477 104.339 24.8049 104.26 24.9941Z" fill="#FFCCB8"/>
<path d="M104.52 15.5508C104.48 15.5464 104.436 15.542 104.396 15.5332C103.402 15.41 102.443 15.4452 101.545 15.7488C100.419 16.1316 99.7104 16.8488 99.7104 17.61C99.7104 18.1776 100.102 18.732 100.793 19.1324C101.77 19.7 103.081 19.8496 104.396 19.6868C104.436 19.6824 104.48 19.678 104.52 19.6736C106.104 19.48 107.217 18.5164 107.217 17.61C107.217 16.7036 106.108 15.7444 104.52 15.5508Z" fill="#FFCCB8"/>
<path d="M104.304 43.9303C104.177 43.8951 104.058 43.8995 103.935 43.8951C103.657 43.8819 103.398 44.0887 103.327 44.3439C103.248 44.6255 103.385 44.8719 103.618 45.0347C103.838 45.1887 104.053 45.1887 104.309 45.1535C104.59 45.1139 104.788 44.7971 104.788 44.5419C104.788 44.2647 104.586 44.0051 104.304 43.9303Z" fill="#FFCCB8"/>
<path d="M104 8.72246C106.222 8.72246 111.159 8.95126 115.26 13.9453C119.36 18.9393 119.338 31.1669 119.338 31.1669L121.046 32.3637C121.046 32.3637 123.444 24.1005 122.225 16.0661C121.046 8.30446 115.546 0.630859 104 0.630859C92.4543 0.630859 86.9543 8.30446 85.7751 16.0661C84.5563 24.1005 86.9543 32.3637 86.9543 32.3637L88.6615 31.1669C88.6615 31.1669 88.6395 18.9349 92.7403 13.9453C96.8411 8.95126 101.778 8.72246 104 8.72246Z" fill="#0E82FD"/>
<path d="M120.328 22.2047C119.272 14.4431 114.344 6.76953 104 6.76953C93.6554 6.76953 88.7274 14.4431 87.6714 22.2047C87.2094 25.6103 87.3282 29.0555 87.6186 31.8979L88.7802 30.5647C88.7802 30.5647 88.6394 18.9355 92.7402 13.9415C96.841 8.94753 111.159 8.94753 115.259 13.9415C119.36 18.9355 119.307 30.8287 119.307 30.8287L120.381 31.8979C120.671 29.0555 120.79 25.6147 120.328 22.2047Z" fill="#A5E2E5"/>
<path d="M114.727 5.93702C111.172 4.09342 107.309 3.71062 103.494 4.36182C98.0158 4.26062 92.5642 6.38582 89.7086 11.4062C89.6338 11.5338 89.8142 11.6878 89.911 11.569C95.5694 4.68302 105.755 3.42022 113.486 7.34502C113.561 7.38462 113.623 7.27462 113.552 7.23062C111.805 6.15262 109.808 5.35622 107.709 4.88102C110.019 5.04822 112.311 5.47502 114.599 6.24502C114.78 6.30222 114.894 6.02502 114.727 5.93702Z" fill="#5CB7BA"/>
<path d="M99.2215 3.34934C102.416 2.39454 105.703 2.54854 108.915 3.30534C109.179 3.36694 109.293 2.96654 109.029 2.88734C105.795 1.94574 102.337 2.00294 99.1775 3.18654C99.0807 3.22614 99.1203 3.38014 99.2215 3.34934Z" fill="#5CB7BA"/>
<path d="M121.041 29.6215C120.465 29.3795 119.84 29.3531 119.237 29.5027C118.696 31.9931 117.807 34.5671 116.637 36.9651C116.835 37.2423 117.081 37.4623 117.389 37.5899C119.004 38.2675 121.56 36.2127 122.414 34.3075C123.272 32.3979 122.656 30.2991 121.041 29.6215Z" fill="#FFCCB8"/>
<path d="M86.9587 29.6224C85.3439 30.3 84.7279 32.3988 85.5859 34.304C86.4395 36.2092 88.9959 38.2684 90.6107 37.5864C90.9143 37.4588 91.1651 37.2432 91.3631 36.9616C90.1927 34.5636 89.3039 31.994 88.7627 29.4992C88.1599 29.354 87.5351 29.3804 86.9587 29.6224Z" fill="#FFCCB8"/>
<path d="M163.343 143.737C159.246 142.919 153.914 143.539 147.49 145.585C143.794 146.76 140.793 148.093 139.614 148.639L141.594 143.966C141.69 143.733 141.585 143.465 141.352 143.368C141.118 143.271 140.85 143.377 140.753 143.61L138.25 149.528C138.197 149.655 138.201 149.801 138.267 149.924C138.333 150.047 138.452 150.131 138.593 150.157L144.924 151.257C144.951 151.261 144.977 151.266 145.004 151.266C145.224 151.266 145.417 151.107 145.452 150.887C145.496 150.637 145.329 150.403 145.078 150.359L139.996 149.475C142.623 148.261 154.758 142.959 163.162 144.635C163.409 144.688 163.651 144.525 163.699 144.274C163.748 144.028 163.589 143.786 163.343 143.737Z" fill="white"/>
<path d="M160.83 159.423C154.956 157.901 146.403 158.864 143.481 159.265L146.504 156.405C146.689 156.233 146.693 155.943 146.522 155.758C146.346 155.573 146.06 155.569 145.875 155.74L141.915 159.489C141.814 159.586 141.761 159.722 141.774 159.863C141.787 160.004 141.862 160.127 141.976 160.206L146.526 163.216C146.605 163.269 146.693 163.291 146.777 163.291C146.926 163.291 147.072 163.22 147.16 163.084C147.3 162.873 147.243 162.591 147.032 162.45L143.596 160.175C146.451 159.788 154.952 158.847 160.602 160.307C160.641 160.316 160.681 160.321 160.716 160.321C160.918 160.321 161.103 160.184 161.16 159.977C161.222 159.735 161.072 159.485 160.83 159.423Z" fill="white"/>
<path d="M145.171 170.088L148.233 168.812C148.466 168.715 148.576 168.446 148.48 168.213C148.383 167.98 148.114 167.87 147.881 167.967L143.525 169.78C143.398 169.832 143.301 169.942 143.261 170.079C143.222 170.211 143.248 170.356 143.332 170.47L146.082 174.303C146.17 174.426 146.31 174.492 146.456 174.492C146.548 174.492 146.64 174.466 146.724 174.408C146.931 174.259 146.975 173.977 146.83 173.77L144.806 170.954C146.394 171.284 149.844 172.239 152.272 174.668C152.36 174.756 152.479 174.8 152.598 174.8C152.717 174.8 152.831 174.756 152.924 174.668C153.104 174.488 153.104 174.202 152.924 174.021C150.385 171.482 146.931 170.462 145.171 170.088Z" fill="white"/>
<path d="M143.987 73.6359C144.066 73.7943 144.229 73.8867 144.396 73.8867C144.466 73.8867 144.537 73.8691 144.603 73.8383C144.827 73.7239 144.92 73.4467 144.805 73.2223L143.173 70.0147C145.016 70.6087 150.42 72.5887 153.368 76.2099C153.46 76.3199 153.588 76.3771 153.724 76.3771C153.825 76.3771 153.926 76.3419 154.014 76.2759C154.212 76.1175 154.239 75.8271 154.08 75.6335C151.251 72.1619 146.46 70.1731 144.123 69.3679L146.882 68.6859C147.128 68.6243 147.278 68.3779 147.216 68.1315C147.155 67.8851 146.904 67.7355 146.662 67.7971L142.205 68.8971C142.068 68.9323 141.954 69.0247 141.897 69.1523C141.84 69.2799 141.84 69.4251 141.906 69.5483L143.987 73.6359Z" fill="white"/>
<path d="M136.701 79.9375C136.749 79.9507 136.793 79.9595 136.842 79.9595C137.035 79.9595 137.216 79.8363 137.277 79.6427L138.25 76.6111C138.72 77.8431 140.335 82.4631 139.754 86.5903C139.719 86.8411 139.895 87.0699 140.146 87.1051C140.168 87.1095 140.19 87.1095 140.212 87.1095C140.436 87.1095 140.634 86.9423 140.665 86.7135C141.272 82.3839 139.653 77.7023 139.125 76.3295L141.805 77.9311C142.025 78.0631 142.302 77.9883 142.434 77.7727C142.562 77.5571 142.491 77.2755 142.276 77.1435L138.443 74.8511C138.324 74.7807 138.179 74.7675 138.047 74.8159C137.915 74.8643 137.814 74.9699 137.774 75.1063L136.41 79.3611C136.327 79.6031 136.459 79.8627 136.701 79.9375Z" fill="white"/>
<path d="M138.98 122.709C139.165 122.709 139.336 122.599 139.407 122.415C139.495 122.177 139.38 121.913 139.143 121.825L136.252 120.725C138.83 119.581 146.341 115.537 148.224 106.698C148.277 106.451 148.119 106.209 147.872 106.157C147.626 106.104 147.384 106.262 147.331 106.509C145.483 115.19 137.911 119.027 135.697 119.973L137.642 117.082C137.783 116.871 137.726 116.589 137.519 116.448C137.308 116.307 137.026 116.365 136.885 116.571L134.329 120.369C134.25 120.483 134.232 120.628 134.272 120.765C134.316 120.897 134.417 121.002 134.545 121.055L138.821 122.683C138.87 122.696 138.927 122.709 138.98 122.709Z" fill="white"/>
<path d="M140.7 134.189C140.846 134.189 140.991 134.118 141.079 133.986C141.22 133.779 141.167 133.493 140.96 133.348L136.688 130.44C136.859 130.444 137.053 130.444 137.268 130.444C140.925 130.444 150.358 129.903 158.415 124.821C158.63 124.684 158.692 124.403 158.56 124.192C158.424 123.976 158.142 123.914 157.926 124.051C149.588 129.309 139.719 129.582 136.705 129.529L140.428 126.093C140.612 125.921 140.626 125.631 140.454 125.446C140.282 125.261 139.992 125.248 139.807 125.419L135.082 129.775C134.98 129.872 134.923 130.009 134.936 130.145C134.945 130.286 135.02 130.413 135.134 130.488L140.45 134.105C140.524 134.162 140.612 134.189 140.7 134.189Z" fill="white"/>
<path d="M44.6615 143.737C48.7579 142.919 54.0907 143.539 60.5147 145.585C64.2107 146.76 67.2115 148.093 68.3907 148.639L66.4107 143.966C66.3139 143.733 66.4195 143.465 66.6527 143.368C66.8859 143.271 67.1543 143.377 67.2511 143.61L69.7547 149.528C69.8075 149.655 69.8031 149.801 69.7371 149.924C69.6711 150.047 69.5523 150.131 69.4159 150.157L63.0843 151.257C63.0579 151.261 63.0315 151.266 63.0051 151.266C62.7851 151.266 62.5915 151.107 62.5563 150.887C62.5123 150.637 62.6795 150.403 62.9303 150.359L68.0123 149.475C65.3855 148.261 53.2503 142.959 44.8463 144.635C44.5999 144.688 44.3579 144.525 44.3095 144.274C44.2523 144.028 44.4107 143.786 44.6615 143.737Z" fill="white"/>
<path d="M47.1693 159.423C53.0433 157.901 61.5969 158.864 64.5185 159.265L61.4957 156.405C61.3109 156.233 61.3021 155.943 61.4781 155.758C61.6497 155.573 61.9401 155.569 62.1249 155.74L66.0849 159.489C66.1861 159.586 66.2389 159.722 66.2257 159.863C66.2125 160.004 66.1377 160.127 66.0233 160.206L61.4737 163.216C61.3945 163.269 61.3065 163.291 61.2229 163.291C61.0733 163.291 60.9281 163.22 60.8401 163.084C60.6993 162.873 60.7609 162.591 60.9677 162.45L64.4041 160.175C61.5485 159.788 53.0477 158.847 47.3937 160.307C47.3541 160.316 47.3145 160.321 47.2793 160.321C47.0769 160.321 46.8921 160.184 46.8349 159.977C46.7777 159.735 46.9273 159.485 47.1693 159.423Z" fill="white"/>
<path d="M62.829 170.088L59.7666 168.812C59.5334 168.715 59.4234 168.446 59.5202 168.213C59.617 167.98 59.8854 167.87 60.1186 167.967L64.4746 169.78C64.6022 169.832 64.699 169.942 64.7386 170.079C64.7782 170.211 64.7518 170.356 64.6682 170.47L61.9182 174.303C61.8302 174.426 61.6894 174.492 61.5442 174.492C61.4518 174.492 61.3594 174.466 61.2758 174.408C61.069 174.259 61.025 173.977 61.1702 173.77L63.1942 170.954C61.6058 171.284 58.1562 172.239 55.7274 174.668C55.6394 174.756 55.5206 174.8 55.4018 174.8C55.283 174.8 55.1686 174.756 55.0762 174.668C54.8958 174.488 54.8958 174.202 55.0762 174.021C57.6194 171.482 61.069 170.462 62.829 170.088Z" fill="white"/>
<path d="M64.013 73.6359C63.9338 73.7943 63.771 73.8867 63.6038 73.8867C63.5334 73.8867 63.463 73.8691 63.397 73.8383C63.1726 73.7239 63.0802 73.4467 63.1946 73.2223L64.827 70.0147C62.9834 70.6087 57.5802 72.5887 54.6322 76.2099C54.5398 76.3199 54.4122 76.3771 54.2758 76.3771C54.1746 76.3771 54.0734 76.3419 53.9854 76.2759C53.7918 76.1175 53.761 75.8271 53.9194 75.6335C56.7486 72.1619 61.5402 70.1731 63.8766 69.3679L61.1178 68.6859C60.8714 68.6243 60.7218 68.3779 60.7834 68.1315C60.845 67.8851 61.0958 67.7355 61.3378 67.7971L65.795 68.8971C65.9314 68.9323 66.0414 69.0247 66.103 69.1523C66.1602 69.2799 66.1602 69.4251 66.0942 69.5483L64.013 73.6359Z" fill="white"/>
<path d="M71.2992 79.9375C71.2508 79.9507 71.2068 79.9595 71.1584 79.9595C70.9648 79.9595 70.7844 79.8363 70.7228 79.6427L69.7504 76.6111C69.2796 77.8431 67.6648 82.4631 68.2456 86.5903C68.2808 86.8411 68.1048 87.0699 67.854 87.1051C67.832 87.1095 67.81 87.1095 67.788 87.1095C67.5636 87.1095 67.3656 86.9423 67.3348 86.7135C66.7276 82.3839 68.3468 77.7023 68.8748 76.3295L66.1952 77.9311C65.9752 78.0631 65.698 77.9883 65.566 77.7727C65.4384 77.5571 65.5088 77.2755 65.7244 77.1435L69.5568 74.8511C69.6756 74.7807 69.8208 74.7675 69.9528 74.8159C70.0848 74.8643 70.186 74.9699 70.2256 75.1063L71.5896 79.3611C71.6732 79.6031 71.5412 79.8627 71.2992 79.9375Z" fill="white"/>
<path d="M69.0202 122.709C68.8354 122.709 68.6638 122.599 68.5934 122.415C68.5054 122.177 68.6198 121.913 68.8574 121.825L71.7482 120.725C69.1698 119.581 61.659 115.537 59.7758 106.698C59.723 106.451 59.8814 106.209 60.1278 106.157C60.3742 106.104 60.6162 106.262 60.669 106.509C62.517 115.19 70.0894 119.027 72.3026 119.973L70.3578 117.082C70.217 116.871 70.2742 116.589 70.481 116.448C70.6922 116.307 70.9738 116.365 71.1146 116.571L73.671 120.369C73.7502 120.483 73.7678 120.628 73.7282 120.765C73.6842 120.897 73.5874 121.002 73.4554 121.055L69.1786 122.683C69.1302 122.696 69.0774 122.709 69.0202 122.709Z" fill="white"/>
<path d="M67.2997 134.189C67.1545 134.189 67.0093 134.118 66.9213 133.986C66.7805 133.779 66.8333 133.493 67.0401 133.348L71.3125 130.44C71.1409 130.444 70.9473 130.444 70.7317 130.444C67.0753 130.444 57.6417 129.903 49.5853 124.821C49.3697 124.684 49.3081 124.403 49.4445 124.192C49.5809 123.976 49.8625 123.914 50.0737 124.051C58.4117 129.309 68.2809 129.582 71.2949 129.529L67.5681 126.093C67.3833 125.921 67.3701 125.631 67.5417 125.446C67.7133 125.261 68.0037 125.248 68.1885 125.419L72.9141 129.775C73.0153 129.872 73.0725 130.009 73.0592 130.145C73.0504 130.286 72.9757 130.413 72.8613 130.488L67.5461 134.105C67.4801 134.162 67.3877 134.189 67.2997 134.189Z" fill="white"/>
<path d="M50.6633 60.4057C50.6369 60.2561 49.9549 60.2385 49.9461 60.1901C49.8933 59.8909 47.6889 63.3273 46.1401 66.3589C44.5913 69.3905 22.3625 120.769 21.2537 123.286C20.5497 124.883 20.1361 125.508 19.7533 125.636C18.6841 124.875 17.7249 122.771 13.9365 121.755C13.5801 121.636 13.2061 121.522 12.7925 121.429C8.26934 120.382 2.91454 123.462 1.13254 129.415C-0.473457 134.779 -0.856256 142.008 6.40814 144.182C6.52254 144.217 6.63254 144.239 6.74694 144.27C6.87454 144.314 6.99334 144.358 7.12534 144.397C14.9749 146.747 18.8601 138.783 19.3133 137.494C19.7709 136.205 34.6297 97.5813 36.1037 94.0393C36.6361 92.7633 37.5601 90.8405 40.6225 90.8537C40.6181 90.8625 50.7161 60.7093 50.6633 60.4057ZM4.70094 131.523C6.02974 127.088 9.51454 124.193 12.6253 124.835C15.5777 126.01 16.8977 130.344 15.5689 134.779C14.2401 139.214 10.7553 142.109 7.64454 141.467C4.69214 140.288 3.37654 135.954 4.70094 131.523Z" fill="#4E9B9B"/>
<path d="M1.12815 129.42C-0.477851 134.783 -0.860651 142.013 6.40375 144.186C14.2577 146.536 18.1385 138.572 18.5917 137.287C19.0493 135.998 33.9082 97.3745 35.3822 93.8325C35.9146 92.5565 36.8386 90.6337 39.901 90.6469C39.901 90.6469 49.999 60.4937 49.9462 60.1901C49.8934 59.8909 47.689 63.3273 46.1402 66.3589C44.5914 69.3905 22.3625 120.769 21.2537 123.286C20.1449 125.807 19.7533 125.913 19.0758 125.451C17.9494 124.685 16.9945 122.402 12.7925 121.434C8.26495 120.382 2.91455 123.462 1.12815 129.42ZM3.98815 131.307C5.36975 126.701 9.07895 123.739 12.2778 124.699C15.4766 125.658 16.9505 130.168 15.5689 134.775C14.1873 139.381 10.4781 142.343 7.27935 141.383C4.08055 140.424 2.60655 135.914 3.98815 131.307Z" fill="#5CB7BA"/>
<path d="M42.8182 130.422C42.365 130.255 41.9426 130.128 41.5378 130.026C37.9254 128.794 35.9542 129.872 34.6342 130.022C34.445 129.661 34.4626 128.904 34.7266 127.325C35.1842 124.61 44.8466 69.4691 45.2206 66.0855C45.5902 62.7019 45.6386 58.6187 45.4274 58.8387C45.3878 58.8827 44.5914 58.4119 44.4594 58.5483C44.2482 58.7727 36.117 89.5155 36.117 89.5155C38.6822 91.1831 38.4006 93.2995 38.141 94.6591C37.4282 98.4255 28.615 138.857 28.2894 140.186C27.9638 141.515 26.8286 150.302 34.6826 152.651C34.8586 152.704 35.0302 152.748 35.2018 152.792C35.347 152.845 35.4922 152.898 35.6462 152.942C42.9106 155.115 46.5626 148.867 48.1686 143.499C49.9506 137.546 47.1742 132.033 42.8182 130.422ZM33.1646 140.041C34.4758 135.667 37.8814 132.785 40.957 133.322C43.8214 134.567 45.0842 138.844 43.7774 143.218C42.4662 147.591 39.0606 150.469 35.985 149.936C33.1162 148.691 31.8534 144.414 33.1646 140.041Z" fill="#4E9B9B"/>
<path d="M41.8502 130.131C37.8066 128.635 35.7518 130.017 34.3922 130.039C33.5694 130.052 33.3054 129.748 33.7586 127.034C34.2162 124.319 43.8786 69.178 44.2526 65.7944C44.6222 62.4108 44.6706 58.3276 44.4594 58.5476C44.2482 58.772 36.117 89.5148 36.117 89.5148C38.6822 91.1824 38.4006 93.2988 38.141 94.6584C37.4282 98.4248 28.615 138.856 28.2894 140.185C27.9638 141.514 26.8286 150.301 34.6826 152.65C41.947 154.824 45.599 148.576 47.205 143.208C48.987 137.255 46.2062 131.742 41.8502 130.131ZM35.4878 149.83C32.289 148.875 30.815 144.361 32.1966 139.754C33.5782 135.147 37.2874 132.186 40.4862 133.145C43.685 134.104 45.159 138.614 43.7774 143.221C42.3958 147.828 38.6866 150.785 35.4878 149.83Z" fill="#80CFD4"/>
<path d="M40.0286 82.186C39.4258 82.0056 38.7746 82.3576 38.5986 82.956C38.4182 83.5588 38.7702 84.21 39.3686 84.3904C39.9714 84.5708 40.6226 84.2188 40.7986 83.616C40.979 83.0176 40.6314 82.3664 40.0286 82.186Z" fill="#4E9B9B"/>
<path d="M36.9527 108.674C37.0099 108.344 37.0671 108.005 37.1287 107.666C36.4599 108.027 35.7955 108.405 35.1399 108.788C35.0695 109.122 34.9947 109.457 34.9199 109.796C35.5931 109.417 36.2707 109.039 36.9527 108.674Z" fill="#A5E2E5"/>
<path d="M36.579 110.834C35.8706 111.177 35.171 111.525 34.4714 111.886C34.4054 112.185 34.3438 112.484 34.2778 112.783C34.9862 112.436 35.7034 112.097 36.4206 111.762C36.469 111.459 36.5218 111.146 36.579 110.834Z" fill="#A5E2E5"/>
<path d="M35.1662 129.924C34.8846 129.986 34.625 130.034 34.3918 130.034C33.7142 130.043 33.415 129.836 33.5866 128.252C33.5734 128.256 33.5602 128.265 33.5514 128.27C32.5746 128.736 31.5934 129.194 30.6078 129.651C30.3614 130.786 30.1238 131.86 29.9082 132.859C31.2106 132.133 32.5086 131.398 33.8066 130.681C34.2598 130.43 34.713 130.175 35.1662 129.924Z" fill="#A5E2E5"/>
<path d="M40.5344 129.727C36.8824 131.227 33.2392 132.749 29.596 134.267C29.508 134.677 29.42 135.068 29.3364 135.442C33.4592 133.695 37.5512 131.865 41.652 130.065C41.2648 129.929 40.8908 129.815 40.5344 129.727Z" fill="#A5E2E5"/>
<path d="M42.4658 76.7207C41.3482 77.1915 40.235 77.6799 39.1262 78.1727C38.9194 78.9515 38.7126 79.7215 38.5146 80.4607C39.7202 79.8579 40.9258 79.2551 42.1314 78.6611C42.2502 77.9967 42.3602 77.3499 42.4658 76.7207Z" fill="#A5E2E5"/>
<path d="M43.2494 72.0781C42.3254 72.4213 41.4058 72.7557 40.4818 73.0945C40.3806 73.4685 40.2838 73.8425 40.1826 74.2165C41.1506 73.8425 42.1186 73.4641 43.0822 73.0813C43.1394 72.7337 43.1966 72.3993 43.2494 72.0781Z" fill="#A5E2E5"/>
<path d="M177.665 108.52C173.771 99.8389 173.863 93.1641 173.863 93.1641L166.454 94.9989C166.454 94.9989 169.648 100.86 170.255 110.355L177.665 108.52Z" fill="#3B727F"/>
<path d="M177.168 108.643C173.274 99.9619 173.366 93.2871 173.366 93.2871L165.957 95.1219C165.957 95.1219 169.151 100.983 169.758 110.478L177.168 108.643Z" fill="#4E9B9B"/>
<path d="M171.641 95.2581L167.461 96.2921C167.461 96.2921 155.418 72.1581 160.329 59.2617C173.951 65.6725 174.338 94.5893 174.338 94.5893L171.641 95.2581Z" fill="#4E9B9B"/>
<path d="M169.38 95.8213L165.2 96.8553C165.2 96.8553 155.419 72.1625 160.333 59.2617C170.695 68.3785 173.564 94.7829 173.564 94.7829L169.38 95.8213Z" fill="#80CFD4"/>
<path d="M165.864 66.8075C165.6 66.2927 165.327 65.7911 165.046 65.3027C163.127 68.5103 161.253 71.7531 159.449 75.0311C159.603 76.1795 159.788 77.3235 159.99 78.4499C160.72 76.9451 161.455 75.4447 162.199 73.9531C163.396 71.5595 164.623 69.1791 165.864 66.8075Z" fill="#A5E2E5"/>
<path d="M168.011 71.6074C165.6 75.541 163.347 79.567 161.085 83.593C161.169 83.9274 161.248 84.2618 161.332 84.5918C163.637 80.4734 165.855 76.3066 168.253 72.241C168.174 72.0254 168.095 71.8142 168.011 71.6074Z" fill="#A5E2E5"/>
<path d="M162.366 88.385C162.542 88.9834 162.713 89.5554 162.881 90.1098C165.419 86.1894 167.804 82.159 170.193 78.133C170.066 77.693 169.938 77.2486 169.802 76.8086C167.32 80.663 164.865 84.535 162.366 88.385Z" fill="#A5E2E5"/>
<path d="M192.691 186.165C191.195 186.535 187.085 186.539 186.615 184.63C186.144 182.72 187.169 179.262 186.245 175.438C185.321 171.615 168.72 112.927 168.39 110.987C168.06 109.042 171.694 107.639 173.159 107.273C174.625 106.908 178.497 106.459 179.113 108.334C179.729 110.208 192.423 169.859 193.391 173.674C194.359 177.484 196.88 180.067 197.351 181.977C197.826 183.882 194.187 185.796 192.691 186.165Z" fill="#424953"/>
<path d="M173.727 111.986C172.847 112.201 172.297 113.117 172.517 113.997C172.732 114.872 173.648 115.427 174.528 115.207C175.408 114.991 175.958 114.076 175.738 113.196C175.518 112.32 174.602 111.766 173.727 111.986Z" fill="#1E2226"/>
<path d="M180.314 113.623C177.74 118.212 175.285 122.876 172.922 127.584C173.309 128.961 173.705 130.391 174.119 131.852C176.499 126.757 178.69 121.561 180.93 116.391C180.705 115.392 180.503 114.463 180.314 113.623Z" fill="#1E2226"/>
<path d="M176.372 139.895C176.543 140.511 176.719 141.127 176.891 141.743C179.073 137.15 181.11 132.49 183.464 128.002C183.394 127.677 183.324 127.351 183.253 127.025C180.767 131.201 178.589 135.566 176.372 139.895Z" fill="#1E2226"/>
<path d="M178.013 145.738C178.312 146.799 178.607 147.859 178.906 148.911C180.947 144.621 183.051 140.37 185.238 136.16C185.097 135.504 184.952 134.848 184.811 134.197C182.452 137.986 180.133 141.809 178.013 145.738Z" fill="#1E2226"/>
<path d="M193.391 173.67C192.423 169.86 179.729 110.204 179.113 108.33C178.497 106.456 174.629 106.909 173.16 107.27C172.966 107.318 172.728 107.384 172.473 107.468C174.211 107.168 177.19 107.045 177.722 108.669C178.338 110.543 191.037 170.194 192 174.009C192.968 177.819 195.49 180.406 195.96 182.312C196.37 183.97 193.677 185.634 191.983 186.28C192.251 186.25 192.493 186.206 192.691 186.157C194.187 185.788 197.822 183.874 197.351 181.964C196.88 180.063 194.359 177.48 193.391 173.67Z" fill="#1E2226"/>
</svg>
