<svg width="124" height="179" viewBox="0 0 124 179" fill="none" xmlns="http://www.w3.org/2000/svg">
<g clip-path="url(#clip0_908_158413)">
<path d="M37.6319 8.66076C34.5296 8.51416 31.4109 9.93124 29.4679 12.3419C27.5249 14.7525 26.8391 18.1242 27.6718 21.1049C28.129 22.7501 29.3699 24.4766 31.068 24.3952C32.1783 24.3463 33.0927 23.5482 33.9091 22.7826C36.5869 20.2742 39.3626 17.6681 40.7668 14.2802C41.371 12.8305 41.6486 11.0063 40.6199 9.81722C39.9015 8.98652 38.7258 8.70962 37.6319 8.66076Z" fill="#B7E1FB"/>
<path d="M59.185 173.008C64.9325 171.558 70.2227 170.109 75.4477 167.258C80.3951 164.571 85.3261 161.557 90.6001 159.521C94.5351 158.007 102.797 151.671 104.593 147.81C112.398 130.936 111.043 124.746 110.732 109.842C103.369 88.9447 94.5351 68.6496 80.9829 51.2537C69.7002 36.7572 51.5762 24.4271 35.3789 15.7129C27.9006 23.7918 23.786 38.0929 20.8143 48.6639C18.561 56.6614 23.1492 64.2355 22.3818 72.803C20.6674 91.7788 -1.79993 108.621 0.273719 117.71C1.57996 121.603 5.95585 123.427 9.61332 123.606C13.2708 123.785 16.5854 123.785 19.0019 126.538C20.8306 128.606 20.3081 129.388 20.3081 133.542C24.733 135.61 27.5904 140.285 21.0919 146.263C24.5534 147.598 25.2555 152.925 23.9493 156.378C22.6594 159.847 20.4224 163.61 20.8306 167.275C21.4348 172.747 28.0966 176.217 33.5828 176.868C36.93 177.276 41.11 177.194 45.2899 177.292C50.025 176.249 54.4663 174.181 59.185 173.008Z" fill="#FFCCB8"/>
<path d="M118.831 140.057C118.913 140.106 119.958 140.415 120.023 140.448C121.672 139.585 122.456 139.063 123.746 138.021C123.844 136.881 123.06 135.578 122.277 134.47C121.215 132.988 120.97 131.88 120.97 129.274C119.762 125.919 118.619 125.17 118.374 123.052C118.129 120.935 118.488 119.86 117.59 117.921C116.219 115.022 112.659 112.856 113.117 109.68C113.296 108.393 114.194 107.204 114.064 105.901C113.884 103.865 111.467 102.838 110.52 101.031C109.1 98.3429 111.304 94.8573 110.112 92.0557C109.688 91.0295 108.855 90.2314 108.316 89.2704C106.21 85.3938 109.345 79.9373 106.683 76.419C105.736 75.1648 104.152 74.3341 103.777 72.803C103.516 71.7117 103.957 70.5878 104.087 69.464C104.544 65.115 99.9562 61.5642 99.9562 57.1989C99.9562 55.9122 100.364 54.5928 99.9725 53.3712C99.4337 51.7261 97.605 50.7651 97.0172 49.12C96.3967 47.3446 97.4254 45.276 96.6906 43.5331C95.9068 41.6763 93.5393 41.0899 92.2331 39.5425C90.6492 37.6694 90.9431 34.7375 89.441 32.7992C87.8082 30.6655 84.4283 30.1931 83.3017 27.7499C82.7792 26.626 82.8771 25.3066 82.4363 24.1339C80.9668 20.2573 74.8111 20.355 72.7701 16.739C71.9864 15.3383 71.9047 13.514 70.6965 12.4552C68.9167 10.9079 65.9777 12.048 63.9204 10.8916C61.7977 9.70254 61.4385 6.52634 59.3159 5.32102C57.0136 4.01796 53.8623 5.69564 51.5438 4.39259C50.3192 3.70848 50.711 2.61717 49.862 1.50958C49.0129 0.401977 48.3925 0.28796 47.0862 0.825471C44.8819 1.72132 43.4614 3.80621 42.2368 5.84224C50.0089 7.40591 56.7034 13.5791 62.2712 19.2149C64.6714 21.6418 67.088 24.0687 69.4882 26.512C75.5132 32.6038 81.6362 38.8096 85.6202 46.3999C88.9511 52.7523 90.6492 59.8213 92.3637 66.7927C98.2091 90.5572 104.708 114.371 115.762 136.213C116.529 137.679 117.378 139.243 118.831 140.057Z" fill="#DBF2FF"/>
<path d="M25.7782 65.2771C24.276 61.9218 30.301 58.3221 33.2401 57.8823C36.5383 57.3774 40.0488 58.599 42.8083 60.3744C45.5677 62.1498 47.772 64.4627 50.1232 66.6291C52.4744 68.7954 58.3198 71.939 58.3198 71.939C58.3198 71.939 54.9726 73.1281 43.4614 66.8408C31.7706 60.7979 26.8068 67.6226 25.7782 65.2771Z" fill="#B64A02"/>
<path d="M49.6332 80.1978C49.5189 79.986 49.4046 79.6603 49.225 79.3019C49.3883 79.4322 49.5026 79.4974 49.5026 79.4974C49.5026 79.4974 49.372 79.3345 49.1107 79.0739C49.0781 78.9924 49.0291 78.9273 48.9964 78.8458C48.4086 77.7057 47.4126 76.1094 45.8941 74.3992C44.3756 72.6889 42.2693 70.9135 39.6078 69.5453C37.2076 68.2911 34.3012 67.4441 31.1989 67.3301C30.9214 67.9979 30.6764 68.682 30.4805 69.3824C33.5502 69.3498 36.4729 70.0339 38.971 71.1252C41.5182 72.2328 43.6408 73.6988 45.2573 75.1484C46.2696 76.0606 47.086 76.9564 47.7555 77.7382C46.9881 77.0379 45.9594 76.2072 44.6532 75.3439C42.9877 74.2526 40.8324 73.145 38.2853 72.3468C35.8687 71.5813 33.0767 71.1252 30.1213 71.1741C30.056 71.8582 30.007 72.5423 29.958 73.2427C35.6565 73.031 40.7671 74.562 44.1633 76.2234C45.8941 77.0541 47.233 77.8848 48.131 78.5038C48.327 78.6341 48.4902 78.7644 48.6535 78.8621C48.6862 78.911 48.7352 78.9761 48.7678 79.0087C49.1597 79.5137 49.3883 79.9371 49.5842 80.214C49.7638 80.4909 49.8618 80.6375 49.8618 80.6375C49.8618 80.6375 49.7638 80.5072 49.6332 80.1978Z" fill="#EDAD82"/>
<path d="M32.2113 76.9569C30.5785 77.5921 30.1866 79.7259 30.3662 81.5665C30.5458 83.407 32.3092 85.8177 33.991 86.29C35.0687 86.5995 36.2933 86.3552 37.3872 86.1109C41.11 85.2802 44.1307 82.4949 46.7268 79.5304C43.4939 78.7812 40.261 78.0319 37.028 77.2827C35.6565 76.9732 33.5338 76.452 32.2113 76.9569Z" fill="#DBF2FF"/>
<path d="M32.4722 86.4686C33.6642 87.055 33.9091 85.7031 35.15 86.0288C36.8808 84.1231 36.7828 80.2302 35.1337 78.1616C32.9784 77.5753 32.8641 76.7283 30.6598 77.3798C30.5129 78.0313 29.9414 79.8067 29.9414 80.5397C29.9414 82.1848 30.3659 83.667 31.0354 84.7258C31.0354 84.7421 32.4722 86.4686 32.4722 86.4686Z" fill="#753E25"/>
<path d="M26.4311 78.4883C25.7617 80.4592 26.1372 82.7395 27.4108 84.3846C28.4068 83.6679 28.9456 82.3486 28.7497 81.127C28.5538 79.9216 27.6231 78.8466 26.4311 78.4883Z" fill="#EDAD82"/>
<path d="M39.1671 91.5997C44.1798 90.1826 48.7026 86.1432 49.4047 80.9961C43.641 82.7226 37.7302 85.9477 32.1298 86.1757C30.7419 87.6417 31.5583 90.2804 33.289 91.3065C35.0198 92.349 37.2241 92.1535 39.1671 91.5997Z" fill="#EDAD82"/>
<path d="M48.2128 77.7557C48.8333 78.0978 49.2251 78.505 49.7476 78.8959L50.1232 79.2054L50.3191 79.352C50.3518 79.4008 50.515 79.4497 50.4171 79.5149L49.8293 80.2315L49.2578 80.9319L48.523 81.616L47.7883 82.2838C47.576 82.4956 47.2168 82.7562 47.1188 82.8214C45.9269 83.7172 44.6696 84.385 43.4614 84.9225C41.0285 86.0138 38.6936 86.5188 36.7506 86.7631C34.7912 86.9911 33.1911 86.9097 32.1298 86.7794C31.5909 86.7305 31.1827 86.6328 30.9052 86.5839C30.6276 86.5351 30.4806 86.5025 30.4806 86.5025C30.4806 86.5025 30.6276 86.4862 30.9052 86.4373C31.1827 86.3885 31.5909 86.3559 32.1134 86.2419C33.1584 86.0464 34.6279 85.7044 36.375 85.0691C38.1058 84.4339 40.1141 83.5706 42.1225 82.3327C43.1348 81.73 44.1471 81.0296 45.0778 80.2152C45.2411 80.0849 45.1758 80.1338 45.1921 80.1012V80.0849C45.1921 80.0686 45.1758 80.0687 45.1758 80.0687C45.1595 80.0687 45.1431 80.0687 45.1431 80.0687C45.1595 80.0687 45.1268 80.0524 45.0778 80.0361H45.0615L44.9472 80.0035L44.7349 79.9383C44.588 79.8895 44.4574 79.8406 44.2941 79.808C43.7063 79.6452 43.0695 79.5148 42.449 79.4008C41.1918 79.1891 39.9345 79.0588 38.6936 78.9285C36.2281 78.7004 33.8768 78.4235 31.9501 77.8535C30.0234 77.2997 28.5703 76.4527 27.7702 75.7034C27.3457 75.3451 27.0681 75.0193 26.9048 74.7913C26.7415 74.5632 26.6436 74.4492 26.6436 74.4492C26.6436 74.4492 26.7742 74.5307 27.0028 74.6773C27.2314 74.8238 27.5906 75.0356 28.0641 75.2473C29.0111 75.6871 30.448 76.0455 32.2604 76.1432C34.0728 76.2572 36.2444 76.0943 38.7916 75.9966C40.0651 75.964 41.4204 75.964 42.8736 76.1106C43.592 76.1921 44.3431 76.2898 45.1105 76.469C45.3064 76.5015 45.5024 76.5667 45.6983 76.6155L45.9922 76.697L46.1391 76.7459L46.3677 76.8436L47.2984 77.2182C47.6413 77.3974 47.9189 77.5928 48.2128 77.7557Z" fill="#B64A02"/>
<path d="M33.1418 81.1429C33.2888 82.2668 32.9295 83.2441 32.3417 83.3255C31.7539 83.407 31.1335 82.56 30.9865 81.4361C30.8396 80.3122 31.1988 79.3349 31.7866 79.2535C32.3907 79.172 32.9949 80.019 33.1418 81.1429Z" fill="black"/>
<path d="M35.5258 81.5178C35.5258 82.1204 35.0359 82.6254 34.4155 82.6254C33.8113 82.6254 33.3052 82.1367 33.3052 81.5178C33.3052 80.9151 33.795 80.4102 34.4155 80.4102C35.0359 80.4264 35.5258 80.9151 35.5258 81.5178Z" fill="white"/>
<path d="M32.848 87.5449C31.3131 89.7438 30.2028 92.2359 29.5171 94.6954C28.815 97.155 28.4884 99.6145 28.4068 101.895C28.2272 106.504 28.9782 110.446 29.7457 113.606C30.5294 116.766 31.3621 119.193 31.9499 120.871C32.5377 122.532 32.8643 123.46 32.8643 123.46C32.8643 123.46 32.6684 122.483 32.3092 120.708C31.9663 118.932 31.4274 116.375 30.9539 113.183C30.5131 109.99 30.1212 106.146 30.5294 101.927C30.9213 97.7413 32.1295 93.0992 34.7583 89.4181L32.848 87.5449Z" fill="#EDAD82"/>
<path opacity="0.3" d="M57.6829 125.415C54.8745 127.516 51.5926 129.21 48.0821 129.373C44.5716 129.52 40.8325 127.858 39.2976 124.698C38.0567 122.157 38.3996 119.16 39.069 116.424C41.5019 106.651 48.229 98.0182 57.1278 93.2458C60.0668 91.6658 63.7079 90.5094 66.6796 92.0567C70.2391 93.9136 70.9902 98.686 70.5657 102.66C69.6513 111.586 64.8672 120.024 57.6829 125.415Z" fill="#F8948D"/>
<path d="M91.3839 157.974C95.6455 155.4 99.0418 152.273 101.85 149.601C103.189 148.38 104.038 146.881 104.61 145.513C105.181 144.145 105.41 142.842 105.475 141.783C105.54 140.708 105.41 139.877 105.328 139.324C105.197 138.77 105.132 138.477 105.132 138.477C105.132 138.477 105.246 138.753 105.475 139.291C105.655 139.845 105.932 140.659 106.03 141.783C106.128 142.891 106.095 144.308 105.671 145.871C105.246 147.419 104.544 149.194 103.156 150.79C101.883 152.305 100.479 153.95 98.7968 155.579C97.1314 157.224 95.2373 158.918 93.0167 160.433C90.8125 161.964 88.3143 163.3 85.6855 164.456C83.073 165.629 80.3626 166.688 77.6358 167.828C72.2312 170.125 66.9736 172.503 62.0263 174.18C57.0789 175.907 52.4254 176.982 48.4577 177.422C44.49 177.878 41.2571 177.666 39.0691 177.324C37.9752 177.21 37.1424 176.982 36.5709 176.868C35.9995 176.754 35.7056 176.689 35.7056 176.689C35.7056 176.689 36.0158 176.705 36.5873 176.721C37.1588 176.738 38.0078 176.835 39.1018 176.786C41.2734 176.786 44.4084 176.575 48.1638 175.711C51.9192 174.864 56.2625 173.431 60.9649 171.444C65.6837 169.506 87.155 160.596 91.3839 157.974Z" fill="#EDAF84"/>
<path d="M21.4345 146.248C20.961 145.906 20.9773 145.01 21.0916 144.423C21.5325 142.257 23.0673 140.042 25.0757 138.967C27.084 137.908 29.4189 137.696 31.6722 138.104C33.9091 138.495 36.0317 139.374 38.138 140.254C38.4809 140.4 39.281 140.612 39.2157 140.97C39.1667 141.231 38.4973 141.41 38.2523 141.524C33.6968 143.511 28.9291 145.042 24.0633 146.085C23.4265 146.231 21.9733 146.639 21.4345 146.248Z" fill="#F8948D"/>
<path d="M26.0392 139.162C33.5011 140.205 34.1379 140.791 39.2159 140.987C33.6644 136.931 27.0516 134.944 20.3081 133.543C20.3081 134.227 20.8469 135.188 21.696 136.133C22.545 137.078 24.7656 138.983 26.0392 139.162Z" fill="#E8776F"/>
<path d="M40.1955 139.748C40.7507 141.361 40.7507 142.941 40.5547 144.016C40.3751 145.107 40.0812 145.726 40.0812 145.726C40.0812 145.726 39.9016 144.993 39.6894 144.048C39.4444 143.038 39.0362 141.719 38.5464 140.302C38.0566 138.885 37.5504 137.615 37.1259 136.654C36.7177 135.774 36.3911 135.09 36.3911 135.09C36.3911 135.09 37.0116 135.399 37.828 136.149C38.6607 136.898 39.6404 138.136 40.1955 139.748Z" fill="#EDAE83"/>
<path d="M85.5712 65.7667C81.0973 60.0007 78.1093 53.2574 74.3539 47.019C66.1083 33.288 53.9929 21.9026 39.7712 14.4915C38.8732 14.0354 37.8772 13.563 36.8812 13.7748C36.0648 13.9539 35.4117 14.5729 34.8402 15.1919C32.6359 17.5699 29.0438 22.2772 31.8522 23.0428C51.0375 28.255 51.7396 43.5496 60.9813 47.9637C70.2392 52.3615 79.6931 57.4109 85.5712 65.7667Z" fill="#B64A02"/>
<path d="M5.82527 121.277C5.71097 120.284 6.72331 119.551 7.63767 119.176C11.1155 117.743 15.2302 117.971 18.5284 119.779C19.6387 120.398 20.6837 121.18 21.9083 121.554C23.1329 121.929 24.6351 121.766 25.4025 120.756C25.6474 120.43 25.7944 120.056 26.072 119.763C26.3495 119.469 26.8394 119.307 27.1496 119.551C27.6558 119.942 27.2149 120.724 26.7741 121.18C25.1902 122.727 23.3778 124.177 21.2225 124.731C18.9366 125.317 16.5201 124.812 14.2015 124.307C12.2095 123.867 10.2012 123.444 8.20915 123.004C7.19682 122.776 5.95589 122.32 5.82527 121.277Z" fill="#EDAD82"/>
<path d="M15.018 120.593C16.7651 120.691 18.2673 121.326 19.2143 121.945C20.1776 122.564 20.6348 123.085 20.6348 123.085C20.6348 123.085 19.949 122.939 18.8877 122.776C17.8427 122.613 16.4385 122.466 14.92 122.385C13.4015 122.303 11.9973 122.287 10.9197 122.336C9.85835 122.385 9.15625 122.45 9.15625 122.45C9.15625 122.45 9.67875 121.978 10.6911 121.473C11.7034 120.968 13.2709 120.495 15.018 120.593Z" fill="#764D2B"/>
<path d="M41.355 178.628C41.306 178.628 41.2734 178.628 41.2244 178.628C40.6203 178.628 40.1794 178.139 40.1794 177.553C40.1794 176.918 40.8325 176.397 41.4693 176.478C42.0734 176.543 42.498 177.081 42.4163 177.683C42.3673 178.221 41.8938 178.628 41.355 178.628ZM35.9341 177.96C35.8525 177.96 35.7708 177.944 35.6892 177.928C33.6809 177.455 31.8848 176.755 30.3336 175.859C29.8111 175.55 29.6479 174.898 29.9418 174.377C30.2357 173.856 30.9051 173.693 31.4276 173.986C32.7828 174.768 34.383 175.387 36.179 175.81C36.7669 175.94 37.1261 176.527 36.9954 177.113C36.8811 177.634 36.4403 177.96 35.9341 177.96ZM26.9537 172.373C26.5945 172.373 26.2516 172.194 26.0394 171.885C25.7291 171.412 25.4516 170.907 25.223 170.386C24.6842 169.197 24.4229 167.894 24.4229 166.412V166.135C24.4392 165.532 24.9454 165.06 25.5332 165.076C26.1373 165.093 26.6109 165.581 26.5945 166.184V166.412C26.5945 167.585 26.7905 168.594 27.1987 169.49C27.3783 169.914 27.6069 170.305 27.8518 170.696C28.1783 171.201 28.0314 171.868 27.5252 172.194C27.3619 172.308 27.1497 172.373 26.9537 172.373ZM26.2843 161.884C26.219 161.884 26.1537 161.884 26.0884 161.867C25.5006 161.77 25.1087 161.2 25.2067 160.613C25.3863 159.636 25.5495 158.48 25.5495 157.356C25.5495 156.737 25.5006 156.167 25.3863 155.629C25.272 155.043 25.6475 154.473 26.2353 154.359C26.8231 154.245 27.3946 154.619 27.5089 155.206C27.6395 155.89 27.7048 156.59 27.7048 157.356C27.7048 158.642 27.5089 159.913 27.3293 160.988C27.264 161.509 26.8068 161.884 26.2843 161.884ZM24.1453 151.655C23.8351 151.655 23.5085 151.508 23.2963 151.248C22.3003 150.01 20.994 149.016 19.4102 148.299C18.8714 148.055 18.6265 147.404 18.8714 146.866C19.1163 146.329 19.7694 146.084 20.3083 146.329C22.2023 147.192 23.7698 148.397 24.9781 149.896C25.3536 150.368 25.2883 151.052 24.8148 151.427C24.6352 151.573 24.3903 151.655 24.1453 151.655ZM20.4389 143.331C20.2593 143.331 20.0633 143.283 19.8837 143.185C19.3612 142.875 19.198 142.224 19.4919 141.703C20.0144 140.823 20.6511 140.058 21.3533 139.471C20.8961 139.08 20.8471 138.412 21.2226 137.956C21.5982 137.5 22.2839 137.435 22.7575 137.81C23.1167 138.103 23.4922 138.396 23.8841 138.706L25.3536 139.813L23.6555 140.546C22.8064 140.921 21.9737 141.735 21.3533 142.778C21.1736 143.136 20.7981 143.331 20.4389 143.331ZM18.3652 135.79C18.0387 135.79 17.7121 135.643 17.4999 135.367L16.8141 134.438L17.1896 133.819C18.1856 132.207 18.9041 130.773 19.2959 129.552C19.4755 128.982 20.096 128.672 20.6675 128.868C21.239 129.063 21.5492 129.666 21.3533 130.236C20.9451 131.474 20.2919 132.842 19.3776 134.373C19.5082 134.796 19.3776 135.285 19.002 135.562C18.8224 135.709 18.5938 135.79 18.3652 135.79ZM20.0797 125.757C19.7205 125.757 19.3776 125.577 19.1653 125.252C18.5285 124.274 17.3856 123.411 15.3446 122.352C14.8057 122.075 14.5935 121.424 14.871 120.886C15.1486 120.349 15.8017 120.137 16.3406 120.414C18.055 121.277 19.9327 122.401 21.0104 124.079C21.3369 124.584 21.19 125.252 20.6838 125.577C20.4879 125.708 20.2756 125.757 20.0797 125.757ZM10.9523 120.105C10.7891 120.105 10.6094 120.072 10.4462 119.974C8.51947 118.948 6.96831 117.954 5.71106 116.912C5.25388 116.537 5.18856 115.853 5.56411 115.381C5.93965 114.925 6.62542 114.86 7.09894 115.234C8.24189 116.179 9.66243 117.107 11.4748 118.052C11.9973 118.329 12.2096 118.981 11.932 119.518C11.7034 119.893 11.3279 120.105 10.9523 120.105ZM3.22921 112.856C2.7557 112.856 2.31484 112.547 2.18422 112.058C2.10258 111.798 2.05359 111.521 2.02094 111.244C2.00461 111.065 1.98828 110.885 1.98828 110.706C1.98828 109.403 2.62507 107.905 3.91498 106.146C4.2742 105.657 4.94364 105.559 5.43348 105.917C5.92332 106.276 6.02129 106.944 5.66207 107.432C4.66607 108.8 4.1599 109.892 4.1599 110.723C4.1599 110.804 4.1599 110.885 4.17623 110.951C4.20888 111.13 4.24154 111.309 4.29052 111.488C4.4538 112.058 4.11092 112.661 3.53944 112.824C3.42514 112.856 3.32717 112.856 3.22921 112.856ZM8.35619 103.8C8.09494 103.8 7.83369 103.702 7.62143 103.507C7.18057 103.1 7.14792 102.416 7.55612 101.976C7.68674 101.829 7.81737 101.683 7.94799 101.552C9.1236 100.249 10.1359 99.0601 11.083 97.9363C11.4585 97.4802 12.1443 97.415 12.6178 97.7897C13.075 98.1806 13.1403 98.8484 12.7647 99.3208C11.8014 100.461 10.7564 101.666 9.58079 102.986C9.45016 103.132 9.30321 103.279 9.15626 103.442C8.92767 103.686 8.63376 103.8 8.35619 103.8ZM15.2629 95.4442C15.0343 95.4442 14.8221 95.379 14.6261 95.2324C14.1363 94.8741 14.0383 94.2063 14.3975 93.7176C15.5242 92.1865 16.5038 90.7369 17.3692 89.3035C17.6795 88.7986 18.3489 88.6194 18.8551 88.9289C19.3612 89.2384 19.5408 89.9062 19.2306 90.4111C18.3162 91.9096 17.3202 93.4081 16.1446 95.0044C15.9324 95.2976 15.6058 95.4442 15.2629 95.4442ZM20.7981 86.1436C20.6511 86.1436 20.5042 86.111 20.3572 86.0459C19.8021 85.8015 19.5572 85.1663 19.8021 84.6125C20.5369 82.9511 21.1083 81.2897 21.4839 79.6772C21.6308 79.0908 22.2186 78.7325 22.7901 78.8791C23.3779 79.0257 23.7371 79.612 23.5902 80.1821C23.1657 81.9087 22.5615 83.7004 21.7778 85.4758C21.6145 85.8993 21.2226 86.1436 20.7981 86.1436ZM23.2636 75.6703C22.6432 75.654 22.1696 75.1653 22.1696 74.579C22.1696 72.6733 21.8268 71.4028 21.3859 69.7902L21.3206 69.5459C21.1573 68.9758 21.5002 68.3732 22.088 68.2103C22.6595 68.0474 23.2636 68.3895 23.4269 68.9758L23.4922 69.2201C23.9494 70.9141 24.3576 72.3801 24.3576 74.465V74.5953C24.3413 75.1979 23.8678 75.6703 23.2636 75.6703ZM21.2879 65.0504C20.7491 65.0504 20.2919 64.6595 20.2103 64.1057C19.9654 62.2977 19.8184 60.4571 19.7531 58.6002C19.7368 57.9976 20.2103 57.5089 20.7981 57.4764C21.4022 57.4112 21.8921 57.9324 21.9247 58.5188C21.9737 60.2942 22.1207 62.0696 22.3656 63.8125C22.4472 64.3988 22.0227 64.9526 21.4349 65.0341C21.3859 65.0504 21.3369 65.0504 21.2879 65.0504ZM20.9287 54.235C20.9124 54.235 20.8797 54.235 20.8634 54.235C20.2593 54.2024 19.8184 53.6812 19.8511 53.0785C19.9654 51.2705 20.1776 49.43 20.4552 47.6057C20.5532 47.0193 21.1083 46.6121 21.6961 46.6936C22.2839 46.7913 22.6921 47.3451 22.6105 47.9315C22.3329 49.7069 22.137 51.4823 22.0227 53.2251C21.9737 53.7952 21.5002 54.235 20.9287 54.235ZM22.5778 43.5337C22.4962 43.5337 22.4146 43.5174 22.3166 43.5011C21.7288 43.3545 21.3696 42.7681 21.5165 42.198C21.9411 40.4389 22.4472 38.6635 23.0187 36.9044C23.1983 36.3343 23.8188 36.0248 24.3903 36.204C24.9617 36.3831 25.272 37.0021 25.0924 37.5722C24.5372 39.2661 24.0474 40.9927 23.6392 42.703C23.5085 43.2079 23.0677 43.5337 22.5778 43.5337ZM25.9414 33.2395C25.8108 33.2395 25.6638 33.2069 25.5332 33.1581C24.9781 32.93 24.7168 32.2948 24.9454 31.741C25.6312 30.0633 26.3986 28.3856 27.215 26.7405C27.4762 26.203 28.1294 25.9913 28.6682 26.2519C29.207 26.5125 29.4193 27.164 29.158 27.7015C28.358 29.2978 27.6232 30.9266 26.9537 32.5717C26.7741 32.9952 26.3659 33.2395 25.9414 33.2395ZM30.7582 23.548C30.5786 23.548 30.3826 23.4992 30.203 23.4014C29.6805 23.092 29.5172 22.4404 29.8111 21.9192C30.7418 20.3392 31.7378 18.7919 32.7665 17.2771C33.1094 16.7884 33.7788 16.6581 34.285 17.0002C34.7748 17.3422 34.9055 18.01 34.5626 18.515C33.5502 19.9809 32.5869 21.4957 31.6889 23.0268C31.4929 23.3526 31.1337 23.548 30.7582 23.548Z" fill="#CF1111"/>
<path d="M101.05 140.351C101.866 141.735 102.667 143.12 103.483 144.488C104.463 146.166 105.508 147.876 107.042 149.033C109.263 147.616 111.941 145.791 114.227 144.423C114.831 135.986 109.23 134.113 106.504 128.265C97.164 108.165 96.119 85.2643 89.3919 64.1548C83.7587 46.5309 74.0762 30.1776 61.3078 16.7398C57.6666 12.8958 53.6663 9.23094 48.8332 7.04832C44.0001 4.88199 38.1547 4.39334 33.4686 6.86915C28.7825 9.34496 25.8598 16.1208 27.6722 21.105C27.166 17.9614 28.0804 14.9155 29.6805 12.9121C31.297 10.9086 34.7585 10.2082 36.3586 12.2117C38.7915 15.2739 34.8401 20.8933 37.9261 23.3039C40.4733 25.2911 44.6696 22.1963 47.2821 24.0695C50.0415 26.0404 48.0168 31.22 50.7272 33.2723C52.8662 34.9011 56.2134 33.1583 58.5483 34.4939C61.7323 36.3019 60.0832 41.5467 62.2875 44.4786C64.1815 46.987 68.3288 46.9707 70.0922 49.5768C72.1169 52.5576 69.733 56.9717 71.5291 60.1153C72.9496 62.6074 76.5744 63.4544 77.4725 66.1745C78.3378 68.8132 76.0846 71.7125 76.9173 74.3675C77.75 77.0062 81.1626 77.9997 82.3219 80.5081C84.0037 84.1567 80.0686 88.7174 81.9627 92.2682C83.1219 94.4345 86.1916 95.4118 86.6814 97.8225C87.2529 100.64 83.8567 102.986 84.0363 105.853C84.1996 108.328 86.91 109.892 87.6285 112.254C88.7714 115.935 84.8527 120.219 86.9264 123.476C88.3959 125.789 92.2003 126.05 93.1147 128.64C93.7678 130.48 92.5922 132.728 93.6208 134.389C94.5352 135.855 96.5925 135.986 98.0784 136.865C99.4173 137.631 100.266 139.015 101.05 140.351Z" fill="#0E82FD"/>
<path d="M113.704 144.781C102.552 128.33 98.1109 108.865 93.8166 90.0523C90.8776 77.2009 87.8406 63.8935 82.6973 51.8891C74.8762 33.6951 58.4339 13.9538 41.5508 5.1582L47.6248 6.5427C61.6668 11.5595 81.8156 28.7761 90.3387 48.6314C95.7923 61.3362 98.9109 75.002 101.932 88.2281C106.242 107.122 110.324 124.974 120.594 140.139L113.704 144.781Z" fill="#B7E1FB"/>
<path d="M114.586 137.647C116.382 136.62 118.276 136.588 118.276 136.588C118.276 136.588 117.28 138.2 115.484 139.227C113.688 140.253 111.794 140.285 111.794 140.285C111.794 140.285 112.79 138.673 114.586 137.647Z" fill="#DBF2FF"/>
<path d="M112.283 132.76C114.014 131.913 115.81 132.027 115.81 132.027C115.81 132.027 114.814 133.525 113.083 134.388C111.353 135.235 109.557 135.121 109.557 135.121C109.557 135.121 110.553 133.623 112.283 132.76Z" fill="#DBF2FF"/>
<path d="M109.23 127.564C110.634 126.847 112.202 127.076 112.202 127.076C112.202 127.076 111.467 128.46 110.063 129.177C108.659 129.893 107.091 129.665 107.091 129.665C107.091 129.665 107.81 128.281 109.23 127.564Z" fill="#DBF2FF"/>
<path d="M107.516 122.074C108.365 121.7 109.214 121.504 109.867 121.406C110.52 121.309 110.961 121.309 110.961 121.309C110.961 121.309 110.749 121.7 110.292 122.204C109.851 122.709 109.149 123.312 108.267 123.719C107.369 124.126 106.455 124.24 105.785 124.24C105.116 124.24 104.675 124.143 104.675 124.143C104.675 124.143 104.969 123.817 105.475 123.393C105.981 122.97 106.683 122.465 107.516 122.074Z" fill="#DBF2FF"/>
<path d="M105.377 115.724C107.124 115.023 108.887 115.284 108.887 115.284C108.887 115.284 107.81 116.685 106.063 117.401C104.316 118.102 102.552 117.841 102.552 117.841C102.552 117.841 103.63 116.424 105.377 115.724Z" fill="#DBF2FF"/>
<path d="M103.091 109.321C103.858 108.946 104.642 108.751 105.246 108.637C105.85 108.523 106.275 108.49 106.275 108.49C106.275 108.49 106.112 108.881 105.72 109.386C105.344 109.891 104.724 110.51 103.891 110.917C103.058 111.324 102.193 111.438 101.556 111.438C100.919 111.438 100.511 111.324 100.511 111.324C100.511 111.324 100.789 110.999 101.246 110.591C101.703 110.2 102.324 109.696 103.091 109.321Z" fill="#DBF2FF"/>
<path d="M101.262 102.838C102.993 102.219 104.691 102.561 104.691 102.561C104.691 102.561 103.597 103.913 101.882 104.532C100.152 105.151 98.4536 104.809 98.4536 104.809C98.4536 104.809 99.5313 103.457 101.262 102.838Z" fill="#DBF2FF"/>
<path d="M99.8415 96.5019C100.756 96.1761 101.654 96.0621 102.323 96.0133C103.009 95.9644 103.466 95.997 103.466 95.997C103.466 95.997 103.205 96.3716 102.683 96.844C102.176 97.3163 101.393 97.8701 100.429 98.1959C99.4659 98.5379 98.5189 98.5705 97.8168 98.5379C97.1147 98.4891 96.6738 98.3588 96.6738 98.3588C96.6738 98.3588 97.0167 98.0493 97.5719 97.6584C98.1597 97.2837 98.9271 96.8114 99.8415 96.5019Z" fill="#DBF2FF"/>
<path d="M98.454 89.646C100.332 89.1411 102.079 89.5972 102.079 89.5972C102.079 89.5972 100.805 90.8839 98.9275 91.3889C97.0498 91.8938 95.3027 91.4377 95.3027 91.4377C95.3027 91.4377 96.5763 90.1672 98.454 89.646Z" fill="#DBF2FF"/>
<path d="M96.3636 82.3159C97.1474 82.1041 97.9311 82.0878 98.5189 82.1204C99.1067 82.153 99.5149 82.2344 99.5149 82.2344C99.5149 82.2344 99.2864 82.5765 98.8292 82.9837C98.372 83.3909 97.6862 83.847 96.8372 84.075C95.9881 84.303 95.1554 84.2379 94.5512 84.1239C93.9471 83.9936 93.5879 83.8144 93.5879 83.8144C93.5879 83.8144 93.8981 83.5375 94.4043 83.228C94.8941 82.9022 95.5636 82.5276 96.3636 82.3159Z" fill="#DBF2FF"/>
<path d="M94.4697 75.4412C95.2861 75.1969 96.0862 75.1154 96.7067 75.0829C97.3271 75.0503 97.7517 75.0666 97.7517 75.0666C97.7517 75.0666 97.5394 75.4412 97.0822 75.8973C96.625 76.3533 95.9066 76.8909 94.9759 77.1678C94.0615 77.4446 93.1635 77.3795 92.5267 77.2492C91.8899 77.1189 91.498 76.9234 91.498 76.9234C91.498 76.9234 91.8409 76.6628 92.3798 76.3533C92.9349 76.0439 93.637 75.6855 94.4697 75.4412Z" fill="#DBF2FF"/>
<path d="M92.3469 67.2336C93.1143 66.8915 93.8817 66.7286 94.4859 66.6635C95.09 66.582 95.4982 66.582 95.4982 66.582C95.4982 66.582 95.3186 66.9567 94.9267 67.4453C94.5349 67.934 93.9144 68.504 93.098 68.8787C92.2816 69.2533 91.4325 69.3347 90.7958 69.3022C90.1753 69.2859 89.7671 69.1556 89.7671 69.1556C89.7671 69.1556 90.0447 68.8461 90.5018 68.4389C90.959 68.0643 91.5795 67.5756 92.3469 67.2336Z" fill="#DBF2FF"/>
<path d="M90.4043 59.3984C91.1227 59.0726 91.8575 58.8934 92.429 58.7794C93.0005 58.6654 93.4087 58.6328 93.4087 58.6328C93.4087 58.6328 93.278 59.0237 92.9188 59.5287C92.5759 60.0336 91.9718 60.6526 91.1391 61.0435C90.3063 61.4181 89.4573 61.4833 88.8368 61.4181C88.2164 61.3529 87.8408 61.2064 87.8408 61.2064C87.8408 61.2064 88.1347 60.9132 88.5919 60.5548C89.0654 60.1639 89.6696 59.7241 90.4043 59.3984Z" fill="#DBF2FF"/>
<path d="M87.1224 50.929C88.6572 50.2286 90.29 50.4729 90.29 50.4729C90.29 50.4729 89.4246 51.8574 87.8898 52.5741C86.355 53.2745 84.7222 53.0302 84.7222 53.0302C84.7222 53.0302 85.5876 51.6294 87.1224 50.929Z" fill="#DBF2FF"/>
<path d="M83.3995 43.223C84.6568 42.604 86.11 42.8321 86.11 42.8321C86.11 42.8321 85.5221 44.184 84.1996 44.8355C83.5465 45.1613 82.828 45.2264 82.3055 45.2101C81.783 45.1938 81.4238 45.0798 81.4238 45.0798C81.4238 45.0798 81.6198 44.7704 81.9463 44.3794C82.2892 44.0048 82.7791 43.5325 83.3995 43.223Z" fill="#DBF2FF"/>
<path d="M77.7825 35.1284C78.9907 34.4769 80.3949 34.7538 80.3949 34.7538C80.3949 34.7538 79.8398 36.0731 78.6315 36.7246C77.4232 37.3762 76.019 37.0993 76.019 37.0993C76.019 37.0993 76.5742 35.7799 77.7825 35.1284Z" fill="#DBF2FF"/>
<path d="M72.2802 27.5714C72.868 27.2619 73.5048 27.1153 73.9947 27.0502C74.5008 26.9688 74.86 26.9688 74.86 26.9688C74.86 26.9688 74.7784 27.3271 74.5171 27.7832C74.2559 28.2392 73.7987 28.8093 73.1293 29.1514C72.4598 29.5097 71.7414 29.5749 71.2189 29.5423C70.6964 29.5097 70.3535 29.3794 70.3535 29.3794C70.3535 29.3794 70.5658 29.0699 70.8923 28.6953C71.2352 28.337 71.6924 27.8972 72.2802 27.5714Z" fill="#DBF2FF"/>
<path d="M66.8753 21.2673C67.9856 20.6972 69.2919 21.0393 69.2919 21.0393C69.2919 21.0393 68.8183 22.3097 67.708 22.8798C66.5977 23.4499 65.2915 23.1079 65.2915 23.1079C65.2915 23.1079 65.765 21.8374 66.8753 21.2673Z" fill="#DBF2FF"/>
<path d="M62.7283 17.5869C63.5447 16.9191 64.7857 17.082 64.7857 17.082C64.7857 17.082 64.6877 18.3199 63.8713 18.9877C63.0549 19.6555 61.814 19.4926 61.814 19.4926C61.814 19.4926 61.9119 18.2547 62.7283 17.5869Z" fill="#DBF2FF"/>
<path d="M58.3197 13.8718C58.8911 13.204 60.0341 13.2366 60.0341 13.2366C60.0341 13.2366 60.2627 14.3605 59.7075 15.0446C59.136 15.7124 57.9931 15.6798 57.9931 15.6798C57.9931 15.6798 57.7482 14.5396 58.3197 13.8718Z" fill="#DBF2FF"/>
<path d="M53.1436 10.0781C53.764 9.70343 54.7437 10.1758 54.7437 10.1758C54.7437 10.1758 54.6947 11.2508 54.0743 11.6254C53.4538 12.0001 52.4741 11.5277 52.4741 11.5277C52.4741 11.5277 52.5068 10.4527 53.1436 10.0781Z" fill="#DBF2FF"/>
<path d="M46.3185 18.2224C48.8003 16.8379 51.3638 16.333 53.1925 16.219C54.1069 16.1701 54.8417 16.1864 55.3478 16.2352C55.854 16.2841 56.1316 16.3167 56.1316 16.3167C56.1316 16.3167 55.0376 16.561 53.3558 17.0985C51.674 17.636 49.4698 18.5156 47.2002 19.7861C46.0735 20.405 44.9959 21.1217 43.8529 21.6592C42.7263 22.1967 41.5344 22.4573 40.571 22.3922C39.5913 22.3433 38.8566 22.0176 38.432 21.7081C38.0075 21.3986 37.8442 21.1706 37.8442 21.1706C37.8442 21.1706 38.0892 21.3172 38.5627 21.4475C39.0199 21.5778 39.722 21.6592 40.522 21.48C41.3384 21.3335 42.2038 20.9262 43.1345 20.3073C44.0489 19.7372 45.0612 18.9228 46.3185 18.2224Z" fill="#B8E1FB"/>
<path d="M57.8298 29.0038C59.4463 27.7171 61.128 26.5606 62.5323 26.072C63.218 25.8114 63.8058 25.6973 64.214 25.6485C64.6222 25.5996 64.8345 25.5996 64.8345 25.5996C64.8345 25.5996 64.6386 25.7136 64.2957 25.9091C63.9528 26.1045 63.4956 26.4303 62.9731 26.8538C61.8955 27.6845 60.6545 29.0527 58.9401 30.4209C57.193 31.8054 55.1357 32.5384 53.6172 32.5221C52.8661 32.5221 52.262 32.3755 51.8864 32.2289C51.5109 32.0823 51.3149 31.9683 51.3149 31.9683C51.3149 31.9683 51.5435 31.9683 51.9354 31.952C52.3273 31.9357 52.8661 31.838 53.4866 31.6425C54.7275 31.219 56.2297 30.258 57.8298 29.0038Z" fill="#B8E1FB"/>
<path d="M69.9286 39.7871C70.9573 38.7609 72.2145 38.0931 73.1452 37.7185C74.0923 37.3438 74.7291 37.2461 74.7291 37.2461C74.7291 37.2461 74.2229 37.6696 73.5698 38.2234C72.8677 38.826 71.9696 39.6405 71.0389 40.5689C70.5654 41.0412 70.0429 41.5462 69.4061 41.8882C68.7857 42.2466 68.0183 42.4095 67.4631 42.3443C66.8753 42.2954 66.4508 42.1 66.2385 41.9208C66.0262 41.7416 65.9609 41.6113 65.9609 41.6113C65.9609 41.6113 66.0916 41.6928 66.3528 41.7579C66.6141 41.8231 66.9896 41.8394 67.3978 41.7416C67.8386 41.6439 68.2305 41.4322 68.6387 41.0901C69.0469 40.7643 69.4225 40.292 69.9286 39.7871Z" fill="#B8E1FB"/>
<path d="M78.7297 58.078C81.2769 56.6935 83.7751 56.498 83.7751 56.498C83.7751 56.498 82.077 58.306 79.5951 59.658C77.1133 61.0099 74.6641 61.4659 74.6641 61.4659C74.6641 61.4659 76.1662 59.4625 78.7297 58.078Z" fill="#B8E1FB"/>
<path d="M81.8158 70.3931C83.0404 69.3181 84.4446 68.748 85.4569 68.5037C86.4856 68.2593 87.155 68.2756 87.155 68.2756C87.155 68.2756 86.5836 68.7317 85.8651 69.3181C85.0814 69.937 84.0854 70.8166 83.0077 71.7613C81.9301 72.706 80.9504 73.5856 80.232 74.2697C79.5625 74.9049 79.04 75.4261 79.04 75.4261C79.04 75.4261 79.1054 74.7746 79.4809 73.781C79.8401 72.7875 80.5912 71.4681 81.8158 70.3931Z" fill="#B8E1FB"/>
<path d="M85.5709 85.5399C86.9425 84.2369 88.4773 83.5691 89.5876 83.1781C90.6979 82.7872 91.4326 82.6406 91.4326 82.6406C91.4326 82.6406 90.9265 83.1781 90.0611 83.96C89.1957 84.7418 88.0201 85.7354 86.8282 86.8593C85.6525 87.9669 84.7219 89.0908 84.1504 90.0355C83.8728 90.5078 83.6605 90.915 83.5299 91.2245C83.4156 91.5177 83.334 91.6969 83.334 91.6969C83.334 91.6969 83.285 91.5177 83.2523 91.1756C83.2197 90.8336 83.2033 90.3449 83.3013 89.726C83.4646 88.5044 84.1994 86.843 85.5709 85.5399Z" fill="#B8E1FB"/>
<path d="M87.9875 100.851C89.2775 99.4506 90.796 98.5711 91.9389 98.115C93.0819 97.6589 93.8493 97.5449 93.8493 97.5449C93.8493 97.5449 93.2288 98.1313 92.4288 98.8806C91.5797 99.695 90.4857 100.819 89.3101 102.073C88.1508 103.327 87.1058 104.516 86.3711 105.428C85.6853 106.292 85.1465 106.943 85.1465 106.943C85.1465 106.943 85.1955 106.178 85.571 105.005C85.9466 103.832 86.6976 102.252 87.9875 100.851Z" fill="#B8E1FB"/>
<path d="M90.8777 115.544C92.4942 114.029 94.2576 112.987 95.5802 112.384C96.9027 111.765 97.7844 111.537 97.7844 111.537C97.7844 111.537 94.9107 114.241 92.1186 116.863C90.5512 118.28 89.3755 119.535 89.0163 120.821C88.8204 121.44 88.8041 121.994 88.8367 122.385C88.8694 122.776 88.951 122.988 88.951 122.988C88.951 122.988 88.7877 122.825 88.5755 122.466C88.3632 122.108 88.1346 121.505 88.1183 120.707C88.0856 119.926 88.3142 118.948 88.8204 118.052C89.3266 117.124 90.0613 116.293 90.8777 115.544Z" fill="#B8E1FB"/>
<path d="M97.2617 126.961C98.6496 125.707 99.9885 124.892 100.87 124.127C101.752 123.394 102.242 122.791 102.242 122.791C102.242 122.791 102.225 122.986 102.127 123.312C102.046 123.654 101.866 124.127 101.572 124.697C100.984 125.821 99.7925 127.124 98.4863 128.296C97.1964 129.453 96.1351 130.512 95.5473 131.473C95.2534 131.945 95.0574 132.385 94.9595 132.694C94.8615 133.004 94.8125 133.199 94.8125 133.199C94.8125 133.199 94.7472 133.02 94.6819 132.678C94.6166 132.336 94.5839 131.798 94.6982 131.163C94.9105 129.876 95.8412 128.231 97.2617 126.961Z" fill="#B8E1FB"/>
<path d="M104.185 137.988C104.887 136.636 105.703 135.675 106.177 134.877C106.683 134.095 106.895 133.492 106.895 133.492C106.895 133.492 106.944 133.639 106.993 133.932C107.042 134.209 107.075 134.632 107.026 135.154C106.944 136.196 106.422 137.548 105.785 138.786C105.165 139.991 104.675 141.066 104.511 141.929C104.43 142.353 104.413 142.744 104.43 143.005C104.446 143.265 104.479 143.428 104.479 143.428C104.479 143.428 104.365 143.33 104.169 143.102C103.973 142.874 103.76 142.5 103.597 141.978C103.303 140.968 103.466 139.389 104.185 137.988Z" fill="#B8E1FB"/>
<path d="M41.0612 8.31829C42.2368 8.7255 43.2654 9.19786 44.2125 9.53991C45.1595 9.89825 46.0249 10.1589 46.776 10.2892C47.527 10.4195 48.1638 10.452 48.6047 10.4195C49.0455 10.3869 49.3068 10.3543 49.3068 10.3543C49.3068 10.3543 49.0945 10.5009 48.6863 10.6964C48.2618 10.8918 47.6087 11.1036 46.7596 11.2013C45.9106 11.2827 44.8982 11.2339 43.8206 11.0221C42.7266 10.8104 41.6163 10.4195 40.4897 10.0286C39.3631 9.63764 38.3344 9.29559 37.3874 9.10013C36.4404 8.92096 35.5586 8.88838 34.8076 8.96982C34.0728 9.06755 33.4687 9.26301 33.0768 9.45847C32.6686 9.67021 32.4727 9.81681 32.4727 9.81681C32.4727 9.81681 32.587 9.58877 32.9135 9.24672C33.2237 8.90467 33.7626 8.46489 34.5626 8.10655C35.3627 7.76449 36.3914 7.55275 37.5343 7.58532C38.6773 7.6179 39.8856 7.91109 41.0612 8.31829Z" fill="#B8E1FB"/>
<path d="M83.9217 52.3772C86.8444 59.039 88.5588 65.4077 89.4895 70.0499C89.963 72.3791 90.2732 74.2685 90.4365 75.5716C90.6161 76.8746 90.7141 77.6076 90.7141 77.6076C90.7141 77.6076 90.5182 76.8909 90.1589 75.6204C89.8161 74.3499 89.2936 72.5094 88.6078 70.2616C87.2362 65.7498 85.1299 59.6254 82.2562 53.0938C79.3662 46.5623 76.2802 40.8614 73.88 36.8056C72.6717 34.7859 71.6757 33.1571 70.9573 32.0495C70.2551 30.9419 69.8633 30.3066 69.8633 30.3066C69.8633 30.3066 70.3368 30.8767 71.1858 31.8866C72.0349 32.8965 73.2268 34.4113 74.631 36.317C77.4395 40.1447 80.999 45.7316 83.9217 52.3772Z" fill="white"/>
<path d="M98.5842 108.638C100.282 114.436 102.029 119.632 103.401 123.378C104.087 125.252 104.642 126.766 105.05 127.793C105.442 128.835 105.671 129.421 105.671 129.421C105.671 129.421 105.36 128.884 104.789 127.923C104.234 126.962 103.45 125.528 102.552 123.737C100.756 120.153 98.5679 115.039 96.8371 109.159C95.09 103.279 94.143 97.8222 93.5878 93.8479C93.049 89.8736 92.8857 87.4141 92.8857 87.4141C92.8857 87.4141 93.5062 89.8573 94.4696 93.685C95.4819 97.529 96.8698 102.839 98.5842 108.638Z" fill="white"/>
<path d="M51.3641 20.3061C52.5071 19.85 53.65 19.7034 54.4828 19.6871C55.3155 19.6709 55.838 19.7849 55.838 19.7849C55.838 19.7849 55.4135 20.1269 54.744 20.5667C54.0582 21.0065 53.1275 21.544 52.0499 21.9838C50.9723 22.4236 49.9109 22.6679 49.1109 22.8308C48.3108 22.9936 47.772 23.0425 47.772 23.0425C47.772 23.0425 48.0822 22.6027 48.6863 22.0326C49.2905 21.4626 50.2212 20.7784 51.3641 20.3061Z" fill="white"/>
<path d="M62.4181 31.8223C63.1039 31.5454 63.806 31.6106 64.2795 31.7897C64.753 31.9526 65.0143 32.1806 65.0143 32.1806C65.0143 32.1806 64.753 32.4087 64.4101 32.6856C64.0509 32.9625 63.6264 33.2882 63.1366 33.5C62.6467 33.7117 62.1079 33.7769 61.667 33.842C61.2262 33.9072 60.8833 33.9235 60.8833 33.9235C60.8833 33.9235 60.8996 33.5814 61.1119 33.1254C61.2915 32.6693 61.7324 32.0992 62.4181 31.8223Z" fill="white"/>
<path d="M72.6881 47.8014C73.2269 47.1336 74.3698 47.1824 74.3698 47.1824C74.3698 47.1824 74.6311 48.29 74.0923 48.9579C73.5534 49.6257 72.4105 49.5768 72.4105 49.5768C72.4105 49.5768 72.1492 48.4692 72.6881 47.8014Z" fill="white"/>
<path d="M37.0282 9.71992C37.8772 10.2574 38.3017 11.0881 38.465 11.7885C38.6283 12.5052 38.5956 13.1404 38.4977 13.6291C38.3997 14.134 38.2364 14.5086 38.1221 14.753C37.9915 14.9973 37.9099 15.1276 37.9099 15.1276C37.9099 15.1276 37.8446 14.5086 37.5996 13.6454C37.371 12.8147 36.8322 11.6908 36.0811 11.251C35.1341 10.7135 34.1054 10.518 33.1911 10.6321C32.342 10.7135 31.6562 10.7949 31.6562 10.7949C31.6562 10.7949 31.7705 10.6809 31.9665 10.5017C32.1787 10.3226 32.4726 10.062 32.8972 9.78507C33.3217 9.52446 33.9258 9.24756 34.6769 9.18241C35.0525 9.14983 35.4443 9.18241 35.8362 9.26385C36.2444 9.36158 36.5546 9.4593 37.0282 9.71992Z" fill="white"/>
</g>
<defs>
<clipPath id="clip0_908_158413">
<rect width="123.619" height="178.095" fill="white" transform="translate(0.143066 0.533203)"/>
</clipPath>
</defs>
</svg>
