<svg width="136" height="84" viewBox="0 0 136 84" fill="none" xmlns="http://www.w3.org/2000/svg">
<path fill-rule="evenodd" clip-rule="evenodd" d="M135.241 41.8861C116.413 68.2056 93.1056 83.772 67.8705 83.772C42.6354 83.772 19.3279 68.2055 0.5 41.8859C19.3279 15.5664 42.6353 0 67.8704 0C93.1055 0 116.413 15.5665 135.241 41.8861Z" fill="#0CE0FF"/>
<g clip-path="url(#clip0_1385_190332)">
<path fill-rule="evenodd" clip-rule="evenodd" d="M74.7187 64C74.0598 64 73.401 64 72.7422 64C71.9786 63.7157 71.6977 63.1547 71.7185 62.358C71.7495 61.17 71.7251 59.9806 71.7268 58.7918C71.7306 56.1615 73.0716 54.2646 75.5603 53.3893C75.7825 53.3111 75.8822 53.2232 75.8786 52.9744C75.8648 52.0149 75.8656 51.0552 75.8779 50.0956C75.8811 49.8411 75.7806 49.756 75.5427 49.706C74.5631 49.5004 73.5866 49.2795 72.6127 49.0488C72.3448 48.9853 72.2084 49.0668 72.0698 49.3006C70.9686 51.1596 69.8543 53.0107 68.7407 54.8624C68.0427 56.0232 66.9569 56.0226 66.2589 54.8621C65.1452 53.0104 64.0298 51.1599 62.9271 49.3018C62.7892 49.0694 62.656 48.9867 62.3847 49.0518C61.4254 49.2821 60.4643 49.5079 59.4963 49.6976C59.1795 49.7596 59.1196 49.8983 59.1213 50.1849C59.1317 52.0038 59.1341 53.8229 59.1195 55.6418C59.1168 55.9684 59.2038 56.1315 59.5178 56.2827C61.0522 57.0212 61.8855 58.2741 61.872 59.9707C61.8581 61.7029 60.9873 62.9533 59.4008 63.672C59.0804 63.8172 58.7281 63.8924 58.3906 63.9998C58.0182 63.9998 57.6459 63.9998 57.2734 63.9998C57.2233 63.9758 57.1758 63.9409 57.1231 63.9295C55.3407 63.5489 54.028 62.1911 53.8324 60.5226C53.6087 58.6149 54.4971 57.0297 56.2713 56.2262C56.528 56.1098 56.5513 55.9558 56.5508 55.7288C56.5463 54.0818 56.5489 52.4349 56.5473 50.788C56.5472 50.6642 56.5323 50.5403 56.5211 50.3668C56.0667 50.4691 55.6526 50.5661 55.2368 50.6552C53.012 51.1325 51.5607 52.4692 50.8435 54.6154C49.9463 57.3003 49.0438 59.9835 48.1701 62.6761C47.9795 63.2634 47.7096 63.7389 47.1328 63.9997C46.9036 63.9997 46.6744 63.9997 46.4453 63.9997C46.0152 63.7996 45.7086 63.4759 45.5 63.0543C45.5 62.8251 45.5 62.5961 45.5 62.3669C45.5572 62.24 45.6259 62.117 45.6698 61.9859C46.5857 59.2483 47.4891 56.5066 48.415 53.7724C49.4631 50.6777 51.6134 48.8088 54.7927 48.1039C57.0948 47.5934 59.395 47.0739 61.7 46.577C62.0032 46.5117 62.0903 46.3957 62.0823 46.0956C62.0612 45.3089 62.0535 44.5203 62.0846 43.7343C62.0994 43.3582 61.9707 43.1605 61.6553 42.9537C58.5582 40.9219 56.8016 38.0585 56.5921 34.3522C56.4759 32.2975 56.5508 30.2312 56.5657 28.1702C56.5748 26.9152 56.9944 25.7797 57.7512 24.7858C59.4091 22.6085 61.5524 21.1295 64.2065 20.43C64.9201 20.242 65.6567 20.141 66.3828 20C67.1276 20 67.8724 20 68.6172 20C68.6967 20.0249 68.7749 20.0642 68.8561 20.0727C72.1983 20.4217 74.916 21.9244 77.0411 24.5123C77.912 25.5729 78.4221 26.7891 78.4328 28.1702C78.4492 30.2881 78.439 32.4067 78.409 34.5245C78.4018 35.0345 78.3075 35.5509 78.193 36.0505C77.5008 39.0721 75.8303 41.4056 73.2039 43.0505C73.0006 43.1779 72.9142 43.3163 72.9189 43.563C72.9349 44.4072 72.9379 45.2523 72.9182 46.0964C72.9112 46.3957 72.9963 46.5079 73.3014 46.5739C75.732 47.0993 78.1663 47.6123 80.5826 48.1987C83.4084 48.8846 85.3932 50.6081 86.4163 53.3331C87.1392 55.2583 87.7332 57.2316 88.393 59.1806C88.7534 60.2457 89.1307 61.3051 89.5003 62.3671C89.5003 62.5963 89.5003 62.8254 89.5003 63.0546C89.1852 63.3697 88.8701 63.6847 88.555 63.9999C88.3258 63.9999 88.0966 63.9999 87.8674 63.9999C87.2892 63.7407 87.021 63.2643 86.8306 62.6771C85.9571 59.9855 85.0804 57.2941 84.1403 54.6256C83.8794 53.8852 83.4813 53.1565 82.9983 52.5381C81.8687 51.0915 80.2274 50.6333 78.452 50.3987C78.452 51.2579 78.4675 52.0724 78.4442 52.8859C78.4351 53.2024 78.5512 53.3161 78.8413 53.4199C81.0261 54.2019 82.3273 55.7499 82.5417 58.0626C82.6733 59.4827 82.5727 60.9231 82.6105 62.3536C82.6315 63.1462 82.3568 63.7125 81.5941 64C80.9353 64 80.2764 64 79.6176 64C79.5063 63.9405 79.3916 63.8867 79.2844 63.8208C78.8444 63.5501 78.6255 63.155 78.6521 62.6375C78.6779 62.1361 78.9305 61.7695 79.3778 61.5557C79.5663 61.4657 79.7834 61.4354 80.0005 61.3742C80.0005 60.3526 80.0682 59.3191 79.9846 58.2983C79.8621 56.8007 78.668 55.7474 77.2084 55.7259C75.729 55.7043 74.4895 56.7416 74.3504 58.2533C74.2552 59.2865 74.3322 60.3356 74.3322 61.3756C75.3109 61.5959 75.7464 62.0752 75.6757 62.8474C75.62 63.4499 75.2145 63.7626 74.7187 64ZM67.4825 42.1363C68.0772 42.0597 68.6789 42.0175 69.2656 41.9006C73.0401 41.149 75.9004 37.6154 75.8632 33.758C75.8621 33.6331 75.7749 33.4282 75.682 33.3972C74.5889 33.031 73.8218 32.2357 73.0669 31.431C72.8348 31.1835 72.6446 31.1501 72.3271 31.2682C69.1438 32.4514 65.9459 32.4565 62.7577 31.297C62.3711 31.1564 62.1474 31.1958 61.8754 31.4894C61.1444 32.2789 60.3844 33.0373 59.3224 33.397C59.2242 33.4304 59.1364 33.659 59.1371 33.7965C59.1574 38.3605 62.9028 42.0794 67.4825 42.1363ZM75.7346 30.5146C75.7795 30.4944 75.8241 30.4743 75.8688 30.4544C75.8688 29.7447 75.8751 29.035 75.8672 28.3255C75.8582 27.5075 75.5707 26.7905 75.0573 26.1578C73.3782 24.0885 71.2201 22.892 68.5643 22.6393C65.4149 22.3397 62.7284 23.2973 60.4505 25.5338C58.9982 26.9597 59.0456 28.6738 59.1734 30.5896C59.7917 29.958 60.3338 29.397 60.8839 28.8441C61.513 28.212 61.9314 28.1415 62.7324 28.5042C65.9144 29.9451 69.0968 29.9475 72.2776 28.4996C73.0651 28.1411 73.4674 28.2024 74.0917 28.8232C74.6491 29.3773 75.1878 29.9501 75.7346 30.5146ZM67.5024 51.9174C68.4535 50.3314 69.3573 48.8257 70.2579 47.3181C70.3003 47.2472 70.3397 47.1604 70.3402 47.0808C70.3459 46.1681 70.3439 45.2556 70.3439 44.2972C68.4329 44.7874 66.5589 44.7833 64.7023 44.3109C64.5464 45.9606 64.512 47.522 65.6467 48.8568C65.9844 49.2541 66.1999 49.7552 66.4723 50.2081C66.8013 50.7553 67.1315 51.3019 67.5024 51.9174ZM57.8476 58.4866C57.0308 58.4815 56.3714 59.1249 56.3616 59.9368C56.3518 60.7384 57.0166 61.4142 57.8217 61.4206C58.6264 61.4272 59.2999 60.7672 59.3094 59.9628C59.3189 59.1592 58.6579 58.4917 57.8476 58.4866Z" fill="#1B5A90"/>
<path fill-rule="evenodd" clip-rule="evenodd" d="M67.5026 51.9172C67.1317 51.3017 66.8016 50.755 66.4725 50.2077C66.2001 49.7548 65.9846 49.2538 65.6469 48.8565C64.5122 47.5218 64.5466 45.9604 64.7025 44.3105C66.5591 44.783 68.4331 44.787 70.3441 44.2969C70.3441 45.2553 70.3462 46.1678 70.3404 47.0805C70.3399 47.1601 70.3005 47.247 70.2581 47.3178C69.3575 48.8254 68.4537 50.3311 67.5026 51.9172Z" fill="white"/>
<path fill-rule="evenodd" clip-rule="evenodd" d="M57.8474 58.4864C58.6577 58.4915 59.3187 59.159 59.3092 59.9626C59.2997 60.7671 58.6262 61.4269 57.8215 61.4204C57.0166 61.414 56.3517 60.7382 56.3614 59.9366C56.3713 59.1247 57.0307 58.4812 57.8474 58.4864Z" fill="white"/>
</g>
<defs>
<clipPath id="clip0_1385_190332">
<rect width="44" height="44" fill="white" transform="translate(45.5 20)"/>
</clipPath>
</defs>
</svg>
