<svg width="136" height="84" viewBox="0 0 136 84" fill="none" xmlns="http://www.w3.org/2000/svg">
<path fill-rule="evenodd" clip-rule="evenodd" d="M135.574 41.8861C116.746 68.2056 93.4391 83.772 68.204 83.772C42.9689 83.772 19.6614 68.2055 0.833496 41.8859C19.6614 15.5664 42.9688 0 68.2038 0C93.439 0 116.746 15.5665 135.574 41.8861Z" fill="#0CE0FF"/>
<g clip-path="url(#clip0_1385_190348)">
<path fill-rule="evenodd" clip-rule="evenodd" d="M66.8183 52.9384C66.0055 52.6829 65.0799 52.4931 64.2417 52.1113C59.9686 50.1649 57.6779 46.8152 57.5248 42.1225C57.4223 38.9821 57.5018 35.8356 57.5058 32.6917C57.5072 31.6472 58.1485 31.0042 59.1878 31.0001C60.6943 30.9941 62.2007 30.9932 63.7072 31.0005C64.663 31.0051 65.3642 31.6811 65.3618 32.574C65.3593 33.4664 64.6589 34.1325 63.6997 34.1407C62.7337 34.1491 61.7677 34.1456 60.8016 34.1488C60.7713 34.149 60.7411 34.1652 60.6701 34.1858C60.6631 34.33 60.649 34.4878 60.6488 34.6454C60.6475 37.0687 60.6428 39.4921 60.649 41.9155C60.6605 46.4457 64.2241 49.9416 68.7383 49.8582C72.7585 49.7839 76.2196 46.4573 76.3435 42.4354C76.4267 39.736 76.3632 37.0324 76.3638 34.3307C76.3638 34.2848 76.3447 34.2391 76.3228 34.1416C75.2992 34.1416 74.2726 34.1549 73.2465 34.1381C72.0937 34.1191 71.3365 33.0117 71.7699 31.9809C72.0275 31.3684 72.5101 31.0131 73.1783 31.0058C74.7828 30.9878 76.3878 30.9855 77.9921 31.0062C78.826 31.0169 79.4992 31.6807 79.502 32.5154C79.5137 35.8883 79.6041 39.2653 79.4722 42.6333C79.2749 47.6707 75.4526 51.9219 70.508 52.7971C70.1499 52.8605 70.0595 52.9899 70.0727 53.3326C70.1449 55.2 70.7454 56.8733 71.9954 58.2588C72.6773 59.0146 73.6444 59.3431 74.6444 59.3867C77.1685 59.4969 79.3573 58.5959 81.2615 56.9871C83.4968 55.0986 84.9504 52.6686 85.928 49.9498C87.6041 45.288 88.0426 40.5415 86.3046 35.8216C83.6957 28.7364 78.5808 24.5477 71.1238 23.3308C67.3347 22.7124 63.6998 23.3875 60.2322 25.0221C59.8941 25.1814 59.4766 25.28 59.1099 25.248C58.427 25.1884 57.9136 24.6178 57.8106 23.9595C57.7045 23.2801 58.0411 22.6248 58.6926 22.2996C60.6216 21.3365 62.645 20.6363 64.7751 20.3067C71.2603 19.3031 77.1474 20.7474 82.2788 24.8636C86.9018 28.572 89.6426 33.4203 90.3196 39.3209C91.0226 45.4472 89.6734 51.1366 86.1659 56.24C84.2593 59.014 81.7338 61.0416 78.4367 61.9688C76.6021 62.4847 74.7262 62.6821 72.859 62.2047C70.0794 61.494 68.4193 59.5915 67.6427 56.9128C67.2675 55.6173 67.0871 54.2651 66.8183 52.9384Z" fill="#1B5A90"/>
<path fill-rule="evenodd" clip-rule="evenodd" d="M60.6655 57.7468C60.6552 61.062 58.0399 63.8343 54.7659 64.0002C51.372 64.1723 48.4793 61.7019 48.1469 58.3454C47.9792 56.6522 48.4271 55.1317 49.4912 53.8119C49.7205 53.5275 49.6628 53.3527 49.5108 53.0907C47.112 48.9544 46.1295 44.4964 46.6248 39.7467C47.1461 34.747 49.1748 30.4164 52.6379 26.7656C53.3094 26.058 54.2466 26.0028 54.9127 26.6213C55.5905 27.2508 55.5923 28.2018 54.8964 28.9358C52.7629 31.1849 51.2252 33.7821 50.3907 36.7698C48.9707 41.8539 49.5643 46.7106 52.1138 51.3331C52.2858 51.6449 52.4275 51.7587 52.8284 51.6577C56.8698 50.6392 60.6783 53.6112 60.6655 57.7468ZM57.5027 57.7311C57.5105 55.9964 56.0969 54.5787 54.3582 54.5777C52.6429 54.5763 51.2313 55.9727 51.217 57.6847C51.2024 59.4257 52.6058 60.8562 54.3361 60.8641C56.0754 60.8721 57.495 59.4675 57.5027 57.7311Z" fill="#1B5A90"/>
<path fill-rule="evenodd" clip-rule="evenodd" d="M57.5027 57.7315C57.4949 59.4678 56.0753 60.8725 54.336 60.8645C52.6057 60.8567 51.2025 59.4262 51.2169 57.6852C51.2312 55.9731 52.6428 54.5768 54.3581 54.5781C56.0968 54.5793 57.5103 55.9968 57.5027 57.7315Z" fill="white"/>
</g>
<defs>
<clipPath id="clip0_1385_190348">
<rect width="44" height="44.0089" fill="white" transform="translate(46.5 20)"/>
</clipPath>
</defs>
</svg>
