<svg width="25" height="25" viewBox="0 0 25 25" fill="none" xmlns="http://www.w3.org/2000/svg">
<path d="M12.8665 16.3399C12.6328 16.3403 12.4064 16.259 12.2265 16.1099L6.22649 11.1099C6.02227 10.9401 5.89385 10.6962 5.86947 10.4318C5.84509 10.1674 5.92675 9.90409 6.09649 9.69987C6.26623 9.49566 6.51014 9.36723 6.77456 9.34285C7.03899 9.31847 7.30227 9.40014 7.50649 9.56987L12.8665 14.0499L18.2265 9.72988C18.3288 9.64681 18.4465 9.58478 18.5728 9.54735C18.6991 9.50991 18.8316 9.49782 18.9627 9.51176C19.0937 9.5257 19.2207 9.5654 19.3363 9.62857C19.452 9.69174 19.554 9.77715 19.6365 9.87988C19.7281 9.9827 19.7974 10.1033 19.8402 10.2342C19.883 10.3651 19.8983 10.5034 19.8852 10.6404C19.872 10.7775 19.8307 10.9104 19.7638 11.0307C19.697 11.1511 19.6059 11.2563 19.4965 11.3399L13.4965 16.1699C13.3114 16.2954 13.0896 16.3552 12.8665 16.3399Z" fill="black"/>
</svg>
