<svg width="40" height="40" viewBox="0 0 40 40" fill="none" xmlns="http://www.w3.org/2000/svg">
<path d="M34.9942 20.7127C33.8283 18.2873 31.8608 16.4499 29.4561 15.4209C31.5693 12.2606 31.205 7.99777 28.4359 5.2784C26.9056 3.80846 24.9381 3 22.8978 3H22.8249C20.7117 3 18.7442 3.88196 17.2139 5.35189L5.2632 17.6993C3.8058 19.2428 2.93135 21.2272 3.00423 23.3586C3.00423 25.49 3.87867 27.4744 5.33607 29.0178C6.86634 30.5612 8.90671 31.2962 10.8742 31.2962C12.6231 31.2962 14.2991 30.7082 15.7565 29.6058C15.8294 29.6793 15.8294 29.8263 15.9022 29.8998C17.6511 33.6481 21.3675 36 25.4482 36C27.0514 36 28.5088 35.6325 29.9662 34.9711C35.2128 32.3987 37.4718 26.078 34.9942 20.7127ZM31.4236 20.7127L18.0883 27.0334C17.724 25.637 17.7969 24.0935 18.307 22.6971C18.9628 20.7862 20.3473 19.2428 22.1691 18.3608C23.1893 17.8463 24.2823 17.6258 25.3754 17.6258C27.7801 17.6993 30.0391 18.8753 31.4236 20.7127ZM19.4 7.4833C20.3473 6.52784 21.5132 6.01336 22.8249 6.01336C24.1366 6.01336 25.3754 6.52784 26.3227 7.4098C28.2173 9.32071 28.2902 12.4076 26.3955 14.392L26.1769 14.6125C25.9583 14.6125 25.6668 14.6125 25.4482 14.6125C23.8451 14.6125 22.3877 14.98 20.9303 15.6414C20.2016 16.0089 19.4729 16.4499 18.8899 16.9644L14.5177 12.6281L19.4 7.4833ZM14.372 26.7394C12.4773 28.6503 9.4168 28.7238 7.4493 26.8129C6.50199 25.8575 5.9919 24.6815 5.9919 23.3586C5.9919 22.0356 6.50199 20.7862 7.37643 19.8307L12.3316 14.7595L16.7767 19.1693C16.2666 19.9042 15.8294 20.7862 15.465 21.6682C14.9549 23.1381 14.7363 24.608 14.8821 26.1514L14.372 26.7394ZM28.6545 32.1782C27.6343 32.6927 26.5413 32.9131 25.4482 32.9131C23.0435 32.9131 20.8574 31.7372 19.4 29.8998L32.7353 23.5791C33.5368 26.9599 31.9337 30.5612 28.6545 32.1782Z" fill="#3B9CF6"/>
</svg>
