<svg width="36" height="26" viewBox="0 0 36 26" fill="none" xmlns="http://www.w3.org/2000/svg">
<path d="M32.986 0.398438H2.9854C2.32235 0.398438 1.68645 0.661835 1.2176 1.13068C0.748749 1.59953 0.485352 2.23543 0.485352 2.89849V22.8989C0.485352 23.5619 0.748749 24.1978 1.2176 24.6667C1.68645 25.1355 2.32235 25.3989 2.9854 25.3989H32.986C33.649 25.3989 34.2849 25.1355 34.7538 24.6667C35.2226 24.1978 35.486 23.5619 35.486 22.8989V2.89849C35.486 2.23543 35.2226 1.59953 34.7538 1.13068C34.2849 0.661835 33.649 0.398438 32.986 0.398438ZM30.2359 2.89849L17.9857 11.3737L5.73545 2.89849H30.2359ZM2.9854 22.8989V4.03601L17.2732 13.9237C17.4824 14.0689 17.731 14.1467 17.9857 14.1467C18.2404 14.1467 18.489 14.0689 18.6982 13.9237L32.986 4.03601V22.8989H2.9854Z" fill="white"/>
</svg>
