<svg width="42" height="42" viewBox="0 0 42 42" fill="none" xmlns="http://www.w3.org/2000/svg">
<circle cx="21.0598" cy="20.804" r="20.3879" fill="#3E45EB"/>
<path d="M15.0786 26.4484C15.1256 26.4484 15.1726 26.4437 15.2197 26.4367L19.175 25.743C19.222 25.7336 19.2667 25.7124 19.2996 25.6771L29.2679 15.7089C29.2897 15.6871 29.307 15.6613 29.3188 15.6328C29.3306 15.6044 29.3367 15.5739 29.3367 15.5431C29.3367 15.5123 29.3306 15.4818 29.3188 15.4533C29.307 15.4249 29.2897 15.399 29.2679 15.3773L25.3596 11.4666C25.3149 11.422 25.2561 11.3984 25.1926 11.3984C25.1291 11.3984 25.0704 11.422 25.0257 11.4666L15.0574 21.4349C15.0221 21.4702 15.001 21.5125 14.9916 21.5595L14.2979 25.5149C14.275 25.6408 14.2831 25.7705 14.3217 25.8926C14.3602 26.0147 14.4279 26.1256 14.5189 26.2156C14.6741 26.3661 14.8693 26.4484 15.0786 26.4484ZM16.6635 22.3473L25.1926 13.8205L26.9163 15.5442L18.3872 24.071L16.2967 24.4402L16.6635 22.3473ZM29.7123 28.4237H12.4048C11.9886 28.4237 11.6523 28.76 11.6523 29.1763V30.0228C11.6523 30.1263 11.737 30.2109 11.8405 30.2109H30.2767C30.3802 30.2109 30.4648 30.1263 30.4648 30.0228V29.1763C30.4648 28.76 30.1286 28.4237 29.7123 28.4237Z" fill="white"/>
</svg>
