<svg width="20" height="29" viewBox="0 0 20 29" fill="none" xmlns="http://www.w3.org/2000/svg">
<path d="M1.12065 8.46732L0.344061 11.5282C-0.0903347 13.2404 0.891567 15.0143 2.53007 15.4696C4.166 15.9242 5.86178 14.8942 6.29589 13.182L7.07219 10.1211C7.50687 8.40888 6.52239 6.63403 4.88647 6.17968C4.06864 5.95251 3.23392 6.09637 2.55269 6.51026C1.8706 6.92654 1.33799 7.61107 1.12065 8.46732Z" fill="white"/>
<path d="M0.976562 12.6117C1.07793 13.5984 1.74627 14.4654 2.71529 14.7345C3.97152 15.0837 5.26296 14.2988 5.59628 12.9867L6.37258 9.92579C6.51174 9.37703 6.46135 8.81988 6.26721 8.33496C6.29555 8.62747 6.27665 8.92777 6.20077 9.22778L5.42419 12.2886C5.09116 13.6007 3.79885 14.3878 2.54262 14.0389C1.81099 13.8357 1.2506 13.2909 0.976562 12.6117Z" fill="#BADEFF"/>
<path d="M1.12109 8.46594C1.17521 8.04366 1.33929 7.63696 1.5635 7.26832C1.79974 6.90748 2.10872 6.59519 2.46523 6.35183C3.18426 5.86751 4.10602 5.73114 4.94389 5.94993C5.77431 6.19628 6.51195 6.7924 6.9054 7.58631C7.10069 7.98192 7.22154 8.41379 7.25532 8.84986C7.27537 9.28653 7.22526 9.72469 7.07263 10.1197C7.28224 9.30361 7.1634 8.4054 6.75621 7.67712C6.3536 6.94554 5.66721 6.39199 4.88633 6.178C4.10717 5.95802 3.24868 6.0827 2.55313 6.50888C1.85472 6.93116 1.32469 7.64835 1.12109 8.46594Z" fill="#BADEFF"/>
<path d="M2.66109 2.39585L1.12109 8.46635C1.33843 7.6104 1.87104 6.92557 2.55313 6.50929C3.23436 6.0954 4.06909 5.95154 4.88691 6.17871C6.52284 6.63336 7.50703 8.40791 7.07263 10.1201L8.61292 4.04962C9.04789 2.33502 8.06284 0.562569 6.42691 0.107919C5.60909 -0.119256 4.77466 0.022203 4.09314 0.438491C3.41191 0.852382 2.87901 1.5372 2.66109 2.39585Z" fill="#F2839B"/>
<path d="M4.7935 1.1593C4.43336 0.976111 3.96404 1.20957 3.74526 1.68074C3.52647 2.15192 3.64107 2.68238 4.00121 2.86557C4.36136 3.04876 4.83068 2.8153 5.04947 2.34413C5.26825 1.87296 5.15365 1.34249 4.7935 1.1593Z" fill="white"/>
<path d="M11.1371 24.723L12.9526 26.5251C13.9679 27.5331 15.6098 27.5785 16.6022 26.6231C17.5929 25.6693 17.5723 24.0621 16.5568 23.0544L14.7415 21.2527C13.7261 20.2447 12.0828 20.2005 11.092 21.1545C10.5969 21.6313 10.3535 22.2731 10.3616 22.919C10.3711 23.5657 10.6292 24.2191 11.1371 24.723Z" fill="white"/>
<path d="M13.9694 26.5303C14.6993 26.8657 15.5794 26.7567 16.1664 26.1914C16.9269 25.4589 16.9116 24.2349 16.1331 23.4625L14.3175 21.6606C13.9922 21.3373 13.5826 21.1434 13.1646 21.0792C13.3802 21.1802 13.5818 21.3168 13.76 21.4931L15.5752 23.2951C16.3537 24.0675 16.3705 25.2931 15.6099 26.0252C15.1667 26.4523 14.5561 26.6189 13.9694 26.5303Z" fill="#BADEFF"/>
<path d="M11.1364 24.7232C10.8641 24.5116 10.648 24.2298 10.483 23.9216C10.3285 23.6079 10.2381 23.264 10.2151 22.9149C10.1732 22.2141 10.4576 21.5148 10.9553 21.0205C11.4693 20.5425 12.1884 20.2734 12.9043 20.3258C13.2608 20.3527 13.6118 20.4461 13.9299 20.6023C14.2428 20.768 14.5276 20.9837 14.7405 21.2527C14.2576 20.7701 13.5821 20.4835 12.9061 20.4679C12.2298 20.4474 11.5614 20.6983 11.0907 21.155C10.6163 21.6078 10.3498 22.2582 10.3606 22.919C10.3678 23.5796 10.6497 24.2447 11.1364 24.7232Z" fill="#BADEFF"/>
<path d="M7.53737 21.1497L11.1381 24.7231C10.6305 24.2193 10.3721 23.5657 10.3625 22.9186C10.3543 22.2727 10.5976 21.6313 11.0929 21.1542C12.0837 20.2001 13.7266 20.2445 14.7423 21.2523L11.1418 17.6787C10.1248 16.6694 8.48298 16.6267 7.49229 17.5805C6.99701 18.0576 6.75235 18.6979 6.76193 19.345C6.77 19.9905 7.02825 20.6444 7.53737 21.1497Z" fill="#F2839B"/>
<path d="M7.5489 19.1568C7.27283 19.3327 7.24252 19.7563 7.4812 20.1029C7.71988 20.4495 8.13716 20.588 8.41323 20.4122C8.68929 20.2363 8.7196 19.8127 8.48092 19.4661C8.24224 19.1194 7.82496 18.981 7.5489 19.1568Z" fill="white"/>
</svg>
