<svg width="96" height="73" viewBox="0 0 96 73" fill="none" xmlns="http://www.w3.org/2000/svg">
<path d="M76.0655 32.7262C76.0074 32.7262 76.019 31.5528 75.6124 30.0657C75.38 29.1943 75.2173 28.6483 74.741 28.1603C74.0555 27.4749 73.1609 27.3587 72.7427 27.3354C73.068 27.2076 73.5676 26.9637 74.0207 26.4989C74.6597 25.8251 74.8339 25.0699 75.0314 24.2334C75.1592 23.699 75.2754 22.9089 75.229 21.9214C75.2174 21.7588 75.3335 24.338 76.809 25.6276C77.5061 26.2317 78.3426 26.406 78.8538 26.4641C78.3659 26.6151 77.5293 26.9637 76.9949 27.7653C76.7625 28.1139 76.6115 28.4624 76.4837 29.357C76.2049 31.2972 76.1468 32.7262 76.0655 32.7262Z" fill="#232120"/>
<path d="M8.5879 70.7165C8.52981 70.7165 8.54145 69.5431 8.13481 68.0559C7.90245 67.1846 7.7398 66.6385 7.26345 66.1506C6.57799 65.4651 5.68339 65.3489 5.26514 65.3257C5.59044 65.1979 6.09003 64.9539 6.54314 64.4892C7.18213 63.8153 7.3564 63.0601 7.55391 62.2236C7.68171 61.6892 7.79787 60.8992 7.7514 59.9116C7.73978 59.749 7.85598 62.3282 9.33148 63.6178C10.0286 64.2336 10.8651 64.3962 11.3763 64.4543C10.8883 64.6054 10.0518 64.9539 9.51737 65.7556C9.28501 66.1041 9.13397 66.4526 9.00617 67.3472C8.71572 69.2875 8.65761 70.7165 8.5879 70.7165Z" fill="#232120"/>
<path d="M92.6104 45.32C92.5523 45.32 92.5639 44.1466 92.1573 42.6595C91.9249 41.7881 91.7623 41.242 91.2859 40.7541C90.6004 40.0686 89.7058 39.9524 89.2876 39.9292C89.6129 39.8014 90.1125 39.5574 90.5656 39.0927C91.2046 38.4188 91.3789 37.6637 91.5764 36.8272C91.7042 36.2927 91.8203 35.5027 91.7739 34.5152C91.7622 34.3525 91.8784 36.9317 93.3539 38.2213C94.051 38.8255 94.8875 38.9998 95.3987 39.0578C94.9107 39.2089 94.0742 39.5574 93.5398 40.3591C93.3074 40.7076 93.1564 41.0562 93.0286 41.9507C92.7498 43.891 92.6917 45.32 92.6104 45.32Z" fill="#232120"/>
<path d="M21.112 72.2145C21.0771 72.2145 21.0887 71.622 20.8912 70.8784C20.775 70.4369 20.6938 70.1697 20.4498 69.9257C20.1128 69.5888 19.6597 69.5191 19.439 69.5075C19.6016 69.4494 19.8572 69.3216 20.078 69.0892C20.4033 68.7523 20.4846 68.3689 20.5776 67.9506C20.6356 67.6834 20.7054 67.2884 20.6705 66.7888C20.6705 66.7075 20.717 67.9971 21.4605 68.6477C21.8091 68.9498 22.2273 69.0427 22.4829 69.066C22.239 69.1473 21.8207 69.3216 21.5535 69.7166C21.4373 69.8909 21.356 70.0651 21.2979 70.5182C21.1817 71.4942 21.1468 72.2029 21.112 72.2145Z" fill="#232120"/>
<path d="M82.0723 38.9993C82.0259 38.9993 82.0375 38.186 81.7587 37.1636C81.596 36.5595 81.4915 36.1761 81.1545 35.8508C80.6782 35.3744 80.0624 35.2931 79.772 35.2815C80.0043 35.1886 80.3412 35.0259 80.6549 34.7006C81.0964 34.2359 81.2242 33.713 81.352 33.1321C81.4333 32.7604 81.5263 32.2143 81.4914 31.5288C81.4798 31.4127 81.5611 33.2018 82.5835 34.0964C83.0715 34.5147 83.6408 34.6309 84.0009 34.6774C83.664 34.7819 83.0831 35.0259 82.7114 35.5836C82.5487 35.8275 82.4441 36.0715 82.3628 36.6873C82.1653 38.0117 82.1188 38.9993 82.0723 38.9993Z" fill="#232120"/>
<path d="M66.0861 46.1444C66.0861 50.1295 57.6513 53.3709 47.2647 53.3709C36.8665 53.3709 28.4434 50.1411 28.4434 46.1444C28.4434 42.1594 36.8781 38.918 47.2647 38.918C57.6513 38.918 66.0861 42.1594 66.0861 46.1444Z" fill="white"/>
<path d="M46.2074 47.0277C46.0448 47.0277 45.917 46.8999 45.917 46.7372V43.2983C45.917 43.1356 46.0448 43.0078 46.2074 43.0078C46.3701 43.0078 46.4979 43.1356 46.4979 43.2983V46.7372C46.4979 46.8999 46.3585 47.0277 46.2074 47.0277Z" fill="#020202"/>
<path d="M39.5732 47.0275C39.4105 47.0275 39.2827 46.8997 39.2827 46.737V45.0756C39.2827 44.913 39.4105 44.7852 39.5732 44.7852C39.7358 44.7852 39.8636 44.913 39.8636 45.0756V46.737C39.8636 46.8997 39.7242 47.0275 39.5732 47.0275Z" fill="#020202"/>
<path d="M53.3876 47.4694C53.225 47.4694 53.0972 47.3416 53.0972 47.179V45.1342C53.0972 44.9715 53.225 44.8438 53.3876 44.8438C53.5503 44.8438 53.6781 44.9715 53.6781 45.1342V47.179C53.6781 47.3416 53.5503 47.4694 53.3876 47.4694Z" fill="#020202"/>
<path d="M15.4195 42.3218C15.4544 41.5783 17.1971 41.7642 21.9373 38.9526C23.9821 37.7443 24.9464 37.0821 26.236 35.99C28.3853 34.1776 28.7571 33.3643 31.2318 31.6332C34.3454 29.4606 37.0408 27.5785 40.2242 28.1477C43.5354 28.7287 45.4523 31.6216 45.9519 32.4581C47.9154 35.7228 48.5776 40.5675 46.2308 43.0538C45.0573 44.2969 43.4889 44.5758 42.6989 44.7036C33.2882 46.2139 15.3033 44.6919 15.4195 42.3218Z" fill="#E54E6B"/>
<path d="M77.2044 43.0538C77.216 42.5193 76.4841 42.5891 70.6053 38.9526C67.4568 37.0007 66.8179 36.4198 66.3067 35.99C64.1573 34.1776 63.7855 33.3643 61.3108 31.6332C58.1972 29.4606 55.5018 27.5785 52.3184 28.1477C49.0073 28.7287 47.0903 31.6216 46.5907 32.4581C44.6273 35.7228 43.965 40.5675 46.3119 43.0538C47.4969 44.3085 49.0886 44.5874 49.8438 44.7036C58.7084 46.121 77.1696 45.7492 77.2044 43.0538Z" fill="#E54E6B"/>
<path d="M52.5858 33.0154C51.912 35.6295 48.3685 36.71 46.01 36.71C43.5702 36.71 39.8873 35.5714 39.4342 33.0154C39.1437 31.4237 40.1196 29.4022 41.5022 28.9955C43.0822 28.5308 43.8723 30.5988 46.2308 30.6221C48.717 30.6453 49.7046 28.3565 51.1568 28.9026C52.3651 29.3557 52.9925 31.4469 52.5858 33.0154Z" fill="#E54E6B"/>
<path d="M15.4192 42.3213C13.4325 44.6566 22.5992 57.5759 35.0538 63.78C40.4911 66.4986 44.3135 66.8007 46.1375 66.8472C47.4504 66.882 51.7258 66.8704 57.5232 64.2331C70.3961 58.3892 79.1214 44.9354 77.1927 42.6815C76.5654 41.9611 74.9272 42.4956 73.1148 43.0416C62.5423 46.2018 52.4113 47.3519 47.613 47.5378C37.3193 47.9445 24.7834 44.2383 21.3793 43.2275C17.9287 42.2167 16.1279 41.4848 15.4192 42.3213Z" fill="#E54E6B"/>
<path d="M39.9916 28.6233C41.3393 30.4125 36.7501 37.6273 30.0813 41.1709C23.703 44.5517 15.7794 44.3891 15.2218 42.6928C15.1288 42.4024 15.1985 41.9028 19.6947 38.2315C24.2258 34.5369 26.4913 32.6896 29.117 31.3536C31.4406 30.1685 38.6671 26.8573 39.9916 28.6233Z" fill="#E54E6B"/>
<path d="M52.4112 28.6233C51.0635 30.4125 55.6527 37.6273 62.3215 41.1709C68.6998 44.5517 76.6234 44.3891 77.181 42.6928C77.274 42.4024 77.2043 41.9028 72.7081 38.2315C68.177 34.5369 65.9115 32.6896 63.2858 31.3536C60.9738 30.1685 53.7473 26.8573 52.4112 28.6233Z" fill="#E54E6B"/>
<path d="M22.2626 44.7146C23.7614 45.1212 25.3414 44.9702 26.8518 45.2607C27.2933 45.342 27.4792 44.6681 27.0377 44.5868C25.5273 44.2964 23.9473 44.4358 22.4485 44.0408C22.0187 43.9246 21.8328 44.5984 22.2626 44.7146Z" fill="#CE4263"/>
<path d="M64.169 45.6677C65.2843 45.6329 66.3184 45.4121 67.3872 45.1217C68.5607 44.808 69.5947 44.1923 70.7565 43.8669C71.1863 43.7508 71.0004 43.0769 70.5706 43.1931C69.5249 43.4835 68.6071 44.0296 67.5847 44.3549C66.481 44.7035 65.3308 44.9358 64.169 44.9707C63.7275 44.9823 63.7159 45.6794 64.169 45.6677Z" fill="#CE4263"/>
<path d="M45.8937 42.4388C45.4174 42.2994 44.9294 41.4629 44.6622 41.0911C44.4066 40.7309 43.7908 41.0794 44.058 41.4396C44.4647 41.9973 45.0107 42.9035 45.7078 43.1126C46.1377 43.2404 46.3236 42.5666 45.8937 42.4388Z" fill="#CE4263"/>
<path d="M46.9041 42.6592C47.4967 42.3339 47.7871 41.6135 48.1357 41.0559C48.368 40.6725 47.7639 40.3239 47.5315 40.7073C47.2643 41.1488 47.0203 41.7994 46.5556 42.0667C46.1606 42.2758 46.5091 42.8799 46.9041 42.6592Z" fill="#CE4263"/>
<path d="M36.5296 54.1946C35.937 55.0776 35.3794 55.9838 34.9262 56.9481C34.7404 57.3547 35.3329 57.7033 35.5304 57.2966C35.9835 56.3323 36.5412 55.4261 37.1337 54.5431C37.3777 54.183 36.7735 53.8344 36.5296 54.1946Z" fill="#CE4263"/>
<path d="M40.4101 52.4882C39.5619 54.9164 38.4582 56.9496 38.679 59.5985C38.7138 60.04 39.4109 60.0516 39.376 59.5985C39.1553 57.0077 40.259 55.0442 41.0839 52.6741C41.2349 52.2442 40.5611 52.0584 40.4101 52.4882Z" fill="#CE4263"/>
<path d="M44.8476 52.3954C45.4169 55.2883 45.1962 58.309 44.9406 61.2135C44.9057 61.655 45.6028 61.655 45.6377 61.2135C45.9049 58.2393 46.114 55.1721 45.5215 52.2095C45.4285 51.768 44.7547 51.9539 44.8476 52.3954Z" fill="#CE4263"/>
<path d="M49.0769 52.0804C49.7624 54.9384 50.4711 57.5409 50.6802 60.5151C50.7151 60.9566 51.4122 60.9682 51.3773 60.5151C51.1682 57.4944 50.4479 54.8106 49.7508 51.8945C49.6462 51.4646 48.9723 51.6505 49.0769 52.0804Z" fill="#CE4263"/>
<path d="M52.4112 54.6844C52.7714 55.2769 52.8178 56.1134 52.8759 56.7756C52.9224 57.2171 53.6195 57.2171 53.573 56.7756C53.4917 55.974 53.4336 55.0329 53.0037 54.3242C52.783 53.9408 52.1788 54.2893 52.4112 54.6844Z" fill="#CE4263"/>
<path d="M54.9907 51.4778C56.0945 53.2786 56.687 55.0678 57.2911 57.0661C57.4189 57.496 58.0928 57.3101 57.965 56.8802C57.326 54.8122 56.7335 52.9881 55.5949 51.1176C55.3625 50.7458 54.7584 51.0944 54.9907 51.4778Z" fill="#CE4263"/>
<path d="M59.2666 50.5832C59.6268 51.1874 60.138 51.7218 60.533 52.3143C60.9977 53.0114 61.3579 53.755 61.7413 54.4985C61.9504 54.8936 62.543 54.545 62.3454 54.15C61.962 53.4064 61.6019 52.6629 61.1372 51.9542C60.7421 51.3616 60.2309 50.8272 59.8708 50.2231C59.6384 49.8513 59.0343 50.1998 59.2666 50.5832Z" fill="#CE4263"/>
<path d="M34.7403 52.1165C33.6017 53.0111 33.137 54.2891 32.6374 55.6135C32.4748 56.0318 33.1486 56.2177 33.3113 55.7994C33.5436 55.1836 33.7876 54.5911 34.0897 53.9986C34.3918 53.4061 34.7287 53.0227 35.2399 52.6044C35.5884 52.3256 35.0889 51.8376 34.7403 52.1165Z" fill="#CE4263"/>
<path d="M31.6962 50.9543C30.7087 51.6747 29.8025 52.5693 29.3842 53.7311C29.2332 54.1493 29.907 54.3352 30.0581 53.917C30.4066 52.941 31.2315 52.151 32.0564 51.5585C32.4049 51.3029 32.0564 50.6987 31.6962 50.9543Z" fill="#CE4263"/>
<path d="M26.8517 48.3059C26.5613 48.666 26.2243 48.9681 26.0152 49.3864C25.8177 49.793 26.4219 50.1415 26.6194 49.7349C26.7937 49.3631 27.0841 49.1075 27.3397 48.7938C27.6302 48.4569 27.1422 47.9573 26.8517 48.3059Z" fill="#CE4263"/>
<path d="M64.5062 50.0129C64.7269 50.3731 65.0173 50.6984 65.2962 51.0005C65.5982 51.3258 66.0978 50.8378 65.7842 50.5125C65.5402 50.2569 65.2846 49.9664 65.1103 49.6644C64.8663 49.281 64.2622 49.6295 64.5062 50.0129Z" fill="#CE4263"/>
<path d="M26.0267 39.3018C26.3288 39.5806 26.6889 39.7433 27.0375 39.964C27.5371 40.2777 28.0018 40.6379 28.4549 40.998C28.8034 41.2652 29.303 40.7773 28.9429 40.5101C28.5362 40.1964 28.1412 39.8827 27.7229 39.5922C27.3395 39.325 26.8632 39.1275 26.5147 38.8138C26.1894 38.5117 25.7014 38.9997 26.0267 39.3018Z" fill="#CE4263"/>
<path d="M29.9419 38.6624C30.3137 38.7205 30.6041 38.8715 30.9178 39.0806C31.278 39.3478 31.6265 38.7437 31.2664 38.4765C30.9178 38.2209 30.5577 38.0466 30.1278 37.9769C29.6863 37.9304 29.5004 38.6043 29.9419 38.6624Z" fill="#CE4263"/>
<path d="M46.0212 31.365C46.3465 31.6787 46.2885 32.3177 46.242 32.7244C46.1839 33.1658 46.881 33.1658 46.9391 32.7244C47.0204 32.1202 46.9972 31.3302 46.5208 30.8771C46.1955 30.5634 45.6959 31.063 46.0212 31.365Z" fill="#CE4263"/>
<path d="M64.9353 37.0693C64.6448 37.139 64.459 37.3017 64.2266 37.4876C63.8432 37.8129 63.4366 38.1033 63.0183 38.3822C62.6465 38.6262 62.9951 39.2303 63.3669 38.9863C63.6806 38.7772 63.9942 38.5564 64.2847 38.3241C64.5287 38.1382 64.8075 37.8013 65.1096 37.7316C65.5627 37.6502 65.3768 36.9764 64.9353 37.0693Z" fill="#CE4263"/>
<path d="M58.3597 34.2013C57.953 35.2237 57.2095 36.0951 56.6983 37.0478C56.4892 37.4428 57.0817 37.7913 57.3024 37.3963C57.8485 36.3739 58.6037 35.4561 59.0335 34.3756C59.2078 33.969 58.5339 33.7831 58.3597 34.2013Z" fill="#CE4263"/>
<path d="M55.641 34.6534C55.5945 35.1297 55.1182 35.7339 54.8626 36.1289C54.6186 36.5123 55.2228 36.8608 55.4667 36.4774C55.8269 35.9198 56.2684 35.3156 56.3381 34.6534C56.3846 34.2119 55.6875 34.2119 55.641 34.6534Z" fill="#CE4263"/>
<path d="M52.086 33.0041C51.8188 33.7011 51.5399 34.3866 51.2495 35.0721C51.0752 35.4787 51.6794 35.8389 51.8537 35.4206C52.1673 34.6771 52.4694 33.9335 52.7599 33.1783C52.9225 32.7717 52.2486 32.5858 52.086 33.0041Z" fill="#CE4263"/>
<path d="M34.9258 34.0727C35.3324 34.5839 35.7391 35.0835 36.169 35.5831C36.4594 35.9316 36.9474 35.432 36.6569 35.0951C36.2386 34.5955 35.8204 34.0959 35.4138 33.5848C35.1465 33.2362 34.647 33.7242 34.9258 34.0727Z" fill="#CE4263"/>
<path d="M17.534 43.6576C18.9165 44.1107 20.3572 44.6219 21.8211 44.7381C22.2742 44.7729 22.2626 44.0758 21.8211 44.041C20.4269 43.9364 19.0327 43.4136 17.7199 42.9837C17.29 42.8443 17.1157 43.5182 17.534 43.6576Z" fill="#CE4263"/>
<path d="M74.7416 41.95C74.5325 42.2404 73.6495 42.4844 73.3475 42.589C72.9989 42.7168 72.6271 42.8678 72.2669 42.9607C71.8371 43.0653 72.0114 43.7391 72.4528 43.6346C72.9989 43.4952 73.5566 43.2628 74.0794 43.0421C74.5557 42.8446 75.0321 42.74 75.3458 42.2985C75.6014 41.9267 74.9972 41.5782 74.7416 41.95Z" fill="#CE4263"/>
<path d="M89.2757 17.3652H72.627V17.5976H89.2757V17.3652Z" fill="#0E82FD"/>
<path d="M70.9305 15.6934H65.3306V19.1788H70.9305V15.6934Z" fill="#BCD2E8"/>
<path d="M71.8486 18.4703H69.583V16.3906H71.8486C72.3365 16.3906 72.7315 16.7856 72.7315 17.2736V17.5757C72.7315 18.0753 72.3365 18.4703 71.8486 18.4703Z" fill="#BCD2E8"/>
<path d="M65.3308 13.707H36.6689V21.0264H65.3308V13.707Z" fill="white"/>
<path d="M36.6689 16.5879H7.63525V17.4128H36.6689V16.5879Z" fill="#0E82FD"/>
<path d="M26.5028 28.0431H26.3052C25.6546 28.0431 25.1318 27.5203 25.1318 26.8696V7.13046C25.1318 6.47985 25.6546 5.95703 26.3052 5.95703H26.5028V28.0431Z" fill="#BCD2E8"/>
<path d="M26.4912 22.5121H25.8174V11.5098H26.4912C28.6406 11.5098 30.3949 13.2525 30.3949 15.4135V18.6201C30.3949 20.7578 28.6406 22.5121 26.4912 22.5121Z" fill="#BCD2E8"/>
<path d="M31.7657 12.9512H29.8022V21.0374H31.7657V12.9512Z" fill="#BCD2E8"/>
<path d="M8.20451 17.0058C8.20451 21.1186 7.94892 24.453 7.63523 24.453C7.32154 24.453 7.06592 21.1186 7.06592 17.0058C7.06592 12.893 7.32154 9.55859 7.63523 9.55859C7.94892 9.55859 8.20451 12.893 8.20451 17.0058Z" fill="#0E82FD"/>
<path d="M65.3305 21.1762H31.7658C31.6845 21.1762 31.6147 21.1065 31.6147 21.0251V13.7057C31.6147 13.6244 31.6845 13.5547 31.7658 13.5547H65.3305C65.4118 13.5547 65.4816 13.6244 65.4816 13.7057V21.0251C65.4699 21.1065 65.4118 21.1762 65.3305 21.1762ZM31.9168 20.8857H65.1911V13.8568H31.9168V20.8857Z" fill="#020202"/>
<path d="M36.3899 21.0264H36.2969C36.1459 21.0264 36.0181 20.8985 36.0181 20.7475V13.9742C36.0181 13.8231 36.1459 13.6953 36.2969 13.6953H36.3899C36.5409 13.6953 36.6687 13.8231 36.6687 13.9742V20.7475C36.6687 20.9102 36.5409 21.0264 36.3899 21.0264Z" fill="#0E82FD"/>
<path d="M39.6432 21.1764C39.5619 21.1764 39.4922 21.1067 39.4922 21.0254V18.0163C39.4922 17.9349 39.5619 17.8652 39.6432 17.8652C39.7246 17.8652 39.7943 17.9349 39.7943 18.0163V21.0254C39.7827 21.1067 39.7246 21.1764 39.6432 21.1764Z" fill="#020202"/>
<path d="M40.7238 21.1764C40.6425 21.1764 40.5728 21.1066 40.5728 21.0253V19.3639C40.5728 19.2826 40.6425 19.2129 40.7238 19.2129C40.8051 19.2129 40.8748 19.2826 40.8748 19.3639V21.0253C40.8632 21.1066 40.7935 21.1764 40.7238 21.1764Z" fill="#020202"/>
<path d="M41.9089 21.1764C41.8275 21.1764 41.7578 21.1067 41.7578 21.0254V18.0163C41.7578 17.9349 41.8275 17.8652 41.9089 17.8652C41.9902 17.8652 42.0599 17.9349 42.0599 18.0163V21.0254C42.0599 21.1067 41.9902 21.1764 41.9089 21.1764Z" fill="#020202"/>
<path d="M42.9894 21.1764C42.9081 21.1764 42.8384 21.1066 42.8384 21.0253V19.3639C42.8384 19.2826 42.9081 19.2129 42.9894 19.2129C43.0707 19.2129 43.1405 19.2826 43.1405 19.3639V21.0253C43.1288 21.1066 43.0707 21.1764 42.9894 21.1764Z" fill="#020202"/>
<path d="M44.0002 21.1764C43.9188 21.1764 43.8491 21.1067 43.8491 21.0254V18.0163C43.8491 17.9349 43.9188 17.8652 44.0002 17.8652C44.0815 17.8652 44.1512 17.9349 44.1512 18.0163V21.0254C44.1512 21.1067 44.0815 21.1764 44.0002 21.1764Z" fill="#020202"/>
<path d="M45.0807 21.1764C44.9994 21.1764 44.9297 21.1066 44.9297 21.0253V19.3639C44.9297 19.2826 44.9994 19.2129 45.0807 19.2129C45.1621 19.2129 45.2318 19.2826 45.2318 19.3639V21.0253C45.2318 21.1066 45.1621 21.1764 45.0807 21.1764Z" fill="#020202"/>
<path d="M46.277 21.1764C46.1957 21.1764 46.126 21.1067 46.126 21.0254V18.0163C46.126 17.9349 46.1957 17.8652 46.277 17.8652C46.3583 17.8652 46.4281 17.9349 46.4281 18.0163V21.0254C46.4164 21.1067 46.3583 21.1764 46.277 21.1764Z" fill="#020202"/>
<path d="M47.3459 21.1764C47.2645 21.1764 47.1948 21.1066 47.1948 21.0253V19.3639C47.1948 19.2826 47.2645 19.2129 47.3459 19.2129C47.4272 19.2129 47.4969 19.2826 47.4969 19.3639V21.0253C47.4969 21.1066 47.4272 21.1764 47.3459 21.1764Z" fill="#020202"/>
<path d="M48.2404 21.1764C48.1591 21.1764 48.0894 21.1067 48.0894 21.0254V18.0163C48.0894 17.9349 48.1591 17.8652 48.2404 17.8652C48.3217 17.8652 48.3914 17.9349 48.3914 18.0163V21.0254C48.3914 21.1067 48.3217 21.1764 48.2404 21.1764Z" fill="#020202"/>
<path d="M49.3214 21.1764C49.2401 21.1764 49.1704 21.1066 49.1704 21.0253V19.3639C49.1704 19.2826 49.2401 19.2129 49.3214 19.2129C49.4027 19.2129 49.4725 19.2826 49.4725 19.3639V21.0253C49.4725 21.1066 49.4027 21.1764 49.3214 21.1764Z" fill="#020202"/>
<path d="M50.5177 21.1764C50.4364 21.1764 50.3667 21.1067 50.3667 21.0254V18.0163C50.3667 17.9349 50.4364 17.8652 50.5177 17.8652C50.599 17.8652 50.6687 17.9349 50.6687 18.0163V21.0254C50.6571 21.1067 50.599 21.1764 50.5177 21.1764Z" fill="#020202"/>
<path d="M51.5866 21.1764C51.5053 21.1764 51.4355 21.1066 51.4355 21.0253V19.3639C51.4355 19.2826 51.5053 19.2129 51.5866 19.2129C51.6679 19.2129 51.7376 19.2826 51.7376 19.3639V21.0253C51.7376 21.1066 51.6679 21.1764 51.5866 21.1764Z" fill="#020202"/>
<path d="M52.6095 21.1764C52.5282 21.1764 52.4585 21.1067 52.4585 21.0254V18.0163C52.4585 17.9349 52.5282 17.8652 52.6095 17.8652C52.6909 17.8652 52.7606 17.9349 52.7606 18.0163V21.0254C52.749 21.1067 52.6909 21.1764 52.6095 21.1764Z" fill="#020202"/>
<path d="M53.6896 21.1764C53.6083 21.1764 53.5386 21.1066 53.5386 21.0253V19.3639C53.5386 19.2826 53.6083 19.2129 53.6896 19.2129C53.7709 19.2129 53.8407 19.2826 53.8407 19.3639V21.0253C53.829 21.1066 53.7709 21.1764 53.6896 21.1764Z" fill="#020202"/>
<path d="M54.8746 21.1764C54.7933 21.1764 54.7236 21.1067 54.7236 21.0254V18.0163C54.7236 17.9349 54.7933 17.8652 54.8746 17.8652C54.956 17.8652 55.0257 17.9349 55.0257 18.0163V21.0254C55.0257 21.1067 54.956 21.1764 54.8746 21.1764Z" fill="#020202"/>
<path d="M55.9552 21.1764C55.8739 21.1764 55.8042 21.1066 55.8042 21.0253V19.3639C55.8042 19.2826 55.8739 19.2129 55.9552 19.2129C56.0366 19.2129 56.1063 19.2826 56.1063 19.3639V21.0253C56.0947 21.1066 56.0366 21.1764 55.9552 21.1764Z" fill="#020202"/>
<path d="M29.7326 20.3396C29.6513 20.3396 29.5815 20.2699 29.5815 20.1885V13.694C29.5815 13.6127 29.6513 13.543 29.7326 13.543C29.8139 13.543 29.8836 13.6127 29.8836 13.694V20.1885C29.872 20.2815 29.8139 20.3396 29.7326 20.3396Z" fill="#020202"/>
<path d="M26.5031 22.2923C26.4218 22.2923 26.3521 22.2226 26.3521 22.1413V11.5456C26.3521 11.4642 26.4218 11.3945 26.5031 11.3945C26.5844 11.3945 26.6541 11.4642 26.6541 11.5456V22.1413C26.6541 22.2226 26.5844 22.2923 26.5031 22.2923Z" fill="#020202"/>
<path d="M70.9191 18.6198C70.8378 18.6198 70.7681 18.55 70.7681 18.4687V16.5866C70.7681 16.5053 70.8378 16.4355 70.9191 16.4355C71.0004 16.4355 71.0701 16.5053 71.0701 16.5866V18.4687C71.0701 18.55 71.0004 18.6198 70.9191 18.6198Z" fill="#020202"/>
<path d="M14.6756 37.1521C14.4316 39.2434 12.5262 40.7305 10.4466 40.4749C8.3553 40.2193 6.8682 38.3255 7.1238 36.2459C7.36778 34.1546 9.27313 32.6675 11.3528 32.9231C13.4324 33.1671 14.9196 35.0609 14.6756 37.1521Z" fill="#0E82FD"/>
<path d="M8.18125 47.8298C7.93727 49.9211 6.03188 51.4082 3.95224 51.1526C1.8726 50.897 0.373877 49.0033 0.629475 46.9236C0.873456 44.8324 2.77881 43.3452 4.85845 43.6008C6.9381 43.8448 8.42523 45.7386 8.18125 47.8298Z" fill="#0E82FD"/>
<path d="M17.9172 56.6585C17.6965 58.4593 16.0583 59.7489 14.2575 59.5398C12.4567 59.319 11.1671 57.6809 11.3762 55.8801C11.597 54.0793 13.2351 52.7897 15.0359 52.9988C16.8484 53.2079 18.138 54.8461 17.9172 56.6585Z" fill="#0E82FD"/>
<path d="M14.2806 56.695L3.89404 47.6677L10.4466 35.6895L11.4342 36.2355L5.32305 47.4121L15.0242 55.8353L14.2806 56.695Z" fill="#0E82FD"/>
<path d="M66.3532 67.9044C66.3532 69.6471 64.9474 71.0529 63.2047 71.0529C61.4619 71.0529 60.0562 69.6471 60.0562 67.9044C60.0562 66.1616 61.4619 64.7559 63.2047 64.7559C64.9474 64.7675 66.3532 66.1733 66.3532 67.9044Z" fill="#0E82FD"/>
<path d="M86.7545 47.3868C86.7545 49.1295 85.3487 50.5353 83.606 50.5353C81.8633 50.5353 80.4575 49.1295 80.4575 47.3868C80.4575 45.6441 81.8633 44.2383 83.606 44.2383C85.3487 44.2383 86.7545 45.6557 86.7545 47.3868Z" fill="#0E82FD"/>
<path d="M79.818 58.2734C81.7698 59.7606 82.1532 62.5605 80.6661 64.5124C79.179 66.4642 76.379 66.8476 74.4272 65.3605C72.4753 63.8734 72.0919 61.0734 73.579 59.1216C75.0662 57.1581 77.8661 56.7863 79.818 58.2734Z" fill="#0E82FD"/>
<path d="M63.437 68.2873L62.9839 67.2533L76.519 61.3861L83.3737 47.5605L84.3845 48.0717L77.3439 62.2575L77.158 62.3388L63.437 68.2873Z" fill="#0E82FD"/>
<path d="M40.8048 7.80548C40.8048 9.24613 39.6314 10.4196 38.1907 10.4196C36.7501 10.4196 35.5767 9.24613 35.5767 7.80548C35.5767 6.36484 36.7501 5.19141 38.1907 5.19141C39.6314 5.19141 40.8048 6.35322 40.8048 7.80548Z" fill="#E54E6B"/>
<path d="M47.7293 5.78284C49.173 5.78284 50.3434 4.61248 50.3434 3.16876C50.3434 1.72505 49.173 0.554688 47.7293 0.554688C46.2856 0.554688 45.1152 1.72505 45.1152 3.16876C45.1152 4.61248 46.2856 5.78284 47.7293 5.78284Z" fill="#E54E6B"/>
<path d="M58.9874 8.75665C58.9874 10.1973 57.814 11.3707 56.3734 11.3707C54.9327 11.3707 53.7593 10.1973 53.7593 8.75665C53.7593 7.31601 54.9327 6.14258 56.3734 6.14258C57.8256 6.14258 58.9874 7.31601 58.9874 8.75665Z" fill="#E54E6B"/>
<path d="M55.7458 9.10489L47.4389 3.5979L37.912 7.73395L37.4473 6.66508L47.555 2.27344L56.3964 8.14058L55.7458 9.10489Z" fill="#E54E6B"/>
</svg>
