<svg width="86" height="87" viewBox="0 0 86 87" fill="none" xmlns="http://www.w3.org/2000/svg">
<path d="M70.6513 65.3642C70.5721 65.3642 70.6037 63.9856 70.1284 62.2267C69.8431 61.1967 69.6688 60.547 69.0984 59.9766C68.2902 59.1684 67.2285 59.0258 66.7373 58.9941C67.1176 58.8515 67.7198 58.5662 68.2427 57.9958C69.0033 57.2035 69.2093 56.3003 69.4312 55.3336C69.5738 54.6998 69.7164 53.7649 69.6688 52.6081C69.653 52.418 69.7798 55.4604 71.5387 56.9816C72.3627 57.6947 73.3451 57.9007 73.9473 57.9641C73.361 58.1384 72.3785 58.5504 71.7605 59.5012C71.4912 59.9132 71.301 60.3252 71.1584 61.3869C70.8098 63.6687 70.7305 65.3642 70.6513 65.3642Z" fill="#232120"/>
<path d="M35.6471 6.57556C35.6154 6.57556 35.6154 5.87833 35.3777 5.00679C35.2351 4.49972 35.14 4.16695 34.8547 3.88172C34.4586 3.48557 33.9198 3.40634 33.6821 3.39049C33.8723 3.31126 34.1734 3.16865 34.4269 2.89926C34.8072 2.50311 34.9023 2.05942 35.0132 1.56819C35.0924 1.25127 35.1558 0.791734 35.1241 0.205429C35.1241 0.110352 35.1875 1.63158 36.059 2.39219C36.471 2.75665 36.9623 2.85173 37.2634 2.88342C36.9781 2.97849 36.4869 3.18449 36.17 3.64403C36.0274 3.85003 35.9481 4.05603 35.8689 4.57895C35.7263 5.73571 35.6946 6.57556 35.6471 6.57556Z" fill="#232120"/>
<path d="M7.71001 44.3523C7.64662 44.3523 7.66247 43.3065 7.31385 41.9754C7.10785 41.1989 6.96524 40.7077 6.52155 40.264C5.9194 39.646 5.11126 39.551 4.73096 39.5193C5.03203 39.4083 5.47573 39.1865 5.87188 38.7745C6.44234 38.1723 6.60078 37.491 6.77509 36.7462C6.88601 36.2708 6.99694 35.5577 6.9494 34.6704C6.93355 34.5278 7.04448 36.8413 8.3597 37.9822C8.99354 38.521 9.73832 38.6794 10.1979 38.727C9.75416 38.8696 9.00939 39.1707 8.53401 39.8996C8.32801 40.2165 8.18541 40.5334 8.07448 41.3257C7.82095 43.0688 7.77339 44.3523 7.71001 44.3523Z" fill="#232120"/>
<path d="M1.9743 47.901C1.9426 47.901 1.95844 47.3464 1.76829 46.6492C1.65737 46.2372 1.57815 45.9837 1.3563 45.746C1.03938 45.4291 0.61154 45.3657 0.421387 45.3498C0.579848 45.2864 0.817522 45.1755 1.02352 44.9537C1.3246 44.6367 1.40383 44.2723 1.49891 43.892C1.56229 43.6384 1.60983 43.274 1.59398 42.7986C1.59398 42.7194 1.64152 43.9395 2.33875 44.5417C2.67152 44.8269 3.06767 44.9061 3.30536 44.9378C3.06767 45.0171 2.68738 45.1755 2.43385 45.5558C2.32292 45.7143 2.25953 45.8886 2.19614 46.3006C2.03768 47.2355 2.02183 47.901 1.9743 47.901Z" fill="#232120"/>
<path d="M84.2472 29.7272C84.2156 29.7272 84.2314 29.1726 84.0413 28.4754C83.9303 28.0634 83.8511 27.8098 83.6292 27.5721C83.3123 27.2552 82.8845 27.1918 82.6943 27.176C82.8528 27.1126 83.0905 27.0017 83.2965 26.7798C83.5976 26.4629 83.6768 26.0985 83.7719 25.7182C83.8352 25.4646 83.8828 25.1002 83.867 24.6248C83.867 24.5455 83.9145 25.7657 84.6117 26.3678C84.9445 26.6531 85.3406 26.7323 85.5783 26.764C85.3406 26.8432 84.9603 27.0017 84.7068 27.382C84.5959 27.5405 84.5325 27.7148 84.4691 28.1268C84.3106 29.0617 84.2789 29.7272 84.2472 29.7272Z" fill="#232120"/>
<path d="M62.554 65.6657C62.5065 65.6657 62.5223 64.9051 62.2688 63.9385C62.1103 63.368 62.0152 63.0194 61.6983 62.7025C61.2546 62.2588 60.6683 62.1795 60.3989 62.1637C60.6049 62.0845 60.9377 61.926 61.2229 61.6249C61.6349 61.1812 61.7459 60.69 61.8726 60.1512C61.9519 59.8026 62.0311 59.2955 61.9994 58.6459C61.9994 58.5349 62.0628 60.2146 63.0294 61.0545C63.4889 61.4506 64.0277 61.5615 64.3604 61.5932C64.0435 61.6883 63.5048 61.926 63.1562 62.4331C62.9977 62.6549 62.9026 62.8926 62.8234 63.4631C62.6491 64.7466 62.6174 65.6657 62.554 65.6657Z" fill="#232120"/>
<path d="M43.4126 58.9956C56.5749 58.9956 67.2451 47.1265 67.2451 32.4851C67.2451 17.8438 56.5749 5.97461 43.4126 5.97461C30.2502 5.97461 19.5801 17.8438 19.5801 32.4851C19.5801 47.1265 30.2502 58.9956 43.4126 58.9956Z" fill="white"/>
<path d="M84.1206 85.7915C82.3775 85.7757 79.7154 85.7599 76.4511 85.7915C65.8342 85.9342 62.7125 86.5522 56.0255 86.568C47.12 86.5839 48.5144 85.5063 38.7374 85.3637C30.1805 85.2369 27.9304 86.0292 18.7872 86.0451C12.211 86.0609 6.85506 85.6489 3.38477 85.3162C3.93938 82.5906 5.14368 78.9144 8.13859 76.0145C14.1443 70.199 21.6712 73.083 27.7561 68.5193C30.9728 66.1107 34.3797 61.2618 34.8234 50.534C35.2354 50.5182 35.6474 50.4865 36.0436 50.4389C38.5155 50.2646 40.9717 50.0903 43.4278 49.916C45.884 50.0903 48.3401 50.2646 50.7963 50.4389C51.2083 50.4706 51.6044 50.5023 52.0164 50.534C52.4601 61.246 55.8512 66.1107 59.0838 68.5193C65.137 73.0513 72.4103 70.2941 78.7012 76.0145C81.9972 79.0253 83.4233 82.9076 84.1206 85.7915Z" fill="#FFDEAD"/>
<path d="M50.6382 54.3534C50.6382 57.903 47.4056 60.7869 43.4123 60.7869C39.4191 60.7869 36.1865 57.903 36.1865 54.3534C36.1865 50.8039 39.4191 47.9199 43.4123 47.9199C47.4056 47.9199 50.6382 50.8039 50.6382 54.3534Z" fill="#FFD18C"/>
<path d="M43.4906 11.1075C41.9219 11.0916 40.5432 11.1708 39.2597 11.3293C32.1607 12.1691 26.8047 18.1907 26.8047 25.3372V39.8681C27.1691 41.6904 28.6587 47.8704 34.395 52.2756C37.7227 54.8268 41.0979 55.7459 43.0469 56.1104C43.1737 56.1104 43.3005 56.1103 43.4272 56.0945C43.554 56.0945 43.6808 56.1104 43.8075 56.1104C45.7566 55.7459 49.1477 54.8427 52.4595 52.2756C58.1958 47.8704 59.6853 41.6904 60.0498 39.8681V25.3372C60.0498 18.1907 54.6938 12.1691 47.5948 11.3293C46.2795 11.1867 44.9168 11.1075 43.4906 11.1075Z" fill="#FFDEAD"/>
<path d="M29.7846 35.066C29.7846 37.9817 28.0415 40.3586 25.8864 40.3586C23.7313 40.3586 21.9883 37.9817 21.9883 35.066C21.9883 32.1504 23.7313 29.7734 25.8864 29.7734C28.0256 29.7734 29.7846 32.1504 29.7846 35.066Z" fill="#FFDEAD"/>
<path d="M60.9538 40.3586C63.1067 40.3586 64.852 37.989 64.852 35.066C64.852 32.143 63.1067 29.7734 60.9538 29.7734C58.8009 29.7734 57.0557 32.143 57.0557 35.066C57.0557 37.989 58.8009 40.3586 60.9538 40.3586Z" fill="#FFDEAD"/>
<path d="M41.7163 41.6913C42.2868 41.3744 42.8414 41.2951 43.4118 41.2793C43.9823 41.2951 44.5369 41.3585 45.1074 41.6913C44.5369 42.0082 43.9823 42.0874 43.4118 42.1033C42.8414 42.0874 42.2868 42.0082 41.7163 41.6913Z" fill="#232120"/>
<path d="M40.1636 72.7652C40.9083 73.7001 42.1126 74.1438 43.2536 73.9061C44.8857 73.5733 45.5037 72.068 45.5512 71.957L40.1636 72.7652Z" fill="#232120"/>
<path d="M45.8999 75.586C46.2961 75.7762 46.914 76.0297 47.6747 76.2674C50.2576 77.0755 52.4285 76.9171 53.9339 76.7903C59.4008 76.3308 64.4557 75.5702 66.1512 75.3008C62.2372 75.4275 58.3074 75.5702 54.3934 75.6969L45.8999 75.586Z" fill="#232120"/>
<path d="M40.9241 75.586C40.528 75.7762 39.91 76.0297 39.1494 76.2674C36.5665 77.0755 34.3955 76.9171 32.8902 76.7903C27.4233 76.3308 22.3684 75.5702 20.6729 75.3008C24.5868 75.4275 28.5167 75.5702 32.4306 75.6969L40.9241 75.586Z" fill="#232120"/>
<path d="M43.6023 51.9927C43.5547 51.9927 43.523 51.9927 43.4755 51.9927C42.905 51.9768 42.3663 51.8501 41.8433 51.6124C41.6373 51.5173 41.5581 51.2796 41.6532 51.0894C41.7483 50.8834 41.9859 50.8042 42.1761 50.8993C42.5881 51.0894 43.0318 51.2004 43.4913 51.2162C43.9984 51.2479 44.4896 51.137 44.9492 50.9468C45.1552 50.8518 45.377 50.9468 45.4721 51.1528C45.5513 51.3588 45.4721 51.5807 45.2661 51.6758C44.7432 51.8818 44.1727 51.9927 43.6023 51.9927Z" fill="#FFDDAB"/>
<path d="M48.3401 46.9377C48.1817 46.9853 47.944 47.0645 47.6588 47.1596C45.6622 47.7617 44.6797 48.0628 43.5229 48.047C42.5563 48.047 41.4788 47.73 39.3396 47.0962C38.9751 46.9853 38.674 46.8902 38.4839 46.8268C38.8325 46.193 39.6565 44.9253 41.2253 44.1488C41.7323 43.8953 42.6356 43.4516 43.8557 43.5308C45.5037 43.6259 46.5971 44.6242 46.9932 44.9887C47.738 45.6859 48.1341 46.4624 48.3401 46.9377Z" fill="#BC5E5C"/>
<path d="M48.2926 46.905C47.6587 46.3187 46.0583 47.8082 43.7764 47.9509C41.1143 48.1093 38.9909 46.2236 38.468 46.8416C38.2937 47.0476 38.9275 49.5196 41.352 50.3436C42.2394 50.6447 42.9366 50.7081 43.5229 50.7081C44.331 50.6922 45.773 50.613 47.12 49.5038C48.5144 48.3629 48.5461 47.1269 48.2926 46.905Z" fill="#BC5E5C"/>
<path d="M56.95 35.5872C56.7819 35.5872 56.6138 35.4939 56.5205 35.3258C55.6615 33.4771 53.7755 32.2447 51.7588 32.1887C49.7981 32.1513 47.9307 33.197 46.941 34.915C46.8103 35.1391 46.5302 35.2138 46.3061 35.0831C46.082 34.9523 46.0073 34.6722 46.1381 34.4482C47.2771 32.4688 49.3686 31.2363 51.6467 31.2363C51.7027 31.2363 51.7401 31.2363 51.7961 31.2363C54.1676 31.2923 56.3711 32.7302 57.3981 34.8963C57.5101 35.1391 57.3981 35.4005 57.174 35.5125C57.0807 35.5686 57.006 35.5872 56.95 35.5872Z" fill="#020202"/>
<path d="M50.6006 33.7946C50.6006 35.0458 51.7023 36.0541 53.0655 36.0541C54.4286 36.0541 55.5303 35.0458 55.5303 33.7946C55.5303 32.5435 54.4286 31.5352 53.0655 31.5352C51.7023 31.5538 50.6006 32.5622 50.6006 33.7946Z" fill="#232120"/>
<path d="M40.4641 35.5892C40.2961 35.5892 40.128 35.4958 40.0346 35.3278C39.1756 33.4791 37.2896 32.2466 35.2729 32.1906C33.3122 32.1533 31.4448 33.199 30.4552 34.9169C30.3244 35.141 30.0443 35.2157 29.8203 35.085C29.5962 34.9543 29.5215 34.6742 29.6522 34.4501C30.7913 32.4707 32.8827 31.2383 35.1609 31.2383C35.2169 31.2383 35.2542 31.2383 35.3102 31.2383C37.6818 31.2943 39.8852 32.7322 40.9123 34.8983C41.0243 35.141 40.9123 35.4025 40.6882 35.5145C40.5948 35.5705 40.5201 35.5892 40.4641 35.5892Z" fill="#020202"/>
<path d="M34.1147 33.7966C34.1147 35.0477 35.2165 36.0561 36.5796 36.0561C37.9428 36.0561 39.0445 35.0477 39.0445 33.7966C39.0445 32.5455 37.9428 31.5371 36.5796 31.5371C35.2165 31.5558 34.1147 32.5642 34.1147 33.7966Z" fill="#232120"/>
<path d="M59.56 28.8548C58.118 28.427 56.1056 27.9833 53.6653 27.8882C51.5736 27.809 49.7988 28.015 48.4678 28.2685C48.4836 27.9991 48.547 27.6663 48.6579 27.3336C48.9273 26.4937 49.3869 25.9074 49.7355 25.543C51.3993 25.6222 52.7779 25.7807 53.7762 25.9074C56.2165 26.2402 56.882 26.5096 57.3099 26.7473C58.5142 27.3653 59.1956 28.2685 59.56 28.8548Z" fill="#232120"/>
<path d="M48.7999 25.4484C48.6415 25.7019 48.4196 26.0664 48.2453 26.5418C47.9442 27.3816 47.9125 28.2056 48.0076 28.2373C48.1185 28.2531 48.4513 27.2707 48.5464 26.9696C48.689 26.5418 48.7999 26.1614 49.101 25.6544C49.1802 25.5276 49.2436 25.4325 49.2912 25.3691L48.7999 25.4484Z" fill="#232120"/>
<path d="M29.0073 29.0636C30.4335 28.6199 32.4459 28.1445 34.8862 28.0178C36.9779 27.9068 38.7527 28.097 40.0837 28.3347C40.0521 28.0653 40.0045 27.7325 39.8936 27.3998C39.6242 26.5758 39.1488 25.9736 38.7844 25.625C37.1205 25.7201 35.7419 25.8944 34.7436 26.037C32.3033 26.4015 31.6378 26.6867 31.2258 26.9244C30.0373 27.5582 29.3559 28.4615 29.0073 29.0636Z" fill="#232120"/>
<path d="M39.7195 25.497C39.8938 25.7505 40.1157 26.115 40.29 26.5904C40.5911 27.4144 40.6386 28.2542 40.5594 28.27C40.4643 28.2859 40.1157 27.3034 40.0047 27.0182C39.8463 26.5904 39.7512 26.2101 39.4343 25.7188C39.3551 25.5921 39.2917 25.497 39.2441 25.4336L39.7195 25.497Z" fill="#232120"/>
<path d="M43.2534 48.3156C40.3535 48.3156 38.1668 47.143 37.0892 46.4299C36.9149 46.3031 36.8515 46.0654 36.9783 45.8753C37.1051 45.6851 37.3428 45.6534 37.5329 45.7644C38.6104 46.4933 40.8606 47.6659 43.8238 47.5074C46.2007 47.3648 48.0072 46.4299 49.1006 45.6693C49.2749 45.5425 49.5284 45.59 49.6552 45.7644C49.7819 45.9387 49.7344 46.1922 49.5601 46.319C48.3875 47.143 46.4384 48.1571 43.8714 48.2997C43.6654 48.3156 43.4594 48.3156 43.2534 48.3156Z" fill="#FFDDAB"/>
<path d="M23.6522 28.2688C24.4128 30.8042 26.3143 32.8325 26.9957 32.5948C27.8514 32.2937 26.1717 28.5699 28.1842 25.3056C28.8655 24.2122 29.5469 23.8161 29.9747 22.3899C30.4343 20.8212 29.9747 19.9972 30.672 19.2524C31.4009 18.4759 32.1774 19.0464 33.4767 18.2858C34.7127 17.5569 34.38 16.8279 35.6952 15.7504C35.8695 15.6078 37.4066 14.3876 39.4824 14.3401C40.655 14.3243 40.655 14.7046 42.1921 14.7679C43.1904 14.8155 43.3172 14.657 45.4405 14.451C47.2787 14.2609 48.2136 14.1658 48.8474 14.3401C49.1644 14.4193 49.2911 14.4986 51.6522 15.9564C53.5854 17.1607 53.6647 17.2082 53.8073 17.3667C54.9957 18.5235 54.6313 19.189 55.8039 20.1715C56.6596 20.8845 57.0557 20.7102 57.642 21.4708C58.0065 21.9462 58.054 22.279 58.4502 23.4674C58.8939 24.7668 59.1316 25.1947 59.3217 25.7334C59.6386 26.6525 59.9714 28.3005 59.4326 31.0894C60.2408 29.9802 61.9997 27.1913 61.9205 23.4674C61.8095 18.5235 58.5294 15.3067 56.9448 13.738C53.015 9.87151 48.4196 8.95243 46.5181 8.60382C44.5532 8.23936 39.5616 7.38367 34.3641 9.79228C26.9323 13.215 21.7823 22.0571 23.6522 28.2688Z" fill="#565656"/>
<path d="M26.1083 40.5817C25.3318 41.4374 24.381 41.8652 23.3352 42.3089C22.7806 42.5466 23.0183 43.4657 23.5887 43.228C24.793 42.7209 25.8864 42.2455 26.7738 41.2631C27.1858 40.8035 26.5202 40.138 26.1083 40.5817Z" fill="#CE4263"/>
<path d="M26.6942 43.2454C26.1713 43.8634 25.7434 44.5131 25.0937 45.036C24.6183 45.4163 25.2839 46.0819 25.7593 45.7016C26.4089 45.1945 26.8368 44.5448 27.3597 43.911C27.7559 43.4514 27.0903 42.77 26.6942 43.2454Z" fill="#CE4263"/>
<path d="M27.1857 45.8593C27.0114 46.4931 26.6311 46.9685 26.1716 47.4281C25.7438 47.8718 26.4093 48.5373 26.8371 48.0936C27.4076 47.5073 27.883 46.9051 28.089 46.097C28.2633 45.5265 27.3442 45.273 27.1857 45.8593Z" fill="#CE4263"/>
<path d="M60.399 42.9585C61.4449 42.9585 62.3798 42.8317 63.3623 42.4514C63.9327 42.2296 63.6792 41.3105 63.1087 41.5323C62.2055 41.8651 61.3657 42.0077 60.399 42.0077C59.781 42.0077 59.781 42.9585 60.399 42.9585Z" fill="#CE4263"/>
<path d="M54.2823 16.4961C54.6784 15.5771 54.9795 14.6104 55.2964 13.6597C55.4866 13.0734 54.5675 12.8357 54.3774 13.4061C54.0921 14.2777 53.8227 15.165 53.4583 16.0049C53.2206 16.5754 54.0287 17.0507 54.2823 16.4961Z" fill="#CE4263"/>
<path d="M55.8672 19.2545C56.8021 17.9235 57.5944 16.5132 58.3392 15.0553C58.6086 14.5166 57.8004 14.0253 57.5152 14.58C56.7704 16.0378 55.9623 17.4322 55.0432 18.7792C54.6946 19.2862 55.5186 19.7616 55.8672 19.2545Z" fill="#CE4263"/>
<path d="M59.2578 21.0622C59.7965 20.4125 60.161 19.6836 60.5096 18.923C60.7631 18.3684 59.9391 17.8771 59.6856 18.4476C59.3845 19.129 59.0676 19.8104 58.5922 20.3967C58.1961 20.8562 58.8616 21.5218 59.2578 21.0622Z" fill="#CE4263"/>
<path d="M59.2583 23.3719C60.5894 22.9757 61.9046 22.3736 62.9346 21.407C63.3783 20.9791 62.7128 20.3136 62.2691 20.7414C61.3658 21.5813 60.1932 22.12 59.0206 22.4528C58.4185 22.6271 58.672 23.5462 59.2583 23.3719Z" fill="#CE4263"/>
<path d="M62.6809 41.2974C63.2989 41.0439 63.9169 40.7428 64.5191 40.4734C65.0737 40.2199 64.5983 39.3959 64.0437 39.6494C63.5049 39.903 62.9662 40.1565 62.4274 40.3784C61.8728 40.616 62.1263 41.5351 62.6809 41.2974Z" fill="#CE4263"/>
</svg>
