<svg width="88" height="79" viewBox="0 0 88 79" fill="none" xmlns="http://www.w3.org/2000/svg">
<path d="M63.3701 60.3668C63.3028 60.3668 63.3297 59.1962 62.926 57.7025C62.6838 56.8279 62.5358 56.2761 62.0514 55.7917C61.3651 55.1055 60.4635 54.9843 60.0464 54.9574C60.3693 54.8363 60.8807 54.5941 61.3247 54.1097C61.9706 53.4369 62.1456 52.6699 62.334 51.849C62.4551 51.3108 62.5762 50.5169 62.5358 49.5346C62.5223 49.3731 62.63 51.9567 64.1236 53.2485C64.8233 53.854 65.6576 54.029 66.169 54.0828C65.6711 54.2308 64.8368 54.5807 64.312 55.388C64.0833 55.7379 63.9218 56.0878 63.8007 56.9893C63.5047 58.927 63.4374 60.3668 63.3701 60.3668Z" fill="#232120"/>
<path d="M25.3427 11.2379C25.2755 11.2379 25.3024 10.0672 24.8987 8.5736C24.6565 7.69895 24.5085 7.14725 24.024 6.66282C23.3378 5.97655 22.4362 5.85545 22.019 5.82853C22.342 5.70743 22.8533 5.46522 23.2974 4.98079C23.9433 4.30798 24.1182 3.54097 24.3066 2.72014C24.4277 2.18189 24.5488 1.38797 24.5085 0.405668C24.495 0.244193 24.6026 2.82779 26.0963 4.11959C26.796 4.72512 27.6303 4.90005 28.1416 4.95388C27.6438 5.1019 26.8095 5.45176 26.2847 6.25913C26.0559 6.60899 25.8944 6.95886 25.7733 7.86043C25.4773 9.81158 25.4235 11.2379 25.3427 11.2379Z" fill="#232120"/>
<path d="M33.6451 10.4443C33.6182 10.4443 33.6182 9.8522 33.4164 9.11211C33.2953 8.68151 33.2145 8.39892 32.9723 8.15671C32.6359 7.82031 32.1784 7.75303 31.9766 7.73957C32.138 7.67229 32.3937 7.55118 32.609 7.32243C32.932 6.98602 33.0127 6.60925 33.1069 6.1921C33.1742 5.92298 33.228 5.53275 33.2011 5.03487C33.2011 4.95413 33.2549 6.24593 33.995 6.89182C34.3449 7.20132 34.762 7.28206 35.0177 7.30897C34.7755 7.38971 34.3583 7.56464 34.0892 7.95487C33.9681 8.1298 33.9008 8.30473 33.8335 8.74879C33.7124 9.73109 33.6855 10.4443 33.6451 10.4443Z" fill="#232120"/>
<path d="M9.92136 42.524C9.86754 42.524 9.88099 41.6359 9.58495 40.5055C9.41002 39.8462 9.28892 39.4291 8.91214 39.0523C8.40081 38.5275 7.71455 38.4467 7.3916 38.4198C7.64727 38.3256 8.02405 38.1373 8.36045 37.7874C8.84488 37.2761 8.97943 36.6974 9.12745 36.065C9.22164 35.6613 9.31584 35.0558 9.27547 34.3022C9.26201 34.1811 9.3562 36.1457 10.4731 37.1146C11.0113 37.5721 11.6438 37.7067 12.034 37.747C11.6572 37.8681 11.0248 38.1238 10.6211 38.7428C10.4462 39.0119 10.3251 39.281 10.2309 39.9538C10.0156 41.434 9.97519 42.524 9.92136 42.524Z" fill="#232120"/>
<path d="M5.05064 45.5372C5.02373 45.5372 5.03718 45.0662 4.8757 44.4742C4.78151 44.1243 4.71423 43.909 4.52585 43.7072C4.25672 43.438 3.89341 43.3842 3.73193 43.3708C3.8665 43.3169 4.06833 43.2227 4.24326 43.0343C4.49893 42.7652 4.56621 42.4557 4.64695 42.1328C4.70077 41.9175 4.74114 41.608 4.72768 41.2043C4.72768 41.137 4.76805 42.1731 5.36013 42.6845C5.64271 42.9267 5.97912 42.994 6.18096 43.0209C5.97912 43.0882 5.65618 43.2227 5.44088 43.5457C5.34669 43.6802 5.29285 43.8283 5.23903 44.1781C5.10446 44.972 5.09101 45.5372 5.05064 45.5372Z" fill="#232120"/>
<path d="M74.9154 30.1036C74.8885 30.1036 74.9019 29.6326 74.7405 29.0406C74.6463 28.6907 74.579 28.4754 74.3906 28.2736C74.1215 28.0044 73.7582 27.9506 73.5967 27.9372C73.7312 27.8833 73.9331 27.7891 74.108 27.6007C74.3637 27.3316 74.431 27.0221 74.5117 26.6992C74.5655 26.4839 74.6059 26.1744 74.5924 25.7707C74.5924 25.7034 74.6328 26.7395 75.2249 27.2509C75.5075 27.4931 75.8439 27.5604 76.0457 27.5873C75.8439 27.6546 75.5209 27.7891 75.3056 28.1121C75.2114 28.2466 75.1576 28.3947 75.1038 28.7445C74.9692 29.5384 74.9423 30.1036 74.9154 30.1036Z" fill="#232120"/>
<path d="M56.4941 60.6218C56.4537 60.6218 56.4672 59.9759 56.2519 59.1551C56.1173 58.6707 56.0366 58.3746 55.7675 58.1055C55.3907 57.7287 54.8928 57.6614 54.6641 57.648C54.839 57.5807 55.1216 57.4461 55.3638 57.1905C55.7137 56.8137 55.8079 56.3966 55.9155 55.939C55.9828 55.643 56.0501 55.2124 56.0232 54.6607C56.0232 54.5665 56.077 55.9929 56.8978 56.706C57.288 57.0425 57.7455 57.1366 58.0281 57.1636C57.759 57.2443 57.3015 57.4461 57.0055 57.8767C56.8709 58.0651 56.7901 58.267 56.7229 58.7514C56.5748 59.8413 56.5479 60.6218 56.4941 60.6218Z" fill="#232120"/>
<path d="M40.2392 54.9582C51.4164 54.9582 60.4773 44.8791 60.4773 32.4459C60.4773 20.0127 51.4164 9.93359 40.2392 9.93359C29.0619 9.93359 20.001 20.0127 20.001 32.4459C20.001 44.8791 29.0619 54.9582 40.2392 54.9582Z" fill="white"/>
<path d="M74.8081 77.713C73.3279 77.6995 71.0672 77.6861 68.2952 77.713C59.2796 77.8341 56.6287 78.3589 50.9502 78.3723C43.3878 78.3858 44.5719 77.4708 36.2694 77.3497C29.003 77.242 27.0923 77.9148 19.328 77.9283C13.7437 77.9417 9.19545 77.5919 6.24854 77.3093C6.7195 74.9948 7.74218 71.873 10.2854 69.4105C15.3853 64.472 21.777 66.9211 26.9442 63.0457C29.6759 61.0003 32.5689 56.8827 32.9457 47.7728C33.2956 47.7594 33.6454 47.7325 33.9818 47.6921C36.081 47.5441 38.1667 47.3961 40.2525 47.248C42.3382 47.3961 44.4239 47.5441 46.5096 47.6921C46.8595 47.719 47.1959 47.7459 47.5457 47.7728C47.9225 56.8693 50.8022 61.0003 53.5472 63.0457C58.6875 66.8942 64.8639 64.5528 70.206 69.4105C73.0049 71.9672 74.216 75.2639 74.8081 77.713Z" fill="#FFDEAD"/>
<path d="M46.3751 51.016C46.3751 54.0302 43.63 56.4792 40.2391 56.4792C36.8481 56.4792 34.103 54.0302 34.103 51.016C34.103 48.0018 36.8481 45.5527 40.2391 45.5527C43.63 45.5527 46.3751 48.0018 46.3751 51.016Z" fill="#232120"/>
<path d="M40.3061 14.2927C38.974 14.2792 37.8033 14.3465 36.7133 14.4811C30.6849 15.1943 26.1367 20.3076 26.1367 26.3764V38.7158C26.4462 40.2632 27.7111 45.5112 32.5823 49.252C35.4081 51.4185 38.2742 52.1989 39.9294 52.5084C40.037 52.5084 40.1447 52.5084 40.2523 52.495C40.36 52.495 40.4676 52.5084 40.5753 52.5084C42.2304 52.1989 45.11 51.4319 47.9224 49.252C52.7935 45.5112 54.0584 40.2632 54.3679 38.7158V26.3764C54.3679 20.3076 49.8197 15.1943 43.7913 14.4811C42.6745 14.36 41.5172 14.2927 40.3061 14.2927Z" fill="#FFDEAD"/>
<path d="M28.6669 34.6389C28.6669 37.1149 27.1867 39.1333 25.3566 39.1333C23.5266 39.1333 22.0464 37.1149 22.0464 34.6389C22.0464 32.163 23.5266 30.1445 25.3566 30.1445C27.1732 30.1445 28.6669 32.163 28.6669 34.6389Z" fill="#FFDEAD"/>
<path d="M55.1354 39.1333C56.9636 39.1333 58.4457 37.1211 58.4457 34.6389C58.4457 32.1567 56.9636 30.1445 55.1354 30.1445C53.3072 30.1445 51.8252 32.1567 51.8252 34.6389C51.8252 37.1211 53.3072 39.1333 55.1354 39.1333Z" fill="#FFDEAD"/>
<path d="M38.7993 40.2639C39.2837 39.9948 39.7547 39.9275 40.2391 39.9141C40.7235 39.9275 41.1945 39.9813 41.679 40.2639C41.1945 40.533 40.7235 40.6003 40.2391 40.6138C39.7547 40.6003 39.2837 40.533 38.7993 40.2639Z" fill="#232120"/>
<path d="M37.4805 66.6511C38.1129 67.445 39.1356 67.8218 40.1044 67.62C41.4904 67.3374 42.0152 66.059 42.0556 65.9648L37.4805 66.6511Z" fill="#232120"/>
<path d="M42.3516 69.0469C42.688 69.2084 43.2128 69.4237 43.8587 69.6255C46.052 70.3118 47.8955 70.1772 49.1739 70.0696C53.8163 69.6793 58.1088 69.0334 59.5486 68.8047C56.2249 68.9123 52.8878 69.0334 49.5641 69.1411L42.3516 69.0469Z" fill="#232120"/>
<path d="M38.1268 69.0469C37.7904 69.2084 37.2656 69.4237 36.6197 69.6255C34.4263 70.3118 32.5828 70.1772 31.3044 70.0696C26.662 69.6793 22.3695 69.0334 20.9297 68.8047C24.2534 68.9123 27.5905 69.0334 30.9142 69.1411L38.1268 69.0469Z" fill="#232120"/>
<path d="M40.4009 49.0112C40.3606 49.0112 40.3336 49.0112 40.2933 49.0112C39.8088 48.9977 39.3513 48.8901 38.9073 48.6883C38.7323 48.6075 38.6651 48.4057 38.7458 48.2442C38.8266 48.0693 39.0284 48.002 39.1899 48.0827C39.5397 48.2442 39.9165 48.3384 40.3067 48.3519C40.7373 48.3788 41.1545 48.2846 41.5447 48.1231C41.7196 48.0424 41.908 48.1231 41.9888 48.298C42.056 48.473 41.9888 48.6613 41.8138 48.7421C41.3698 48.917 40.8853 49.0112 40.4009 49.0112Z" fill="#0E82FD"/>
<path d="M44.424 44.7194C44.2894 44.7598 44.0876 44.827 43.8454 44.9078C42.1499 45.4191 41.3156 45.6748 40.3333 45.6613C39.5124 45.6613 38.5974 45.3922 36.7808 44.8539C36.4713 44.7598 36.2157 44.679 36.0542 44.6252C36.3502 44.0869 37.05 43.0104 38.3821 42.3511C38.8127 42.1358 39.5797 41.759 40.6159 41.8263C42.0153 41.907 42.9438 42.7548 43.2802 43.0643C43.9126 43.6563 44.249 44.3157 44.424 44.7194Z" fill="#BC5E5C"/>
<path d="M44.3839 44.6911C43.8457 44.1932 42.4866 45.4581 40.5489 45.5792C38.2883 45.7138 36.4851 44.1125 36.0411 44.6373C35.893 44.8122 36.4313 46.9114 38.4901 47.6111C39.2436 47.8668 39.8357 47.9206 40.3336 47.9206C41.0199 47.9071 42.2444 47.8398 43.3882 46.8979C44.5723 45.9291 44.5992 44.8795 44.3839 44.6911Z" fill="#BC5E5C"/>
<path d="M51.1924 34.1023C50.7752 34.5464 49.7391 35.5421 48.0571 35.9458C45.6888 36.511 43.7914 35.4749 43.3608 35.2192C43.4012 33.6313 44.1682 32.1781 45.3927 31.5591C47.2093 30.6306 49.9679 31.5591 51.1924 34.1023Z" fill="#BC5E5C"/>
<path d="M46.55 36.4026C46.2943 36.4026 46.0252 36.3892 45.756 36.3488C44.8276 36.2277 43.9395 35.9048 43.1186 35.38C42.9572 35.2858 42.9168 35.0705 43.011 34.9225C43.1052 34.761 43.3205 34.7206 43.4685 34.8148C44.2086 35.2858 45.0025 35.5683 45.8368 35.676C48.5819 36.0393 50.6676 34.2227 51.2327 33.6576C51.3673 33.523 51.5826 33.523 51.7037 33.6576C51.8383 33.7921 51.8383 34.0074 51.7037 34.1285C51.152 34.7072 49.2008 36.4026 46.55 36.4026Z" fill="#0E82FD"/>
<path d="M29.124 34.1023C29.5412 34.5464 30.5773 35.5421 32.2593 35.9458C34.6276 36.511 36.525 35.4749 36.9556 35.2192C36.9152 33.6313 36.1482 32.1781 34.9237 31.5591C33.1071 30.6306 30.3485 31.5591 29.124 34.1023Z" fill="#BC5E5C"/>
<path d="M33.753 36.4028C31.1021 36.4028 29.1644 34.7074 28.5858 34.1422C28.4512 34.0076 28.4512 33.8058 28.5858 33.6712C28.7203 33.5367 28.9222 33.5367 29.0567 33.6712C29.6219 34.2364 31.7076 36.053 34.4527 35.6897C35.287 35.582 36.0809 35.286 36.821 34.8285C36.9825 34.7208 37.1843 34.7746 37.2785 34.9361C37.3727 35.0976 37.3323 35.2994 37.1709 35.3936C36.35 35.9184 35.4619 36.2414 34.5334 36.3625C34.2778 36.3894 34.0221 36.4028 33.753 36.4028Z" fill="#0E82FD"/>
<path d="M53.9511 29.3651C52.7266 29.0018 51.0176 28.625 48.9454 28.5443C47.1692 28.477 45.6621 28.6519 44.5317 28.8672C44.5452 28.6385 44.599 28.3559 44.6932 28.0733C44.922 27.3601 45.3122 26.8622 45.6082 26.5527C47.0211 26.62 48.1918 26.7546 49.0396 26.8622C51.1118 27.1448 51.677 27.3736 52.0403 27.5754C53.063 28.1002 53.6416 28.8672 53.9511 29.3651Z" fill="#232120"/>
<path d="M44.8139 26.4716C44.6793 26.6869 44.4909 26.9964 44.3429 27.4001C44.0872 28.1132 44.0603 28.813 44.1411 28.8399C44.2353 28.8533 44.5178 28.019 44.5986 27.7634C44.7197 27.4001 44.8139 27.0771 45.0695 26.6465C45.1368 26.5389 45.1906 26.4581 45.231 26.4043L44.8139 26.4716Z" fill="#232120"/>
<path d="M28.0073 29.5391C29.2184 29.1624 30.9273 28.7587 32.9996 28.651C34.7758 28.5568 36.2829 28.7183 37.4132 28.9202C37.3863 28.6914 37.346 28.4088 37.2518 28.1262C37.023 27.4265 36.6193 26.9152 36.3098 26.6191C34.8969 26.6999 33.7262 26.8479 32.8785 26.969C30.8062 27.2785 30.2411 27.5207 29.8912 27.7226C28.882 28.2608 28.3034 29.0278 28.0073 29.5391Z" fill="#232120"/>
<path d="M37.1034 26.5109C37.2514 26.7262 37.4398 27.0356 37.5878 27.4393C37.8435 28.1391 37.8839 28.8522 37.8166 28.8657C37.7358 28.8792 37.4398 28.0449 37.3456 27.8027C37.211 27.4393 37.1303 27.1164 36.8612 26.6992C36.7939 26.5916 36.7401 26.5109 36.6997 26.457L37.1034 26.5109Z" fill="#232120"/>
<path d="M40.104 45.8881C37.6416 45.8881 35.7846 44.8923 34.8696 44.2868C34.7216 44.1791 34.6677 43.9773 34.7754 43.8158C34.883 43.6544 35.0849 43.6274 35.2463 43.7216C36.1614 44.3406 38.0722 45.3364 40.5885 45.2018C42.6069 45.0807 44.1409 44.2868 45.0694 43.6409C45.2174 43.5332 45.4327 43.5736 45.5404 43.7216C45.648 43.8697 45.6076 44.085 45.4596 44.1926C44.4639 44.8923 42.8087 45.7535 40.6288 45.8746C40.4539 45.8881 40.279 45.8881 40.104 45.8881Z" fill="#0E82FD"/>
<path d="M23.4593 28.8661C24.1052 31.0191 25.7199 32.7415 26.2985 32.5396C27.0252 32.284 25.5988 29.1217 27.3077 26.3498C27.8864 25.4213 28.465 25.0849 28.8283 23.8738C29.2185 22.5416 28.8283 21.8419 29.4204 21.2095C30.0393 20.5501 30.6987 21.0345 31.8021 20.3886C32.8517 19.7697 32.5691 19.1507 33.686 18.2356C33.834 18.1145 35.1393 17.0784 36.902 17.038C37.8978 17.0246 37.8978 17.3475 39.2031 17.4014C40.0508 17.4417 40.1584 17.3072 41.9616 17.1322C43.5225 16.9708 44.3164 16.89 44.8547 17.038C45.1238 17.1053 45.2314 17.1726 47.2364 18.4106C48.8781 19.4333 48.9454 19.4736 49.0665 19.6082C50.0757 20.5905 49.7662 21.1557 50.762 21.9899C51.4886 22.5955 51.825 22.4474 52.3229 23.0933C52.6324 23.497 52.6727 23.7796 53.0091 24.7888C53.3859 25.8922 53.5878 26.2556 53.7492 26.7131C54.0184 27.4935 54.3009 28.893 53.8434 31.2613C54.5297 30.3193 56.0233 27.951 55.9561 24.7888C55.8619 20.5905 53.0764 17.8589 51.7308 16.5267C48.3937 13.2434 44.4913 12.4629 42.8766 12.1669C41.208 11.8574 36.9693 11.1308 32.5557 13.1761C26.2447 16.0827 21.8714 23.5912 23.4593 28.8661Z" fill="#565656"/>
<path d="M25.5449 39.3214C24.8856 40.048 24.0782 40.4113 23.1901 40.7881C22.7191 40.9899 22.921 41.7704 23.4054 41.5685C24.428 41.1379 25.3565 40.7343 26.1101 39.9C26.4599 39.5097 25.8948 38.9446 25.5449 39.3214Z" fill="#CE4263"/>
<path d="M26.0424 41.5824C25.5983 42.1072 25.235 42.6589 24.6833 43.103C24.2796 43.4259 24.8448 43.9911 25.2485 43.6681C25.8002 43.2375 26.1635 42.6858 26.6076 42.1476C26.944 41.7573 26.3788 41.1787 26.0424 41.5824Z" fill="#CE4263"/>
<path d="M26.4598 43.8031C26.3117 44.3413 25.9888 44.745 25.5986 45.1353C25.2352 45.512 25.8004 46.0772 26.1637 45.7004C26.6481 45.2025 27.0518 44.6912 27.2267 44.0049C27.3748 43.5205 26.5943 43.3052 26.4598 43.8031Z" fill="#CE4263"/>
<path d="M54.6641 41.3398C55.5522 41.3398 56.3461 41.2321 57.1804 40.9092C57.6649 40.7208 57.4496 39.9403 56.9651 40.1287C56.1981 40.4113 55.4849 40.5324 54.6641 40.5324C54.1393 40.5324 54.1393 41.3398 54.6641 41.3398Z" fill="#CE4263"/>
<path d="M49.4698 18.8696C49.8062 18.0891 50.0619 17.2683 50.331 16.4609C50.4925 15.9631 49.7121 15.7612 49.5506 16.2456C49.3084 16.9857 49.0796 17.7393 48.7701 18.4525C48.5683 18.9369 49.2545 19.3406 49.4698 18.8696Z" fill="#CE4263"/>
<path d="M50.8157 21.21C51.6096 20.0797 52.2824 18.8821 52.9149 17.6441C53.1436 17.1866 52.4573 16.7695 52.2151 17.2404C51.5827 18.4784 50.8964 19.6625 50.116 20.8063C49.8199 21.2369 50.5196 21.6406 50.8157 21.21Z" fill="#CE4263"/>
<path d="M53.6952 22.7448C54.1527 22.1931 54.4622 21.5741 54.7583 20.9282C54.9736 20.4572 54.2738 20.0401 54.0585 20.5245C53.8029 21.1031 53.5337 21.6817 53.13 22.1796C52.7936 22.5698 53.3588 23.135 53.6952 22.7448Z" fill="#CE4263"/>
<path d="M53.6953 24.7083C54.8256 24.3719 55.9425 23.8605 56.8171 23.0397C57.1939 22.6764 56.6287 22.1112 56.252 22.4745C55.485 23.1877 54.4892 23.6452 53.4934 23.9278C52.9821 24.0758 53.1974 24.8563 53.6953 24.7083Z" fill="#CE4263"/>
<path d="M56.6023 39.9284C57.1271 39.7131 57.6519 39.4574 58.1632 39.2287C58.6342 39.0134 58.2305 38.3136 57.7595 38.5289C57.302 38.7442 56.8445 38.9595 56.387 39.1479C55.916 39.3498 56.1313 40.1302 56.6023 39.9284Z" fill="#CE4263"/>
<path d="M6.98855 10.0676C7.04238 9.9734 7.10967 9.95994 7.16349 9.98685L15.3718 14.6023C15.4256 14.6293 15.4525 14.71 15.4122 14.7638C15.3583 14.858 15.2911 14.8715 15.2372 14.8446L7.02892 10.2291C6.9751 10.2022 6.96164 10.1214 6.98855 10.0676Z" fill="#2F2F2F"/>
<path d="M6.14113 10.9283L7.29837 8.86949C7.35219 8.76184 7.48675 8.72147 7.5944 8.78875C7.75588 8.88295 7.79625 9.01751 7.74242 9.12516L6.58519 11.184C6.53136 11.2916 6.3968 11.332 6.28915 11.2647C6.12767 11.1705 6.0873 11.0359 6.14113 10.9283Z" fill="#3C1717"/>
<path d="M14.6183 15.7335L15.816 13.6209C15.8832 13.4998 16.0447 13.4459 16.1658 13.5267L16.2331 13.567C16.3542 13.6343 16.408 13.7958 16.3273 13.9169L15.1297 16.0295C15.0624 16.1506 14.9009 16.2045 14.7798 16.1237L14.7126 16.0834C14.5914 16.0161 14.5511 15.8546 14.6183 15.7335Z" fill="white"/>
<path d="M22.3154 20.3614C19.8663 18.9754 17.4173 17.6028 14.9683 16.2168C15.3854 15.3691 15.7891 14.5214 16.2063 13.6602C18.7226 15.0596 21.2254 16.4456 23.7417 17.845C23.2573 18.6928 22.7863 19.5271 22.3154 20.3614Z" fill="#E54E6B"/>
<path d="M22.3156 20.5355C22.2887 20.5355 22.2618 20.522 22.2349 20.5086L9.38416 13.2826C9.34379 13.2556 9.31688 13.2287 9.30343 13.1749C9.28997 13.1345 9.30342 13.0807 9.31688 13.0403L10.7298 10.5375C10.7567 10.4971 10.7836 10.4702 10.8374 10.4567C10.8778 10.4433 10.9316 10.4567 10.972 10.4702L23.8227 17.7097C23.9034 17.75 23.9304 17.8577 23.89 17.9384L22.4771 20.4413C22.4502 20.4816 22.4232 20.5086 22.3694 20.522C22.3425 20.5355 22.3291 20.5355 22.3156 20.5355ZM9.69365 13.0673L22.2483 20.1318L23.4998 17.925L10.9451 10.8604L9.69365 13.0673Z" fill="#0E82FD"/>
<path d="M20.9839 17.5087C20.957 17.5087 20.9301 17.4952 20.9032 17.4818C20.8225 17.4414 20.7956 17.3337 20.8359 17.253L21.28 16.4725C21.3204 16.3918 21.428 16.3649 21.5087 16.4053C21.5895 16.4456 21.6164 16.5533 21.576 16.634L21.132 17.4145C21.0916 17.4818 21.0378 17.5087 20.9839 17.5087Z" fill="#0E82FD"/>
<path d="M19.732 17.6418C19.7051 17.6418 19.6782 17.6283 19.6513 17.6149C19.5705 17.5745 19.5436 17.4668 19.584 17.3861L20.351 16.0136C20.3913 15.9328 20.499 15.9059 20.5797 15.9463C20.6605 15.9866 20.6874 16.0943 20.647 16.175L19.88 17.5476C19.8396 17.6014 19.7858 17.6418 19.732 17.6418Z" fill="#0E82FD"/>
<path d="M19.1939 16.4321C19.167 16.4321 19.1401 16.4186 19.1132 16.4051C19.0324 16.3648 19.0055 16.2571 19.0459 16.1764L19.4361 15.4901C19.4765 15.4094 19.5841 15.3825 19.6649 15.4228C19.7456 15.4632 19.7725 15.5709 19.7322 15.6516L19.3419 16.3379C19.3016 16.4051 19.2477 16.4321 19.1939 16.4321Z" fill="#0E82FD"/>
<path d="M18.4673 16.0946C18.4404 16.0946 18.4135 16.0812 18.3866 16.0677C18.3059 16.0273 18.279 15.9197 18.3193 15.8389L18.7634 15.0585C18.8038 14.9777 18.9114 14.9508 18.9921 14.9912C19.0729 15.0316 19.0998 15.1392 19.0594 15.22L18.6154 16.0004C18.5885 16.0677 18.5346 16.0946 18.4673 16.0946Z" fill="#0E82FD"/>
<path d="M17.2296 16.2297C17.2026 16.2297 17.1757 16.2162 17.1488 16.2027C17.0681 16.1624 17.0412 16.0547 17.0815 15.974L17.8485 14.6015C17.8889 14.5207 17.9966 14.4938 18.0773 14.5342C18.158 14.5745 18.1849 14.6822 18.1446 14.7629L17.3776 16.1355C17.3372 16.1893 17.2834 16.2297 17.2296 16.2297Z" fill="#0E82FD"/>
<path d="M16.6915 15.018C16.6645 15.018 16.6376 15.0045 16.6107 14.9911C16.53 14.9507 16.5031 14.8431 16.5435 14.7623L16.9337 14.0761C16.974 13.9953 17.0817 13.9684 17.1624 14.0088C17.2432 14.0491 17.2701 14.1568 17.2297 14.2375L16.8395 14.9238C16.7991 14.9911 16.7453 15.018 16.6915 15.018Z" fill="#0E82FD"/>
<path d="M15.4258 15.2062C15.3989 15.2062 15.372 15.1928 15.3451 15.1793C15.2644 15.1389 15.2375 15.0313 15.2778 14.9506L16.0448 13.578C16.0852 13.4973 16.1928 13.4704 16.2736 13.5107C16.3543 13.5511 16.3812 13.6588 16.3409 13.7395L15.5739 15.112C15.5335 15.1793 15.4797 15.2062 15.4258 15.2062Z" fill="#0E82FD"/>
<path d="M14.8878 14.0102C14.8608 14.0102 14.8339 13.9967 14.807 13.9833C14.7263 13.9429 14.6994 13.8353 14.7397 13.7545L15.13 13.0682C15.1703 12.9875 15.278 12.9606 15.3587 13.001C15.4395 13.0413 15.4664 13.149 15.426 13.2297L15.0358 13.916C14.9954 13.9698 14.9416 14.0102 14.8878 14.0102Z" fill="#0E82FD"/>
<path d="M14.1612 13.6727C14.1343 13.6727 14.1074 13.6593 14.0805 13.6458C13.9997 13.6055 13.9728 13.4978 14.0132 13.4171L14.4572 12.6366C14.4976 12.5559 14.6052 12.529 14.686 12.5693C14.7667 12.6097 14.7936 12.7173 14.7533 12.7981L14.3092 13.5785C14.2823 13.6458 14.2285 13.6727 14.1612 13.6727Z" fill="#0E82FD"/>
<path d="M12.9102 13.8078C12.8833 13.8078 12.8564 13.7943 12.8295 13.7809C12.7487 13.7405 12.7218 13.6329 12.7622 13.5521L13.5292 12.1796C13.5696 12.0988 13.6772 12.0719 13.758 12.1123C13.8387 12.1527 13.8656 12.2603 13.8253 12.3411L13.0582 13.7136C13.0313 13.7674 12.9775 13.8078 12.9102 13.8078Z" fill="#0E82FD"/>
<path d="M11.8868 13.4575C11.8599 13.4575 11.833 13.444 11.806 13.4305C11.7253 13.3902 11.6984 13.2825 11.7388 13.2018L12.129 12.5155C12.1694 12.4348 12.277 12.4079 12.3578 12.4482C12.4385 12.4886 12.4654 12.5963 12.425 12.677L12.0348 13.3633C12.0079 13.4305 11.9406 13.4575 11.8868 13.4575Z" fill="#0E82FD"/>
<path d="M23.5554 20.1999L24.2222 19.0156L23.4014 18.5535L22.7346 19.7378L23.5554 20.1999Z" fill="#232120"/>
<path d="M24.8855 20.5746L25.2354 19.9531L24.0628 19.293L23.7129 19.9144L24.8855 20.5746Z" fill="#232120"/>
<path d="M34.5471 25.7977L24.9932 20.4152L25.1546 20.1191L34.722 25.5016L34.5471 25.7977Z" fill="#EBEBEC"/>
<path d="M2.0772 26.3225C2.18485 23.5505 2.29249 20.792 2.40014 18.02C1.983 15.6517 1.56586 13.2969 1.14872 10.9286C3.0595 9.86554 4.28402 8.7083 5.03757 7.86056C6.03333 6.74369 6.6254 5.69411 7.02909 5.84212C7.52697 6.01706 7.28475 7.8471 7.25784 8.0624C7.02909 9.67715 6.30245 10.9151 5.68346 11.736C5.93913 13.1489 6.20826 14.5483 6.46393 15.9612C7.50006 16.7013 8.53619 17.4414 9.57232 18.1815C10.447 16.5129 11.3082 14.8443 12.1828 13.1758C12.2232 9.62333 12.7345 6.99936 13.515 6.90517C14.282 6.82443 15.345 9.19273 16.1793 12.4626C17.1886 13.3238 18.5611 14.6829 19.7722 16.6475C20.889 18.4506 21.7368 19.8366 21.6426 21.707C21.5215 24.183 19.7856 25.8919 19.1263 26.484C15.5738 28.5697 12.0214 30.642 8.45545 32.7277C7.72881 33.2794 7.00218 33.8176 6.27554 34.3694C4.36476 32.1087 2.46743 29.8481 0.556641 27.5874C1.06798 27.1568 1.56587 26.7397 2.0772 26.3225Z" fill="#0E82FD"/>
<path d="M15.9372 12.5703C16.1391 13.4315 16.2064 14.2389 16.2467 15.127C16.2736 15.6921 16.5293 16.3515 16.4755 16.9032C16.4486 17.1589 16.8523 17.1589 16.8792 16.9032C16.9464 16.2438 16.6639 15.5038 16.6369 14.8175C16.61 13.9967 16.5293 13.27 16.3275 12.4626C16.2736 12.2204 15.8834 12.3146 15.9372 12.5703Z" fill="white"/>
<path d="M18.5747 15.3417C18.79 16.1895 18.6958 17.118 18.8438 17.9792C18.8841 18.2348 19.2744 18.1272 19.234 17.8715C19.086 17.0103 19.1802 16.0818 18.9649 15.2341C18.8976 14.9784 18.5074 15.0861 18.5747 15.3417Z" fill="white"/>
<path d="M20.4987 18.4648C20.6871 19.2587 20.7813 20.0526 20.9428 20.8465C20.9966 21.1022 21.3869 20.9945 21.333 20.7389C21.1716 19.945 21.0774 19.151 20.889 18.3571C20.8352 18.1015 20.4449 18.2091 20.4987 18.4648Z" fill="white"/>
<path d="M12.0213 13.6468C12.0751 14.0774 12.1424 14.508 12.2366 14.9252C12.2904 15.1808 12.6807 15.0732 12.6268 14.8175C12.5461 14.4273 12.4788 14.0371 12.425 13.6468C12.3981 13.3912 11.9809 13.3912 12.0213 13.6468Z" fill="white"/>
<path d="M6.53068 15.7724C6.39612 15.8262 6.275 15.88 6.14044 15.9338C5.89822 16.028 6.00588 16.4183 6.24809 16.3241C6.38265 16.2702 6.50377 16.2164 6.63833 16.1626C6.86709 16.0684 6.77289 15.6782 6.53068 15.7724Z" fill="white"/>
<path d="M5.61626 11.8038C5.36059 11.9114 5.10494 11.9787 4.84927 12.0998C4.60705 12.2074 4.82235 12.5573 5.0511 12.4496C5.27986 12.342 5.49516 12.2882 5.72391 12.194C5.96613 12.0863 5.85847 11.6961 5.61626 11.8038Z" fill="white"/>
<path d="M9.49142 18.1003C9.45105 18.948 9.1281 19.7419 9.08773 20.5762C9.07428 20.8319 9.47797 20.8319 9.49142 20.5762C9.53179 19.7419 9.85475 18.948 9.89511 18.1003C9.90857 17.8312 9.50488 17.8312 9.49142 18.1003Z" fill="white"/>
<path d="M2.27911 27.0213C2.66935 27.8691 3.47673 28.5688 3.98806 29.3627C4.12263 29.578 4.47248 29.3762 4.33792 29.1609C3.84004 28.3804 3.0192 27.6538 2.62897 26.8195C2.52132 26.5773 2.17146 26.7926 2.27911 27.0213Z" fill="white"/>
<path d="M2.80357 26.4704C3.12652 26.4973 3.53021 26.9683 3.77242 27.1836C4.08191 27.4662 4.37794 27.7488 4.64707 28.0852C4.80854 28.287 5.09113 28.0044 4.92966 27.8026C4.55288 27.3316 4.10882 26.9145 3.63785 26.5377C3.39564 26.3359 3.12652 26.0936 2.80357 26.0667C2.5479 26.0533 2.5479 26.457 2.80357 26.4704Z" fill="white"/>
<path d="M60.1004 7.03949C58.5126 7.53737 56.9113 8.04871 55.3234 8.54659C47.3843 17.2797 43.8318 22.1105 44.6526 23.0255C44.8949 23.2946 45.5004 23.2273 46.4827 22.8237C46.2809 22.9986 44.5584 24.5999 44.9083 25.2458C45.1909 25.7571 46.7518 25.5822 48.7703 24.8152C48.2185 25.3669 48.0032 25.7706 48.1109 26.0262C48.3531 26.5914 50.1562 26.4838 53.5068 25.7033C53.1704 25.8648 52.7937 26.0935 52.834 26.2819C52.9013 26.6318 54.3411 26.6721 54.8256 26.6721C58.8624 26.7529 62.7109 24.9632 62.7109 24.9632C67.8243 22.5949 72.0092 19.1366 74.068 17.3066C75.1983 16.7549 76.3421 16.2166 77.4724 15.6649C77.4724 14.4135 77.3647 12.8526 76.9745 11.1167C76.3824 8.4524 75.3598 6.39359 74.512 4.99414C73.7316 5.68041 72.9376 6.36668 72.1572 7.05295C71.0941 7.14714 70.0445 7.25479 68.9815 7.34898C66.0346 7.26824 63.0742 7.1606 60.1004 7.03949Z" fill="#0E82FD"/>
<path d="M47.0749 22.4741C48.1111 21.9358 49.0261 21.0477 50.0622 20.4556C51.1656 19.8232 52.1345 19.0158 53.1975 18.343C53.4128 18.2085 53.211 17.8586 52.9957 17.9932C51.9192 18.666 50.9638 19.4733 49.8604 20.1058C48.8242 20.6979 47.9227 21.5725 46.8731 22.1242C46.6443 22.2453 46.8462 22.5952 47.0749 22.4741Z" fill="white"/>
<path d="M54.7446 17.0502C55.9557 16.0813 57.1802 15.1663 58.3105 14.1032C58.4989 13.9283 58.2163 13.6457 58.0279 13.8207C56.8976 14.8837 55.6731 15.7987 54.462 16.7676C54.2602 16.9156 54.5428 17.1982 54.7446 17.0502Z" fill="white"/>
<path d="M49.2409 24.6674C51.4343 23.1738 53.9506 22.3395 56.1844 20.8997C56.3997 20.7651 56.1978 20.4152 55.9825 20.5498C53.7623 21.9762 51.2325 22.8239 49.0391 24.3175C48.8104 24.4656 49.0122 24.8154 49.2409 24.6674Z" fill="white"/>
<path d="M57.2209 20.3207C58.6338 19.5672 60.0198 18.7598 61.4462 18.0332C61.675 17.9121 61.4731 17.5622 61.2443 17.6833C59.8314 18.4234 58.432 19.2308 57.0191 19.9709C56.7903 20.092 56.9922 20.4418 57.2209 20.3207Z" fill="white"/>
<path d="M54.1261 25.5284C54.3952 25.3131 54.8527 25.192 55.1622 25.044C55.6197 24.8287 56.0234 24.5596 56.4405 24.3039C57.2883 23.7926 58.1764 23.3485 59.0241 22.8372C59.2529 22.7026 59.0376 22.3527 58.8223 22.4873C57.9207 23.0255 56.9923 23.4965 56.0907 24.0482C55.4044 24.4654 54.4356 24.7345 53.83 25.2458C53.6416 25.4073 53.9242 25.6899 54.1261 25.5284Z" fill="white"/>
<path d="M61.2578 21.7867C61.8768 21.3561 62.5496 20.939 63.2224 20.6026C63.6799 20.3738 64.2316 20.0508 64.568 19.6606C64.7295 19.4588 64.4469 19.1762 64.2854 19.378C63.9221 19.8086 63.3435 20.0778 62.8591 20.3334C62.2401 20.6698 61.6345 21.0466 61.0559 21.4368C60.8406 21.5849 61.0425 21.9347 61.2578 21.7867Z" fill="white"/>
<path d="M81.6977 47.7465C79.7062 43.6424 77.7147 39.5382 75.7232 35.4206C73.1126 34.5863 70.4887 33.752 67.8782 32.9043C64.9582 33.8193 62.0516 34.7209 59.1316 35.6359C58.4319 35.8512 56.4807 36.2684 55.0947 37.8966C54.9602 38.0446 54.0048 39.2018 54.3143 39.6728C54.7583 40.3321 57.5169 39.4037 57.5169 39.4171C55.9156 39.915 54.7449 40.6685 54.7987 41.2875C54.866 41.9603 56.4269 42.5928 58.6876 42.5793C57.0459 42.835 56.2116 43.1579 56.1847 43.5347C56.1174 44.3152 59.3604 45.3513 65.8866 46.6566C67.0439 48.3117 69.1969 50.9491 72.7359 52.981C74.7408 54.1248 76.6247 54.7707 78.1049 55.134C78.9796 56.6007 79.8408 58.054 80.7154 59.5207C81.4151 59.0363 82.1552 58.4577 82.8953 57.7849C85.3309 55.5646 86.8245 53.1425 87.7396 51.2586C85.7211 50.0879 83.7027 48.9172 81.6977 47.7465Z" fill="#0E82FD"/>
<path d="M63.572 45.1076C61.5402 45.1614 59.5217 46.4263 59.6563 47.0049C59.7505 47.4086 60.9481 47.6912 65.1733 47.3278C65.8865 47.6239 66.6131 47.9199 67.3263 48.216C67.2994 47.9334 67.0976 46.5205 65.8865 45.6593C65.0522 45.0807 64.1507 45.0941 63.572 45.1076Z" fill="#BCD2E8"/>
<path d="M75.3736 39.8605C75.1718 40.1027 74.6066 40.0623 74.3106 40.2103C74.0818 40.3314 74.2837 40.6678 74.5124 40.5602C74.8488 40.3987 75.4005 40.4525 75.6562 40.143C75.8311 39.9412 75.5486 39.6586 75.3736 39.8605Z" fill="white"/>
<path d="M57.6114 39.7791C58.19 39.7522 58.8225 39.6311 59.3876 39.51C60.0873 39.3619 60.7871 39.2408 61.5002 39.1197C61.7559 39.0794 61.6482 38.6891 61.3926 38.7295C60.7467 38.8371 60.1412 38.9044 59.5087 39.0659C58.9166 39.2274 58.2304 39.335 57.6114 39.3619C57.3557 39.3888 57.3423 39.7925 57.6114 39.7791Z" fill="white"/>
<path d="M65.187 38.7029C64.6757 38.6894 64.1778 38.6625 63.6665 38.6759C63.2224 38.6894 62.4554 38.797 62.0652 38.5817C61.8364 38.4606 61.6346 38.8105 61.8633 38.9316C62.2536 39.1469 62.8187 39.0796 63.2359 39.0796C63.8952 39.0796 64.5411 39.0931 65.187 39.1065C65.4561 39.1065 65.4561 38.7029 65.187 38.7029Z" fill="white"/>
<path d="M59.0104 42.672C59.6698 42.6989 60.3291 42.5374 60.975 42.497C61.3518 42.4701 61.7286 42.349 62.1053 42.3355C62.4283 42.3221 62.7378 42.4432 63.0607 42.4567C63.3164 42.4567 63.3164 42.053 63.0607 42.053C62.7782 42.053 62.509 41.9453 62.2265 41.9453C61.8093 41.9453 61.4056 42.0799 60.9885 42.1068C60.3426 42.1472 59.6698 42.3086 59.0239 42.2817C58.7547 42.2548 58.7547 42.6585 59.0104 42.672Z" fill="white"/>
<path d="M67.0169 42.1737C66.4114 42.093 65.8058 41.9853 65.1869 41.9719C64.5948 41.9584 63.9623 41.9719 63.3837 41.8508C63.1281 41.797 63.0204 42.1872 63.2761 42.241C63.8143 42.3621 64.3929 42.3487 64.9446 42.3756C65.6444 42.4025 66.3172 42.4967 67.0035 42.5909C67.2726 42.6178 67.2726 42.2141 67.0169 42.1737Z" fill="white"/>
<path d="M62.576 45.9158C63.9082 45.7408 65.1596 45.9158 66.4918 46.0369C66.7475 46.0638 66.7475 45.6601 66.4918 45.6332C65.1731 45.4986 63.9082 45.3371 62.576 45.5121C62.3204 45.539 62.3204 45.9427 62.576 45.9158Z" fill="white"/>
<path d="M66.7883 45.9422C67.9455 46.1709 69.0893 46.5881 70.2465 46.7361C70.5022 46.7765 70.6098 46.3862 70.3542 46.3459C69.1969 46.1844 68.0532 45.7807 66.8959 45.552C66.6403 45.4981 66.5326 45.8884 66.7883 45.9422Z" fill="white"/>
<path d="M60.3292 35.8362L61.3519 38.9042C61.4057 39.0522 61.3519 39.2137 61.2308 39.2541L61.0962 39.2944C60.9751 39.3348 60.8405 39.2406 60.7867 39.0926L59.764 36.0246C59.7102 35.8766 59.764 35.7151 59.8851 35.6747L60.0197 35.6343C60.1274 35.5805 60.2754 35.6747 60.3292 35.8362Z" fill="white"/>
<path d="M51.6904 38.3926C54.3682 37.5045 57.046 36.603 59.7103 35.7148C60.1544 36.8586 60.5985 37.9889 61.0425 39.1327C58.3244 40.0612 55.5927 40.9897 52.8746 41.9182C52.4844 40.7475 52.0807 39.5768 51.6904 38.3926Z" fill="#0E82FD"/>
<path d="M52.8745 42.0941C52.8072 42.0941 52.7399 42.0538 52.713 41.9865L51.5289 38.4609C51.5154 38.4206 51.5154 38.3668 51.5423 38.3264C51.5558 38.286 51.5961 38.2591 51.6365 38.2456L65.6579 33.5629C65.7521 33.536 65.8463 33.5763 65.8732 33.6705L67.0574 37.1961C67.0708 37.2364 67.0708 37.2903 67.0439 37.3306C67.0304 37.371 66.9901 37.3979 66.9497 37.4114L52.9283 42.0941C52.9148 42.0941 52.9014 42.0941 52.8745 42.0941ZM51.9056 38.5013L52.9821 41.7174L66.694 37.1422L65.6175 33.9262L51.9056 38.5013Z" fill="#0E82FD"/>
<path d="M55.3909 41.2607C55.3236 41.2607 55.2563 41.2203 55.2294 41.1531L54.8661 40.0497C54.8392 39.9555 54.8796 39.8613 54.9737 39.8344C55.0679 39.8074 55.1621 39.8478 55.189 39.942L55.5524 41.0454C55.5793 41.1396 55.5389 41.2338 55.4447 41.2607C55.4312 41.2607 55.4178 41.2607 55.3909 41.2607Z" fill="#0E82FD"/>
<path d="M56.3463 40.8839C56.279 40.8839 56.2118 40.8435 56.1848 40.7627L55.5389 38.825C55.512 38.7309 55.5524 38.6367 55.6466 38.6097C55.7408 38.5828 55.835 38.6232 55.8619 38.7174L56.5078 40.6551C56.5347 40.7493 56.4943 40.8435 56.4001 40.8704C56.3867 40.8704 56.3732 40.8839 56.3463 40.8839Z" fill="#0E82FD"/>
<path d="M57.3559 40.5461C57.2886 40.5461 57.2213 40.5057 57.1944 40.4384L56.8715 39.4696C56.8446 39.3754 56.8849 39.2812 56.9791 39.2543C57.0733 39.2274 57.1675 39.2677 57.1944 39.3619L57.5174 40.3308C57.5443 40.425 57.5039 40.5192 57.4097 40.5461C57.3963 40.5326 57.3828 40.5461 57.3559 40.5461Z" fill="#0E82FD"/>
<path d="M58.1223 40.3445C58.0551 40.3445 57.9878 40.3041 57.9609 40.2234L57.5975 39.12C57.5706 39.0258 57.611 38.9316 57.7052 38.9047C57.7994 38.8778 57.8936 38.9181 57.9205 39.0123L58.2838 40.1157C58.3107 40.2099 58.2703 40.3041 58.1761 40.331C58.1627 40.3445 58.1492 40.3445 58.1223 40.3445Z" fill="#0E82FD"/>
<path d="M59.0914 39.9681C59.0242 39.9681 58.9569 39.9277 58.93 39.8469L58.2841 37.9227C58.2572 37.8285 58.2975 37.7343 58.3917 37.7074C58.4859 37.6805 58.5801 37.7209 58.607 37.8151L59.2529 39.7528C59.2798 39.8469 59.2395 39.9411 59.1453 39.9681C59.1183 39.9681 59.1049 39.9681 59.0914 39.9681Z" fill="#0E82FD"/>
<path d="M60.1 39.6318C60.0328 39.6318 59.9655 39.5914 59.9386 39.5107L59.6156 38.5418C59.5887 38.4476 59.6291 38.3535 59.7233 38.3265C59.8175 38.2996 59.9117 38.34 59.9386 38.4342L60.2615 39.403C60.2884 39.4972 60.248 39.5914 60.1538 39.6183C60.1269 39.6318 60.1135 39.6318 60.1 39.6318Z" fill="#0E82FD"/>
<path d="M61.0558 39.3096C60.9885 39.3096 60.9212 39.2693 60.8943 39.1885L60.2484 37.2508C60.2215 37.1566 60.2619 37.0624 60.3561 37.0355C60.4503 37.0086 60.5444 37.049 60.5714 37.1432L61.2173 39.0809C61.2442 39.1751 61.2038 39.2693 61.1096 39.2962C61.0827 39.3096 61.0692 39.3096 61.0558 39.3096Z" fill="#0E82FD"/>
<path d="M62.0654 38.9719C61.9981 38.9719 61.9308 38.9315 61.9039 38.8642L61.5809 37.8954C61.554 37.8012 61.5944 37.707 61.6886 37.6801C61.7828 37.6531 61.877 37.6935 61.9039 37.7877L62.2269 38.7566C62.2538 38.8508 62.2134 38.9449 62.1192 38.9719C62.0923 38.9719 62.0788 38.9719 62.0654 38.9719Z" fill="#0E82FD"/>
<path d="M62.8318 38.7839C62.7645 38.7839 62.6972 38.7436 62.6703 38.6628L62.307 37.5594C62.2801 37.4652 62.3205 37.371 62.4147 37.3441C62.5089 37.3172 62.6031 37.3576 62.63 37.4518L62.9933 38.5552C63.0202 38.6494 62.9798 38.7436 62.8856 38.7705C62.8722 38.7839 62.8453 38.7839 62.8318 38.7839Z" fill="#0E82FD"/>
<path d="M63.7872 38.3938C63.7199 38.3938 63.6527 38.3535 63.6258 38.2862L62.9799 36.3485C62.953 36.2543 62.9933 36.1601 63.0875 36.1332C63.1817 36.1063 63.2759 36.1466 63.3028 36.2408L63.9487 38.1785C63.9756 38.2727 63.9353 38.3669 63.8411 38.3938C63.8276 38.3938 63.8007 38.3938 63.7872 38.3938Z" fill="#0E82FD"/>
<path d="M64.3798 36.8332C64.3125 36.8332 64.2453 36.7928 64.2183 36.7255L63.8954 35.7567C63.8685 35.6625 63.9089 35.5683 64.003 35.5414C64.0972 35.5145 64.1914 35.5548 64.2183 35.649L64.5413 36.6179C64.5682 36.7121 64.5278 36.8063 64.4337 36.8332C64.4202 36.8332 64.4067 36.8332 64.3798 36.8332Z" fill="#0E82FD"/>
<path d="M51.946 39.3496L52.4977 41.0182L51.5961 41.3277L51.0444 39.6591L51.946 39.3496Z" fill="#232120"/>
<path d="M51.1787 40.0488L51.4613 40.9235L50.183 41.3541L49.9004 40.4794L51.1787 40.0488Z" fill="#232120"/>
<path d="M49.9889 40.7589L39.5464 44.2383L39.6527 44.5574L50.0952 41.0781L49.9889 40.7589Z" fill="#EBEBEC"/>
<path d="M64.3795 29.7412C64.097 30.4005 63.5453 31.948 63.7875 33.9126C64.0566 36.0387 65.1196 37.4651 65.5772 38.0168C66.1154 39.5642 67.313 42.2824 69.937 44.6911C71.2961 45.9425 72.6686 46.7633 73.772 47.3016C74.4583 44.9064 75.158 42.5112 75.8443 40.116C73.2203 38.555 70.5963 36.9941 67.9724 35.4332C66.9901 33.4955 66.3173 32.096 65.8194 31.0061C65.6041 30.5351 65.1466 29.499 64.6756 29.5528C64.5545 29.5528 64.4468 29.647 64.3795 29.7412Z" fill="#0E82FD"/>
<path d="M66.8555 33.738C68.9277 36.8599 72.1034 39.6722 75.4136 41.4081C75.6424 41.5292 75.8442 41.1793 75.6155 41.0582C72.386 39.3627 69.2238 36.5773 67.2053 33.5227C67.0708 33.3209 66.7209 33.5227 66.8555 33.738Z" fill="white"/>
<path d="M65.6445 38.4335C66.398 41.4746 68.4703 44.0448 71.0673 45.6999C71.2826 45.8345 71.4845 45.4846 71.2692 45.35C68.7933 43.7622 66.7614 41.2459 66.0347 38.3259C65.9674 38.0702 65.5772 38.1779 65.6445 38.4335Z" fill="white"/>
<path d="M75.6157 39.7662C75.4407 40.1161 74.6468 40.1834 74.3508 40.2507C74.0951 40.3045 74.2028 40.6947 74.4584 40.6409C74.9563 40.5333 75.7099 40.4929 75.9655 39.9815C76.0866 39.7393 75.7368 39.5375 75.6157 39.7662Z" fill="white"/>
<path d="M37.4126 41.178C37.4126 43.5866 35.4614 45.5512 33.0393 45.5512C30.6306 45.5512 28.666 43.6001 28.666 41.178C28.666 38.7693 30.6172 36.8047 33.0393 36.8047C35.4614 36.8047 37.4126 38.7693 37.4126 41.178Z" fill="white"/>
<path d="M8.96644 62.129C9.57197 61.1736 10.1641 60.2048 10.7561 59.2494C11.3751 58.9937 12.0614 58.7381 12.8284 58.5362C15.2505 57.9038 17.4035 57.998 18.9241 58.2133C24.616 54.284 28.5184 52.1983 31.0616 51.0276C31.6671 50.745 33.0396 50.1261 32.9724 49.8839C32.8513 49.4802 28.8009 50.3548 25.4638 51.1353C26.4865 50.597 27.9128 49.7493 29.4334 48.4709C32.9858 45.4837 35.7444 41.2449 35.0985 40.5721C34.9235 40.3972 34.4256 40.3972 32.9724 41.2315C34.6409 39.4956 35.3541 38.4326 35.0985 38.0693C34.7621 37.5983 32.8378 38.2711 29.3257 40.0877C27.2535 39.7244 25.1947 39.3611 23.1224 38.9978C19.6507 40.1012 16.1924 41.218 12.7207 42.3214C11.3078 45.0396 8.73768 49.0227 4.22984 52.2252C2.8573 53.2075 1.51168 53.9745 0.260254 54.5666C1.55205 56.6927 3.12643 58.9803 5.05067 61.3217C5.8715 62.3174 6.69234 63.2324 7.49972 64.0936C7.98414 63.4343 8.46856 62.7884 8.96644 62.129Z" fill="#0E82FD"/>
<path d="M25.5174 51.1086C25.0195 51.2028 24.414 51.4181 23.8892 51.593C23.1626 51.8487 22.3821 52.0371 21.6958 52.3869C21.4671 52.508 21.6689 52.8579 21.8977 52.7368C22.6243 52.36 23.4721 52.1716 24.2391 51.9025C24.6966 51.741 25.1541 51.5796 25.6251 51.4988C25.8807 51.445 25.7731 51.0548 25.5174 51.1086Z" fill="white"/>
<path d="M32.4205 41.4999C30.6577 43.33 28.3028 44.5949 26.096 45.8059C24.5351 46.6671 22.0861 47.1919 20.8077 48.4164C20.6193 48.5914 20.9019 48.8874 21.0903 48.699C21.7497 48.0666 23.2702 47.6494 24.1583 47.2458C25.2886 46.7344 26.3921 46.1423 27.4686 45.5234C29.2986 44.4738 31.2229 43.3165 32.703 41.7825C32.878 41.6076 32.5954 41.3116 32.4205 41.4999Z" fill="white"/>
<path d="M29.0436 40.0201C26.0159 42.1059 22.5173 43.4649 19.2071 45.0259C18.9783 45.1335 19.1802 45.4834 19.4089 45.3757C22.7191 43.8148 26.2178 42.4692 29.2454 40.37C29.4607 40.222 29.2589 39.8721 29.0436 40.0201Z" fill="white"/>
<path d="M22.0456 39.3602C20.0945 41.0557 17.6589 41.9841 15.6539 43.6258C15.4521 43.7873 15.7346 44.0699 15.9365 43.9084C17.9415 42.2667 20.377 41.3382 22.3282 39.6428C22.53 39.4813 22.234 39.1852 22.0456 39.3602Z" fill="white"/>
</svg>
