<svg width="36" height="36" viewBox="0 0 36 36" fill="none" xmlns="http://www.w3.org/2000/svg">
<g clip-path="url(#clip0_2383_21709)">
<path d="M35.5 33.4621C35.5 34.1475 35.5 34.8329 35.5 35.5183C23.8303 35.5183 12.1697 35.5183 0.5 35.5183C0.5 34.8146 0.5 34.1475 0.5 33.4439C1.87076 33.4439 3.22324 33.4439 4.56658 33.4439C4.56658 30.0352 4.56658 26.654 4.56658 23.2363C3.8812 23.6384 3.22324 24.0222 2.55614 24.406C2.547 24.3146 2.53786 24.2872 2.53786 24.2507C2.53786 21.7102 2.53786 19.1697 2.547 16.6292C2.547 16.5104 2.6658 16.3368 2.77546 16.2728C3.86292 15.5783 4.95953 14.9021 6.047 14.2258C6.18407 14.1436 6.31201 14.0522 6.43995 13.97C6.047 13.4034 5.66319 12.8642 5.29765 12.3159C4.25587 10.7167 3.28721 9.08094 2.77546 7.22585C2.02611 4.51175 3.25979 1.88903 5.78198 0.874674C6.21149 0.701044 6.67755 0.618799 7.12533 0.5C7.50914 0.5 7.90209 0.5 8.2859 0.5C8.34987 0.518277 8.41384 0.55483 8.47781 0.563969C11.3655 1.01175 13.2937 3.74413 12.7546 6.60444C12.4804 8.05744 11.8407 9.36423 11.1279 10.6345C11.0274 10.8172 10.9178 11 10.8172 11.1828C10.9726 11.1554 11.0731 11.0914 11.1828 11.0274C13.3486 9.67493 15.5144 8.33159 17.671 6.96997C17.9178 6.81462 18.0822 6.79634 18.3381 6.96084C20.4765 8.31332 22.624 9.64752 24.7715 10.9817C24.8995 11.064 25.0366 11.1462 25.2193 11.2559C25.2193 11.0731 25.2193 10.9452 25.2193 10.8264C25.2193 9.91253 25.2285 8.99869 25.2102 8.09399C25.201 7.8107 25.265 7.70104 25.5849 7.70104C27.4125 7.71932 29.2311 7.71018 31.0587 7.71018C31.1684 7.71018 31.2781 7.71932 31.4151 7.72846C31.4151 7.88381 31.4151 8.01175 31.4151 8.13055C31.4151 10.342 31.4243 12.5535 31.406 14.765C31.406 15.0392 31.4974 15.1945 31.7259 15.3316C32.2193 15.6149 32.6854 15.9347 33.1789 16.2272C33.389 16.346 33.4713 16.483 33.4713 16.7389C33.4621 19.1971 33.4621 21.6645 33.4621 24.1227C33.4621 24.2232 33.4621 24.3146 33.4621 24.4791C32.7585 24.0679 32.1097 23.6841 31.4334 23.282C31.4334 26.6997 31.4334 30.0718 31.4334 33.4804C32.795 33.4621 34.1475 33.4621 35.5 33.4621ZM29.3042 33.4439C29.3133 33.3525 29.3225 33.2976 29.3225 33.2428C29.3225 29.5875 29.3225 25.923 29.3133 22.2676C29.3133 22.1397 29.1854 21.9569 29.0666 21.8838C25.4569 19.7272 21.8473 17.5796 18.2376 15.4321C18.064 15.3225 17.9269 15.3225 17.7441 15.4321C14.1436 17.5705 10.5339 19.7089 6.92428 21.8381C6.72324 21.9569 6.64099 22.0849 6.64099 22.3225C6.65013 25.9138 6.65013 29.5052 6.65013 33.0966C6.65013 33.2154 6.65927 33.3342 6.66841 33.453C7.36292 33.453 8.02089 33.453 8.72454 33.453C8.72454 30.3642 8.72454 27.2937 8.72454 24.2141C11.4935 24.2141 14.2076 24.2141 16.9674 24.2141C16.9674 27.3029 16.9674 30.3734 16.9674 33.4621C21.0979 33.4439 25.1828 33.4439 29.3042 33.4439ZM4.59399 20.8146C4.82245 20.6867 4.98695 20.5862 5.15144 20.4856C9.32768 18.0183 13.5039 15.5509 17.671 13.0744C17.9086 12.9373 18.0731 12.9191 18.3107 13.0653C22.5418 15.5875 26.782 18.1097 31.0222 20.6227C31.1227 20.6867 31.2324 20.7415 31.3695 20.8146C31.3786 20.7324 31.3877 20.6867 31.3877 20.6501C31.3877 19.6815 31.3969 18.7128 31.3786 17.7441C31.3786 17.6253 31.2507 17.4608 31.141 17.3877C26.846 14.701 22.5418 12.0235 18.2467 9.33681C18.0548 9.21802 17.9178 9.21802 17.7258 9.34595C16.3551 10.2141 14.9843 11.064 13.6136 11.9138C10.6984 13.7324 7.77415 15.5509 4.86815 17.3786C4.74935 17.4517 4.61227 17.5979 4.60313 17.7167C4.58486 18.7311 4.59399 19.7272 4.59399 20.8146ZM7.68277 12.1697C7.84726 11.9321 7.98433 11.7493 8.11227 11.5574C9.08094 10.0862 10.0222 8.59661 10.5614 6.88773C10.7624 6.25718 10.8538 5.62663 10.7076 4.96867C10.3055 3.27807 8.65144 2.24543 6.98825 2.62924C5.30679 3.02219 4.28329 4.67624 4.69452 6.40339C5.20627 8.55091 6.45822 10.3238 7.68277 12.1697ZM10.799 33.4347C12.1697 33.4347 13.5131 33.4347 14.8747 33.4347C14.8747 31.0313 14.8747 28.6554 14.8747 26.2702C13.5039 26.2702 12.1514 26.2702 10.799 26.2702C10.799 28.6736 10.799 31.0496 10.799 33.4347ZM27.2937 9.78459C27.2755 9.84856 27.2663 9.87598 27.2663 9.91253C27.2663 10.4791 27.312 11.0548 27.248 11.6214C27.1658 12.3068 27.376 12.7454 28.0248 13.0379C28.4634 13.2298 28.8564 13.5405 29.3042 13.8146C29.3042 12.4347 29.3042 11.1188 29.3042 9.78459C28.6279 9.78459 27.97 9.78459 27.2937 9.78459Z" fill="#0E82FD"/>
<path d="M19.0234 31.3787C19.0234 28.9662 19.0234 26.5993 19.0234 24.2051C21.7558 24.2051 24.4882 24.2051 27.2388 24.2051C27.2388 26.5993 27.2388 28.9845 27.2388 31.3787C24.4973 31.3787 21.7741 31.3787 19.0234 31.3787ZM21.0978 26.2612C21.0978 27.2939 21.0978 28.2991 21.0978 29.3043C22.4686 29.3043 23.8211 29.3043 25.1736 29.3043C25.1736 28.2717 25.1736 27.2756 25.1736 26.2612C23.8028 26.2612 22.4595 26.2612 21.0978 26.2612Z" fill="#0E82FD"/>
<path d="M6.67773 4.62109C7.36311 4.62109 8.01194 4.62109 8.68818 4.62109C8.68818 5.29733 8.68818 5.9553 8.68818 6.64068C8.03021 6.64068 7.36311 6.64068 6.67773 6.64068C6.67773 5.97357 6.67773 5.30647 6.67773 4.62109Z" fill="#0E82FD"/>
</g>
<defs>
<clipPath id="clip0_2383_21709">
<rect width="35" height="35.0183" fill="white" transform="translate(0.5 0.490234)"/>
</clipPath>
</defs>
</svg>
