<svg width="36" height="50" viewBox="0 0 36 50" fill="none" xmlns="http://www.w3.org/2000/svg">
<g clip-path="url(#clip0_2383_21747)">
<path d="M22.5582 30.7695C20.4504 34.6756 15.1033 34.6637 13.0431 30.7695C11.4949 31.2816 9.9468 31.7937 8.39865 32.3177C8.1962 32.3891 7.98185 32.4606 7.7794 32.5201C6.18361 33.0322 5.32618 34.1278 5.13564 35.795C4.69501 39.8083 4.25439 43.8216 3.81376 47.8349C3.68276 48.9781 2.89678 49.6807 1.84881 49.5855C0.860375 49.5021 0.193482 48.6208 0.31257 47.5014C0.71747 43.774 1.13428 40.0584 1.563 36.3429C1.65827 35.4973 1.74163 34.6161 2.00362 33.8182C2.73006 31.5674 4.25439 30.055 6.49324 29.3047C8.35102 28.6736 10.2207 28.0662 12.1023 27.4708C12.4476 27.3636 12.5548 27.2088 12.5786 26.8277C12.6739 25.6964 12.4476 24.827 11.5069 24.0291C10.2922 22.9931 9.64908 21.5164 9.30372 19.9563C9.23227 19.6467 9.10127 19.5395 8.82737 19.4562C5.74299 18.4796 3.82567 15.8835 3.80185 12.6562C3.78994 10.9175 3.78994 9.17885 3.80185 7.45208C3.83758 3.54599 6.92196 0.449694 10.7804 0.437785C15.4249 0.413967 20.0812 0.413967 24.7256 0.437785C28.2745 0.449694 31.0968 2.93864 31.6685 6.51128C32.1806 9.70284 30.1799 12.9659 27.0002 14.0734C26.6668 14.1925 26.5596 14.3354 26.5596 14.6807C26.5477 16.1812 26.6072 17.6817 26.4524 19.1703C26.2381 21.3735 25.1782 23.1836 23.5109 24.6246C23.1894 24.8985 23.0227 25.1605 23.0584 25.5892C23.106 26.137 22.9155 26.8039 23.1656 27.185C23.4038 27.5303 24.1064 27.578 24.5946 27.7447C26.0237 28.221 27.4647 28.6974 28.8937 29.1737C32.0138 30.2217 33.6572 32.4249 34.0026 35.676C34.4075 39.5821 34.8481 43.4881 35.2887 47.3823C35.4197 48.5137 34.7886 49.4425 33.7882 49.5497C32.7403 49.6569 31.9305 48.9543 31.8114 47.811C31.3708 43.7978 30.9301 39.7845 30.4895 35.7712C30.3109 34.1159 29.4653 33.0084 27.8577 32.4844C26.25 31.9604 24.6423 31.4126 23.0346 30.8886C22.8917 30.8529 22.7369 30.8172 22.5582 30.7695ZM9.05364 15.7287C9.05364 14.7165 9.05364 13.8114 9.05364 12.8944C9.05364 11.7035 9.6729 11.0485 10.8757 10.9533C11.8046 10.8818 12.4715 10.2268 12.5548 9.30985C12.662 8.1547 13.3051 7.45208 14.2935 7.45208C15.2819 7.45208 15.9608 8.1547 16.056 9.29794C16.1275 10.2387 16.8301 10.9533 17.7709 10.9533C20.1765 10.9652 22.5821 10.989 24.9876 10.9414C26.8573 10.9056 28.3221 9.28603 28.3102 7.40444C28.2983 5.55857 26.8097 3.96279 24.9638 3.95088C20.1884 3.91516 15.4129 3.91516 10.6375 3.95088C8.83928 3.96279 7.33877 5.48712 7.31495 7.29726C7.27923 9.14313 7.27923 10.989 7.31495 12.8349C7.35068 14.0496 7.93421 14.9904 9.05364 15.7287ZM22.975 14.4783C22.2724 14.4783 21.5698 14.4783 20.8553 14.4783C19.8907 14.4783 18.926 14.4664 17.9614 14.4783C16.58 14.4902 15.3653 14.0138 14.365 13.1683C13.8053 13.4898 13.2932 13.7637 12.8049 14.0734C12.6858 14.1448 12.5786 14.3473 12.5786 14.4902C12.5667 15.7287 12.5429 16.9791 12.5786 18.2176C12.6501 20.8495 14.8175 23.0764 17.4494 23.2432C20.1407 23.4218 22.6178 21.564 22.9512 18.9084C23.1179 17.4674 22.975 15.9907 22.975 14.4783ZM19.5572 26.6848C18.3663 26.6848 17.235 26.6848 16.0679 26.6848C16.0679 27.3279 16.0322 28.0067 16.0798 28.6736C16.1394 29.5667 16.9135 30.2575 17.8066 30.2575C18.7117 30.2694 19.5096 29.5548 19.5572 28.6379C19.581 27.9948 19.5572 27.3398 19.5572 26.6848Z" fill="#0E82FD"/>
<path d="M24.809 44.3095C24.809 44.8692 24.809 45.3456 24.809 45.8219C24.809 47.0247 24.0945 47.8226 23.0465 47.8226C22.0224 47.8107 21.3197 47.0128 21.3078 45.8458C21.3078 45.3575 21.3078 44.8692 21.3078 44.3095C20.7243 44.3095 20.1884 44.3095 19.6525 44.3095C18.5926 44.2976 17.8066 43.5474 17.8066 42.547C17.8066 41.5467 18.5807 40.8083 19.6525 40.7964C20.1765 40.7845 20.7005 40.7964 21.3078 40.7964C21.3078 40.5225 21.3078 40.2724 21.3078 40.0224C21.3078 38.1169 21.8318 37.2952 23.0465 37.2833C24.2731 37.2714 24.809 38.1169 24.809 40.0462C24.809 40.2605 24.809 40.4868 24.809 40.7845C25.3449 40.7845 25.8689 40.7845 26.381 40.7845C27.5242 40.7964 28.3221 41.5348 28.3102 42.5708C28.2983 43.5831 27.5004 44.2857 26.381 44.2976C25.8808 44.3095 25.3806 44.3095 24.809 44.3095Z" fill="#0E82FD"/>
<path d="M10.8039 43.4404C10.8039 44.8456 10.8039 46.2509 10.8039 47.6561C10.8039 48.7755 10.0656 49.5615 9.05333 49.5615C8.04108 49.5615 7.30273 48.7636 7.30273 47.6561C7.30273 44.8218 7.30273 41.9875 7.30273 39.1532C7.30273 38.0457 8.0649 37.2597 9.07715 37.2716C10.0656 37.2835 10.792 38.0695 10.8039 39.1532C10.8158 40.5942 10.8039 42.0113 10.8039 43.4404Z" fill="#0E82FD"/>
</g>
<defs>
<clipPath id="clip0_2383_21747">
<rect width="35" height="49.1477" fill="white" transform="translate(0.300781 0.425781)"/>
</clipPath>
</defs>
</svg>
