<svg width="38" height="37" viewBox="0 0 38 37" fill="none" xmlns="http://www.w3.org/2000/svg">
<path d="M15.9626 13.501C15.8914 13.4297 15.8069 13.3731 15.7138 13.3345C15.6208 13.2959 15.521 13.276 15.4203 13.276C15.3196 13.276 15.2198 13.2959 15.1268 13.3345C15.0337 13.3731 14.9492 13.4297 14.878 13.501L13.8885 14.4921L12.8989 13.501C12.7551 13.3572 12.5601 13.2764 12.3567 13.2764C12.1533 13.2764 11.9582 13.3572 11.8144 13.501C11.6706 13.6448 11.5898 13.8399 11.5898 14.0433C11.5898 14.2467 11.6706 14.4417 11.8144 14.5855L12.8055 15.5751L11.8144 16.5646C11.6706 16.7084 11.5898 16.9035 11.5898 17.1069C11.5898 17.3103 11.6706 17.5053 11.8144 17.6492C11.9582 17.793 12.1533 17.8738 12.3567 17.8738C12.5601 17.8738 12.7551 17.793 12.8989 17.6492L13.8885 16.6581L14.878 17.6492C15.0219 17.793 15.2169 17.8738 15.4203 17.8738C15.6237 17.8738 15.8187 17.793 15.9626 17.6492C16.1064 17.5053 16.1872 17.3103 16.1872 17.1069C16.1872 16.9035 16.1064 16.7084 15.9626 16.5646L14.9715 15.5751L15.9626 14.5855C16.0339 14.5144 16.0905 14.4299 16.1291 14.3368C16.1677 14.2438 16.1876 14.144 16.1876 14.0433C16.1876 13.9425 16.1677 13.8428 16.1291 13.7497C16.0905 13.6567 16.0339 13.5722 15.9626 13.501ZM21.0053 13.501C21.1491 13.3572 21.3441 13.2764 21.5475 13.2764C21.7509 13.2764 21.946 13.3572 22.0898 13.501C22.2336 13.6448 22.3144 13.8399 22.3144 14.0433C22.3144 14.2467 22.2336 14.4417 22.0898 14.5855L21.0987 15.5751L22.0898 16.5646C22.2336 16.7084 22.3144 16.9035 22.3144 17.1069C22.3144 17.3103 22.2336 17.5053 22.0898 17.6492C21.946 17.793 21.7509 17.8738 21.5475 17.8738C21.3441 17.8738 21.1491 17.793 21.0053 17.6492L20.0157 16.6581L19.0262 17.6492C18.8824 17.793 18.6873 17.8738 18.4839 17.8738C18.2805 17.8738 18.0855 17.793 17.9417 17.6492C17.7978 17.5053 17.717 17.3103 17.717 17.1069C17.717 16.9035 17.7978 16.7084 17.9417 16.5646L18.9327 15.5751L17.9417 14.5855C17.7978 14.4417 17.717 14.2467 17.717 14.0433C17.717 13.8399 17.7978 13.6448 17.9417 13.501C18.0855 13.3572 18.2805 13.2764 18.4839 13.2764C18.6873 13.2764 18.8824 13.3572 19.0262 13.501L20.0157 14.4921L21.0053 13.501ZM24.6111 16.341C24.408 16.341 24.2132 16.4217 24.0696 16.5653C23.9259 16.709 23.8452 16.9038 23.8452 17.1069C23.8452 17.31 23.9259 17.5048 24.0696 17.6485C24.2132 17.7921 24.408 17.8728 24.6111 17.8728H27.6748C27.8779 17.8728 28.0727 17.7921 28.2163 17.6485C28.36 17.5048 28.4407 17.31 28.4407 17.1069C28.4407 16.9038 28.36 16.709 28.2163 16.5653C28.0727 16.4217 27.8779 16.341 27.6748 16.341H24.6111ZM11.2078 7.15015C10.0906 7.15015 9.01916 7.59396 8.22917 8.38395C7.43917 9.17394 6.99536 10.2454 6.99536 11.3626V19.7876C6.99536 20.9048 7.43917 21.9762 8.22917 22.7662C9.01916 23.5562 10.0906 24 11.2078 24H27.2918C28.409 24 29.4805 23.5562 30.2705 22.7662C31.0605 21.9762 31.5043 20.9048 31.5043 19.7876V11.3626C31.5043 10.2454 31.0605 9.17394 30.2705 8.38395C29.4805 7.59396 28.409 7.15015 27.2918 7.15015H11.2078ZM8.52717 11.3626C8.52717 9.88289 9.7281 8.68195 11.2078 8.68195H27.2918C28.7715 8.68195 29.9725 9.88289 29.9725 11.3626V19.7876C29.9725 20.4985 29.69 21.1803 29.1873 21.6831C28.6846 22.1858 28.0028 22.4682 27.2918 22.4682H11.2078C10.4969 22.4682 9.81504 22.1858 9.31232 21.6831C8.80959 21.1803 8.52717 20.4985 8.52717 19.7876V11.3626Z" fill="black"/>
</svg>
