<svg width="36" height="20" viewBox="0 0 36 20" fill="none" xmlns="http://www.w3.org/2000/svg">
<path fill-rule="evenodd" clip-rule="evenodd" d="M19.1799 2.85625L16.7145 3.53396V0.973746L19.1799 0.308594V2.85625ZM9.16056 1.76562L6.76393 2.41823L6.7541 12.4708C6.7541 14.3282 7.84438 15.6962 9.29808 15.6962C10.1035 15.6962 10.6928 15.5079 11.017 15.282V12.7344C10.7027 12.8975 9.15074 13.4748 9.15074 11.6174V7.16215H11.017V4.48899H9.15074L9.16056 1.76562ZM3.35607 6.99777C2.83549 6.99777 2.52117 7.18602 2.52117 7.67547C2.52117 8.20987 3.06211 8.44495 3.7332 8.73659C4.82725 9.21204 6.2672 9.83781 6.27329 12.1558C6.27329 14.4023 4.8687 15.695 2.82566 15.695C1.98095 15.695 1.05765 15.4816 0.144178 14.9796V11.9927C0.96925 12.57 2.01041 12.9967 2.82566 12.9967C3.37571 12.9967 3.7686 12.8084 3.7686 12.2311C3.7686 11.6392 3.18222 11.3686 2.47429 11.042C1.39616 10.5445 0.0361328 9.91695 0.0361328 7.82607C0.0361328 5.60471 1.36214 4.2744 3.35607 4.2744C4.17132 4.2744 4.97674 4.43755 5.79199 4.85171V7.80097C5.0455 7.28642 4.10256 6.99777 3.35607 6.99777ZM31.8503 4.27441C34.1782 4.27441 35.3962 6.80953 35.3962 10.0223C35.3962 10.1956 35.3897 10.4852 35.3842 10.731L35.3842 10.7313L35.3841 10.7317V10.7319V10.7319C35.3801 10.913 35.3765 11.0701 35.3765 11.1393H30.5735C30.6815 12.6202 31.5262 13.0469 32.479 13.0469C33.4514 13.0469 34.2175 12.7834 34.8854 12.3566V14.8667C34.2175 15.3436 33.3335 15.6824 32.1647 15.6824C29.768 15.6824 28.0982 13.7748 28.0982 9.99724C28.0982 6.80953 29.5126 4.27441 31.8503 4.27441ZM31.8405 6.82208C31.2217 6.82208 30.544 7.41193 30.544 8.83008H33.0781C33.0781 7.41193 32.4397 6.82208 31.8405 6.82208ZM14.0724 5.41585L13.9152 4.48715H11.7936V15.4684H14.2492V8.02626C14.8287 7.05991 15.8109 7.23561 16.1154 7.37366V4.48715C15.8011 4.33655 14.6519 4.06044 14.0724 5.41585ZM19.1799 4.48682H16.7145V15.4681H19.1799V4.48682ZM24.3073 4.27441C23.3447 4.27441 22.7259 4.85172 22.3821 5.25332L22.2544 4.47521H20.0935V19.1086L22.5491 18.4434L22.5589 14.8918C22.9125 15.2181 23.4331 15.6824 24.2975 15.6824C26.0557 15.6824 27.6567 13.8752 27.6567 9.89684C27.6469 6.25732 26.0262 4.27441 24.3073 4.27441ZM23.718 12.9214C23.1384 12.9214 22.7947 12.6579 22.5589 12.3315L22.5491 7.67548C22.8045 7.31153 23.1581 7.06053 23.718 7.06053C24.6118 7.06053 25.2306 8.34063 25.2306 9.98469C25.2306 11.6664 24.6216 12.9214 23.718 12.9214Z" fill="#635BFF"/>
</svg>
