<svg width="31" height="19" viewBox="0 0 31 19" fill="none" xmlns="http://www.w3.org/2000/svg">
<path fill-rule="evenodd" clip-rule="evenodd" d="M20.843 18.709C25.9204 18.709 30.0365 14.6795 30.0365 9.70898C30.0365 4.73842 25.9204 0.708984 20.843 0.708984C15.7655 0.708984 11.6494 4.73842 11.6494 9.70898C11.6494 14.6795 15.7655 18.709 20.843 18.709Z" fill="#F79E1B"/>
<path fill-rule="evenodd" clip-rule="evenodd" d="M9.22968 18.709C14.3071 18.709 18.4232 14.6795 18.4232 9.70898C18.4232 4.73842 14.3071 0.708984 9.22968 0.708984C4.15222 0.708984 0.0361328 4.73842 0.0361328 9.70898C0.0361328 14.6795 4.15222 18.709 9.22968 18.709Z" fill="#EB001B"/>
<path fill-rule="evenodd" clip-rule="evenodd" d="M15.0363 2.73047C12.9693 4.3808 11.6494 6.89375 11.6494 9.70848C11.6494 12.5232 12.9693 15.0362 15.0363 16.6865C17.1033 15.0362 18.4232 12.5232 18.4232 9.70848C18.4232 6.89375 17.1033 4.3808 15.0363 2.73047Z" fill="#FF5F00"/>
</svg>
