<svg width="44" height="16" viewBox="0 0 44 16" fill="none" xmlns="http://www.w3.org/2000/svg">
<path fill-rule="evenodd" clip-rule="evenodd" d="M19.0361 15.5078C19.0361 15.5078 27.9134 13.8683 33.6953 11.4262C39.4529 9.20421 43.0361 6.50781 43.0361 6.50781V15.5078H19.0361Z" fill="#F16822"/>
<path fill-rule="evenodd" clip-rule="evenodd" d="M33.5879 0.645508H35.5789C36.2143 0.645508 37.479 0.969435 37.479 2.32566C37.479 3.68329 36.1716 3.96419 36.1716 3.96419L38.036 6.34957H36.5537L34.9058 4.07298H34.7795V6.34957H33.5879V0.645508ZM34.7792 1.5965V3.26126H35.4351C35.9401 3.26126 36.2589 2.83589 36.2589 2.46404V2.39268C36.2589 2.02153 35.9401 1.5965 35.4351 1.5965H34.7792Z" fill="#28283C"/>
<path fill-rule="evenodd" clip-rule="evenodd" d="M23.0674 0.645508H24.3808L26.062 4.38222L27.6466 0.645508H28.9604L26.392 6.49439H25.6357L23.0674 0.645508Z" fill="#28283C"/>
<path fill-rule="evenodd" clip-rule="evenodd" d="M5.5166 6.34957H6.7367V0.645508H5.5166V6.34957Z" fill="#28283C"/>
<path fill-rule="evenodd" clip-rule="evenodd" d="M0.0361328 0.645508H2.03355C3.23267 0.645508 4.99183 1.66311 4.99183 3.47165V3.49264V3.51398C4.99183 5.32286 3.23267 6.33977 2.03355 6.33977H0.0361328V0.645508ZM1.18628 5.39073C1.18628 5.39073 3.7501 5.66043 3.7501 3.54126V3.50803C3.7501 1.38851 1.18628 1.65857 1.18628 1.65857V5.39073Z" fill="#28283C"/>
<path fill-rule="evenodd" clip-rule="evenodd" d="M32.7028 2.89278V3.89885H30.6279V5.34253H32.7987V6.34859H29.416V0.644531H32.7987V1.65059H30.6279V2.89278H32.7028Z" fill="#28283C"/>
<path fill-rule="evenodd" clip-rule="evenodd" d="M23.2823 3.52506C23.2823 5.15833 21.8636 6.48203 20.115 6.48203C18.3655 6.48203 16.9473 5.15833 16.9473 3.52506C16.9473 1.89143 18.3655 0.567383 20.115 0.567383C21.8636 0.567383 23.2823 1.89143 23.2823 3.52506Z" fill="#F16822"/>
<path fill-rule="evenodd" clip-rule="evenodd" d="M10.4768 1.96025C10.4768 1.96025 10.0748 1.52823 9.53503 1.52823C8.99634 1.52823 8.68504 1.86335 8.68504 2.10752C8.68504 2.35099 8.67493 2.48882 9.44475 2.78861C10.2153 3.08945 11.3478 3.30529 11.3478 4.57581C11.3478 5.84528 10.2824 6.48964 9.3245 6.48964C7.81333 6.48964 7.13379 5.40766 7.13379 5.40766L7.89425 4.69719C7.89425 4.69719 8.37637 5.45454 9.21736 5.45454C10.058 5.45454 10.1048 4.85671 10.1048 4.66011C10.1048 4.36907 9.92388 4.08117 9.40467 3.90347C8.88546 3.72471 7.46569 3.54561 7.46569 2.26704C7.46569 1.11895 8.38461 0.549805 9.41478 0.549805C10.3356 0.549805 11.1365 1.22285 11.1365 1.22285L10.4768 1.96025Z" fill="#28283C"/>
<path fill-rule="evenodd" clip-rule="evenodd" d="M16.4174 2.19741C16.0398 1.83291 15.5198 1.5681 14.9347 1.5681C13.7876 1.5681 12.8579 2.43703 12.8579 3.50746C12.8579 4.57894 13.7876 5.44683 14.9347 5.44683C15.5142 5.44683 16.0417 5.18482 16.4178 4.82696L16.4174 6.16954C15.9731 6.38678 15.47 6.50781 14.9347 6.50781C13.1602 6.50781 11.7217 5.16488 11.7217 3.50746C11.7217 1.85075 13.1602 0.507812 14.9347 0.507812C15.4715 0.507812 15.9727 0.630597 16.4174 0.848531V2.19741Z" fill="#28283C"/>
</svg>
