<svg width="34" height="12" viewBox="0 0 34 12" fill="none" xmlns="http://www.w3.org/2000/svg">
<path fill-rule="evenodd" clip-rule="evenodd" d="M23.2024 0.65696C22.6252 0.441032 21.7206 0.208984 20.5904 0.208984C17.7107 0.208984 15.6814 1.65472 15.6644 3.72534C15.6487 5.25762 17.1126 6.11072 18.2185 6.62148C19.3526 7.14284 19.7344 7.47628 19.7284 7.9425C19.7212 8.65688 18.823 8.98311 17.9853 8.98311C16.8185 8.98311 16.1991 8.82233 15.2417 8.42441L14.8658 8.25472L14.4568 10.6405C15.1383 10.9375 16.3962 11.1958 17.7034 11.209C20.7675 11.209 22.7568 9.78021 22.7789 7.56834C22.7895 6.35592 22.0135 5.43324 20.3325 4.67347C19.313 4.1801 18.6893 3.85048 18.6961 3.3516C18.6961 2.90956 19.2236 2.43486 20.3644 2.43486C21.3188 2.42001 22.0084 2.62746 22.546 2.84381L22.8078 2.96598L23.2024 0.65696ZM9.71854 11.0508L11.5409 0.394816H14.4551L12.6319 11.0508H9.71854ZM28.4249 0.405238H30.6772L33.0359 11.0536H30.3311C30.3311 11.0536 30.0642 9.83011 29.977 9.45723C29.7515 9.45723 28.8101 9.45603 27.9253 9.45491L27.9129 9.4549C27.1332 9.45391 26.4003 9.45298 26.2441 9.45298C26.1309 9.74103 25.6307 11.0536 25.6307 11.0536H22.5696L26.898 1.28889C27.2053 0.59444 27.7268 0.405238 28.4249 0.405238ZM27.0823 7.27338C27.3237 6.65953 28.244 4.29409 28.244 4.29409C28.2355 4.30796 28.2922 4.16126 28.3696 3.96096L28.3696 3.96084C28.4508 3.75077 28.5547 3.48177 28.6301 3.27723L28.8268 4.19609C28.8268 4.19609 29.3853 6.73929 29.5023 7.27338H27.0823ZM4.42079 7.66902L7.27373 0.402569H10.3608L5.77276 11.0377L2.68868 11.042L0.0800781 1.72189C1.9301 2.64499 3.58559 4.48949 4.11642 6.19231L4.42079 7.66902Z" fill="#1A1F71"/>
</svg>
