<svg width="40" height="40" viewBox="0 0 40 40" fill="none" xmlns="http://www.w3.org/2000/svg">
<path fill-rule="evenodd" clip-rule="evenodd" d="M5.29254 7.83281C3.53129 9.64531 2.54004 12.1016 2.54004 14.6628C2.54004 17.2253 3.53129 19.6816 5.29254 21.4928L17.3238 33.8666C18.0338 34.5966 18.9975 35.0041 20.0025 35.0041C21.0063 35.0041 21.9713 34.5966 22.6813 33.8666C24.86 31.6253 34.7025 21.4828 34.7025 21.4828C36.4638 19.6716 37.455 17.2153 37.455 14.6528C37.455 12.0903 36.4638 9.63531 34.7025 7.82281C32.9288 5.99906 30.5213 4.97656 28.0125 4.97656C25.5038 4.97656 23.0975 5.99906 21.3238 7.82281L19.9925 9.19156L18.6713 7.83281C16.8975 6.00906 14.4913 4.98656 11.9825 4.98656C9.47379 4.98656 7.06629 6.00906 5.29254 7.83281ZM7.08504 9.57656C8.38379 8.24031 10.145 7.48656 11.9825 7.48656C13.82 7.48656 15.58 8.24031 16.8788 9.57656L19.0963 11.8566C19.3313 12.0978 19.655 12.2353 19.9925 12.2353C20.33 12.2353 20.6538 12.0978 20.8888 11.8566L23.1163 9.56531C24.415 8.23031 26.175 7.47656 28.0125 7.47656C29.85 7.47656 31.61 8.23031 32.91 9.56531C32.9138 9.57031 32.9175 9.57406 32.9225 9.57906C34.2213 10.9153 34.955 12.7453 34.955 14.6528C34.955 16.5603 34.2213 18.3916 32.91 19.7403C32.91 19.7403 23.0675 29.8828 20.8888 32.1241C20.6538 32.3653 20.335 32.5041 20.0025 32.5041C19.67 32.5041 19.3513 32.3653 19.1163 32.1241L7.08504 19.7503C5.77379 18.4016 5.04004 16.5703 5.04004 14.6628C5.04004 12.7553 5.77379 10.9253 7.08504 9.57656Z" fill="#0E82FD"/>
<path fill-rule="evenodd" clip-rule="evenodd" d="M18.7477 18.7541H16.2515C15.5615 18.7541 15.0015 19.3141 15.0015 20.0041C15.0015 20.6941 15.5615 21.2541 16.2515 21.2541H18.7477V23.7503C18.7477 24.4403 19.3077 25.0003 19.9977 25.0003C20.6877 25.0003 21.2477 24.4403 21.2477 23.7503V21.2541H23.744C24.434 21.2541 24.994 20.6941 24.994 20.0041C24.994 19.3141 24.434 18.7541 23.744 18.7541H21.2477V16.2578C21.2477 15.5678 20.6877 15.0078 19.9977 15.0078C19.3077 15.0078 18.7477 15.5678 18.7477 16.2578V18.7541Z" fill="#0E82FD"/>
</svg>
