<svg width="40" height="40" viewBox="0 0 40 40" fill="none" xmlns="http://www.w3.org/2000/svg">
<path d="M31.9945 21.9595V27.1988C31.9945 29.7982 30.978 32.2912 29.1687 34.1293C27.3593 35.9674 24.9053 37 22.3464 37C19.7876 37 17.3336 35.9674 15.5242 34.1293C13.7148 32.2912 12.6983 29.7982 12.6983 27.1988V26.0464C10.5545 25.7069 8.60065 24.6005 7.18909 22.9266C5.77752 21.2527 5.00116 19.1215 5 16.9174V9.51425C5.00031 8.79823 5.17634 8.09357 5.51216 7.46404C5.84797 6.8345 6.33299 6.29995 6.92332 5.90873C6.96528 5.22192 7.23164 4.56898 7.68022 4.05336C8.12879 3.53775 8.73391 3.18894 9.3997 3.06222C10.0655 2.93549 10.7539 3.0381 11.3558 3.35378C11.9577 3.66946 12.4386 4.18015 12.7225 4.80494C13.0064 5.42973 13.0769 6.13288 12.9228 6.80298C12.7688 7.47308 12.3991 8.07181 11.8722 8.50428C11.3453 8.93676 10.6914 9.17825 10.0142 9.1905C9.33689 9.20275 8.67497 8.98505 8.13327 8.5719C7.91393 8.83539 7.79339 9.16919 7.79297 9.51425V16.9148C7.79297 18.6127 8.45691 20.241 9.63874 21.4416C10.8206 22.6422 12.4235 23.3167 14.0948 23.3167C15.7662 23.3167 17.3691 22.6422 18.5509 21.4416C19.7327 20.241 20.3966 18.6127 20.3966 16.9148V9.51425C20.3967 9.20716 20.3015 8.90787 20.1244 8.65897C19.5624 9.04354 18.8902 9.22671 18.2142 9.17947C17.5382 9.13223 16.897 8.85728 16.3922 8.39815C15.8873 7.93902 15.5476 7.32195 15.4269 6.64461C15.3061 5.96726 15.4112 5.26836 15.7255 4.65853C16.0398 4.04871 16.5454 3.5628 17.1621 3.27773C17.7789 2.99266 18.4717 2.92472 19.1307 3.08466C19.7898 3.24461 20.3775 3.62329 20.8008 4.16078C21.2242 4.69826 21.4589 5.36383 21.468 6.05213C22.0016 6.45209 22.4354 6.97372 22.7344 7.57503C23.0334 8.17635 23.1893 8.84057 23.1896 9.51425V16.9148C23.1885 19.1189 22.4121 21.2501 21.0005 22.924C19.589 24.5979 17.6351 25.7044 15.4913 26.0439V27.1962C15.4913 29.0428 16.2134 30.8138 17.4987 32.1195C18.7841 33.4253 20.5274 34.1589 22.3452 34.1589C24.1629 34.1589 25.9062 33.4253 27.1916 32.1195C28.4769 30.8138 29.199 29.0428 29.199 27.1962V21.9595C27.9322 21.6152 26.8318 20.8148 26.1029 19.7074C25.374 18.6 25.0663 17.2611 25.2372 15.9403C25.408 14.6194 26.0458 13.4068 27.0317 12.5283C28.0175 11.6498 29.2842 11.1655 30.5955 11.1655C31.9069 11.1655 33.1735 11.6498 34.1594 12.5283C35.1452 13.4068 35.783 14.6194 35.9539 15.9403C36.1248 17.2611 35.8171 18.6 35.0882 19.7074C34.3593 20.8148 33.2589 21.6152 31.992 21.9595H31.9945ZM33.2045 16.6587C33.2045 16.1345 33.0515 15.6221 32.7648 15.1863C32.4781 14.7504 32.0707 14.4107 31.5939 14.2101C31.1172 14.0095 30.5926 13.957 30.0866 14.0593C29.5805 14.1616 29.1156 14.414 28.7507 14.7846C28.3859 15.1553 28.1374 15.6275 28.0367 16.1417C27.936 16.6558 27.9877 17.1887 28.1852 17.673C28.3826 18.1573 28.717 18.5712 29.1461 18.8624C29.5751 19.1537 30.0795 19.3091 30.5955 19.3091C31.2875 19.3084 31.951 19.0291 32.4405 18.5322C32.93 18.0354 33.2057 17.3617 33.207 16.6587H33.2045Z" fill="#0E82FD"/>
</svg>
