<svg width="24" height="25" viewBox="0 0 24 25" fill="none" xmlns="http://www.w3.org/2000/svg">
<path d="M2.21177 14C4.05354 16.7613 7.16786 19.8071 12 23C16.8321 19.8071 19.9465 16.7613 21.7882 14H18C17.6933 14 17.4175 13.8133 17.3036 13.5285L15.1184 8.06552L12.7211 16.456C12.633 16.7644 12.3586 16.9826 12.0383 16.999C11.718 17.0154 11.4228 16.8263 11.3036 16.5285L8.83316 10.3523L6.62404 13.666C6.48494 13.8747 6.25076 14 6 14H2.21177Z" fill="#F0FDFA"/>
<path d="M1.31871 12.5C-3.63955 3.02056 6.61521 -2.49923 11.7365 2.21462C11.8259 2.29695 11.9138 2.3824 12 2.47101C12.0862 2.38241 12.1741 2.29696 12.2635 2.21464C17.3848 -2.49924 27.6396 3.02055 22.6813 12.5H18.5078L15.6964 5.47146C15.5772 5.17368 15.282 4.9846 14.9617 5.00098C14.6414 5.01736 14.367 5.23559 14.2789 5.54396L11.8816 13.9345L9.69636 8.47146C9.59292 8.21286 9.35469 8.03288 9.07767 8.00403C8.80065 7.97519 8.53046 8.10223 8.37596 8.33397L5.59861 12.5H1.31871Z" fill="#F0FDFA"/>
</svg>
