<svg width="16" height="17" viewBox="0 0 16 17" fill="none" xmlns="http://www.w3.org/2000/svg">
<path d="M8 3.24805L7.28325 2.51133C5.5989 0.780067 2.51415 1.37769 1.40036 3.55284C0.91777 4.4953 0.779811 5.82279 1.50826 7.5H0.430243C-1.69803 1.80285 4.5945 -1.32979 7.82432 1.64308C7.88395 1.69797 7.94253 1.75493 8 1.814C8.05747 1.75494 8.11605 1.69797 8.17567 1.64309C11.4055 -1.3298 17.698 1.80285 15.5698 7.5H14.4917C15.2202 5.82279 15.0822 4.4953 14.5996 3.55284C13.4859 1.37769 10.4011 0.780067 8.71675 2.51133L8 3.24805Z" fill="#0092E4"/>
<path d="M2.21206 10.5H3.52693C4.59306 11.6833 6.05133 12.9579 8 14.2946C9.94868 12.9579 11.4069 11.6833 12.4731 10.5H13.7879C12.5227 12.0665 10.6483 13.7501 8 15.5C5.35168 13.7501 3.47735 12.0665 2.21206 10.5Z" fill="#0092E4"/>
<path d="M10.4642 3.8143C10.3848 3.61579 10.188 3.48973 9.97446 3.50065C9.76093 3.51157 9.57798 3.65706 9.51924 3.86264L7.92104 9.45632L6.46424 5.8143C6.39528 5.64191 6.23646 5.52192 6.05178 5.50269C5.8671 5.48346 5.68697 5.56816 5.58397 5.72265L3.73241 8.5H0.5C0.223858 8.5 0 8.72386 0 9C0 9.27614 0.223858 9.5 0.5 9.5H4C4.16718 9.5 4.32329 9.41645 4.41603 9.27735L5.88877 7.06823L7.53576 11.1857C7.61517 11.3842 7.81201 11.5103 8.02554 11.4993C8.23907 11.4884 8.42202 11.3429 8.48076 11.1374L10.079 5.54368L11.5358 9.1857C11.6117 9.37552 11.7955 9.5 12 9.5H15.5C15.7761 9.5 16 9.27614 16 9C16 8.72386 15.7761 8.5 15.5 8.5H12.3385L10.4642 3.8143Z" fill="#0092E4"/>
</svg>
