<svg width="142" height="61" viewBox="0 0 142 61" fill="none" xmlns="http://www.w3.org/2000/svg">
<g clip-path="url(#clip0_802_156630)">
<path d="M141.5 28.248H0.5V29.7076H141.5V28.248Z" fill="#F0F9FF"/>
<path d="M104.874 16.2628C104.307 11.7829 102.1 5.69065 94.8033 2.10276C86.6922 -1.88587 80.3743 0.542093 76.5026 3.28031C73.8918 5.12655 72.0494 7.32771 71.0248 8.7356C70.0002 7.32653 68.1566 5.12655 65.5469 3.28031C61.6753 0.540918 55.3573 -1.88587 47.2463 2.10276C39.9507 5.69065 37.7429 11.7829 37.1754 16.2628C36.1191 24.6079 39.9143 34.3233 46.405 39.889C54.7792 47.0707 70.1471 60.5925 70.301 60.7277C70.5078 60.9098 70.7651 61.0003 71.0236 61.0003C71.2821 61.0003 71.5394 60.9098 71.7462 60.7277C71.9002 60.5925 87.2692 47.0707 95.6422 39.889C102.135 34.3221 105.931 24.6067 104.874 16.2628Z" fill="#F0F9FF"/>
<path d="M50.5796 29.7091C50.8887 29.7091 51.1636 29.514 51.267 29.2226L52.4138 25.8239L55.4535 40.3506C55.5252 40.6937 55.8342 40.9417 56.182 40.9299C56.5322 40.9229 56.8283 40.6679 56.887 40.3224L60.2487 20.4709L62.7738 32.0865C62.8419 32.4015 63.1087 32.6342 63.4306 32.6589C63.7514 32.6824 64.051 32.4943 64.1673 32.1935L66.1037 27.1719L66.9803 29.2661C67.0943 29.5375 67.3586 29.7138 67.6536 29.7138H73.0868C73.3981 29.7138 73.6754 29.5164 73.7765 29.2214L74.9303 25.8662L77.9607 40.3494C78.0312 40.6878 78.3296 40.9299 78.6739 40.9299C78.6786 40.9299 78.6833 40.9299 78.688 40.9299C79.0381 40.9229 79.3342 40.6679 79.393 40.3224L82.7547 20.4709L85.2797 32.0865C85.3479 32.4015 85.6146 32.6342 85.9366 32.6589C86.2573 32.6824 86.557 32.4943 86.6733 32.1935L88.6097 27.1719L89.4862 29.2661C89.6002 29.5375 89.8646 29.7138 90.1595 29.7138H102.851C103.05 29.232 103.24 28.7454 103.414 28.2554H90.6413L89.2512 24.9343C89.1373 24.6628 88.8717 24.4865 88.578 24.4865C88.5744 24.4865 88.5709 24.4865 88.5674 24.4865C88.2701 24.4912 88.0046 24.6757 87.8976 24.9531L86.1845 29.3953L83.3751 16.4716C83.301 16.1297 82.9967 15.884 82.6454 15.897C82.2964 15.9052 82.0015 16.1602 81.9427 16.5046L78.5952 36.2773L75.8128 22.9752C75.7458 22.6544 75.472 22.417 75.1442 22.397C74.8175 22.3759 74.5156 22.5768 74.4086 22.8882L72.5627 28.2542H68.1353L66.7453 24.9331C66.6313 24.6616 66.3658 24.4853 66.072 24.4853C66.0685 24.4853 66.065 24.4853 66.0614 24.4853C65.7642 24.49 65.4986 24.6746 65.3917 24.9531L63.6797 29.3953L60.8715 16.4728C60.7974 16.1308 60.4966 15.8852 60.1418 15.8981C59.7928 15.9064 59.4979 16.1614 59.4391 16.5057L56.0916 36.2785L53.3092 22.9764C53.2422 22.6556 52.9708 22.4193 52.6441 22.3982C52.3151 22.3747 52.0167 22.5745 51.9074 22.8824L50.0638 28.0932C50.0638 28.0932 42.2324 28.1861 38.6299 28.2284C38.8061 28.7266 38.9965 29.2202 39.1998 29.7079C42.7964 29.7091 50.5796 29.7091 50.5796 29.7091Z" fill="#BAE6FD"/>
</g>
<defs>
<clipPath id="clip0_802_156630">
<rect width="141" height="61" fill="white" transform="translate(0.5)"/>
</clipPath>
</defs>
</svg>
