<svg width="77" height="77" viewBox="0 0 77 77" fill="none" xmlns="http://www.w3.org/2000/svg">
<circle cx="38.5" cy="38.4998" r="38" fill="#09E5AB"/>
<path d="M44.25 21.531C42.3748 21.5311 40.5248 21.9627 38.8432 22.7925C37.1616 23.6223 35.6936 24.8281 34.5528 26.3163C33.412 27.8046 32.629 29.5354 32.2646 31.3749C31.9001 33.2143 31.9639 35.1129 32.451 36.9238L20.5312 48.8435V57.4685H29.1562V53.156H33.4688V48.8435H37.7812L41.0875 45.5373C42.1196 45.819 43.1805 45.9628 44.25 45.9685C47.4906 45.9685 50.5985 44.6812 52.89 42.3897C55.1814 40.0983 56.4688 36.9904 56.4688 33.7498C56.4688 30.5091 55.1814 27.4013 52.89 25.1098C50.5985 22.8183 47.4906 21.531 44.25 21.531V21.531Z" stroke="white" stroke-width="3.5" stroke-linecap="round" stroke-linejoin="round"/>
<path d="M46.4062 33.031C47.2002 33.031 47.8438 32.3874 47.8438 31.5935C47.8438 30.7996 47.2002 30.156 46.4062 30.156C45.6123 30.156 44.9688 30.7996 44.9688 31.5935C44.9688 32.3874 45.6123 33.031 46.4062 33.031Z" fill="white" stroke="white" stroke-width="3.5" stroke-linecap="round" stroke-linejoin="round"/>
</svg>
