<svg width="32" height="32" viewBox="0 0 32 32" fill="none" xmlns="http://www.w3.org/2000/svg">
<g clip-path="url(#clip0_2525_22230)">
<path fill-rule="evenodd" clip-rule="evenodd" d="M21.25 32C20.7708 32 20.2916 32 19.8125 32C19.2572 31.7932 19.0529 31.3853 19.068 30.8059C19.0906 29.9418 19.0728 29.0768 19.0741 28.2122C19.0768 26.2993 20.0521 24.9197 21.8621 24.2831C22.0237 24.2263 22.0962 24.1624 22.0935 23.9814C22.0835 23.2836 22.0841 22.5856 22.093 21.8877C22.0953 21.7026 22.0223 21.6407 21.8492 21.6044C21.1368 21.4548 20.4266 21.2942 19.7183 21.1264C19.5235 21.0802 19.4243 21.1395 19.3235 21.3095C18.5226 22.6615 17.7122 24.0078 16.9024 25.3545C16.3947 26.1987 15.605 26.1983 15.0974 25.3543C14.2875 24.0076 13.4762 22.6617 12.6743 21.3104C12.574 21.1414 12.4771 21.0812 12.2798 21.1286C11.5821 21.2961 10.8831 21.4603 10.1791 21.5983C9.94874 21.6434 9.90516 21.7442 9.90641 21.9527C9.91399 23.2755 9.91574 24.5985 9.90507 25.9213C9.90315 26.1589 9.96641 26.2775 10.1948 26.3874C11.3107 26.9245 11.9167 27.8357 11.9069 29.0696C11.8968 30.3294 11.2635 31.2387 10.1097 31.7615C9.87665 31.8671 9.62045 31.9217 9.37501 31.9998C9.10414 31.9998 8.83335 31.9998 8.56249 31.9998C8.52607 31.9824 8.49148 31.957 8.45314 31.9487C7.15689 31.672 6.20219 30.6844 6.05992 29.471C5.89724 28.0836 6.54332 26.9307 7.83365 26.3463C8.02034 26.2617 8.03734 26.1497 8.03692 25.9846C8.03367 24.7868 8.03559 23.589 8.03442 22.3913C8.03434 22.3012 8.0235 22.2111 8.01534 22.0849C7.68488 22.1594 7.38367 22.2299 7.0813 22.2947C5.46327 22.6418 4.4078 23.614 3.88615 25.1748C3.23365 27.1275 2.57732 29.0789 1.94191 31.0371C1.80331 31.4643 1.60695 31.8101 1.18748 31.9998C1.02079 31.9998 0.854107 31.9998 0.687503 31.9998C0.374713 31.8542 0.151686 31.6189 0 31.3122C0 31.1456 0 30.979 0 30.8123C0.0415885 30.72 0.0915948 30.6306 0.123515 30.5352C0.789599 28.5442 1.4466 26.5502 2.12002 24.5617C2.88228 22.311 4.44614 20.9519 6.75834 20.4392C8.43255 20.0679 10.1054 19.6901 11.7818 19.3287C12.0023 19.2812 12.0657 19.1969 12.0598 18.9786C12.0445 18.4065 12.0389 17.833 12.0615 17.2613C12.0723 16.9878 11.9787 16.844 11.7493 16.6936C9.49685 15.2159 8.21936 13.1335 8.06701 10.438C7.9825 8.94362 8.03692 7.44085 8.04776 5.94199C8.05442 5.02921 8.35954 4.20344 8.90995 3.4806C10.1157 1.89707 11.6745 0.821436 13.6047 0.312706C14.1237 0.176022 14.6594 0.102513 15.1875 0C15.7291 0 16.2709 0 16.8125 0C16.8704 0.0180856 16.9272 0.0466725 16.9863 0.0528399C19.4169 0.306705 21.3934 1.39959 22.939 3.28166C23.5724 4.05301 23.9433 4.93753 23.9512 5.94199C23.9631 7.48227 23.9557 9.02304 23.9338 10.5632C23.9286 10.9342 23.86 11.3097 23.7767 11.6731C23.2733 13.8707 22.0584 15.5677 20.1483 16.764C20.0004 16.8567 19.9376 16.9573 19.941 17.1367C19.9527 17.7507 19.9548 18.3653 19.9405 18.9792C19.9354 19.1969 19.9973 19.2785 20.2192 19.3265C21.9869 19.7085 23.7573 20.0817 25.5146 20.5081C27.5698 21.007 29.0132 22.2605 29.7573 24.2423C30.283 25.6424 30.7151 27.0776 31.1949 28.495C31.457 29.2696 31.7314 30.0401 32.0002 30.8124C32.0002 30.9791 32.0002 31.1457 32.0002 31.3124C31.7711 31.5416 31.5419 31.7707 31.3127 31.9999C31.1461 31.9999 30.9794 31.9999 30.8127 31.9999C30.3921 31.8114 30.1971 31.4649 30.0586 31.0379C29.4233 29.0804 28.7858 27.123 28.102 25.1822C27.9123 24.6437 27.6228 24.1138 27.2715 23.664C26.45 22.612 25.2563 22.2788 23.9651 22.1082C23.9651 22.733 23.9763 23.3254 23.9594 23.917C23.9528 24.1472 24.0373 24.2299 24.2482 24.3054C25.8371 24.8741 26.7835 25.9999 26.9395 27.6819C27.0351 28.7147 26.962 29.7622 26.9895 30.8026C27.0047 31.3791 26.8049 31.7909 26.2503 32C25.7711 32 25.2919 32 24.8128 32C24.7318 31.9567 24.6484 31.9176 24.5705 31.8696C24.2504 31.6728 24.0913 31.3854 24.1106 31.0091C24.1293 30.6444 24.3131 30.3778 24.6384 30.2224C24.7755 30.1569 24.9334 30.1349 25.0913 30.0903C25.0913 29.3473 25.1405 28.5957 25.0797 27.8533C24.9906 26.7642 24.1222 25.9981 23.0606 25.9825C21.9847 25.9667 21.0833 26.7212 20.9821 27.8206C20.9129 28.572 20.9689 29.335 20.9689 30.0913C21.6806 30.2515 21.9974 30.6002 21.946 31.1617C21.9055 31.6 21.6105 31.8273 21.25 32ZM15.9872 16.0991C16.4198 16.0434 16.8574 16.0128 17.2841 15.9277C20.0292 15.3811 22.1093 12.8112 22.0823 10.0058C22.0815 9.91499 22.0181 9.76597 21.9506 9.74338C21.1556 9.4771 20.5977 8.89869 20.0487 8.31346C19.8798 8.13343 19.7416 8.10918 19.5106 8.19502C17.1955 9.05555 14.8698 9.0593 12.5511 8.21603C12.2699 8.11376 12.1072 8.14244 11.9094 8.35596C11.3778 8.93012 10.825 9.48169 10.0527 9.7433C9.98125 9.76755 9.91741 9.93382 9.91791 10.0338C9.93266 13.3531 12.6566 16.0578 15.9872 16.0991ZM21.9888 7.64696C22.0214 7.63229 22.0539 7.6177 22.0864 7.6032C22.0864 7.08705 22.091 6.5709 22.0853 6.05492C22.0787 5.46002 21.8696 4.93853 21.4962 4.47839C20.275 2.97345 18.7055 2.10326 16.774 1.91949C14.4836 1.70163 12.5297 2.39805 10.8731 4.02459C9.81689 5.06163 9.85131 6.3082 9.94433 7.70155C10.394 7.24216 10.7882 6.83419 11.1883 6.43205C11.6458 5.97233 11.9501 5.92107 12.5326 6.18486C14.8469 7.23282 17.1613 7.23457 19.4746 6.18152C20.0473 5.92082 20.34 5.96541 20.7939 6.41689C21.1993 6.81985 21.5911 7.2364 21.9888 7.64696ZM16.0017 23.2127C16.6934 22.0592 17.3508 20.9641 18.0058 19.8677C18.0366 19.8161 18.0653 19.7531 18.0656 19.6951C18.0698 19.0314 18.0683 18.3677 18.0683 17.6707C16.6785 18.0272 15.3156 18.0243 13.9653 17.6806C13.8519 18.8804 13.8269 20.016 14.6522 20.9868C14.8978 21.2757 15.0545 21.6401 15.2526 21.9695C15.4919 22.3675 15.732 22.765 16.0017 23.2127ZM8.98004 27.9902C8.38605 27.9866 7.90649 28.4545 7.89932 29.045C7.89224 29.628 8.37571 30.1194 8.9612 30.1241C9.54644 30.1289 10.0363 29.6489 10.0432 29.0639C10.0501 28.4794 9.56936 27.994 8.98004 27.9902Z" fill="#FFAF14"/>
</g>
<defs>
<clipPath id="clip0_2525_22230">
<rect width="32" height="32" fill="white"/>
</clipPath>
</defs>
</svg>
