<svg width="12" height="17" viewBox="0 0 12 17" fill="none" xmlns="http://www.w3.org/2000/svg">
<path d="M5.99995 0L7.66895 0.864L9.52695 1.146L10.3689 2.826L11.7059 4.146L11.3999 6L11.7059 7.854L10.3689 9.174L9.52695 10.854L7.66895 11.136L5.99995 12L4.33095 11.136L2.47295 10.854L1.63095 9.174L0.293945 7.854L0.599945 6L0.293945 4.146L1.63095 2.826L2.47295 1.146L4.33095 0.864L5.99995 0Z" fill="white"/>
<path d="M2 12V16.206L6 15.206L10 16.206V12L7.982 12.306L6 13.332L4.018 12.306L2 12Z" fill="#F5F3FF"/>
</svg>
