<svg width="32" height="26" viewBox="0 0 32 26" fill="none" xmlns="http://www.w3.org/2000/svg">
<path d="M31.1053 17.3062C30.9714 17.688 30.6641 17.8439 30.2938 17.9374C27.7095 18.5997 25.1961 18.4049 22.7537 17.3296C22.5488 17.2361 22.3361 17.1582 22.1076 17.0647C22.084 17.2751 22.0682 17.4621 22.0367 17.6491C21.8082 18.9659 20.6658 19.7217 19.35 19.4256C18.7433 19.2932 18.2233 18.9893 17.7506 18.5919C17.727 18.5997 17.7033 18.6075 17.6954 18.6153C17.01 19.5269 15.8754 19.6905 14.859 19.2542C13.7402 18.7789 13.0075 17.9296 12.6057 16.8075C12.5427 16.6361 12.4639 16.5426 12.2826 16.4881C11.6917 16.3167 11.4948 16.1608 10.7226 15.3738C8.13835 17.9529 5.54619 20.5243 2.9304 23.1346C3.17465 23.1891 3.44253 23.2748 3.72617 23.2982C4.68739 23.3839 5.56983 23.08 6.42075 22.6826C7.81531 22.0203 9.02866 21.1009 10.1396 20.049C10.2184 19.971 10.2656 19.8308 10.2656 19.7217C10.2814 19.2074 10.2735 18.6932 10.2814 18.1789C10.2893 17.688 10.6044 17.3608 11.0457 17.3608C11.4869 17.3608 11.802 17.6958 11.802 18.1867C11.802 18.8568 11.802 19.5269 11.7705 20.197C11.7626 20.3918 11.6917 20.6412 11.5499 20.7736C10.0214 22.293 8.33532 23.6021 6.28681 24.3813C5.19952 24.7942 4.07284 24.989 2.90677 24.7085C2.27645 24.5605 1.71705 24.2566 1.23644 23.8202C0.779464 23.3995 0.771585 22.9787 1.2128 22.5424C3.30859 20.4619 5.41225 18.3893 7.51592 16.3167C7.59471 16.2387 7.71289 16.192 7.81531 16.1296C7.79168 16.1063 7.76016 16.0751 7.73653 16.0517C7.72865 16.0439 7.72865 16.0361 7.72077 16.0284C6.27105 15.1011 5.98741 13.8778 6.87773 12.4207C7.95713 10.6597 9.03654 8.89877 10.1002 7.13001C10.6754 6.18719 11.4238 5.43138 12.3772 4.85478C13.8978 3.92754 15.4106 2.98473 16.9233 2.04191C17.4512 1.71465 18.0106 1.50427 18.633 1.46531C19.1215 1.43414 19.4761 1.69906 19.5233 2.11983C19.5706 2.54838 19.2949 2.89901 18.8142 2.96135C18.3494 3.01589 17.9476 3.19511 17.5615 3.43666C16.1118 4.34051 14.6542 5.24437 13.1887 6.14044C12.4323 6.60016 11.8414 7.20014 11.3923 7.94816C10.305 9.7403 9.20988 11.5246 8.12259 13.3168C8.03592 13.4648 7.94926 13.6285 7.90986 13.7921C7.83895 14.1271 8.03592 14.4778 8.3432 14.6414C8.65048 14.805 9.01291 14.7739 9.27291 14.5401C9.56443 14.2752 9.84019 14.0025 10.116 13.722C10.1869 13.6518 10.2263 13.5427 10.242 13.4414C10.4311 12.1402 11.3529 11.213 12.6766 10.9792C12.8342 10.948 13.0075 10.8545 13.1257 10.7455C16.5294 7.41831 19.9015 4.08338 23.2737 0.748453C24.2586 -0.225534 25.7083 -0.248909 26.6537 0.678326C27.5204 1.52764 27.5756 2.9146 26.7719 3.82625C26.6853 3.92754 26.5828 4.02884 26.4883 4.12234C24.2822 6.30407 22.084 8.47801 19.8779 10.6597C19.7991 10.7377 19.7124 10.8 19.5627 10.9169C19.7203 10.9325 19.7912 10.948 19.8543 10.948C20.4925 10.948 21.1306 10.948 21.7688 10.948C22.407 10.948 22.8404 10.5662 22.9349 9.93509C22.9428 9.88834 22.9428 9.84159 22.9507 9.78705C22.9979 9.34291 23.3367 9.04682 23.7622 9.07798C24.1798 9.10915 24.4871 9.452 24.4713 9.89613C24.4398 10.6519 24.1483 11.2909 23.5731 11.7974C23.0373 12.2727 22.3991 12.4675 21.6743 12.4675C18.8458 12.4597 16.0094 12.4675 13.1808 12.4675C12.4875 12.4675 11.936 12.896 11.8099 13.5194C11.6366 14.3843 12.2511 15.1245 13.173 15.1323C14.2918 15.1401 15.4106 15.1323 16.5372 15.1323C17.3567 15.1323 18.1682 15.1635 18.9876 15.1245C20.6185 15.0544 22.1549 15.405 23.644 16.0517C25.6768 16.9322 27.7883 17.0335 29.9314 16.4647C30.5617 16.3011 30.8059 16.3946 31.1053 16.9556C31.1053 17.0725 31.1053 17.1893 31.1053 17.3062ZM15.1427 10.948C15.8518 10.948 16.49 10.9402 17.1282 10.9558C17.333 10.9636 17.4748 10.8935 17.6167 10.7532C20.2167 8.17413 22.8246 5.59501 25.4325 3.01589C25.5113 2.93797 25.5901 2.86785 25.6531 2.78214C26.0156 2.29904 25.7477 1.62114 25.1568 1.51206C24.8101 1.44972 24.558 1.62114 24.3216 1.84711C21.3355 4.80803 18.3494 7.76116 15.3554 10.7143C15.3003 10.7766 15.2451 10.839 15.1427 10.948ZM14.1578 16.6517C14.5754 17.3452 15.056 17.8517 15.8281 17.9763C16.1591 18.0309 16.4427 17.8984 16.5057 17.6023C16.5688 17.3374 16.5372 17.0491 16.5294 16.7764C16.5294 16.7296 16.4269 16.6517 16.3718 16.6517C15.6469 16.6439 14.9378 16.6517 14.1578 16.6517ZM18.1761 16.6673C18.4124 17.2751 19.1215 17.8672 19.6888 17.9529C20.2009 18.0309 20.5082 17.8049 20.5397 17.2906C20.5476 17.1348 20.5397 16.979 20.5003 16.8309C20.4846 16.7608 20.3821 16.6751 20.3112 16.6673C19.6021 16.6673 18.9009 16.6673 18.1761 16.6673Z" fill="#21CBE2"/>
<path d="M31.1056 6.80268C30.8929 7.23123 30.5541 7.37928 30.0814 7.34032C29.0414 7.25461 28.1905 6.80268 27.4735 6.08582C27.1898 5.80531 27.1977 5.36897 27.4577 5.08067C27.7177 4.78457 28.1353 4.73003 28.4662 4.96379C28.5844 5.0495 28.6947 5.15079 28.805 5.2443C29.199 5.58714 29.6559 5.81311 30.1838 5.82869C30.6172 5.83648 30.9323 6.0079 31.1135 6.40529C31.1056 6.52996 31.1056 6.67021 31.1056 6.80268Z" fill="#21CBE2"/>
<path d="M13.0391 24.482C13.4331 24.482 13.827 24.4742 14.221 24.482C14.6937 24.4898 15.0167 24.8014 15.0167 25.2378C15.0167 25.6741 14.6937 25.9858 14.221 25.9936C13.4331 26.0014 12.6452 26.0014 11.8652 25.9936C11.4003 25.9858 11.0615 25.6586 11.0615 25.2378C11.0615 24.817 11.4003 24.4898 11.8652 24.482C12.2591 24.482 12.6531 24.482 13.0391 24.482Z" fill="#21CBE2"/>
<path d="M18.6243 24.482C19.0104 24.482 19.3885 24.4742 19.7746 24.482C20.2473 24.4898 20.5861 24.7937 20.594 25.2222C20.6019 25.6586 20.2631 25.9936 19.7746 25.9936C19.0025 26.0014 18.2225 26.0014 17.4503 25.9936C16.9618 25.9858 16.6309 25.6741 16.6388 25.2222C16.6467 24.7859 16.9697 24.4898 17.4503 24.482C17.8364 24.482 18.2303 24.482 18.6243 24.482Z" fill="#21CBE2"/>
<path d="M24.1956 24.482C24.5896 24.482 24.9835 24.4742 25.3775 24.482C25.8345 24.4898 26.1575 24.8014 26.1575 25.2222C26.1654 25.6586 25.8423 25.9858 25.3775 25.9936C24.5817 26.0014 23.7859 26.0014 22.9902 25.9936C22.5253 25.9858 22.1944 25.6508 22.2023 25.2222C22.2102 24.8014 22.5332 24.4898 22.9902 24.482C23.392 24.482 23.7938 24.482 24.1956 24.482Z" fill="#21CBE2"/>
</svg>
