<svg width="30" height="30" viewBox="0 0 30 30" fill="none" xmlns="http://www.w3.org/2000/svg">
<g clip-path="url(#clip0_2525_22213)">
<path d="M14.6516 30.0001C14.1742 29.9296 13.6889 29.8748 13.2115 29.7731C9.90858 29.1156 7.31792 27.3781 5.44732 24.5839C3.99937 22.4238 3.3654 20.0209 3.47497 17.4303C3.69412 11.9985 7.77969 7.24766 13.1097 6.22235C19.3946 5.0092 25.4838 8.82866 27.0805 14.9805C28.8493 21.7976 24.3881 28.6539 17.4144 29.8279C17.0231 29.8905 16.6239 29.9375 16.2326 29.9922C15.7082 30.0001 15.176 30.0001 14.6516 30.0001ZM25.7108 17.9782C25.6873 12.3272 21.0617 7.71726 15.4421 7.74857C9.77552 7.77988 5.19686 12.382 5.22034 18.0251C5.24382 23.6604 9.83813 28.2469 15.4734 28.239C21.1165 28.2312 25.7265 23.6134 25.7108 17.9782Z" fill="#0E82FD"/>
<path d="M0 5.03953C0.195669 4.51514 0.579181 4.31164 1.11923 4.34295C1.36969 4.3586 1.62797 4.33512 1.87843 4.35078C2.40282 4.36643 2.7785 4.74211 2.7785 5.2352C2.7785 5.72829 2.40282 6.09614 1.8706 6.10397C1.62797 6.1118 1.38534 6.08832 1.14271 6.1118C0.602661 6.15093 0.21915 5.94744 0 5.44652C0 5.31347 0 5.17259 0 5.03953Z" fill="#0E82FD"/>
<path d="M28.4893 4.93096C28.278 4.93096 28.0588 4.93878 27.8475 4.93096C27.3544 4.9153 26.9866 4.57092 26.9631 4.09349C26.9396 3.64737 27.2761 3.22472 27.7457 3.19341C28.2388 3.15428 28.7397 3.15428 29.2328 3.19341C29.7024 3.23255 30.0233 3.65519 29.9999 4.10914C29.9685 4.57092 29.6163 4.9153 29.1311 4.93096C28.9198 4.93878 28.7084 4.93096 28.4893 4.93096Z" fill="#0E82FD"/>
<path d="M26.7835 1.50975C26.7835 1.72107 26.7913 1.94022 26.7835 2.15154C26.7678 2.64463 26.4235 3.01249 25.946 3.03597C25.4921 3.05945 25.0616 2.70724 25.0381 2.22981C25.0068 1.75238 25.0068 1.27494 25.0381 0.797509C25.0694 0.320076 25.4921 -0.0243016 25.9539 -0.000821316C26.4156 0.022659 26.76 0.390517 26.7757 0.860123C26.7913 1.07927 26.7835 1.2906 26.7835 1.50975Z" fill="#0E82FD"/>
<path d="M23.3319 4.93096C23.1284 4.93096 22.9249 4.93878 22.7214 4.93096C22.2283 4.9153 21.8604 4.57875 21.8291 4.10132C21.7978 3.63954 22.1422 3.2169 22.6275 3.18559C23.1049 3.15428 23.5823 3.15428 24.0598 3.18559C24.5528 3.2169 24.8816 3.61606 24.8581 4.09349C24.8424 4.5631 24.4746 4.9153 23.9815 4.92313C23.7623 4.93878 23.551 4.93096 23.3319 4.93096Z" fill="#0E82FD"/>
<path d="M26.7835 6.60546C26.7835 6.80896 26.7913 7.01245 26.7835 7.21595C26.7678 7.72469 26.4078 8.09255 25.9226 8.1082C25.453 8.11603 25.0538 7.76382 25.0303 7.27856C25.0068 6.82461 25.0068 6.36283 25.0303 5.90888C25.0538 5.40797 25.4608 5.06359 25.946 5.08707C26.4156 5.10272 26.76 5.47058 26.7757 5.97149C26.7913 6.18282 26.7835 6.39414 26.7835 6.60546Z" fill="#0E82FD"/>
<path d="M2.86481 7.54466C2.86481 7.3803 2.86481 7.21594 2.86481 7.04375C2.88046 6.55066 3.22484 6.18281 3.69444 6.1515C4.1484 6.12802 4.57104 6.48022 4.61018 6.96548C4.64148 7.35682 4.64148 7.74816 4.61018 8.13167C4.57104 8.61693 4.15622 8.96131 3.69444 8.93783C3.22484 8.90652 2.88046 8.53866 2.86481 8.04558C2.85698 7.88122 2.86481 7.70903 2.86481 7.54466Z" fill="#0E82FD"/>
<path d="M4.61746 2.91184C4.61746 3.09968 4.63312 3.28752 4.61746 3.46754C4.5705 3.97628 4.18699 4.31283 3.69391 4.29718C3.2243 4.27369 2.8721 3.90584 2.86427 3.41275C2.85644 3.08403 2.85644 2.74747 2.86427 2.41875C2.8721 1.91784 3.2243 1.54998 3.69391 1.5265C4.17134 1.50302 4.5705 1.85522 4.61746 2.35614C4.62529 2.53615 4.61746 2.72399 4.61746 2.91184Z" fill="#0E82FD"/>
<path d="M6.06552 6.10479C5.90116 6.10479 5.7368 6.11262 5.56461 6.10479C5.07152 6.08914 4.70367 5.73693 4.68801 5.2595C4.67236 4.79772 5.01674 4.39073 5.502 4.35159C5.87768 4.32811 6.26119 4.32811 6.6447 4.35159C7.13779 4.3829 7.47434 4.78207 7.45869 5.25167C7.44303 5.72128 7.083 6.08131 6.58992 6.09696C6.41773 6.10479 6.23771 6.10479 6.06552 6.10479Z" fill="#0E82FD"/>
<path d="M15.4114 23.9256C13.3608 23.8787 11.5998 23.1038 10.1988 21.5463C9.81525 21.1236 9.81525 20.5914 10.1988 20.247C10.5745 19.9105 11.1067 19.9653 11.498 20.3723C13.7678 22.7751 17.1646 22.7751 19.4344 20.3566C19.8022 19.9575 20.3423 19.9105 20.7101 20.2392C21.0858 20.5758 21.1015 21.1315 20.7258 21.5463C19.3169 23.1038 17.5481 23.8865 15.4114 23.9256Z" fill="#0E82FD"/>
<path d="M18.972 13.4688C20.1773 13.4766 21.187 14.455 21.2183 15.6446C21.234 16.1769 20.9052 16.5682 20.4043 16.6073C19.9191 16.6465 19.5434 16.2864 19.4495 15.7699C19.4182 15.5977 19.3164 15.3942 19.1755 15.3003C18.8703 15.0889 18.4946 15.3159 18.4476 15.7151C18.4007 16.1299 18.2207 16.443 17.8058 16.5682C17.2501 16.7404 16.7023 16.3334 16.6866 15.7464C16.6475 14.5098 17.6963 13.461 18.972 13.4688Z" fill="#0E82FD"/>
<path d="M9.71288 15.645C9.75202 14.4632 10.7225 13.4927 11.8887 13.4692C13.1175 13.4457 14.135 14.3458 14.2289 15.5433C14.2759 16.1303 13.955 16.5529 13.4306 16.6077C12.9297 16.6547 12.5462 16.3025 12.4757 15.7233C12.4366 15.4181 12.2409 15.2302 11.9592 15.2302C11.6774 15.2302 11.4817 15.4024 11.4661 15.7311C11.4191 16.4825 10.6364 16.8347 10.0886 16.4512C9.8068 16.2555 9.6894 15.9816 9.71288 15.645Z" fill="#0E82FD"/>
</g>
<defs>
<clipPath id="clip0_2525_22213">
<rect width="30" height="30" fill="white"/>
</clipPath>
</defs>
</svg>
