<svg width="35" height="42" viewBox="0 0 35 42" fill="none" xmlns="http://www.w3.org/2000/svg">
<g clip-path="url(#clip0_2525_22322)">
<path fill-rule="evenodd" clip-rule="evenodd" d="M12.0922 1.05269C13.1446 0.559545 14.2696 0.336962 15.4077 0.163471C15.7859 0.105775 16.1652 0.054254 16.544 0C17.1915 0 17.839 0 18.4865 0C18.9863 0.0760163 19.4864 0.150919 19.986 0.228251C22.3603 0.595883 24.5133 1.50423 26.4373 2.93285C29.5872 5.27144 31.6011 8.36321 32.3325 12.2213C33.1687 16.6314 32.2176 20.662 29.5359 24.2735C29.4959 24.3274 29.4609 24.3848 29.4235 24.4405C29.0489 24.8563 28.6981 25.2971 28.2943 25.6825C27.6882 26.2609 27.0449 26.8004 26.4175 27.3564C26.3051 27.4293 26.1911 27.5 26.0805 27.5756C24.7599 28.4791 23.3336 29.1692 21.8002 29.6184C20.2203 30.0812 18.6017 30.2891 16.952 30.214C16.3254 30.1519 15.6838 30.1546 15.0758 30.013C14.0368 29.7711 13.019 29.4387 11.9922 29.1443C14.0908 29.142 16.1895 29.1495 18.2878 29.1279C18.6545 29.1241 19.0391 29.0487 19.3822 28.9185C20.1908 28.6116 20.5486 27.6888 20.2347 26.8847C20.031 26.3628 19.5986 26.1159 19.1335 25.8958C19.1336 25.8428 19.1337 25.7898 19.1338 25.7368C19.4383 25.6934 19.7494 25.6764 20.0464 25.6027C22.5083 24.9907 24.5314 23.691 26.069 21.6707C28.0953 19.0083 28.7262 16.0152 28.0263 12.7612C27.431 9.99417 25.908 7.80934 23.584 6.2138C21.8384 5.01536 19.8885 4.37473 17.7534 4.35743C17.8253 4.28566 17.887 4.19821 17.9706 4.14456C18.6418 3.71286 18.9563 2.99622 18.7598 2.32796C18.5341 1.56081 17.9431 1.13346 17.1057 1.13336C15.574 1.13296 14.0421 1.13539 12.5104 1.12972C12.371 1.12921 12.2316 1.07951 12.0922 1.05269Z" fill="#FECB5B"/>
<path fill-rule="evenodd" clip-rule="evenodd" d="M16.9512 30.2131C18.6009 30.2882 20.2195 30.0803 21.7994 29.6175C23.3327 29.1683 24.7591 28.4782 26.0797 27.5747C26.1903 27.4991 26.3043 27.4284 26.4167 27.3555C26.4811 27.3732 26.5456 27.391 26.6102 27.4082C27.1543 27.5539 27.4943 27.8879 27.5488 28.3304C27.6061 28.7955 27.3145 29.2837 26.8363 29.5359C25.9329 30.0121 25.0303 30.4896 24.1294 30.9706C23.5964 31.2553 23.0565 31.5294 22.5398 31.8415C22.0298 32.1499 21.9152 32.6308 22.1888 33.1151C22.4743 33.6203 22.9428 33.774 23.4841 33.5121C23.9435 33.2898 24.3922 33.0446 24.84 32.7993C25.2793 32.5586 25.809 32.5868 26.1576 32.8847C26.552 33.2216 26.6484 33.6651 26.4613 34.1521C26.3194 34.5213 26.0388 34.7155 25.7013 34.8843C25.1792 35.1457 24.7756 35.5321 24.8948 36.1746C24.9445 36.4423 25.159 36.6794 25.2986 36.9305C24.4935 38.4087 23.6884 39.887 22.8838 41.3653C22.8714 41.3882 22.8654 41.4143 22.8563 41.439C22.8292 41.439 22.8023 41.439 22.7754 41.439C22.7317 41.329 22.6977 41.2137 22.6427 41.1098C21.3853 38.7352 20.1284 36.3605 18.8648 33.9892C18.4239 33.1617 17.9657 32.3433 17.5153 31.5207C17.4537 31.3603 17.3982 31.1973 17.3292 31.0401C17.2075 30.7627 17.0776 30.4886 16.9512 30.2131Z" fill="#E85454"/>
<path fill-rule="evenodd" clip-rule="evenodd" d="M16.9515 30.2142C17.0781 30.4897 17.2079 30.7638 17.3296 31.0414C17.3985 31.1985 17.454 31.3616 17.5156 31.5219C17.4421 31.6324 17.3585 31.7373 17.2966 31.8539C15.897 34.4874 14.4979 37.121 13.1039 39.7573C12.8101 40.3127 12.5366 40.8789 12.2538 41.4402C12.2268 41.4402 12.1999 41.4402 12.1729 41.4402C11.4016 40.0345 10.6297 38.6291 9.86036 37.2224C9.79051 37.0945 9.73677 36.9579 9.67553 36.8253C10.1484 36.5936 10.3699 35.9942 10.052 35.5831C9.79993 35.2571 9.44191 34.9945 9.08886 34.77C8.59338 34.4551 8.34509 33.809 8.56433 33.2769C8.73205 32.8699 9.38533 32.4495 9.94852 32.7257C10.4667 32.9795 10.9792 33.2451 11.4901 33.5134C11.8819 33.719 12.4168 33.6579 12.6732 33.3653C13.0227 32.9666 13.0959 32.4915 12.7971 32.1156C12.6378 31.9153 12.39 31.7704 12.1581 31.6453C10.8084 30.9183 9.44869 30.2097 8.09832 29.4841C7.35313 29.0836 7.26487 28.1101 7.93323 27.6061C8.10732 27.4748 8.34691 27.4302 8.55644 27.3457C8.98743 27.6147 9.40244 27.9151 9.85317 28.1455C10.5533 28.5035 11.2777 28.8138 11.9918 29.1443C13.0186 29.4386 14.0365 29.771 15.0754 30.013C15.6832 30.1548 16.325 30.152 16.9515 30.2142Z" fill="#EC6362"/>
<path fill-rule="evenodd" clip-rule="evenodd" d="M25.299 36.9323C25.1594 36.6812 24.945 36.4441 24.8953 36.1764C24.776 35.5339 25.1797 35.1475 25.7018 34.8861C26.0392 34.7173 26.3198 34.5231 26.4617 34.1539C26.6488 33.6669 26.5524 33.2235 26.1581 32.8865C25.8095 32.5887 25.2797 32.5604 24.8404 32.8011C24.3926 33.0464 23.944 33.2916 23.4845 33.5139C22.9432 33.7758 22.4747 33.6221 22.1892 33.1169C21.9156 32.6325 22.0302 32.1516 22.5403 31.8433C23.0569 31.5311 23.5968 31.257 24.1298 30.9724C25.0307 30.4914 25.9334 30.0139 26.8368 29.5376C27.3149 29.2855 27.6065 28.7973 27.5492 28.3322C27.4947 27.8897 27.1547 27.5556 26.6106 27.41C26.546 27.3927 26.4816 27.3749 26.4171 27.3573C27.0446 26.8013 27.6878 26.2617 28.2939 25.6834C28.6977 25.298 29.0486 24.8573 29.4231 24.4414C30.4133 26.2938 31.4053 28.1453 32.3928 29.9989C33.2162 31.5444 34.0346 33.0925 34.8539 34.6401C34.9027 34.7323 34.9402 34.8304 34.9999 34.9633C33.9549 34.8675 32.9513 34.7759 31.9478 34.6834C30.3384 34.535 28.7286 34.3898 27.12 34.2332C26.8839 34.2103 26.7593 34.2827 26.6467 34.4939C26.2094 35.3131 25.7502 36.1206 25.299 36.9323Z" fill="#EC6362"/>
<path fill-rule="evenodd" clip-rule="evenodd" d="M11.9923 29.1443C11.2782 28.8137 10.5537 28.5034 9.85359 28.1455C9.40286 27.915 8.98786 27.6147 8.55666 27.3458C7.60519 26.4212 6.65433 25.4963 5.70114 24.5738C5.66521 24.5388 5.6064 24.5274 5.55832 24.5049C5.45831 24.3204 5.37713 24.1222 5.25537 23.9534C3.67522 21.7639 2.73529 19.3188 2.48143 16.6414C2.15793 13.2288 2.87446 10.0316 4.70888 7.11106C6.39996 4.41871 8.71689 2.45534 11.633 1.19637C11.7795 1.1331 11.9389 1.0999 12.0924 1.05273C12.2318 1.07956 12.371 1.12916 12.5106 1.12966C14.0424 1.13533 15.5742 1.1329 17.1059 1.13331C17.9433 1.13341 18.5344 1.56086 18.76 2.32791C18.9565 2.99616 18.6419 3.7128 17.9707 4.1445C17.8872 4.19815 17.8255 4.2856 17.7536 4.35747C17.352 4.36486 16.9502 4.37225 16.5485 4.37964C16.2782 4.37782 16.008 4.3762 15.7377 4.37448C13.7722 4.37316 11.8066 4.385 9.84125 4.36577C8.66466 4.35423 8.14591 5.48152 8.57852 6.48137C8.85992 7.13151 9.43282 7.27555 10.0695 7.28435C9.67767 7.74328 9.2735 8.1923 8.89646 8.66297C7.87504 9.93804 7.26681 11.4144 6.93198 12.9932C6.68044 14.1792 6.66071 15.3927 6.8342 16.5987C7.03492 17.9945 7.4232 19.3392 8.20391 20.5212C8.77084 21.3795 9.44487 22.167 10.0712 22.9859C9.38464 23.5259 9.16945 24.163 9.46521 24.845C9.78497 25.5826 10.3847 25.8957 11.1622 25.8985C12.614 25.9037 14.0658 25.9019 15.5176 25.8965C15.644 25.896 15.7702 25.8472 15.8965 25.8208C16.9755 25.8458 18.0545 25.8707 19.1336 25.8957C19.5987 26.1159 20.0311 26.3626 20.2348 26.8846C20.5487 27.6886 20.1909 28.6115 19.3823 28.9184C19.0392 29.0486 18.6547 29.124 18.2879 29.1279C16.1895 29.1493 14.0909 29.1418 11.9923 29.1443Z" fill="#FCBB4B"/>
<path fill-rule="evenodd" clip-rule="evenodd" d="M5.5578 24.5059C5.60598 24.5283 5.66468 24.5398 5.70062 24.5747C6.65381 25.4971 7.60467 26.4222 8.55614 27.3467C8.34692 27.4311 8.10723 27.4757 7.93313 27.607C7.26477 28.111 7.35303 29.0845 8.09822 29.485C9.4486 30.2106 10.8083 30.9192 12.158 31.6462C12.39 31.7712 12.6377 31.9161 12.797 32.1165C13.0958 32.4924 13.0226 32.9674 12.6731 33.3662C12.4167 33.6588 11.8818 33.7199 11.49 33.5142C10.9791 33.246 10.4666 32.9804 9.94842 32.7266C9.38523 32.4504 8.73186 32.8709 8.56424 33.2778C8.34499 33.8099 8.59339 34.456 9.08876 34.7709C9.44181 34.9954 9.79983 35.2581 10.0519 35.584C10.3698 35.9952 10.1483 36.5945 9.67543 36.8262C9.24939 36.0616 8.81162 35.3031 8.404 34.5289C8.27707 34.2875 8.1386 34.2076 7.86997 34.2339C5.97928 34.4189 4.08727 34.59 2.19567 34.7649C1.48692 34.8304 0.777877 34.8947 0 34.9662C1.87065 31.4453 3.71427 27.9756 5.5578 24.5059Z" fill="#E85454"/>
<path fill-rule="evenodd" clip-rule="evenodd" d="M10.0703 22.9866C9.44398 22.1676 8.76996 21.3802 8.20302 20.5218C7.42231 19.3398 7.03403 17.9951 6.83331 16.5994C6.65982 15.3933 6.67946 14.1798 6.93109 12.9938C7.26593 11.4151 7.87416 9.93867 8.89557 8.6636C9.27272 8.19292 9.67689 7.74391 10.0686 7.28498C10.2474 7.1458 10.4315 7.013 10.6039 6.86633C12.0407 5.6445 13.6834 4.86086 15.5412 4.52663C15.6131 4.51367 15.6719 4.42733 15.7367 4.375C16.007 4.37672 16.2773 4.37834 16.5475 4.38006C16.48 4.4576 16.4204 4.54444 16.3434 4.61145C15.9655 4.94092 15.7298 5.33042 15.8681 5.84775C16.0322 6.46135 16.5012 6.79902 17.1484 6.79932C19.0745 6.79983 21.0006 6.79639 22.9267 6.80135C23.6218 6.80317 24.1863 7.32223 24.2312 7.97864C24.2746 8.61015 23.8556 9.15664 23.1694 9.2196C22.3424 9.29551 21.5071 9.27942 20.6757 9.31049C20.5177 9.31647 20.3492 9.3275 20.2056 9.3858C19.6443 9.61324 19.3516 10.1737 19.467 10.7578C19.5824 11.3417 20.0565 11.732 20.6774 11.7351C21.7684 11.7405 22.8595 11.736 23.9504 11.7368C24.693 11.7373 25.0234 11.9992 25.1975 12.7212C23.5249 12.7184 21.8523 12.708 20.1797 12.7199C19.8837 12.722 19.7577 12.6271 19.6697 12.3465C19.2033 10.857 18.7177 9.37335 18.2329 7.88977C18.1228 7.5524 17.9445 7.28498 17.5299 7.2781C17.0951 7.27081 16.9086 7.5437 16.793 7.89868C16.3092 9.38277 15.8213 10.8655 15.3558 12.3554C15.2658 12.6439 15.1274 12.7217 14.8395 12.7193C13.2749 12.706 11.71 12.7132 10.1452 12.7129C9.74177 12.7129 9.43022 12.8609 9.30865 13.2706C9.19792 13.6439 9.4122 13.8769 9.68995 14.0785C10.9755 15.0111 12.2569 15.9495 13.5459 16.8774C13.7336 17.0124 13.8142 17.128 13.7226 17.3713C13.5472 17.8365 13.4125 18.317 13.2595 18.7908C12.9161 19.8538 12.5759 20.9177 12.2262 21.9786C12.1115 22.3266 12.165 22.6091 12.4644 22.839C12.7619 23.0672 13.0468 22.9983 13.3229 22.8115C13.568 22.6455 13.8021 22.4634 14.0424 22.2903C15.1448 21.4956 16.2477 20.7016 17.3504 19.9073C17.3448 20.8117 18.4753 21.2557 19.1338 20.963C19.9721 21.5673 20.8085 22.1744 21.6498 22.7745C21.9258 22.9714 22.2183 23.0892 22.5408 22.8562C22.8585 22.6265 22.9262 22.335 22.8001 21.9699C22.6953 21.6668 22.6193 21.3539 22.5305 21.0452C23.0015 21.045 23.4727 21.0364 23.9434 21.0466C24.6169 21.061 25.0978 21.7255 24.9083 22.3655C24.7147 23.0195 24.4338 23.229 23.7372 23.2295C21.9341 23.2307 20.1311 23.2259 18.3281 23.2317C17.584 23.2341 17.0245 23.7794 17.0286 24.474C17.0329 25.1899 17.5377 25.6501 18.3094 25.662C18.5843 25.6663 18.8585 25.7111 19.133 25.7374C19.1329 25.7903 19.1328 25.8434 19.1327 25.8963C18.0537 25.8713 16.9747 25.8464 15.8957 25.8214C15.8509 25.7955 15.8086 25.7535 15.7609 25.746C14.0899 25.484 12.5725 24.8532 11.2103 23.8515C10.8259 23.569 10.4501 23.2751 10.0703 22.9866Z" fill="#FEDA6F"/>
<path fill-rule="evenodd" clip-rule="evenodd" d="M19.1337 25.7367C18.8593 25.7104 18.5851 25.6656 18.3102 25.6613C17.5385 25.6494 17.0336 25.1892 17.0293 24.4733C17.0252 23.7787 17.5847 23.2335 18.3288 23.231C20.1318 23.2252 21.9349 23.2299 23.7379 23.2288C24.4345 23.2283 24.7155 23.0189 24.909 22.3648C25.0985 21.7248 24.6176 21.0603 23.9441 21.0459C23.4734 21.0358 23.0022 21.0444 22.5313 21.0446C22.2606 20.2081 21.9898 19.3716 21.7192 18.5351C22.3638 18.5351 23.0124 18.4913 23.652 18.5484C24.1876 18.5963 24.7533 18.0736 24.7942 17.3879C24.8264 16.8479 24.303 16.3614 23.686 16.3509C23.216 16.3429 22.7459 16.3472 22.2759 16.3461C22.3343 16.292 22.3878 16.2313 22.4517 16.1846C23.3971 15.4945 24.3482 14.8118 25.2888 14.1154C25.9496 13.6262 25.9119 13.1374 25.1983 12.7208C25.0243 11.9986 24.6939 11.7369 23.9514 11.7363C22.8603 11.7355 21.7693 11.7399 20.6783 11.7345C20.0573 11.7314 19.5832 11.3411 19.4679 10.7573C19.3525 10.1731 19.6453 9.61267 20.2065 9.38523C20.3501 9.32693 20.5186 9.31579 20.6766 9.30992C21.508 9.27885 22.3433 9.29494 23.1704 9.21903C23.8564 9.15607 24.2755 8.60958 24.2322 7.97807C24.1872 7.32165 23.6227 6.8026 22.9276 6.80078C21.0015 6.79592 19.0753 6.79936 17.1493 6.79875C16.5021 6.79855 16.0331 6.46078 15.8691 5.84718C15.7308 5.32984 15.9664 4.94035 16.3444 4.61088C16.4213 4.54387 16.4808 4.45702 16.5484 4.37949C16.9503 4.3722 17.3519 4.36481 17.7537 4.35742C19.8886 4.37463 21.8385 5.01525 23.5842 6.2137C25.9081 7.80933 27.4311 9.99417 28.0264 12.7612C28.7264 16.015 28.0954 19.0082 26.0691 21.6707C24.5316 23.691 22.5084 24.9907 20.0465 25.6027C19.7493 25.6763 19.4383 25.6933 19.1337 25.7367Z" fill="#FEE18C"/>
<path fill-rule="evenodd" clip-rule="evenodd" d="M15.737 4.37393C15.6722 4.42616 15.6135 4.5126 15.5415 4.52555C13.6837 4.85978 12.041 5.64343 10.6042 6.86526C10.4318 7.01193 10.2477 7.14463 10.0689 7.2839C9.43224 7.2751 8.85934 7.13106 8.57795 6.48092C8.14533 5.48117 8.66408 4.35378 9.84067 4.36532C11.8059 4.38435 13.7716 4.37261 15.737 4.37393Z" fill="#FECB5B"/>
<path fill-rule="evenodd" clip-rule="evenodd" d="M10.0704 22.9863C10.4501 23.275 10.8261 23.5687 11.2103 23.8514C12.5725 24.853 14.0899 25.4838 15.761 25.7459C15.8086 25.7534 15.8509 25.7954 15.8957 25.8213C15.7694 25.8477 15.6431 25.8965 15.5167 25.897C14.0649 25.9024 12.6131 25.9041 11.1613 25.899C10.3838 25.8962 9.78411 25.5831 9.46436 24.8455C9.16859 24.1634 9.38368 23.5263 10.0704 22.9863Z" fill="#FECB5B"/>
<path fill-rule="evenodd" clip-rule="evenodd" d="M21.7188 18.5352C21.9896 19.3717 22.2603 20.2082 22.5309 21.0446C22.6196 21.3533 22.6957 21.6662 22.8005 21.9693C22.9266 22.3343 22.8589 22.6259 22.5411 22.8556C22.2187 23.0887 21.9262 22.9709 21.6502 22.7739C20.8089 22.1737 19.9725 21.5666 19.1342 20.9623C18.646 20.5982 18.1625 20.2276 17.6642 19.8781C17.5987 19.8321 17.4572 19.8945 17.3508 19.9067C16.2481 20.701 15.1452 21.495 14.0428 22.2896C13.8025 22.4628 13.5684 22.645 13.3233 22.8109C13.0471 22.9978 12.7623 23.0666 12.4648 22.8384C12.1654 22.6085 12.1119 22.326 12.2266 21.978C12.5764 20.9171 12.9166 19.8532 13.2599 18.7902C13.4128 18.3164 13.5476 17.8359 13.7229 17.3707C13.8147 17.1274 13.7341 17.0119 13.5463 16.8768C12.2574 15.9489 10.9759 15.0105 9.69034 14.0779C9.41259 13.8763 9.19831 13.6433 9.30904 13.27C9.43061 12.8603 9.74206 12.7123 10.1456 12.7123C11.7104 12.7126 13.2751 12.7054 14.8399 12.7187C15.1278 12.7211 15.2661 12.6432 15.3562 12.3548C15.8216 10.8649 16.3095 9.38216 16.7934 7.89807C16.9091 7.54309 17.0955 7.2702 17.5302 7.27749C17.9449 7.28447 18.1232 7.55179 18.2333 7.88916C18.7181 9.37285 19.2037 10.8564 19.6701 12.3459C19.758 12.6265 19.8841 12.7213 20.1801 12.7193C21.8525 12.7074 23.5252 12.7177 25.1979 12.7206C25.9114 13.1373 25.9491 13.626 25.2884 14.1153C24.3477 14.8118 23.3967 15.4943 22.4513 16.1845C22.3874 16.2311 22.3337 16.2918 22.2754 16.346C21.9685 16.5568 21.6556 16.7598 21.3596 16.9852C21.2995 17.031 21.2615 17.1739 21.2848 17.25C21.4175 17.6822 21.5719 18.1076 21.7188 18.5352Z" fill="#EB9922"/>
<path fill-rule="evenodd" clip-rule="evenodd" d="M17.3506 19.9066C17.4569 19.8944 17.5984 19.832 17.664 19.878C18.1624 20.2275 18.6459 20.5981 19.134 20.9623C18.4757 21.255 17.345 20.811 17.3506 19.9066Z" fill="#FEDF89"/>
<path fill-rule="evenodd" clip-rule="evenodd" d="M21.7192 18.5349C21.5722 18.1072 21.4179 17.6819 21.2853 17.2499C21.262 17.1738 21.2999 17.0308 21.3601 16.9851C21.656 16.7597 21.9691 16.5567 22.2759 16.3459C22.7459 16.347 23.216 16.3427 23.686 16.3506C24.303 16.3612 24.8264 16.8476 24.7943 17.3876C24.7534 18.0733 24.1876 18.596 23.652 18.5481C23.0124 18.491 22.3638 18.5349 21.7192 18.5349Z" fill="#FEDA6F"/>
</g>
<defs>
<clipPath id="clip0_2525_22322">
<rect width="35" height="41.4399" fill="white"/>
</clipPath>
</defs>
</svg>
