<svg width="31" height="31" viewBox="0 0 31 31" fill="none" xmlns="http://www.w3.org/2000/svg">
<path d="M25.4902 13.7441C25.4902 13.6109 25.3813 13.502 25.248 13.502H23.4316C23.2984 13.502 23.1895 13.6109 23.1895 13.7441C23.1895 17.9915 19.7474 21.4336 15.5 21.4336C11.2526 21.4336 7.81055 17.9915 7.81055 13.7441C7.81055 13.6109 7.70156 13.502 7.56836 13.502H5.75195C5.61875 13.502 5.50977 13.6109 5.50977 13.7441C5.50977 18.8513 9.34238 23.0653 14.2891 23.6617V26.7617H9.89033C9.47559 26.7617 9.14258 27.1946 9.14258 27.7305V28.8203C9.14258 28.9535 9.22734 29.0625 9.33027 29.0625H21.6697C21.7727 29.0625 21.8574 28.9535 21.8574 28.8203V27.7305C21.8574 27.1946 21.5244 26.7617 21.1097 26.7617H16.5898V23.6769C21.594 23.1319 25.4902 18.8937 25.4902 13.7441ZM15.5 18.8906C18.3427 18.8906 20.6465 16.6141 20.6465 13.8047V7.02344C20.6465 4.21406 18.3427 1.9375 15.5 1.9375C12.6573 1.9375 10.3535 4.21406 10.3535 7.02344V13.8047C10.3535 16.6141 12.6573 18.8906 15.5 18.8906ZM12.6543 7.02344C12.6543 5.4916 13.9228 4.23828 15.5 4.23828C17.0772 4.23828 18.3457 5.4916 18.3457 7.02344V13.8047C18.3457 15.3365 17.0772 16.5898 15.5 16.5898C13.9228 16.5898 12.6543 15.3365 12.6543 13.8047V7.02344Z" fill="black"/>
</svg>
