<svg width="82" height="80" viewBox="0 0 82 80" fill="none" xmlns="http://www.w3.org/2000/svg">
<path d="M67.4286 11.9071C62.6229 11.9213 58.1314 14.2979 55.4162 18.2634C52.7018 22.2298 52.1115 27.2769 53.8368 31.7621C55.5628 36.2474 59.3841 39.5967 64.0574 40.72V50.1136C64.0574 62.4749 55.9893 72.5881 46.0774 72.5881C36.1664 72.5881 28.0974 62.4749 28.0974 50.1136L28.0982 43.0903C40.1444 41.1244 49.449 28.9089 49.449 14.1544V4.04128C49.449 3.14691 49.0939 2.28937 48.4613 1.65757C47.8296 1.02502 46.972 0.669922 46.0776 0.669922H38.2118C37.007 0.669922 35.8947 1.31267 35.2919 2.35519C34.6899 3.39848 34.6899 4.68391 35.2919 5.72656C35.8947 6.76986 37.007 7.41261 38.2118 7.41261H42.7063V14.1554C42.7063 26.5167 34.6381 36.6298 24.7263 36.6298C14.8152 36.6298 6.74629 26.5167 6.74629 14.1554L6.74707 7.41261H11.2424C12.4464 7.41261 13.5595 6.76986 14.1614 5.72656C14.7634 4.68405 14.7634 3.39844 14.1614 2.35519C13.5595 1.31267 12.4464 0.669922 11.2424 0.669922H3.3757C2.48212 0.669922 1.62457 1.025 0.991997 1.65757C0.360224 2.28935 0.00512695 3.14689 0.00512695 4.04128V14.1544C0.00512695 28.9087 9.30936 41.1238 21.3559 43.0903V50.1136C21.3559 66.228 32.4472 79.3304 46.0778 79.3304C59.709 79.3304 70.7998 66.2276 70.7998 50.1136V40.72C75.473 39.5968 79.2943 36.2474 81.0204 31.7621C82.7465 27.2769 82.1554 22.2298 79.441 18.2634C76.7266 14.2979 72.2351 11.9214 67.4294 11.9071H67.4286Z" fill="white"/>
</svg>
