<svg width="40" height="40" viewBox="0 0 40 40" fill="none" xmlns="http://www.w3.org/2000/svg">
<path d="M7.5 0C6.11929 0 5 1.11929 5 2.5V37.5C5 38.8807 6.11929 40 7.5 40H15V31.25C15 30.5596 15.5596 30 16.25 30H23.75C24.4404 30 25 30.5596 25 31.25V40H32.5C33.8807 40 35 38.8807 35 37.5V2.5C35 1.11929 33.8807 0 32.5 0H7.5ZM10 6.25C10 5.55964 10.5596 5 11.25 5H13.75C14.4404 5 15 5.55964 15 6.25V8.75C15 9.44036 14.4404 10 13.75 10H11.25C10.5596 10 10 9.44036 10 8.75V6.25ZM17.5 6.25C17.5 5.55964 18.0596 5 18.75 5H21.25C21.9404 5 22.5 5.55964 22.5 6.25V8.75C22.5 9.44036 21.9404 10 21.25 10H18.75C18.0596 10 17.5 9.44036 17.5 8.75V6.25ZM26.25 5H28.75C29.4404 5 30 5.55964 30 6.25V8.75C30 9.44036 29.4404 10 28.75 10H26.25C25.5596 10 25 9.44036 25 8.75V6.25C25 5.55964 25.5596 5 26.25 5ZM10 13.75C10 13.0596 10.5596 12.5 11.25 12.5H13.75C14.4404 12.5 15 13.0596 15 13.75V16.25C15 16.9404 14.4404 17.5 13.75 17.5H11.25C10.5596 17.5 10 16.9404 10 16.25V13.75ZM18.75 12.5H21.25C21.9404 12.5 22.5 13.0596 22.5 13.75V16.25C22.5 16.9404 21.9404 17.5 21.25 17.5H18.75C18.0596 17.5 17.5 16.9404 17.5 16.25V13.75C17.5 13.0596 18.0596 12.5 18.75 12.5ZM25 13.75C25 13.0596 25.5596 12.5 26.25 12.5H28.75C29.4404 12.5 30 13.0596 30 13.75V16.25C30 16.9404 29.4404 17.5 28.75 17.5H26.25C25.5596 17.5 25 16.9404 25 16.25V13.75ZM11.25 20H13.75C14.4404 20 15 20.5596 15 21.25V23.75C15 24.4404 14.4404 25 13.75 25H11.25C10.5596 25 10 24.4404 10 23.75V21.25C10 20.5596 10.5596 20 11.25 20ZM17.5 21.25C17.5 20.5596 18.0596 20 18.75 20H21.25C21.9404 20 22.5 20.5596 22.5 21.25V23.75C22.5 24.4404 21.9404 25 21.25 25H18.75C18.0596 25 17.5 24.4404 17.5 23.75V21.25ZM26.25 20H28.75C29.4404 20 30 20.5596 30 21.25V23.75C30 24.4404 29.4404 25 28.75 25H26.25C25.5596 25 25 24.4404 25 23.75V21.25C25 20.5596 25.5596 20 26.25 20Z" fill="#0E82FD"/>
</svg>
