<svg width="30" height="41" viewBox="0 0 30 41" fill="none" xmlns="http://www.w3.org/2000/svg">
<path d="M2.5 0.5C1.11929 0.5 0 1.61929 0 3V38C0 39.3807 1.11929 40.5 2.5 40.5H10V31.75C10 31.0596 10.5596 30.5 11.25 30.5H18.75C19.4404 30.5 20 31.0596 20 31.75V40.5H27.5C28.8807 40.5 30 39.3807 30 38V3C30 1.61929 28.8807 0.5 27.5 0.5H2.5ZM5 6.75C5 6.05964 5.55964 5.5 6.25 5.5H8.75C9.44036 5.5 10 6.05964 10 6.75V9.25C10 9.94036 9.44036 10.5 8.75 10.5H6.25C5.55964 10.5 5 9.94036 5 9.25V6.75ZM12.5 6.75C12.5 6.05964 13.0596 5.5 13.75 5.5H16.25C16.9404 5.5 17.5 6.05964 17.5 6.75V9.25C17.5 9.94036 16.9404 10.5 16.25 10.5H13.75C13.0596 10.5 12.5 9.94036 12.5 9.25V6.75ZM21.25 5.5H23.75C24.4404 5.5 25 6.05964 25 6.75V9.25C25 9.94036 24.4404 10.5 23.75 10.5H21.25C20.5596 10.5 20 9.94036 20 9.25V6.75C20 6.05964 20.5596 5.5 21.25 5.5ZM5 14.25C5 13.5596 5.55964 13 6.25 13H8.75C9.44036 13 10 13.5596 10 14.25V16.75C10 17.4404 9.44036 18 8.75 18H6.25C5.55964 18 5 17.4404 5 16.75V14.25ZM13.75 13H16.25C16.9404 13 17.5 13.5596 17.5 14.25V16.75C17.5 17.4404 16.9404 18 16.25 18H13.75C13.0596 18 12.5 17.4404 12.5 16.75V14.25C12.5 13.5596 13.0596 13 13.75 13ZM20 14.25C20 13.5596 20.5596 13 21.25 13H23.75C24.4404 13 25 13.5596 25 14.25V16.75C25 17.4404 24.4404 18 23.75 18H21.25C20.5596 18 20 17.4404 20 16.75V14.25ZM6.25 20.5H8.75C9.44036 20.5 10 21.0596 10 21.75V24.25C10 24.9404 9.44036 25.5 8.75 25.5H6.25C5.55964 25.5 5 24.9404 5 24.25V21.75C5 21.0596 5.55964 20.5 6.25 20.5ZM12.5 21.75C12.5 21.0596 13.0596 20.5 13.75 20.5H16.25C16.9404 20.5 17.5 21.0596 17.5 21.75V24.25C17.5 24.9404 16.9404 25.5 16.25 25.5H13.75C13.0596 25.5 12.5 24.9404 12.5 24.25V21.75ZM21.25 20.5H23.75C24.4404 20.5 25 21.0596 25 21.75V24.25C25 24.9404 24.4404 25.5 23.75 25.5H21.25C20.5596 25.5 20 24.9404 20 24.25V21.75C20 21.0596 20.5596 20.5 21.25 20.5Z" fill="#0E82FD"/>
</svg>
