<svg width="87" height="28" viewBox="0 0 87 28" fill="none" xmlns="http://www.w3.org/2000/svg">
<path d="M86 24L82 27.5V24H86Z" fill="#FFC001"/>
<rect width="87" height="24" fill="#FFC001"/>
<path d="M5.05743 7.27273H7.333L9.7364 13.1364H9.83868L12.2421 7.27273H14.5177V16H12.7279V10.3196H12.6554L10.3969 15.9574H9.17817L6.91964 10.2983H6.8472V16H5.05743V7.27273ZM19.0212 16.1278C18.3593 16.1278 17.7868 15.9872 17.3039 15.706C16.8237 15.4219 16.453 15.027 16.1916 14.5213C15.9303 14.0128 15.7996 13.4233 15.7996 12.7528C15.7996 12.0767 15.9303 11.4858 16.1916 10.9801C16.453 10.4716 16.8237 10.0767 17.3039 9.79545C17.7868 9.51136 18.3593 9.36932 19.0212 9.36932C19.6831 9.36932 20.2541 9.51136 20.7343 9.79545C21.2172 10.0767 21.5894 10.4716 21.8507 10.9801C22.1121 11.4858 22.2428 12.0767 22.2428 12.7528C22.2428 13.4233 22.1121 14.0128 21.8507 14.5213C21.5894 15.027 21.2172 15.4219 20.7343 15.706C20.2541 15.9872 19.6831 16.1278 19.0212 16.1278ZM19.0297 14.7216C19.3309 14.7216 19.5823 14.6364 19.784 14.4659C19.9857 14.2926 20.1377 14.0568 20.2399 13.7585C20.3451 13.4602 20.3976 13.1207 20.3976 12.7401C20.3976 12.3594 20.3451 12.0199 20.2399 11.7216C20.1377 11.4233 19.9857 11.1875 19.784 11.0142C19.5823 10.8409 19.3309 10.7543 19.0297 10.7543C18.7257 10.7543 18.4701 10.8409 18.2627 11.0142C18.0581 11.1875 17.9033 11.4233 17.7982 11.7216C17.6959 12.0199 17.6448 12.3594 17.6448 12.7401C17.6448 13.1207 17.6959 13.4602 17.7982 13.7585C17.9033 14.0568 18.0581 14.2926 18.2627 14.4659C18.4701 14.6364 18.7257 14.7216 19.0297 14.7216ZM28.9292 11.321L27.2673 11.4233C27.2389 11.2812 27.1778 11.1534 27.084 11.0398C26.9903 10.9233 26.8667 10.831 26.7133 10.7628C26.5627 10.6918 26.3823 10.6562 26.1721 10.6562C25.8909 10.6562 25.6536 10.7159 25.4605 10.8352C25.2673 10.9517 25.1707 11.108 25.1707 11.304C25.1707 11.4602 25.2332 11.5923 25.3582 11.7003C25.4832 11.8082 25.6977 11.8949 26.0016 11.9602L27.1863 12.1989C27.8227 12.3295 28.2971 12.5398 28.6096 12.8295C28.9221 13.1193 29.0784 13.5 29.0784 13.9716C29.0784 14.4006 28.9519 14.777 28.6991 15.1009C28.4491 15.4247 28.1053 15.6776 27.6678 15.8594C27.2332 16.0384 26.7318 16.1278 26.1636 16.1278C25.2971 16.1278 24.6068 15.9474 24.0926 15.5866C23.5812 15.223 23.2815 14.7287 23.1934 14.1037L24.9789 14.0099C25.0329 14.2741 25.1636 14.4759 25.371 14.6151C25.5784 14.7514 25.844 14.8196 26.1678 14.8196C26.486 14.8196 26.7417 14.7585 26.9349 14.6364C27.1309 14.5114 27.2303 14.3509 27.2332 14.1548C27.2303 13.9901 27.1607 13.8551 27.0244 13.75C26.888 13.642 26.6778 13.5597 26.3937 13.5028L25.2602 13.277C24.621 13.1491 24.1451 12.9276 23.8326 12.6122C23.523 12.2969 23.3681 11.8949 23.3681 11.4062C23.3681 10.9858 23.4818 10.6236 23.709 10.3196C23.9391 10.0156 24.2616 9.78125 24.6764 9.61648C25.094 9.4517 25.5826 9.36932 26.1423 9.36932C26.969 9.36932 27.6195 9.54403 28.094 9.89347C28.5712 10.2429 28.8497 10.7187 28.9292 11.321ZM33.763 9.45455V10.8182H29.8212V9.45455H33.763ZM30.7161 7.88636H32.5315V13.9886C32.5315 14.1562 32.557 14.2869 32.6082 14.3807C32.6593 14.4716 32.7303 14.5355 32.8212 14.5724C32.915 14.6094 33.0229 14.6278 33.1451 14.6278C33.2303 14.6278 33.3156 14.6207 33.4008 14.6065C33.486 14.5895 33.5513 14.5767 33.5968 14.5682L33.8823 15.919C33.7914 15.9474 33.6636 15.9801 33.4988 16.017C33.334 16.0568 33.1337 16.081 32.8979 16.0895C32.4604 16.1065 32.0769 16.0483 31.7474 15.9148C31.4207 15.7812 31.1664 15.5739 30.9846 15.2926C30.8028 15.0114 30.7133 14.6562 30.7161 14.2273V7.88636ZM37.877 16V7.27273H41.3201C41.9821 7.27273 42.546 7.39915 43.0119 7.65199C43.4778 7.90199 43.8329 8.25 44.0772 8.69602C44.3244 9.1392 44.448 9.65057 44.448 10.2301C44.448 10.8097 44.323 11.321 44.073 11.7642C43.823 12.2074 43.4608 12.5526 42.9863 12.7997C42.5147 13.0469 41.9437 13.1705 41.2733 13.1705H39.0787V11.6918H40.975C41.3301 11.6918 41.6227 11.6307 41.8528 11.5085C42.0858 11.3835 42.2591 11.2116 42.3727 10.9929C42.4892 10.7713 42.5474 10.517 42.5474 10.2301C42.5474 9.94034 42.4892 9.6875 42.3727 9.47159C42.2591 9.25284 42.0858 9.08381 41.8528 8.96449C41.6199 8.84233 41.3244 8.78125 40.9664 8.78125H39.7221V16H37.877ZM48.5243 16.1278C47.8624 16.1278 47.2899 15.9872 46.807 15.706C46.3269 15.4219 45.9561 15.027 45.6948 14.5213C45.4334 14.0128 45.3027 13.4233 45.3027 12.7528C45.3027 12.0767 45.4334 11.4858 45.6948 10.9801C45.9561 10.4716 46.3269 10.0767 46.807 9.79545C47.2899 9.51136 47.8624 9.36932 48.5243 9.36932C49.1862 9.36932 49.7573 9.51136 50.2374 9.79545C50.7203 10.0767 51.0925 10.4716 51.3539 10.9801C51.6152 11.4858 51.7459 12.0767 51.7459 12.7528C51.7459 13.4233 51.6152 14.0128 51.3539 14.5213C51.0925 15.027 50.7203 15.4219 50.2374 15.706C49.7573 15.9872 49.1862 16.1278 48.5243 16.1278ZM48.5328 14.7216C48.834 14.7216 49.0854 14.6364 49.2871 14.4659C49.4888 14.2926 49.6408 14.0568 49.7431 13.7585C49.8482 13.4602 49.9007 13.1207 49.9007 12.7401C49.9007 12.3594 49.8482 12.0199 49.7431 11.7216C49.6408 11.4233 49.4888 11.1875 49.2871 11.0142C49.0854 10.8409 48.834 10.7543 48.5328 10.7543C48.2289 10.7543 47.9732 10.8409 47.7658 11.0142C47.5612 11.1875 47.4064 11.4233 47.3013 11.7216C47.199 12.0199 47.1479 12.3594 47.1479 12.7401C47.1479 13.1207 47.199 13.4602 47.3013 13.7585C47.4064 14.0568 47.5612 14.2926 47.7658 14.4659C47.9732 14.6364 48.2289 14.7216 48.5328 14.7216ZM52.9863 18.4545V9.45455H54.7761V10.554H54.857C54.9366 10.3778 55.0516 10.1989 55.2022 10.017C55.3556 9.83239 55.5545 9.67898 55.7988 9.55682C56.046 9.43182 56.3528 9.36932 56.7193 9.36932C57.1965 9.36932 57.6369 9.49432 58.0403 9.74432C58.4437 9.99148 58.7661 10.3651 59.0076 10.8651C59.2491 11.3622 59.3698 11.9858 59.3698 12.7358C59.3698 13.4659 59.2519 14.0824 59.0161 14.5852C58.7832 15.0852 58.465 15.4645 58.0616 15.723C57.661 15.9787 57.2122 16.1065 56.715 16.1065C56.3627 16.1065 56.063 16.0483 55.8158 15.9318C55.5715 15.8153 55.3712 15.669 55.215 15.4929C55.0587 15.3139 54.9394 15.1335 54.857 14.9517H54.8016V18.4545H52.9863ZM54.7633 12.7273C54.7633 13.1165 54.8173 13.456 54.9252 13.7457C55.0332 14.0355 55.1894 14.2614 55.394 14.4233C55.5985 14.5824 55.8471 14.6619 56.1397 14.6619C56.4352 14.6619 56.6852 14.581 56.8897 14.419C57.0943 14.2543 57.2491 14.027 57.3542 13.7372C57.4622 13.4446 57.5161 13.108 57.5161 12.7273C57.5161 12.3494 57.4636 12.017 57.3585 11.7301C57.2533 11.4432 57.0985 11.2187 56.894 11.0568C56.6894 10.8949 56.438 10.8139 56.1397 10.8139C55.8443 10.8139 55.5943 10.892 55.3897 11.0483C55.188 11.2045 55.0332 11.4261 54.9252 11.7131C54.8173 12 54.7633 12.3381 54.7633 12.7273ZM64.8375 13.2131V9.45455H66.6528V16H64.9099V14.8111H64.8418C64.694 15.1946 64.4483 15.5028 64.1045 15.7358C63.7636 15.9687 63.3474 16.0852 62.856 16.0852C62.4185 16.0852 62.0335 15.9858 61.7011 15.7869C61.3687 15.5881 61.1088 15.3054 60.9213 14.9389C60.7366 14.5724 60.6429 14.1335 60.6401 13.6222V9.45455H62.4554V13.2983C62.4582 13.6847 62.5619 13.9901 62.7665 14.2145C62.971 14.4389 63.2452 14.5511 63.5889 14.5511C63.8077 14.5511 64.0122 14.5014 64.2026 14.402C64.3929 14.2997 64.5463 14.1491 64.6628 13.9503C64.7821 13.7514 64.8403 13.5057 64.8375 13.2131ZM69.9802 7.27273V16H68.1649V7.27273H69.9802ZM73.3609 16.1236C72.9433 16.1236 72.5711 16.0511 72.2444 15.9062C71.9177 15.7585 71.6592 15.5412 71.4689 15.2543C71.2814 14.9645 71.1876 14.6037 71.1876 14.1719C71.1876 13.8082 71.2544 13.5028 71.3879 13.2557C71.5214 13.0085 71.7032 12.8097 71.9333 12.6591C72.1635 12.5085 72.4248 12.3949 72.7174 12.3182C73.0129 12.2415 73.3226 12.1875 73.6464 12.1562C74.0271 12.1165 74.3339 12.0795 74.5669 12.0455C74.7998 12.0085 74.9689 11.9545 75.074 11.8835C75.1791 11.8125 75.2316 11.7074 75.2316 11.5682V11.5426C75.2316 11.2727 75.1464 11.0639 74.976 10.9162C74.8083 10.7685 74.5697 10.6946 74.2601 10.6946C73.9333 10.6946 73.6734 10.767 73.4802 10.9119C73.287 11.054 73.1592 11.233 73.0967 11.4489L71.4177 11.3125C71.503 10.9148 71.6706 10.571 71.9206 10.2812C72.1706 9.98864 72.493 9.7642 72.8879 9.60795C73.2856 9.44886 73.7458 9.36932 74.2686 9.36932C74.6322 9.36932 74.9802 9.41193 75.3126 9.49716C75.6478 9.58239 75.9447 9.71449 76.2032 9.89347C76.4646 10.0724 76.6706 10.3026 76.8211 10.5838C76.9717 10.8622 77.047 11.196 77.047 11.5852V16H75.3254V15.0923H75.2743C75.1691 15.2969 75.0285 15.4773 74.8524 15.6335C74.6762 15.7869 74.4646 15.9077 74.2174 15.9957C73.9703 16.081 73.6848 16.1236 73.3609 16.1236ZM73.8808 14.8707C74.1478 14.8707 74.3836 14.8182 74.5882 14.7131C74.7927 14.6051 74.9532 14.4602 75.0697 14.2784C75.1862 14.0966 75.2444 13.8906 75.2444 13.6605V12.9659C75.1876 13.0028 75.1095 13.0369 75.0101 13.0682C74.9135 13.0966 74.8041 13.1236 74.6819 13.1491C74.5598 13.1719 74.4376 13.1932 74.3155 13.2131C74.1933 13.2301 74.0825 13.2457 73.9831 13.2599C73.77 13.2912 73.5839 13.3409 73.4248 13.4091C73.2657 13.4773 73.1422 13.5696 73.0541 13.6861C72.966 13.7997 72.922 13.9418 72.922 14.1122C72.922 14.3594 73.0115 14.5483 73.1905 14.679C73.3723 14.8068 73.6024 14.8707 73.8808 14.8707ZM78.5154 16V9.45455H80.2753V10.5966H80.3435C80.4628 10.1903 80.6631 9.88352 80.9443 9.67614C81.2256 9.46591 81.5495 9.3608 81.9159 9.3608C82.0068 9.3608 82.1049 9.36648 82.21 9.37784C82.3151 9.3892 82.4074 9.40483 82.487 9.42472V11.0355C82.4017 11.0099 82.2838 10.9872 82.1333 10.9673C81.9827 10.9474 81.8449 10.9375 81.7199 10.9375C81.4529 10.9375 81.2142 10.9957 81.004 11.1122C80.7966 11.2259 80.6318 11.3849 80.5097 11.5895C80.3904 11.794 80.3307 12.0298 80.3307 12.2969V16H78.5154Z" fill="#FDF2F8"/>
</svg>
