<svg width="32" height="32" viewBox="0 0 32 32" fill="none" xmlns="http://www.w3.org/2000/svg">
<g clip-path="url(#clip0_2578_54187)">
<path d="M28.784 27.7342L26.9426 6.98158C26.9095 6.5709 26.565 6.25957 26.1477 6.25957H22.2661C22.2595 2.80853 19.451 0 15.9999 0C12.5489 0 9.74035 2.80853 9.73373 6.25957H5.85213C5.44145 6.25957 5.097 6.5709 5.05726 6.98158L3.21582 27.7342C3.21582 27.7607 3.21582 27.7806 3.21582 27.8071C3.21582 30.1188 5.34209 32 7.9519 32H24.0479C26.6578 32 28.784 30.1188 28.784 27.8071C28.784 27.7806 28.784 27.7607 28.784 27.7342ZM15.9999 1.58973C18.5766 1.58973 20.6698 3.68288 20.6764 6.25957H11.3235C11.3301 3.68288 13.4232 1.58973 15.9999 1.58973ZM24.0479 30.4036H7.9519C6.22969 30.4036 4.82543 29.2577 4.80555 27.8336L6.58076 7.84931H9.73373V10.638C9.73373 11.0751 10.0914 11.4328 10.5286 11.4328C10.9658 11.4328 11.3235 11.0751 11.3235 10.638V7.84931H20.6764V10.638C20.6764 11.0751 21.0341 11.4328 21.4713 11.4328C21.9084 11.4328 22.2661 11.0751 22.2661 10.638V7.84931H25.4191L27.1943 27.8402C27.1744 29.2577 25.7702 30.4036 24.0479 30.4036Z" fill="#0F172A"/>
<path d="M19.3054 16.5469L14.6156 21.2366L12.7013 19.3223C12.39 19.011 11.8866 19.011 11.5753 19.3223C11.264 19.6336 11.264 20.137 11.5753 20.4484L14.0526 22.9257C14.205 23.078 14.4103 23.1575 14.6156 23.1575C14.821 23.1575 15.0197 23.078 15.1787 22.9257L20.4314 17.6729C20.7427 17.3616 20.7427 16.8582 20.4314 16.5469C20.1201 16.2422 19.6167 16.2422 19.3054 16.5469Z" fill="#0F172A"/>
</g>
<defs>
<clipPath id="clip0_2578_54187">
<rect width="32" height="32" fill="white"/>
</clipPath>
</defs>
</svg>
