<svg width="40" height="40" viewBox="0 0 40 40" fill="none" xmlns="http://www.w3.org/2000/svg">
<path d="M32.7021 26.3041C31.7247 26.3041 30.7962 26.687 30.0957 27.3793C29.3952 28.0798 29.0043 28.992 29.0043 29.9694C29.0043 30.9468 29.3871 31.859 30.0957 32.5595C30.8043 33.2518 31.7247 33.6346 32.7021 33.6346C34.7058 33.6346 36.3348 31.9893 36.3348 29.9694C36.3348 27.9494 34.7058 26.3041 32.7021 26.3041ZM32.7021 32.0056C31.5781 32.0056 30.6333 31.0771 30.6333 29.9694C30.6333 28.8617 31.5781 27.9331 32.7021 27.9331C33.8098 27.9331 34.7058 28.8454 34.7058 29.9694C34.7058 31.0934 33.8098 32.0056 32.7021 32.0056ZM33.6469 14.0948C33.5003 13.9564 33.3048 13.8831 33.1012 13.8831H28.9228C28.4749 13.8831 28.1083 14.2496 28.1083 14.6975V21.3764C28.1083 21.8244 28.4749 22.1909 28.9228 22.1909H35.5528C36.0008 22.1909 36.3673 21.8244 36.3673 21.3764V16.9048C36.3673 16.6768 36.2696 16.4569 36.0986 16.3021L33.6469 14.0948ZM34.7383 20.5619H29.7373V15.5039H32.7835L34.7383 17.2632V20.5619ZM12.8121 26.3041C11.8347 26.3041 10.9061 26.687 10.2057 27.3793C9.50519 28.0798 9.11423 28.992 9.11423 29.9694C9.11423 30.9468 9.49705 31.859 10.2057 32.5595C10.9143 33.2518 11.8347 33.6346 12.8121 33.6346C14.8157 33.6346 16.4447 31.9893 16.4447 29.9694C16.4447 27.9494 14.8157 26.3041 12.8121 26.3041ZM12.8121 32.0056C11.688 32.0056 10.7432 31.0771 10.7432 29.9694C10.7432 28.8617 11.688 27.9331 12.8121 27.9331C13.9198 27.9331 14.8157 28.8454 14.8157 29.9694C14.8157 31.0934 13.9198 32.0056 12.8121 32.0056ZM7.37935 27.306H5.74221V25.1394C5.74221 24.6914 5.37569 24.3249 4.92771 24.3249C4.47974 24.3249 4.11322 24.6914 4.11322 25.1394V28.1205C4.11322 28.5684 4.47974 28.935 4.92771 28.935H7.37935C7.82733 28.935 8.19385 28.5684 8.19385 28.1205C8.19385 27.6725 7.82733 27.306 7.37935 27.306ZM11.5089 22.867C11.5089 22.419 11.1423 22.0525 10.6944 22.0525H0.814498C0.366524 22.0525 0 22.419 0 22.867C0 23.3149 0.366524 23.6815 0.814498 23.6815H10.6944C11.1423 23.6815 11.5089 23.3231 11.5089 22.867ZM2.46793 19.9266L12.3478 19.9836C12.7958 19.9836 13.1623 19.6253 13.1704 19.1773C13.1786 18.7212 12.8121 18.3546 12.3641 18.3546L2.48422 18.2976C2.47607 18.2976 2.47607 18.2976 2.47607 18.2976C2.0281 18.2976 1.66158 18.656 1.66158 19.104C1.65343 19.5601 2.01996 19.9266 2.46793 19.9266ZM4.12951 16.2288H14.0094C14.4573 16.2288 14.8239 15.8623 14.8239 15.4143C14.8239 14.9663 14.4573 14.5998 14.0094 14.5998H4.12951C3.68153 14.5998 3.31501 14.9663 3.31501 15.4143C3.31501 15.8623 3.68153 16.2288 4.12951 16.2288ZM39.6986 15.1292L33.8668 10.2993C33.7202 10.1771 33.541 10.1119 33.3456 10.1119H26.4875V7.17973C26.4875 6.73176 26.121 6.36523 25.673 6.36523H4.92771C4.47974 6.36523 4.11322 6.73176 4.11322 7.17973V13.1419C4.11322 13.5898 4.47974 13.9564 4.92771 13.9564C5.37569 13.9564 5.74221 13.5898 5.74221 13.1419V7.99423H24.8666V27.306H18.1877C17.7398 27.306 17.3732 27.6725 17.3732 28.1205C17.3732 28.5684 17.7398 28.935 18.1877 28.935H28.1328C28.5807 28.935 28.9473 28.5684 28.9473 28.1205C28.9473 27.6725 28.5807 27.306 28.1328 27.306H26.4956V11.7409H33.0605L38.371 16.1392L38.314 27.2897H37.4669C37.0189 27.2897 36.6524 27.6562 36.6524 28.1042C36.6524 28.5522 37.0189 28.9187 37.4669 28.9187H39.1203C39.5683 28.9187 39.9348 28.5603 39.9348 28.1123L40 15.7645C39.9919 15.5202 39.886 15.284 39.6986 15.1292Z" fill="#0F172A"/>
</svg>
