<svg width="33" height="32" viewBox="0 0 33 32" fill="none" xmlns="http://www.w3.org/2000/svg">
<g clip-path="url(#clip0_2578_54178)">
<rect width="32" height="32" transform="translate(0.5)" fill="#E8F1FF"/>
<path d="M27.4478 12.1681V10.9378C27.4478 7.99328 26.4058 5.25714 24.5167 3.22689C22.5806 1.14286 19.9184 0 17.0142 0H15.9991C13.0949 0 10.4327 1.14286 8.49655 3.22689C6.60747 5.25714 5.56546 7.99328 5.56546 10.9378V12.1681C3.27302 12.3227 1.45117 14.2319 1.45117 16.5647V18.4874C1.45117 20.9143 3.42764 22.8908 5.85453 22.8908H8.33521C8.7789 22.8908 9.14193 22.5277 9.14193 22.084V12.9613C9.14193 12.5176 8.7789 12.1546 8.33521 12.1546H7.1789V10.9378C7.1789 5.62017 10.9705 1.61345 15.9923 1.61345H17.0075C22.036 1.61345 25.8209 5.62017 25.8209 10.9378V12.1546H24.6646C24.2209 12.1546 23.8579 12.5176 23.8579 12.9613V22.0773C23.8579 22.521 24.2209 22.884 24.6646 22.884H25.794C25.4646 27.0924 22.5671 28.0672 21.2226 28.2891C20.8529 27.1529 19.7839 26.3328 18.5268 26.3328H16.51C14.9503 26.3328 13.6797 27.6034 13.6797 29.163C13.6797 30.7227 14.9503 32 16.51 32H18.5335C19.8377 32 20.9335 31.1126 21.2629 29.916C21.9218 29.8218 22.9638 29.5866 23.9991 28.9815C25.4579 28.1277 27.1856 26.3866 27.4142 22.8773C29.7201 22.7361 31.5487 20.8202 31.5487 18.4807V16.558C31.5554 14.2319 29.7402 12.316 27.4478 12.1681ZM7.54193 21.2706H5.86798C4.32848 21.2706 3.07806 20.0202 3.07806 18.4807V16.558C3.07806 15.0185 4.32848 13.7681 5.86798 13.7681H7.54193V21.2706ZM18.5335 30.3866H16.51C15.8377 30.3866 15.2932 29.842 15.2932 29.1697C15.2932 28.4975 15.8377 27.9529 16.51 27.9529H18.5335C19.2058 27.9529 19.7503 28.4975 19.7503 29.1697C19.7503 29.842 19.2058 30.3866 18.5335 30.3866ZM29.9419 18.4807C29.9419 20.0202 28.6915 21.2706 27.152 21.2706H25.4781V13.7681H27.152C28.6915 13.7681 29.9419 15.0185 29.9419 16.558V18.4807Z" fill="#0F172A"/>
</g>
<defs>
<clipPath id="clip0_2578_54178">
<rect width="32" height="32" fill="white" transform="translate(0.5)"/>
</clipPath>
</defs>
</svg>
