<svg width="249" height="263" viewBox="0 0 249 263" fill="none" xmlns="http://www.w3.org/2000/svg">
<path fill-rule="evenodd" clip-rule="evenodd" d="M218.662 272.111C216.835 269.957 215.217 267.725 213.8 265.811C198.967 246.407 210.959 207.001 239.533 215.325C242.269 216.074 248.43 218.558 253.612 221.78L249.16 228.191C220.839 207.86 204.783 243.645 223.414 265.267L218.662 272.111Z" fill="#F3FBFF" fill-opacity="0.09"/>
<path fill-rule="evenodd" clip-rule="evenodd" d="M206.645 289.415C200.021 283.929 194.38 276.933 190.996 270.707C175.458 244.789 187.633 210.671 208.602 191.542C227.448 178.47 253.514 184.41 272.792 193.744L273.018 193.834L268.514 200.32C266.362 199.113 264.213 197.71 262.358 197.351C247.987 191.891 230.045 188.446 215.847 195.909C188.62 217.16 182.012 260.327 211.128 282.959L206.645 289.415Z" fill="#F3FBFF" fill-opacity="0.09"/>
<path fill-rule="evenodd" clip-rule="evenodd" d="M193.642 308.14C174.84 296.811 161.669 278.14 154.147 257.744C142.924 226.538 165.879 184.423 191.121 165.936C222.243 145.551 261.915 146.475 293.025 165.022L288.501 171.538C284.056 168.784 279.502 166.219 274.696 164.145C254.75 155.676 232.097 157.134 211.868 163.841C182.357 173.804 164.335 204.637 159.124 234.022C156.102 252.058 166.682 268.752 176.566 282.97C182.467 290.39 189.741 296.947 197.892 301.987L193.627 308.129L193.642 308.14Z" fill="#F3FBFF" fill-opacity="0.09"/>
<path fill-rule="evenodd" clip-rule="evenodd" d="M177.525 331.349C150.271 312.511 126.32 283.431 122.143 251.425C119.328 209.866 141.81 167.379 177.78 146.329C215.358 121.656 266.612 124.178 305.435 144.824C305.824 145.028 306.229 145.243 306.619 145.447L302.302 151.664C295.517 148.038 288.451 144.881 281.159 142.431C247.438 132.459 208.478 133.668 179.066 154.62C137.275 180.576 112.741 243.146 143.299 286.029C151.793 299.348 163.214 310.491 175.52 320.298C177.629 321.918 179.759 323.508 181.909 325.068L177.54 331.359L177.525 331.349Z" fill="#F3FBFF" fill-opacity="0.09"/>
<path fill-rule="evenodd" clip-rule="evenodd" d="M162.24 353.361C132.959 335.752 110.998 303.136 98.9924 272.738C75.8711 217.742 109.537 157.172 154.992 125.143C194.195 96.2163 235.02 88.4616 280.791 107.044C284.862 108.454 305.039 116.75 320.805 125.019L316.364 131.414C312.982 129.554 309.574 127.763 306.11 126.022C251.01 97.9705 206.698 94.5105 156.039 133.778C114.618 164.465 84.3713 220.876 106.661 271.551C118.681 301.959 138.915 329.344 166.552 347.119L162.225 353.35L162.24 353.361Z" fill="#F3FBFF" fill-opacity="0.09"/>
<path fill-rule="evenodd" clip-rule="evenodd" d="M335.5 103.858C327.041 99.8669 318.402 96.3266 309.331 94.0147C249.726 78.6719 179.719 79.8066 131.093 121.793C92.2919 155.34 73.8981 195.927 76.2044 247.278C75.1844 291.999 97.7526 333.055 128.97 363.792C134.146 368.715 139.297 373.865 144.832 378.461L140.536 384.648C117.393 366.939 95.1197 337.229 84.3246 315.933C64.414 274.464 63.7942 224.129 78.2772 180.849C113.811 97.9416 197.165 65.2089 282.885 81.032C298.31 83.5705 313.787 86.6096 328.267 92.6782C332.18 94.2211 336.045 95.8639 339.873 97.5919L335.515 103.868L335.5 103.858Z" fill="#F3FBFF" fill-opacity="0.09"/>
</svg>
