<svg width="21" height="21" viewBox="0 0 21 21" fill="none" xmlns="http://www.w3.org/2000/svg">
<path d="M15.4246 4.81127H5.42462L6.50796 3.73627C6.66488 3.57935 6.75303 3.36652 6.75303 3.1446C6.75303 2.92269 6.66488 2.70986 6.50796 2.55294C6.35104 2.39602 6.13821 2.30786 5.91629 2.30786C5.69437 2.30786 5.48154 2.39602 5.32462 2.55294L2.82462 5.05294C2.74652 5.13041 2.68452 5.22257 2.64221 5.32412C2.59991 5.42567 2.57812 5.53459 2.57812 5.6446C2.57812 5.75461 2.59991 5.86354 2.64221 5.96509C2.68452 6.06663 2.74652 6.1588 2.82462 6.23627L5.32462 8.73627C5.40209 8.81438 5.49426 8.87637 5.59581 8.91868C5.69736 8.96099 5.80628 8.98277 5.91629 8.98277C6.0263 8.98277 6.13522 8.96099 6.23677 8.91868C6.33832 8.87637 6.43049 8.81438 6.50796 8.73627C6.58606 8.6588 6.64806 8.56663 6.69037 8.46509C6.73267 8.36354 6.75446 8.25461 6.75446 8.1446C6.75446 8.03459 6.73267 7.92567 6.69037 7.82412C6.64806 7.72257 6.58606 7.63041 6.50796 7.55294L5.42462 6.47794H15.4246C15.5954 6.47462 15.7651 6.50498 15.9241 6.56726C16.083 6.62955 16.2282 6.72255 16.3513 6.84095C16.4743 6.95935 16.5728 7.10083 16.6412 7.25731C16.7095 7.41379 16.7464 7.58221 16.7496 7.75294V9.81127C16.7496 10.0323 16.8374 10.2442 16.9937 10.4005C17.15 10.5568 17.3619 10.6446 17.583 10.6446C17.804 10.6446 18.0159 10.5568 18.1722 10.4005C18.3285 10.2442 18.4163 10.0323 18.4163 9.81127V7.75294C18.413 7.36335 18.333 6.97821 18.1809 6.61953C18.0288 6.26085 17.8075 5.93564 17.5297 5.66248C17.2519 5.38932 16.923 5.17355 16.5618 5.0275C16.2006 4.88145 15.8142 4.80797 15.4246 4.81127ZM15.6746 12.5529C15.5177 12.396 15.3049 12.3079 15.083 12.3079C14.861 12.3079 14.6482 12.396 14.4913 12.5529C14.3344 12.7099 14.2462 12.9227 14.2462 13.1446C14.2462 13.3665 14.3344 13.5794 14.4913 13.7363L15.5746 14.8113H5.57462C5.4039 14.8146 5.23419 14.7842 5.0752 14.7219C4.9162 14.6597 4.77104 14.5667 4.64799 14.4483C4.52495 14.3299 4.42644 14.1884 4.35808 14.0319C4.28973 13.8754 4.25288 13.707 4.24962 13.5363V11.4779C4.24962 11.2569 4.16183 11.045 4.00555 10.8887C3.84927 10.7324 3.6373 10.6446 3.41629 10.6446C3.19528 10.6446 2.98331 10.7324 2.82703 10.8887C2.67075 11.045 2.58296 11.2569 2.58296 11.4779V13.5363C2.58623 13.9259 2.6662 14.311 2.81832 14.6697C2.97044 15.0284 3.19172 15.3536 3.46952 15.6267C3.74733 15.8999 4.07622 16.1157 4.43741 16.2617C4.79861 16.4078 5.18503 16.4812 5.57462 16.4779H15.5746L14.4913 17.5529C14.4132 17.6304 14.3512 17.7226 14.3089 17.8241C14.2666 17.9257 14.2448 18.0346 14.2448 18.1446C14.2448 18.2546 14.2666 18.3635 14.3089 18.4651C14.3512 18.5666 14.4132 18.6588 14.4913 18.7363C14.5688 18.8144 14.6609 18.8764 14.7625 18.9187C14.864 18.961 14.9729 18.9828 15.083 18.9828C15.193 18.9828 15.3019 18.961 15.4034 18.9187C15.505 18.8764 15.5972 18.8144 15.6746 18.7363L18.1746 16.2363C18.2527 16.1588 18.3147 16.0666 18.357 15.9651C18.3993 15.8635 18.4211 15.7546 18.4211 15.6446C18.4211 15.5346 18.3993 15.4257 18.357 15.3241C18.3147 15.2226 18.2527 15.1304 18.1746 15.0529L15.6746 12.5529Z" fill="#10916F"/>
</svg>
