<svg width="120" height="112" viewBox="0 0 120 112" fill="none" xmlns="http://www.w3.org/2000/svg">
<path d="M46.4171 51.8129C46.4171 51.8129 49.5868 46.386 49.0189 44.0807C48.4433 41.7691 44.7557 37.121 44.7557 37.121C44.7557 37.121 49.3096 40.3115 52.4879 39.7228C55.6662 39.1341 59.4398 35.4533 59.4398 35.4533C59.4398 35.4533 55.7969 40.2223 56.8458 43.1918C57.8947 46.1612 61.1153 50.1436 61.1153 50.1436C61.1153 50.1436 56.1583 46.9135 53.3768 47.5497C50.6016 48.178 46.4171 51.8129 46.4171 51.8129Z" fill="#FFBC11"/>
<path d="M29.8862 68.8535C29.8862 68.8535 32.4373 67.2544 32.7033 66.1496C32.9692 65.0448 32.4314 62.2521 32.4314 62.2521C32.4314 62.2521 33.6537 64.6183 35.1354 65.0692C36.6108 65.5279 39.0266 64.8052 39.0266 64.8052C39.0266 64.8052 36.4246 66.0187 36.2095 67.5091C35.9945 68.9996 36.4673 71.4082 36.4673 71.4082C36.4673 71.4082 35.0839 68.9393 33.7634 68.5911C32.4709 68.2397 29.8862 68.8535 29.8862 68.8535Z" fill="white"/>
<path d="M31.8605 12.3605C31.8605 12.3605 31.6803 10.8367 31.2265 10.4754C30.779 10.1064 29.371 9.73967 29.371 9.73967C29.371 9.73967 30.7249 9.69264 31.2638 9.11192C31.795 8.52498 31.9918 7.25014 31.9918 7.25014C31.9918 7.25014 31.9875 8.71661 32.6336 9.1414C33.2734 9.57401 34.4954 9.86934 34.4954 9.86934C34.4954 9.86934 33.0479 9.96967 32.6025 10.4971C32.1431 11.026 31.8605 12.3605 31.8605 12.3605Z" fill="white"/>
<path d="M19.2741 46.8585C19.2741 46.8585 19.7142 46.0969 19.6354 45.7785C19.5565 45.4601 19.0411 44.8069 19.0411 44.8069C19.0411 44.8069 19.6747 45.2474 20.1212 45.1682C20.5676 45.0891 21.0927 44.574 21.0927 44.574C21.0927 44.574 20.5852 45.2436 20.7314 45.654C20.8776 46.0644 21.3257 46.6255 21.3257 46.6255C21.3257 46.6255 20.6343 46.1774 20.2456 46.2643C19.857 46.3511 19.2741 46.8585 19.2741 46.8585Z" fill="white"/>
<path d="M93.8139 88.8492C93.8139 88.8492 96.3651 87.2501 96.631 86.1453C96.9032 85.0326 96.367 82.2541 96.367 82.2541C96.367 82.2541 97.5893 84.6202 99.0709 85.0711C100.553 85.522 102.968 84.7993 102.968 84.7993C102.968 84.7993 100.366 86.0128 100.151 87.5033C99.9363 88.9937 100.415 91.3945 100.415 91.3945C100.415 91.3945 99.0319 88.9256 97.7114 88.5774C96.3987 88.2354 93.8139 88.8492 93.8139 88.8492Z" fill="white"/>
<path d="M106.091 61.6515C106.091 61.6515 105.911 60.1277 105.457 59.7665C105.009 59.3974 103.595 59.0385 103.595 59.0385C103.595 59.0385 104.955 58.9837 105.488 58.4108C106.019 57.8239 106.216 56.549 106.216 56.549C106.216 56.549 106.212 58.0155 106.852 58.4481C107.498 58.8729 108.713 59.176 108.713 59.176C108.713 59.176 107.266 59.2764 106.814 59.8116C106.367 60.3249 106.091 61.6515 106.091 61.6515Z" fill="white"/>
<path d="M54.8283 75.9077C54.8283 75.9077 54.6481 74.3839 54.1927 74.0086C53.739 73.6474 52.3309 73.2807 52.3309 73.2807C52.3309 73.2807 53.6911 73.2259 54.23 72.6451C54.7612 72.0582 54.958 70.7833 54.958 70.7833C54.958 70.7833 54.9537 72.2498 55.5935 72.6824C56.2396 73.1072 57.4553 73.4104 57.4553 73.4104C57.4553 73.4104 56.0078 73.5107 55.5703 74.0443C55.1046 74.5811 54.8283 75.9077 54.8283 75.9077Z" fill="white"/>
<path d="M73.7839 77.2843C73.7839 77.2843 74.224 76.5226 74.1451 76.2042C74.0663 75.8858 73.5509 75.2327 73.5509 75.2327C73.5509 75.2327 74.1845 75.6731 74.6309 75.594C75.0774 75.5148 75.6024 74.9997 75.6024 74.9997C75.6024 74.9997 75.0949 75.6694 75.2412 76.0798C75.3874 76.4901 75.8354 77.0513 75.8354 77.0513C75.8354 77.0513 75.1441 76.6032 74.7554 76.69C74.3667 76.7769 73.7839 77.2843 73.7839 77.2843Z" fill="white"/>
<path d="M58.4168 22.3554C58.4168 22.3554 59.2722 22.1799 59.4621 21.9093C59.6503 21.6246 59.7858 20.8122 59.7858 20.8122C59.7858 20.8122 59.8798 21.5772 60.2319 21.8574C60.5902 22.1299 61.3212 22.1749 61.3212 22.1749C61.3212 22.1749 60.4889 22.241 60.2837 22.6272C60.0785 23.0135 59.9662 23.7166 59.9662 23.7166C59.9662 23.7166 59.8377 22.8985 59.5061 22.6729C59.1885 22.4456 58.4168 22.3554 58.4168 22.3554Z" fill="white"/>
<path d="M82.9763 54.3046C82.9763 54.3046 83.838 54.1213 84.02 53.8445C84.2021 53.5676 84.3375 52.7552 84.3375 52.7552C84.3375 52.7552 84.4394 53.5264 84.7977 53.7989C85.156 54.0713 85.887 54.1163 85.887 54.1163C85.887 54.1163 85.0547 54.1824 84.8433 54.5765C84.6318 54.9706 84.5258 55.6658 84.5258 55.6658C84.5258 55.6658 84.3973 54.8477 84.0656 54.6221C83.7481 54.3948 82.9763 54.3046 82.9763 54.3046Z" fill="white"/>
</svg>
