<svg width="40" height="40" viewBox="0 0 40 40" fill="none" xmlns="http://www.w3.org/2000/svg">
<g clip-path="url(#clip0_808_156929)">
<path d="M39.5057 8.36904C38.6772 7.5406 32.5187 1.38207 31.6306 0.494181C30.9717 -0.164727 29.9035 -0.164727 29.2446 0.494181C28.5856 1.15309 28.5856 2.22145 29.2446 2.88028L30.2014 3.83716L25.6001 8.43849C23.6524 6.49083 23.2555 6.09388 21.6101 4.44849C20.9513 3.78958 19.8829 3.78958 19.224 4.44849C18.5651 5.10739 18.5651 6.17568 19.224 6.83458L21.064 8.67459L5.55278 24.1859C4.89388 24.8449 4.89388 25.9131 5.55278 26.572L8.29716 29.3165L0.494181 37.1196C-0.164727 37.7786 -0.164727 38.8468 0.494181 39.5057C1.15301 40.1647 2.22137 40.1648 2.88028 39.5057L10.6834 31.7026L13.4278 34.4471C14.0862 35.1057 15.1552 35.1059 15.8139 34.4471L31.3253 18.9356L33.1653 20.7756C33.8242 21.4345 34.8925 21.4347 35.5514 20.7756C36.2103 20.1167 36.2103 19.0484 35.5514 18.3895C33.9066 16.7447 33.5083 16.3464 31.5614 14.3995L36.1628 9.79811L37.1196 10.755C37.7785 11.4139 38.8468 11.414 39.5057 10.755C40.1646 10.0962 40.1646 9.02795 39.5057 8.36904ZM14.6208 30.8679L9.13201 25.3791L16.5697 17.9414C17.9417 19.3134 17.9576 19.2729 17.9576 19.4925C17.9576 19.567 17.9376 19.6756 17.8422 19.7711C16.373 21.2403 16.373 23.6309 17.8423 25.1003L19.1153 26.3734L14.6208 30.8679ZM21.5014 23.9874L20.2284 22.7143C20.0749 22.5606 20.0749 22.3107 20.2284 22.1572C21.6977 20.688 21.6977 18.2973 20.2284 16.828L18.9559 15.5554L23.4504 11.0608C23.9874 11.5978 28.392 16.0026 28.9393 16.5497L21.5014 23.9874ZM29.1753 12.0136C28.4456 11.284 28.7155 11.5537 27.9863 10.8245L32.5876 6.22318C33.2964 6.93193 33.3294 6.9649 33.7767 7.41209L29.1753 12.0136Z" fill="#0EA5E9"/>
</g>
<defs>
<clipPath id="clip0_808_156929">
<rect width="40" height="40" fill="white"/>
</clipPath>
</defs>
</svg>
