<svg width="35" height="36" viewBox="0 0 35 36" fill="none" xmlns="http://www.w3.org/2000/svg">
<path d="M27.0401 11.8013C27.1339 11.8248 27.2313 11.8289 27.3267 11.8134C27.4221 11.7979 27.5135 11.763 27.5957 11.7109C27.6778 11.6587 27.7491 11.5903 27.8054 11.5096C27.8616 11.4288 27.9018 11.3374 27.9234 11.2406C27.945 11.1438 27.9477 11.0436 27.9314 10.9457C27.9151 10.8478 27.88 10.7542 27.8282 10.6704C27.7764 10.5865 27.7089 10.5141 27.6297 10.4573C27.5505 10.4005 27.4611 10.3605 27.3667 10.3395L22.5426 9.19951C22.448 9.17365 22.3494 9.16762 22.2525 9.18178C22.1556 9.19595 22.0625 9.23002 21.9787 9.28196C21.895 9.33391 21.8222 9.40267 21.7648 9.48414C21.7073 9.56562 21.6665 9.65815 21.6445 9.75622C21.6226 9.85429 21.6201 9.9559 21.6371 10.055C21.6542 10.1541 21.6904 10.2486 21.7437 10.333C21.7971 10.4174 21.8663 10.4899 21.9474 10.5461C22.0286 10.6024 22.1199 10.6413 22.2159 10.6605L27.0401 11.8013Z" fill="white"/>
<path fill-rule="evenodd" clip-rule="evenodd" d="M24.7914 16.5C26.3385 16.5 27.8223 15.8679 28.9162 14.7426C30.0102 13.6174 30.6248 12.0913 30.6248 10.5C30.6248 8.9087 30.0102 7.38258 28.9162 6.25736C27.8223 5.13214 26.3385 4.5 24.7914 4.5C23.2443 4.5 21.7606 5.13214 20.6667 6.25736C19.5727 7.38258 18.9581 8.9087 18.9581 10.5C18.9581 12.0913 19.5727 13.6174 20.6667 14.7426C21.7606 15.8679 23.2443 16.5 24.7914 16.5ZM24.7914 15C25.366 15 25.9349 14.8836 26.4657 14.6575C26.9965 14.4313 27.4788 14.0998 27.885 13.682C28.2913 13.2641 28.6135 12.768 28.8334 12.2221C29.0533 11.6761 29.1664 11.0909 29.1664 10.5C29.1664 9.90905 29.0533 9.32389 28.8334 8.77792C28.6135 8.23196 28.2913 7.73588 27.885 7.31802C27.4788 6.90016 26.9965 6.56869 26.4657 6.34254C25.9349 6.1164 25.366 6 24.7914 6C23.6311 6 22.5183 6.47411 21.6978 7.31802C20.8774 8.16193 20.4164 9.30653 20.4164 10.5C20.4164 11.6935 20.8774 12.8381 21.6978 13.682C22.5183 14.5259 23.6311 15 24.7914 15ZM12.2337 6.93375C11.762 5.78475 10.1826 5.66925 9.54894 6.7365L4.58769 15.0863C4.01529 16.0492 4.65477 17.2793 5.77113 17.361L14.4234 17.9955C15.539 18.078 16.3513 16.9545 15.9255 15.918L12.2337 6.93375ZM10.7995 7.50975C10.7971 7.51257 10.7949 7.51558 10.7929 7.51875L5.8404 15.855L5.84186 15.8565C5.84416 15.8578 5.84661 15.8588 5.84915 15.8595C5.85764 15.8624 5.86646 15.8642 5.8754 15.8647L14.5284 16.4993C14.543 16.5008 14.5518 16.4993 14.5561 16.4993C14.5641 16.4977 14.5715 16.4938 14.5773 16.488L10.8906 7.518L10.8877 7.5105C10.8755 7.50411 10.862 7.50053 10.8483 7.5C10.8329 7.49849 10.8174 7.5008 10.8031 7.50675L10.8009 7.5075V7.50825L10.7995 7.50975ZM25.8013 27.27C26.8531 26.7657 27.6669 25.8522 28.0639 24.7307C28.4609 23.6091 28.4084 22.3713 27.9181 21.2895C27.6753 20.7539 27.3323 20.2726 26.9087 19.8733C26.4851 19.474 25.9892 19.1644 25.4493 18.9623C24.3589 18.554 23.1555 18.6079 22.1037 19.1122L14.1733 22.9163C13.6526 23.166 13.1848 23.5187 12.7966 23.9544C12.4085 24.3901 12.1075 24.9002 11.911 25.4555C11.7145 26.0108 11.6262 26.6005 11.6512 27.1908C11.6763 27.7812 11.8141 28.3608 12.0569 28.8964C12.2997 29.432 12.6427 29.9131 13.0662 30.3124C13.4898 30.7117 13.9857 31.0212 14.5256 31.2233C15.0655 31.4255 15.6388 31.5163 16.2128 31.4905C16.7868 31.4648 17.3502 31.323 17.8709 31.0732L25.8013 27.2693V27.27ZM14.7895 24.276C14.4385 24.44 14.1226 24.6739 13.8601 24.9642C13.5976 25.2545 13.3936 25.5955 13.26 25.9674C13.1264 26.3393 13.0657 26.7347 13.0816 27.1309C13.0975 27.527 13.1895 27.916 13.3525 28.2753C13.5154 28.6346 13.7459 28.9572 14.0308 29.2243C14.3156 29.4914 14.6491 29.6978 15.012 29.8315C15.3749 29.9653 15.7599 30.0237 16.1449 30.0034C16.5298 29.9832 16.9071 29.8846 17.2548 29.7135L20.5112 28.1512L18.0466 22.7137L14.7895 24.2752V24.276ZM21.8332 27.5175L19.3679 22.08L22.7199 20.472C23.0678 20.2989 23.4458 20.1986 23.8317 20.177C24.2177 20.1555 24.604 20.213 24.9681 20.3464C25.3323 20.4797 25.667 20.6861 25.9529 20.9537C26.2388 21.2213 26.4702 21.5446 26.6335 21.905C26.7968 22.2653 26.8889 22.6555 26.9043 23.0527C26.9198 23.45 26.8583 23.8464 26.7235 24.219C26.5886 24.5917 26.3832 24.933 26.1189 25.2232C25.8547 25.5134 25.5371 25.7467 25.1845 25.9095L21.8332 27.5175Z" fill="white"/>
</svg>
