<svg width="40" height="40" viewBox="0 0 40 40" fill="none" xmlns="http://www.w3.org/2000/svg">
<g clip-path="url(#clip0_802_156661)">
<path d="M34.4168 24.7506L28.1668 21.9173C27.7266 21.7447 27.2559 21.6631 26.7833 21.6774C26.3106 21.6917 25.8458 21.8017 25.4168 22.0006L24.1668 22.7506C22.9028 23.4903 21.4647 23.8801 20.0001 23.8801C18.5356 23.8801 17.0975 23.4903 15.8335 22.7506L14.6668 22.0839H14.5835C14.1545 21.885 13.6896 21.775 13.217 21.7607C12.7443 21.7464 12.2737 21.828 11.8335 22.0006L5.6668 24.7506H5.58346C5.14657 24.9604 4.78007 25.2926 4.52856 25.7068C4.27704 26.1211 4.15136 26.5995 4.1668 27.0839V35.8339C4.1668 36.276 4.34239 36.6999 4.65495 37.0124C4.96751 37.325 5.39144 37.5006 5.83346 37.5006C6.27549 37.5006 6.69941 37.325 7.01197 37.0124C7.32453 36.6999 7.50013 36.276 7.50013 35.8339V27.5006L12.9168 25.0839V29.0006C12.0828 29.2955 11.3799 29.8757 10.9323 30.6387C10.4847 31.4017 10.3212 32.2984 10.4708 33.1703C10.6204 34.0421 11.0734 34.833 11.7497 35.4032C12.4261 35.9734 13.2822 36.2861 14.1668 36.2861C15.0514 36.2861 15.9075 35.9734 16.5839 35.4032C17.2602 34.833 17.7132 34.0421 17.8628 33.1703C18.0124 32.2984 17.8489 31.4017 17.4013 30.6387C16.9537 29.8757 16.2508 29.2955 15.4168 29.0006V26.2506C16.8656 26.8695 18.4247 27.1886 20.0001 27.1886C21.5756 27.1886 23.1347 26.8695 24.5835 26.2506V28.5006C23.5115 28.7774 22.5617 29.4021 21.883 30.2768C21.2044 31.1516 20.8352 32.2268 20.8335 33.3339V35.4173C20.8335 35.9698 21.053 36.4997 21.4437 36.8904C21.8344 37.2811 22.3643 37.5006 22.9168 37.5006H23.7501C24.0816 37.5006 24.3996 37.3689 24.634 37.1345C24.8684 36.9001 25.0001 36.5821 25.0001 36.2506C25.0001 35.9191 24.8684 35.6011 24.634 35.3667C24.3996 35.1323 24.0816 35.0006 23.7501 35.0006H23.3335V33.3339C23.3335 32.6709 23.5969 32.035 24.0657 31.5662C24.5345 31.0973 25.1704 30.8339 25.8335 30.8339C26.4965 30.8339 27.1324 31.0973 27.6012 31.5662C28.0701 32.035 28.3335 32.6709 28.3335 33.3339V35.0006H27.9168C27.5853 35.0006 27.2673 35.1323 27.0329 35.3667C26.7985 35.6011 26.6668 35.9191 26.6668 36.2506C26.6668 36.5821 26.7985 36.9001 27.0329 37.1345C27.2673 37.3689 27.5853 37.5006 27.9168 37.5006H28.7501C29.3027 37.5006 29.8326 37.2811 30.2233 36.8904C30.614 36.4997 30.8335 35.9698 30.8335 35.4173V33.3339C30.8317 32.2268 30.4626 31.1516 29.7839 30.2768C29.1052 29.4021 28.1554 28.7774 27.0835 28.5006V25.0839L32.5001 27.5006V35.8339C32.5001 36.276 32.6757 36.6999 32.9883 37.0124C33.3008 37.325 33.7248 37.5006 34.1668 37.5006C34.6088 37.5006 35.0327 37.325 35.3453 37.0124C35.6579 36.6999 35.8335 36.276 35.8335 35.8339V27.0839C35.8489 26.5995 35.7232 26.1211 35.4717 25.7068C35.2202 25.2926 34.8537 24.9604 34.4168 24.7506ZM14.1668 33.7506C13.9196 33.7506 13.6779 33.6773 13.4723 33.5399C13.2668 33.4026 13.1066 33.2074 13.0119 32.9789C12.9173 32.7505 12.8926 32.4992 12.9408 32.2567C12.989 32.0143 13.1081 31.7915 13.2829 31.6167C13.4577 31.4419 13.6805 31.3228 13.9229 31.2746C14.1654 31.2264 14.4167 31.2511 14.6451 31.3457C14.8736 31.4404 15.0688 31.6006 15.2061 31.8061C15.3435 32.0117 15.4168 32.2534 15.4168 32.5006C15.4168 32.8321 15.2851 33.1501 15.0507 33.3845C14.8163 33.6189 14.4983 33.7506 14.1668 33.7506Z" fill="#0E82FD"/>
<path d="M20.0002 20.8333C21.8132 20.8333 23.5854 20.2957 25.0929 19.2885C26.6003 18.2812 27.7753 16.8496 28.4691 15.1746C29.1629 13.4996 29.3444 11.6565 28.9907 9.87834C28.637 8.10018 27.764 6.46684 26.482 5.18486C25.2 3.90288 23.5667 3.02984 21.7885 2.67614C20.0103 2.32244 18.1672 2.50397 16.4922 3.19778C14.8172 3.89158 13.3856 5.06649 12.3784 6.57394C11.3711 8.08139 10.8335 9.85367 10.8335 11.6667C10.8335 14.0978 11.7993 16.4294 13.5183 18.1485C15.2374 19.8676 17.569 20.8333 20.0002 20.8333ZM20.0002 5.83334C21.1539 5.83334 22.2817 6.17546 23.241 6.81643C24.2003 7.45741 24.9479 8.36845 25.3895 9.43435C25.831 10.5003 25.9465 11.6731 25.7214 12.8047C25.4963 13.9363 24.9408 14.9757 24.125 15.7915C23.3091 16.6073 22.2697 17.1628 21.1382 17.3879C20.0066 17.613 18.8337 17.4975 17.7678 17.056C16.7019 16.6145 15.7909 15.8668 15.1499 14.9075C14.5089 13.9482 14.1668 12.8204 14.1668 11.6667C14.1668 10.1196 14.7814 8.63584 15.8754 7.54188C16.9693 6.44792 18.4531 5.83334 20.0002 5.83334Z" fill="#0E82FD"/>
</g>
<defs>
<clipPath id="clip0_802_156661">
<rect width="40" height="40" fill="white"/>
</clipPath>
</defs>
</svg>
