<svg width="141" height="30" viewBox="0 0 141 30" fill="none" xmlns="http://www.w3.org/2000/svg">
<g clip-path="url(#clip0_2525_22755)">
<path fill-rule="evenodd" clip-rule="evenodd" d="M15.278 3.42525L17.2557 0L22.8627 3.23775L20.8857 6.66225C20.5385 7.263 21.0582 7.9935 21.7392 7.86225L25.5282 7.131L26.7545 13.4888L22.9655 14.2192C16.8365 15.4012 12.1572 8.83125 15.278 3.42525Z" fill="#3A724F"/>
<path fill-rule="evenodd" clip-rule="evenodd" d="M11.8515 26.575L9.87375 30.0003L4.266 26.7633L6.24375 23.338C6.591 22.7373 6.07125 22.0068 5.3895 22.138L1.60125 22.8685L0.375 16.5115L4.164 15.781C10.293 14.599 14.9715 21.169 11.8515 26.575Z" fill="#DC8E43"/>
<path fill-rule="evenodd" clip-rule="evenodd" d="M12.0229 3.42525L10.0459 0L4.4381 3.23775L6.41585 6.66225C6.76235 7.263 6.24335 7.9935 5.5616 7.86225L1.7726 7.131L0.547852 13.4888L4.3361 14.2192C10.4659 15.4012 15.1451 8.83125 12.0236 3.42525H12.0229Z" fill="#14424C"/>
<path fill-rule="evenodd" clip-rule="evenodd" d="M15.1122 26.575L17.0884 30.0003L22.6962 26.7633L20.7184 23.338C20.3719 22.7373 20.8909 22.0068 21.5727 22.138L25.3609 22.8685L26.5872 16.5115L22.7982 15.781C16.6692 14.599 11.9907 21.169 15.1107 26.575H15.1122Z" fill="#C85D1B"/>
<path d="M122.711 22.6147V16.2397C122.711 15.3562 122.914 14.5635 123.321 13.8622C123.741 13.1467 124.338 12.5858 125.109 12.1785C125.881 11.772 126.8 11.5687 127.866 11.5687C128.363 11.5639 128.859 11.6275 129.339 11.7577C129.788 11.8702 130.194 12.0315 130.559 12.2415C130.938 12.438 131.26 12.6765 131.527 12.957H131.569C131.855 12.6725 132.181 12.4314 132.537 12.2415C132.928 12.0264 133.345 11.8637 133.779 11.7577C134.266 11.6284 134.769 11.5649 135.273 11.5687C136.338 11.5687 137.257 11.7713 138.029 12.1785C138.8 12.5858 139.396 13.146 139.817 13.8622C140.238 14.5635 140.448 15.3555 140.448 16.2397V22.6147H137.166V16.3447C137.166 15.9945 137.075 15.6787 136.893 15.3982C136.725 15.1049 136.486 14.8587 136.198 14.6827C135.894 14.4978 135.544 14.4028 135.188 14.409C134.809 14.409 134.466 14.5005 134.157 14.6827C133.869 14.8585 133.63 15.1047 133.463 15.3982C133.293 15.6843 133.205 16.0119 133.21 16.3447V22.6147H129.949V16.3447C129.949 15.9945 129.858 15.6787 129.675 15.3982C129.505 15.1006 129.258 14.8537 128.96 14.6827C128.656 14.4978 128.306 14.4028 127.95 14.409C127.571 14.409 127.227 14.5005 126.919 14.6827C126.631 14.8585 126.392 15.1047 126.225 15.3982C126.055 15.6845 125.967 16.012 125.972 16.3447V22.6147H122.711ZM115.578 22.8675C114.47 22.8675 113.508 22.6575 112.695 22.236C111.896 21.801 111.279 21.219 110.844 20.49C110.409 19.7467 110.191 18.9255 110.191 18.0278V11.8207H113.453V17.9437C113.453 18.3225 113.544 18.6735 113.726 18.996C113.908 19.3042 114.154 19.557 114.462 19.7535C114.785 19.9357 115.15 20.0272 115.557 20.0272C115.95 20.0272 116.3 19.9357 116.609 19.7535C116.931 19.557 117.184 19.3042 117.366 18.996C117.549 18.6735 117.64 18.3225 117.64 17.9437V11.8207H120.901V18.0278C120.901 18.9255 120.69 19.7467 120.27 20.49C119.849 21.219 119.239 21.8017 118.44 22.236C117.654 22.6567 116.7 22.8675 115.578 22.8675ZM99.686 22.6147V20.0272H104.883C105.024 20.0272 105.15 19.9987 105.262 19.9425C105.374 19.8727 105.465 19.7812 105.535 19.6695C105.604 19.559 105.64 19.4314 105.64 19.3012C105.64 19.1711 105.604 19.0435 105.535 18.933C105.47 18.8248 105.375 18.7373 105.262 18.6802C105.149 18.6098 105.017 18.5734 104.883 18.5752H102.99C102.288 18.5752 101.649 18.4627 101.075 18.2385C100.529 18.0124 100.061 17.6322 99.728 17.1442C99.4055 16.6395 99.2442 15.987 99.2442 15.1875C99.2442 14.5702 99.3912 14.0092 99.686 13.5045C99.9926 13.0013 100.419 12.5818 100.927 12.2835C101.458 11.9757 102.061 11.8159 102.674 11.8207H107.871V14.43H103.179C102.992 14.4263 102.812 14.4942 102.674 14.6197C102.612 14.6799 102.564 14.7519 102.531 14.8315C102.499 14.9111 102.483 14.9965 102.484 15.0825C102.484 15.279 102.548 15.447 102.674 15.5872C102.812 15.7128 102.992 15.7807 103.179 15.777H105.03C105.816 15.777 106.489 15.8962 107.05 16.134C107.625 16.359 108.067 16.7235 108.376 17.229C108.699 17.7337 108.86 18.3855 108.86 19.185C108.86 19.8165 108.699 20.3917 108.376 20.91C108.07 21.4266 107.635 21.8546 107.113 22.152C106.594 22.461 106.005 22.6147 105.346 22.6147H99.686ZM92.5805 11.5687C93.4925 11.5687 94.2987 11.7157 95 12.0105C95.6888 12.2731 96.308 12.6906 96.8097 13.2308C97.3211 13.76 97.7154 14.3909 97.967 15.0825C98.2332 15.7837 98.3667 16.5623 98.3667 17.418C98.3667 18.4837 98.1425 19.431 97.6932 20.2582C97.2783 21.0511 96.6522 21.7137 95.8842 22.173C95.1125 22.6357 94.2147 22.8675 93.191 22.8675C92.756 22.8675 92.342 22.8112 91.949 22.6995C91.5768 22.5901 91.2225 22.4268 90.8975 22.215C90.591 22.0071 90.3269 21.7429 90.119 21.4365H90.0552V27.1815H86.7942V17.4172C86.7942 16.2247 87.0327 15.1935 87.5097 14.3243C87.9721 13.4686 88.674 12.7665 89.5295 12.3038C90.3995 11.8133 91.4165 11.568 92.5805 11.568V11.5687ZM92.5805 14.388C92.0757 14.388 91.634 14.514 91.2552 14.7667C90.89 15.0052 90.6095 15.342 90.413 15.777C90.2172 16.197 90.119 16.6747 90.119 17.2072C90.119 17.7405 90.2172 18.2175 90.413 18.6382C90.6095 19.059 90.89 19.3957 91.2552 19.6485C91.634 19.887 92.0757 20.0062 92.5805 20.0062C93.0852 20.0062 93.5202 19.8862 93.8847 19.6485C94.2515 19.394 94.5426 19.0449 94.727 18.6382C94.937 18.2175 95.042 17.7405 95.042 17.2072C95.042 16.6747 94.937 16.1977 94.727 15.777C94.5305 15.342 94.25 15.0045 93.8847 14.7667C93.5202 14.514 93.0852 14.388 92.5805 14.388ZM81.8382 22.6147V11.8207H85.121V22.6147H81.8382ZM83.4792 10.6005C82.9602 10.6005 82.5117 10.4115 82.133 10.0327C81.7542 9.654 81.5645 9.20475 81.5645 8.68575C81.5645 8.16675 81.7542 7.71825 82.133 7.3395C82.5117 6.9465 82.9602 6.75 83.4792 6.75C83.9982 6.75 84.4475 6.9465 84.8262 7.3395C85.205 7.71825 85.394 8.16675 85.394 8.68575C85.394 9.20475 85.205 9.65325 84.8262 10.0327C84.4475 10.4115 83.9982 10.6005 83.4792 10.6005ZM74.7042 22.8675C73.5965 22.8675 72.6005 22.6222 71.7162 22.131C70.8488 21.6555 70.1229 20.9586 69.6125 20.1112C69.1077 19.2555 68.855 18.2947 68.855 17.2282C68.855 16.1482 69.1077 15.1875 69.6125 14.346C70.1229 13.4987 70.8488 12.8017 71.7162 12.3262C72.6005 11.8207 73.5965 11.5687 74.7042 11.5687C75.8127 11.5687 76.8012 11.8207 77.6712 12.3262C78.5356 12.7984 79.2555 13.4965 79.754 14.346C80.273 15.1875 80.5325 16.1482 80.5325 17.2282C80.5325 18.2947 80.273 19.2555 79.754 20.1112C79.2555 20.9607 78.5356 21.6588 77.6712 22.131C76.7877 22.6222 75.7985 22.8675 74.7042 22.8675ZM74.7042 20.0272C75.2232 20.0272 75.6725 19.9005 76.0512 19.6485C76.4301 19.396 76.735 19.0474 76.9347 18.6382C77.1455 18.2175 77.2505 17.7405 77.2505 17.2072C77.2505 16.6882 77.1455 16.2187 76.9347 15.7972C76.7349 15.3884 76.43 15.04 76.0512 14.7877C75.6725 14.535 75.2232 14.409 74.7042 14.409C74.1852 14.409 73.7292 14.535 73.337 14.7877C72.958 15.0402 72.6528 15.3889 72.4527 15.798C72.2384 16.2367 72.1305 16.7198 72.1377 17.208C72.1377 17.7405 72.2427 18.2175 72.4527 18.6382C72.6529 19.0473 72.958 19.396 73.337 19.6485C73.7292 19.9005 74.1852 20.0272 74.7042 20.0272ZM58.256 26.8867V24.0877H63.6417C63.8525 24.0877 64.028 24.018 64.1682 23.8777C64.2366 23.8173 64.2909 23.7426 64.3271 23.6589C64.3634 23.5751 64.3809 23.4845 64.3782 23.3932V21.0157H64.3152C64.0488 21.3256 63.745 21.6012 63.4107 21.8362C63.1017 22.0612 62.7507 22.2292 62.3585 22.3417C61.941 22.4591 61.5088 22.5156 61.0752 22.5097C60.1212 22.5097 59.2655 22.2847 58.508 21.8362C57.7647 21.3735 57.1752 20.7352 56.7402 19.9215C56.3202 19.1085 56.1095 18.1822 56.1095 17.1442C56.1095 16.1205 56.327 15.1875 56.762 14.346C57.2105 13.5045 57.863 12.831 58.7187 12.3262C59.5737 11.8207 60.6192 11.5687 61.8537 11.5687C63.032 11.5687 64.049 11.814 64.9047 12.3052C65.7641 12.7717 66.4666 13.4813 66.9245 14.3453C67.4015 15.2153 67.64 16.2397 67.64 17.418V23.73C67.64 24.6975 67.3527 25.4625 66.7775 26.0235C66.2165 26.5987 65.438 26.886 64.442 26.886L58.256 26.8867ZM61.8747 19.7745C62.3795 19.7745 62.8145 19.662 63.1797 19.4377C63.5401 19.2037 63.8306 18.8767 64.0205 18.4913C64.22 18.0855 64.3209 17.6384 64.3152 17.1862C64.3152 16.6815 64.2177 16.2187 64.0212 15.798C63.8247 15.3772 63.5442 15.0472 63.179 14.8088C62.8145 14.556 62.3795 14.43 61.874 14.43C61.3835 14.43 60.9485 14.5492 60.5697 14.7877C60.2052 15.0262 59.9247 15.3487 59.7282 15.7552C59.5325 16.1625 59.4342 16.6177 59.4342 17.1232C59.4342 17.6145 59.5317 18.063 59.7282 18.4703C59.9247 18.8625 60.2052 19.1782 60.5705 19.4167C60.9485 19.6552 61.3835 19.7745 61.8747 19.7745ZM49.4802 22.8675C48.3725 22.8675 47.3765 22.6222 46.493 22.131C45.6252 21.6557 44.8991 20.9587 44.3885 20.1112C43.8837 19.2555 43.631 18.2947 43.631 17.2282C43.631 16.1482 43.8837 15.1875 44.3885 14.346C44.8991 13.4985 45.6252 12.8016 46.493 12.3262C47.3765 11.8207 48.3725 11.5687 49.4802 11.5687C50.5887 11.5687 51.5772 11.8207 52.4472 12.3262C53.3115 12.7985 54.0314 13.4966 54.53 14.346C55.049 15.1875 55.3085 16.1482 55.3085 17.2282C55.3085 18.2947 55.049 19.2555 54.53 20.1112C54.0314 20.9607 53.3115 21.6587 52.4472 22.131C51.5637 22.6222 50.5745 22.8675 49.4802 22.8675ZM49.4802 20.0272C49.9992 20.0272 50.4477 19.9005 50.8272 19.6485C51.2059 19.3959 51.5108 19.0472 51.7107 18.6382C51.9207 18.2175 52.0257 17.7405 52.0257 17.2072C52.0257 16.6882 51.9207 16.2187 51.7107 15.7972C51.5107 15.3885 51.2058 15.0402 50.8272 14.7877C50.4485 14.535 49.9992 14.409 49.4802 14.409C48.9612 14.409 48.5052 14.535 48.113 14.7877C47.734 15.0402 47.4288 15.3889 47.2287 15.798C47.0145 16.2367 46.9065 16.7198 46.9137 17.208C46.9137 17.7405 47.0187 18.2175 47.2287 18.6382C47.4289 19.0473 47.734 19.396 48.113 19.6485C48.5052 19.9005 48.9612 20.0272 49.4802 20.0272ZM39.0357 22.6147C38.1237 22.6147 37.3242 22.4122 36.6372 22.005C35.9691 21.6176 35.4169 21.0582 35.0382 20.385C34.6595 19.7115 34.4697 18.9675 34.4697 18.1545V7.88625H38.0045V18.4065C38.0045 18.744 38.1245 19.038 38.3622 19.2907C38.6007 19.5427 38.8947 19.6695 39.2457 19.6695H43.1382V22.6147H39.0357Z" fill="#14424C"/>
</g>
<defs>
<clipPath id="clip0_2525_22755">
<rect width="140.25" height="30" fill="white" transform="translate(0.375)"/>
</clipPath>
</defs>
</svg>
