<svg width="153" height="30" viewBox="0 0 153 30" fill="none" xmlns="http://www.w3.org/2000/svg">
<g clip-path="url(#clip0_2525_22711)">
<path fill-rule="evenodd" clip-rule="evenodd" d="M19.9168 8.76398C18.6834 7.93988 17.2334 7.5 15.75 7.5V0C18.7167 0 21.6168 0.879735 24.0835 2.52796C26.5503 4.17617 28.4729 6.51886 29.6082 9.25973C30.7435 12.0006 31.0406 15.0167 30.4618 17.9263C29.883 20.8361 28.4544 23.5088 26.3566 25.6066C24.2588 27.7044 21.5861 29.133 18.6763 29.7118C15.7667 30.2906 12.7506 29.9935 10.0097 28.8582C7.26885 27.7229 4.92617 25.8003 3.27796 23.3335C1.62974 20.8668 0.75 17.9667 0.75 15H8.25C8.25 16.4834 8.68988 17.9334 9.51398 19.1668C10.3381 20.4002 11.5094 21.3614 12.8799 21.9291C14.2503 22.4968 15.7583 22.6453 17.2132 22.3559C18.668 22.0665 20.0044 21.3522 21.0533 20.3033C22.1022 19.2544 22.8165 17.918 23.1059 16.4632C23.3953 15.0083 23.2468 13.5003 22.6791 12.1299C22.1114 10.7594 21.1502 9.58807 19.9168 8.76398Z" fill="#007DFC"/>
<path fill-rule="evenodd" clip-rule="evenodd" d="M8.25 3.9637e-06C8.25 0.984918 8.05601 1.96019 7.6791 2.87013C7.30218 3.78007 6.74974 4.60686 6.0533 5.30331C5.35686 5.99975 4.53007 6.55219 3.62013 6.9291C2.71018 7.30601 1.73491 7.5 0.75 7.5L0.75 15C2.71983 15 4.67037 14.612 6.49026 13.8582C8.31015 13.1044 9.96375 11.9995 11.3566 10.6066C12.7495 9.21375 13.8544 7.56015 14.6082 5.74026C15.362 3.92037 15.75 1.96983 15.75 0L8.25 3.9637e-06Z" fill="#007DFC"/>
<path d="M94.9642 10.8398H91.3252V22.3991H94.9642V10.8398Z" fill="#007DFC"/>
<path d="M91.7301 8.67495C92.1104 9.0555 92.5859 9.24577 93.1566 9.24577C93.7274 9.24577 94.1954 9.0555 94.5599 8.67495C94.9251 8.27857 95.1074 7.80285 95.1074 7.24789C95.1074 6.67708 94.9251 6.20137 94.5599 5.82083C94.1954 5.44027 93.7274 5.25 93.1566 5.25C92.5859 5.25 92.1104 5.44027 91.7301 5.82083C91.3649 6.20137 91.1826 6.67708 91.1826 7.24789C91.1826 7.80285 91.3649 8.27857 91.7301 8.67495Z" fill="#007DFC"/>
<path d="M39.1172 22.3983V5.60645H42.8514V19.1161H50.2959V22.3983H39.1172Z" fill="#007DFC"/>
<path fill-rule="evenodd" clip-rule="evenodd" d="M57.021 22.6606C55.8318 22.6606 54.7536 22.399 53.7863 21.8758C52.8349 21.3367 52.0818 20.6073 51.5268 19.6876C50.9718 18.7679 50.6943 17.7373 50.6943 16.5956C50.6943 15.4539 50.9718 14.4312 51.5268 13.5274C52.0818 12.6236 52.8349 11.9101 53.7863 11.3869C54.7377 10.8477 55.8159 10.5781 57.021 10.5781C58.2261 10.5781 59.3043 10.8398 60.2556 11.363C61.207 11.8863 61.9602 12.6078 62.5152 13.5274C63.0702 14.4312 63.3477 15.4539 63.3477 16.5956C63.3477 17.7373 63.0702 18.7679 62.5152 19.6876C61.9602 20.6073 61.207 21.3367 60.2556 21.8758C59.3043 22.399 58.2261 22.6606 57.021 22.6606ZM57.021 19.3546C57.5442 19.3546 58.0041 19.2436 58.4005 19.0216C58.7969 18.7838 59.0982 18.4587 59.3043 18.0465C59.5263 17.6184 59.6373 17.1347 59.6373 16.5956C59.6373 16.0565 59.5263 15.5887 59.3043 15.1923C59.0823 14.7801 58.7731 14.463 58.3767 14.241C57.9961 14.0031 57.5442 13.8842 57.021 13.8842C56.5136 13.8842 56.0617 14.0031 55.6653 14.241C55.2689 14.463 54.9597 14.7801 54.7377 15.1923C54.5157 15.6046 54.4047 16.0803 54.4047 16.6194C54.4047 17.1427 54.5157 17.6184 54.7377 18.0465C54.9597 18.4587 55.2689 18.7838 55.6653 19.0216C56.0617 19.2436 56.5136 19.3546 57.021 19.3546Z" fill="#007DFC"/>
<path fill-rule="evenodd" clip-rule="evenodd" d="M66.229 26.9177C67.1962 27.3617 68.314 27.5837 69.5826 27.5837C70.8193 27.5837 71.9214 27.3379 72.8886 26.8463C73.8559 26.3548 74.6169 25.673 75.1719 24.8009C75.7268 23.9288 76.0047 22.8982 76.0047 21.7089V10.8395H72.4366V11.6161C72.1713 11.3927 71.8699 11.2052 71.5329 11.0535C70.9144 10.7522 70.2088 10.6016 69.4161 10.6016C68.3537 10.6016 67.4102 10.8553 66.5857 11.3627C65.7611 11.8542 65.1111 12.536 64.6354 13.4081C64.1596 14.2644 63.9219 15.2316 63.9219 16.3099C63.9219 17.3723 64.1596 18.3395 64.6354 19.2116C65.1111 20.0837 65.7611 20.7734 66.5857 21.2808C67.4102 21.7882 68.3537 22.0419 69.4161 22.0419C70.193 22.0419 70.8986 21.8913 71.5329 21.59C71.8401 21.4441 72.1176 21.2721 72.3653 21.074V21.8041C72.3653 22.6127 72.1037 23.2391 71.5804 23.6831C71.0731 24.1271 70.3674 24.349 69.4636 24.349C68.7343 24.349 68.1079 24.2222 67.5846 23.9684C67.0773 23.7148 66.6174 23.3421 66.2051 22.8506L63.9694 25.0863C64.5244 25.8791 65.2776 26.4896 66.229 26.9177ZM71.4139 18.4742C71.0492 18.6962 70.6132 18.8072 70.1058 18.8072C69.5984 18.8072 69.1544 18.6962 68.7738 18.4742C68.4091 18.2522 68.1237 17.951 67.9176 17.5704C67.7115 17.174 67.6084 16.7538 67.6084 16.3099C67.6084 15.8342 67.7115 15.4061 67.9176 15.0255C68.1237 14.645 68.4171 14.3437 68.7976 14.1217C69.1782 13.8997 69.6142 13.7887 70.1058 13.7887C70.6132 13.7887 71.0492 13.8997 71.4139 14.1217C71.7945 14.3437 72.0799 14.645 72.2702 15.0255C72.4763 15.4061 72.5794 15.8342 72.5794 16.3099C72.5794 16.7855 72.4763 17.2136 72.2702 17.5942C72.0799 17.9589 71.7945 18.2522 71.4139 18.4742Z" fill="#007DFC"/>
<path fill-rule="evenodd" clip-rule="evenodd" d="M83.6629 22.6606C82.4734 22.6606 81.3949 22.399 80.4282 21.8758C79.4764 21.3367 78.7234 20.6073 78.1684 19.6876C77.6134 18.7679 77.3359 17.7373 77.3359 16.5956C77.3359 15.4539 77.6134 14.4312 78.1684 13.5274C78.7234 12.6236 79.4764 11.9101 80.4282 11.3869C81.3792 10.8477 82.4577 10.5781 83.6629 10.5781C84.8674 10.5781 85.9459 10.8398 86.8969 11.363C87.8487 11.8863 88.6017 12.6078 89.1567 13.5274C89.7117 14.4312 89.9892 15.4539 89.9892 16.5956C89.9892 17.7373 89.7117 18.7679 89.1567 19.6876C88.6017 20.6073 87.8487 21.3367 86.8969 21.8758C85.9459 22.399 84.8674 22.6606 83.6629 22.6606ZM83.6629 19.3546C84.1857 19.3546 84.6454 19.2436 85.0422 19.0216C85.4382 18.7838 85.7397 18.4587 85.9459 18.0465C86.1679 17.6184 86.2789 17.1347 86.2789 16.5956C86.2789 16.0565 86.1679 15.5887 85.9459 15.1923C85.7239 14.7801 85.4149 14.463 85.0182 14.241C84.6379 14.0031 84.1857 13.8842 83.6629 13.8842C83.1552 13.8842 82.7029 14.0031 82.3069 14.241C81.9102 14.463 81.6012 14.7801 81.3792 15.1923C81.1572 15.6046 81.0462 16.0803 81.0462 16.6194C81.0462 17.1427 81.1572 17.6184 81.3792 18.0465C81.6012 18.4587 81.9102 18.7838 82.3069 19.0216C82.7029 19.2436 83.1552 19.3546 83.6629 19.3546Z" fill="#007DFC"/>
<path fill-rule="evenodd" clip-rule="evenodd" d="M103.711 22.6365C102.935 22.6365 102.221 22.4859 101.571 22.1846C101.229 22.0261 100.92 21.8368 100.644 21.6167V27.2745H97.0518V10.8395H100.691V11.6372C100.955 11.4213 101.248 11.2346 101.571 11.0773C102.221 10.7601 102.935 10.6016 103.711 10.6016C104.805 10.6016 105.773 10.8632 106.613 11.3865C107.469 11.9097 108.135 12.6233 108.611 13.5271C109.103 14.4309 109.348 15.4616 109.348 16.619C109.348 17.7766 109.103 18.8072 108.611 19.7111C108.135 20.6149 107.469 21.3284 106.613 21.8516C105.773 22.3749 104.805 22.6365 103.711 22.6365ZM103.046 19.3543C103.569 19.3543 104.021 19.2353 104.401 18.9975C104.798 18.7597 105.107 18.4346 105.329 18.0224C105.551 17.6101 105.662 17.1423 105.662 16.619C105.662 16.0799 105.551 15.6043 105.329 15.192C105.107 14.7797 104.798 14.4626 104.401 14.2406C104.021 14.0027 103.577 13.8839 103.069 13.8839C102.562 13.8839 102.11 14.0027 101.714 14.2406C101.333 14.4626 101.032 14.7797 100.81 15.192C100.588 15.6043 100.477 16.0799 100.477 16.619C100.477 17.1423 100.58 17.6101 100.786 18.0224C101.008 18.4346 101.317 18.7597 101.714 18.9975C102.11 19.2353 102.554 19.3543 103.046 19.3543Z" fill="#007DFC"/>
<path d="M112.909 22.4228C113.575 22.5973 114.249 22.6844 114.93 22.6844C116.373 22.6844 117.515 22.3515 118.356 21.6855C119.211 21.0196 119.64 20.1237 119.64 18.9979C119.64 18.2685 119.505 17.6818 119.235 17.2379C118.966 16.778 118.617 16.4133 118.189 16.1438C117.761 15.8742 117.309 15.6601 116.833 15.5015C116.358 15.343 115.905 15.2082 115.478 15.0972C115.05 14.9862 114.701 14.8594 114.431 14.7167C114.162 14.5739 114.027 14.3837 114.027 14.1458C114.027 13.9238 114.13 13.7573 114.336 13.6463C114.542 13.5195 114.851 13.4561 115.263 13.4561C115.692 13.4561 116.127 13.5433 116.571 13.7177C117.031 13.8921 117.444 14.1935 117.808 14.6216L119.877 12.5285C119.355 11.8625 118.673 11.363 117.832 11.0301C117.008 10.6813 116.104 10.5068 115.121 10.5068C114.186 10.5068 113.369 10.6654 112.671 10.9825C111.973 11.2997 111.434 11.7357 111.054 12.2906C110.673 12.8297 110.483 13.472 110.483 14.2172C110.483 14.9149 110.618 15.4937 110.887 15.9535C111.156 16.3974 111.506 16.7463 111.933 17C112.362 17.2537 112.814 17.4519 113.289 17.5946C113.765 17.7373 114.217 17.8721 114.645 17.999C115.073 18.11 115.422 18.2447 115.692 18.4033C115.977 18.546 116.12 18.7601 116.12 19.0454C116.12 19.2674 116.001 19.4418 115.763 19.5687C115.541 19.6955 115.216 19.759 114.788 19.759C114.169 19.759 113.598 19.648 113.076 19.426C112.552 19.1882 112.1 18.8631 111.72 18.4508L109.65 20.5439C110.047 20.972 110.523 21.3526 111.078 21.6855C111.648 22.0026 112.259 22.2484 112.909 22.4228Z" fill="#007DFC"/>
<path d="M126.276 22.6607C125.214 22.6607 124.271 22.4466 123.446 22.0185C122.637 21.5745 122.003 20.972 121.544 20.2109C121.083 19.4339 120.854 18.546 120.854 17.547V10.8398H124.493V17.4995C124.493 17.8958 124.556 18.2368 124.683 18.5222C124.826 18.8076 125.032 19.0296 125.301 19.1882C125.571 19.3467 125.896 19.426 126.276 19.426C126.815 19.426 127.244 19.2595 127.561 18.9265C127.878 18.5777 128.036 18.102 128.036 17.4995V10.8398H131.675V17.5232C131.675 18.5381 131.446 19.4339 130.985 20.2109C130.526 20.972 129.892 21.5745 129.083 22.0185C128.274 22.4466 127.339 22.6607 126.276 22.6607Z" fill="#007DFC"/>
<path d="M137.123 10.8395H133.484V22.3987H137.123V15.6439C137.123 15.2475 137.203 14.9145 137.361 14.645C137.536 14.3754 137.766 14.1692 138.051 14.0266C138.337 13.868 138.662 13.7887 139.026 13.7887C139.55 13.7887 139.985 13.9552 140.334 14.2882C140.699 14.6053 140.882 15.0572 140.882 15.6439V22.3987H144.521V15.6439C144.521 15.2475 144.6 14.9145 144.758 14.645C144.933 14.3754 145.163 14.1692 145.448 14.0266C145.733 13.868 146.059 13.7887 146.423 13.7887C146.947 13.7887 147.383 13.9552 147.731 14.2882C148.096 14.6053 148.278 15.0572 148.278 15.6439V22.3987H151.918V15.2396C151.918 14.2724 151.712 13.4478 151.299 12.766C150.902 12.0683 150.356 11.5371 149.658 11.1725C148.976 10.7918 148.191 10.6016 147.303 10.6016C146.399 10.6016 145.583 10.7998 144.854 11.1962C144.38 11.4488 143.966 11.7747 143.611 12.174C143.28 11.7563 142.878 11.4146 142.403 11.1486C141.77 10.784 141.048 10.6016 140.24 10.6016C139.383 10.6016 138.614 10.784 137.933 11.1486C137.636 11.3003 137.366 11.4821 137.123 11.6938V10.8395Z" fill="#007DFC"/>
</g>
<defs>
<clipPath id="clip0_2525_22711">
<rect width="151.5" height="30" fill="white" transform="translate(0.75)"/>
</clipPath>
</defs>
</svg>
