<svg width="165" height="30" viewBox="0 0 165 30" fill="none" xmlns="http://www.w3.org/2000/svg">
<g clip-path="url(#clip0_2525_22751)">
<path d="M14.9996 30C23.2841 30 29.9996 23.2845 29.9996 15V4.5C29.9996 3.30653 29.5255 2.16193 28.6816 1.31802C27.8376 0.474106 26.6931 0 25.4996 0L15.7496 0V6.5805C15.7496 8.082 15.8411 9.6375 16.6286 10.9155C17.1923 11.8314 17.9465 12.6153 18.8399 13.2141C19.7334 13.8129 20.7451 14.2124 21.8066 14.3857L22.0938 14.4323C22.2123 14.4727 22.3151 14.5492 22.3878 14.651C22.4606 14.7528 22.4998 14.8749 22.4998 15C22.4998 15.1251 22.4606 15.2472 22.3878 15.349C22.3151 15.4508 22.2123 15.5273 22.0938 15.5677L21.8066 15.6143C20.2557 15.8676 18.8236 16.6017 17.7124 17.7128C16.6012 18.824 15.8672 20.2561 15.6138 21.807L15.5673 22.0942C15.5268 22.2127 15.4504 22.3155 15.3485 22.3883C15.2467 22.4611 15.1247 22.5002 14.9996 22.5002C14.8744 22.5002 14.7524 22.4611 14.6506 22.3883C14.5488 22.3155 14.4723 22.2127 14.4318 22.0942L14.3853 21.807C14.212 20.7456 13.8124 19.7338 13.2136 18.8404C12.6149 17.947 11.831 17.1928 10.9151 16.629C9.63708 15.8415 8.08158 15.75 6.58008 15.75H0.0175781C0.409828 23.6858 6.96708 30 14.9996 30Z" fill="#0E1534"/>
<path d="M0 14.25H6.5805C8.082 14.25 9.6375 14.1585 10.9155 13.371C11.9145 12.7555 12.7555 11.9145 13.371 10.9155C14.1585 9.6375 14.25 8.082 14.25 6.5805V0H4.5C3.30653 0 2.16193 0.474106 1.31802 1.31802C0.474106 2.16193 0 3.30653 0 4.5L0 14.25ZM34.8413 1.5C34.8413 1.89782 34.6832 2.27936 34.4019 2.56066C34.1206 2.84196 33.7391 3 33.3413 3C32.9434 3 32.5619 2.84196 32.2806 2.56066C31.9993 2.27936 31.8413 1.89782 31.8413 1.5C31.8413 1.10218 31.9993 0.720644 32.2806 0.43934C32.5619 0.158035 32.9434 0 33.3413 0C33.7391 0 34.1206 0.158035 34.4019 0.43934C34.6832 0.720644 34.8413 1.10218 34.8413 1.5ZM158.783 9.078C162.977 9.078 165 12.0068 165 15.399V21.7703H160.612V16.155C160.612 14.6175 160.051 13.3485 158.442 13.3485C156.833 13.3485 156.297 14.6175 156.297 16.155V21.7695H151.909V16.155C151.909 14.6175 151.372 13.3485 149.763 13.3485C148.154 13.3485 147.593 14.6175 147.593 16.155V21.7695H143.206V15.3983C143.206 12.006 145.229 9.07725 149.422 9.07725C151.714 9.07725 153.371 9.98025 154.127 11.469C154.931 9.98025 156.687 9.0765 158.783 9.0765V9.078ZM135.32 17.865C136.734 17.865 137.344 16.5713 137.344 15.033V9.5655H141.731V15.57C141.731 19.158 139.635 22.1362 135.32 22.1362C131.005 22.1362 128.909 19.1588 128.909 15.57V9.5655H133.297V15.033C133.297 16.5705 133.906 17.865 135.32 17.865ZM122.456 22.1603C119.701 22.1603 117.922 21.2085 116.873 19.3538L120.043 17.5718C120.482 18.3525 121.139 18.7432 122.236 18.7432C123.139 18.7432 123.553 18.426 123.553 18.0353C123.553 16.5465 117.117 18.06 117.117 13.3253C117.117 11.0303 119.067 9.1755 122.383 9.1755C125.284 9.1755 126.868 10.5907 127.576 11.958L124.406 13.764C124.138 13.032 123.309 12.5925 122.48 12.5925C121.847 12.5925 121.505 12.861 121.505 13.227C121.505 14.7405 127.941 13.3492 127.941 17.9377C127.941 20.5005 125.43 22.1603 122.456 22.1603ZM107.125 27.384H102.736V15.6435C102.736 11.9085 105.54 9.1995 109.441 9.1995C113.244 9.1995 116.145 12.1042 116.145 15.6435C116.145 19.5487 113.561 22.1362 109.685 22.1362C108.782 22.1362 107.881 21.8678 107.125 21.4523V27.384ZM109.441 18.0112C110.831 18.0112 111.757 16.9373 111.757 15.6675C111.757 14.3745 110.831 13.3245 109.441 13.3245C108.051 13.3245 107.125 14.3745 107.125 15.6683C107.125 16.9373 108.051 18.0112 109.441 18.0112ZM98.3408 8.2725C96.9023 8.2725 95.7083 7.07625 95.7083 5.63625C95.7083 4.19625 96.9023 3 98.3408 3C99.7793 3 100.974 4.19625 100.974 5.63625C100.974 7.07625 99.7793 8.2725 98.3408 8.2725ZM96.147 9.5655H100.535V21.7703H96.147V9.5655ZM87.7275 22.1362C83.9242 22.1362 81.0232 19.2075 81.0232 15.6435C81.0232 12.1042 83.9242 9.1755 87.7275 9.1755C91.5308 9.1755 94.4317 12.1042 94.4317 15.6435C94.4317 19.2075 91.5308 22.1362 87.7275 22.1362ZM87.7275 18.0112C89.1172 18.0112 90.0435 16.9373 90.0435 15.6675C90.0435 14.3745 89.1172 13.3005 87.7275 13.3005C86.3378 13.3005 85.4115 14.3745 85.4115 15.6675C85.4115 16.9373 86.3378 18.0112 87.7275 18.0112ZM72.7373 27.75C69.7148 27.75 67.5202 26.4075 66.399 24.015L70.0312 22.0627C70.4212 22.893 71.1525 23.7472 72.6637 23.7472C74.2493 23.7472 75.297 22.746 75.4193 20.9888C74.8343 21.5018 73.9072 21.8918 72.5182 21.8918C69.129 21.8918 66.3982 19.2803 66.3982 15.6188C66.3982 12.0803 69.3 9.1995 73.1032 9.1995C77.004 9.1995 79.8075 11.9093 79.8075 15.6435V20.4765C79.8075 24.87 76.7595 27.75 72.7373 27.75ZM73.0298 17.7675C74.346 17.7675 75.3457 16.8638 75.3457 15.5212C75.3457 14.2035 74.3467 13.3245 73.0298 13.3245C71.7375 13.3245 70.7138 14.2035 70.7138 15.522C70.7138 16.8645 71.7375 17.7668 73.0298 17.7668V17.7675ZM58.9553 22.1362C55.152 22.1362 52.2503 19.2075 52.2503 15.6435C52.2503 12.1042 55.152 9.1755 58.9553 9.1755C62.7578 9.1755 65.6595 12.1042 65.6595 15.6435C65.6595 19.2075 62.7585 22.1362 58.9553 22.1362ZM58.9553 18.0112C60.345 18.0112 61.2712 16.9373 61.2712 15.6675C61.2712 14.3745 60.345 13.3005 58.9553 13.3005C57.5655 13.3005 56.6392 14.3745 56.6392 15.6675C56.6392 16.9373 57.5655 18.0112 58.9553 18.0112ZM44.2598 5.295V17.6205H51.525V21.7703H43.65C40.8713 21.7703 39.75 20.3055 39.75 17.9865V5.295H44.2598Z" fill="#0E1534"/>
</g>
<defs>
<clipPath id="clip0_2525_22751">
<rect width="165" height="30" fill="white"/>
</clipPath>
</defs>
</svg>
