<svg width="154" height="27" viewBox="0 0 154 27" fill="none" xmlns="http://www.w3.org/2000/svg">
<g clip-path="url(#clip0_2525_22697)">
<path d="M23.1523 20.6943H31.1474L11.3419 0.888672H3.34668L23.1523 20.6943Z" fill="#7476ED"/>
<path d="M15.4492 0.888673L34.5414 19.9809V0.888672H29.3747V6.91644L23.3469 0.888672L15.4492 0.888673Z" fill="#E56F8C"/>
<path d="M0 1.55176V20.6942H5.16667V14.6664L11.1944 20.6942H19.1425L0 1.55176Z" fill="#64C2DB"/>
<path d="M47.0096 17.7165H51.6389V20.4445H43.4756V5.93652H47.0096V17.7165Z" fill="#3A3B7B"/>
<path d="M57.954 20.6098C56.8242 20.6098 55.8046 20.3687 54.8953 19.8864C53.9997 19.4042 53.2902 18.7153 52.7666 17.8198C52.2569 16.9242 52.002 15.8771 52.002 14.6784C52.002 13.4936 52.2637 12.4533 52.7873 11.5578C53.3109 10.6484 54.0273 9.95262 54.9366 9.4704C55.846 8.98818 56.8655 8.74707 57.9953 8.74707C59.1251 8.74707 60.1446 8.98818 61.054 9.4704C61.9633 9.95262 62.6797 10.6484 63.2033 11.5578C63.7269 12.4533 63.9886 13.4936 63.9886 14.6784C63.9886 15.8633 63.72 16.9104 63.1826 17.8198C62.6591 18.7153 61.9356 19.4042 61.0126 19.8864C60.1033 20.3687 59.0837 20.6098 57.954 20.6098ZM57.954 17.5511C58.6291 17.5511 59.2009 17.3031 59.6693 16.8071C60.1515 16.3111 60.3926 15.6016 60.3926 14.6784C60.3926 13.7553 60.1584 13.0458 59.69 12.5498C59.2353 12.0538 58.6704 11.8058 57.9953 11.8058C57.3064 11.8058 56.7346 12.0538 56.28 12.5498C55.8253 13.032 55.5979 13.7416 55.5979 14.6784C55.5979 15.6016 55.8184 16.3111 56.2593 16.8071C56.714 17.3031 57.2789 17.5511 57.954 17.5511Z" fill="#3A3B7B"/>
<path d="M69.625 8.74707C70.4379 8.74707 71.1475 8.9124 71.7537 9.24307C72.3737 9.57374 72.849 10.0078 73.1797 10.5451V8.9124H76.7137V20.4238C76.7137 21.4847 76.5001 22.4422 76.073 23.2964C75.6597 24.1644 75.019 24.8533 74.151 25.3631C73.2968 25.8729 72.229 26.1278 70.9477 26.1278C69.2392 26.1278 67.8546 25.7213 66.7937 24.9084C65.7328 24.1093 65.1266 23.0209 64.975 21.6431H68.4677C68.5779 22.084 68.8397 22.4284 69.253 22.6764C69.6664 22.9382 70.1761 23.0691 70.7824 23.0691C71.5126 23.0691 72.0912 22.8556 72.5184 22.4284C72.9592 22.0151 73.1797 21.3469 73.1797 20.4238V18.7911C72.8352 19.3284 72.3599 19.7693 71.7537 20.1138C71.1475 20.4444 70.4379 20.6098 69.625 20.6098C68.6744 20.6098 67.8132 20.3687 67.0417 19.8864C66.2701 19.3904 65.657 18.6947 65.2024 17.7991C64.7615 16.8898 64.541 15.8427 64.541 14.6578C64.541 13.4729 64.7615 12.4327 65.2024 11.5371C65.657 10.6416 66.2701 9.95262 67.0417 9.4704C67.8132 8.98818 68.6744 8.74707 69.625 8.74707ZM73.1797 14.6784C73.1797 13.7967 72.9317 13.1009 72.4357 12.5911C71.9535 12.0813 71.361 11.8264 70.6584 11.8264C69.9557 11.8264 69.3564 12.0813 68.8604 12.5911C68.3781 13.0871 68.137 13.776 68.137 14.6578C68.137 15.5396 68.3781 16.2422 68.8604 16.7658C69.3564 17.2756 69.9557 17.5304 70.6584 17.5304C71.361 17.5304 71.9535 17.2756 72.4357 16.7658C72.9317 16.256 73.1797 15.5602 73.1797 14.6784Z" fill="#3A3B7B"/>
<path d="M83.8993 20.6098C82.7695 20.6098 81.75 20.3687 80.8406 19.8864C79.9451 19.4042 79.2355 18.7153 78.712 17.8198C78.2022 16.9242 77.9473 15.8771 77.9473 14.6784C77.9473 13.4936 78.2091 12.4533 78.7326 11.5578C79.2562 10.6484 79.9726 9.95262 80.882 9.4704C81.7913 8.98818 82.8109 8.74707 83.9406 8.74707C85.0704 8.74707 86.09 8.98818 86.9993 9.4704C87.9086 9.95262 88.6251 10.6484 89.1486 11.5578C89.6722 12.4533 89.934 13.4936 89.934 14.6784C89.934 15.8633 89.6653 16.9104 89.128 17.8198C88.6044 18.7153 87.8811 19.4042 86.958 19.8864C86.0486 20.3687 85.0291 20.6098 83.8993 20.6098ZM83.8993 17.5511C84.5744 17.5511 85.1462 17.3031 85.6146 16.8071C86.0969 16.3111 86.338 15.6016 86.338 14.6784C86.338 13.7553 86.1038 13.0458 85.6353 12.5498C85.1806 12.0538 84.6158 11.8058 83.9406 11.8058C83.2518 11.8058 82.68 12.0538 82.2253 12.5498C81.7706 13.032 81.5433 13.7416 81.5433 14.6784C81.5433 15.6016 81.7638 16.3111 82.2046 16.8071C82.6593 17.3031 83.2242 17.5511 83.8993 17.5511Z" fill="#3A3B7B"/>
<path d="M92.9664 7.71396C92.3464 7.71396 91.8366 7.53484 91.437 7.17662C91.0513 6.80462 90.8584 6.34996 90.8584 5.81262C90.8584 5.26151 91.0513 4.80685 91.437 4.44863C91.8366 4.07663 92.3464 3.89062 92.9664 3.89062C93.5726 3.89062 94.0686 4.07663 94.4544 4.44863C94.8539 4.80685 95.0537 5.26151 95.0537 5.81262C95.0537 6.34996 94.8539 6.80462 94.4544 7.17662C94.0686 7.53484 93.5726 7.71396 92.9664 7.71396ZM94.723 8.91263V20.4446H91.189V8.91263H94.723Z" fill="#3A3B7B"/>
<path d="M100.198 10.5451C100.543 10.0078 101.018 9.57374 101.624 9.24307C102.23 8.9124 102.94 8.74707 103.753 8.74707C104.704 8.74707 105.565 8.98818 106.336 9.4704C107.108 9.95262 107.714 10.6416 108.155 11.5371C108.61 12.4327 108.837 13.4729 108.837 14.6578C108.837 15.8427 108.61 16.8898 108.155 17.7991C107.714 18.6947 107.108 19.3904 106.336 19.8864C105.565 20.3687 104.704 20.6098 103.753 20.6098C102.954 20.6098 102.244 20.4444 101.624 20.1138C101.018 19.7831 100.543 19.356 100.198 18.8324V25.9418H96.6641V8.9124H100.198V10.5451ZM105.241 14.6578C105.241 13.776 104.993 13.0871 104.497 12.5911C104.015 12.0813 103.415 11.8264 102.699 11.8264C101.996 11.8264 101.397 12.0813 100.901 12.5911C100.419 13.1009 100.178 13.7967 100.178 14.6784C100.178 15.5602 100.419 16.256 100.901 16.7658C101.397 17.2756 101.996 17.5304 102.699 17.5304C103.402 17.5304 104.001 17.2756 104.497 16.7658C104.993 16.2422 105.241 15.5396 105.241 14.6578Z" fill="#3A3B7B"/>
<path d="M114.762 20.6098C113.756 20.6098 112.861 20.4376 112.076 20.0931C111.29 19.7487 110.67 19.2802 110.216 18.6878C109.761 18.0816 109.506 17.4064 109.451 16.6624H112.944C112.985 17.062 113.171 17.3858 113.502 17.6338C113.832 17.8818 114.239 18.0058 114.721 18.0058C115.162 18.0058 115.499 17.9231 115.734 17.7578C115.982 17.5787 116.106 17.3513 116.106 17.0758C116.106 16.7451 115.933 16.504 115.589 16.3524C115.244 16.1871 114.686 16.008 113.915 15.8151C113.088 15.6222 112.399 15.4224 111.848 15.2158C111.297 14.9953 110.822 14.6578 110.422 14.2031C110.023 13.7347 109.823 13.1078 109.823 12.3224C109.823 11.6611 110.002 11.0618 110.36 10.5244C110.732 9.97329 111.27 9.53929 111.972 9.2224C112.689 8.90551 113.536 8.74707 114.514 8.74707C115.961 8.74707 117.098 9.10529 117.924 9.82174C118.765 10.5382 119.247 11.4889 119.371 12.6738H116.106C116.05 12.2742 115.871 11.9573 115.568 11.7231C115.279 11.4889 114.893 11.3718 114.411 11.3718C113.998 11.3718 113.681 11.4544 113.46 11.6198C113.24 11.7713 113.13 11.9849 113.13 12.2604C113.13 12.5911 113.302 12.8391 113.646 13.0044C114.004 13.1698 114.556 13.3351 115.3 13.5004C116.154 13.7209 116.85 13.9413 117.387 14.1618C117.924 14.3684 118.393 14.7129 118.792 15.1951C119.206 15.6636 119.419 16.2973 119.433 17.0964C119.433 17.7716 119.24 18.3778 118.854 18.9151C118.482 19.4387 117.938 19.852 117.222 20.1551C116.519 20.4582 115.699 20.6098 114.762 20.6098Z" fill="#3A3B7B"/>
<path d="M132.362 8.91211V20.4441H128.828V18.8735C128.47 19.3833 127.981 19.7966 127.361 20.1135C126.755 20.4166 126.08 20.5681 125.336 20.5681C124.454 20.5681 123.675 20.3753 123 19.9895C122.325 19.5899 121.802 19.0181 121.43 18.2741C121.058 17.5301 120.872 16.6553 120.872 15.6495V8.91211H124.385V15.1741C124.385 15.9457 124.585 16.545 124.984 16.9721C125.384 17.3993 125.921 17.6128 126.596 17.6128C127.285 17.6128 127.829 17.3993 128.229 16.9721C128.629 16.545 128.828 15.9457 128.828 15.1741V8.91211H132.362Z" fill="#3A3B7B"/>
<path d="M148.995 8.78809C150.428 8.78809 151.565 9.22209 152.405 10.09C153.26 10.958 153.687 12.1636 153.687 13.7067V20.444H150.173V14.182C150.173 13.438 149.974 12.8663 149.574 12.4667C149.188 12.0534 148.651 11.8467 147.962 11.8467C147.273 11.8467 146.729 12.0534 146.329 12.4667C145.944 12.8663 145.751 13.438 145.751 14.182V20.444H142.237V14.182C142.237 13.438 142.038 12.8663 141.638 12.4667C141.252 12.0534 140.715 11.8467 140.026 11.8467C139.337 11.8467 138.793 12.0534 138.393 12.4667C138.008 12.8663 137.815 13.438 137.815 14.182V20.444H134.281V8.91209H137.815V10.3587C138.173 9.87654 138.641 9.49765 139.22 9.22209C139.799 8.93276 140.453 8.78809 141.183 8.78809C142.051 8.78809 142.823 8.97409 143.498 9.34609C144.187 9.71809 144.724 10.2485 145.11 10.9374C145.51 10.3036 146.054 9.78698 146.743 9.38743C147.432 8.98787 148.183 8.78809 148.995 8.78809Z" fill="#3A3B7B"/>
</g>
<defs>
<clipPath id="clip0_2525_22697">
<rect width="154" height="27" fill="white"/>
</clipPath>
</defs>
</svg>
