<svg width="17" height="17" viewBox="0 0 17 17" fill="none" xmlns="http://www.w3.org/2000/svg">
<path d="M6.25 5.18604H4.4375V6.99854C4.4375 7.06729 4.38125 7.12354 4.3125 7.12354H3.5625C3.49375 7.12354 3.4375 7.06729 3.4375 6.99854V5.18604H1.625C1.55625 5.18604 1.5 5.12979 1.5 5.06104V4.31104C1.5 4.24229 1.55625 4.18604 1.625 4.18604H3.4375V2.37354C3.4375 2.30479 3.49375 2.24854 3.5625 2.24854H4.3125C4.38125 2.24854 4.4375 2.30479 4.4375 2.37354V4.18604H6.25C6.31875 4.18604 6.375 4.24229 6.375 4.31104V5.06104C6.375 5.12979 6.31875 5.18604 6.25 5.18604Z" fill="#585858"/>
<path d="M14.75 11.7751L12.75 10.6235V12.9985C12.75 13.5501 12.3016 13.9985 11.75 13.9985H2.5C1.94844 13.9985 1.5 13.5501 1.5 12.9985V7.49854H2.625V12.8735H11.625V4.12354H7.5V2.99854H11.75C12.3016 2.99854 12.75 3.44697 12.75 3.99854V6.37354L14.75 5.22197C15.0828 5.02979 15.5 5.27041 15.5 5.65322V11.3423C15.5 11.7267 15.0828 11.9673 14.75 11.7751ZM14.375 6.73291L12.75 7.66728V9.32822L14.375 10.2642V6.73291Z" fill="#585858"/>
<path d="M5.5 10.8735C5.56875 10.8735 5.625 10.9298 5.625 10.9985V11.7485C5.625 11.8173 5.56875 11.8735 5.5 11.8735H3.75C3.68125 11.8735 3.625 11.8173 3.625 11.7485V10.9985C3.625 10.9298 3.68125 10.8735 3.75 10.8735H5.5Z" fill="#585858"/>
</svg>
