<svg width="66" height="66" viewBox="0 0 66 66" fill="none" xmlns="http://www.w3.org/2000/svg">
<path d="M32.2451 65.5005C31.2107 65.3479 30.1593 65.2291 29.1249 65.0087C21.9686 63.5842 16.3555 59.8195 12.3025 53.7655C9.16529 49.0851 7.7917 43.879 8.02911 38.2659C8.50393 26.4971 17.356 16.2036 28.9044 13.9821C42.5217 11.3536 55.715 19.6291 59.1744 32.9581C63.0069 47.7285 53.3409 62.5837 38.2313 65.1274C37.3834 65.2631 36.5185 65.3648 35.6706 65.4835C34.5345 65.5005 33.3813 65.5005 32.2451 65.5005ZM56.2068 39.453C56.1559 27.2093 46.1337 17.2211 33.9579 17.2889C21.6803 17.3567 11.7599 27.328 11.8107 39.5547C11.8616 51.7645 21.816 61.7019 34.0257 61.6849C46.2524 61.668 56.2407 51.6627 56.2068 39.453Z" fill="#0E82FD"/>
<path d="M0.5 11.4222C0.92395 10.2861 1.75489 9.84515 2.92499 9.91298C3.46765 9.94689 4.02727 9.89602 4.56992 9.92994C5.70611 9.96385 6.52009 10.7778 6.52009 11.8462C6.52009 12.9145 5.70611 13.7116 4.55296 13.7285C4.02727 13.7455 3.50157 13.6946 2.97587 13.7455C1.80577 13.8303 0.974824 13.3894 0.5 12.3041C0.5 12.0158 0.5 11.7105 0.5 11.4222Z" fill="#0E82FD"/>
<path d="M62.2273 11.1837C61.7694 11.1837 61.2946 11.2007 60.8367 11.1837C59.7684 11.1498 58.9713 10.4037 58.9205 9.36923C58.8696 8.40262 59.5988 7.48689 60.6163 7.41906C61.6846 7.33427 62.7699 7.33427 63.8383 7.41906C64.8558 7.50385 65.551 8.41958 65.5002 9.40315C65.4323 10.4037 64.6692 11.1498 63.6178 11.1837C63.16 11.2007 62.7021 11.1837 62.2273 11.1837Z" fill="#0E82FD"/>
<path d="M58.5303 3.77339C58.5303 4.23126 58.5472 4.70608 58.5303 5.16395C58.4963 6.2323 57.7502 7.02933 56.7158 7.0802C55.7322 7.13108 54.7995 6.36797 54.7486 5.33353C54.6808 4.29909 54.6808 3.26465 54.7486 2.23022C54.8165 1.19578 55.7322 0.449625 56.7327 0.500499C57.7332 0.551373 58.4794 1.3484 58.5133 2.36588C58.5472 2.8407 58.5303 3.29857 58.5303 3.77339Z" fill="#0E82FD"/>
<path d="M51.0517 11.1841C50.6108 11.1841 50.1699 11.201 49.729 11.1841C48.6606 11.1502 47.8636 10.421 47.7958 9.38652C47.7279 8.386 48.4741 7.47027 49.5255 7.40244C50.5599 7.3346 51.5944 7.3346 52.6288 7.40244C53.6972 7.47027 54.4094 8.33513 54.3585 9.36956C54.3246 10.387 53.5276 11.1502 52.4592 11.1671C51.9844 11.201 51.5265 11.1841 51.0517 11.1841Z" fill="#0E82FD"/>
<path d="M58.5301 14.8138C58.5301 15.2547 58.5471 15.6956 58.5301 16.1365C58.4962 17.2388 57.7161 18.0358 56.6647 18.0697C55.6473 18.0867 54.7824 17.3236 54.7315 16.2722C54.6806 15.2886 54.6806 14.2881 54.7315 13.3045C54.7824 12.2192 55.6642 11.4731 56.7156 11.5239C57.7331 11.5579 58.4792 12.3549 58.5131 13.4402C58.5471 13.8981 58.5301 14.3559 58.5301 14.8138Z" fill="#0E82FD"/>
<path d="M6.70676 16.8471C6.70676 16.491 6.70676 16.1349 6.70676 15.7618C6.74067 14.6934 7.48682 13.8964 8.5043 13.8286C9.48787 13.7777 10.4036 14.5408 10.4884 15.5922C10.5562 16.4401 10.5562 17.288 10.4884 18.1189C10.4036 19.1703 9.50482 19.9165 8.5043 19.8656C7.48682 19.7978 6.74067 19.0008 6.70676 17.9324C6.6898 17.5763 6.70676 17.2032 6.70676 16.8471Z" fill="#0E82FD"/>
<path d="M10.5052 6.80865C10.5052 7.21565 10.5391 7.62264 10.5052 8.01267C10.4034 9.11494 9.57247 9.84414 8.50411 9.81022C7.48663 9.75935 6.72352 8.96232 6.70657 7.89397C6.68961 7.18173 6.68961 6.45254 6.70657 5.7403C6.72352 4.65499 7.48663 3.85796 8.50411 3.80709C9.53855 3.75621 10.4034 4.51932 10.5052 5.60464C10.5221 5.99467 10.5052 6.40166 10.5052 6.80865Z" fill="#0E82FD"/>
<path d="M13.6425 13.7274C13.2863 13.7274 12.9302 13.7443 12.5571 13.7274C11.4888 13.6935 10.6918 12.9303 10.6578 11.8959C10.6239 10.8954 11.3701 10.0136 12.4215 9.92878C13.2355 9.87791 14.0664 9.87791 14.8973 9.92878C15.9657 9.99661 16.6949 10.8615 16.661 11.879C16.6271 12.8964 15.847 13.6765 14.7786 13.7104C14.4056 13.7274 14.0155 13.7274 13.6425 13.7274Z" fill="#0E82FD"/>
<path d="M33.8904 52.3418C29.4474 52.24 25.6318 50.5612 22.5964 47.1865C21.7654 46.2708 21.7654 45.1177 22.5964 44.3715C23.4103 43.6423 24.5635 43.761 25.4114 44.6428C30.3292 49.849 37.689 49.849 42.6068 44.6089C43.4038 43.7441 44.5739 43.6423 45.3709 44.3546C46.1849 45.0838 46.2188 46.2878 45.4049 47.1865C42.3524 50.5612 38.5199 52.257 33.8904 52.3418Z" fill="#0E82FD"/>
<path d="M41.6064 29.6856C44.2179 29.7026 46.4055 31.8223 46.4733 34.4C46.5072 35.5531 45.795 36.401 44.7097 36.4858C43.6583 36.5706 42.8443 35.7905 42.6408 34.6713C42.573 34.2982 42.3525 33.8573 42.0473 33.6538C41.3859 33.1959 40.5719 33.6877 40.4702 34.5526C40.3684 35.4514 39.9784 36.1297 39.0796 36.401C37.8756 36.7741 36.6886 35.8923 36.6546 34.6204C36.5699 31.9411 38.8422 29.6687 41.6064 29.6856Z" fill="#0E82FD"/>
<path d="M21.5449 34.3989C21.6297 31.8382 23.7325 29.7354 26.2592 29.6846C28.9216 29.6337 31.1262 31.5839 31.3297 34.1784C31.4314 35.4503 30.7361 36.366 29.6 36.4847C28.5146 36.5865 27.6837 35.8234 27.5311 34.5685C27.4463 33.9071 27.0223 33.5001 26.4119 33.5001C25.8014 33.5001 25.3774 33.8732 25.3435 34.5854C25.2417 36.2134 23.5459 36.9765 22.3589 36.1456C21.7484 35.7216 21.494 35.1281 21.5449 34.3989Z" fill="#0E82FD"/>
</svg>
