<svg width="35" height="39" viewBox="0 0 35 39" fill="none" xmlns="http://www.w3.org/2000/svg">
<path d="M16.4198 4.73938C16.1455 4.42216 15.9185 4.143 15.6726 3.8797C15.0073 3.1818 14.2632 2.64251 13.2291 2.73768C13.0809 2.75037 12.917 2.75037 12.7877 2.81698C12.1855 3.12152 11.6621 2.90264 11.1482 2.60127C10.4672 2.20156 10.2591 2.27135 9.89968 2.99463C9.47089 3.85115 8.8277 4.51733 8.00165 5.07882C7.7305 4.43802 7.7305 3.80356 7.85347 3.17228C8.16245 1.60517 9.40783 0.387018 10.9748 0.0761347C11.0599 0.0602733 11.1388 0.0253782 11.2207 0H12.2801C13.4214 0.295022 14.5375 0.710591 15.7419 0.685212C16.1676 0.675695 16.218 0.780381 16.0194 1.16105C15.8018 1.57662 15.7483 1.9573 15.9973 2.40776C16.3788 3.10566 16.5207 3.87335 16.4198 4.73938Z" fill="#0E82FD"/>
<path d="M24.3749 17.4168C23.7286 23.3933 18.9425 27.8631 13.2705 28.3262C6.85444 28.8465 1.62698 24.5005 0.337459 18.9236C-1.1034 12.7123 2.26701 7.21472 6.94272 4.9973C7.01839 5.41287 7.15711 5.78403 7.1445 6.15201C7.09406 7.60491 7.4188 8.92141 8.47817 10.0666C8.22278 10.13 8.02731 10.1871 7.82868 10.2252C5.14874 10.7677 3.62905 12.8233 3.39889 14.8567C3.2917 15.8084 3.33584 16.7823 3.35475 17.7435C3.36421 18.2352 3.80877 18.6603 4.30377 18.746C4.47402 18.7745 4.65374 18.7777 4.8303 18.7777H19.6236C20.6924 18.7777 21.1464 18.3367 21.1243 17.2518C21.1054 16.3287 21.1495 15.3833 20.973 14.4888C20.5852 12.541 19.3902 11.215 17.549 10.5044C17.0603 10.3172 16.5432 10.2094 16.0198 10.0603C16.0577 10.0063 16.1081 9.92068 16.168 9.84772C16.8995 8.96582 17.2494 7.94752 17.2715 6.80233C17.2873 6.19959 17.3251 5.59686 17.3566 4.96875C20.9761 6.44703 25.0623 11.0817 24.3749 17.4168Z" fill="#0E82FD"/>
<path d="M34.6944 34.7019C33.367 36.0438 32.0397 37.3793 30.7092 38.7117C30.3182 39.1019 29.9966 39.0987 29.5994 38.699C26.8059 35.8915 24.0156 33.084 21.2253 30.2766C20.806 29.8515 20.8123 29.5311 21.238 29.106C21.3357 29.0108 21.4618 28.9442 21.6478 28.811C20.9731 28.1511 20.3961 27.5865 19.7939 26.9996C21.0582 26.0638 22.1807 25.0169 23.0509 23.6973C23.6373 24.3 24.2143 24.89 24.807 25.4959C24.9804 25.331 25.0876 25.2263 25.1917 25.1248C25.6047 24.7219 25.92 24.7219 26.3298 25.1343C28.2815 27.098 30.2362 29.0616 32.1879 31.0284C33.0171 31.8627 33.8463 32.6938 34.6755 33.5313C35.1011 33.9628 35.1106 34.28 34.6944 34.7019Z" fill="#0E82FD"/>
<path d="M20.1307 17.4501C20.137 17.6721 20.0298 17.7768 19.806 17.7641C19.7209 17.7578 19.6294 17.7641 19.5411 17.7641H4.93705C4.32855 17.7641 4.31909 17.7641 4.3317 17.1328C4.34746 16.3493 4.28756 15.5467 4.42629 14.7822C4.74157 13.0691 5.79463 11.9462 7.43097 11.3751C7.5224 11.3434 7.62329 11.3403 7.77148 11.3149C7.77148 12.0191 7.77779 12.7012 7.76202 13.3832C7.76202 13.4593 7.64852 13.5672 7.56339 13.6053C7.09046 13.8083 6.87291 14.1731 6.86661 14.6775C6.86661 15.0455 6.85399 15.4166 6.87606 15.7814C6.88237 15.8956 6.98011 16.0923 7.05263 16.1018C7.26702 16.1241 7.48772 16.0733 7.70842 16.0511C7.6832 15.9464 7.68951 15.8068 7.62329 15.7466C7.55078 15.6831 7.41521 15.6958 7.28279 15.6736C7.28279 15.3088 7.27333 14.9567 7.28594 14.6014C7.29855 14.2112 7.58546 13.9447 7.97011 13.9384C8.35476 13.932 8.6732 14.1794 8.70158 14.5601C8.7268 14.9249 8.70788 15.2929 8.70788 15.5404C8.49033 15.7212 8.3453 15.8417 8.20342 15.9591C8.39259 16.0162 8.58177 16.0955 8.77725 16.1241C9.01056 16.1621 9.12091 16.0384 9.11145 15.791C9.10199 15.4991 9.09253 15.2073 9.1146 14.9154C9.16505 14.2207 8.91282 13.729 8.21603 13.5323V11.2038C8.38629 11.1943 8.54393 11.1848 8.60384 11.1816C8.84661 11.5687 9.03263 11.9144 9.26279 12.2285C9.63167 12.7265 10.0226 13.2119 10.4136 13.6909C10.7636 14.1192 11.1072 14.1382 11.5013 13.7448C11.6905 13.5609 11.8387 13.3324 12.0909 13.0184C12.3684 13.3578 12.5418 13.6148 12.7593 13.8241C13.0683 14.1223 13.4088 14.097 13.68 13.767C14.2128 13.1199 14.7362 12.4728 15.2438 11.8066C15.3636 11.648 15.3951 11.4227 15.4802 11.1943H16.1739V11.9906C16.1739 12.7265 16.1676 13.4657 16.177 14.2017C16.1802 14.4015 16.1266 14.5094 15.9343 14.6045C15.4235 14.8615 15.1933 15.3913 15.3289 15.9083C15.4645 16.4286 15.9469 16.7807 16.486 16.7585C16.9999 16.7363 17.4256 16.3588 17.5359 15.8259C17.6463 15.3119 17.3625 14.8076 16.8517 14.5569C16.7477 14.5062 16.6027 14.3888 16.5995 14.3C16.5837 13.3007 16.5901 12.3015 16.5901 11.2958C18.2831 11.5401 19.8659 13.177 20.0614 14.9408C20.1496 15.7688 20.1118 16.6126 20.1307 17.4501Z" fill="#0E82FD"/>
<path d="M16.3126 6.2716C16.2716 5.92265 16.3221 5.52612 16.1676 5.23744C15.7892 4.51416 15.2469 3.90825 14.5344 3.48C13.9669 3.13739 13.3584 2.98195 12.7372 3.27697C12.3526 3.45779 12.0058 3.42924 11.6495 3.28331C11.3594 3.16277 11.0757 3.02319 10.8014 2.86775C10.5964 2.75037 10.4577 2.75672 10.3505 2.99146C9.91227 3.94632 9.24386 4.70767 8.39574 5.31674C8.30431 5.38019 8.19711 5.51025 8.20026 5.60542C8.22233 6.32553 8.16243 7.07419 8.33268 7.7594C8.94434 10.2052 11.8954 11.3948 14.1907 10.1513C15.7167 9.32651 16.363 7.99415 16.3126 6.2716ZM9.91542 6.24305C9.84291 6.29698 9.69788 6.24939 9.58437 6.24939C9.6159 6.13837 9.61275 5.97023 9.68526 5.92899C9.95956 5.76404 10.2559 5.64032 10.5807 5.4817C10.8991 5.64032 11.1955 5.76721 11.4666 5.93534C11.536 5.97658 11.5297 6.14154 11.5581 6.25257C11.4477 6.25574 11.2995 6.3065 11.2333 6.25257C10.7888 5.90679 10.3631 5.91313 9.91542 6.24305ZM13.4529 8.29869C13.0651 8.46365 12.6647 8.59688 12.2359 8.7555C11.804 8.60005 11.391 8.46365 10.9906 8.29869C10.9212 8.27014 10.9023 8.12104 10.8581 8.02904C10.9685 8.00366 11.1104 7.91801 11.1829 7.95925C11.886 8.34627 12.5733 8.34627 13.2701 7.95608C13.3363 7.91801 13.4624 7.99415 13.5601 8.01953C13.5255 8.1147 13.516 8.27331 13.4529 8.29869ZM14.5375 6.25257C14.1024 5.91631 13.6768 5.90679 13.2259 6.22719C13.1471 6.28429 12.9926 6.23671 12.876 6.23988C12.917 6.1225 12.9264 5.9512 13.0084 5.90044C13.2701 5.745 13.557 5.63397 13.8849 5.4817C14.2002 5.64349 14.5028 5.7799 14.7803 5.9512C14.8402 5.98927 14.8181 6.16374 14.8339 6.27477C14.733 6.26843 14.6037 6.30332 14.5375 6.25257Z" fill="#0E82FD"/>
<path d="M14.6449 11.9023C14.2508 12.394 13.8567 12.8857 13.472 13.387C13.2954 13.6185 13.1441 13.6661 12.936 13.4218C12.7059 13.1585 12.4536 12.9111 12.1982 12.6415C12.9108 12.0578 13.7999 11.7469 14.3958 10.9887C14.4021 10.9855 14.4116 10.9855 14.421 10.9887C15.1273 11.2932 15.1273 11.2932 14.6449 11.9023Z" fill="#0E82FD"/>
<path d="M13.9331 10.7119C13.8637 10.8451 13.8259 11.0228 13.7156 11.1084C13.2458 11.47 12.7665 11.8222 12.2684 12.1426C12.158 12.2155 11.9184 12.2155 11.8049 12.1426C11.3099 11.819 10.8307 11.4669 10.3641 11.1021C10.2537 11.0196 10.2159 10.8419 10.1875 10.6611C11.436 11.1941 12.6436 11.1909 13.8511 10.623C13.8795 10.6516 13.9079 10.6833 13.9331 10.7119Z" fill="#0E82FD"/>
<path d="M11.915 12.7746C11.6533 13.0283 11.4042 13.2599 11.1646 13.501C11.0258 13.6406 10.906 13.6279 10.7862 13.4788C10.2786 12.8507 9.77101 12.2194 9.2697 11.5881C9.11206 11.3883 9.1625 11.236 9.39582 11.1472C9.49986 11.1091 9.61336 11.0837 9.64174 11.0742C10.4173 11.6547 11.1488 12.2004 11.915 12.7746Z" fill="#0E82FD"/>
<path d="M17.1388 15.6735C17.1104 16.0669 16.7636 16.3524 16.3538 16.3175C15.966 16.2858 15.6727 15.9495 15.7011 15.572C15.7295 15.1723 16.0668 14.8805 16.4736 14.9058C16.874 14.9312 17.164 15.2675 17.1388 15.6735Z" fill="#0E82FD"/>
</svg>
