<svg width="42" height="43" viewBox="0 0 42 43" fill="none" xmlns="http://www.w3.org/2000/svg">
<g clip-path="url(#clip0_2525_22421)">
<path d="M7.21875 4.10938V7.71875H3.60937H0V25.1094V42.5H16.6934H33.3867V39.0137C33.3867 37.0941 33.3621 35.5273 33.3293 35.5273C33.2883 35.5273 32.3777 36.4133 31.2949 37.4879L29.3262 39.4566L26.4961 40.277C24.9375 40.7281 23.4937 41.1547 23.2887 41.2121L22.9031 41.327L23.059 40.7855C23.141 40.4902 23.5594 39.0301 23.9859 37.5453L24.7488 34.8547L29.0719 30.5316L33.3867 26.2168V13.3543V0.5H20.3027H7.21875V4.10938ZM28.875 2.05859C29.8594 2.24727 30.893 2.99375 31.3605 3.84688C31.8035 4.65899 31.8281 4.92969 31.8281 8.45703C31.8281 11.1066 31.8035 11.7957 31.7051 12.1895C31.3605 13.4938 30.3844 14.4781 29.0801 14.8227C28.752 14.9129 27.0293 14.9375 20.3027 14.9375C11.3367 14.9375 11.4762 14.9457 10.6723 14.5355C9.73711 14.0598 8.9332 12.9031 8.77734 11.8203C8.6707 11.1066 8.67891 5.85664 8.77734 5.13477C8.99883 3.6418 10.0652 2.46055 11.5254 2.09141C12.0504 1.96016 28.1941 1.92735 28.875 2.05859ZM14.1832 16.9063C14.1832 16.9309 13.4613 17.7594 12.559 18.7438L10.9266 20.5402L11.1152 20.9586C11.5418 21.943 11.6484 23.2965 11.3695 24.248C10.7297 26.3973 8.67891 27.9805 6.52148 27.9805C5.10234 27.9805 3.51094 27.2094 2.6168 26.0773C1.94414 25.2324 1.47656 23.9445 1.47656 22.9355C1.47656 21.5 2.31328 19.843 3.46172 18.9898C4.80703 17.9891 6.39844 17.6855 7.875 18.1285C8.6543 18.3664 8.96601 18.5305 9.61406 19.0227L10.1391 19.4246L11.6895 17.7184L13.2398 16.0039L13.7074 16.4387C13.9617 16.6684 14.175 16.8816 14.1832 16.9063ZM31.8281 20.0645V20.7617H23.1738H14.5195V20.0645V19.3672H23.1738H31.8281V20.0645ZM28.957 22.9355V23.6328H21.7383H14.5195V22.9355V22.2383H21.7383H28.957V22.9355ZM31.8281 22.9355V23.6328H31.1309H30.4336V22.9355V22.2383H31.1309H31.8281V22.9355ZM31.8281 25.8477V26.5039H23.1738H14.5195V25.8477V25.1914H23.1738H31.8281V25.8477ZM14.1668 29.9492C14.175 29.9738 13.4531 30.8023 12.5508 31.7867L10.9184 33.5832L11.0742 33.8867C11.5336 34.7891 11.6566 36.4133 11.3449 37.3895C10.9102 38.7266 9.95859 39.8504 8.76914 40.441C7.22695 41.2039 5.81602 41.1957 4.27383 40.441C2.64141 39.6371 1.47656 37.7832 1.47656 35.9785C1.47656 34.7809 2.06719 33.3863 2.94492 32.4922C3.9457 31.4832 5.07773 30.9992 6.48047 30.991C7.73555 30.9828 8.49844 31.2371 9.58125 32.0328C9.86016 32.2379 10.1145 32.4102 10.1555 32.402C10.1883 32.402 10.8937 31.6473 11.7223 30.7203L13.2316 29.0469L13.691 29.4816C13.9453 29.7113 14.1586 29.9246 14.1668 29.9492ZM22.3945 33.1074V33.8047H18.457H14.5195V33.1074V32.4102H18.457H22.3945V33.1074ZM22.3945 35.9785V36.6758H18.457H14.5195V35.9785V35.2813H18.457H22.3945V35.9785ZM22.3945 38.8906V39.5469H18.457H14.5195V38.8906V38.2344H18.457H22.3945V38.8906Z" fill="#1F2937"/>
<path d="M11.5414 3.48594C10.9015 3.71563 10.4011 4.24063 10.2043 4.90508C10.032 5.4793 10.0402 11.4594 10.2125 12.0418C10.3765 12.5832 10.8687 13.141 11.3937 13.3707L11.8039 13.543L20.3597 13.5266C29.9246 13.502 29.1699 13.5512 29.8015 12.9113C30.4004 12.3125 30.3922 12.4191 30.4168 8.58008C30.4332 5.52031 30.425 5.09375 30.3019 4.77383C30.1133 4.28164 29.6539 3.79766 29.1617 3.56797L28.7515 3.37109L20.3023 3.3793C13.4609 3.3793 11.7957 3.3957 11.5414 3.48594ZM15.9136 8.45703V10.5898H13.7808H11.648V8.45703V6.32422H13.7808H15.9136V8.45703ZM22.3941 8.45703V10.5898H20.2613H18.1285V8.45703V6.32422H20.2613H22.3941V8.45703ZM28.9566 8.45703V10.5898H26.8238H24.691V8.45703V6.32422H26.8238H28.9566V8.45703Z" fill="#1F2937"/>
<path d="M12.9609 8.45703V9.19531H13.7402H14.5195V8.45703V7.71875H13.7402H12.9609V8.45703Z" fill="#1F2937"/>
<path d="M19.5234 8.45703V9.19531H20.2617H21V8.45703V7.71875H20.2617H19.5234V8.45703Z" fill="#1F2937"/>
<path d="M26.0039 8.45703V9.19531H26.7832H27.5625V8.45703V7.71875H26.7832H26.0039V8.45703Z" fill="#1F2937"/>
<path d="M5.60273 19.4084C4.50352 19.7037 3.70781 20.3681 3.21563 21.3935C2.92031 22.017 2.91211 22.0662 2.91211 22.9357C2.91211 23.9775 3.05977 24.4533 3.59297 25.1505C4.25742 26.0283 5.15977 26.5041 6.3 26.5697C7.55508 26.6435 8.64609 26.1677 9.38438 25.2244C9.86836 24.6009 10.098 23.9939 10.1473 23.1818C10.1801 22.5337 10.0406 21.6888 9.90117 21.7216C9.86836 21.7298 9.11367 22.5337 8.22773 23.5017C7.18594 24.6584 6.58711 25.249 6.52969 25.208C6.47227 25.1752 5.88164 24.7896 5.22539 24.3466L4.02773 23.5427L4.37227 23.0177C4.56094 22.7224 4.74961 22.4845 4.78242 22.4845C4.81523 22.4845 5.17617 22.706 5.58633 22.9849C5.99648 23.2556 6.36563 23.4689 6.40664 23.4525C6.45586 23.4361 7.0957 22.7634 7.83398 21.9513L9.17109 20.4748L8.925 20.2205C8.19492 19.4576 6.74297 19.1048 5.60273 19.4084Z" fill="#1F2937"/>
<path d="M5.57813 32.4426C4.24922 32.8199 3.22383 33.8863 2.94492 35.207C2.82187 35.7731 2.8957 36.7738 3.09258 37.2988C3.44531 38.2176 4.27383 39.0543 5.16797 39.3906C5.72578 39.6039 6.71016 39.6777 7.29258 39.5547C9.25313 39.1363 10.5082 37.184 10.0816 35.207C10.0324 34.9774 9.9668 34.7723 9.93398 34.7559C9.90938 34.7313 9.14648 35.527 8.25234 36.5113L6.62813 38.3078L5.38125 37.4793C4.70039 37.0281 4.11797 36.6262 4.08516 36.6016C4.05234 36.5688 4.1918 36.2981 4.38867 35.9945L4.75781 35.4449L5.58633 35.9945L6.42305 36.5524L6.71836 36.216C6.88242 36.0356 7.50586 35.3383 8.11289 34.6738L9.21211 33.468L8.9332 33.2301C8.01445 32.4508 6.67734 32.1391 5.57813 32.4426Z" fill="#1F2937"/>
<path d="M3.36328 3.9043L0.943359 6.32422H3.38789H5.82422V3.9043C5.82422 2.57539 5.81602 1.48438 5.79961 1.48438C5.79141 1.48438 4.69219 2.57539 3.36328 3.9043Z" fill="#1F2937"/>
<path d="M39.3832 22.3203C39.0223 22.4844 37.7344 23.6656 37.7344 23.8297C37.7344 23.8789 38.325 24.5105 39.0469 25.2324L40.3676 26.5449L41.0156 25.8805C41.877 24.9863 42.0246 24.6828 41.9836 23.9117C41.959 23.4113 41.918 23.2555 41.7129 22.9602C41.2125 22.2465 40.1789 21.9594 39.3832 22.3203Z" fill="#1F2937"/>
<path d="M31.459 30.0313L26.291 35.1992L26.7258 35.6258L27.1523 36.0605L32.3613 30.8516L37.5703 25.6426L37.1848 25.257C36.9715 25.0355 36.7582 24.8633 36.709 24.8633C36.668 24.8633 34.2973 27.1848 31.459 30.0313Z" fill="#1F2937"/>
<path d="M33.2797 31.8523L28.1445 37.0449L28.5301 37.4305C28.7352 37.652 28.9566 37.8242 29.0059 37.8242C29.0633 37.8242 31.4176 35.4945 34.2395 32.6398L39.3828 27.4637L38.9891 27.0617C38.7758 26.8484 38.5543 26.668 38.5051 26.668C38.4559 26.668 36.1016 29.0059 33.2797 31.8523Z" fill="#1F2937"/>
<path d="M25.6516 36.6514C25.5696 36.8155 24.9215 39.2272 24.9543 39.26C24.9871 39.3011 27.5711 38.5792 27.645 38.5136C27.686 38.4725 25.8321 36.594 25.7418 36.594C25.709 36.594 25.668 36.6186 25.6516 36.6514Z" fill="#1F2937"/>
</g>
<defs>
<clipPath id="clip0_2525_22421">
<rect width="42" height="42" fill="white" transform="translate(0 0.5)"/>
</clipPath>
</defs>
</svg>
