<svg width="36" height="36" viewBox="0 0 36 36" fill="none" xmlns="http://www.w3.org/2000/svg">
<path d="M13.2188 0H0V4.76438H13.2188V0Z" fill="#0E82FD"/>
<path d="M35.9996 12.9381V14.6256C35.8571 15.3231 35.7596 16.0319 35.5655 16.7144C34.4808 20.5375 31.0046 23.4681 27.0596 23.9153C21.4786 24.5481 16.5802 20.8488 15.7167 15.2763C15.2696 12.3888 16.0346 9.77781 17.8214 7.46687C17.8571 7.42094 17.8964 7.37687 17.9386 7.33562C17.9527 7.32156 17.9789 7.32063 18.0221 7.30469C18.1317 8.12406 18.2396 8.89187 17.8092 9.70094C15.0033 14.9828 18.2939 21.6269 24.1917 22.6497C29.2692 23.53 33.9671 20.1456 34.7105 15.0456C34.9908 13.1228 34.6439 11.2938 33.7383 9.57344C33.4655 9.055 33.4636 9.05969 33.8639 8.63125C33.9989 8.48687 34.1199 8.32844 34.2689 8.15031C34.3449 8.26094 34.4189 8.3575 34.4817 8.46156C35.2871 9.77969 35.7821 11.2037 35.9396 12.7431C35.9461 12.8097 35.9789 12.8734 35.9996 12.9381Z" fill="#0E82FD"/>
<path d="M26.3934 33.473C26.4 34.3149 26.3775 35.1577 26.3672 35.9996H25.1719C25.1794 35.8599 25.1944 35.7202 25.1944 35.5805C25.1953 33.0727 25.1953 30.5649 25.1953 28.0571V27.623H26.4825C26.3194 28.2793 26.4131 28.8699 26.8547 29.3865C26.2603 30.1862 26.2416 30.9859 26.8594 31.8099C26.4206 32.2787 26.3897 32.8655 26.3934 33.473Z" fill="#0E82FD"/>
<path d="M1.21875 13.2344V23.9706H11.9869V13.2344H1.21875ZM5.46938 21.8331C4.71938 21.0841 3.98344 20.3509 3.22969 19.5981C3.495 19.3469 3.765 19.0909 4.05938 18.8116C4.46344 19.2419 4.88438 19.6909 5.33063 20.1663C6.63094 18.6813 7.87594 17.26 9.14906 15.8059C9.44625 16.0656 9.73219 16.3159 10.0509 16.5944C8.50875 18.3578 6.98063 20.1044 5.46938 21.8331Z" fill="#0E82FD"/>
<path d="M10.7799 26.4238V33.577H1.19768C1.19768 31.2623 1.19674 28.9785 1.19768 26.6948C1.19768 26.6132 1.20518 26.5316 1.21081 26.4238H10.7799Z" fill="#0E82FD"/>
<path d="M30.0059 8.05219C30.005 7.38281 29.8184 7.19531 29.1491 7.19437C27.38 7.19344 25.61 7.18312 23.8409 7.2C23.1753 7.20656 22.5528 7.13719 22.0653 6.60938C21.7447 6.95531 21.6022 7.34719 21.6003 7.7775C21.5919 9.40594 21.575 11.0344 21.605 12.6628C21.6312 14.1422 22.6784 15.3563 24.14 15.5372C25.0175 15.6459 25.9166 15.5991 26.8053 15.6009C28.7253 15.6047 30.0003 14.3306 30.005 12.4106C30.0097 10.9575 30.0069 9.50531 30.0059 8.05219ZM22.8003 8.99531C22.8022 8.66906 23.0806 8.40094 23.4106 8.4075C23.735 8.41313 23.9825 8.65969 23.9891 8.98406C23.9956 9.32531 23.7425 9.58781 23.405 9.59062C23.074 9.59344 22.7984 9.32156 22.8003 8.99531ZM25.94 13.7869C24.545 13.8431 23.3825 12.765 23.4266 11.4113H28.1609C28.2931 12.5681 27.1925 13.7372 25.94 13.7869ZM28.2059 9.59062C27.8844 9.59437 27.6256 9.34969 27.6106 9.03C27.5956 8.69062 27.8431 8.41875 28.1778 8.40656C28.5106 8.39531 28.7881 8.655 28.7956 8.985C28.804 9.315 28.5387 9.58781 28.2059 9.59062Z" fill="#0E82FD"/>
<path d="M32.8938 7.88178C32.4213 7.46459 31.8681 7.21897 31.2241 7.18897C31.1538 7.18616 31.0572 7.10553 31.0234 7.03616C30.7881 6.55803 30.4075 6.25147 29.8872 6.06678C30.1141 5.30741 29.9978 4.62584 29.41 4.07272C28.9675 3.65553 28.3253 3.50459 27.6231 3.63959V4.79553C27.8144 4.79553 27.9972 4.78522 28.1791 4.79741C28.5616 4.82366 28.8119 5.08616 28.795 5.42741C28.7781 5.75459 28.5306 5.98803 28.1566 5.98991C26.5863 5.99553 25.0169 5.99553 23.4475 5.98991C23.0584 5.98803 22.7988 5.73678 22.7988 5.39834C22.7997 5.06272 23.0603 4.81709 23.4475 4.79553C23.6097 4.78709 23.7738 4.79459 23.965 4.79459V3.64053C22.7941 3.38928 21.8275 4.03147 21.6044 5.19491C21.58 5.31866 21.5088 5.45647 21.4169 5.54272C20.9959 5.93553 20.7053 6.40241 20.5197 6.94709C20.4831 7.05491 20.3397 7.16272 20.2234 7.20022C19.9263 7.29678 19.6159 7.35397 19.2119 7.45053C19.2119 6.99678 19.1772 6.53647 19.2184 6.08366C19.4734 3.26553 21.7319 1.20584 24.5631 1.19834C26.7541 1.19272 28.9441 1.19647 31.135 1.19741C31.7359 1.19741 32.1447 1.43272 32.32 1.89491C32.5159 2.40959 32.3481 2.83428 31.9591 3.18866C31.795 3.33866 31.6225 3.47928 31.4181 3.65553C31.9216 4.00053 32.3509 4.26584 32.7484 4.57147C33.8181 5.39553 33.8913 6.96678 32.8938 7.88178Z" fill="#0E82FD"/>
<path d="M27.5915 25.784C27.6009 26.1628 27.3337 26.3934 26.8593 26.3962C26.0756 26.4018 25.2909 26.4037 24.5062 26.3934C24.3028 26.3906 24.1847 26.4515 24.1031 26.6428C23.9897 26.9118 23.8425 27.1659 23.714 27.4284C23.3306 28.214 22.7156 28.6771 21.8409 28.7831C21.7725 28.7915 21.704 28.8084 21.6056 28.8271V29.9784C22.5084 30.0103 23.2584 29.6615 23.9718 29.0906V33.5709C23.8997 33.5812 23.8228 33.6037 23.7459 33.6018C22.799 33.585 21.8428 33.6356 20.9081 33.5156C20.3793 33.4481 19.8806 33.1115 19.3837 32.864C19.2853 32.8143 19.2065 32.6221 19.2056 32.4946C19.1943 30.434 19.1943 28.3734 19.2065 26.3128C19.2075 26.1768 19.2984 25.9996 19.4062 25.9134C20.0222 25.4203 20.7431 25.2018 21.5259 25.1981C23.3053 25.1906 25.0856 25.1934 26.865 25.1971C27.3197 25.1981 27.5822 25.4212 27.5915 25.784Z" fill="#0E82FD"/>
<path d="M13.1791 8.41602H0.0166016V9.5682H13.1791V8.41602Z" fill="#0E82FD"/>
<path d="M13.1873 10.834H0.00976562V11.9815H13.1873V10.834Z" fill="#0E82FD"/>
<path d="M13.175 6.01758H4.8125V7.1707H13.175V6.01758Z" fill="#0E82FD"/>
<path d="M17.9792 26.4258H16.8242V33.5902H17.9792V26.4258Z" fill="#0E82FD"/>
<path d="M13.1873 26.4238H12.0342V33.592H13.1873V26.4238Z" fill="#0E82FD"/>
<path d="M15.5857 26.4219H14.4326V33.5938H15.5857V26.4219Z" fill="#0E82FD"/>
<path d="M30.9026 19.6714C29.9379 20.5133 28.8382 21.0936 27.4873 21.4048C28.5486 20.1308 29.2395 18.7695 29.6201 17.1992C30.2764 17.8742 30.7076 18.598 30.9486 19.4323C30.9692 19.5036 30.9523 19.6283 30.9026 19.6714Z" fill="#0E82FD"/>
<path d="M24.115 21.4052C22.7707 21.0893 21.685 20.5249 20.7325 19.7027C20.6753 19.6521 20.6163 19.5377 20.6341 19.4759C20.8853 18.6246 21.3063 17.8718 21.9803 17.209C22.361 18.7709 23.05 20.1302 24.115 21.4052Z" fill="#0E82FD"/>
<path d="M3.57633 6.01562H0.0175781V7.16969H3.57633V6.01562Z" fill="#0E82FD"/>
<path d="M29.4611 33.5897C29.0186 33.6169 28.5714 33.6179 28.1289 33.5879C27.7932 33.5654 27.5879 33.2775 27.6123 32.9513C27.6348 32.6419 27.8579 32.4272 28.1926 32.4094C28.4026 32.3991 28.6136 32.4075 28.8236 32.4075C29.0223 32.4085 29.222 32.3991 29.4198 32.4104C29.7423 32.43 29.9757 32.6597 29.9973 32.9625C30.0189 33.2719 29.792 33.57 29.4611 33.5897Z" fill="#0E82FD"/>
<path d="M29.9944 30.5718C29.9963 30.8718 29.8575 31.1343 29.5538 31.1605C29.0569 31.2046 28.5506 31.2093 28.0547 31.1624C27.7388 31.1333 27.5944 30.8671 27.6141 30.5446C27.6338 30.2483 27.8503 30.0364 28.1653 30.0149C28.3753 30.0008 28.5863 30.0121 28.7972 30.0121C28.7972 30.013 28.7972 30.013 28.7972 30.0139C29.0185 30.0139 29.2425 29.9999 29.4628 30.0177C29.7628 30.0421 29.9935 30.2811 29.9944 30.5718Z" fill="#0E82FD"/>
<path d="M29.5158 28.7707C29.0405 28.8045 28.5586 28.8054 28.0833 28.7707C27.7777 28.7482 27.5986 28.4745 27.6099 28.1735C27.6221 27.8763 27.8255 27.6579 28.1358 27.6138C28.1696 27.6082 28.2052 27.6045 28.2399 27.6045C28.4274 27.6035 28.6139 27.6035 28.8014 27.6035V27.6138C29.0227 27.6138 29.2468 27.597 29.4671 27.6176C29.7718 27.6466 29.9846 27.8848 29.9977 28.1745C30.0118 28.4604 29.8167 28.7491 29.5158 28.7707Z" fill="#0E82FD"/>
<path d="M20.3779 8.42188V10.775C19.6982 10.745 19.2126 10.2641 19.1995 9.62281C19.1864 8.96844 19.6692 8.46312 20.3779 8.42188Z" fill="#0E82FD"/>
<path d="M32.4032 9.62039C32.3892 10.2673 31.8848 10.7651 31.2061 10.766C31.2061 10.0901 31.2061 9.41414 31.207 8.7382C31.207 8.63602 31.2173 8.53289 31.2229 8.43164C31.9054 8.44195 32.4173 8.96695 32.4032 9.62039Z" fill="#0E82FD"/>
<path d="M26.3405 20.8629C26.2008 21.0626 26.034 21.2435 25.869 21.4423C25.1068 20.7841 25.1068 20.7841 25.3768 19.9713C25.4433 19.7716 25.4977 19.5673 25.583 19.376C25.6168 19.301 25.718 19.2129 25.7912 19.211C25.8652 19.2082 25.9843 19.2888 26.0115 19.361C26.1596 19.7538 26.2965 20.1523 26.4127 20.5554C26.439 20.6444 26.3977 20.7813 26.3405 20.8629Z" fill="#0E82FD"/>
<path d="M29.8953 26.0951C29.6394 26.5658 29.1612 26.352 28.7656 26.397V25.1989C29.1359 25.2317 29.5859 25.0489 29.8625 25.4557C29.9684 25.6114 29.9844 25.9311 29.8953 26.0951Z" fill="#0E82FD"/>
<path d="M24.3084 16.8176C23.9971 17.1176 23.7037 17.3998 23.37 17.7213C23.2687 17.3341 23.1693 16.9535 23.0615 16.541C23.505 16.6395 23.8959 16.7257 24.3084 16.8176Z" fill="#0E82FD"/>
<path d="M28.527 16.5449C28.4313 16.9415 28.3413 17.3165 28.2532 17.6793C27.9532 17.3709 27.6682 17.0784 27.3926 16.7952C27.7066 16.7259 28.0891 16.6415 28.527 16.5449Z" fill="#0E82FD"/>
<path d="M26.3594 17.6443C26.2197 17.7605 26.0922 17.9349 25.9262 17.9884C25.6159 18.0887 25.3891 17.9368 25.2812 17.5702C25.4387 17.439 25.6253 17.2852 25.8484 17.0996C25.9844 17.244 26.1419 17.4127 26.3594 17.6443Z" fill="#0E82FD"/>
<path d="M27.7042 18.9454C27.5973 19.1329 27.5007 19.3035 27.346 19.5763C27.2795 19.1573 26.9729 18.8891 27.2017 18.4551C27.3967 18.6454 27.5457 18.7907 27.7042 18.9454Z" fill="#0E82FD"/>
<path d="M24.2189 19.5189C24.1008 19.3098 24.0052 19.1402 23.8955 18.9442C24.0596 18.8083 24.2199 18.677 24.383 18.543C24.5621 18.6995 24.5414 18.8814 24.2189 19.5189Z" fill="#0E82FD"/>
</svg>
