<svg width="42" height="43" viewBox="0 0 42 43" fill="none" xmlns="http://www.w3.org/2000/svg">
<g clip-path="url(#clip0_2525_22399)">
<path d="M26.7007 0.647659C26.471 0.729691 26.1265 0.885548 25.9214 1.00859C25.4128 1.31211 5.74173 21.016 5.47103 21.5C5.03626 22.2629 4.88861 23.3949 5.11829 24.248C5.29876 24.9453 5.64329 25.5031 6.29134 26.1758L6.90657 26.8238L6.29134 27.4473C5.32337 28.4152 4.93782 29.3668 5.02806 30.5645C5.07728 31.2207 5.30697 31.8934 5.6597 32.4184C5.79095 32.6152 6.80814 33.6898 7.93197 34.7973C10.073 36.9301 10.3273 37.1188 11.2952 37.373C12.1894 37.6027 13.2148 37.4797 14.0269 37.0367C14.2402 36.9219 14.7077 36.5609 15.0605 36.2246L15.7085 35.6258L16.3402 36.2328C17.2671 37.1105 18.1367 37.4961 19.2195 37.4961C19.7773 37.4961 20.532 37.2992 20.9995 37.0285C21.2292 36.8973 25.1421 33.0582 31.3601 26.8402C40.9331 17.2754 41.3597 16.8406 41.655 16.2582C41.9257 15.7086 41.9585 15.5773 41.9831 14.8555C42.0242 13.9695 41.8929 13.3625 41.532 12.7227C41.2859 12.2879 30.8023 1.73047 30.0804 1.18906C29.4406 0.713284 28.7433 0.5 27.8163 0.5C27.3652 0.508205 26.9632 0.557423 26.7007 0.647659ZM28.4644 10.1387C28.5792 10.2043 29.5062 11.0902 30.5316 12.1238C32.5413 14.15 32.6562 14.3141 32.4839 14.9375C32.4183 15.1672 31.3027 16.3238 26.9304 20.6961C21.0488 26.5695 21.262 26.3809 20.614 26.2168C20.2859 26.143 16.4386 22.2957 16.3156 21.9266C16.0941 21.2539 15.8726 21.5082 21.8034 15.5691C25.5441 11.8285 27.357 10.073 27.521 10.0238C27.7999 9.9336 28.1609 9.98281 28.4644 10.1387ZM14.5929 24.1086C15.0523 24.4531 15.1343 24.7156 15.1589 26.0691L15.1917 27.3078L16.4304 27.3406C17.4968 27.3652 17.7183 27.3898 17.9562 27.5293C18.7683 28.0051 18.8175 29.0059 18.0546 29.5145C17.7839 29.6949 17.7265 29.7031 15.6757 29.7031C12.657 29.7031 12.7964 29.8426 12.7964 26.8238C12.7964 24.773 12.8046 24.7156 12.9851 24.4449C13.3542 23.8871 14.0925 23.7313 14.5929 24.1086Z" fill="#1F2937"/>
<path d="M25.2 15.4543C23.7973 16.857 22.6406 18.0547 22.6406 18.0957C22.6406 18.2023 24.2977 19.8594 24.4043 19.8594C24.5109 19.8594 29.6133 14.757 29.6133 14.6504C29.6133 14.5438 27.9562 12.8867 27.8496 12.8867C27.8004 12.8867 26.6109 14.0434 25.2 15.4543Z" fill="#1F2937"/>
<path d="M19.9746 20.6797L19.0723 21.582L19.9992 22.509L20.918 23.4277L21.8203 22.5254L22.7227 21.623L21.7957 20.6961L20.877 19.7773L19.9746 20.6797Z" fill="#1F2937"/>
<path d="M1.8291 35.3799C0.926758 36.2986 0.139258 37.1271 0.0900391 37.2256C-0.0248047 37.4553 -0.0248047 38.1115 0.0900391 38.3412C0.221289 38.5955 3.85527 42.2377 4.11777 42.3854C4.40488 42.533 5.02832 42.533 5.31543 42.3854C5.43848 42.3197 6.2752 41.524 7.17754 40.6217L8.81816 38.9729L6.19316 36.3479C4.74941 34.9041 3.55176 33.7229 3.52715 33.7229C3.50254 33.7229 2.73965 34.4693 1.8291 35.3799Z" fill="#1F2937"/>
</g>
<defs>
<clipPath id="clip0_2525_22399">
<rect width="42" height="42" fill="white" transform="translate(0 0.5)"/>
</clipPath>
</defs>
</svg>
