<svg width="14" height="14" viewBox="0 0 14 14" fill="none" xmlns="http://www.w3.org/2000/svg">
<g clip-path="url(#clip0_2578_53376)">
<path d="M12.25 14C12.7141 14 13.1592 13.8156 13.4874 13.4874C13.8156 13.1592 14 12.7141 14 12.25V1.75C14 1.28587 13.8156 0.840752 13.4874 0.512563C13.1592 0.184374 12.7141 0 12.25 0L1.75 0C1.28587 0 0.840752 0.184374 0.512563 0.512563C0.184374 0.840752 0 1.28587 0 1.75L0 12.25C0 12.7141 0.184374 13.1592 0.512563 13.4874C0.840752 13.8156 1.28587 14 1.75 14H12.25ZM5.166 4.54738L8.75 8.13138V5.70937C8.75 5.59334 8.79609 5.48206 8.87814 5.40002C8.96019 5.31797 9.07147 5.27187 9.1875 5.27187C9.30353 5.27187 9.41481 5.31797 9.49686 5.40002C9.57891 5.48206 9.625 5.59334 9.625 5.70937V9.1875C9.625 9.30353 9.57891 9.41481 9.49686 9.49686C9.41481 9.57891 9.30353 9.625 9.1875 9.625H5.70937C5.59334 9.625 5.48206 9.57891 5.40002 9.49686C5.31797 9.41481 5.27187 9.30353 5.27187 9.1875C5.27187 9.07147 5.31797 8.96019 5.40002 8.87814C5.48206 8.79609 5.59334 8.75 5.70937 8.75H8.13138L4.54738 5.166C4.46768 5.08349 4.42358 4.97297 4.42458 4.85826C4.42558 4.74355 4.47159 4.63382 4.5527 4.5527C4.63382 4.47159 4.74355 4.42558 4.85826 4.42458C4.97297 4.42358 5.08349 4.46768 5.166 4.54738Z" fill="#7E22CE"/>
</g>
<defs>
<clipPath id="clip0_2578_53376">
<rect width="14" height="14" fill="white"/>
</clipPath>
</defs>
</svg>
