<svg width="117" height="115" viewBox="0 0 117 115" fill="none" xmlns="http://www.w3.org/2000/svg">
<path d="M64.6593 44.4139C64.6593 44.4139 69.6117 48.2833 71.9724 48.03C74.3403 47.7699 79.4413 44.7395 79.4413 44.7395C79.4413 44.7395 75.6684 48.824 75.8252 52.0526C75.982 55.2811 79.123 59.5146 79.123 59.5146C79.123 59.5146 74.886 55.2646 71.8027 55.9054C68.7193 56.5462 64.3406 59.2032 64.3406 59.2032C64.3406 59.2032 68.2069 54.7246 67.9499 51.8829C67.6997 49.0484 64.6593 44.4139 64.6593 44.4139Z" fill="#0CE0FF"/>
<path d="M49.9915 25.7438C49.9915 25.7438 51.2337 28.4865 52.2928 28.8983C53.3519 29.3101 56.1915 29.152 56.1915 29.152C56.1915 29.152 53.6826 30.0457 53.037 31.4534C52.3844 32.8539 52.7763 35.3448 52.7763 35.3448C52.7763 35.3448 51.923 32.6035 50.4749 32.1903C49.0269 31.7772 46.5766 31.9225 46.5766 31.9225C46.5766 31.9225 49.2088 30.8829 49.7311 29.6211C50.2528 28.3875 49.9915 25.7438 49.9915 25.7438Z" fill="white"/>
<path d="M105.707 35.283C105.707 35.283 107.241 35.3089 107.66 34.9077C108.085 34.5138 108.638 33.1677 108.638 33.1677C108.638 33.1677 108.503 34.5157 109.006 35.1277C109.516 35.7328 110.753 36.099 110.753 36.099C110.753 36.099 109.3 35.8979 108.793 36.4811C108.278 37.057 107.822 38.2283 107.822 38.2283C107.822 38.2283 107.916 36.7805 107.454 36.2684C106.991 35.7421 105.707 35.283 105.707 35.283Z" fill="white"/>
<path d="M73.2103 18.1818C73.2103 18.1818 73.9059 18.7201 74.232 18.6847C74.5581 18.6493 75.2745 18.2262 75.2745 18.2262C75.2745 18.2262 74.753 18.795 74.7716 19.248C74.7901 19.7011 75.23 20.2905 75.23 20.2905C75.23 20.2905 74.6346 19.6977 74.2083 19.7875C73.782 19.8774 73.1658 20.246 73.1658 20.246C73.1658 20.246 73.7026 19.6211 73.6687 19.2243C73.6348 18.8275 73.2103 18.1818 73.2103 18.1818Z" fill="white"/>
<path d="M21.5944 86.4126C21.5944 86.4126 22.8367 89.1553 23.8958 89.5672C24.9618 89.9862 27.7872 89.8278 27.7872 89.8278C27.7872 89.8278 25.2784 90.7215 24.6327 92.1292C23.9871 93.5369 24.379 96.0279 24.379 96.0279C24.379 96.0279 23.5256 93.2865 22.0776 92.8734C20.6295 92.4602 18.1861 92.6127 18.1861 92.6127C18.1861 92.6127 20.8184 91.5731 21.3406 90.3113C21.8557 89.0564 21.5944 86.4126 21.5944 86.4126Z" fill="white"/>
<path d="M46.899 102.23C46.899 102.23 48.4332 102.256 48.8521 101.855C49.2778 101.461 49.8233 100.108 49.8233 100.108C49.8233 100.108 49.6951 101.463 50.1913 102.068C50.7016 102.673 51.9385 103.039 51.9385 103.039C51.9385 103.039 50.4859 102.838 49.9713 103.414C49.4637 103.997 49.0001 105.161 49.0001 105.161C49.0001 105.161 49.0949 103.713 48.6252 103.194C48.1765 102.682 46.899 102.23 46.899 102.23Z" fill="white"/>
<path d="M39.6545 49.5184C39.6545 49.5184 41.1887 49.5444 41.6217 49.1435C42.0405 48.7423 42.5929 47.3962 42.5929 47.3962C42.5929 47.3962 42.4647 48.7514 42.9678 49.3635C43.4782 49.9686 44.7151 50.3347 44.7151 50.3347C44.7151 50.3347 43.2624 50.1337 42.7479 50.7096C42.2402 51.2928 41.7766 52.4569 41.7766 52.4569C41.7766 52.4569 41.8715 51.009 41.4014 50.5038C40.932 49.9703 39.6545 49.5184 39.6545 49.5184Z" fill="white"/>
<path d="M35.7513 68.1134C35.7513 68.1134 36.447 68.6518 36.7731 68.6164C37.0992 68.581 37.8156 68.1579 37.8156 68.1579C37.8156 68.1579 37.2941 68.7266 37.3126 69.1797C37.3311 69.6327 37.7711 70.2221 37.7711 70.2221C37.7711 70.2221 37.1756 69.6294 36.7493 69.7192C36.323 69.809 35.7068 70.1777 35.7068 70.1777C35.7068 70.1777 36.2437 69.5527 36.2098 69.1559C36.1759 68.7591 35.7513 68.1134 35.7513 68.1134Z" fill="white"/>
<path d="M92.2401 60.2578C92.2401 60.2578 92.2991 61.129 92.5418 61.3535C92.7987 61.5783 93.5856 61.8215 93.5856 61.8215C93.5856 61.8215 92.8148 61.812 92.4899 62.1233C92.1718 62.4418 92.029 63.1601 92.029 63.1601C92.029 63.1601 92.0753 62.3265 91.7201 62.0713C91.3648 61.8161 90.6832 61.6105 90.6832 61.6105C90.6832 61.6105 91.5111 61.5929 91.7792 61.2946C92.047 61.0104 92.2401 60.2578 92.2401 60.2578Z" fill="white"/>
<path d="M57.2801 80.3105C57.2801 80.3105 57.346 81.1889 57.596 81.4065C57.8459 81.6241 58.6328 81.8673 58.6328 81.8673C58.6328 81.8673 57.8549 81.8647 57.5368 82.1832C57.2187 82.5017 57.076 83.2201 57.076 83.2201C57.076 83.2201 57.1222 82.3865 56.7601 82.124C56.3979 81.8616 55.7233 81.6632 55.7233 81.6632C55.7233 81.6632 56.5511 81.6457 56.8193 81.3473C57.0871 81.0631 57.2801 80.3105 57.2801 80.3105Z" fill="white"/>
</svg>
