<svg width="196" height="75" viewBox="0 0 196 75" fill="none" xmlns="http://www.w3.org/2000/svg">
<g style="mix-blend-mode:luminosity">
<g clip-path="url(#clip0_2578_54398)">
<path d="M44.1523 44.6943H52.1474L32.3419 24.8887H24.3467L44.1523 44.6943Z" fill="#7476ED"/>
<path d="M36.4492 24.8887L55.5414 43.9809V24.8887H50.3747V30.9164L44.3469 24.8887L36.4492 24.8887Z" fill="#E56F8C"/>
<path d="M21 25.5518V44.6942H26.1667V38.6664L32.1944 44.6942H40.1425L21 25.5518Z" fill="#64C2DB"/>
<path d="M68.0096 41.7165H72.6389V44.4445H64.4756V29.9365H68.0096V41.7165Z" fill="#3A3B7B"/>
<path d="M78.954 44.6098C77.8242 44.6098 76.8046 44.3687 75.8953 43.8864C74.9997 43.4042 74.2902 42.7153 73.7666 41.8198C73.2569 40.9242 73.002 39.8771 73.002 38.6784C73.002 37.4936 73.2637 36.4533 73.7873 35.5578C74.3109 34.6484 75.0273 33.9526 75.9366 33.4704C76.846 32.9882 77.8655 32.7471 78.9953 32.7471C80.1251 32.7471 81.1446 32.9882 82.054 33.4704C82.9633 33.9526 83.6797 34.6484 84.2033 35.5578C84.7269 36.4533 84.9886 37.4936 84.9886 38.6784C84.9886 39.8633 84.72 40.9104 84.1826 41.8198C83.6591 42.7153 82.9356 43.4042 82.0126 43.8864C81.1033 44.3687 80.0837 44.6098 78.954 44.6098ZM78.954 41.5511C79.6291 41.5511 80.2009 41.3031 80.6693 40.8071C81.1515 40.3111 81.3926 39.6016 81.3926 38.6784C81.3926 37.7553 81.1584 37.0458 80.69 36.5498C80.2353 36.0538 79.6704 35.8058 78.9953 35.8058C78.3064 35.8058 77.7346 36.0538 77.28 36.5498C76.8253 37.032 76.5979 37.7416 76.5979 38.6784C76.5979 39.6016 76.8184 40.3111 77.2593 40.8071C77.714 41.3031 78.2789 41.5511 78.954 41.5511Z" fill="#3A3B7B"/>
<path d="M90.625 32.7471C91.4379 32.7471 92.1475 32.9124 92.7537 33.2431C93.3737 33.5737 93.849 34.0078 94.1797 34.5451V32.9124H97.7137V44.4238C97.7137 45.4847 97.5001 46.4422 97.073 47.2964C96.6597 48.1644 96.019 48.8533 95.151 49.3631C94.2968 49.8729 93.229 50.1278 91.9477 50.1278C90.2392 50.1278 88.8546 49.7213 87.7937 48.9084C86.7328 48.1093 86.1266 47.0209 85.975 45.6431H89.4677C89.5779 46.084 89.8397 46.4284 90.253 46.6764C90.6664 46.9382 91.1761 47.0691 91.7824 47.0691C92.5126 47.0691 93.0912 46.8556 93.5184 46.4284C93.9592 46.0151 94.1797 45.3469 94.1797 44.4238V42.7911C93.8352 43.3284 93.3599 43.7693 92.7537 44.1138C92.1475 44.4444 91.4379 44.6098 90.625 44.6098C89.6744 44.6098 88.8132 44.3687 88.0417 43.8864C87.2701 43.3904 86.657 42.6947 86.2024 41.7991C85.7615 40.8898 85.541 39.8427 85.541 38.6578C85.541 37.4729 85.7615 36.4327 86.2024 35.5371C86.657 34.6416 87.2701 33.9526 88.0417 33.4704C88.8132 32.9882 89.6744 32.7471 90.625 32.7471ZM94.1797 38.6784C94.1797 37.7967 93.9317 37.1009 93.4357 36.5911C92.9535 36.0813 92.361 35.8264 91.6584 35.8264C90.9557 35.8264 90.3564 36.0813 89.8604 36.5911C89.3781 37.0871 89.137 37.776 89.137 38.6578C89.137 39.5396 89.3781 40.2422 89.8604 40.7658C90.3564 41.2756 90.9557 41.5304 91.6584 41.5304C92.361 41.5304 92.9535 41.2756 93.4357 40.7658C93.9317 40.256 94.1797 39.5602 94.1797 38.6784Z" fill="#3A3B7B"/>
<path d="M104.899 44.6098C103.769 44.6098 102.75 44.3687 101.841 43.8864C100.945 43.4042 100.235 42.7153 99.712 41.8198C99.2022 40.9242 98.9473 39.8771 98.9473 38.6784C98.9473 37.4936 99.2091 36.4533 99.7326 35.5578C100.256 34.6484 100.973 33.9526 101.882 33.4704C102.791 32.9882 103.811 32.7471 104.941 32.7471C106.07 32.7471 107.09 32.9882 107.999 33.4704C108.909 33.9526 109.625 34.6484 110.149 35.5578C110.672 36.4533 110.934 37.4936 110.934 38.6784C110.934 39.8633 110.665 40.9104 110.128 41.8198C109.604 42.7153 108.881 43.4042 107.958 43.8864C107.049 44.3687 106.029 44.6098 104.899 44.6098ZM104.899 41.5511C105.574 41.5511 106.146 41.3031 106.615 40.8071C107.097 40.3111 107.338 39.6016 107.338 38.6784C107.338 37.7553 107.104 37.0458 106.635 36.5498C106.181 36.0538 105.616 35.8058 104.941 35.8058C104.252 35.8058 103.68 36.0538 103.225 36.5498C102.771 37.032 102.543 37.7416 102.543 38.6784C102.543 39.6016 102.764 40.3111 103.205 40.8071C103.659 41.3031 104.224 41.5511 104.899 41.5511Z" fill="#3A3B7B"/>
<path d="M113.966 31.714C113.346 31.714 112.837 31.5348 112.437 31.1766C112.051 30.8046 111.858 30.35 111.858 29.8126C111.858 29.2615 112.051 28.8068 112.437 28.4486C112.837 28.0766 113.346 27.8906 113.966 27.8906C114.573 27.8906 115.069 28.0766 115.454 28.4486C115.854 28.8068 116.054 29.2615 116.054 29.8126C116.054 30.35 115.854 30.8046 115.454 31.1766C115.069 31.5348 114.573 31.714 113.966 31.714ZM115.723 32.9126V44.4446H112.189V32.9126H115.723Z" fill="#3A3B7B"/>
<path d="M121.198 34.5451C121.543 34.0078 122.018 33.5737 122.624 33.2431C123.23 32.9124 123.94 32.7471 124.753 32.7471C125.704 32.7471 126.565 32.9882 127.336 33.4704C128.108 33.9526 128.714 34.6416 129.155 35.5371C129.61 36.4327 129.837 37.4729 129.837 38.6578C129.837 39.8427 129.61 40.8898 129.155 41.7991C128.714 42.6947 128.108 43.3904 127.336 43.8864C126.565 44.3687 125.704 44.6098 124.753 44.6098C123.954 44.6098 123.244 44.4444 122.624 44.1138C122.018 43.7831 121.543 43.356 121.198 42.8324V49.9418H117.664V32.9124H121.198V34.5451ZM126.241 38.6578C126.241 37.776 125.993 37.0871 125.497 36.5911C125.015 36.0813 124.415 35.8264 123.699 35.8264C122.996 35.8264 122.397 36.0813 121.901 36.5911C121.419 37.1009 121.178 37.7967 121.178 38.6784C121.178 39.5602 121.419 40.256 121.901 40.7658C122.397 41.2756 122.996 41.5304 123.699 41.5304C124.402 41.5304 125.001 41.2756 125.497 40.7658C125.993 40.2422 126.241 39.5396 126.241 38.6578Z" fill="#3A3B7B"/>
<path d="M135.762 44.6098C134.756 44.6098 133.861 44.4376 133.076 44.0931C132.29 43.7487 131.67 43.2802 131.216 42.6878C130.761 42.0816 130.506 41.4064 130.451 40.6624H133.944C133.985 41.062 134.171 41.3858 134.502 41.6338C134.832 41.8818 135.239 42.0058 135.721 42.0058C136.162 42.0058 136.499 41.9231 136.734 41.7578C136.982 41.5787 137.106 41.3513 137.106 41.0758C137.106 40.7451 136.933 40.504 136.589 40.3524C136.244 40.1871 135.686 40.008 134.915 39.8151C134.088 39.6222 133.399 39.4224 132.848 39.2158C132.297 38.9953 131.822 38.6578 131.422 38.2031C131.023 37.7347 130.823 37.1078 130.823 36.3224C130.823 35.6611 131.002 35.0618 131.36 34.5244C131.732 33.9733 132.27 33.5393 132.972 33.2224C133.689 32.9055 134.536 32.7471 135.514 32.7471C136.961 32.7471 138.098 33.1053 138.924 33.8217C139.765 34.5382 140.247 35.4889 140.371 36.6738H137.106C137.05 36.2742 136.871 35.9573 136.568 35.7231C136.279 35.4889 135.893 35.3718 135.411 35.3718C134.998 35.3718 134.681 35.4544 134.46 35.6198C134.24 35.7713 134.13 35.9849 134.13 36.2604C134.13 36.5911 134.302 36.8391 134.646 37.0044C135.004 37.1698 135.556 37.3351 136.3 37.5004C137.154 37.7209 137.85 37.9413 138.387 38.1618C138.924 38.3684 139.393 38.7129 139.792 39.1951C140.206 39.6636 140.419 40.2973 140.433 41.0964C140.433 41.7716 140.24 42.3778 139.854 42.9151C139.482 43.4387 138.938 43.852 138.222 44.1551C137.519 44.4582 136.699 44.6098 135.762 44.6098Z" fill="#3A3B7B"/>
<path d="M153.362 32.9121V44.4441H149.828V42.8735C149.47 43.3833 148.981 43.7966 148.361 44.1135C147.755 44.4166 147.08 44.5681 146.336 44.5681C145.454 44.5681 144.675 44.3753 144 43.9895C143.325 43.5899 142.802 43.0181 142.43 42.2741C142.058 41.5301 141.872 40.6553 141.872 39.6495V32.9121H145.385V39.1741C145.385 39.9457 145.585 40.545 145.984 40.9721C146.384 41.3993 146.921 41.6128 147.596 41.6128C148.285 41.6128 148.829 41.3993 149.229 40.9721C149.629 40.545 149.828 39.9457 149.828 39.1741V32.9121H153.362Z" fill="#3A3B7B"/>
<path d="M169.995 32.7881C171.428 32.7881 172.565 33.2221 173.405 34.09C174.26 34.958 174.687 36.1636 174.687 37.7067V44.444H171.173V38.182C171.173 37.438 170.974 36.8663 170.574 36.4667C170.188 36.0534 169.651 35.8467 168.962 35.8467C168.273 35.8467 167.729 36.0534 167.329 36.4667C166.944 36.8663 166.751 37.438 166.751 38.182V44.444H163.237V38.182C163.237 37.438 163.038 36.8663 162.638 36.4667C162.252 36.0534 161.715 35.8467 161.026 35.8467C160.337 35.8467 159.793 36.0534 159.393 36.4667C159.008 36.8663 158.815 37.438 158.815 38.182V44.444H155.281V32.9121H158.815V34.3587C159.173 33.8765 159.641 33.4976 160.22 33.2221C160.799 32.9328 161.453 32.7881 162.183 32.7881C163.051 32.7881 163.823 32.9741 164.498 33.3461C165.187 33.7181 165.724 34.2485 166.11 34.9374C166.51 34.3036 167.054 33.787 167.743 33.3874C168.432 32.9879 169.183 32.7881 169.995 32.7881Z" fill="#3A3B7B"/>
</g>
</g>
<defs>
<clipPath id="clip0_2578_54398">
<rect width="154" height="27" fill="white" transform="translate(21 24)"/>
</clipPath>
</defs>
</svg>
