<svg width="135" height="84" viewBox="0 0 135 84" fill="none" xmlns="http://www.w3.org/2000/svg">
<path fill-rule="evenodd" clip-rule="evenodd" d="M134.907 41.8861C116.08 68.2056 92.7721 83.772 67.537 83.772C42.3019 83.772 18.9944 68.2055 0.166504 41.8859C18.9944 15.5664 42.3018 0 67.5369 0C92.772 0 116.079 15.5665 134.907 41.8861Z" fill="#0CE0FF"/>
<g clip-path="url(#clip0_1385_190364)">
<path fill-rule="evenodd" clip-rule="evenodd" d="M54.4471 21.8417C54.4471 21.1915 54.4385 20.6167 54.4493 20.0421C54.4613 19.4131 54.8397 19.0094 55.4031 19.0002C55.9889 18.9906 56.3857 19.4042 56.396 20.0539C56.4051 20.6279 56.3979 21.2023 56.3979 21.8087C60.8586 21.8087 65.2779 21.8087 69.7732 21.8087C69.7732 21.2036 69.7598 20.5844 69.7774 19.9663C69.792 19.459 70.1143 19.0956 70.5708 19.0176C71.032 18.9388 71.4779 19.149 71.6353 19.5663C71.7119 19.7694 71.7239 20.0039 71.7293 20.2251C71.7421 20.7501 71.7334 21.2757 71.7334 21.8417C73.0759 21.8417 74.3568 21.8403 75.6376 21.8421C76.8491 21.8439 77.9476 22.1855 78.8831 22.9704C79.9825 23.8928 80.6298 25.07 80.6533 26.5133C80.6911 28.8544 80.6736 31.1964 80.6752 33.5379C80.6774 36.7297 80.6757 39.9214 80.6757 43.1132C80.6757 43.3043 80.6757 43.4955 80.6757 43.7142C81.0759 43.8256 81.4588 43.923 81.8359 44.0387C86.5869 45.4966 89.7709 50.0304 89.4819 54.9213C89.1827 59.9809 85.5232 64.1354 80.5861 65.0203C75.6932 65.8972 70.8193 63.3181 68.8105 58.7634C68.6448 58.3877 68.4491 58.2944 68.0672 58.2951C62.2131 58.3065 56.3588 58.3072 50.5046 58.301C47.9853 58.2984 46.0051 56.6423 45.567 54.1791C45.5057 53.8348 45.5035 53.4769 45.5033 53.1252C45.5001 44.4321 45.4992 35.739 45.5016 27.046C45.5025 23.9117 47.583 21.8439 50.7265 21.8418C51.9435 21.841 53.1606 21.8417 54.4471 21.8417ZM47.4608 31.1125C47.4608 31.3438 47.4608 31.5184 47.4608 31.693C47.4608 38.8124 47.4602 45.9317 47.4612 53.0511C47.4615 55.1269 48.6723 56.3443 50.7414 56.3451C56.3215 56.3473 61.9015 56.3459 67.4816 56.3459C67.6543 56.3459 67.8269 56.3459 68.0363 56.3459C67.5299 52.9958 68.2632 50.0092 70.4119 47.4427C72.5585 44.8787 75.3735 43.6404 78.6783 43.5433C78.6783 39.37 78.6783 35.244 78.6783 31.1125C68.2685 31.1125 57.8996 31.1125 47.4608 31.1125ZM87.5352 54.3861C87.5588 49.5284 83.5808 45.5353 78.7027 45.5199C73.8489 45.5048 69.877 49.4478 69.8507 54.3077C69.8243 59.2114 73.7446 63.1929 78.6207 63.2148C83.5311 63.2369 87.5114 59.2949 87.5352 54.3861ZM54.4549 23.8544C52.9012 23.8544 51.4042 23.7569 49.9268 23.8847C48.7076 23.9903 47.8353 24.8063 47.598 26.0079C47.3999 27.0111 47.4675 28.0666 47.4167 29.1148C57.9096 29.1148 68.294 29.1148 78.7242 29.1148C78.7242 28.3417 78.7296 27.5923 78.7231 26.8429C78.7078 25.096 77.4746 23.8486 75.7238 23.8249C74.5854 23.8095 73.4467 23.8216 72.3081 23.8214C72.1376 23.8214 71.9672 23.8214 71.7492 23.8214C71.7492 24.4607 71.7615 25.0351 71.7456 25.6086C71.7305 26.1483 71.4558 26.5195 71.0301 26.6305C70.3862 26.7983 69.809 26.3651 69.7834 25.665C69.7613 25.0624 69.7788 24.4581 69.7788 23.8518C65.2934 23.8518 60.8753 23.8518 56.406 23.8518C56.406 24.2457 56.406 24.6107 56.406 24.9758C56.406 26.2175 56.1423 26.6664 55.4179 26.6586C54.7111 26.6508 54.4549 26.2093 54.4549 24.9993C54.4549 24.6329 54.4549 24.2666 54.4549 23.8544Z" fill="#1B5A90"/>
<path fill-rule="evenodd" clip-rule="evenodd" d="M87.5352 54.3857C87.5113 59.2946 83.5311 63.2366 78.6207 63.2144C73.7445 63.1926 69.8243 59.2111 69.8507 54.3073C69.8769 49.4475 73.8488 45.5043 78.7026 45.5196C83.5808 45.5349 87.5587 49.528 87.5352 54.3857ZM77.4077 56.4062C77.2657 56.2706 77.1489 56.1637 77.0371 56.0518C76.1871 55.2006 75.3368 54.3498 74.4893 53.496C74.1872 53.1916 73.8461 53.0149 73.4091 53.15C72.6616 53.381 72.4836 54.2464 73.0762 54.8474C74.2135 56.0009 75.3643 57.1411 76.5106 58.2858C77.1545 58.9286 77.6187 58.9324 78.2782 58.3021C80.3073 56.3629 82.3361 54.4236 84.3641 52.4831C84.4797 52.3726 84.5996 52.2627 84.6948 52.1353C84.9502 51.7936 84.9741 51.4201 84.765 51.0531C84.5634 50.6992 84.227 50.5154 83.8348 50.6023C83.5712 50.6607 83.2952 50.8097 83.0973 50.9953C81.5656 52.4334 80.0518 53.8906 78.5319 55.3411C78.1634 55.6925 77.7926 56.0415 77.4077 56.4062Z" fill="white"/>
<path fill-rule="evenodd" clip-rule="evenodd" d="M62.1185 41.5019C59.7127 41.5019 57.3067 41.5022 54.9009 41.5014C54.7406 41.5014 54.5793 41.5053 54.4204 41.4887C53.8972 41.4343 53.5225 41.0375 53.5136 40.5392C53.5048 40.051 53.8815 39.6196 54.3887 39.5502C54.5308 39.5307 54.677 39.5388 54.8212 39.5388C59.6811 39.5383 64.541 39.5384 69.4008 39.5384C69.481 39.5384 69.5613 39.5366 69.6414 39.5391C70.2745 39.5594 70.7229 39.9732 70.7172 40.5313C70.7117 41.082 70.2959 41.4824 69.6729 41.4964C68.9354 41.5129 68.1973 41.5017 67.4595 41.5018C65.6792 41.5021 63.8988 41.5019 62.1185 41.5019Z" fill="#1B5A90"/>
<path fill-rule="evenodd" clip-rule="evenodd" d="M59.0882 47.9007C57.5811 47.9006 56.074 47.9084 54.567 47.8969C53.9584 47.8921 53.5277 47.4768 53.5147 46.9329C53.5017 46.3843 53.9134 45.9762 54.5279 45.9343C54.6716 45.9245 54.8164 45.9295 54.9606 45.9295C57.6381 45.9293 60.3155 45.9293 62.993 45.9294C63.1694 45.9294 63.3459 45.9244 63.522 45.9318C64.1844 45.96 64.591 46.3386 64.5875 46.9188C64.5841 47.5004 64.1696 47.8939 63.5131 47.898C62.0383 47.9072 60.5632 47.9009 59.0882 47.9007Z" fill="#1B5A90"/>
<path fill-rule="evenodd" clip-rule="evenodd" d="M77.4077 56.4074C77.7926 56.0427 78.1634 55.6937 78.5318 55.3422C80.0517 53.8917 81.5655 52.4345 83.0971 50.9965C83.295 50.8108 83.571 50.6619 83.8347 50.6034C84.2268 50.5165 84.5632 50.7003 84.7649 51.0542C84.974 51.4213 84.9501 51.7947 84.6947 52.1365C84.5996 52.2638 84.4796 52.3737 84.3639 52.4843C82.336 54.4247 80.3072 56.3641 78.2781 58.3033C77.6185 58.9336 77.1544 58.9297 76.5105 58.2869C75.3642 57.1422 74.2133 56.002 73.076 54.8485C72.4835 54.2475 72.6615 53.3821 73.409 53.1511C73.8459 53.016 74.1871 53.1927 74.4892 53.4971C75.3367 54.3509 76.1869 55.2017 77.037 56.0529C77.1487 56.1649 77.2656 56.2718 77.4077 56.4074Z" fill="#1B5A90"/>
</g>
<defs>
<clipPath id="clip0_1385_190364">
<rect width="44" height="46.1901" fill="white" transform="translate(45.5 19)"/>
</clipPath>
</defs>
</svg>
