<svg width="100" height="74" viewBox="0 0 100 74" fill="none" xmlns="http://www.w3.org/2000/svg">
<path d="M76.451 34.1635C76.1011 37.5682 75.1591 40.5961 77.0162 43.1126C78.9406 45.7098 81.7801 44.7947 83.9332 47.0152C87.5128 50.689 87.4724 59.8399 83.3276 63.3926C77.4065 68.4659 68.4709 57.4849 51.9724 59.3285C38.6901 60.8088 32.3383 69.3003 27.4937 65.7072C24.2909 63.3387 23.5238 57.0408 25.5963 53.192C27.7629 49.1414 34.0608 47.9303 33.6437 45.9251C33.5225 45.3465 33.0112 45.3868 32.6344 44.5525C31.8538 42.8434 33.3072 41.0402 34.1416 38.9408C34.3031 38.5371 34.2627 38.564 34.6395 29.938C35.0701 20.3834 34.7741 21.5407 34.9759 19.9931C35.8506 13.426 40.9105 8.09694 44.5844 7.4779C44.7189 7.45099 44.867 7.43753 44.8939 7.43753C48.4062 6.99345 51.2457 8.97166 51.9724 9.44266C57.3149 12.8473 65.7122 8.94475 71.2296 13.7086C76.3837 18.136 77.0431 28.4981 76.451 34.1635Z" fill="#302C2A"/>
<path d="M16.8079 53.7429C16.7406 53.7429 16.7541 52.5183 16.3369 50.9842C16.0947 50.0826 15.9332 49.5039 15.4218 49.006C14.7086 48.2928 13.78 48.1716 13.3359 48.1447C13.6724 48.0102 14.1972 47.7545 14.6682 47.27C15.3276 46.5702 15.516 45.7763 15.7179 44.915C15.839 44.3633 15.9735 43.5289 15.9197 42.5062C15.9063 42.3312 16.0274 45.0227 17.5615 46.3549C18.2882 46.9874 19.1629 47.1624 19.6877 47.2296C19.1764 47.3911 18.3151 47.7545 17.7499 48.5888C17.5077 48.9522 17.3462 49.3155 17.2251 50.2441C16.9425 52.2492 16.8886 53.7295 16.8079 53.7429Z" fill="#232120"/>
<path d="M12.3942 67.8205C12.3539 67.8205 12.3673 67.0804 12.1116 66.1518C11.9636 65.6001 11.8694 65.2637 11.5599 64.9541C11.1293 64.5235 10.5641 64.4427 10.2949 64.4293C10.4968 64.3485 10.8197 64.2005 11.1023 63.9045C11.5061 63.4873 11.6137 63.0028 11.7348 62.478C11.8156 62.1416 11.8963 61.6436 11.8559 61.0246C11.8559 60.917 11.9232 62.5453 12.8518 63.3527C13.2959 63.743 13.8207 63.8507 14.1437 63.8776C13.8342 63.9718 13.3093 64.1871 12.9729 64.6984C12.8249 64.9138 12.7307 65.1425 12.6499 65.6943C12.475 66.9189 12.4346 67.8071 12.3942 67.8205Z" fill="#232120"/>
<path d="M96.3405 51.0239C96.2732 51.0239 96.3002 49.8531 95.8964 48.3593C95.6542 47.4846 95.5062 46.9329 95.0217 46.4484C94.3354 45.7621 93.4338 45.641 93.0166 45.6141C93.3396 45.493 93.8509 45.2507 94.295 44.7663C94.941 44.0934 95.1159 43.3264 95.3043 42.5055C95.4254 41.9672 95.5465 41.1732 95.5062 40.1908C95.4927 40.0293 95.6004 42.6131 97.0941 43.905C97.7939 44.5106 98.6282 44.6855 99.1396 44.7393C98.6417 44.8874 97.8074 45.2373 97.2825 46.0447C97.0538 46.3946 96.8923 46.7445 96.7712 47.6327C96.4751 49.5974 96.4213 51.0239 96.3405 51.0239Z" fill="#232120"/>
<path d="M93.9846 59.3678C93.9442 59.3678 93.9577 58.7084 93.7289 57.8606C93.5943 57.3627 93.5001 57.0532 93.231 56.784C92.8407 56.3938 92.3294 56.3265 92.1006 56.313C92.289 56.2457 92.5716 56.0977 92.8273 55.842C93.1906 55.4652 93.2848 55.0346 93.3925 54.5636C93.4598 54.2675 93.527 53.81 93.5001 53.2582C93.5001 53.164 93.554 54.6309 94.3883 55.3576C94.7786 55.7074 95.263 55.8017 95.5456 55.8286C95.263 55.9093 94.792 56.1112 94.496 56.5687C94.3614 56.7706 94.2807 56.959 94.2134 57.4703C94.0653 58.5604 94.0384 59.3678 93.9846 59.3678Z" fill="#232120"/>
<path d="M90.2178 73.3226C88.7375 73.3091 86.4767 73.2957 83.7045 73.3226C74.6881 73.4437 72.0371 73.9685 66.3581 73.982C58.7952 73.9954 59.9794 73.0804 51.6763 72.9592C44.4095 72.8516 42.4985 73.5244 34.7337 73.5379C29.149 73.5513 24.6004 73.2015 21.6533 72.9189C22.1243 70.6042 23.1471 67.4821 25.6905 65.0195C30.7908 60.0941 37.1829 62.5299 42.3505 58.6542C45.0823 56.6087 47.9756 52.4908 48.3524 43.3803C48.7023 43.3668 49.0522 43.3399 49.3886 43.2996C51.4879 43.1515 53.5738 43.0035 55.6597 42.8555C57.7455 43.0035 59.8314 43.1515 61.9173 43.2996C62.2672 43.3265 62.6036 43.3534 62.9535 43.3803C63.3303 52.4774 66.2101 56.6087 68.9554 58.6542C74.096 62.503 80.2729 60.1614 85.6154 65.0195C88.4145 67.5629 89.6256 70.8734 90.2178 73.3226Z" fill="#FFDEAD"/>
<path d="M61.7817 46.6238C61.7817 49.6382 59.0365 52.0874 55.6453 52.0874C52.2541 52.0874 49.5088 49.6382 49.5088 46.6238C49.5088 43.6094 52.2541 41.1602 55.6453 41.1602C59.0365 41.1602 61.7817 43.5959 61.7817 46.6238Z" fill="#232120"/>
<path d="M55.6997 9.90013C54.3675 9.88667 53.1967 9.95396 52.1067 10.0885C46.0778 10.8018 41.5293 15.9155 41.5293 21.9847V34.325C41.8388 35.8725 43.1038 41.1208 47.9753 44.8754C50.8013 47.042 53.6677 47.8225 55.3229 48.132C55.4306 48.132 55.5382 48.132 55.6459 48.1186C55.7536 48.1186 55.8612 48.132 55.9689 48.132C57.6241 47.8225 60.504 47.0555 63.3165 44.8754C68.188 41.1343 69.453 35.886 69.7625 34.325V21.9847C69.7625 15.9155 65.214 10.8018 59.1851 10.0885C58.0816 9.95396 56.9243 9.88667 55.6997 9.90013Z" fill="#FFDEAD"/>
<path d="M44.0594 30.2467C44.0594 32.7228 42.5791 34.7414 40.7489 34.7414C38.9188 34.7414 37.4385 32.7228 37.4385 30.2467C37.4385 27.7705 38.9188 25.752 40.7489 25.752C42.5791 25.752 44.0594 27.7571 44.0594 30.2467Z" fill="#FFDEAD"/>
<path d="M73.8534 30.2467C73.8534 32.7228 72.3731 34.7414 70.5429 34.7414C68.7127 34.7414 67.2324 32.7228 67.2324 30.2467C67.2324 27.7705 68.7127 25.752 70.5429 25.752C72.3731 25.752 73.8534 27.7571 73.8534 30.2467Z" fill="#FFDEAD"/>
<path d="M54.2061 35.8577C54.6905 35.5886 55.1615 35.5213 55.646 35.5078C56.1304 35.5213 56.6014 35.5751 57.0859 35.8577C56.6014 36.1269 56.1304 36.1941 55.646 36.2076C55.1615 36.1941 54.6905 36.1403 54.2061 35.8577Z" fill="#232120"/>
<path d="M52.8857 62.2605C53.5182 63.0545 54.541 63.4313 55.5099 63.2295C56.896 62.9469 57.4208 61.6684 57.4612 61.5742L52.8857 62.2605Z" fill="#232120"/>
<path d="M57.7578 64.6426C58.0942 64.8041 58.6191 65.0194 59.265 65.2213C61.4586 65.9076 63.3022 65.773 64.5806 65.6654C69.2234 65.2751 73.5162 64.6292 74.9561 64.4004C71.6322 64.508 68.2948 64.6292 64.9709 64.7368L57.7578 64.6426Z" fill="#232120"/>
<path d="M53.5323 64.6426C53.1959 64.8041 52.671 65.0194 52.0251 65.2213C49.8316 65.9076 47.9879 65.773 46.7095 65.6654C42.0668 65.2751 37.7739 64.6292 36.334 64.4004C39.6579 64.508 42.9953 64.6292 46.3192 64.7368L53.5323 64.6426Z" fill="#232120"/>
<path d="M55.8073 44.6187C55.7669 44.6187 55.74 44.6187 55.6996 44.6187C55.2286 44.6052 54.7576 44.4976 54.3135 44.2957C54.1386 44.215 54.0713 44.0131 54.1521 43.8516C54.2328 43.6767 54.4347 43.6094 54.5962 43.6901C54.9595 43.8516 55.3363 43.9458 55.7266 43.9593C56.1437 43.9727 56.5609 43.892 56.9646 43.7305C57.1396 43.6632 57.328 43.7305 57.4087 43.9055C57.476 44.0804 57.4087 44.2688 57.2338 44.3496C56.7628 44.5245 56.2918 44.6187 55.8073 44.6187Z" fill="#020202"/>
<path d="M55.5107 41.4976C53.048 41.4976 51.1909 40.5018 50.2758 39.8962C50.1278 39.7886 50.074 39.5867 50.1816 39.4252C50.2893 39.2772 50.4911 39.2368 50.6526 39.331C51.5677 39.9501 53.4652 40.9728 56.0086 40.8113C58.0406 40.6902 59.5613 39.8962 60.4898 39.2503C60.6379 39.1426 60.8532 39.183 60.9608 39.331C61.0685 39.4791 61.0281 39.6944 60.8801 39.802C59.8843 40.5018 58.2425 41.3631 56.049 41.4842C55.8606 41.4842 55.6856 41.4976 55.5107 41.4976Z" fill="#020202"/>
<path d="M58.8357 40.3131C58.3647 40.6092 57.1535 41.282 55.4714 41.282C53.8969 41.282 52.753 40.6764 52.2686 40.3938C52.9683 40.1247 54.0718 39.7883 55.4714 39.7613C56.9382 39.7344 58.109 40.0574 58.8357 40.3131Z" fill="#0E82FD"/>
<path d="M59.8301 40.3136C59.709 40.3674 59.5072 40.4347 59.2515 40.502C57.7443 40.8384 57.2194 39.9502 55.7526 39.9233C54.2723 39.8964 53.7744 40.798 52.173 40.4616C51.85 40.3943 51.5943 40.3001 51.4463 40.2328C51.7423 39.6945 52.4421 38.6179 53.7744 37.9585C54.205 37.7432 54.9721 37.3664 56.0083 37.4337C57.4078 37.5145 58.3364 38.3623 58.6728 38.6718C59.3188 39.2639 59.6552 39.9098 59.8301 40.3136Z" fill="#BC5E5C"/>
<path d="M59.7903 40.2868C59.252 39.7889 57.8928 41.0539 55.955 41.175C53.6942 41.3095 51.8909 39.7081 51.4468 40.233C51.2988 40.4079 51.8371 42.5072 53.896 43.207C54.6496 43.4627 55.2418 43.5165 55.7397 43.5165C56.426 43.5031 57.6506 43.4358 58.7945 42.4938C59.9787 41.5249 60.0056 40.4886 59.7903 40.2868Z" fill="#BC5E5C"/>
<path d="M66.586 29.6945C66.1688 30.1386 65.1326 31.1344 63.4505 31.5381C61.082 32.1033 59.1845 31.0671 58.7539 30.8115C58.7943 29.2235 59.5613 27.7701 60.7859 27.1511C62.6027 26.236 65.3614 27.1645 66.586 29.6945Z" fill="#BC5E5C"/>
<path d="M61.9575 32.0083C61.7018 32.0083 61.4326 31.9948 61.1635 31.9545C60.2349 31.8334 59.3468 31.5104 58.5259 30.9856C58.3644 30.8914 58.324 30.676 58.4182 30.528C58.5124 30.3665 58.7277 30.3262 58.8758 30.4204C59.6159 30.8914 60.4099 31.174 61.2442 31.2816C63.9895 31.618 66.0754 29.8148 66.6406 29.263C66.7751 29.1285 66.9905 29.1285 67.1116 29.263C67.2461 29.3976 67.2461 29.6129 67.1116 29.734C66.5598 30.2993 64.6085 32.0083 61.9575 32.0083Z" fill="#020202"/>
<path d="M44.5293 29.6945C44.9465 30.1386 45.9827 31.1344 47.6648 31.5381C50.0333 32.1033 51.9308 31.0671 52.3614 30.8115C52.321 29.2235 51.554 27.7701 50.3294 27.1511C48.5126 26.236 45.7539 27.1645 44.5293 29.6945Z" fill="#BC5E5C"/>
<path d="M49.1728 32.0085C46.5217 32.0085 44.5704 30.3129 44.0052 29.7477C43.8707 29.6131 43.8707 29.4113 44.0052 29.2767C44.1398 29.1421 44.3551 29.1421 44.4762 29.2767C45.0414 29.8419 47.1273 31.6452 49.8726 31.2953C50.7069 31.1876 51.5009 30.8916 52.241 30.434C52.3891 30.3398 52.6044 30.3802 52.6986 30.5417C52.7928 30.7032 52.7524 30.905 52.5909 30.9992C51.77 31.5241 50.8819 31.847 49.9533 31.9682C49.6842 31.9816 49.4285 32.0085 49.1728 32.0085Z" fill="#020202"/>
<path d="M68.2278 25.9938C66.9763 25.792 65.2269 25.6305 63.1545 25.8189C61.3781 25.9804 59.9113 26.3572 58.8213 26.707C58.8078 26.4783 58.8213 26.1957 58.8751 25.8996C59.0097 25.1729 59.3326 24.6212 59.5883 24.2713C61.0013 24.1502 62.1721 24.1367 63.0334 24.1367C65.1327 24.1502 65.7114 24.3117 66.1016 24.4462C67.1782 24.8499 67.851 25.5363 68.2278 25.9938Z" fill="#302C2A"/>
<path d="M58.7942 24.2973C58.6866 24.5261 58.5386 24.8625 58.4444 25.2797C58.2829 26.0199 58.3501 26.7196 58.4309 26.7331C58.5251 26.7331 58.6866 25.8718 58.7404 25.6161C58.8212 25.2393 58.8615 24.9029 59.0634 24.4588C59.1172 24.3512 59.1576 24.257 59.1845 24.2031L58.7942 24.2973Z" fill="#302C2A"/>
<path d="M43.2246 24.2982C44.503 24.3117 46.2525 24.4462 48.2576 24.9845C49.9801 25.4421 51.3662 26.0611 52.3755 26.5859C52.4293 26.3572 52.4697 26.088 52.4562 25.7785C52.4562 25.0384 52.214 24.4328 52.0256 24.056C50.653 23.7061 49.4957 23.4908 48.6479 23.3428C46.5755 22.9929 45.9699 23.0601 45.5661 23.1409C44.4492 23.3562 43.6687 23.9214 43.2246 24.2982Z" fill="#302C2A"/>
<path d="M52.8065 24.2177C52.8738 24.4599 52.968 24.8098 52.9814 25.2405C53.0084 25.9941 52.8334 26.6804 52.7526 26.6669C52.6584 26.6535 52.645 25.7653 52.6315 25.5096C52.6181 25.1193 52.6315 24.7829 52.5104 24.3119C52.4835 24.1908 52.4431 24.0966 52.4297 24.0293L52.8065 24.2177Z" fill="#302C2A"/>
<path d="M53.3845 13.157C51.9311 12.8879 50.6527 12.0401 49.4685 11.1384C48.8764 10.6809 48.2977 10.2099 47.6383 9.87348C46.9789 9.52359 46.2253 9.32173 45.4851 9.42939C44.745 9.53705 44.099 9.96768 43.48 10.3983C42.4169 11.1385 41.2999 12.0132 41.0173 13.2781C40.8155 14.2202 41.125 15.1756 41.125 16.1311C41.1385 18.2304 39.712 20.1009 39.6313 22.2003C39.564 23.7478 40.2907 25.3223 41.5287 26.2643C41.6768 23.8151 42.2554 22.0657 42.7668 20.8949C43.2512 19.7914 43.5742 19.4415 43.8568 18.338C44.4086 16.1176 43.655 15.2967 44.3278 14.3547C45.1218 13.2512 46.9654 13.157 48.661 13.2647C50.1817 13.3589 51.6889 13.7088 53.2096 13.7222C54.1247 13.7357 55.9683 13.6415 56.5739 12.8475C56.3586 12.5918 55.4838 13.1167 55.1609 13.1839C54.5822 13.2647 53.9766 13.2647 53.3845 13.157Z" fill="#302C2A"/>
<path d="M60.6111 12.644C61.8087 12.1595 62.8988 11.4463 64.0561 10.8946C65.2134 10.3428 66.5457 9.96602 67.7972 10.2486C69.4524 10.612 70.7039 12.0653 71.2153 13.6802C71.7267 15.2951 71.619 17.031 71.3364 18.6997C71.0538 20.3684 70.6232 22.0102 70.5021 23.6923C70.4348 24.594 70.3944 25.6571 69.6274 26.1685C69.6139 24.0422 69.0218 22.6831 68.4566 21.8218C67.7434 20.7452 67.1512 20.5434 66.909 19.5206C66.5457 18.0134 67.5819 17.4213 67.1782 16.0621C66.8148 14.851 65.6037 14.2319 64.9443 13.8148C64.0426 13.2496 62.9661 12.9266 61.9164 13.1015C61.0417 13.2361 60.2342 13.7071 59.3461 13.8148C58.7674 13.8955 58.1753 13.8013 57.637 13.586C57.4217 13.5053 56.5604 13.1554 57.1256 13.0612C57.6101 12.9804 58.1753 13.1688 58.6732 13.1285C59.3595 13.0612 60.0055 12.8862 60.6111 12.644Z" fill="#302C2A"/>
<path d="M44.1263 10.5177C47.1811 14.0031 52.0526 12.0922 54.3 15.3219C54.6902 15.8871 55.0132 16.6138 55.7264 16.7484C56.6819 16.9233 57.3817 15.8737 58.6063 14.824C60.6114 13.1015 63.3701 11.9172 65.7924 11.8634C68.1878 11.8096 69.372 12.8862 69.7085 12.4286C70.2333 11.7019 67.959 8.24342 64.5947 7.05919C60.5576 5.64618 56.7357 8.14923 56.1301 8.56641C55.5515 7.82626 54.448 6.61511 52.6986 5.88842C48.7556 4.23318 43.4804 5.80767 43.0094 7.98774C42.7671 8.97011 43.615 9.93904 44.1263 10.5177Z" fill="#302C2A"/>
<path d="M76.4907 27.1649C74.5933 17.1931 65.9537 9.88589 55.9281 9.67057C46.1582 9.46871 37.3841 16.0627 34.8138 25.6039C34.585 24.0429 34.4235 21.7148 34.9214 19.0099C36.3075 11.5277 42.3633 3.48027 50.4645 2.47098C51.9313 2.28258 54.1787 2.24221 56.9509 3.14384C58.2024 2.90161 63.0066 2.12109 67.6224 4.98747C68.7125 5.66033 73.1533 8.62092 73.88 13.5463C74.0146 14.4613 73.9473 14.9189 73.9339 15.8878C73.9204 18.485 74.351 22.28 76.4907 27.1649Z" fill="#302C2A"/>
<path d="M56.1572 14.703C54.3809 18.8613 46.966 12.8728 44.14 12.5095C42.3367 12.2672 38.6629 12.9401 38.6494 15.2278C38.6494 15.4835 39.0397 15.4835 39.0397 15.2278C39.0531 11.3118 46.2258 13.5457 47.4639 14.1647C48.9576 14.9183 50.3572 15.497 51.9451 16.0891C54.3674 16.9907 55.3902 17.5156 56.4937 14.9183C56.5879 14.6761 56.2514 14.4742 56.1572 14.703Z" fill="#302C2A"/>
<path d="M55.6855 15.4704C56.5602 16.7892 58.5115 15.6453 59.6823 15.2147C61.3913 14.5957 62.9658 13.8824 64.8229 14.3669C66.0341 14.6764 67.3798 14.9994 68.5775 15.3627C68.8197 15.4435 68.9274 15.0532 68.6851 14.9859C67.6624 14.6764 66.6127 14.5284 65.5765 14.2054C64.5268 13.869 63.6118 13.6671 62.5083 13.8555C61.3375 14.0574 56.8966 16.5873 56.0219 15.282C55.8873 15.0667 55.5509 15.2685 55.6855 15.4704Z" fill="#302C2A"/>
<path d="M55.5248 15.8875C55.2826 16.7757 51.7298 13.6671 51.3665 13.3307C50.6129 12.6578 49.8324 12.1464 48.9308 11.6754C47.1679 10.7469 45.3915 10.3163 43.4133 10.1009C43.1576 10.074 43.1711 10.4643 43.4133 10.4912C47.1544 10.8814 49.644 12.4425 52.3758 14.8917C53.3985 15.8068 54.3675 16.372 55.7536 16.1701C55.8209 16.1567 55.8747 16.0894 55.8881 16.0355C55.9823 15.7395 55.5921 15.6453 55.5248 15.8875Z" fill="#302C2A"/>
<path d="M41.2868 9.46941C40.4121 12.9952 38.2186 15.3367 36.8594 18.5665C35.8905 20.8677 35.581 23.3841 34.787 25.7392C34.0469 27.9461 33.2663 29.4533 33.4817 31.8756C33.7912 35.4149 36.4826 38.2544 36.4557 41.8071C36.4557 42.0627 36.846 42.0627 36.846 41.8071C36.8594 39.5597 35.8501 37.8372 35.0158 35.8051C33.4413 31.916 34.2218 28.9285 35.433 25.147C36.2673 22.5229 36.5365 19.7911 37.8418 17.315C39.2952 14.5428 40.8831 12.6588 41.6502 9.5636C41.7309 9.33483 41.3541 9.22718 41.2868 9.46941Z" fill="#302C2A"/>
<path d="M35.0422 33.7459C34.6251 37.6619 30.561 38.9942 29.8881 42.345C29.619 43.6504 30.6013 44.7404 30.063 46.0323C29.4844 47.4184 26.9141 48.7103 25.9317 49.7734C23.1595 52.8282 25.4876 56.2732 28.8923 57.6593C29.121 57.7535 29.2287 57.3767 28.9999 57.2825C24.3976 55.412 25.1915 51.6574 27.6542 48.7641C28.3136 47.9836 29.8747 47.2435 30.3457 46.3015C30.6013 45.8035 30.6282 45.7632 30.8436 45.2114C31.2742 44.081 30.7494 41.8471 31.4761 40.5149C31.8529 39.8151 32.8756 39.1826 33.4004 38.5232C34.5712 37.0294 35.2441 35.5895 35.4459 33.7324C35.4594 33.5037 35.0691 33.5037 35.0422 33.7459Z" fill="#302C2A"/>
<path d="M72.9374 16.4809C76.7324 22.7654 78.4145 28.7134 78.3876 36.0342C78.3876 37.4203 78.0915 39.237 78.5626 40.5558C78.7375 41.0537 79.0605 41.5247 79.222 42.0092C79.666 42.3725 80.0967 42.7358 80.5408 43.0992C83.138 48.2802 82.2767 52.129 77.9301 54.6186C77.7282 54.7666 77.9301 55.103 78.1319 54.955C80.3793 53.2863 82.815 51.1332 82.9631 48.0784C83.0976 45.212 80.9983 43.2876 79.7872 40.9729C77.6475 36.8685 79.222 31.5933 78.0646 27.0178C77.0957 23.196 75.3059 19.6568 73.2739 16.2925C73.1393 16.0637 72.8029 16.2655 72.9374 16.4809Z" fill="#302C2A"/>
<path d="M75.3463 30.1393C74.337 33.5575 73.3277 39.4786 76.046 42.3988C78.0781 44.5789 92.881 47.9028 86.4754 52.7474C86.2735 52.8954 86.4754 53.2453 86.6772 53.0838C88.9649 51.3479 89.6647 49.4369 87.3232 47.6068C84.9816 45.7631 81.9134 45.1576 79.343 43.7446C74.0409 40.8243 74.1755 35.4684 75.7231 30.2335C75.7903 29.9913 75.4135 29.8971 75.3463 30.1393Z" fill="#302C2A"/>
<path d="M36.1866 37.0691C35.433 38.9934 34.2218 40.6218 34.0738 42.748C33.9796 44.1072 35.433 46.6506 35.0562 47.6733C34.3429 49.6515 29.7002 49.2075 27.9104 49.7727C26.457 50.2302 25.4343 50.7685 24.3846 51.8585C19.0556 57.4433 23.2407 61.9918 29.8482 62.234C30.1039 62.2475 30.1039 61.8572 29.8482 61.8438C26.0264 61.7092 21.3971 59.6368 23.2542 54.1732C24.1289 51.6163 27.1837 50.4321 29.5791 49.8534C30.8979 49.5439 33.8046 50.0418 34.9485 49.046C35.9847 48.1443 35.3118 48.6153 35.4464 47.5657C35.6752 45.6548 34.2487 43.515 34.7197 41.3754C35.0427 39.8951 36.0251 38.5763 36.5768 37.1633C36.6576 36.9345 36.2808 36.8403 36.1866 37.0691Z" fill="#302C2A"/>
<path d="M56.9373 3.85782C54.9187 2.33716 52.0927 1.24712 49.5359 1.74503C48.2305 2.00072 47.0866 2.60629 45.9832 3.31952C44.1664 4.50376 41.9729 5.82258 40.2504 7.18175C36.1325 10.4384 33.5891 20.0872 35.5135 24.9318C35.6077 25.1606 35.9845 25.0664 35.8903 24.8241C33.8044 19.5624 36.7784 10.0616 41.3539 6.93951C46.1446 3.66941 51.1373 -0.0178499 56.7355 4.19425C56.9373 4.35574 57.1392 4.00585 56.9373 3.85782Z" fill="#302C2A"/>
<path d="M56.9912 3.85813C61.3782 1.22052 69.5468 3.68318 71.7134 8.3932C72.3055 9.68509 72.8841 11.744 73.2609 13.1167C74.0818 15.9965 72.9514 17.7459 71.9556 20.249C71.8614 20.4778 72.2382 20.5854 72.3324 20.3566C73.5301 17.3422 74.6067 15.835 73.5032 12.6188C72.7765 10.5194 72.4804 8.01639 70.8117 6.45536C67.2052 3.06414 61.4455 0.736052 56.7893 3.53515C56.574 3.65626 56.7759 3.9927 56.9912 3.85813Z" fill="#302C2A"/>
<path d="M14.0628 20.3558C12.0981 18.5526 9.94495 16.3187 7.83217 13.5869C4.5217 9.32093 2.31471 5.17612 0.861328 1.81182C2.54348 1.20624 3.92958 1.07166 4.91196 1.04475C6.72868 1.01783 7.11893 1.42156 8.85491 1.16588C9.8642 1.01785 10.4429 0.762162 11.6136 0.789076C12.4749 0.802533 13.1747 0.950544 13.6322 1.08512C14.332 2.57886 15.0452 4.12645 15.7315 5.7144C16.9831 8.58078 18.1 11.3799 19.1093 14.0848C17.4137 16.1841 15.7315 18.27 14.0628 20.3558Z" fill="#FFDEAD"/>
<path d="M49.7919 33.7986L47.4638 35.4269L40.4795 25.4955L42.9422 23.9883L49.7919 33.7986Z" fill="#BCD2E8"/>
<path d="M47.3834 35.6562C47.3296 35.6562 47.2758 35.6293 47.2488 35.5889L37.3847 21.4588C37.3578 21.4185 37.3444 21.3781 37.3578 21.3377C37.3713 21.2974 37.3847 21.257 37.4251 21.2301L39.8339 19.5479C39.9147 19.4941 40.0089 19.5075 40.0627 19.5883L49.9268 33.7184C49.9538 33.7587 49.9672 33.7991 49.9538 33.8395C49.9403 33.8799 49.9268 33.9202 49.8865 33.9471L47.4776 35.6293C47.4507 35.6427 47.4103 35.6562 47.3834 35.6562ZM37.7481 21.405L47.4238 35.2525L49.5635 33.7587L39.8878 19.9113L37.7481 21.405Z" fill="#020202"/>
<path d="M39.2421 24.0158C39.1882 24.0158 39.1344 23.9888 39.1075 23.9485C39.0537 23.8677 39.0671 23.7735 39.1479 23.7197L40.036 23.1007C40.1168 23.0468 40.211 23.0603 40.2648 23.141C40.3186 23.2218 40.3052 23.316 40.2244 23.3698L39.3228 23.9888C39.3094 24.0023 39.269 24.0158 39.2421 24.0158Z" fill="#020202"/>
<path d="M40.036 25.1464C39.9822 25.1464 39.9284 25.1195 39.9014 25.0792C39.8476 24.9984 39.8611 24.9042 39.9418 24.8504L41.3683 23.8546C41.449 23.8007 41.5432 23.8142 41.597 23.8949C41.6509 23.9757 41.6374 24.0699 41.5567 24.1237L40.1302 25.1195C40.1033 25.1464 40.0764 25.1464 40.036 25.1464Z" fill="#020202"/>
<path d="M40.8299 26.2892C40.7761 26.2892 40.7223 26.2623 40.6954 26.2219C40.6416 26.1412 40.655 26.047 40.7358 25.9931L41.6239 25.3741C41.7047 25.3203 41.7989 25.3337 41.8527 25.4145C41.9065 25.4952 41.8931 25.5894 41.8123 25.6432L40.9107 26.2623C40.8972 26.2892 40.8703 26.2892 40.8299 26.2892Z" fill="#020202"/>
<path d="M41.6376 27.4336C41.5837 27.4336 41.5299 27.4067 41.503 27.3663C41.4492 27.2855 41.4626 27.1913 41.5434 27.1375L42.9698 26.1417C43.0506 26.0878 43.1448 26.1013 43.1986 26.182C43.2524 26.2628 43.239 26.357 43.1582 26.4108L41.7318 27.4067C41.7049 27.4201 41.6645 27.4336 41.6376 27.4336Z" fill="#020202"/>
<path d="M42.3915 28.5099C42.3376 28.5099 42.2838 28.483 42.2569 28.4426C42.2031 28.3618 42.2165 28.2676 42.2973 28.2138L43.1854 27.5948C43.2662 27.541 43.3604 27.5544 43.4142 27.6352C43.4681 27.7159 43.4546 27.8101 43.3738 27.8639L42.4722 28.483C42.4587 28.5099 42.4184 28.5099 42.3915 28.5099Z" fill="#020202"/>
<path d="M43.1844 29.6543C43.1306 29.6543 43.0768 29.6274 43.0499 29.587C42.996 29.5062 43.0095 29.412 43.0902 29.3582L44.5167 28.3624C44.5974 28.3085 44.6916 28.322 44.7455 28.4027C44.7993 28.4835 44.7858 28.5777 44.7051 28.6315L43.2786 29.6274C43.2517 29.6408 43.2248 29.6543 43.1844 29.6543Z" fill="#020202"/>
<path d="M43.9784 30.7989C43.9246 30.7989 43.8707 30.772 43.8438 30.7317C43.79 30.6509 43.8034 30.5567 43.8842 30.5029L44.7724 29.8839C44.8531 29.83 44.9608 29.8435 45.0011 29.9242C45.055 30.005 45.0415 30.0992 44.9608 30.153L44.0726 30.772C44.0457 30.7855 44.0188 30.7989 43.9784 30.7989Z" fill="#020202"/>
<path d="M44.786 31.9414C44.7322 31.9414 44.6784 31.9145 44.6514 31.8741C44.5976 31.7934 44.6111 31.6992 44.6918 31.6453L46.1183 30.6495C46.199 30.5957 46.2932 30.6091 46.347 30.6899C46.4009 30.7706 46.3874 30.8648 46.3067 30.9186L44.8802 31.9145C44.8533 31.9279 44.8129 31.9414 44.786 31.9414Z" fill="#020202"/>
<path d="M35.5003 18.5257C35.4464 18.5257 35.3926 18.4988 35.3522 18.445C35.2984 18.3643 35.3253 18.2566 35.406 18.2162L38.0706 16.5475C38.1513 16.4937 38.259 16.5206 38.2994 16.6014C38.3532 16.6821 38.3263 16.7898 38.2455 16.8301L35.581 18.4988C35.5541 18.5257 35.5272 18.5257 35.5003 18.5257Z" fill="#020202"/>
<path d="M40.3989 25.6304C40.3451 25.6304 40.2912 25.6035 40.2643 25.5497C40.2105 25.469 40.2374 25.3748 40.3182 25.3209L42.7808 23.733C42.8616 23.6926 42.9692 23.7061 43.0096 23.7868C43.0634 23.8676 43.0365 23.9618 42.9558 24.0156L40.4931 25.6035C40.4662 25.6304 40.4393 25.6304 40.3989 25.6304Z" fill="#020202"/>
<path d="M41.5023 24.7019C41.4485 24.7019 41.3947 24.675 41.3678 24.6346L36.6712 17.8118C36.6174 17.7311 36.6443 17.6369 36.7116 17.5831C36.7923 17.5293 36.8865 17.5427 36.9404 17.6234L41.6369 24.4462C41.6908 24.527 41.6638 24.6212 41.5966 24.675C41.5562 24.6885 41.5293 24.7019 41.5023 24.7019Z" fill="#020202"/>
<path d="M54.2055 42.9227C54.1516 42.9227 54.0978 42.8957 54.0709 42.8554L49.3743 36.0326C49.3205 35.9518 49.3474 35.8576 49.4147 35.8038C49.4955 35.75 49.6031 35.7634 49.6435 35.8442L54.34 42.667C54.3939 42.7477 54.367 42.8419 54.2997 42.8957C54.2728 42.9092 54.2324 42.9227 54.2055 42.9227Z" fill="#020202"/>
<path d="M49.4829 34.2441C49.7521 34.6748 49.6309 35.2534 49.2138 35.5226C48.7831 35.8052 48.2045 35.6706 47.9219 35.24L49.4829 34.2441Z" fill="#232120"/>
<path d="M49.6712 35.1866C49.8461 35.375 49.7923 35.7114 49.5769 35.8864C49.3616 36.0479 49.0118 36.0075 48.8772 35.7922C48.7695 35.6172 48.8368 35.3885 48.9579 35.2539C49.1329 35.0386 49.4962 34.9848 49.6712 35.1866Z" fill="#232120"/>
<path d="M21.2492 13.1152C23.6042 12.254 25.9458 11.4062 28.3008 10.5449C29.7945 12.0252 31.9881 13.7074 34.9217 14.3668C38.461 15.1607 41.287 14.0707 41.4889 14.7166C41.7042 15.3626 39.1473 17.112 36.3347 17.7714C33.3338 18.4847 30.6962 17.7984 29.2159 17.2735C29.4447 19.4132 29.6734 21.5394 29.9157 23.6791C32.2976 24.8903 34.693 26.088 37.0749 27.2991C39.1069 26.4917 46.0508 23.7599 46.6564 24.8634C47.2754 25.9938 40.9371 30.5692 39.2146 31.7938C38.609 31.74 37.99 31.6727 37.371 31.6054C34.7064 31.3094 32.1496 30.9326 29.6734 30.5019C25.421 26.1956 21.1685 21.8759 16.916 17.5696C18.3829 16.0893 19.8093 14.609 21.2492 13.1152Z" fill="#0E82FD"/>
<path d="M43.9653 27.6753C41.8257 29.1825 39.6994 30.6763 37.5597 32.1835C38.0307 32.7352 38.5152 33.2735 38.9862 33.8253C38.246 34.3635 37.5059 34.9153 36.7658 35.4536C33.5764 34.8884 30.387 34.3097 27.1977 33.7445C22.6357 29.4786 18.0737 25.2127 13.5117 20.9467C15.3419 19.5068 17.1586 18.0669 18.9888 16.627C23.3758 18.9012 25.7712 21.4985 27.1573 23.5036C28.2204 25.0377 29.0952 26.8141 31.3425 28.2809C33.4957 29.6804 35.5815 29.9361 36.1736 29.99C40.1704 30.3668 43.1445 28.2944 43.9653 27.6753Z" fill="#0E82FD"/>
<path d="M39.6049 31.1617C40.0356 32.4132 39.8337 33.6647 39.0801 34.351C38.9051 34.499 38.6091 34.7144 38.1246 34.8355C38.1381 34.9028 38.2457 35.4276 37.8959 35.8582C37.6805 36.1139 37.4114 36.1946 37.3037 36.2216C37.1422 36.5445 36.9808 36.8541 36.8193 37.177C34.9083 37.3789 32.5803 37.4731 29.9561 37.2578C26.9282 37.0021 24.3444 36.41 22.3259 35.7909C19.0961 31.2693 15.8664 26.7477 12.6367 22.2261C11.4525 21.1361 10.2682 20.0595 9.08398 18.9694C9.66264 18.014 10.3759 16.9912 11.2506 15.955C13.8613 12.8733 16.795 11.0297 18.9616 9.95312C19.6883 10.8144 20.7514 12.187 21.801 13.9903C24.5059 18.6734 24.1964 21.2975 26.1881 24.1236C27.3454 25.7788 29.512 27.7974 33.926 29.0354L39.6049 31.1617Z" fill="#0E82FD"/>
<path d="M39.7257 32.7906C39.6853 32.7906 31.7187 31.1354 31.7187 31.1354C31.6245 31.1219 31.5706 31.0277 31.5841 30.9335C31.5975 30.8393 31.6917 30.7855 31.7859 30.7989L39.7526 32.4542C39.8468 32.4676 39.9006 32.5618 39.8872 32.656C39.8737 32.7368 39.793 32.7906 39.7257 32.7906Z" fill="#020202"/>
<path d="M30.2923 30.7717C30.2384 30.7582 29.2291 30.4218 29.2291 30.4218C29.1349 30.3948 29.0946 30.3006 29.1215 30.2064C29.1484 30.1257 29.2426 30.0719 29.3368 30.0988L30.3461 30.4352C30.4403 30.4621 30.4807 30.5563 30.4537 30.6505C30.4268 30.7178 30.3595 30.7717 30.2923 30.7717Z" fill="#020202"/>
<path d="M38.0174 35.0784C37.9771 35.0784 28.2206 32.9791 28.2206 32.9791C28.1264 32.9656 28.0726 32.8714 28.086 32.7772C28.0995 32.683 28.1937 32.6292 28.2879 32.6427L38.0578 34.742C38.152 34.7554 38.2058 34.8496 38.1924 34.9438C38.1655 35.0246 38.0847 35.0784 38.0174 35.0784Z" fill="#020202"/>
<path d="M37.196 36.436C37.1691 36.436 27.0224 34.7 27.0224 34.7C26.9282 34.6866 26.8743 34.5924 26.8878 34.5116C26.9012 34.4174 26.9955 34.3636 27.0762 34.377L37.2229 36.113C37.3171 36.1265 37.371 36.2207 37.3575 36.3014C37.3441 36.3822 37.2768 36.436 37.196 36.436Z" fill="#020202"/>
<path d="M29.1357 17.0047C29.0954 17.0047 29.055 16.9912 29.0146 16.9509L27.9919 15.9685C27.9246 15.9012 27.9246 15.7935 27.9919 15.7262C28.0592 15.659 28.1668 15.659 28.2341 15.7262L29.2569 16.7221C29.3241 16.7894 29.3241 16.897 29.2569 16.9643C29.2165 16.9912 29.1761 17.0047 29.1357 17.0047Z" fill="#020202"/>
<path d="M29.0281 24.2848C28.9608 24.2848 28.907 24.2445 28.8801 24.1907C28.8397 24.1099 28.8801 24.0022 28.9608 23.9619L29.8625 23.5178C29.9432 23.4774 30.0509 23.5178 30.0912 23.5985C30.1316 23.6793 30.0912 23.7869 30.0105 23.8273L29.1089 24.2714C29.082 24.2848 29.055 24.2848 29.0281 24.2848Z" fill="#020202"/>
<path d="M36.4295 28.5786C36.3891 28.5786 36.3488 28.5652 36.3219 28.5383C36.2546 28.4844 36.2411 28.3768 36.2949 28.296L37.3311 27.0445C37.385 26.9772 37.5061 26.9638 37.5734 27.0176C37.6406 27.0714 37.6541 27.1791 37.6003 27.2598L36.5641 28.5113C36.5237 28.5517 36.4833 28.5786 36.4295 28.5786Z" fill="#020202"/>
<path d="M90.5936 29.6675C91.7644 27.2721 92.9486 24.4057 93.931 21.0952C95.4651 15.9142 95.99 11.258 96.1246 7.5842C95.4786 7.49 94.5097 7.34197 93.312 7.12666C92.3565 6.95171 92.1412 6.8979 91.6702 6.84407C90.3783 6.69604 90.1226 6.91135 88.4943 6.96518C86.3815 7.01901 85.8298 6.68257 84.4706 7.08629C83.9054 7.26123 83.4613 7.47655 83.1787 7.63804C83.4479 10.4506 83.6363 13.465 83.717 16.6409C83.7978 19.8303 83.7574 22.8447 83.6363 25.6707C85.9509 27.0029 88.2655 28.3352 90.5936 29.6675Z" fill="#FFDEAD"/>
<path d="M77.4198 26.5859C74.6342 27.4876 71.862 28.4026 69.0763 29.3043C61.648 36.1002 58.2164 39.8816 58.7951 40.6487C59.2795 41.2947 62.6707 39.7471 68.9552 36.006L77.4198 26.5859Z" fill="#0E82FD"/>
<path d="M68.793 35.6426C60.759 39.5048 56.8699 41.7925 57.139 42.5058C57.4351 43.2863 62.6699 42.1962 72.8436 39.2356L68.793 35.6426Z" fill="#0E82FD"/>
<path d="M72.4538 39.3562C64.8774 40.7558 61.1094 41.8189 61.1767 42.559C61.2574 43.4338 66.5864 43.8644 77.1638 43.8375C80.878 41.6305 84.5922 39.4235 88.3064 37.23C88.912 36.1399 89.5175 35.0634 90.1096 33.9733C90.3384 32.4392 90.5672 30.9186 90.796 29.3845C90.8229 28.8192 90.8632 26.7737 89.4502 25.28C87.6873 23.4095 84.3365 23.0999 81.497 24.8628C80.1378 25.4415 78.7652 26.0201 77.406 26.5988C71.9424 27.4331 68.6185 31.4299 69.0087 34.7539C69.3317 37.3376 71.8078 38.9525 72.4538 39.3562Z" fill="#0E82FD"/>
<path d="M89.0595 29.1288C86.6238 28.1061 83.3806 26.4508 80.0566 23.7325C76.3021 20.6508 74.2028 17.6498 73.5164 18.0805C72.8032 18.538 74.3642 22.2656 75.0506 23.7325C76.0599 25.8991 77.2172 27.5274 78.0515 28.5771L89.0595 29.1288Z" fill="#0E82FD"/>
<path d="M77.1775 41.6164C76.72 42.9083 76.2624 44.1867 75.8049 45.4786C72.8174 48.0624 71.4313 49.5158 71.6601 49.8388C71.9023 50.1886 74.1362 49.1524 78.3348 46.7032C80.5956 44.0118 82.843 41.3203 85.1038 38.6289L77.1775 41.6164Z" fill="#0E82FD"/>
<path d="M59.8166 40.6081C59.7493 40.6081 59.6955 40.5677 59.6686 40.5139C59.6282 40.4331 59.6551 40.3255 59.7493 40.2851L69.1963 35.6154C69.277 35.5751 69.3847 35.6154 69.425 35.6962C69.4654 35.7769 69.4385 35.8846 69.3443 35.925L59.8973 40.5946C59.8704 40.5946 59.8435 40.6081 59.8166 40.6081Z" fill="#020202"/>
<path d="M62.3608 41.8865C62.28 41.8865 62.2128 41.8327 62.1993 41.7519C62.1859 41.6577 62.2397 41.577 62.3339 41.5501L70.8388 39.9083C70.933 39.8948 71.0138 39.9487 71.0407 40.0429C71.0542 40.1371 71.0003 40.2178 70.9061 40.2447L62.4012 41.8865C62.3743 41.8865 62.3742 41.8865 62.3608 41.8865Z" fill="#020202"/>
<path d="M73.5969 38.9667C73.5431 38.9667 73.4893 38.9398 73.4489 38.886C73.3951 38.8052 73.422 38.6976 73.5027 38.6572L74.0545 38.3073C74.1352 38.2535 74.2429 38.2804 74.2832 38.3611C74.3371 38.4419 74.3102 38.5495 74.2294 38.5899L73.6777 38.9398C73.6642 38.9667 73.6373 38.9667 73.5969 38.9667Z" fill="#020202"/>
<path d="M71.1079 34.3626C71.0541 34.3626 71.0002 34.3357 70.9733 34.2819C70.9195 34.2011 70.9464 34.1069 71.0271 34.0531L72.171 33.2995C72.2518 33.2457 72.3594 33.2726 72.3998 33.3533C72.4536 33.4341 72.4267 33.5283 72.346 33.5821L71.2021 34.3357C71.1617 34.3492 71.1348 34.3626 71.1079 34.3626Z" fill="#020202"/>
<path d="M76.383 43.999C76.3157 43.999 76.2619 43.9587 76.235 43.9048C76.1946 43.8241 76.2215 43.7164 76.3157 43.6761L82.7213 40.4732C82.8021 40.4329 82.9097 40.4598 82.9501 40.554C82.9905 40.6347 82.9636 40.7424 82.8694 40.7828L76.4637 43.9856C76.4368 43.999 76.4099 43.999 76.383 43.999Z" fill="#020202"/>
<path d="M75.8852 27.3523C75.8045 27.3523 75.7372 27.2985 75.7237 27.2178C75.7103 27.1236 75.7641 27.0428 75.8583 27.0159L80.8644 25.9259C80.9586 25.9124 81.0393 25.9663 81.0662 26.0605C81.0797 26.1547 81.0259 26.2354 80.9317 26.2623L75.9256 27.3523C75.9121 27.3523 75.8987 27.3523 75.8852 27.3523Z" fill="#020202"/>
</svg>
