<svg width="38" height="38" viewBox="0 0 38 38" fill="none" xmlns="http://www.w3.org/2000/svg">
<g clip-path="url(#clip0_1385_190640)">
<path fill-rule="evenodd" clip-rule="evenodd" d="M25.2344 38C24.6653 38 24.0963 38 23.5273 38C22.8679 37.7545 22.6253 37.27 22.6432 36.5819C22.67 35.5559 22.649 34.5287 22.6504 33.502C22.6537 31.2304 23.8119 29.5921 25.9612 28.8362C26.1531 28.7687 26.2392 28.6928 26.236 28.4779C26.2242 27.6492 26.2249 26.8204 26.2355 25.9917C26.2382 25.7719 26.1514 25.6983 25.946 25.6552C25.1 25.4776 24.2566 25.2868 23.4155 25.0876C23.1842 25.0328 23.0663 25.1031 22.9467 25.305C21.9956 26.9105 21.0333 28.5092 20.0716 30.1085C19.4687 31.1109 18.531 31.1105 17.9281 30.1082C16.9664 28.509 16.003 26.9108 15.0507 25.3061C14.9316 25.1054 14.8165 25.0339 14.5822 25.0902C13.7538 25.2891 12.9237 25.4841 12.0877 25.648C11.8141 25.7015 11.7624 25.8213 11.7639 26.0688C11.7729 27.6396 11.7749 29.2107 11.7623 30.7816C11.76 31.0636 11.8351 31.2045 12.1063 31.335C13.4314 31.9729 14.1511 33.0549 14.1395 34.5202C14.1275 36.0161 13.3754 37.096 12.0052 37.7167C11.7285 37.8421 11.4243 37.9071 11.1328 37.9998C10.8112 37.9998 10.4896 37.9998 10.168 37.9998C10.1247 37.9791 10.0836 37.9489 10.0381 37.9391C8.49881 37.6105 7.3651 36.4377 7.19616 34.9968C7.00297 33.3493 7.77019 31.9802 9.30245 31.2862C9.52415 31.1858 9.54434 31.0528 9.54384 30.8567C9.53998 29.4343 9.54226 28.012 9.54088 26.5897C9.54078 26.4827 9.52791 26.3757 9.51821 26.2259C9.12579 26.3142 8.76811 26.398 8.40905 26.475C6.48763 26.8872 5.23426 28.0416 4.61481 29.8951C3.83996 32.2139 3.06057 34.5312 2.30602 36.8566C2.14143 37.3638 1.90825 37.7745 1.41013 37.9997C1.21219 37.9997 1.01425 37.9997 0.816409 37.9997C0.444972 37.8269 0.180127 37.5474 0 37.1833C0 36.9854 0 36.7875 0 36.5896C0.0493864 36.48 0.108769 36.3738 0.146675 36.2606C0.937649 33.8963 1.71783 31.5284 2.51752 29.1671C3.4227 26.4944 5.27979 24.8803 8.02553 24.2716C10.0137 23.8307 12.0002 23.382 13.9909 22.9529C14.2528 22.8965 14.328 22.7963 14.3211 22.5371C14.3029 21.8577 14.2962 21.1767 14.323 20.4978C14.3358 20.173 14.2247 20.0023 13.9523 19.8236C11.2775 18.0689 9.76049 15.596 9.57957 12.3951C9.47922 10.6205 9.54384 8.83601 9.55671 7.05612C9.56463 5.97219 9.92696 4.99159 10.5806 4.13321C12.0124 2.25277 13.8634 0.975455 16.1556 0.371338C16.7719 0.209026 17.4081 0.121734 18.0351 0C18.6783 0 19.3217 0 19.9649 0C20.0336 0.0214766 20.101 0.0554236 20.1712 0.0627474C23.0576 0.364212 25.4047 1.66201 27.24 3.89697C27.9922 4.81295 28.4327 5.86332 28.442 7.05612C28.4562 8.88519 28.4474 10.7149 28.4214 12.5438C28.4152 12.9844 28.3337 13.4303 28.2349 13.8618C27.6371 16.4714 26.1944 18.4866 23.9261 19.9073C23.7505 20.0173 23.6759 20.1368 23.6799 20.3499C23.6938 21.079 23.6964 21.8088 23.6793 22.5378C23.6733 22.7963 23.7468 22.8932 24.0103 22.9502C26.1095 23.4039 28.2118 23.847 30.2986 24.3534C32.7391 24.9458 34.4532 26.4343 35.3368 28.7877C35.9611 30.4503 36.4742 32.1546 37.0439 33.8378C37.3552 34.7576 37.681 35.6726 38.0003 36.5898C38.0003 36.7877 38.0003 36.9855 38.0003 37.1835C37.7281 37.4557 37.456 37.7277 37.1839 37.9999C36.9859 37.9999 36.788 37.9999 36.5901 37.9999C36.0907 37.776 35.8591 37.3646 35.6946 36.8575C34.9402 34.533 34.1831 32.2085 33.3711 29.9039C33.1459 29.2644 32.8021 28.6352 32.3849 28.101C31.4093 26.8517 29.9919 26.4561 28.4585 26.2535C28.4585 26.9954 28.4719 27.6989 28.4518 28.4014C28.444 28.6748 28.5442 28.773 28.7947 28.8626C30.6816 29.538 31.8054 30.8749 31.9906 32.8722C32.1042 34.0987 32.0173 35.3426 32.05 36.5781C32.0681 37.2627 31.8309 37.7517 31.1722 38C30.6032 38 30.0341 38 29.4652 38C29.3691 37.9486 29.27 37.9021 29.1775 37.8452C28.7974 37.6114 28.6084 37.2702 28.6313 36.8233C28.6536 36.3902 28.8718 36.0736 29.2581 35.8891C29.4209 35.8113 29.6084 35.7851 29.7959 35.7323C29.7959 34.85 29.8543 33.9574 29.7822 33.0758C29.6764 31.7825 28.6451 30.8727 27.3845 30.8542C26.1069 30.8355 25.0364 31.7314 24.9163 33.0369C24.834 33.9292 24.9005 34.8353 24.9005 35.7335C25.7457 35.9237 26.1219 36.3377 26.0609 37.0046C26.0128 37.5249 25.6625 37.7949 25.2344 38ZM18.9849 19.1177C19.4985 19.0516 20.0181 19.0151 20.5248 18.9142C23.7846 18.265 26.2549 15.2133 26.2228 11.8819C26.2218 11.774 26.1465 11.5971 26.0663 11.5703C25.1222 11.2541 24.4597 10.5672 23.8078 9.87223C23.6073 9.65845 23.4431 9.62965 23.1688 9.73159C20.4196 10.7535 17.6579 10.7579 14.9044 9.75653C14.5705 9.63509 14.3773 9.66914 14.1424 9.9227C13.5111 10.6045 12.8547 11.2595 11.9375 11.5702C11.8527 11.599 11.7769 11.7964 11.7775 11.9152C11.795 15.8568 15.0297 19.0686 18.9849 19.1177ZM26.1117 9.08076C26.1504 9.06334 26.189 9.04602 26.2276 9.0288C26.2276 8.41587 26.2331 7.80295 26.2262 7.19022C26.2184 6.48377 25.9701 5.86451 25.5267 5.31809C24.0766 3.53098 22.2128 2.49762 19.9191 2.27939C17.1992 2.02068 14.8791 2.84768 12.9118 4.7792C11.6576 6.01069 11.6984 7.49099 11.8089 9.14559C12.3428 8.60006 12.811 8.1156 13.2861 7.63806C13.8294 7.09214 14.1907 7.03127 14.8825 7.34452C17.6306 8.58897 20.3791 8.59105 23.1261 7.34056C23.8062 7.03098 24.1537 7.08393 24.6928 7.62005C25.1742 8.09857 25.6395 8.59323 26.1117 9.08076ZM19.0021 27.565C19.8234 26.1953 20.604 24.8949 21.3818 23.5929C21.4184 23.5317 21.4525 23.4567 21.4529 23.388C21.4578 22.5998 21.4561 21.8117 21.4561 20.984C19.8057 21.4073 18.1873 21.4038 16.5838 20.9957C16.4491 22.4205 16.4194 23.769 17.3994 24.9218C17.6911 25.2649 17.8772 25.6976 18.1124 26.0888C18.3966 26.5614 18.6817 27.0335 19.0021 27.565ZM10.6638 33.2384C9.95843 33.2341 9.38896 33.7897 9.38044 34.4909C9.37203 35.1832 9.94616 35.7668 10.6414 35.7724C11.3364 35.778 11.9181 35.208 11.9263 34.5134C11.9345 33.8193 11.3636 33.2429 10.6638 33.2384Z" fill="#1B5A90"/>
<path fill-rule="evenodd" clip-rule="evenodd" d="M19.002 27.5655C18.6817 27.034 18.3966 26.5619 18.1124 26.0892C17.8771 25.6981 17.6911 25.2654 17.3994 24.9222C16.4194 23.7695 16.4491 22.421 16.5838 20.9962C18.1872 21.4042 19.8057 21.4077 21.456 20.9844C21.456 21.8121 21.4579 22.6002 21.4528 23.3884C21.4524 23.4572 21.4184 23.5322 21.3818 23.5933C20.604 24.8954 19.8234 26.1958 19.002 27.5655Z" fill="#0CE0FF"/>
<path fill-rule="evenodd" clip-rule="evenodd" d="M10.6638 33.2383C11.3636 33.2428 11.9345 33.8193 11.9263 34.5132C11.9181 35.208 11.3364 35.7779 10.6414 35.7723C9.94628 35.7667 9.37205 35.1831 9.38046 34.4908C9.38897 33.7896 9.95845 33.2339 10.6638 33.2383Z" fill="#0CE0FF"/>
</g>
<defs>
<clipPath id="clip0_1385_190640">
<rect width="38" height="38" fill="white"/>
</clipPath>
</defs>
</svg>
