<svg width="25" height="20" viewBox="0 0 25 20" fill="none" xmlns="http://www.w3.org/2000/svg">
<path d="M8.10018 2.29104H1.5M4.80009 17.6915H1.5M2.60003 9.99125H1.5M16.2294 2.52205L17.7804 5.62414C17.9894 6.05315 18.5505 6.46016 19.0235 6.54816L21.8286 7.01017C23.6216 7.30718 24.0396 8.60522 22.7526 9.90325L20.5635 12.0923C20.2005 12.4553 19.9915 13.1703 20.1125 13.6874L20.7395 16.3934C21.2345 18.5275 20.0905 19.3635 18.2095 18.2415L15.5804 16.6794C15.1074 16.3934 14.3154 16.3934 13.8423 16.6794L11.2133 18.2415C9.33221 19.3525 8.18818 18.5275 8.6832 16.3934L9.31021 13.6874C9.43122 13.1813 9.22221 12.4663 8.8592 12.0923L6.67014 9.90325C5.38311 8.61622 5.80112 7.31818 7.59417 7.01017L10.3992 6.54816C10.8723 6.47116 11.4333 6.05315 11.6423 5.62414L13.1933 2.52205C14.0183 0.839004 15.3824 0.839004 16.2294 2.52205Z" stroke="white" stroke-width="1.5" stroke-linecap="round" stroke-linejoin="round"/>
</svg>
