<svg width="35" height="32" viewBox="0 0 35 32" fill="none" xmlns="http://www.w3.org/2000/svg">
<path fill-rule="evenodd" clip-rule="evenodd" d="M3.55139 22.838C2.86863 22.833 2.18422 22.7967 1.50355 22.8318C0.841837 22.8658 0.32297 22.6906 0 22.0823C0 20.4644 0 18.8467 0 17.2288C0.302551 16.6324 0.788966 16.3967 1.44712 16.4728C1.62588 16.4935 1.80984 16.4691 1.99142 16.4654C3.8111 16.4654 5.63096 16.4653 7.45074 16.4653C7.54153 16.4691 7.63232 16.4761 7.72302 16.4761C14.2409 16.4767 20.7589 16.4767 27.2768 16.4761C27.3676 16.4761 27.4584 16.469 27.5492 16.4653C28.4597 16.4653 29.3702 16.4653 30.2808 16.4653C31.1919 16.4653 32.103 16.4653 33.0141 16.4654C33.2067 16.4691 33.4016 16.4941 33.5913 16.4727C34.2401 16.3997 34.7044 16.6527 34.9999 17.2288C34.9999 18.8467 34.9999 20.4644 34.9999 22.0823C34.6721 22.7071 34.1358 22.8662 33.4678 22.8316C32.8007 22.7969 32.1297 22.833 31.4605 22.838C29.8832 22.8379 28.306 22.8378 26.7288 22.8377C26.2495 22.8377 25.7702 22.8376 25.2909 22.8376C25.2115 22.8331 25.132 22.8248 25.0527 22.8248C20.0174 22.8241 14.9821 22.8241 9.94699 22.8248C9.86759 22.8248 9.78819 22.8331 9.7087 22.8376C7.65639 22.8377 5.60389 22.8378 3.55139 22.838ZM22.0074 19.8056C22.0289 19.7972 22.0506 19.7888 22.0721 19.7805C22.1459 19.8777 22.221 19.9741 22.2932 20.0724C22.6432 20.5489 22.993 21.0254 23.3414 21.503C23.4916 21.7088 23.7137 21.828 23.9312 21.7213C24.0977 21.6396 24.3053 21.4264 24.3103 21.266C24.3433 20.1866 24.3381 19.1055 24.3196 18.0253C24.3145 17.7293 24.102 17.5443 23.8008 17.5402C23.5166 17.5364 23.3317 17.7007 23.2826 17.986C23.2598 18.1191 23.2627 18.2575 23.2618 18.3934C23.2592 18.7601 23.2609 19.1267 23.2609 19.4933C22.7841 18.9501 22.3743 18.395 21.9674 17.8376C21.7985 17.6063 21.5918 17.4673 21.2972 17.5704C21.0188 17.6679 20.9385 17.8993 20.9381 18.1678C20.9364 19.1573 20.9322 20.1468 20.9401 21.1363C20.9433 21.5344 21.1457 21.7486 21.4773 21.7479C21.8043 21.7473 22.0014 21.5234 22.0061 21.1311C22.0115 20.6893 22.0074 20.2475 22.0074 19.8056ZM15.6668 20.4324C15.8119 20.2746 15.8929 20.195 15.9644 20.1075C16.6702 19.2435 16.2606 17.866 15.1781 17.6113C14.6911 17.4967 14.1614 17.5376 13.6523 17.5521C13.3517 17.5608 13.1905 17.7762 13.1899 18.084C13.1883 19.1315 13.1845 20.1791 13.1929 21.2265C13.1954 21.5433 13.4126 21.7458 13.7059 21.7484C14.0002 21.7508 14.2095 21.5505 14.2278 21.2361C14.2375 21.0694 14.2296 20.9018 14.2296 20.6432C14.4212 20.7332 14.5633 20.7664 14.659 20.8518C14.8965 21.0634 15.1107 21.3013 15.3385 21.5242C15.6129 21.7927 15.9278 21.8227 16.1528 21.6081C16.3967 21.3754 16.3745 21.0703 16.0774 20.7722C15.9576 20.6519 15.8156 20.5541 15.6668 20.4324ZM3.64328 20.1869C3.32952 20.6559 2.87018 20.8096 2.40336 20.6353C1.95997 20.4697 1.66006 19.9835 1.71895 19.5257C1.78121 19.0408 2.1957 18.6333 2.67082 18.5978C2.81813 18.5868 2.96708 18.5992 3.11484 18.592C3.45322 18.5756 3.67792 18.371 3.6864 18.0782C3.69469 17.7925 3.47282 17.5679 3.14429 17.5294C1.70838 17.3614 0.570918 18.448 0.678939 19.8845C0.761254 20.979 1.76243 21.8031 2.93946 21.7451C3.99396 21.693 4.8935 20.7342 4.87126 19.6856C4.86388 19.3383 4.69815 19.1459 4.36041 19.1311C4.04218 19.1172 3.72231 19.1176 3.40427 19.1337C3.11275 19.1486 2.94812 19.3202 2.9277 19.6138C2.90792 19.8982 3.0864 20.1159 3.37382 20.1648C3.4503 20.178 3.52888 20.1781 3.64328 20.1869ZM5.31556 19.1134C5.31647 19.1134 5.31747 19.1134 5.31848 19.1134C5.31848 19.432 5.30763 19.751 5.32048 20.069C5.35922 21.0279 6.14044 21.7537 7.11783 21.7487C8.07735 21.7439 8.86695 20.9865 8.8871 20.0339C8.9005 19.397 8.89503 18.7596 8.88956 18.1224C8.88637 17.7529 8.68637 17.5434 8.36249 17.547C8.04016 17.5507 7.85383 17.7572 7.85019 18.1359C7.84463 18.7048 7.85283 19.2738 7.84709 19.8427C7.84171 20.3728 7.53451 20.7138 7.08392 20.7046C6.64992 20.6957 6.36259 20.3568 6.36004 19.8426C6.35703 19.2623 6.36442 18.6819 6.35685 18.1017C6.35229 17.76 6.14719 17.5501 5.84099 17.5468C5.52777 17.5436 5.32759 17.7424 5.31775 18.0894C5.3079 18.4305 5.31556 18.772 5.31556 19.1134ZM29.4713 20.1706C29.6797 20.1706 29.8707 20.1748 30.0614 20.1698C30.4086 20.1604 30.6207 19.971 30.6313 19.6681C30.6427 19.3426 30.4379 19.141 30.0707 19.1269C29.8721 19.1193 29.673 19.1255 29.4801 19.1255C29.4801 18.9153 29.4801 18.7637 29.4801 18.5933C29.836 18.5933 30.165 18.6016 30.4934 18.591C30.837 18.5798 31.0446 18.3777 31.0505 18.0728C31.0565 17.7623 30.8654 17.5451 30.5179 17.5327C29.9955 17.5139 29.4714 17.5142 28.9489 17.5319C28.5828 17.5442 28.3862 17.7551 28.3832 18.1245C28.3751 19.1367 28.3741 20.1489 28.3838 21.1611C28.3876 21.5579 28.5857 21.7437 28.9789 21.7495C29.4678 21.7565 29.957 21.7548 30.446 21.75C30.8456 21.7462 31.0561 21.5568 31.0511 21.2198C31.0461 20.8869 30.8358 20.7124 30.4266 20.7082C30.1117 20.7049 29.7967 20.7074 29.4714 20.7074C29.4713 20.5115 29.4713 20.358 29.4713 20.1706ZM32.745 18.641C32.786 18.6154 32.7954 18.6045 32.8049 18.6044C33.1122 18.6002 33.4196 18.6004 33.7267 18.5928C34.1014 18.5836 34.3185 18.396 34.3282 18.0819C34.3381 17.7588 34.1426 17.5466 33.7669 17.533C33.2552 17.5145 32.7418 17.5147 32.23 17.5317C31.8622 17.5438 31.6644 17.754 31.6615 18.1223C31.6537 19.1357 31.6538 20.1493 31.6614 21.1628C31.6643 21.5552 31.8628 21.7439 32.2582 21.7496C32.7478 21.7565 33.2375 21.7552 33.7272 21.7501C34.1277 21.7459 34.3363 21.5551 34.3284 21.2152C34.3211 20.8973 34.1088 20.7142 33.7302 20.7088C33.4042 20.7041 33.078 20.7078 32.7541 20.7078C32.7541 20.5039 32.7541 20.3504 32.7541 20.171C32.8779 20.171 32.9784 20.1711 33.079 20.1709C33.1815 20.1708 33.2842 20.1757 33.3863 20.1689C33.7006 20.148 33.9078 19.9417 33.9106 19.6527C33.9136 19.3611 33.7128 19.1488 33.3975 19.1306C33.1853 19.1185 32.9719 19.1283 32.745 19.1283C32.745 18.9337 32.745 18.7879 32.745 18.641ZM12.6196 21.3016C12.5676 21.1252 12.5472 21.037 12.5157 20.9528C12.1467 19.9623 11.7746 18.9729 11.4068 17.9818C11.3117 17.7257 11.1575 17.5374 10.8674 17.538C10.5775 17.5387 10.4237 17.7267 10.3302 17.9841C10.144 18.4969 9.95091 19.0072 9.75966 19.5181C9.57233 20.0185 9.37707 20.516 9.19831 21.0194C9.09157 21.3198 9.2046 21.6065 9.46741 21.7064C9.72848 21.8056 9.9953 21.7672 10.1147 21.5013C10.2303 21.2442 10.4034 21.2217 10.6312 21.2375C10.7671 21.2469 10.9046 21.2439 11.041 21.2382C11.2954 21.2276 11.5143 21.2229 11.6434 21.5327C11.7412 21.7676 12.0213 21.8221 12.235 21.71C12.4018 21.6226 12.51 21.4237 12.6196 21.3016ZM18.635 17.407C18.424 17.6143 18.2061 17.7352 18.1343 17.9144C17.7246 18.9355 17.3461 19.9693 16.9655 21.002C16.8532 21.3064 16.9598 21.575 17.2119 21.6979C17.4861 21.8314 17.735 21.7283 17.931 21.4386C17.9933 21.3466 18.1244 21.259 18.2319 21.2483C18.5019 21.2214 18.7779 21.2238 19.0485 21.2477C19.1468 21.2564 19.2687 21.3384 19.3245 21.4235C19.5191 21.7197 19.7624 21.828 20.0359 21.7059C20.2933 21.5909 20.4114 21.3215 20.3007 21.0195C19.918 19.9756 19.5345 18.9317 19.1231 17.899C19.0548 17.7276 18.8452 17.6126 18.635 17.407ZM25.831 18.5922C25.831 18.7651 25.831 18.8884 25.831 19.0116C25.8316 19.751 25.8257 20.4906 25.8358 21.2299C25.8401 21.5466 26.0557 21.7471 26.3503 21.7483C26.645 21.7494 26.862 21.5495 26.8692 21.2346C26.8811 20.7116 26.8738 20.188 26.8742 19.6647C26.8745 19.3161 26.8742 18.9675 26.8742 18.5939C27.0201 18.5939 27.1207 18.5941 27.2214 18.5939C27.3237 18.5936 27.4265 18.5982 27.5285 18.5915C27.8389 18.571 28.06 18.3671 28.0796 18.0887C28.0986 17.8203 27.8885 17.5492 27.5828 17.5416C26.7645 17.5211 25.9451 17.5212 25.1268 17.5407C24.8205 17.5481 24.6084 17.8162 24.625 18.0841C24.6423 18.3626 24.863 18.5736 25.1722 18.5902C25.3753 18.6011 25.5792 18.5922 25.831 18.5922Z" fill="#416093"/>
<path fill-rule="evenodd" clip-rule="evenodd" d="M30.2807 16.465C29.3701 16.465 28.4595 16.465 27.5491 16.465C27.5185 10.8603 23.069 6.58689 17.8399 6.43229C11.9572 6.25836 7.44724 10.9685 7.45053 16.465C5.63075 16.465 3.81098 16.4651 1.99121 16.4651C2.11965 16.2087 2.19367 15.8975 2.38665 15.7064C2.94371 15.1549 3.54252 14.6446 4.13824 14.1338C4.33769 13.9629 4.41034 13.8304 4.27114 13.5665C3.9211 12.903 3.60752 12.2201 3.284 11.5428C2.91144 10.7627 3.1222 10.224 3.92675 9.93182C4.66376 9.66418 5.40541 9.40903 6.14935 9.16117C6.35463 9.0928 6.42373 9.00584 6.40304 8.77239C6.32865 7.93511 6.27223 7.09546 6.23941 6.25544C6.21516 5.6353 6.76202 5.16684 7.37888 5.21525C8.21698 5.28106 9.0569 5.32345 9.895 5.39009C10.1129 5.40741 10.131 5.26119 10.1783 5.12637C10.4457 4.36512 10.7045 3.60076 10.9791 2.84206C11.2342 2.13751 11.7893 1.9026 12.4709 2.21764C13.1831 2.5468 13.8934 2.88208 14.5884 3.24589C14.8503 3.38299 14.9831 3.31909 15.1558 3.11663C15.6577 2.52812 16.173 1.95073 16.6961 1.3809C17.2117 0.819192 17.7897 0.820924 18.3092 1.38628C18.8326 1.95583 19.3491 2.53249 19.8491 3.12255C20.0261 3.33149 20.1669 3.38299 20.4198 3.24452C20.8477 3.01043 21.2986 2.81818 21.7398 2.60834C21.7434 2.65364 21.7377 2.70204 21.752 2.74361C22.1456 3.88089 22.5104 5.02947 22.9461 6.15061C23.3186 7.10941 24.2218 7.55589 25.1033 7.51433C25.5853 7.49154 26.0658 7.44176 26.5736 7.40202C26.5678 7.47941 26.5631 7.53183 26.5603 7.58433C26.5302 8.13757 26.4273 8.69873 26.4863 9.2423C26.5955 10.2452 27.2051 10.8715 28.1737 11.1593C28.5608 11.2744 28.9368 11.4268 29.3495 11.5735C29.1267 12.0201 28.9303 12.416 28.732 12.811C28.2599 13.7517 28.4585 14.9565 29.3373 15.5842C29.6843 15.8321 29.9681 16.1687 30.2807 16.465Z" fill="#FECE5D"/>
<path fill-rule="evenodd" clip-rule="evenodd" d="M30.2811 16.4648C29.9685 16.1686 29.6848 15.832 29.3377 15.5841C28.459 14.9563 28.2603 13.7515 28.7325 12.8109C28.9307 12.4159 29.1272 12.02 29.3499 11.5733C28.9372 11.4266 28.5612 11.2742 28.1741 11.1592C27.2056 10.8713 26.5959 10.2452 26.4868 9.24215C26.4277 8.69867 26.5305 8.13742 26.5607 7.58418C26.5635 7.53168 26.5683 7.47926 26.574 7.40187C26.0662 7.44161 25.5856 7.49139 25.1038 7.51418C24.2223 7.55574 23.3191 7.10926 22.9465 6.15046C22.511 5.02941 22.1462 3.88083 21.7524 2.74346C21.7381 2.7019 21.7439 2.65349 21.7402 2.60819C22.0239 2.46571 22.3031 2.31338 22.5921 2.18257C23.1998 1.90737 23.7649 2.12979 23.9997 2.75805C24.2855 3.52286 24.5512 4.29551 24.8059 5.07116C24.8799 5.29632 24.9829 5.3677 25.2188 5.34901C25.9548 5.29113 26.6935 5.26852 27.4295 5.21118C28.352 5.13926 28.8405 5.63479 28.7652 6.55976C28.7044 7.30688 28.6835 8.05711 28.6255 8.80451C28.6084 9.02511 28.703 9.10049 28.8857 9.16193C29.6164 9.40733 30.3447 9.65993 31.0717 9.91599C31.8738 10.1984 32.101 10.7547 31.732 11.52C31.3917 12.2258 31.053 12.9325 30.7062 13.635C30.6257 13.7979 30.6162 13.9009 30.7774 14.0383C31.4003 14.5697 32.0243 15.1027 32.6055 15.6779C32.8055 15.8758 32.8818 16.1988 33.0146 16.4647C32.1034 16.4648 31.1922 16.4648 30.2811 16.4648Z" fill="#FEB546"/>
<path fill-rule="evenodd" clip-rule="evenodd" d="M26.7294 22.8379C28.3066 22.838 29.8838 22.8381 31.4611 22.8382C30.9465 23.04 30.4342 23.248 29.9166 23.4418C29.5662 23.5729 29.2095 23.6874 28.8535 23.8025C28.6959 23.8534 28.6117 23.9247 28.6254 24.1151C28.6791 24.8633 28.6962 25.6144 28.7638 26.3612C28.8501 27.3174 28.3468 27.8254 27.3922 27.7409C26.6567 27.6759 25.9169 27.6592 25.1804 27.6031C24.9671 27.5869 24.8783 27.6659 24.8152 27.8545C24.5704 28.5862 24.3163 29.3149 24.0618 30.0433C23.7805 30.8489 23.2244 31.0791 22.4603 30.7106C21.7747 30.38 21.0851 30.0571 20.4061 29.7133C20.1929 29.6054 20.0687 29.5954 19.8947 29.8028C19.3757 30.4214 18.8272 31.0155 18.2834 31.6131C17.8163 32.1264 17.1697 32.1243 16.7066 31.6097C16.1584 31.0008 15.6086 30.3931 15.0775 29.7695C14.9345 29.6015 14.8298 29.5971 14.6481 29.6882C13.9372 30.0442 13.2197 30.3871 12.5029 30.7312C11.8028 31.0673 11.2168 30.8307 10.9561 30.1001C10.6969 29.3735 10.4395 28.6458 10.2022 27.9118C10.128 27.6821 10.0405 27.5811 9.77799 27.6032C9.04208 27.6655 8.3027 27.686 7.56624 27.7422C6.63252 27.8138 6.12669 27.2877 6.24701 26.354C6.27746 26.1178 6.29205 25.8795 6.31392 25.6422C7.13908 25.5956 7.96396 25.545 8.78939 25.5039C9.2862 25.4792 9.79093 25.4078 10.2795 25.4651C11.2823 25.5827 11.9086 26.1763 12.1845 27.1527C12.2942 27.5406 12.4511 27.9151 12.5951 28.3201C13.074 28.0887 13.4998 27.8783 13.9295 27.6763C14.8161 27.2596 15.9893 27.4566 16.6226 28.3107C16.8759 28.6521 17.1878 28.9498 17.501 29.2987C17.8155 28.9473 18.1233 28.6463 18.3809 28.3071C18.9727 27.5273 20.0953 27.2319 20.9788 27.6483C21.4391 27.8654 21.902 28.0769 22.406 28.3104C22.5744 27.8329 22.7503 27.3805 22.8935 26.9179C23.2072 25.9045 24.3519 25.2945 25.3016 25.4763C25.7099 25.5546 26.1457 25.4895 26.548 25.4895C26.5773 24.6134 26.2847 23.7035 26.7294 22.8379Z" fill="#FEB546"/>
<path fill-rule="evenodd" clip-rule="evenodd" d="M26.7292 22.838C26.2845 23.7037 26.5771 24.6135 26.5479 25.4895C26.1455 25.4895 25.7098 25.5546 25.3015 25.4763C24.3518 25.2945 23.2071 25.9045 22.8934 26.9179C22.7502 27.3805 22.5743 27.8329 22.4059 28.3104C21.9019 28.0769 21.439 27.8654 20.9787 27.6483C20.0952 27.2319 18.9726 27.5273 18.3808 28.3071C18.1232 28.6463 17.8154 28.9472 17.5009 29.2987C17.1877 28.9498 16.8758 28.6521 16.6225 28.3107C15.9892 27.4566 14.816 27.2596 13.9294 27.6763C13.4997 27.8783 13.0739 28.0886 12.595 28.3201C12.451 27.9151 12.2941 27.5406 12.1844 27.1527C11.9085 26.1763 11.2822 25.5827 10.2794 25.4651C9.79083 25.4079 9.28609 25.4792 8.78929 25.5039C7.96386 25.545 7.13898 25.5956 6.31382 25.6422C6.34062 25.1567 6.34892 24.6693 6.40243 24.1869C6.42768 23.959 6.36697 23.864 6.15749 23.7943C5.41638 23.5478 4.67983 23.2876 3.94373 23.0265C3.80791 22.9784 3.6822 22.9017 3.55176 22.8383C5.60425 22.8381 7.65675 22.8381 9.70925 22.8379C13.8152 27.7529 21.184 27.7644 25.2915 22.8379C25.7707 22.8379 26.2499 22.838 26.7292 22.838Z" fill="#FECE5D"/>
<path fill-rule="evenodd" clip-rule="evenodd" d="M7.45117 16.4651C7.44789 10.9687 11.9579 6.25856 17.8405 6.4324C23.0697 6.58691 27.5191 10.8603 27.5497 16.4651C27.4589 16.4689 27.3681 16.4759 27.2773 16.4759C20.7594 16.4764 14.2415 16.4764 7.72355 16.4759C7.63276 16.4758 7.54197 16.4688 7.45117 16.4651ZM20.8055 12.8255C20.7991 12.8253 20.7928 12.8249 20.7864 12.8245C20.7864 12.6195 20.7928 12.4143 20.7853 12.2097C20.7546 11.3664 20.0403 10.6914 19.195 10.7026C18.3565 10.7136 17.6624 11.3767 17.6355 12.2051C17.623 12.5919 17.6261 12.9796 17.6333 13.3666C17.6478 14.1425 18.2355 14.8149 18.9687 14.9046C19.8154 15.0084 20.5622 14.5195 20.7437 13.7079C20.8073 13.4234 20.7874 13.1202 20.8055 12.8255ZM13.864 12.819C13.864 13.0125 13.8583 13.2063 13.8649 13.3997C13.8947 14.2643 14.5694 14.9149 15.4337 14.9169C16.2883 14.9187 16.9869 14.2592 17.0178 13.4076C17.0318 13.0209 17.0299 12.6329 17.0188 12.2461C16.9937 11.372 16.2966 10.7075 15.4237 10.7141C14.5558 10.7207 13.8919 11.3681 13.8644 12.2383C13.8584 12.4315 13.8637 12.6253 13.864 12.819ZM12.5558 13.824C12.5558 13.7054 12.5558 13.5822 12.5558 13.4593C12.5556 12.7433 12.5583 12.0273 12.5538 11.3113C12.5521 11.0562 12.4699 10.7945 12.2032 10.7555C12.0095 10.7272 11.7592 10.8031 11.5955 10.9192C11.3491 11.094 11.1515 11.3398 10.9423 11.5641C10.7578 11.7619 10.7102 12.016 10.8852 12.2132C11.0184 12.3633 11.2474 12.4284 11.4709 12.5518C11.4709 12.9373 11.4709 13.3877 11.4709 13.8541C11.3699 13.8658 11.2785 13.8633 11.1954 13.8883C10.9237 13.9704 10.7735 14.1522 10.7976 14.444C10.8203 14.718 10.9773 14.8982 11.2513 14.9079C11.7621 14.926 12.2769 14.9453 12.7832 14.895C12.9459 14.8788 13.1769 14.6652 13.2124 14.5054C13.248 14.3452 13.1073 14.1175 12.988 13.9623C12.9219 13.8763 12.7414 13.8782 12.5558 13.824ZM22.0384 14.9156C22.1079 14.8618 22.3034 14.7805 22.3873 14.6347C22.9833 13.6001 23.5611 12.555 24.1339 11.5072C24.2948 11.2127 24.1999 10.9132 23.9376 10.7702C23.67 10.6242 23.3886 10.7079 23.2126 11.0018C23.0493 11.275 22.9007 11.5571 22.746 11.8355C22.3263 12.591 21.8998 13.3428 21.4901 14.1037C21.276 14.5013 21.5027 14.9102 22.0384 14.9156ZM22.4534 11.2343C22.4585 10.952 22.2237 10.7091 21.9405 10.7038C21.6595 10.6986 21.4105 10.9312 21.4001 11.2086C21.389 11.5059 21.6318 11.7573 21.9297 11.757C22.2064 11.7566 22.4483 11.5152 22.4534 11.2343ZM23.701 14.9151C23.9985 14.9085 24.2092 14.6909 24.2068 14.3928C24.2045 14.1025 23.9799 13.8779 23.6903 13.8763C23.3867 13.8746 23.1572 14.114 23.1686 14.4205C23.1795 14.7165 23.4005 14.9217 23.701 14.9151Z" fill="#FDB445"/>
<path fill-rule="evenodd" clip-rule="evenodd" d="M25.2912 22.8376C21.1837 27.7641 13.8149 27.7526 9.70898 22.8376C9.78847 22.8331 9.86787 22.8247 9.94727 22.8247C14.9825 22.8241 20.0178 22.8241 25.0529 22.8247C25.1324 22.8247 25.2118 22.8331 25.2912 22.8376Z" fill="#FEB445"/>
<path fill-rule="evenodd" clip-rule="evenodd" d="M22.0075 19.8049C22.0075 20.2467 22.0116 20.6885 22.0062 21.1305C22.0014 21.5227 21.8044 21.7466 21.4774 21.7472C21.1457 21.7479 20.9434 21.5337 20.9402 21.1357C20.9323 20.1462 20.9365 19.1566 20.9382 18.1671C20.9386 17.8986 21.0189 17.6672 21.2973 17.5697C21.5919 17.4666 21.7986 17.6057 21.9675 17.837C22.3745 18.3943 22.7842 18.9494 23.261 19.4926C23.261 19.126 23.2593 18.7594 23.2619 18.3927C23.2628 18.2567 23.2599 18.1185 23.2827 17.9854C23.3318 17.7001 23.5167 17.5357 23.8009 17.5395C24.1022 17.5436 24.3146 17.7287 24.3197 18.0246C24.3382 19.1048 24.3434 20.1858 24.3104 21.2653C24.3054 21.4257 24.0978 21.639 23.9313 21.7206C23.7138 21.8273 23.4917 21.7082 23.3415 21.5023C22.993 21.0247 22.6433 20.5482 22.2933 20.0718C22.2211 19.9734 22.1459 19.8771 22.0722 19.7798C22.0507 19.7881 22.029 19.7964 22.0075 19.8049Z" fill="#F9CC5E"/>
<path fill-rule="evenodd" clip-rule="evenodd" d="M15.6667 20.4327C15.8154 20.5544 15.9574 20.6522 16.0772 20.7723C16.3743 21.0705 16.3965 21.3755 16.1526 21.6082C15.9277 21.8228 15.6128 21.7928 15.3383 21.5244C15.1105 21.3015 14.8964 21.0636 14.6588 20.8519C14.5631 20.7666 14.421 20.7334 14.2294 20.6433C14.2294 20.9019 14.2373 21.0696 14.2276 21.2362C14.2093 21.5506 13.9999 21.751 13.7057 21.7485C13.4124 21.7461 13.1952 21.5434 13.1927 21.2266C13.1844 20.1792 13.1881 19.1317 13.1897 18.0842C13.1902 17.7763 13.3515 17.5608 13.6522 17.5523C14.1612 17.5378 14.691 17.4969 15.178 17.6114C16.2604 17.8661 16.6699 19.2436 15.9642 20.1077C15.8929 20.1952 15.8119 20.2749 15.6667 20.4327ZM14.2561 18.6016C14.2561 18.9453 14.2561 19.2776 14.2561 19.6402C14.5941 19.6009 14.9717 19.7664 15.1663 19.3883C15.2411 19.2429 15.242 18.9945 15.1672 18.8496C14.9752 18.4783 14.6016 18.6088 14.2561 18.6016Z" fill="#FBCD5D"/>
<path fill-rule="evenodd" clip-rule="evenodd" d="M3.64333 20.1863C3.52893 20.1775 3.45035 20.1774 3.37387 20.1643C3.08645 20.1154 2.90806 19.8978 2.92775 19.6134C2.94817 19.3198 3.1128 19.1481 3.40432 19.1333C3.72237 19.1171 4.04224 19.1167 4.36047 19.1306C4.69821 19.1455 4.86393 19.3377 4.87131 19.6851C4.89346 20.7337 3.99402 21.6926 2.93951 21.7446C1.76249 21.8025 0.761307 20.9786 0.678992 19.8839C0.57088 18.4475 1.70834 17.3608 3.14434 17.5289C3.47287 17.5674 3.69475 17.792 3.68645 18.0777C3.67797 18.3704 3.45327 18.575 3.1149 18.5914C2.96713 18.5986 2.81827 18.5862 2.67087 18.5973C2.19576 18.6328 1.78127 19.0403 1.71901 19.5251C1.66012 19.9829 1.96012 20.4692 2.40341 20.6347C2.87023 20.8089 3.32948 20.6553 3.64333 20.1863Z" fill="#FBCD5D"/>
<path fill-rule="evenodd" clip-rule="evenodd" d="M5.31532 19.1134C5.31532 18.7721 5.30775 18.4305 5.31741 18.0895C5.32726 17.7424 5.52744 17.5437 5.84066 17.5469C6.14685 17.5502 6.35196 17.76 6.35652 18.1018C6.36408 18.682 6.3567 19.2624 6.35971 19.8427C6.36226 20.3568 6.64968 20.6958 7.08359 20.7047C7.53418 20.7139 7.84138 20.3729 7.84675 19.8428C7.8525 19.2739 7.84429 18.7049 7.84985 18.136C7.8535 17.7573 8.03983 17.5507 8.36216 17.5471C8.68595 17.5434 8.88604 17.7528 8.88923 18.1225C8.8947 18.7597 8.90017 19.397 8.88677 20.034C8.86671 20.9865 8.07702 21.744 7.1175 21.7488C6.14011 21.7537 5.35889 21.0279 5.32015 20.0691C5.3073 19.751 5.31814 19.432 5.31814 19.1134C5.31723 19.1134 5.31623 19.1134 5.31532 19.1134Z" fill="#FCCD5D"/>
<path fill-rule="evenodd" clip-rule="evenodd" d="M29.4715 20.1695C29.4715 20.3569 29.4715 20.5103 29.4715 20.7063C29.7969 20.7063 30.1119 20.7038 30.4267 20.7071C30.8359 20.7112 31.0462 20.8858 31.0512 21.2186C31.0563 21.5557 30.8457 21.7451 30.4461 21.7489C29.9571 21.7536 29.4679 21.7553 28.979 21.7483C28.5858 21.7426 28.3877 21.5567 28.3839 21.16C28.3742 20.1479 28.3752 19.1356 28.3833 18.1234C28.3862 17.7539 28.5829 17.543 28.949 17.5308C29.4715 17.5132 29.9956 17.5129 30.518 17.5316C30.8655 17.544 31.0566 17.7611 31.0506 18.0717C31.0447 18.3765 30.8371 18.5787 30.4935 18.5898C30.1651 18.6005 29.8362 18.5922 29.4802 18.5922C29.4802 18.7626 29.4802 18.9142 29.4802 19.1244C29.673 19.1244 29.8721 19.1181 30.0708 19.1258C30.4381 19.1399 30.6428 19.3414 30.6314 19.667C30.6208 19.97 30.4087 20.1594 30.0615 20.1687C29.8709 20.1737 29.6798 20.1695 29.4715 20.1695Z" fill="#FACC5E"/>
<path fill-rule="evenodd" clip-rule="evenodd" d="M32.7446 18.6397C32.7446 18.7866 32.7446 18.9325 32.7446 19.1269C32.9715 19.1269 33.185 19.117 33.3972 19.1292C33.7124 19.1473 33.9132 19.3596 33.9102 19.6512C33.9073 19.9403 33.7002 20.1466 33.3859 20.1675C33.2838 20.1743 33.181 20.1694 33.0786 20.1695C32.978 20.1696 32.8776 20.1695 32.7537 20.1695C32.7537 20.3489 32.7537 20.5025 32.7537 20.7064C33.0776 20.7064 33.4037 20.7026 33.7298 20.7074C34.1085 20.7128 34.3207 20.8959 34.328 21.2138C34.3359 21.5537 34.1273 21.7445 33.7268 21.7487C33.2371 21.7538 32.7474 21.755 32.2578 21.7481C31.8625 21.7425 31.6639 21.5539 31.661 21.1613C31.6534 20.1479 31.6533 19.1343 31.6611 18.1209C31.664 17.7525 31.8618 17.5425 32.2296 17.5303C32.7415 17.5132 33.2548 17.513 33.7665 17.5316C34.1422 17.5451 34.3377 17.7573 34.3278 18.0805C34.3181 18.3945 34.101 18.582 33.7263 18.5913C33.4191 18.5989 33.1118 18.5988 32.8045 18.6029C32.795 18.6032 32.7856 18.6141 32.7446 18.6397Z" fill="#FACC5E"/>
<path fill-rule="evenodd" clip-rule="evenodd" d="M12.6194 21.3007C12.5097 21.4228 12.4015 21.6217 12.2349 21.7091C12.0211 21.8211 11.7411 21.7666 11.6433 21.5318C11.5142 21.222 11.2951 21.2267 11.0408 21.2373C10.9044 21.243 10.7671 21.246 10.6311 21.2366C10.4033 21.2208 10.2301 21.2433 10.1146 21.5004C9.99514 21.7663 9.72832 21.8047 9.46725 21.7055C9.20444 21.6056 9.09141 21.319 9.19815 21.0185C9.37691 20.5151 9.57217 20.0176 9.7595 19.5172C9.95075 19.0063 10.1438 18.496 10.3301 17.9832C10.4236 17.7259 10.5774 17.5378 10.8672 17.5371C11.1573 17.5365 11.3115 17.7248 11.4066 17.981C11.7744 18.972 12.1465 19.9614 12.5155 20.952C12.5469 21.0361 12.5673 21.1244 12.6194 21.3007ZM11.0966 20.1611C11.0197 19.9604 10.9589 19.8017 10.8645 19.5552C10.7732 19.8167 10.717 19.9772 10.6527 20.1611C10.8144 20.1611 10.9256 20.1611 11.0966 20.1611Z" fill="#FBCC5D"/>
<path fill-rule="evenodd" clip-rule="evenodd" d="M18.6351 17.4062C18.8453 17.6118 19.0548 17.7269 19.1231 17.8983C19.5346 18.931 19.9181 19.975 20.3007 21.0188C20.4114 21.3208 20.2933 21.5903 20.0359 21.7052C19.7624 21.8273 19.5192 21.7189 19.3245 21.4228C19.2687 21.3378 19.1467 21.2557 19.0485 21.2471C18.7778 21.2231 18.5019 21.2207 18.2319 21.2476C18.1244 21.2584 17.9932 21.346 17.931 21.438C17.7351 21.7277 17.4861 21.8307 17.2119 21.6972C16.9598 21.5743 16.8531 21.3058 16.9654 21.0013C17.3462 19.9687 17.7247 18.9349 18.1342 17.9137C18.2062 17.7344 18.4239 17.6135 18.6351 17.4062ZM18.8494 20.1598C18.7733 19.9576 18.7138 19.7993 18.623 19.5578C18.5424 19.8109 18.4904 19.974 18.4311 20.1598C18.5814 20.1598 18.6815 20.1598 18.8494 20.1598Z" fill="#FBCC5E"/>
<path fill-rule="evenodd" clip-rule="evenodd" d="M25.8309 18.5915C25.5791 18.5915 25.3752 18.6003 25.1721 18.5894C24.8629 18.5729 24.6422 18.3618 24.6249 18.0833C24.6083 17.8154 24.8204 17.5472 25.1267 17.54C25.9451 17.5204 26.7644 17.5204 27.5827 17.5408C27.8884 17.5484 28.0986 17.8195 28.0795 18.0879C28.0598 18.3663 27.8387 18.5702 27.5284 18.5907C27.4264 18.5974 27.3236 18.5928 27.2213 18.5931C27.1206 18.5933 27.02 18.5931 26.8741 18.5931C26.8741 18.9667 26.8744 19.3153 26.8741 19.6639C26.8737 20.1873 26.881 20.7108 26.8691 21.2338C26.8619 21.5488 26.645 21.7486 26.3502 21.7475C26.0556 21.7463 25.84 21.546 25.8357 21.2291C25.8256 20.4898 25.8315 19.7502 25.8309 19.0108C25.8309 18.8876 25.8309 18.7644 25.8309 18.5915Z" fill="#FACC5E"/>
<path fill-rule="evenodd" clip-rule="evenodd" d="M20.8055 12.8262C20.7874 13.1209 20.8074 13.4241 20.7437 13.7086C20.5622 14.5203 19.8154 15.0092 18.9687 14.9053C18.2355 14.8155 17.6478 14.1432 17.6333 13.3673C17.626 12.9803 17.623 12.5926 17.6355 12.2058C17.6625 11.3774 18.3565 10.7143 19.1951 10.7033C20.0403 10.6921 20.7546 11.3671 20.7853 12.2104C20.7928 12.415 20.7864 12.6203 20.7864 12.8252C20.7928 12.8256 20.7993 12.8259 20.8055 12.8262ZM18.676 12.801C18.676 12.983 18.663 13.1661 18.6789 13.3466C18.7066 13.6598 18.9256 13.87 19.204 13.8734C19.4821 13.8768 19.7198 13.6692 19.7381 13.3584C19.7594 12.9957 19.7598 12.6297 19.7375 12.2671C19.7184 11.9557 19.4816 11.7549 19.1987 11.761C18.9151 11.767 18.7061 11.971 18.6784 12.2893C18.6636 12.4587 18.6757 12.6304 18.676 12.801Z" fill="#416093"/>
<path fill-rule="evenodd" clip-rule="evenodd" d="M13.8635 12.8198C13.8634 12.6262 13.8582 12.4324 13.8643 12.239C13.8918 11.3689 14.5556 10.7215 15.4236 10.7149C16.2965 10.7082 16.9935 11.3728 17.0187 12.2469C17.0298 12.6338 17.0317 13.0217 17.0177 13.4083C16.9869 14.26 16.2881 14.9194 15.4336 14.9176C14.5692 14.9157 13.8946 14.2651 13.8648 13.4005C13.858 13.2071 13.8637 13.0133 13.8635 12.8198ZM15.9698 12.823C15.9685 12.823 15.9674 12.823 15.9662 12.823C15.9662 12.6298 15.9858 12.4341 15.9617 12.244C15.9221 11.9323 15.684 11.734 15.4015 11.7643C15.0989 11.7967 14.9246 11.9807 14.9103 12.2802C14.8935 12.6321 14.8957 12.9858 14.9088 13.338C14.9205 13.6504 15.1374 13.8636 15.4208 13.8737C15.6925 13.8834 15.9326 13.6725 15.9661 13.3685C15.986 13.1886 15.9698 13.0049 15.9698 12.823Z" fill="#415F93"/>
<path fill-rule="evenodd" clip-rule="evenodd" d="M12.5551 13.8244C12.7406 13.8786 12.921 13.8767 12.9872 13.9627C13.1066 14.1178 13.2473 14.3456 13.2117 14.5058C13.1761 14.6656 12.945 14.8792 12.7825 14.8954C12.2762 14.9457 11.7613 14.9264 11.2506 14.9083C10.9767 14.8986 10.8196 14.7184 10.7969 14.4444C10.7727 14.1526 10.923 13.9709 11.1946 13.8887C11.2778 13.8637 11.3692 13.8662 11.4702 13.8545C11.4702 13.3881 11.4702 12.9377 11.4702 12.5522C11.2466 12.4288 11.0177 12.3637 10.8845 12.2136C10.7095 12.0164 10.7571 11.7623 10.9416 11.5645C11.1507 11.3403 11.3483 11.0944 11.5948 10.9196C11.7584 10.8035 12.0087 10.7277 12.2025 10.7559C12.4692 10.7948 12.5514 11.0565 12.553 11.3117C12.5576 12.0277 12.555 12.7436 12.5551 13.4596C12.5551 13.5826 12.5551 13.7058 12.5551 13.8244Z" fill="#436092"/>
<path fill-rule="evenodd" clip-rule="evenodd" d="M22.0375 14.9149C21.5018 14.9097 21.275 14.5007 21.4892 14.103C21.899 13.3421 22.3254 12.5903 22.7451 11.8347C22.8997 11.5564 23.0484 11.2743 23.2117 11.0011C23.3877 10.7071 23.6691 10.6234 23.9367 10.7695C24.199 10.9125 24.2939 11.212 24.133 11.5065C23.5602 12.5542 22.9824 13.5994 22.3864 14.634C22.3025 14.7798 22.1071 14.8612 22.0375 14.9149Z" fill="#426092"/>
<path fill-rule="evenodd" clip-rule="evenodd" d="M22.4531 11.2337C22.448 11.5148 22.2062 11.7561 21.9293 11.7563C21.6314 11.7566 21.3887 11.5053 21.3998 11.2079C21.4101 10.9306 21.6591 10.6981 21.9402 10.7032C22.2234 10.7086 22.4582 10.9514 22.4531 11.2337Z" fill="#436192"/>
<path fill-rule="evenodd" clip-rule="evenodd" d="M23.7008 14.9159C23.4004 14.9224 23.1793 14.7172 23.1684 14.4212C23.157 14.1147 23.3866 13.8752 23.6901 13.877C23.9797 13.8786 24.2043 14.1031 24.2066 14.3935C24.2089 14.6916 23.9983 14.9092 23.7008 14.9159Z" fill="#436192"/>
<path fill-rule="evenodd" clip-rule="evenodd" d="M14.2559 18.6005C14.6014 18.6077 14.9751 18.4772 15.167 18.8486C15.2418 18.9934 15.2409 19.2418 15.1661 19.3872C14.9714 19.7653 14.5939 19.5999 14.2559 19.6392C14.2559 19.2765 14.2559 18.9444 14.2559 18.6005Z" fill="#466391"/>
<path fill-rule="evenodd" clip-rule="evenodd" d="M11.0972 20.1625C10.9262 20.1625 10.8149 20.1625 10.6533 20.1625C10.7176 19.9786 10.7737 19.8182 10.8651 19.5566C10.9595 19.8031 11.0203 19.9618 11.0972 20.1625Z" fill="#50698F"/>
<path fill-rule="evenodd" clip-rule="evenodd" d="M18.8489 20.1606C18.6809 20.1606 18.5809 20.1606 18.4307 20.1606C18.4899 19.9748 18.5419 19.8117 18.6225 19.5586C18.7133 19.8001 18.7729 19.9583 18.8489 20.1606Z" fill="#4D678F"/>
<path fill-rule="evenodd" clip-rule="evenodd" d="M18.6758 12.7998C18.6757 12.6292 18.6636 12.4575 18.6782 12.2882C18.7059 11.9699 18.915 11.7659 19.1986 11.7599C19.4814 11.7539 19.7182 11.9546 19.7374 12.266C19.7596 12.6286 19.7593 12.9946 19.7379 13.3573C19.7196 13.6682 19.482 13.8757 19.2038 13.8724C18.9254 13.8689 18.7065 13.6587 18.6788 13.3456C18.6629 13.165 18.6759 12.9819 18.6758 12.7998Z" fill="#F7B148"/>
<path fill-rule="evenodd" clip-rule="evenodd" d="M15.9698 12.8215C15.9698 13.0036 15.986 13.1872 15.9662 13.367C15.9326 13.671 15.6926 13.882 15.4209 13.8722C15.1375 13.8621 14.9207 13.649 14.9089 13.3366C14.8958 12.9843 14.8936 12.6306 14.9104 12.2788C14.9247 11.9791 15.099 11.7953 15.4016 11.7628C15.6841 11.7325 15.9221 11.9307 15.9618 12.2425C15.9859 12.4326 15.9663 12.6284 15.9663 12.8215C15.9673 12.8215 15.9685 12.8215 15.9698 12.8215Z" fill="#F7B148"/>
</svg>
