<svg width="42" height="42" viewBox="0 0 42 42" fill="none" xmlns="http://www.w3.org/2000/svg">
<path d="M16.9148 1.87873C16.3242 2.91233 15.832 3.84748 15.832 3.95412C15.832 4.20842 15.9386 4.30686 16.8574 4.84006C17.2675 5.07795 17.6038 5.27483 17.6203 5.29123C17.6285 5.29943 14.0519 11.5256 9.66322 19.1217C4.20814 28.5717 1.61595 33.1326 1.4683 33.5592C0.557752 36.1104 1.36166 39.0143 3.42885 40.6549C4.06049 41.1553 5.24994 41.7295 5.94721 41.8772C6.67728 42.033 8.08002 42.033 8.78549 41.8854C10.2046 41.5819 11.6484 40.6385 12.5097 39.4573C12.6574 39.2522 16.3078 32.9604 20.6308 25.4709C24.9538 17.9815 28.5304 11.8127 28.5796 11.7553C28.6453 11.6815 28.8667 11.7717 29.4902 12.149C30.3597 12.6576 30.5812 12.7151 30.7863 12.4854C31.0406 12.2065 33.1406 8.49045 33.1406 8.32639C33.1406 8.23616 33.1078 8.11311 33.0749 8.06389C33.0339 8.00647 29.9167 6.16897 26.1351 3.97873L19.2609 0.000217438H18.6292H18.0058L16.9148 1.87873ZM23.141 8.47404C25.1917 9.6553 26.857 10.6561 26.857 10.6889C26.8488 10.7299 25.2574 13.5026 23.3296 16.8494L19.8105 22.9444L19.466 22.6326C18.982 22.1897 18.1535 21.5908 17.7187 21.3694C17.5136 21.2627 16.8492 21.0084 16.2421 20.7951C14.3882 20.1471 13.7074 19.778 12.6902 18.851L12.3046 18.4983L12.682 17.842C12.8953 17.4811 13.0757 17.1694 13.0921 17.153C13.1085 17.1365 13.6417 17.4237 14.2816 17.7928C14.9132 18.1537 15.4464 18.4573 15.4628 18.4573C15.5038 18.4573 16.1437 17.3744 16.2093 17.2022C16.2421 17.1119 15.9468 16.9069 15.1429 16.4475C14.5277 16.0948 14.0027 15.783 13.9781 15.742C13.9453 15.6846 14.3226 14.9627 14.5605 14.6182C14.5687 14.61 14.8476 14.7494 15.1675 14.9381C15.5531 15.1596 15.791 15.2498 15.8402 15.2006C15.9468 15.094 16.5703 14.0276 16.5703 13.9537C16.5703 13.9291 16.3078 13.7569 15.996 13.5764C15.6843 13.3959 15.4218 13.2155 15.4218 13.1826C15.4218 13.1498 15.5613 12.8791 15.7253 12.592L16.0288 12.067L16.2749 12.2147C17.2757 12.8135 18.2847 13.3713 18.3585 13.3713C18.4406 13.3713 19.1132 12.2311 19.1132 12.0834C19.1132 12.0424 18.6949 11.7717 18.1945 11.4846C17.6859 11.1975 17.1691 10.9022 17.046 10.8283L16.8163 10.6889L17.973 8.68733C19.1788 6.59553 19.3429 6.31662 19.3921 6.31662C19.4003 6.31662 21.0902 7.28459 23.141 8.47404Z" fill="#1F2937"/>
<path d="M36.652 11.2715C34.593 14.0113 33.7399 16.4312 34.1582 18.318C34.4946 19.8191 35.6512 20.8035 37.2016 20.8937C38.8832 21.0004 40.1629 20.2129 40.7043 18.7281C40.9668 17.9898 40.9504 16.6117 40.6551 15.6273C40.409 14.7824 39.8676 13.6176 39.318 12.7152C38.8422 11.9441 37.5871 10.2543 37.4887 10.2543C37.4477 10.2543 37.0703 10.7137 36.652 11.2715Z" fill="#1F2937"/>
</svg>
