<svg width="35" height="36" viewBox="0 0 35 36" fill="none" xmlns="http://www.w3.org/2000/svg">
<path d="M34.9284 8.98823V8.57812H0.0078125V29.9595C0.0078125 31.6048 1.00112 32.5768 2.68508 32.5768C7.08799 32.5778 11.4899 32.5768 15.8928 32.5768H16.3413C15.3302 30.3116 15.3203 28.0938 16.4336 25.9204C17.542 23.7567 19.3461 22.4026 21.6393 21.8126C21.5639 21.5167 21.4498 21.2555 21.4409 20.9915C21.4151 20.2302 21.427 19.469 21.4329 18.7069C21.4369 18.262 21.6363 18.0666 22.0918 18.0637C23.0464 18.0588 24.002 18.0598 24.9566 18.0637C25.432 18.0656 25.6284 18.2571 25.6324 18.7272C25.6394 19.4526 25.6255 20.178 25.6384 20.9034C25.6443 21.2362 25.6136 21.5428 25.2662 21.772C27.7321 22.3891 29.56 23.7355 30.6823 25.9127C31.8046 28.0909 31.7877 30.3193 30.7944 32.5768C31.3263 32.5768 31.7977 32.5556 32.267 32.5807C33.8002 32.6629 34.9513 31.4935 34.9443 29.9847C34.9096 22.9859 34.9284 15.987 34.9284 8.98823ZM3.2388 21.1462C3.2259 20.3125 3.2249 19.4787 3.23979 18.6459C3.24773 18.2349 3.44619 18.0666 3.87983 18.0646C4.85826 18.0588 5.83767 18.0588 6.8161 18.0646C7.25867 18.0666 7.44721 18.2513 7.45019 18.6856C7.45713 19.4942 7.45614 20.3038 7.45118 21.1133C7.44721 21.5621 7.23089 21.7643 6.75755 21.7701C6.28719 21.7749 5.81584 21.771 5.34449 21.771C4.86123 21.771 4.37798 21.7768 3.89472 21.7691C3.471 21.7614 3.24574 21.5592 3.2388 21.1462ZM7.74292 28.2611C7.73895 28.6789 7.50477 28.9004 7.06815 28.9091C6.58588 28.9178 6.10262 28.9111 5.61936 28.9111C5.1371 28.9111 4.65384 28.9188 4.17058 28.9082C3.74289 28.8995 3.53054 28.6983 3.52458 28.2804C3.51466 27.4593 3.51367 26.6391 3.52558 25.8179C3.53153 25.4262 3.74984 25.2056 4.15173 25.1998C5.13015 25.1863 6.10858 25.1863 7.08601 25.1989C7.50973 25.2037 7.73994 25.4503 7.74391 25.8721C7.74987 26.6681 7.75086 27.4651 7.74292 28.2611ZM9.3078 21.1036C9.30284 20.3067 9.30284 19.5106 9.3078 18.7146C9.31078 18.2561 9.51321 18.0675 9.99449 18.0637C10.4777 18.0598 10.96 18.0627 11.4433 18.0627C11.9136 18.0627 12.384 18.0588 12.8543 18.0637C13.3128 18.0685 13.5023 18.2291 13.5083 18.6614C13.5202 19.4942 13.5212 20.327 13.5073 21.1588C13.5013 21.5708 13.2791 21.7662 12.8454 21.7691C11.8918 21.7749 10.9392 21.7749 9.98655 21.7691C9.5152 21.7662 9.30979 21.5631 9.3078 21.1036ZM13.797 28.233C13.7931 28.7215 13.6016 28.9033 13.0955 28.9101C12.6261 28.9159 12.1558 28.9111 11.6854 28.9111C11.215 28.9111 10.7447 28.9178 10.2743 28.9091C9.81488 28.9014 9.60054 28.6867 9.59756 28.234C9.5926 27.4506 9.5926 26.6661 9.59756 25.8827C9.60054 25.4194 9.82579 25.1998 10.31 25.196C11.2379 25.1892 12.1657 25.1892 13.0945 25.196C13.5916 25.1998 13.7931 25.3991 13.797 25.8808C13.802 26.6642 13.802 27.4486 13.797 28.233ZM15.1307 14.0681C15.1208 13.2363 15.1198 12.4025 15.1307 11.5697C15.1367 11.1635 15.3381 10.9691 15.7549 10.9662C16.7323 10.9575 17.7107 10.9585 18.6892 10.9652C19.1149 10.9681 19.3421 11.178 19.3481 11.5842C19.359 12.4054 19.359 13.2266 19.3481 14.0468C19.3431 14.4414 19.096 14.6639 18.6872 14.6687C18.192 14.6755 17.6968 14.6707 17.2007 14.6707C16.7184 14.6707 16.2352 14.6755 15.7519 14.6687C15.3351 14.6629 15.1357 14.4791 15.1307 14.0681ZM19.5783 21.1201C19.5743 21.5524 19.355 21.7662 18.9114 21.7691C17.9449 21.7749 16.9784 21.7759 16.0119 21.7681C15.5912 21.7652 15.3669 21.5534 15.3609 21.1394C15.35 20.3183 15.35 19.4971 15.3609 18.675C15.3669 18.2445 15.5644 18.0685 16.0099 18.0637C16.5061 18.0588 17.0012 18.0627 17.4974 18.0627C17.9687 18.0627 18.4391 18.0588 18.9105 18.0637C19.3798 18.0675 19.5743 18.2455 19.5783 18.6924C19.5852 19.501 19.5852 20.3105 19.5783 21.1201ZM25.3992 14.0352C25.3952 14.4579 25.167 14.6649 24.7225 14.6697C24.2392 14.6745 23.7569 14.6707 23.2747 14.6707C22.8162 14.6707 22.3588 14.6745 21.9003 14.6697C21.4299 14.6658 21.2067 14.4637 21.2027 14.0187C21.1958 13.2102 21.1948 12.4016 21.2037 11.5939C21.2077 11.1741 21.417 10.9681 21.8437 10.9652C22.8212 10.9575 23.7996 10.9575 24.777 10.9662C25.1809 10.9701 25.3942 11.1809 25.3992 11.5746C25.4071 12.3948 25.4071 13.215 25.3992 14.0352ZM27.2558 14.0623C27.2479 13.2295 27.2469 12.3967 27.2568 11.5639C27.2618 11.1616 27.4642 10.9691 27.885 10.9652C28.8624 10.9575 29.8408 10.9575 30.8192 10.9652C31.24 10.9681 31.4672 11.1809 31.4732 11.5901C31.4851 12.4112 31.4851 13.2324 31.4722 14.0526C31.4662 14.4472 31.2182 14.6639 30.8054 14.6697C30.3102 14.6755 29.814 14.6707 29.3189 14.6707C28.8485 14.6707 28.3781 14.6745 27.9078 14.6697C27.4612 14.6649 27.2608 14.4849 27.2558 14.0623ZM31.758 21.1636C31.75 21.5418 31.5 21.7652 31.109 21.7681C30.1296 21.7759 29.1492 21.7768 28.1698 21.7672C27.7689 21.7633 27.5525 21.5457 27.5486 21.152C27.5406 20.3183 27.5406 19.4836 27.5496 18.6498C27.5525 18.259 27.748 18.0714 28.1459 18.0646C28.654 18.0559 29.1621 18.0627 29.6711 18.0627C30.1544 18.0627 30.6386 18.0569 31.1219 18.0646C31.5307 18.0704 31.752 18.2629 31.759 18.6614C31.7729 19.4952 31.7739 20.3299 31.758 21.1636Z" fill="#0E82FD"/>
<path d="M34.9827 7.38647H0.0144847C0.0144847 6.23838 -0.022231 5.1135 0.0254002 3.99249C0.0690621 2.93822 0.974055 2.00485 2.05469 1.89749C2.75129 1.82882 3.4608 1.88492 4.20504 1.88492C4.21099 1.99808 4.22191 2.12672 4.2229 2.25536C4.22687 2.9566 4.20702 3.6588 4.2358 4.3581C4.2745 5.30501 5.02965 5.97433 5.99419 5.95499C6.93292 5.93661 7.65929 5.23827 7.67517 4.31264C7.69005 3.50501 7.67815 2.69738 7.67815 1.8646H15.7735C15.7735 2.57745 15.7705 3.27481 15.7755 3.97218C15.7764 4.20045 15.7675 4.43548 15.8151 4.65794C15.9928 5.48298 16.7856 6.02753 17.6658 5.95015C18.5271 5.87471 19.193 5.21603 19.2148 4.37164C19.2367 3.55144 19.2198 2.7293 19.2198 1.87428H27.2972C27.3032 1.97777 27.3161 2.09287 27.3171 2.20797C27.3191 2.89663 27.3111 3.58626 27.3211 4.27492C27.334 5.2257 28.0504 5.93564 29.002 5.95499C29.9805 5.97433 30.7297 5.29631 30.7644 4.32328C30.7892 3.64719 30.7723 2.96917 30.7743 2.29212V1.83365C31.714 1.89362 32.6369 1.67793 33.5121 2.04548C34.3804 2.40915 34.9162 3.07847 34.9678 3.99249C35.0314 5.11157 34.9827 6.23741 34.9827 7.38647Z" fill="#0E82FD"/>
<path d="M23.6029 22.7227C19.847 22.7053 16.7619 25.6824 16.752 29.3337C16.743 33.0082 19.7766 35.9891 23.5384 35.9998C27.2864 36.0104 30.3537 33.0556 30.3735 29.4149C30.3933 25.7501 27.3489 22.7401 23.6029 22.7227ZM27.081 27.6236C25.6005 29.0696 24.1189 30.5137 22.6364 31.9568C22.2444 32.3389 21.9894 32.335 21.5945 31.952C21.0666 31.4403 20.5396 30.9277 20.0167 30.4121C19.6882 30.0881 19.6644 29.7825 19.9373 29.5291C20.1894 29.295 20.5148 29.3231 20.8185 29.621C21.2382 30.0311 21.6491 30.4499 22.1214 30.9228C22.4409 30.595 22.7088 30.3116 22.9877 30.0388C24.0812 28.9681 25.1777 27.9003 26.2752 26.8325C26.6087 26.5084 26.9183 26.4717 27.1822 26.7135C27.462 26.9708 27.4313 27.2822 27.081 27.6236Z" fill="#0E82FD"/>
<path d="M18.0803 4.14181C18.0753 4.57803 17.855 4.82274 17.4869 4.82177C17.1138 4.8208 16.9183 4.59254 16.9163 4.13117C16.9133 2.98502 16.9133 1.83886 16.9163 0.692699C16.9183 0.225531 17.1038 0.00790633 17.4859 0.002103C17.8848 -0.00466756 18.0773 0.217794 18.0813 0.703339C18.0852 1.2827 18.0823 1.86207 18.0823 2.44047C18.0823 3.00823 18.0862 3.57502 18.0803 4.14181Z" fill="#0E82FD"/>
<path d="M29.6257 2.39891C29.6257 2.99085 29.6296 3.58279 29.6247 4.17473C29.6197 4.60224 29.4193 4.81987 29.0481 4.8218C28.675 4.82277 28.4696 4.61192 28.4666 4.1786C28.4587 3.0073 28.4597 1.83502 28.4657 0.663717C28.4686 0.206221 28.6721 -0.00753516 29.062 0.000202618C29.4332 0.00794039 29.6207 0.222664 29.6247 0.659848C29.6296 1.23921 29.6257 1.81955 29.6257 2.39891Z" fill="#0E82FD"/>
<path d="M6.53119 4.16627C6.52821 4.59862 6.29006 4.83559 5.91397 4.82108C5.55674 4.80658 5.37514 4.58411 5.37316 4.14209C5.36919 3.56273 5.37217 2.98336 5.37217 2.404C5.37217 1.8256 5.36919 1.24623 5.37316 0.666866C5.37613 0.227747 5.56071 0.0120566 5.92687 0.000449974C6.31884 -0.0111567 6.52921 0.201632 6.53119 0.655259C6.53913 1.8256 6.53913 2.99594 6.53119 4.16627Z" fill="#0E82FD"/>
<path d="M24.5207 19.2598H22.6611V20.6825H24.5207V19.2598Z" fill="#0E82FD"/>
<path d="M18.1621 12.125H16.3154V13.541H18.1621V12.125Z" fill="#0E82FD"/>
<path d="M30.293 12.1172H28.4453V13.538H30.293V12.1172Z" fill="#0E82FD"/>
<path d="M6.56057 26.3574H4.71387V27.7754H6.56057V26.3574Z" fill="#0E82FD"/>
<path d="M6.27368 19.2637H4.41309V20.6758H6.27368V19.2637Z" fill="#0E82FD"/>
<path d="M18.4552 19.2012H16.6006V20.6772H18.4552V19.2012Z" fill="#0E82FD"/>
<path d="M30.5694 19.1836H28.7188V20.6731H30.5694V19.1836Z" fill="#0E82FD"/>
<path d="M12.3341 19.25H10.4814V20.6689H12.3341V19.25Z" fill="#0E82FD"/>
<path d="M24.2397 12.1172H22.3643V13.5332H24.2397V12.1172Z" fill="#0E82FD"/>
<path d="M12.6353 26.3555H10.7568V27.7647H12.6353V26.3555Z" fill="#0E82FD"/>
</svg>
