<svg width="36" height="36" viewBox="0 0 36 36" fill="none" xmlns="http://www.w3.org/2000/svg">
<path d="M21.0938 11.4237C21.0938 11.2474 21.0244 11.0645 20.9587 10.8956C20.6756 10.1677 20.3662 9.45018 20.0991 8.71667C19.9856 8.40245 19.9509 8.06008 19.8609 7.63986V7.93345C19.8609 14.3221 19.8619 20.7107 19.8609 27.0994C19.86 28.1021 19.3978 28.5636 18.4031 28.5645C13.1419 28.5645 7.88156 28.5645 2.62125 28.5636C1.73719 28.5636 1.24875 28.0796 1.24875 27.195C1.24687 19.4116 1.24594 11.6282 1.24875 3.84476C1.24875 2.96868 1.74656 2.48093 2.63063 2.48093C7.91531 2.47905 13.1991 2.47905 18.4828 2.48093C19.3603 2.48093 19.8516 2.97243 19.86 3.85508C19.8666 4.54169 19.8609 5.22923 19.8609 5.93741C19.8966 5.82861 19.9397 5.74325 19.9528 5.6532C20.1019 4.64487 20.4422 3.70594 20.9381 2.81766C20.9953 2.71448 20.9972 2.54471 20.9559 2.43027C20.6981 1.70802 20.0297 1.25122 19.2131 1.25122C13.4372 1.24747 7.66031 1.24653 1.88438 1.25122C0.999375 1.25216 0.353437 1.74648 0.0721875 2.59067C0.054375 2.6432 0.024375 2.69291 0 2.74356V33.2751C0.328125 34.2206 0.934687 34.7749 1.99031 34.7731C7.69687 34.7665 13.4025 34.7712 19.1081 34.7684C20.3419 34.7684 21.0984 34.0067 21.0984 32.7705C21.1003 25.6549 21.1003 18.5393 21.0938 11.4237ZM13.0266 32.2236C13.0162 32.6813 12.7875 32.9102 12.3272 32.9158C11.73 32.9233 11.1328 32.9177 10.5356 32.9177C9.96187 32.9177 9.38812 32.9215 8.81531 32.9168C8.30625 32.9121 8.08219 32.6917 8.07562 32.1927C8.07094 31.8175 8.06719 31.4423 8.07844 31.068C8.08969 30.6806 8.29969 30.4452 8.68781 30.4405C9.92812 30.4274 11.1694 30.4274 12.4106 30.4405C12.7997 30.4442 13.0106 30.675 13.0238 31.0643C13.0378 31.4498 13.035 31.8372 13.0266 32.2236Z" fill="#0E82FD"/>
<path d="M30.5959 0.559041C29.9678 0.297342 29.2778 0.18197 28.6169 0H27.2106C27.1459 0.0215737 27.0831 0.0553413 27.0175 0.0637832C23.8056 0.496196 21.3934 3.08035 21.1131 6.39333C20.8515 9.48213 22.9178 12.4555 25.9515 13.372C26.1775 13.4404 26.289 13.4114 26.4344 13.2088C27.1628 12.1882 28.6515 12.1498 29.3762 13.1497C29.5872 13.4404 29.7615 13.4236 30.0372 13.3326C32.7006 12.4574 34.6178 10.0083 34.7369 7.31256C34.8709 4.28848 33.294 1.68275 30.5959 0.559041ZM31.6487 7.35571C31.6412 7.83971 31.42 8.06858 30.939 8.07514C30.3672 8.08358 29.7953 8.07702 29.1756 8.07702C29.1756 8.64732 29.1765 9.19323 29.1747 9.73913C29.1728 10.3507 28.9675 10.5533 28.3469 10.5552C28.0309 10.5552 27.715 10.5589 27.399 10.5542C26.9331 10.5467 26.7044 10.3319 26.6969 9.86858C26.6865 9.28515 26.694 8.70172 26.694 8.07702C26.1203 8.07702 25.585 8.07796 25.0506 8.07702C24.4122 8.07608 24.204 7.87066 24.2012 7.2394C24.1994 6.92329 24.1937 6.60625 24.2031 6.29015C24.2162 5.83241 24.444 5.59979 24.9025 5.59135C25.4856 5.58103 26.0687 5.58947 26.6931 5.58947C26.6931 5.01073 26.6922 4.47421 26.694 3.93861C26.6959 3.29609 26.8919 3.10287 27.534 3.10099C27.7919 3.10005 28.0497 3.10005 28.3075 3.10099C28.9853 3.10193 29.1747 3.29515 29.1756 3.98739V5.58854C29.7672 5.58854 30.3156 5.58572 30.864 5.58947C31.4434 5.59323 31.6459 5.79677 31.6487 6.37176C31.6515 6.70005 31.6534 7.02741 31.6487 7.35571Z" fill="#0E82FD"/>
<path d="M36 20.2612V25.3263C35.9109 25.6875 35.8331 26.0514 35.729 26.4078C35.5172 27.1385 35.1487 27.7886 34.6528 28.3617C34.5619 28.4677 34.3847 28.5558 34.2478 28.5568C31.6931 28.568 29.1394 28.568 26.5856 28.5568C26.4469 28.5558 26.2669 28.4714 26.1769 28.3654C25.3378 27.3777 24.8662 26.2259 24.8372 24.9314C24.8006 23.3153 24.8259 21.6963 24.8259 20.0792C24.8259 20.023 24.84 19.9667 24.8475 19.9123C25.5328 19.8898 26.0456 20.3991 26.0709 21.1307C26.085 21.5265 26.0737 21.9233 26.0737 22.3407H27.2859C27.2934 22.201 27.3056 22.0659 27.3056 21.9299C27.3065 19.4808 27.3056 17.0308 27.3075 14.5807C27.3075 14.441 27.3075 14.2975 27.3337 14.1615C27.3956 13.8529 27.6703 13.6437 27.9656 13.6634C28.2656 13.6831 28.5103 13.9176 28.5431 14.2281C28.5562 14.3434 28.5497 14.4616 28.5497 14.5789V22.337H29.7994V21.9627C29.7994 21.0951 29.7956 20.2284 29.8003 19.3607C29.8031 18.8955 30.0375 18.6319 30.4265 18.6394C30.8006 18.646 31.0237 18.9011 31.0275 19.3514C31.0331 20.219 31.0294 21.0866 31.0294 21.9533V22.3454H32.2744V21.9683C32.2744 21.1129 32.2734 20.2575 32.2753 19.402C32.2762 18.9124 32.5069 18.6357 32.9025 18.6394C33.2944 18.6432 33.5203 18.9189 33.5222 19.4142C33.5259 20.2584 33.5231 21.1026 33.5231 21.9468V22.3426H34.7531C34.7531 21.761 34.7484 21.1907 34.754 20.6214C34.7587 20.1937 34.9397 19.9535 35.2697 19.8916C35.6128 19.826 35.805 20.0427 36 20.2612Z" fill="#0E82FD"/>
<path d="M18.6062 3.74805V27.2944H16.6731C16.51 24.8912 15.5865 22.8568 13.7275 21.2837C13.7406 21.249 13.7434 21.2087 13.765 21.1899C14.5506 20.5146 15.0831 19.6779 15.3793 18.6855C15.4065 18.5945 15.4731 18.4951 15.5509 18.4426C15.9793 18.1499 16.1734 17.7391 16.134 17.2373C16.0571 16.2599 16.3 15.3725 16.6468 14.4533C17.9134 11.0991 17.515 7.85644 15.7787 4.75169C15.7731 4.74325 15.759 4.7395 15.7187 4.71511C15.5696 4.81266 15.4056 4.91866 15.2434 5.02746C14.0603 5.81444 12.7628 6.21214 11.3378 6.20651C10.4828 6.2037 9.62309 6.1765 8.77465 6.25717C4.98715 6.61454 2.62934 10.6488 4.22684 14.1175C4.71809 15.184 5.10527 16.2111 4.98059 17.3986C4.93652 17.8244 5.1709 18.1565 5.51121 18.4126C5.58902 18.4717 5.67902 18.5514 5.7034 18.6396C5.99777 19.6713 6.55277 20.5343 7.41152 21.2556C5.52246 22.8464 4.59246 24.8772 4.43027 27.2963H2.49902V3.74805H18.6062Z" fill="#0E82FD"/>
<path d="M34.7022 36.0006H26.126C26.2966 33.9398 26.4663 31.9006 26.6369 29.8398H34.1894C34.36 31.8884 34.5297 33.9285 34.7022 36.0006Z" fill="#0E82FD"/>
<path d="M15.6678 13.5131C15.0594 12.8124 14.2363 12.8593 13.4732 12.7439C11.6797 12.4719 9.88253 12.2205 8.08628 11.9692C7.75722 11.9232 7.5294 11.7703 7.46565 11.4448C7.39722 11.095 7.5819 10.8661 7.88847 10.7188C8.0319 10.6494 8.17347 10.5734 8.34315 10.4862C8.1519 10.1044 7.97659 9.75364 7.80034 9.40096C6.95003 9.72081 6.25065 10.202 6.24972 11.14C6.24972 11.7262 6.06597 12.0442 5.60284 12.3237C5.40878 12.44 5.29065 12.682 5.10409 12.9081C4.87909 11.941 4.91565 11.0302 5.31034 10.1664C6.1044 8.42639 7.46753 7.50528 9.39034 7.4565C10.2566 7.43493 11.1257 7.47433 11.99 7.42086C12.545 7.38616 13.1047 7.27172 13.6428 7.12258C14.181 6.97344 14.6947 6.73707 15.276 6.51758C16.2519 8.76875 16.4057 11.0781 15.6678 13.5131Z" fill="#0E82FD"/>
<path d="M14.023 18.6337C13.9433 19.7209 12.3243 20.989 10.8964 21.0997C9.16301 21.2338 7.38645 20.1064 7.05176 18.6337C7.54676 18.6337 8.03613 18.6347 8.52457 18.6328C9.42738 18.6309 9.92145 18.145 9.92426 17.2511C9.92707 16.4904 9.9252 15.7307 9.9252 14.9277H11.1758C11.1758 15.7053 11.1749 16.4642 11.1758 17.223C11.1777 18.1432 11.6652 18.6309 12.5839 18.6328C13.063 18.6347 13.5421 18.6337 14.023 18.6337Z" fill="#0E82FD"/>
<path d="M9.26729 24.4376C9.11073 25.3831 8.94948 26.3277 8.78636 27.2947C7.76354 27.2947 6.75104 27.2947 5.73854 27.2938C5.46948 25.9243 6.87011 23.0729 8.24354 22.2324C8.57729 22.9012 8.91104 23.5672 9.24011 24.236C9.26917 24.2941 9.27761 24.3729 9.26729 24.4376Z" fill="#0E82FD"/>
<path d="M15.4153 27.2858H12.314C12.1537 26.3281 11.9953 25.3948 11.8415 24.4606C11.8303 24.3949 11.8265 24.3142 11.8537 24.2579C12.1865 23.5788 12.5268 22.9026 12.8793 22.1953C14.4731 23.5404 15.2765 25.2269 15.4153 27.2858Z" fill="#0E82FD"/>
<path d="M8.67043 14.9277H6.22168V17.359H8.67043V14.9277Z" fill="#0E82FD"/>
<path d="M14.8796 14.9277H12.4355V17.3637H14.8796V14.9277Z" fill="#0E82FD"/>
<path d="M10.6577 13.5975C10.6567 13.6116 10.6548 13.6247 10.6539 13.6388H6.26172C6.31328 13.1379 6.84297 12.8724 7.29953 13.0113C7.86297 13.1829 8.45641 13.2626 9.03953 13.3621C9.57672 13.454 10.1177 13.5206 10.6577 13.5975Z" fill="#0E82FD"/>
<path d="M11.0576 27.2933H10.0488C10.1876 26.4669 10.3245 25.6537 10.4613 24.8395C10.5195 24.8367 10.5776 24.8348 10.6357 24.832C10.7745 25.6425 10.9141 26.4529 11.0576 27.2933Z" fill="#0E82FD"/>
<path d="M11.4217 22.3301C11.222 22.7287 11.0392 23.1236 10.8255 23.5016C10.7233 23.6798 10.3445 23.6348 10.2414 23.4407C10.052 23.0833 9.87766 22.7175 9.68359 22.3301H11.4217Z" fill="#0E82FD"/>
</svg>
