<svg width="165" height="30" viewBox="0 0 165 30" fill="none" xmlns="http://www.w3.org/2000/svg">
<g clip-path="url(#clip0_2525_22738)">
<path d="M92.5166 22.1425H96.0138V8.9511H92.5166V22.1425ZM92.5166 6.89398H96.0138V3.75684H92.5166V6.89398Z" fill="#0F172A"/>
<path d="M98.2676 26.4632H101.765V20.6518H101.816C102.561 21.7832 103.77 22.529 105.621 22.529C109.016 22.529 111.33 19.829 111.33 15.5604C111.33 11.4461 109.093 8.5918 105.596 8.5918C103.796 8.5918 102.561 9.44042 101.713 10.5975H101.636V8.9518H98.2676V26.4632ZM104.876 19.6232C102.793 19.6232 101.688 18.0547 101.688 15.6632C101.688 13.2975 102.561 11.4204 104.748 11.4204C106.908 11.4204 107.781 13.169 107.781 15.6632C107.781 18.1575 106.65 19.6232 104.876 19.6232Z" fill="#0F172A"/>
<path d="M118.306 22.529C121.598 22.529 123.86 20.9347 123.86 18.2861C123.86 15.2004 121.418 14.5832 119.206 14.1204C117.329 13.7347 115.58 13.6318 115.58 12.5004C115.58 11.549 116.48 11.0347 117.843 11.0347C119.335 11.0347 120.235 11.549 120.389 12.9632H123.551C123.295 10.3147 121.366 8.5918 117.895 8.5918C114.886 8.5918 112.52 9.9547 112.52 12.809C112.52 15.689 114.835 16.3318 117.2 16.7947C119 17.1547 120.671 17.2832 120.671 18.5432C120.671 19.469 119.798 20.0604 118.255 20.0604C116.686 20.0604 115.606 19.3918 115.375 17.8747H112.135C112.34 20.6775 114.475 22.529 118.306 22.529Z" fill="#0F172A"/>
<path d="M137.138 22.1426V8.95117H133.64V16.5626C133.64 18.3112 132.638 19.5454 130.992 19.5454C129.5 19.5454 128.807 18.6969 128.807 17.1541V8.95117H125.335V17.7454C125.335 20.6254 126.98 22.5026 129.912 22.5026C131.764 22.5026 132.792 21.8083 133.692 20.5998H133.769V22.1426H137.138Z" fill="#0F172A"/>
<path d="M139.399 22.1432H142.897V14.4804C142.897 12.7318 143.848 11.6004 145.263 11.6004C146.548 11.6004 147.294 12.3718 147.294 13.8632V22.1432H150.791V14.4804C150.791 12.7318 151.691 11.6004 153.157 11.6004C154.443 11.6004 155.188 12.3718 155.188 13.8632V22.1432H158.686V13.2718C158.686 10.3918 157.117 8.5918 154.339 8.5918C152.668 8.5918 151.279 9.46607 150.379 10.9061H150.328C149.686 9.51752 148.348 8.5918 146.677 8.5918C144.851 8.5918 143.566 9.51752 142.846 10.7261H142.768V8.9518H139.399V22.1432Z" fill="#0F172A"/>
<path d="M1.36816 22.1425H4.8653V3.75684H1.36816V22.1425Z" fill="#0F172A"/>
<path d="M13.4159 22.529C17.5044 22.529 20.3073 19.4947 20.3073 15.5604C20.3073 11.6261 17.5044 8.5918 13.4159 8.5918C9.32725 8.5918 6.52441 11.6261 6.52441 15.5604C6.52441 19.4947 9.32725 22.529 13.4159 22.529ZM13.4159 19.8547C11.2559 19.8547 10.073 18.1318 10.073 15.5604C10.073 12.989 11.2559 11.2404 13.4159 11.2404C15.5502 11.2404 16.7587 12.989 16.7587 15.5604C16.7587 18.1318 15.5502 19.8547 13.4159 19.8547Z" fill="#0F172A"/>
<path d="M27.7443 26.6432C29.6986 26.6432 31.3958 26.1804 32.5014 25.1518C33.4786 24.2518 34.07 22.9918 34.07 21.1404V8.9518H30.7015V10.3404H30.65C29.8529 9.2347 28.6443 8.5918 26.9986 8.5918C23.6558 8.5918 21.29 11.1118 21.29 15.0461C21.29 19.0318 24.17 21.3461 27.1015 21.3461C28.7729 21.3461 29.7758 20.6775 30.5471 19.8032H30.6243V21.2432C30.6243 23.0432 29.6729 23.9947 27.6929 23.9947C26.0729 23.9947 25.3271 23.3518 25.0443 22.529H21.5729C21.9329 25.1004 24.1443 26.6432 27.7443 26.6432ZM27.6929 18.5432C25.8929 18.5432 24.71 17.2318 24.71 14.9947C24.71 12.7832 25.8929 11.3947 27.6671 11.3947C29.7758 11.3947 30.8043 13.0404 30.8043 14.969C30.8043 16.9232 29.9043 18.5432 27.6929 18.5432Z" fill="#0F172A"/>
<path d="M42.5711 22.529C46.6597 22.529 49.4626 19.4947 49.4626 15.5604C49.4626 11.6261 46.6597 8.5918 42.5711 8.5918C38.4826 8.5918 35.6797 11.6261 35.6797 15.5604C35.6797 19.4947 38.4826 22.529 42.5711 22.529ZM42.5711 19.8547C40.4111 19.8547 39.2283 18.1318 39.2283 15.5604C39.2283 12.989 40.4111 11.2404 42.5711 11.2404C44.7054 11.2404 45.914 12.989 45.914 15.5604C45.914 18.1318 44.7054 19.8547 42.5711 19.8547Z" fill="#0F172A"/>
<path d="M159.956 6.78529C159.956 6.19356 160.436 5.71387 161.028 5.71387H163.171C163.762 5.71387 164.242 6.19356 164.242 6.78529C164.242 7.37703 163.762 7.85673 163.171 7.85673H161.028C160.436 7.85673 159.956 7.37703 159.956 6.78529Z" fill="#0F172A"/>
<path fill-rule="evenodd" clip-rule="evenodd" d="M70.6709 0C78.9549 0 85.6711 6.71573 85.6711 15C85.6711 23.2843 78.9549 30 70.6709 30C62.3866 30 55.6709 23.2843 55.6709 15C55.6709 6.71573 62.3866 0 70.6709 0ZM70.1287 1.12244C68.4174 1.36327 66.788 2.73831 65.5231 5.03805C65.1562 5.70512 64.8252 6.4421 64.5367 7.23783C66.2566 6.80563 68.1459 6.55082 70.1287 6.5114V1.12244ZM63.2689 7.5981C63.6277 6.47219 64.0665 5.4363 64.573 4.51549C65.2 3.37544 65.9442 2.39096 66.7826 1.63483C62.2234 2.95892 58.6298 6.55259 57.3057 11.1118C58.0618 10.2733 59.0463 9.5292 60.1863 8.9022C61.1072 8.39573 62.143 7.95683 63.2689 7.5981ZM62.9087 8.86583C62.4765 10.5857 62.2217 12.475 62.1822 14.4578H56.7933C57.0341 12.7465 58.4091 11.1171 60.7089 9.8523C61.376 9.4854 62.1129 9.15435 62.9087 8.86583ZM63.2668 14.4578C63.3116 12.294 63.6231 10.2626 64.1385 8.46765C65.9334 7.95225 67.9649 7.6407 70.1287 7.59593V9.9381C69.3215 12.0047 67.6751 13.6509 65.6085 14.4578H63.2668ZM62.1822 15.5422H56.7933C57.0341 17.2535 58.4091 18.8828 60.7089 20.1477C61.376 20.5146 62.1129 20.8456 62.9087 21.1342C62.4765 19.4143 62.2217 17.525 62.1822 15.5422ZM64.1385 21.5324C63.6231 19.7374 63.3116 17.706 63.2668 15.5422H65.6085C67.6751 16.3491 69.3215 17.9953 70.1287 20.0619V22.4041C67.9649 22.3593 65.9334 22.0478 64.1385 21.5324ZM63.2689 22.4019C62.143 22.0432 61.1072 21.6043 60.1863 21.0978C59.0463 20.4708 58.0618 19.7267 57.3057 18.8882C58.6298 23.4474 62.2234 27.0411 66.7826 28.3652C65.9442 27.609 65.2 26.6246 64.573 25.4845C64.0665 24.5637 63.6277 23.5278 63.2689 22.4019ZM70.1287 28.8775C68.4174 28.6367 66.788 27.2617 65.5231 24.962C65.1562 24.2949 64.8252 23.5579 64.5367 22.7622C66.2566 23.1943 68.1459 23.4492 70.1287 23.4886V28.8775ZM74.5591 28.3652C75.3976 27.609 76.1416 26.6246 76.7686 25.4845C77.2749 24.5637 77.7144 23.5278 78.0729 22.4019C79.1986 22.0432 80.2344 21.6043 81.1554 21.0978C82.2954 20.4708 83.2801 19.7267 84.0361 18.8882C82.7116 23.4474 79.1184 27.0411 74.5591 28.3652ZM76.8054 22.7622C76.5166 23.5579 76.1851 24.2949 75.8184 24.962C74.5537 27.2617 72.9243 28.6367 71.213 28.8775V23.4886C73.1958 23.4492 75.0851 23.1943 76.8054 22.7622ZM78.4329 21.1342C79.2286 20.8456 79.9659 20.5146 80.6326 20.1477C82.9329 18.8829 84.3076 17.2535 84.5484 15.5422H79.1596C79.1199 17.525 78.8649 19.4143 78.4329 21.1342ZM78.0751 15.5422C78.0301 17.706 77.7189 19.7374 77.2029 21.5324C75.4083 22.0478 73.3768 22.3593 71.213 22.4041V20.0636C72.02 17.9963 73.6668 16.3493 75.7339 15.5422H78.0751ZM79.1596 14.4578H84.5484C84.3076 12.7465 82.9329 11.1171 80.6326 9.8523C79.9659 9.4854 79.2286 9.15435 78.4329 8.86583C78.8649 10.5857 79.1199 12.475 79.1596 14.4578ZM77.2029 8.46765C77.7189 10.2626 78.0301 12.294 78.0751 14.4578H75.734C73.6668 13.6507 72.02 12.0037 71.213 9.93637V7.59593C73.3768 7.6407 75.4083 7.95225 77.2029 8.46765ZM78.0729 7.5981C79.1986 7.95683 80.2344 8.39573 81.1554 8.9022C82.2954 9.5292 83.2801 10.2733 84.0361 11.1118C82.7116 6.55259 79.1184 2.95892 74.5591 1.63483C75.3976 2.39096 76.1416 3.37544 76.7686 4.51549C77.2749 5.4363 77.7144 6.47219 78.0729 7.5981ZM71.213 1.12244C72.9243 1.36327 74.5537 2.73831 75.8184 5.03805C76.1851 5.70513 76.5166 6.4421 76.8054 7.23783C75.0851 6.80563 73.1958 6.55082 71.213 6.5114V1.12244Z" fill="#0F172A"/>
</g>
<defs>
<clipPath id="clip0_2525_22738">
<rect width="163.5" height="30" fill="white" transform="translate(0.75)"/>
</clipPath>
</defs>
</svg>
