<svg width="68" height="68" viewBox="0 0 68 68" fill="none" xmlns="http://www.w3.org/2000/svg">
<path d="M0.470212 65.8003L15.2652 51.0857L15.1042 50.9253C11.486 47.3071 11.486 41.4375 15.1042 37.8188L19.0443 33.8786L23.6279 38.4622L24.7535 37.3365L20.17 32.753L27.0049 25.918L34.9654 33.8785L36.0911 32.7529L28.1306 24.7924L34.965 17.958L39.5485 22.5415L40.6742 21.4159L36.0906 16.8323L40.0308 12.8922C43.6489 9.27403 49.5186 9.27403 53.1373 12.8922L53.2983 13.0532L57.801 8.55052L51.5292 2.27873L53.2976 0.509768L67.5298 14.742L65.841 16.4309L59.5692 10.1591L55.0665 14.6618L55.4687 15.0639C59.0869 18.6821 59.0869 24.5517 55.4687 28.1705L30.462 53.1772C26.8438 56.7954 20.9742 56.7954 17.3554 53.1772L16.9532 52.7751L2.23866 67.4897L0.470212 65.8003Z" fill="white"/>
</svg>
