<svg width="36" height="34" viewBox="0 0 36 34" fill="none" xmlns="http://www.w3.org/2000/svg">
<path d="M0.40952 7.02427C0.473423 6.74127 0.528198 6.44914 0.592101 6.16614C1.35894 2.88879 4.1707 0.588263 7.53933 0.579134C14.4501 0.551747 21.3608 0.551747 28.2806 0.579134C32.3978 0.597392 35.5839 4.02993 35.3922 8.13802C35.2187 11.8627 32.0783 14.9118 28.3354 14.9392C25.3776 14.9574 22.4106 14.9483 19.4528 14.9483C19.3159 14.9483 19.1789 14.9483 19.0237 14.9483C19.0237 15.6786 19.0237 16.3907 19.0237 17.1484C19.5167 17.2123 20.0188 17.2762 20.5209 17.3401C21.8994 17.5136 23.2779 17.6597 24.6472 17.8788C26.1627 18.1252 27.1943 19.3851 27.1943 20.9279C27.2034 23.6301 27.1943 26.3232 27.1943 29.0254C27.1943 30.1117 27.1943 31.189 27.1943 32.2753C27.1943 33.0148 26.8017 33.4347 26.0622 33.4347C22.0272 33.4438 18.0013 33.4438 13.9662 33.4347C13.2268 33.4347 12.8433 33.0148 12.8433 32.2753C12.8433 31.2072 12.8342 30.13 12.8433 29.0619C12.8433 28.861 12.7794 28.7332 12.6242 28.6054C11.2275 27.446 9.84899 26.2866 8.46137 25.1181C7.35675 24.187 7.00985 22.8815 7.54846 21.6582C8.08708 20.4258 9.48383 19.6589 10.8441 19.8324C11.5835 19.9237 12.2226 20.2158 12.8068 20.7544C12.8068 18.8099 12.8068 16.9111 12.8068 14.9574C12.6973 14.9574 12.5786 14.9574 12.4508 14.9574C10.8532 14.9574 9.26473 14.9574 7.66714 14.9574C3.9516 14.9483 0.975523 12.3465 0.455165 8.65838C0.446036 8.59447 0.418649 8.53057 0.400391 8.46667C0.40952 7.98282 0.40952 7.50811 0.40952 7.02427ZM12.8433 12.8943C12.8433 12.7482 12.8433 12.6204 12.8433 12.5017C12.8433 11.5888 12.8342 10.6759 12.8525 9.77213C12.8799 8.22018 14.1214 6.92385 15.6551 6.8143C17.2618 6.69562 18.7225 7.76373 18.9142 9.3248C19.042 10.3655 18.969 11.4336 18.9872 12.4926C18.9872 12.6204 18.9872 12.7573 18.9872 12.8943C19.0785 12.9034 19.1241 12.9125 19.1698 12.9125C22.2554 12.9125 25.341 12.9399 28.4267 12.9034C31.0376 12.876 33.2651 10.6029 33.3381 7.97369C33.4203 4.99761 31.1198 2.63318 28.1163 2.63318C21.306 2.63318 14.4957 2.63318 7.6854 2.63318C7.32024 2.63318 6.95507 2.66057 6.59904 2.72447C4.09767 3.18092 2.30837 5.49971 2.45443 8.09237C2.59137 10.612 4.69106 12.7847 7.21069 12.8851C9.07302 12.9582 10.9354 12.8943 12.8433 12.8943ZM25.122 27.2908C25.1311 27.1996 25.1402 27.1539 25.1402 27.1083C25.1402 25.0451 25.1493 22.991 25.1402 20.9279C25.1402 20.3436 24.7659 19.9419 24.1908 19.8689C22.1459 19.6133 20.101 19.3577 18.0652 19.1112C17.2709 19.0108 16.9514 18.6547 16.9514 17.8514C16.9514 16.4546 16.9514 15.0487 16.9514 13.652C16.9514 12.4104 16.9606 11.1689 16.9514 9.92732C16.9514 9.19699 16.358 8.71315 15.6825 8.86835C15.1986 8.97789 14.8974 9.39783 14.8974 9.96384C14.8974 13.2503 14.8974 16.5459 14.8974 19.8324C14.8974 20.8457 14.8974 21.859 14.8974 22.8724C14.8974 23.2649 14.7696 23.5844 14.4409 23.8127C14.0392 24.0865 13.5645 24.0409 13.1537 23.694C12.5147 23.1645 11.8939 22.6167 11.2366 22.1055C10.7163 21.6947 9.93115 21.8043 9.54773 22.2972C9.20996 22.7446 9.31951 23.1554 9.92203 23.6575C11.2823 24.7986 12.6425 25.9489 14.0119 27.0717C14.1579 27.1996 14.3953 27.2817 14.587 27.2817C17.983 27.2908 21.3699 27.2908 24.7659 27.2908C24.8663 27.2908 24.985 27.2908 25.122 27.2908ZM25.1311 29.3723C21.7077 29.3723 18.3117 29.3723 14.9156 29.3723C14.9156 30.057 14.9156 30.7051 14.9156 31.3715C18.3299 31.3715 21.7259 31.3715 25.1311 31.3715C25.1311 30.696 25.1311 30.0478 25.1311 29.3723Z" fill="#FFAF14"/>
<path d="M25.1315 29.373C25.1315 30.0486 25.1315 30.6968 25.1315 31.3723C21.7263 31.3723 18.3303 31.3723 14.916 31.3723C14.916 30.715 14.916 30.0577 14.916 29.373C18.312 29.373 21.7081 29.373 25.1315 29.373Z" fill="white"/>
<path d="M24.0448 8.37577C24.3917 8.01974 24.693 7.70022 25.0034 7.38983C25.7976 6.5956 26.601 5.79224 27.3952 4.99801C27.6965 4.69675 28.0616 4.60546 28.4633 4.72414C28.8467 4.83369 29.075 5.11669 29.1571 5.50011C29.2302 5.84702 29.1297 6.16653 28.8832 6.41302C27.523 7.78238 26.1537 9.16088 24.7752 10.5211C24.3552 10.9319 23.7527 10.9319 23.3328 10.5211C22.639 9.84556 21.9543 9.16088 21.2787 8.46706C20.8679 8.04713 20.8862 7.42635 21.2878 7.02467C21.6804 6.63212 22.3103 6.62299 22.7302 7.0338C23.1593 7.45374 23.5792 7.90106 24.0448 8.37577Z" fill="#FFAF14"/>
</svg>
