<svg width="14" height="14" viewBox="0 0 14 14" fill="none" xmlns="http://www.w3.org/2000/svg">
<g clip-path="url(#clip0_2578_53358)">
<path d="M7.00007 0.875C7.4642 0.875 7.90932 1.05937 8.2375 1.38756C8.56569 1.71575 8.75007 2.16087 8.75007 2.625V4.375H5.25007V2.625C5.25007 2.16087 5.43444 1.71575 5.76263 1.38756C6.09082 1.05937 6.53594 0.875 7.00007 0.875ZM9.62507 4.375V2.625C9.62507 1.92881 9.34851 1.26113 8.85622 0.768845C8.36394 0.276562 7.69626 0 7.00007 0C6.30387 0 5.63619 0.276562 5.14391 0.768845C4.65163 1.26113 4.37507 1.92881 4.37507 2.625V4.375H2.94007C2.62583 4.37507 2.32205 4.48788 2.08393 4.69292C1.84581 4.89796 1.68916 5.18163 1.64244 5.49237L0.743817 11.4888C0.697256 11.7999 0.718354 12.1174 0.805671 12.4196C0.892988 12.7219 1.04447 13.0017 1.24978 13.2401C1.45509 13.4785 1.70941 13.6697 1.99537 13.8009C2.28133 13.932 2.59222 13.9999 2.90682 14H11.0924C11.4071 14.0001 11.7181 13.9322 12.0042 13.8012C12.2902 13.6701 12.5447 13.4788 12.7501 13.2404C12.9555 13.002 13.107 12.7222 13.1944 12.4199C13.2818 12.1175 13.3029 11.8 13.2563 11.4888L12.3568 5.49237C12.3101 5.18178 12.1536 4.89823 11.9157 4.6932C11.6777 4.48818 11.3742 4.37528 11.0601 4.375H9.62507ZM8.75007 5.25V6.5625C8.75007 6.67853 8.79616 6.78981 8.87821 6.87186C8.96025 6.95391 9.07154 7 9.18757 7C9.3036 7 9.41488 6.95391 9.49693 6.87186C9.57897 6.78981 9.62507 6.67853 9.62507 6.5625V5.25H11.0592C11.1639 5.2501 11.2652 5.28778 11.3445 5.35618C11.4238 5.42458 11.4759 5.51917 11.4914 5.62275L12.3909 11.6174C12.419 11.8041 12.4065 11.9947 12.3541 12.1761C12.3018 12.3576 12.211 12.5256 12.0878 12.6687C11.9646 12.8118 11.812 12.9267 11.6404 13.0054C11.4687 13.0842 11.2821 13.125 11.0933 13.125H2.90682C2.71799 13.125 2.53139 13.0842 2.35976 13.0054C2.18813 12.9267 2.03552 12.8118 1.91234 12.6687C1.78915 12.5256 1.6983 12.3576 1.64599 12.1761C1.59367 11.9947 1.58112 11.8041 1.60919 11.6174L2.50869 5.62275C2.52417 5.51931 2.57619 5.42485 2.65533 5.35646C2.73446 5.28808 2.83548 5.25031 2.94007 5.25H4.37507V6.5625C4.37507 6.67853 4.42116 6.78981 4.50321 6.87186C4.58525 6.95391 4.69653 7 4.81257 7C4.9286 7 5.03988 6.95391 5.12193 6.87186C5.20397 6.78981 5.25007 6.67853 5.25007 6.5625V5.25H8.75007Z" fill="#2DD4BF"/>
</g>
<defs>
<clipPath id="clip0_2578_53358">
<rect width="14" height="14" fill="white"/>
</clipPath>
</defs>
</svg>
