<svg width="137" height="30" viewBox="0 0 137 30" fill="none" xmlns="http://www.w3.org/2000/svg">
<g clip-path="url(#clip0_2525_22725)">
<path fill-rule="evenodd" clip-rule="evenodd" d="M43.6494 1.99702C43.6494 0.980395 44.4825 0.15625 45.5104 0.15625H48.7523C49.4838 0.15625 50.1927 0.407005 50.7583 0.865831L51.7445 1.66579L51.7692 1.68804C51.7919 1.68045 51.8147 1.67303 51.8375 1.66579C53.6167 1.10209 55.7754 0.99489 57.9787 0.99489C60.1819 0.99489 62.3406 1.10209 64.1198 1.66579C64.1426 1.67303 64.1654 1.68045 64.1881 1.68804L64.2128 1.66579L65.199 0.865831C65.7646 0.407005 66.4736 0.15625 67.205 0.15625H70.4469C71.4748 0.15625 72.3079 0.980395 72.3079 1.99702V3.13496C72.3079 4.01539 71.933 4.85508 71.275 5.44806L70.4794 6.16513C70.091 6.51519 69.6249 6.76996 69.1185 6.90885L68.9303 6.96048C69.6675 8.70043 70.0748 10.5603 70.0748 12.0648C70.0748 18.1171 66.289 20.7309 62.9533 23.0341C60.3264 24.8478 57.9787 26.4688 57.9787 29.4246C57.9787 26.4688 55.6309 24.8478 53.004 23.0341C49.6683 20.7309 45.8825 18.1171 45.8825 12.0648C45.8825 10.5603 46.2898 8.70043 47.027 6.96048L46.8388 6.90885C46.3324 6.76996 45.8663 6.51519 45.4779 6.16513L44.6823 5.44806C44.0243 4.85508 43.6494 4.01539 43.6494 3.13496V1.99702ZM60.3979 17.0128C60.3979 17.3019 60.2704 17.5792 60.0436 17.7837C59.8168 17.9881 59.5091 18.103 59.1882 18.103C58.9113 18.103 58.6441 18.0173 58.4303 17.8624C58.7942 18.826 59.7256 19.7391 61.1423 18.2707C62.3929 16.9063 61.0867 14.0286 59.8141 12.3209C59.3899 11.7517 58.6935 11.4778 57.9787 11.4778C57.2638 11.4778 56.5674 11.7517 56.1432 12.3209C54.8707 14.0286 53.5644 16.9063 54.815 18.2707C56.2317 19.7391 57.1631 18.826 57.527 17.8624C57.3132 18.0173 57.046 18.103 56.7691 18.103C56.4482 18.103 56.1405 17.9881 55.9137 17.7837C55.6869 17.5792 55.5594 17.3019 55.5594 17.0128H60.3979ZM53.3464 8.49416H49.9766L52.6324 10.5976C53.2168 11.0604 54.071 10.9125 54.4326 10.2857C54.8892 9.49447 54.2827 8.49416 53.3464 8.49416ZM62.6109 8.49416H65.9807L63.3249 10.5976C62.7405 11.0604 61.8863 10.9125 61.5247 10.2857C61.0681 9.49447 61.6746 8.49416 62.6109 8.49416Z" fill="#72B800"/>
<path d="M76.3223 20.8875H79.3076V9.62654H76.3223V20.8875ZM76.3223 7.87044H79.3076V5.19238H76.3223V7.87044Z" fill="#355030"/>
<path d="M81.2305 24.5754H84.2158V19.6145H84.2597C84.8963 20.5803 85.928 21.2169 87.5085 21.2169C90.4061 21.2169 92.3817 18.912 92.3817 15.2681C92.3817 11.7559 90.4719 9.31934 87.4866 9.31934C85.95 9.31934 84.8963 10.0437 84.1719 11.0315H84.1061V9.62665H81.2305V24.5754ZM86.8719 18.7364C85.0939 18.7364 84.15 17.3974 84.15 15.3559C84.15 13.3364 84.8963 11.734 86.7622 11.734C88.6061 11.734 89.3524 13.2267 89.3524 15.3559C89.3524 17.4852 88.3866 18.7364 86.8719 18.7364Z" fill="#355030"/>
<path d="M98.3376 21.2169C101.147 21.2169 103.079 19.8559 103.079 17.5949C103.079 14.9608 100.994 14.434 99.1059 14.0388C97.5035 13.7096 96.0108 13.6218 96.0108 12.6559C96.0108 11.8437 96.7791 11.4047 97.9425 11.4047C99.2157 11.4047 99.984 11.8437 100.116 13.051H102.816C102.596 10.7901 100.95 9.31934 97.9864 9.31934C95.4181 9.31934 93.3986 10.4827 93.3986 12.9193C93.3986 15.3779 95.3742 15.9267 97.3937 16.3218C98.9303 16.6291 100.357 16.7388 100.357 17.8145C100.357 18.6047 99.6108 19.1096 98.2937 19.1096C96.9547 19.1096 96.0327 18.5388 95.8352 17.2437H93.0693C93.2449 19.6364 95.0669 21.2169 98.3376 21.2169Z" fill="#355030"/>
<path d="M114.413 20.8879V9.62695H111.428V16.1245C111.428 17.6172 110.572 18.6709 109.167 18.6709C107.894 18.6709 107.301 17.9465 107.301 16.6294V9.62695H104.338V17.1343C104.338 19.5928 105.743 21.1952 108.245 21.1952C109.826 21.1952 110.704 20.6026 111.472 19.5709H111.538V20.8879H114.413Z" fill="#355030"/>
<path d="M116.345 20.8876H119.33V14.3462C119.33 12.8535 120.142 11.8876 121.35 11.8876C122.447 11.8876 123.084 12.5462 123.084 13.8193V20.8876H126.069V14.3462C126.069 12.8535 126.837 11.8876 128.089 11.8876C129.186 11.8876 129.823 12.5462 129.823 13.8193V20.8876H132.808V13.3145C132.808 10.8559 131.469 9.31934 129.098 9.31934C127.672 9.31934 126.486 10.0657 125.718 11.2949H125.674C125.125 10.1096 123.984 9.31934 122.557 9.31934C120.998 9.31934 119.901 10.1096 119.286 11.1413H119.22V9.62665H116.345V20.8876Z" fill="#355030"/>
<path d="M0.952148 20.8875H3.93751V5.19238H0.952148V20.8875Z" fill="#355030"/>
<path d="M11.2365 21.2169C14.7267 21.2169 17.1194 18.6267 17.1194 15.2681C17.1194 11.9096 14.7267 9.31934 11.2365 9.31934C7.7462 9.31934 5.35352 11.9096 5.35352 15.2681C5.35352 18.6267 7.7462 21.2169 11.2365 21.2169ZM11.2365 18.934C9.39258 18.934 8.38282 17.4632 8.38282 15.2681C8.38282 13.073 9.39258 11.5803 11.2365 11.5803C13.0584 11.5803 14.0901 13.073 14.0901 15.2681C14.0901 17.4632 13.0584 18.934 11.2365 18.934Z" fill="#355030"/>
<path d="M23.4687 24.7291C25.137 24.7291 26.5858 24.334 27.5297 23.4559C28.3639 22.6876 28.8687 21.612 28.8687 20.0315V9.62665H25.9931V10.812H25.9492C25.2687 9.86812 24.237 9.31934 22.8322 9.31934C19.9785 9.31934 17.959 11.4706 17.959 14.8291C17.959 18.2315 20.4175 20.2071 22.92 20.2071C24.3468 20.2071 25.2029 19.6364 25.8614 18.8901H25.9273V20.1193C25.9273 21.6559 25.1151 22.4681 23.4248 22.4681C22.0419 22.4681 21.4053 21.9193 21.1639 21.2169H18.2004C18.5078 23.412 20.3956 24.7291 23.4687 24.7291ZM23.4248 17.8145C21.8883 17.8145 20.8785 16.6949 20.8785 14.7852C20.8785 12.8974 21.8883 11.712 23.4029 11.712C25.2029 11.712 26.0809 13.1169 26.0809 14.7632C26.0809 16.4315 25.3126 17.8145 23.4248 17.8145Z" fill="#355030"/>
<path d="M36.1251 21.2169C39.6154 21.2169 42.008 18.6267 42.008 15.2681C42.008 11.9096 39.6154 9.31934 36.1251 9.31934C32.6349 9.31934 30.2422 11.9096 30.2422 15.2681C30.2422 18.6267 32.6349 21.2169 36.1251 21.2169ZM36.1251 18.934C34.2812 18.934 33.2715 17.4632 33.2715 15.2681C33.2715 13.073 34.2812 11.5803 36.1251 11.5803C37.9471 11.5803 38.9788 13.073 38.9788 15.2681C38.9788 17.4632 37.9471 18.934 36.1251 18.934Z" fill="#355030"/>
<path d="M132.674 7.16756C132.674 6.66242 133.083 6.25293 133.588 6.25293H135.418C135.923 6.25293 136.332 6.66242 136.332 7.16756C136.332 7.67267 135.923 8.08221 135.418 8.08221H133.588C133.083 8.08221 132.674 7.67267 132.674 7.16756Z" fill="#355030"/>
</g>
<defs>
<clipPath id="clip0_2525_22725">
<rect width="136.098" height="30" fill="white" transform="translate(0.451172)"/>
</clipPath>
</defs>
</svg>
