<svg width="31" height="31" viewBox="0 0 31 31" fill="none" xmlns="http://www.w3.org/2000/svg">
<path d="M5.87476 7.01367V23.8887C5.87476 24.1373 5.77598 24.3758 5.60017 24.5516C5.42435 24.7274 5.1859 24.8262 4.93726 24.8262C4.68862 24.8262 4.45016 24.7274 4.27434 24.5516C4.09853 24.3758 3.99976 24.1373 3.99976 23.8887V7.01367C3.99976 6.76503 4.09853 6.52657 4.27434 6.35076C4.45016 6.17494 4.68862 6.07617 4.93726 6.07617C5.1859 6.07617 5.42435 6.17494 5.60017 6.35076C5.77598 6.52657 5.87476 6.76503 5.87476 7.01367ZM15.7185 13.4004L13.3748 14.1621V11.7012C13.3748 11.4525 13.276 11.2141 13.1002 11.0383C12.9244 10.8624 12.6859 10.7637 12.4373 10.7637C12.1886 10.7637 11.9502 10.8624 11.7743 11.0383C11.5985 11.2141 11.4998 11.4525 11.4998 11.7012V14.1621L9.15601 13.4004C9.03992 13.3604 8.91697 13.3443 8.7945 13.3528C8.67202 13.3614 8.55254 13.3946 8.44316 13.4504C8.33379 13.5062 8.23678 13.5834 8.15791 13.6775C8.07905 13.7716 8.01994 13.8806 7.98413 13.998C7.94402 14.1149 7.92771 14.2387 7.93616 14.3619C7.94462 14.4852 7.97767 14.6056 8.03337 14.7159C8.08907 14.8262 8.16629 14.9242 8.26048 15.0042C8.35467 15.0842 8.46392 15.1445 8.58179 15.1816L10.9255 15.9434L9.47241 17.9355C9.39976 18.0355 9.34758 18.1487 9.31885 18.2689C9.29013 18.389 9.28543 18.5137 9.30503 18.6356C9.32463 18.7576 9.36815 18.8745 9.43307 18.9796C9.498 19.0847 9.58305 19.1759 9.68335 19.248C9.88618 19.3917 10.1373 19.4501 10.3827 19.4107C10.6281 19.3713 10.8483 19.2371 10.9958 19.0371L12.4373 17.0449L13.8787 19.0371C14.0263 19.2371 14.2464 19.3713 14.4918 19.4107C14.7372 19.4501 14.9883 19.3917 15.1912 19.248C15.2915 19.1759 15.3765 19.0847 15.4414 18.9796C15.5064 18.8745 15.5499 18.7576 15.5695 18.6356C15.5891 18.5137 15.5844 18.389 15.5557 18.2689C15.5269 18.1487 15.4748 18.0355 15.4021 17.9355L13.949 15.9434L16.2927 15.1816C16.4106 15.1445 16.5198 15.0842 16.614 15.0042C16.7082 14.9242 16.7854 14.8262 16.8411 14.7159C16.8968 14.6056 16.9299 14.4852 16.9384 14.3619C16.9468 14.2387 16.9305 14.1149 16.8904 13.998C16.8546 13.8806 16.7955 13.7716 16.7166 13.6775C16.6377 13.5834 16.5407 13.5062 16.4313 13.4504C16.322 13.3946 16.2025 13.3614 16.08 13.3528C15.9575 13.3443 15.8346 13.3604 15.7185 13.4004ZM28.1404 13.998C28.1046 13.8806 28.0455 13.7716 27.9666 13.6775C27.8877 13.5834 27.7907 13.5062 27.6814 13.4504C27.572 13.3946 27.4525 13.3614 27.33 13.3528C27.2075 13.3443 27.0846 13.3604 26.9685 13.4004L24.6248 14.1621V11.7012C24.6248 11.4525 24.526 11.2141 24.3502 11.0383C24.1744 10.8624 23.9359 10.7637 23.6873 10.7637C23.4386 10.7637 23.2002 10.8624 23.0243 11.0383C22.8485 11.2141 22.7498 11.4525 22.7498 11.7012V14.1621L20.406 13.4004C20.2899 13.3604 20.167 13.3443 20.0445 13.3528C19.922 13.3614 19.8025 13.3946 19.6932 13.4504C19.5838 13.5062 19.4868 13.5834 19.4079 13.6775C19.329 13.7716 19.2699 13.8806 19.2341 13.998C19.194 14.1149 19.1777 14.2387 19.1862 14.3619C19.1946 14.4852 19.2277 14.6056 19.2834 14.7159C19.3391 14.8262 19.4163 14.9242 19.5105 15.0042C19.6047 15.0842 19.7139 15.1445 19.8318 15.1816L22.1755 15.9434L20.7224 17.9355C20.6498 18.0355 20.5976 18.1487 20.5689 18.2689C20.5401 18.389 20.5354 18.5137 20.555 18.6356C20.5746 18.7576 20.6181 18.8745 20.6831 18.9796C20.748 19.0847 20.8331 19.1759 20.9334 19.248C21.1362 19.3917 21.3873 19.4501 21.6327 19.4107C21.8781 19.3713 22.0983 19.2371 22.2458 19.0371L23.6873 17.0449L25.1287 19.0371C25.2763 19.2371 25.4964 19.3713 25.7418 19.4107C25.9872 19.4501 26.2383 19.3917 26.4412 19.248C26.5415 19.1759 26.6265 19.0847 26.6914 18.9796C26.7564 18.8745 26.7999 18.7576 26.8195 18.6356C26.8391 18.5137 26.8344 18.389 26.8057 18.2689C26.7769 18.1487 26.7248 18.0355 26.6521 17.9355L25.199 15.9434L27.5427 15.1816C27.6606 15.1445 27.7698 15.0842 27.864 15.0042C27.9582 14.9242 28.0354 14.8262 28.0911 14.7159C28.1468 14.6056 28.1799 14.4852 28.1884 14.3619C28.1968 14.2387 28.1805 14.1149 28.1404 13.998Z" fill="black"/>
</svg>
