<svg width="150" height="52" viewBox="0 0 150 52" fill="none" xmlns="http://www.w3.org/2000/svg">
<rect width="150" height="52" rx="10" fill="white"/>
<path d="M25 16.4902L28.09 22.7502L35 23.7602L30 28.6302L31.18 35.5102L25 32.2602L18.82 35.5102L20 28.6302L15 23.7602L21.91 22.7502L25 16.4902Z" fill="#FFAF14" stroke="#FFAF14" stroke-width="2" stroke-linecap="round" stroke-linejoin="round"/>
<path d="M50 16.4902L53.09 22.7502L60 23.7602L55 28.6302L56.18 35.5102L50 32.2602L43.82 35.5102L45 28.6302L40 23.7602L46.91 22.7502L50 16.4902Z" fill="#FFAF14" stroke="#FFAF14" stroke-width="2" stroke-linecap="round" stroke-linejoin="round"/>
<path d="M75 16.4902L78.09 22.7502L85 23.7602L80 28.6302L81.18 35.5102L75 32.2602L68.82 35.5102L70 28.6302L65 23.7602L71.91 22.7502L75 16.4902Z" fill="#FFAF14" stroke="#FFAF14" stroke-width="2" stroke-linecap="round" stroke-linejoin="round"/>
<path d="M100 16.4902L103.09 22.7502L110 23.7602L105 28.6302L106.18 35.5102L100 32.2602L93.82 35.5102L95 28.6302L90 23.7602L96.91 22.7502L100 16.4902Z" fill="#FFAF14" stroke="#FFAF14" stroke-width="2" stroke-linecap="round" stroke-linejoin="round"/>
<path d="M125 16.4902L128.09 22.7502L135 23.7602L130 28.6302L131.18 35.5102L125 32.2602L118.82 35.5102L120 28.6302L115 23.7602L121.91 22.7502L125 16.4902Z" fill="#FFAF14" stroke="#FFAF14" stroke-width="2" stroke-linecap="round" stroke-linejoin="round"/>
</svg>
