<svg width="66" height="56" viewBox="0 0 66 56" fill="none" xmlns="http://www.w3.org/2000/svg">
<path d="M65.483 37.26C65.195 38.0811 64.5342 38.4162 63.7379 38.6173C58.1804 40.0416 52.7754 39.6227 47.5229 37.3103C47.0823 37.1092 46.6249 36.9417 46.1335 36.7406C46.0827 37.193 46.0488 37.5952 45.981 37.9973C45.4896 40.8292 43.0328 42.4545 40.2032 41.8178C38.8986 41.5329 37.7803 40.8794 36.7637 40.0248C36.7129 40.0416 36.662 40.0584 36.6451 40.0751C35.171 42.0356 32.7311 42.3875 30.5454 41.4491C28.1394 40.427 26.5637 38.6005 25.6995 36.1876C25.564 35.819 25.3946 35.6179 25.0049 35.5006C23.7341 35.132 23.3105 34.7968 21.65 33.1044C16.0925 38.6508 10.5181 44.1804 4.89284 49.7939C5.41809 49.9112 5.99418 50.0955 6.60414 50.1457C8.67126 50.3301 10.5689 49.6766 12.3988 48.822C15.3979 47.3977 18.0072 45.4204 20.3962 43.1583C20.5656 42.9907 20.6673 42.6891 20.6673 42.4545C20.7012 41.3486 20.6842 40.2427 20.7012 39.1367C20.7181 38.0811 21.3959 37.3773 22.3447 37.3773C23.2936 37.3773 23.9713 38.0978 23.9713 39.1535C23.9713 40.5946 23.9713 42.0356 23.9035 43.4767C23.8866 43.8956 23.7341 44.4318 23.4291 44.7167C20.1421 47.9842 16.5161 50.7993 12.1108 52.4749C9.77259 53.363 7.34966 53.7819 4.84201 53.1787C3.48653 52.8603 2.28353 52.2068 1.24998 51.2684C0.267249 50.3636 0.250305 49.4587 1.19915 48.5204C5.70613 44.0464 10.2301 39.5892 14.754 35.132C14.9234 34.9644 15.1776 34.8638 15.3979 34.7298C15.347 34.6795 15.2793 34.6125 15.2284 34.5622C15.2115 34.5455 15.2115 34.5287 15.1945 34.512C12.0769 32.5179 11.4669 29.8872 13.3816 26.7537C15.7028 22.9668 18.0241 19.1798 20.3115 15.3761C21.5484 13.3485 23.158 11.7232 25.2082 10.4832C28.4783 8.48916 31.7315 6.46163 34.9846 4.43409C36.1198 3.73032 37.3228 3.2779 38.6614 3.19411C39.7119 3.12709 40.4743 3.69681 40.576 4.60166C40.6777 5.52326 40.0846 6.2773 39.0511 6.41136C38.0514 6.52865 37.1873 6.91405 36.3571 7.4335C33.2394 9.37725 30.1049 11.321 26.9534 13.248C25.3268 14.2366 24.056 15.5269 23.0902 17.1355C20.752 20.9895 18.3969 24.8267 16.0587 28.6807C15.8723 28.9991 15.6859 29.351 15.6012 29.7029C15.4487 30.4234 15.8723 31.1774 16.5331 31.5293C17.1939 31.8812 17.9733 31.8142 18.5324 31.3115C19.1593 30.7418 19.7524 30.1553 20.3454 29.552C20.4979 29.4012 20.5826 29.1666 20.6165 28.9488C21.0231 26.1505 23.0055 24.1565 25.852 23.6538C26.1909 23.5867 26.5637 23.3857 26.8178 23.1511C34.1374 15.9961 41.3893 8.82429 48.6411 1.65252C50.7591 -0.442042 53.8767 -0.492311 55.9099 1.50171C57.7737 3.32816 57.8923 6.31082 56.1641 8.27132C55.9777 8.48916 55.7574 8.70699 55.5541 8.90807C50.8099 13.5999 46.0827 18.2749 41.3385 22.9668C41.169 23.1343 40.9826 23.2684 40.6607 23.5197C40.9996 23.5532 41.1521 23.5867 41.2876 23.5867C42.6601 23.5867 44.0325 23.5867 45.4049 23.5867C46.7773 23.5867 47.7092 22.7657 47.9126 21.4084C47.9295 21.3079 47.9295 21.2073 47.9465 21.09C48.0481 20.1349 48.7767 19.4982 49.6916 19.5652C50.5897 19.6322 51.2505 20.3695 51.2166 21.3246C51.1488 22.95 50.5219 24.324 49.285 25.4132C48.1328 26.4353 46.7604 26.8543 45.2016 26.8543C39.1189 26.8375 33.0192 26.8543 26.9364 26.8543C25.4454 26.8543 24.2593 27.7759 23.9882 29.1164C23.6155 30.9763 24.9371 32.5682 26.9195 32.585C29.3255 32.6017 31.7315 32.585 34.1544 32.585C35.9165 32.585 37.6617 32.652 39.4238 32.5682C42.9312 32.4174 46.2352 33.1714 49.4375 34.5622C53.8089 36.4557 58.3498 36.6735 62.9585 35.4503C64.3139 35.0984 64.8392 35.2995 65.483 36.506C65.483 36.7573 65.483 37.0087 65.483 37.26ZM31.1554 23.5867C32.6803 23.5867 34.0527 23.57 35.4252 23.6035C35.8657 23.6203 36.1707 23.4694 36.4757 23.1678C42.067 17.6214 47.6754 12.075 53.2837 6.52865C53.4531 6.36109 53.6226 6.21028 53.7581 6.02596C54.5375 4.98706 53.9614 3.52924 52.6907 3.29465C51.9451 3.1606 51.4029 3.52924 50.8946 4.01518C44.473 10.3826 38.0514 16.7333 31.6129 23.084C31.4942 23.2181 31.3756 23.3522 31.1554 23.5867ZM29.0374 35.8525C29.9354 37.3438 30.969 38.433 32.6295 38.7011C33.3411 38.8184 33.9511 38.5335 34.0866 37.8968C34.2222 37.327 34.1544 36.7071 34.1374 36.1206C34.1374 36.02 33.9172 35.8525 33.7986 35.8525C32.2398 35.8357 30.7148 35.8525 29.0374 35.8525ZM37.6786 35.886C38.187 37.193 39.7119 38.4665 40.9318 38.6508C42.0331 38.8184 42.6939 38.3324 42.7617 37.2265C42.7787 36.8914 42.7617 36.5563 42.677 36.2379C42.6431 36.0871 42.4228 35.9027 42.2704 35.886C40.7454 35.886 39.2375 35.886 37.6786 35.886Z" fill="#21CBE2"/>
<path d="M65.4832 14.6716C65.0257 15.5932 64.2971 15.9116 63.2805 15.8278C61.0439 15.6434 59.214 14.6716 57.6722 13.13C57.0622 12.5267 57.0792 11.5884 57.6383 10.9684C58.1974 10.3316 59.0954 10.2143 59.8071 10.717C60.0612 10.9014 60.2984 11.1192 60.5356 11.3203C61.3828 12.0576 62.3656 12.5435 63.5008 12.577C64.4327 12.5938 65.1104 12.9624 65.5001 13.817C65.4832 14.0851 65.4832 14.3867 65.4832 14.6716Z" fill="#21CBE2"/>
<path d="M26.6313 52.693C27.4784 52.693 28.3256 52.6762 29.1728 52.693C30.1894 52.7098 30.8841 53.38 30.8841 54.3184C30.8841 55.2567 30.1894 55.927 29.1728 55.9437C27.4784 55.9605 25.7841 55.9605 24.1067 55.9437C23.107 55.927 22.3784 55.2232 22.3784 54.3184C22.3784 53.4135 23.107 52.7098 24.1067 52.693C24.9538 52.693 25.801 52.693 26.6313 52.693Z" fill="#21CBE2"/>
<path d="M38.6446 52.693C39.4748 52.693 40.2881 52.6762 41.1184 52.693C42.135 52.7098 42.8635 53.3633 42.8805 54.2849C42.8974 55.2232 42.1689 55.9437 41.1184 55.9437C39.4579 55.9605 37.7805 55.9605 36.12 55.9437C35.0695 55.927 34.3579 55.2567 34.3748 54.2849C34.3918 53.3465 35.0864 52.7098 36.12 52.693C36.9502 52.693 37.7974 52.693 38.6446 52.693Z" fill="#21CBE2"/>
<path d="M50.6234 52.693C51.4706 52.693 52.3178 52.6762 53.165 52.693C54.1477 52.7098 54.8424 53.38 54.8424 54.2849C54.8593 55.2232 54.1647 55.927 53.165 55.9437C51.4537 55.9605 49.7424 55.9605 48.0311 55.9437C47.0314 55.927 46.3198 55.2065 46.3367 54.2849C46.3537 53.38 47.0484 52.7098 48.0311 52.693C48.8952 52.693 49.7593 52.693 50.6234 52.693Z" fill="#21CBE2"/>
</svg>
