<svg width="185" height="129" viewBox="0 0 185 129" fill="none" xmlns="http://www.w3.org/2000/svg">
<g clip-path="url(#clip0_908_158619)">
<path d="M132.297 66.5681C132.297 92.092 99.6564 128.375 67.0886 128.375C34.5209 128.375 0.571289 92.1066 0.571289 66.5681C0.571289 41.0296 34.5354 35.9277 67.0886 35.9277C99.6419 35.9277 132.297 41.0442 132.297 66.5681Z" fill="#FFCCB8"/>
<path d="M105.577 69.258C103.628 69.4627 101.737 69.9451 99.8022 70.2082C97.9549 70.4714 96.1367 70.5006 94.2749 70.3398C92.0058 70.1498 89.8239 70.0328 87.5402 70.1498C85.5766 70.2521 83.6129 70.4129 81.6492 70.5445C77.5037 70.8368 73.3437 70.9099 69.1836 70.9392C60.7762 71.0123 52.3543 70.8515 43.9614 70.5006C39.8013 70.3252 35.6849 69.682 31.5394 69.4335C28.8484 69.2727 25.6484 69.7258 23.0011 68.8926C22.652 69.0534 22.4629 69.1557 22.4629 69.1557C22.4629 69.1557 35.7431 81.0844 65.3726 81.0844C95.0022 81.0844 108.821 69.1557 108.821 69.1557C108.821 69.1557 108.806 69.1411 108.777 69.1411C107.715 69.1265 106.639 69.1411 105.577 69.258Z" fill="#F8948D"/>
<path d="M108.82 69.0678C96.602 68.2492 80.4418 64.3022 75.8163 64.2583C72.1362 64.2291 68.8198 65.4424 66.5652 66.7727C66.2016 66.9774 65.8816 67.2259 65.5616 67.489C65.2416 67.2259 64.907 66.9774 64.5579 66.7727C62.3033 65.4424 58.9724 64.2291 55.3069 64.2583C50.6813 64.2876 34.5211 68.2346 22.3027 69.0678C26.8992 70.6758 30.2883 71.8161 38.8266 72.5032C45.8813 73.0733 57.7069 72.05 65.5761 72.0207C74.0126 72.0061 86.7546 72.6786 94.1293 72.0207C102.144 71.3044 104.617 70.4858 108.82 69.0678Z" fill="#F8746B"/>
<path d="M22.5357 69.0386C21.9394 69.0386 21.4303 68.5708 21.3866 67.9715C21.343 67.3283 21.8084 66.7728 22.4485 66.7289C24.1648 66.5974 25.9249 66.2465 27.8013 65.6325C28.4122 65.4425 29.0522 65.7787 29.2558 66.3781C29.4449 66.992 29.1249 67.6353 28.514 67.8399C26.4631 68.5124 24.5285 68.8925 22.623 69.0386C22.5939 69.0386 22.5648 69.0386 22.5357 69.0386ZM33.4741 65.691C33.0523 65.691 32.645 65.4571 32.4413 65.0332C32.165 64.4631 32.3977 63.7614 32.9795 63.4836C34.0995 62.9281 35.2923 62.3141 36.8341 61.4663L37.9687 60.8377L39.1178 62.8404L37.9396 63.4982C36.3687 64.3607 35.1468 65.0039 33.9832 65.5741C33.8232 65.6471 33.6486 65.691 33.4741 65.691ZM66.0855 60.326C65.7946 60.326 65.5182 60.2237 65.2855 60.0044C65.0527 59.7851 64.8345 59.5805 64.5873 59.3904C64.0927 58.9811 64.02 58.2502 64.4273 57.7678C64.8345 57.2707 65.5618 57.1977 66.0418 57.607C66.3182 57.8409 66.5946 58.0748 66.8564 58.3379C67.3219 58.7765 67.3364 59.5074 66.9 59.9752C66.6964 60.2091 66.3909 60.326 66.0855 60.326ZM43.6415 60.2529C43.2197 60.2529 42.8124 60.019 42.6088 59.6097C42.3178 59.0396 42.5506 58.3379 43.1179 58.0601C45.0961 57.0661 46.8706 56.2913 48.5434 55.7212C49.1398 55.5165 49.7943 55.8381 50.0125 56.4375C50.2161 57.0369 49.8961 57.6947 49.2998 57.914C47.7288 58.4548 46.0561 59.1858 44.1506 60.136C43.9906 60.2091 43.816 60.2529 43.6415 60.2529ZM60.2381 57.0807C60.1508 57.0807 60.049 57.0661 59.9472 57.0515C58.3181 56.6275 56.5144 56.5106 54.6235 56.7006C53.998 56.7737 53.4307 56.2913 53.3726 55.6627C53.3144 55.0341 53.7798 54.464 54.4053 54.4055C56.5581 54.2009 58.6235 54.3324 60.5145 54.8148C61.1254 54.9756 61.5036 55.6042 61.3436 56.2182C61.2127 56.7299 60.7472 57.0807 60.2381 57.0807Z" fill="#CF1111"/>
<path d="M64.3245 91.7264C63.379 91.7264 62.419 91.6971 61.459 91.6533C60.819 91.624 60.339 91.0685 60.3681 90.4399C60.3972 89.7967 60.9499 89.3143 61.5754 89.3436C63.4517 89.4459 65.3427 89.4459 67.19 89.3289C67.8154 89.2705 68.3682 89.7821 68.4118 90.4107C68.4555 91.0539 67.9609 91.5948 67.3354 91.6387C66.3318 91.6971 65.3281 91.7264 64.3245 91.7264ZM55.8007 91.0247C55.7425 91.0247 55.6698 91.0247 55.6116 91.0101C53.6916 90.6885 51.757 90.2645 49.8806 89.7529C49.2697 89.5774 48.9061 88.9489 49.0806 88.3349C49.2552 87.7209 49.8806 87.3554 50.4916 87.5309C52.2952 88.0279 54.1571 88.4372 55.9898 88.7442C56.6153 88.8465 57.0371 89.4459 56.9353 90.0745C56.8335 90.6154 56.3535 91.0247 55.8007 91.0247ZM44.7169 87.9694C44.5715 87.9694 44.4406 87.9402 44.2951 87.8963C42.4769 87.18 40.6732 86.376 38.9423 85.4843C38.375 85.1919 38.1568 84.4902 38.4477 83.9201C38.7387 83.35 39.4368 83.1307 40.0041 83.4231C41.6623 84.2856 43.3933 85.0603 45.1387 85.7474C45.7351 85.9813 46.026 86.6537 45.7933 87.2385C45.6042 87.6917 45.1678 87.9694 44.7169 87.9694ZM34.4913 82.7068C34.2731 82.7068 34.0549 82.6483 33.8658 82.5167C32.2222 81.4349 30.6222 80.2655 29.124 79.0229C28.6294 78.6136 28.5567 77.8827 28.964 77.4002C29.3712 76.9032 30.0985 76.8301 30.5785 77.2394C32.0185 78.4235 33.5458 79.5492 35.1168 80.5871C35.655 80.9379 35.8004 81.6542 35.4513 82.1951C35.2331 82.5167 34.8695 82.7068 34.4913 82.7068ZM25.6185 75.3683C25.313 75.3683 25.0221 75.2513 24.7893 75.0174C23.4075 73.5848 22.1275 72.0791 20.9493 70.5295C20.5711 70.0179 20.6584 69.3016 21.1675 68.9069C21.6766 68.5122 22.3893 68.6145 22.782 69.1262C23.9021 70.6026 25.1239 72.0499 26.433 73.4094C26.8694 73.8626 26.8694 74.6081 26.4039 75.0467C26.2003 75.2659 25.9094 75.3683 25.6185 75.3683Z" fill="#CF1111"/>
<path d="M109.271 69.0377C109.184 69.0377 109.082 69.0231 108.995 69.0085C106.885 68.4968 105.038 67.9852 103.38 67.4735C102.769 67.2835 102.434 66.6403 102.624 66.0263C102.813 65.4123 103.453 65.0761 104.064 65.2661C105.693 65.7778 107.482 66.2602 109.547 66.7718C110.173 66.918 110.551 67.5466 110.391 68.1752C110.26 68.6722 109.78 69.0377 109.271 69.0377ZM98.318 65.5293C98.1726 65.5293 98.0126 65.5 97.8671 65.4415C96.4853 64.8422 95.1325 64.199 93.867 63.4973L92.6161 62.8102C92.0634 62.5032 91.8597 61.8015 92.1652 61.2314C92.4707 60.6759 93.1689 60.4713 93.7361 60.7782L94.9725 61.4653C96.1798 62.1231 97.4598 62.7517 98.7689 63.3072C99.3508 63.5558 99.6271 64.2428 99.3799 64.8276C99.1908 65.2661 98.7544 65.5293 98.318 65.5293ZM66.0848 60.3251C65.7648 60.3251 65.4594 60.1935 65.2266 59.945C64.8048 59.4626 64.8339 58.7317 65.3139 58.3077C65.503 58.1323 65.7066 57.9569 65.8957 57.7961C66.3757 57.3868 67.103 57.4452 67.5248 57.9276C67.9321 58.41 67.8739 59.141 67.3939 59.5649C67.2194 59.7111 67.0448 59.8719 66.8557 60.0327C66.6376 60.2227 66.3612 60.3251 66.0848 60.3251ZM88.0924 60.2227C87.9179 60.2227 87.7433 60.1789 87.5833 60.1058C85.6924 59.1556 84.0051 58.4393 82.4342 57.8984C81.8378 57.6937 81.5178 57.0359 81.7214 56.4365C81.9251 55.8372 82.5796 55.5156 83.176 55.7202C84.8487 56.2904 86.6233 57.0505 88.6015 58.0446C89.1688 58.337 89.4015 59.024 89.1106 59.5941C88.9215 59.9888 88.5142 60.2227 88.0924 60.2227ZM71.5394 56.8605C71.0594 56.8605 70.6085 56.5535 70.4485 56.0711C70.2449 55.4717 70.5794 54.8139 71.1758 54.6092C73.0522 53.9806 74.8849 53.8783 77.4014 54.2876C78.0268 54.39 78.4632 54.9893 78.3614 55.6179C78.2595 56.2465 77.6632 56.6704 77.0377 56.5827C74.8995 56.2319 73.4158 56.3196 71.9031 56.8166C71.7722 56.8459 71.6558 56.8605 71.5394 56.8605Z" fill="#CF1111"/>
<path d="M67.4522 91.7262C66.3031 91.7262 65.1395 91.6824 64.0049 91.6093C63.3649 91.5654 62.8849 91.0099 62.9285 90.3814C62.9722 89.7381 63.5104 89.2703 64.1504 89.2996C65.9977 89.4311 67.8886 89.4458 69.765 89.3581C70.3759 89.3434 70.9432 89.8258 70.9723 90.4544C71.0014 91.0977 70.5068 91.6385 69.8814 91.6678C69.0668 91.7116 68.2523 91.7262 67.4522 91.7262ZM75.5396 91.0684C74.9869 91.0684 74.4923 90.6591 74.4051 90.089C74.3033 89.4604 74.7251 88.861 75.3651 88.7587C77.1978 88.4663 79.0597 88.057 80.8634 87.56C81.4743 87.3846 82.1143 87.75 82.2743 88.364C82.4488 88.978 82.0852 89.6212 81.4743 89.782C79.5833 90.3083 77.6488 90.7176 75.7287 91.0246C75.6705 91.0684 75.6124 91.0684 75.5396 91.0684ZM86.638 88.0278C86.1725 88.0278 85.7507 87.75 85.5616 87.2968C85.3289 86.6975 85.6198 86.025 86.2162 85.7911C87.9616 85.1041 89.678 84.3147 91.3508 83.4522C91.9181 83.1598 92.6163 83.3791 92.9072 83.9492C93.1981 84.5193 92.9799 85.221 92.4126 85.5134C90.6817 86.4197 88.878 87.2384 87.0598 87.9547C86.9143 88.0132 86.7689 88.0278 86.638 88.0278ZM96.8345 82.7066C96.4563 82.7066 96.0927 82.5312 95.8745 82.195C95.5254 81.6687 95.6708 80.9378 96.1945 80.587C97.7654 79.549 99.2782 78.4088 100.704 77.2101C101.198 76.8008 101.925 76.8739 102.318 77.3563C102.725 77.8533 102.653 78.5696 102.173 78.9789C100.675 80.2215 99.0891 81.4056 97.46 82.502C97.2709 82.6482 97.0527 82.7066 96.8345 82.7066ZM105.649 75.3243C105.358 75.3243 105.082 75.222 104.849 75.0027C104.384 74.5641 104.369 73.8332 104.82 73.3654C106.115 72.0059 107.351 70.5587 108.471 69.0676C108.849 68.5559 109.577 68.4536 110.086 68.8483C110.595 69.2284 110.697 69.9593 110.304 70.471C109.126 72.0205 107.846 73.5408 106.478 74.9735C106.26 75.2073 105.955 75.3243 105.649 75.3243Z" fill="#CF1111"/>
<path opacity="0.2" d="M68.063 101.843C70.2594 101.74 72.4267 101.887 74.4777 102.208C76.5286 102.515 78.4777 103.027 80.2814 103.656C82.085 104.269 83.7287 105.074 85.1978 105.878C86.6524 106.74 87.9615 107.617 89.0524 108.567C91.2634 110.424 92.6452 112.324 93.4016 113.684C93.8089 114.356 94.0271 114.926 94.187 115.306C94.3325 115.687 94.4198 115.877 94.4198 115.877C94.4198 115.877 94.2598 115.73 93.9689 115.453C93.678 115.175 93.2561 114.766 92.6598 114.312C91.4961 113.377 89.7361 112.207 87.3942 111.184C82.7542 109.079 75.8159 107.719 68.2958 108.026C60.7465 108.319 53.8664 110.132 49.1246 112.178C46.7536 113.201 44.8918 114.269 43.6554 115.116C43.0154 115.511 42.5645 115.891 42.2299 116.125C41.8954 116.359 41.7354 116.491 41.7354 116.491C41.7354 116.491 41.8372 116.301 42.0408 115.95C42.2445 115.599 42.5208 115.058 42.9863 114.429C43.859 113.128 45.3281 111.359 47.51 109.547C49.6918 107.734 52.5864 105.907 56.0774 104.46C57.8229 103.758 59.7138 103.115 61.7357 102.676C63.7284 102.223 65.8521 101.916 68.063 101.843Z" fill="white"/>
<path d="M118.144 65.8526C118.696 66.832 119.002 67.8699 119.133 68.8348C119.235 69.7996 119.176 70.6767 119.002 71.3784C118.842 72.0801 118.624 72.621 118.42 72.9718C118.231 73.3226 118.114 73.4981 118.114 73.4981C118.114 73.4981 118.056 73.2788 117.94 72.9133C117.853 72.5479 117.678 72.0362 117.46 71.4515C117.024 70.2674 116.311 68.864 115.467 67.4022C114.624 65.9549 113.765 64.6246 112.951 63.6598C112.558 63.1774 112.194 62.7681 111.933 62.5196C111.671 62.2418 111.511 62.081 111.511 62.081C111.511 62.081 111.729 62.0664 112.122 62.0664C112.529 62.0664 113.096 62.1395 113.78 62.3442C114.478 62.5488 115.264 62.9289 116.049 63.499C116.82 64.0838 117.562 64.8732 118.144 65.8526Z" fill="#EDAD82"/>
<path d="M16.8772 69.0096C16.5718 69.9452 16.3099 70.8515 16.1063 71.714C15.9172 72.5765 15.7717 73.3952 15.7136 74.0968C15.6554 74.4623 15.6699 74.7839 15.6408 75.0763C15.6117 75.3687 15.6263 75.6318 15.6263 75.8511C15.6263 76.2896 15.6263 76.5381 15.6263 76.5381C15.6263 76.5381 15.4517 76.3627 15.1754 76.0119C15.0299 75.8364 14.8554 75.6172 14.6954 75.3394C14.5354 75.0617 14.3317 74.7401 14.1863 74.36C13.8372 73.6144 13.5899 72.6496 13.4881 71.5386C13.4154 70.4422 13.5317 69.1996 13.939 67.9863C14.3608 66.773 15.0154 65.7204 15.7427 64.9018C16.4845 64.0832 17.27 63.4692 17.9972 63.0891C18.3463 62.8698 18.6954 62.7529 19.0009 62.6359C19.2918 62.519 19.5682 62.4459 19.7864 62.3874C20.2227 62.2851 20.4555 62.2559 20.4555 62.2559C20.4555 62.2559 20.2955 62.4605 20.0336 62.7967C19.9027 62.9576 19.7427 63.1622 19.5827 63.4107C19.4227 63.6592 19.2191 63.9078 19.0445 64.2294C18.6518 64.8287 18.2882 65.5596 17.91 66.3637C17.5463 67.1969 17.1972 68.074 16.8772 69.0096Z" fill="#EDAD82"/>
<path d="M65.3725 52.2281C66.4926 52.0088 67.4671 51.5264 68.1799 50.8247C68.9071 50.123 69.4017 49.2166 69.6781 48.3688C69.9399 47.5209 70.0126 46.7461 69.9981 46.2052C69.9835 45.9275 69.969 45.7082 69.9544 45.562C69.9399 45.4158 69.9253 45.3281 69.9253 45.3281C69.9253 45.3281 69.9835 45.3866 70.0708 45.5035C70.1726 45.6205 70.3035 45.7959 70.4635 46.059C70.769 46.5561 71.1181 47.3893 71.2199 48.515C71.3072 49.626 71.1181 51.0586 70.2453 52.4327C69.3871 53.8215 67.7871 54.9325 65.9544 55.2687C64.1216 55.6195 62.2307 55.1664 60.9361 54.1869C59.627 53.2367 58.9288 51.9649 58.6088 50.8978C58.2888 49.816 58.3324 48.9097 58.4342 48.3395C58.4924 48.0472 58.5506 47.8279 58.5943 47.6817C58.6379 47.5355 58.667 47.4624 58.667 47.4624C58.667 47.4624 58.6815 47.5355 58.7252 47.6817C58.7543 47.8279 58.827 48.0325 58.9143 48.2957C59.0888 48.8073 59.4379 49.509 59.9906 50.1961C60.5434 50.8832 61.3434 51.541 62.2743 51.9357C63.1616 52.345 64.2525 52.4327 65.3725 52.2281Z" fill="#EDAE83"/>
<path d="M67.2192 67.591L85.474 57.6797L85.8231 58.3375L66.1719 69.009L67.2192 67.591Z" fill="#231F20"/>
<path d="M179.759 0.580078L184.952 10.2429C183.236 11.1785 181.112 10.5353 180.181 8.81029L178.334 5.37494C177.403 3.64996 178.043 1.50104 179.759 0.580078Z" fill="#B7E1FB"/>
<path d="M97.0667 46.7303L163.06 10.9004L167.279 18.7651L101.285 54.5951C100.296 55.136 99.0595 54.7559 98.5213 53.7618L96.2376 49.5078C95.6994 48.5138 96.0776 47.2712 97.0667 46.7303Z" fill="#7CCAFB"/>
<path d="M91.7432 51.5978L94.3323 56.4073L98.6378 54.0683C97.6196 52.6503 96.8778 50.9107 96.0341 49.2734L91.7432 51.5978Z" fill="#7CCAFB"/>
<path d="M178.232 4.6582L96.0195 49.2739C96.8632 50.8965 97.605 52.6507 98.6232 54.0687L180.792 9.46769L178.232 4.6582Z" fill="#B7E1FB"/>
<path d="M169.475 6.14878L163.075 9.62798C162.508 9.93497 162.29 10.6659 162.595 11.236L166.755 18.9692C167.061 19.5393 167.788 19.7586 168.355 19.4516L174.756 15.9724C175.323 15.6654 175.541 14.9345 175.236 14.3644L171.075 6.63119C170.77 6.06107 170.057 5.84179 169.475 6.14878Z" fill="#7CCAFB"/>
<path d="M171.306 7.02921L162.833 11.6289L166.635 18.7035L175.108 14.1038L171.306 7.02921Z" fill="#B7E1FB"/>
<path d="M179.043 5.40088L172.529 8.9375L173.145 10.0822L179.658 6.54554L179.043 5.40088Z" fill="#7CCAFB"/>
<path d="M173.748 11.5624L165.275 16.1621L165.891 17.3069L174.363 12.7072L173.748 11.5624Z" fill="white"/>
<path d="M180.981 2.87479L180.167 1.33984C178.509 2.24619 177.912 4.36587 178.843 6.07624L179.658 7.61118C178.741 5.90082 179.323 3.76651 180.981 2.87479Z" fill="#7CCAFB"/>
<path d="M180.617 9.42419C180.879 8.86869 180.705 7.80154 180.123 6.71977C179.541 5.638 178.741 4.90708 178.145 4.83398L180.617 9.42419Z" fill="#7CCAFB"/>
<path d="M92.3092 52.1352L86.2305 55.4355L88.0487 58.8181L94.1274 55.5177L92.3092 52.1352Z" fill="#7CCAFB"/>
<path d="M86.8027 55.9682L84.8447 57.0312L85.9578 59.1019L87.9158 58.0389L86.8027 55.9682Z" fill="#7CCAFB"/>
<path d="M87.7251 57.7575L98.2969 52.0195L97.4743 50.4889L86.9026 56.2268L87.7251 57.7575Z" fill="#FFBC00"/>
<path d="M98.4424 54.1729L113.146 46.1895L110.561 41.3793L95.8567 49.3628L98.4424 54.1729Z" fill="#FFBC00"/>
<path d="M119.774 36.3721L110.649 41.3262L113.235 46.1363L122.36 41.1823L119.774 36.3721Z" fill="#A7A9AC"/>
<path d="M119.526 35.0714L118.873 35.4258L122.703 42.551L123.356 42.1966L119.526 35.0714Z" fill="#808285"/>
<path d="M118.066 35.8703L117.413 36.2246L121.242 43.3506L121.895 42.9963L118.066 35.8703Z" fill="#808285"/>
<path d="M110.411 40.0188L109.758 40.373L113.587 47.499L114.24 47.1448L110.411 40.0188Z" fill="#808285"/>
<g opacity="0.6">
<path d="M164.547 14.8487L97.4121 51.2988L98.0274 52.4435L165.162 15.9934L164.547 14.8487Z" fill="white"/>
</g>
<g opacity="0.6">
<path d="M181.766 9.22039C181.475 8.67951 181.519 8.08015 181.868 7.89011C182.217 7.70007 182.741 7.99244 183.032 8.53332C183.323 9.07421 183.279 9.67357 182.93 9.86361C182.566 10.0536 182.057 9.76128 181.766 9.22039Z" fill="white"/>
</g>
<path d="M96.5397 50.3749L92.3545 52.6465L92.6655 53.2253L96.8507 50.9537L96.5397 50.3749Z" fill="#B7E1FB"/>
<path d="M160.952 17.8468L161.745 17.416L159.395 13.0432L158.601 13.4739L160.952 17.8468Z" fill="#231F20"/>
<path d="M152.555 16.7566L151.762 17.1875L154.113 21.5604L154.906 21.1295L152.555 16.7566Z" fill="#231F20"/>
<path d="M145.695 20.4698L144.901 20.9004L147.251 25.2737L148.045 24.8431L145.695 20.4698Z" fill="#231F20"/>
<path d="M138.859 24.2039L138.065 24.6348L140.417 29.0076L141.21 28.5767L138.859 24.2039Z" fill="#231F20"/>
<path d="M132.02 27.915L131.227 28.3457L133.577 32.7191L134.37 32.2884L132.02 27.915Z" fill="#231F20"/>
<path d="M125.162 31.6239L124.368 32.0547L126.719 36.4275L127.512 35.9968L125.162 31.6239Z" fill="#231F20"/>
<path d="M118.324 35.3348L117.53 35.7656L119.881 40.1385L120.674 39.7077L118.324 35.3348Z" fill="#231F20"/>
<path d="M111.478 39.0576L110.685 39.4883L113.035 43.8616L113.828 43.4309L111.478 39.0576Z" fill="#231F20"/>
<path d="M104.634 42.7606L103.841 43.1914L106.191 47.5643L106.985 47.1335L104.634 42.7606Z" fill="#231F20"/>
<path d="M99.3511 51.2844L100.145 50.8535L97.7934 46.4807L97 46.9115L99.3511 51.2844Z" fill="#231F20"/>
<path d="M156.678 17.751L157.472 17.3203L156.124 14.8121L155.33 15.2428L156.678 17.751Z" fill="#231F20"/>
<path d="M149.29 18.5342L148.496 18.9648L149.844 21.4731L150.637 21.0424L149.29 18.5342Z" fill="#231F20"/>
<path d="M142.442 22.2391L141.648 22.6699L142.997 25.1779L143.79 24.7471L142.442 22.2391Z" fill="#231F20"/>
<path d="M135.599 25.9619L134.806 26.3926L136.154 28.9008L136.947 28.4701L135.599 25.9619Z" fill="#231F20"/>
<path d="M128.761 29.6707L127.968 30.1016L129.316 32.6095L130.11 32.1787L128.761 29.6707Z" fill="#231F20"/>
<path d="M121.909 33.3934L121.115 33.8242L122.463 36.3322L123.257 35.9014L121.909 33.3934Z" fill="#231F20"/>
<path d="M115.077 37.1103L114.283 37.541L115.631 40.0493L116.425 39.6186L115.077 37.1103Z" fill="#231F20"/>
<path d="M108.219 40.8212L107.426 41.252L108.774 43.7599L109.567 43.3291L108.219 40.8212Z" fill="#231F20"/>
<path d="M101.369 44.538L100.575 44.9688L101.923 47.4767L102.717 47.0459L101.369 44.538Z" fill="#231F20"/>
</g>
<defs>
<clipPath id="clip0_908_158619">
<rect width="184.381" height="127.81" fill="white" transform="translate(0.571289 0.580078)"/>
</clipPath>
</defs>
</svg>
