<svg width="48" height="58" viewBox="0 0 48 58" fill="none" xmlns="http://www.w3.org/2000/svg">
<path d="M40.1762 44.2395L30.8907 49.4734L10.8298 27.1985L12.7887 25.4552L31.4371 46.1606L37.5611 42.7134L37.7878 15.7256L40.4142 15.7474L40.1762 44.2395Z" fill="#A0F0FD"/>
<path d="M4.2456 16.9825C-0.0286565 19.6894 -1.28481 25.3259 1.43991 29.572C4.16462 33.8182 9.83841 35.0661 14.1127 32.3593C18.3869 29.6525 19.6431 24.016 16.9184 19.7698C14.1936 15.5236 8.51985 14.2757 4.2456 16.9825Z" fill="#FFBA00"/>
<path d="M33.9618 40.0276C29.0569 41.2991 26.1184 46.28 27.3983 51.1526C28.6783 56.0253 33.6921 58.9446 38.5969 57.673C43.5018 56.4015 46.4404 51.4206 45.1605 46.548C43.8805 41.6753 38.8667 38.756 33.9618 40.0276Z" fill="#A0F0FD"/>
<path d="M40.9306 1.21716C35.9975 0.0590773 31.0535 3.09302 29.8877 7.99365C28.722 12.8943 31.776 17.8059 36.709 18.9639C41.6421 20.122 46.5862 17.0881 47.7519 12.1874C48.9177 7.28681 45.8636 2.37525 40.9306 1.21716Z" fill="#CD5959"/>
</svg>
