<svg width="48" height="48" viewBox="0 0 48 48" fill="none" xmlns="http://www.w3.org/2000/svg">
<path d="M32.8726 12.9375C31.4455 12.9472 30.0195 12.857 28.6051 12.6675C31.6051 17.475 31.8301 26.01 30.4576 29.9175C31.8247 29.5686 33.1026 28.9348 34.2076 28.0575C36.2776 26.4 45.6376 15.4125 45.8401 13.8075C45.8577 13.6621 45.8427 13.5145 45.796 13.3757C45.7492 13.2368 45.6721 13.1102 45.5701 13.005C44.4301 11.73 36.7501 12.9375 32.8726 12.9375ZM29.5351 31.59C28.4341 32.6487 27.1674 33.5202 25.7851 34.17C26.1676 34.6725 26.3101 34.8825 26.4526 36.3525C25.3562 35.342 24.0127 34.6386 22.5576 34.3134C21.1025 33.9881 19.5873 34.0525 18.1651 34.5C17.2201 33.69 15.1651 33.315 12.9151 34.605C10.7851 35.7975 9.51757 38.805 11.6251 39.855C12.8101 40.455 14.5426 40.2075 15.8026 39.6825C16.5815 39.3609 17.263 38.8417 17.7799 38.1762C18.2968 37.5106 18.6312 36.7218 18.7501 35.8875C23.1001 34.5525 26.0101 37.8075 26.6551 38.6175C26.7376 40.695 26.7376 43.1775 26.7076 44.985C26.7076 45.1839 26.7866 45.3747 26.9272 45.5153C27.0679 45.656 27.2587 45.735 27.4576 45.735C30.7276 45.66 30.9976 45.915 31.3801 45.495C31.4516 45.4193 31.5065 45.3295 31.5413 45.2313C31.5762 45.1332 31.5902 45.0289 31.5826 44.925C31.5826 44.4975 30.7801 34.335 30.6976 33.45C30.7486 32.7133 30.8666 31.9828 31.0501 31.2675C30.5531 31.4099 30.0469 31.5176 29.5351 31.59ZM27.8476 11.0325C27.4769 8.40445 27.6842 5.72716 28.4551 3.1875C28.4833 3.07838 28.4866 2.96431 28.4646 2.85376C28.4427 2.7432 28.3961 2.63902 28.3284 2.54894C28.2606 2.45886 28.1735 2.3852 28.0734 2.33345C27.9732 2.28169 27.8627 2.25317 27.7501 2.25H24.0001C23.8012 2.25 23.6104 2.32902 23.4697 2.46967C23.3291 2.61032 23.2501 2.80109 23.2501 3V9.2175C24.6514 9.53591 25.9781 10.1216 27.1576 10.9425C27.3601 10.9575 27.5851 10.995 27.8476 11.0325Z" fill="#22C550"/>
<path d="M3.4275 37.2905C3.315 39.1955 3.12 41.648 5.0175 41.648C5.82 41.648 7.5975 40.973 9.63 40.0805C9.25035 39.5251 9.04176 38.8707 9.03 38.198C9 35.2505 12.135 32.2505 15.87 32.2505C16.7571 32.2399 17.633 32.4486 18.42 32.858C20.3676 32.3511 22.4276 32.496 24.285 33.2705C26.1975 32.3105 28.035 31.2305 28.575 30.383C29.7225 28.5755 30.075 24.2705 29.43 19.373C29.3925 19.163 28.4625 14.1755 26.355 12.2405C24.2475 10.3055 15.105 8.70053 9.48 10.478C2.595 12.6455 2.25 21.9005 2.25 23.7305C2.25 28.0955 2.5725 31.148 3.3075 33.6305C3.52923 34.8378 3.56968 36.0714 3.4275 37.2905Z" fill="#22C550"/>
</svg>
