<svg width="84" height="83" viewBox="0 0 84 83" fill="none" xmlns="http://www.w3.org/2000/svg">
<path d="M76.1877 37.9013C76.1084 37.9013 76.1243 36.4107 75.6169 34.5237C75.3156 33.4137 75.1253 32.716 74.5069 32.1134C73.6347 31.2413 72.493 31.0986 71.9697 31.0669C72.382 30.9083 73.0163 30.5911 73.5872 30.0044C74.3959 29.1481 74.6179 28.1809 74.8716 27.1343C75.0302 26.4524 75.1887 25.4534 75.1253 24.2007C75.1094 23.9946 75.2522 27.2611 77.1392 28.9103C78.0272 29.6873 79.0896 29.9093 79.7397 29.9727C79.1213 30.163 78.0589 30.607 77.377 31.6219C77.0757 32.0659 76.8854 32.5099 76.7269 33.6516C76.3622 36.0936 76.2829 37.9013 76.1877 37.9013Z" fill="#232120"/>
<path d="M81.9924 53.1384C81.9607 53.1384 81.9607 52.4566 81.7228 51.5844C81.5801 51.077 81.485 50.744 81.2155 50.4585C80.819 50.0621 80.2798 49.9828 80.042 49.967C80.2323 49.8877 80.5336 49.745 80.7873 49.4754C81.1679 49.079 81.263 48.635 81.374 48.1434C81.4533 47.8263 81.5167 47.3664 81.485 46.7797C81.485 46.6846 81.5484 48.191 82.4206 48.9521C82.8328 49.3168 83.3244 49.412 83.6257 49.4437C83.3403 49.5388 82.8487 49.745 82.5316 50.2048C82.3889 50.411 82.3096 50.6171 82.2303 51.1404C82.0717 52.298 82.04 53.1226 81.9924 53.1384Z" fill="#232120"/>
<path d="M63.6929 26.7687C60.1885 38.4395 60.458 39.2799 59.4749 39.9618C58.5235 40.6278 56.8902 41.3414 55.3838 43.3235C54.7336 44.1798 54.4006 44.8934 54.2579 45.1629C52.6564 48.2868 46.3293 51.1569 39.8755 51.6644C39.2729 51.7119 28.4108 52.4889 26.5396 48.4612C26.2701 47.8587 25.7626 46.2729 24.2403 44.9092C23.4158 44.1798 22.6864 43.8468 22.3375 43.6565C18.0085 41.3731 16.8351 32.4772 16.0898 26.7845C16.0263 26.2771 15.9788 25.8489 15.9788 25.2781C15.9629 22.9947 16.7082 22.0274 17.8341 18.4278C18.3415 16.7787 18.6111 15.9699 18.8172 14.7648C19.1819 12.7668 19.0234 12.0691 19.5149 10.9115C20.0541 9.62708 20.9103 8.86594 22.0203 7.94623C25.7626 4.86994 27.6338 3.31594 29.2988 2.71337C31.9628 1.74608 32.3909 2.52308 39.0826 1.12766C40.8745 0.762941 40.6525 0.731227 41.3502 0.636085C46.1549 -0.0774868 50.2619 1.71437 51.4671 2.28523C57.0646 4.94923 62.6463 11.1652 61.5522 15.2564C61.3302 16.0492 60.7276 17.2702 61.2351 18.5864C61.7742 19.9501 62.9952 20.0769 63.788 21.2504C64.8346 22.8519 64.2003 25.0402 63.6929 26.7687Z" fill="#0C0C0C"/>
<path d="M81.1672 80.0178C79.4229 80.0019 76.7588 79.986 73.4923 80.0178C62.868 80.1605 59.7441 80.7789 53.0524 80.7948C44.1407 80.8106 45.5361 79.7323 35.7523 79.5896C27.1894 79.4628 24.9377 80.2556 15.7881 80.2715C9.20743 80.2873 3.84771 79.875 0.375 79.542C0.93 76.8146 2.13514 73.1358 5.13214 70.2339C11.142 64.4302 18.6742 67.3003 24.7633 62.7335C27.9823 60.3232 31.3916 55.4709 31.8356 44.7356C32.2479 44.7198 32.6601 44.688 33.0565 44.6405C35.5303 44.466 37.9881 44.2916 40.446 44.1172C42.9038 44.2916 45.3617 44.466 47.8196 44.6405C48.2319 44.6722 48.6283 44.7039 49.0406 44.7356C49.4846 55.455 52.878 60.3232 56.1128 62.7335C62.1703 67.2686 69.4487 64.5095 75.744 70.2339C79.0264 73.2468 80.4694 77.1318 81.1672 80.0178Z" fill="#FFDEAD"/>
<path d="M40.4301 54.9932C44.4236 54.9932 47.6609 52.1108 47.6609 48.5552C47.6609 44.9996 44.4236 42.1172 40.4301 42.1172C36.4366 42.1172 33.1992 44.9996 33.1992 48.5552C33.1992 52.1108 36.4366 54.9932 40.4301 54.9932Z" fill="#232120"/>
<path d="M40.4935 5.28324C38.9236 5.26738 37.5441 5.34667 36.2596 5.50524C29.1556 6.34567 23.7959 12.3714 23.7959 19.523V34.064C24.1606 35.8875 25.6512 42.0718 31.3915 46.4801C34.7215 49.0331 38.099 49.9528 40.0495 50.3175C40.1763 50.3175 40.3032 50.3175 40.4301 50.3017C40.5569 50.3017 40.6838 50.3175 40.8106 50.3175C42.7611 49.9528 46.1545 49.049 49.4686 46.4801C55.2089 42.0718 56.6995 35.8875 57.0642 34.064V19.523C57.0642 12.3714 51.7045 6.34567 44.6005 5.50524C43.3002 5.36253 41.9365 5.26738 40.4935 5.28324Z" fill="#FFDEAD"/>
<path d="M26.7773 29.2592C26.7773 32.1769 25.033 34.5555 22.8764 34.5555C20.7199 34.5555 18.9756 32.1769 18.9756 29.2592C18.9756 26.3415 20.7199 23.9629 22.8764 23.9629C25.033 23.9629 26.7773 26.3256 26.7773 29.2592Z" fill="#FFDEAD"/>
<path d="M57.9839 34.5555C60.1382 34.5555 61.8847 32.1842 61.8847 29.2592C61.8847 26.3341 60.1382 23.9629 57.9839 23.9629C55.8295 23.9629 54.083 26.3341 54.083 29.2592C54.083 32.1842 55.8295 34.5555 57.9839 34.5555Z" fill="#FFDEAD"/>
<path d="M38.7334 35.8869C39.3043 35.5698 39.8593 35.4905 40.4301 35.4746C41.001 35.4905 41.5559 35.5539 42.1268 35.8869C41.5559 36.204 41.001 36.2833 40.4301 36.2992C39.8593 36.2675 39.2884 36.204 38.7334 35.8869Z" fill="#232120"/>
<path d="M37.1797 66.9825C37.925 67.9181 39.1301 68.3621 40.2718 68.1243C41.9051 67.7913 42.5235 66.2848 42.5711 66.1738L37.1797 66.9825Z" fill="#232120"/>
<path d="M42.9199 69.805C43.3164 69.9952 43.9348 70.249 44.696 70.4868C47.2807 71.2955 49.4531 71.137 50.9595 71.0101C56.4302 70.5502 61.4886 69.7891 63.1853 69.5195C59.2686 69.6464 55.3361 69.7891 51.4194 69.916L42.9199 69.805Z" fill="#232120"/>
<path d="M37.9246 69.805C37.5282 69.9952 36.9098 70.249 36.1486 70.4868C33.5639 71.2955 31.3915 71.137 29.885 71.0101C24.4143 70.5502 19.3559 69.7891 17.6592 69.5195C21.5759 69.6464 25.5085 69.7891 29.4252 69.916L37.9246 69.805Z" fill="#232120"/>
<path d="M40.6203 46.1946C40.5727 46.1946 40.541 46.1946 40.4934 46.1946C39.9384 46.1788 39.3675 46.0519 38.8601 45.8141C38.654 45.7189 38.5747 45.4811 38.6698 45.2908C38.765 45.0846 39.0029 45.0053 39.1931 45.1005C39.4786 45.2273 39.9384 45.3859 40.5093 45.4176C41.1277 45.4493 41.6351 45.2749 41.9523 45.1481C42.1584 45.0529 42.3804 45.1481 42.4755 45.3542C42.5548 45.5603 42.4756 45.7823 42.2694 45.8775C41.762 46.0836 41.1911 46.1946 40.6203 46.1946Z" fill="#020202"/>
<path d="M45.4881 41.5147C45.3296 41.5464 45.0917 41.6099 44.8063 41.6733C41.4763 42.4503 41.6349 42.7833 40.6834 42.7991C39.6369 42.7991 39.7161 42.4027 36.4813 41.6416C36.1165 41.5623 35.8153 41.4988 35.625 41.4513C35.9739 40.9914 36.7984 40.0717 38.3683 39.5167C38.8757 39.3264 39.7795 39.0093 41.0005 39.0727C42.6497 39.152 43.7438 39.8656 44.1403 40.1351C44.8856 40.6267 45.282 41.1817 45.4881 41.5147Z" fill="#BC5E5C"/>
<path d="M45.4415 41.4992C44.8073 41.0711 43.2057 42.1494 40.9223 42.2604C38.2583 42.3872 36.1334 41.0077 35.6101 41.4517C35.4357 41.6102 36.07 43.3862 38.4961 43.9888C39.3841 44.2108 40.0818 44.2584 40.6685 44.2425C41.4772 44.2425 42.9202 44.1791 44.2681 43.3704C45.6635 42.5458 45.6953 41.6737 45.4415 41.4992Z" fill="#BC5E5C"/>
<path d="M44.0297 30.193C43.9662 30.193 43.9187 30.1772 43.8553 30.1613C43.6491 30.0662 43.5698 29.8283 43.6649 29.638C44.5212 27.7986 46.3924 26.5776 48.4221 26.53C50.3567 26.4666 52.2278 27.529 53.2268 29.2416C53.3378 29.4319 53.2744 29.6698 53.0841 29.7808C52.8938 29.8918 52.6559 29.8283 52.5449 29.638C51.7204 28.195 50.1981 27.3229 48.5648 27.3229C48.5331 27.3229 48.5014 27.3229 48.4538 27.3229C46.7254 27.3705 45.1397 28.4012 44.4102 29.9869C44.3309 30.1137 44.1882 30.193 44.0297 30.193Z" fill="#020202"/>
<path d="M55.4948 23.9602C54.0201 23.6589 51.9745 23.3735 49.5325 23.5003C47.4393 23.5955 45.695 23.9602 44.3789 24.3249C44.3789 24.0395 44.3948 23.7223 44.474 23.3735C44.6643 22.5172 45.0766 21.8829 45.3937 21.5023C47.0587 21.4389 48.4542 21.4706 49.469 21.5182C51.9269 21.6292 52.6246 21.867 53.0686 22.0415C54.3055 22.5647 55.0666 23.4052 55.4948 23.9602Z" fill="#232120"/>
<path d="M44.4733 21.4877C44.3306 21.7573 44.1403 22.1379 44.0134 22.6294C43.7914 23.4857 43.8231 24.3262 43.9183 24.342C44.0293 24.3579 44.2672 23.343 44.3464 23.0417C44.4574 22.5977 44.5209 22.2013 44.7746 21.6939C44.838 21.567 44.9014 21.456 44.9332 21.3926L44.4733 21.4877Z" fill="#232120"/>
<path d="M25.6826 24.5638C27.1256 24.1673 29.1553 23.7392 31.5973 23.6916C33.6905 23.6441 35.4665 23.8978 36.7985 24.1673C36.7826 23.8978 36.735 23.5648 36.624 23.2159C36.3703 22.3755 35.9105 21.7729 35.5775 21.4082C33.9125 21.4558 32.5329 21.5826 31.518 21.7095C29.0602 21.9949 28.3942 22.2645 27.966 22.4865C26.7609 23.0891 26.0632 23.9771 25.6826 24.5638Z" fill="#232120"/>
<path d="M36.5129 21.3291C36.6714 21.5828 36.8776 21.9475 37.052 22.4391C37.3374 23.2795 37.3533 24.1199 37.2581 24.1358C37.1471 24.1516 36.8458 23.1526 36.7507 22.8672C36.608 22.4232 36.5128 22.0426 36.2274 21.5511C36.1481 21.4242 36.0847 21.3291 36.0371 21.2656L36.5129 21.3291Z" fill="#232120"/>
<path d="M40.6844 42.4996C38.6388 42.4996 36.6091 42.1825 34.6428 41.5641C34.4366 41.5006 34.3098 41.2786 34.3891 41.0725C34.4525 40.8664 34.6745 40.7395 34.8807 40.8188C36.8311 41.4214 38.845 41.7385 40.8747 41.7068C42.619 41.6909 44.3474 41.4372 46.0282 40.9615C46.2344 40.8981 46.4564 41.0249 46.5198 41.2311C46.5832 41.4372 46.4564 41.6592 46.2502 41.7226C44.5059 42.2301 42.6982 42.4838 40.8905 42.4996C40.7954 42.4996 40.732 42.4996 40.6844 42.4996Z" fill="#020202"/>
<path d="M51.2449 28.8308C51.2449 29.8933 50.3093 30.7495 49.1517 30.7495C47.9942 30.7495 47.0586 29.8933 47.0586 28.8308C47.0586 27.7684 47.9942 26.9121 49.1517 26.9121C50.3093 26.9121 51.2449 27.7684 51.2449 28.8308Z" fill="#232120"/>
<path d="M36.8472 30.1928C36.7045 30.1928 36.5618 30.1135 36.4825 29.9708C35.7531 28.4009 34.1515 27.3543 32.439 27.3068C30.774 27.2751 29.1882 28.163 28.3478 29.6219C28.2368 29.8122 27.9989 29.8756 27.8087 29.7646C27.6184 29.6536 27.5549 29.4158 27.6659 29.2255C28.6332 27.5446 30.4093 26.498 32.3438 26.498C32.3914 26.498 32.4231 26.498 32.4707 26.498C34.4845 26.5456 36.3557 27.7666 37.2278 29.6061C37.3229 29.8122 37.2278 30.0342 37.0375 30.1293C36.9582 30.1769 36.8948 30.1928 36.8472 30.1928Z" fill="#020202"/>
<path d="M31.4551 28.6707C31.4551 29.7331 32.3907 30.5894 33.5482 30.5894C34.7058 30.5894 35.6413 29.7331 35.6413 28.6707C35.6413 27.6082 34.7058 26.752 33.5482 26.752C32.3907 26.7678 31.4551 27.6241 31.4551 28.6707Z" fill="#232120"/>
<path d="M24.9532 21.1069C25.5875 19.1406 25.0959 16.8889 26.0315 15.0336C26.7768 13.543 28.2991 12.6392 29.7579 11.8463C33.2148 9.95931 36.9888 8.24674 40.9214 8.51631C44.1879 8.73831 47.2167 10.324 49.8489 12.2745C51.1492 13.2417 52.386 14.3042 53.5278 15.4459C54.8598 16.7779 56.1284 18.316 56.4296 20.1713C56.5724 21.0593 56.4931 21.979 56.5407 22.867C56.5882 23.7709 56.8261 24.7065 57.4604 25.3566C58.5704 21.757 58.6655 17.8562 57.6982 14.209C56.9688 11.4023 55.5258 8.67489 53.1631 7.00989C51.7201 6.01089 50.0234 5.44003 48.3425 4.94846C44.6636 3.85431 40.7786 2.96631 37.0363 3.74331C35.2921 4.10803 33.6429 4.8216 32.0097 5.53517C30.1068 6.35974 28.1722 7.21603 26.6024 8.56389C23.6371 11.101 22.2733 15.2556 22.749 19.1247C22.8283 19.8066 22.9711 20.4885 23.0821 21.1703C23.1296 21.5192 23.0821 22.7243 23.3199 22.9305C24.0176 23.5647 24.8105 21.535 24.9532 21.1069Z" fill="#857E7E"/>
<path d="M23.5894 22.4242C22.0513 22.3925 20.8779 21.2984 19.6569 20.4738C19.4032 20.2994 19.1653 20.7116 19.419 20.8861C20.751 21.7741 21.9244 22.8524 23.5894 22.8999C23.8907 22.9158 23.8907 22.4401 23.5894 22.4242Z" fill="#9BB9D3"/>
<path d="M23.3834 20.5524C23.2407 20.5524 23.1455 20.489 23.098 20.378C22.9235 20.1243 22.5113 20.3621 22.6857 20.6159C22.8918 20.9171 22.987 21.044 23.3834 21.0281C23.7006 21.0123 23.7006 20.5366 23.3834 20.5524Z" fill="#9BB9D3"/>
<path d="M21.6396 14.2415C22.3849 14.9075 23.1619 15.4625 24.0023 16.0016C24.256 16.1602 24.4939 15.7479 24.2402 15.5893C23.4315 15.0819 22.6862 14.5269 21.9726 13.8926C21.7506 13.7023 21.4176 14.0353 21.6396 14.2415Z" fill="#9BB9D3"/>
<path d="M26.1908 10.5781C26.4604 10.8794 26.6666 11.2124 26.9361 11.5137C27.1423 11.7515 27.4753 11.4027 27.2691 11.1807C26.9995 10.8794 26.7934 10.5464 26.5238 10.2451C26.3177 10.0231 25.9847 10.3561 26.1908 10.5781Z" fill="#9BB9D3"/>
<path d="M27.602 11.2125C27.6178 11.4503 27.6654 11.5455 27.8239 11.7199C28.0301 11.9578 28.3631 11.6089 28.1569 11.3869C28.1252 11.3235 28.1094 11.2759 28.0776 11.2125C28.0618 10.8953 27.5861 10.8953 27.602 11.2125Z" fill="#9BB9D3"/>
<path d="M26.2384 12.5451C26.3652 12.6561 26.4921 12.7671 26.5872 12.9098C26.7775 13.1477 27.1105 12.8147 26.9202 12.5768C26.7775 12.4024 26.6506 12.2756 26.4762 12.1487C26.2225 11.9584 25.9846 12.3707 26.2384 12.5451Z" fill="#9BB9D3"/>
<path d="M36.355 4.25064C36.6722 5.20207 36.6246 6.16935 36.688 7.1525C36.7039 7.45378 37.1796 7.45378 37.1638 7.1525C37.0845 6.12178 37.1479 5.12278 36.8149 4.12378C36.7039 3.83835 36.244 3.96521 36.355 4.25064Z" fill="#9BB9D3"/>
<path d="M38.6064 6.91559C38.6064 7.12173 38.6064 7.34374 38.6064 7.54988C38.6064 7.85117 39.0822 7.85117 39.0822 7.54988C39.0822 7.34374 39.0822 7.12173 39.0822 6.91559C39.0822 6.59845 38.6064 6.59845 38.6064 6.91559Z" fill="#9BB9D3"/>
<path d="M47.3441 9.19902C47.9626 8.51716 48.4542 7.81945 48.8982 7.01074C49.0409 6.74117 48.6444 6.50331 48.4859 6.77288C48.0577 7.53402 47.5979 8.21588 47.0112 8.86602C46.805 9.08802 47.138 9.42102 47.3441 9.19902Z" fill="#9BB9D3"/>
<path d="M49.1352 9.99199C49.2937 9.81756 49.4682 9.64314 49.6267 9.46871C49.8329 9.24671 49.4999 8.91371 49.2937 9.13571C49.1352 9.31014 48.9607 9.48457 48.8022 9.65899C48.596 9.88099 48.929 10.214 49.1352 9.99199Z" fill="#9BB9D3"/>
<path d="M51.6257 12.5602C53.7029 11.7991 55.3996 10.9428 56.7951 9.16679C56.9853 8.92893 56.6524 8.59592 56.4621 8.83378C55.1142 10.5305 53.4968 11.3709 51.4988 12.1004C51.2133 12.1955 51.3402 12.6554 51.6257 12.5602Z" fill="#9BB9D3"/>
<path d="M54.9078 15.6208C55.3043 15.3354 55.7007 15.0817 56.0971 14.7962C56.335 14.6218 56.113 14.2095 55.8593 14.3839C55.4629 14.6694 55.0664 14.9231 54.67 15.2085C54.4163 15.3988 54.6541 15.8111 54.9078 15.6208Z" fill="#9BB9D3"/>
<path d="M56.3668 16.9378C56.7633 16.8268 57.128 16.6048 57.4769 16.4145C57.7464 16.2718 57.5085 15.8595 57.239 16.0022C56.9218 16.1767 56.5889 16.367 56.24 16.478C55.9546 16.5572 56.0814 17.0171 56.3668 16.9378Z" fill="#9BB9D3"/>
<path d="M57.4445 21.3298C57.7617 21.1871 58.1581 21.1554 58.4911 20.9968C58.7607 20.8699 58.5228 20.4576 58.2532 20.5845C57.9044 20.7431 57.5397 20.7589 57.2067 20.9175C56.9212 21.0444 57.1749 21.4408 57.4445 21.3298Z" fill="#9BB9D3"/>
<path d="M57.4293 22.8995C58.6185 22.8995 59.7444 22.8836 60.9178 22.6299C61.2191 22.5665 61.0923 22.1066 60.791 22.1701C59.6651 22.4079 58.571 22.4238 57.4293 22.4238C57.1121 22.4238 57.1121 22.8995 57.4293 22.8995Z" fill="#9BB9D3"/>
<path d="M22.9713 36.3299C22.6066 36.7897 22.2419 37.202 21.782 37.5826C21.5442 37.7729 21.8772 38.1217 22.115 37.9156C22.559 37.535 22.9396 37.1227 23.3043 36.6629C23.4946 36.425 23.1616 36.092 22.9713 36.3299Z" fill="#9BB9D3"/>
<path d="M23.4791 38.2495C23.2571 39.3436 22.4801 40.3109 21.7348 41.1038C21.5286 41.3258 21.8616 41.6588 22.0678 41.4368C22.8765 40.5805 23.701 39.5498 23.9389 38.3605C23.9865 38.075 23.5425 37.9482 23.4791 38.2495Z" fill="#9BB9D3"/>
<path d="M25.319 41.372C25.1604 41.5306 25.0335 41.6892 24.8908 41.8636C24.7005 42.1015 25.0335 42.4345 25.2238 42.1966C25.3665 42.0222 25.4934 41.8636 25.652 41.705C25.8581 41.483 25.5251 41.15 25.319 41.372Z" fill="#9BB9D3"/>
<path d="M57.4447 36.3622C57.524 36.711 57.7302 37.0123 57.9204 37.3136C58.079 37.5673 58.4913 37.3295 58.3327 37.0757C58.1741 36.822 57.9839 36.5366 57.9046 36.2512C57.8253 35.934 57.3654 36.0609 57.4447 36.3622Z" fill="#9BB9D3"/>
<path d="M56.4616 38.392C56.858 38.725 57.302 38.947 57.746 39.2165C57.9997 39.3751 58.2534 38.9628 57.9839 38.8043C57.5874 38.5505 57.1593 38.3444 56.7946 38.0431C56.5726 37.8687 56.2237 38.2017 56.4616 38.392Z" fill="#9BB9D3"/>
<path d="M42.7454 24.929C42.7454 22.2016 43.9188 19.0143 45.6473 16.8894C45.8375 16.6516 45.5045 16.3186 45.3143 16.5564C43.4748 18.8082 42.2855 22.0272 42.2855 24.929C42.2697 25.2303 42.7454 25.2303 42.7454 24.929Z" fill="white"/>
<path d="M44.8862 16.9843C45.251 16.9367 45.5522 16.8733 45.8694 16.6671C45.7584 16.6196 45.6315 16.572 45.5205 16.5244C45.5681 16.8574 45.4729 17.4758 45.4095 17.8247C45.3619 18.126 45.8218 18.2528 45.8694 17.9516C45.9487 17.4758 46.0438 16.8891 45.9645 16.3976C45.9487 16.239 45.7267 16.1756 45.6157 16.2548C45.3778 16.3976 45.1558 16.4768 44.8704 16.5086C44.5849 16.5403 44.5691 17.016 44.8862 16.9843Z" fill="white"/>
<path d="M39.9698 25.3581C39.5575 23.5662 38.9867 21.5999 37.6071 20.2838C36.1165 18.8725 34.1502 18.2065 32.2474 17.6674C31.9461 17.5881 31.8192 18.0479 32.1205 18.1272C33.9282 18.6505 35.8469 19.2848 37.2741 20.6168C38.5902 21.8695 39.1294 23.7724 39.5258 25.4849C39.5734 25.7704 40.0332 25.6594 39.9698 25.3581Z" fill="white"/>
<path d="M31.8996 17.8883C32.0106 18.1737 32.074 18.4433 32.1216 18.7604C32.1691 19.0617 32.629 18.9349 32.5814 18.6336C32.5339 18.3323 32.4705 18.0627 32.3595 17.7614C32.2643 17.4919 31.8045 17.6029 31.8996 17.8883Z" fill="white"/>
<path d="M32.263 17.9994C32.4216 17.7616 33.2462 17.6981 33.484 17.6664C33.7853 17.6189 33.6584 17.159 33.3571 17.2066C32.8973 17.2859 32.1362 17.3493 31.8507 17.7616C31.6763 18.0153 32.0886 18.2531 32.263 17.9994Z" fill="white"/>
<path d="M41.3177 25.707C41.2225 23.4394 40.5724 21.2353 40.5248 18.936C40.4931 16.9063 40.2553 14.8924 40.4297 12.8627C40.4614 12.5614 39.9857 12.5614 39.9539 12.8627C39.7795 14.8924 40.0174 16.9063 40.0491 18.936C40.0967 21.2353 40.7468 23.4235 40.8419 25.707C40.8578 26.0241 41.3335 26.0241 41.3177 25.707Z" fill="white"/>
<path d="M39.9384 12.5924C39.653 13.0206 39.6371 13.5438 39.32 13.9403C39.4627 14.0196 39.5895 14.0988 39.7323 14.1781C39.8433 13.972 39.9859 13.7341 40.0494 13.5121C40.0652 13.4645 40.0811 13.3853 40.0969 13.3536C40.1921 13.1791 40.0177 13.2267 40.1128 13.306C40.3982 13.5438 40.4458 14.0988 40.763 14.3684C40.985 14.5746 41.3338 14.2416 41.096 14.0354C40.7312 13.7183 40.6678 12.7193 40.1287 12.6875C39.6213 12.6717 39.4944 13.639 39.32 13.9561C39.1614 14.2257 39.542 14.4318 39.7323 14.194C40.0494 13.7817 40.0652 13.2584 40.3507 12.8461C40.5092 12.5766 40.097 12.3387 39.9384 12.5924Z" fill="white"/>
<path d="M52.8937 31.6996C51.7837 32.6828 49.5003 32.7145 48.089 32.7779C46.757 32.8413 45.5518 32.7462 44.3467 32.1595C44.0771 32.0168 43.8392 32.4291 44.1088 32.5718C45.5835 33.3012 47.0583 33.3488 48.7074 33.2219C50.1504 33.1109 52.1167 33.0316 53.2425 32.0326C53.4487 31.8265 53.1157 31.4935 52.8937 31.6996Z" fill="white"/>
<path d="M44.1248 32.097C43.998 32.1288 43.9346 32.2239 43.9346 32.3349C43.9346 32.5252 43.9663 32.6996 44.0138 32.8899C44.0773 33.1912 44.5371 33.0643 44.4737 32.763C44.442 32.6203 44.4261 32.4776 44.4103 32.3349C44.3468 32.4142 44.2993 32.4935 44.2359 32.5569C44.5371 32.4776 44.4261 32.0178 44.1248 32.097Z" fill="white"/>
<path d="M44.2835 32.4601C44.5689 32.3491 44.9019 32.3332 45.2032 32.2698C45.5045 32.1905 45.3777 31.7306 45.0764 31.8099C44.7751 31.8892 44.4579 31.9051 44.1566 32.0002C43.8712 32.1112 43.9822 32.5711 44.2835 32.4601Z" fill="white"/>
<path d="M44.7908 34.9825C46.3448 35.5058 47.756 35.5851 49.3735 35.3631C49.6748 35.3155 49.6748 34.8398 49.3735 34.8874C47.7878 35.0935 46.424 35.0301 44.9176 34.5226C44.6322 34.4275 44.5054 34.8874 44.7908 34.9825Z" fill="white"/>
<path d="M44.3308 34.5238C44.2198 34.8568 44.4259 35.1581 44.5211 35.4594C44.6162 35.7448 45.0761 35.618 44.981 35.3326C44.9175 35.1264 44.7114 34.8568 44.7907 34.6507C44.8858 34.3494 44.4259 34.2225 44.3308 34.5238Z" fill="white"/>
<path d="M44.5375 34.8234C44.9339 34.8076 45.2828 34.7283 45.6633 34.6173C45.9488 34.5221 45.8378 34.0623 45.5365 34.1574C45.1876 34.2684 44.9022 34.3318 44.5375 34.3477C44.2362 34.3636 44.2362 34.8393 44.5375 34.8234Z" fill="white"/>
<path d="M27.4116 32.7309C29.8219 34.7765 34.9913 35.268 37.1638 32.6199C37.354 32.382 37.021 32.049 36.8307 32.2869C34.8486 34.713 29.9646 34.269 27.7604 32.3979C27.5226 32.2076 27.1737 32.5406 27.4116 32.7309Z" fill="white"/>
<path d="M36.4662 32.4456C36.6406 32.4615 36.8467 32.4615 37.0212 32.4773C36.9577 32.398 36.9102 32.3188 36.8468 32.2553C36.815 32.6042 36.8626 32.8579 36.9419 33.2068C37.0053 33.508 37.4652 33.3812 37.4018 33.0799C37.3383 32.7945 37.3066 32.5408 37.3224 32.2553C37.3383 32.1602 37.2432 32.0333 37.148 32.0333C36.926 32.0016 36.6882 32.0016 36.4662 31.9858C36.1649 31.9382 36.1649 32.4139 36.4662 32.4456Z" fill="white"/>
<path d="M27.3159 36.0143C29.5517 37.4415 33.2306 36.2205 35.5299 35.5862C35.8312 35.5069 35.7043 35.0471 35.403 35.1263C33.2464 35.7131 29.6468 36.9341 27.5537 35.6021C27.2841 35.4276 27.0463 35.8399 27.3159 36.0143Z" fill="white"/>
<path d="M35.0074 35.2995C35.2928 35.3154 35.5783 35.2995 35.8637 35.3312C35.7844 35.2361 35.7051 35.1251 35.6417 35.0299C35.5941 35.2836 35.4831 35.5215 35.4038 35.7594C35.3087 36.0606 35.7685 36.1716 35.8637 35.8862C35.943 35.6325 36.0698 35.4105 36.1015 35.1568C36.1332 34.9982 36.0381 34.8714 35.8795 34.8555C35.5941 34.8238 35.3087 34.8396 35.0233 34.8238C34.6903 34.7921 34.6902 35.2678 35.0074 35.2995Z" fill="white"/>
<path d="M40.8746 49.5072C40.8904 48.9681 40.9221 48.4448 40.938 47.9057C40.938 47.6044 40.4623 47.6044 40.4623 47.9057C40.4464 48.4448 40.4305 48.9681 40.3988 49.5072C40.383 49.8085 40.8587 49.8085 40.8746 49.5072Z" fill="white"/>
<path d="M40.4464 47.5883C40.1927 47.8262 39.9549 48.0799 39.7011 48.3177C39.4791 48.5239 39.8122 48.8569 40.0342 48.6507C40.2879 48.4129 40.5257 48.1592 40.7795 47.9213C41.0173 47.7152 40.6684 47.3822 40.4464 47.5883Z" fill="white"/>
<path d="M40.6527 47.8907C40.9064 47.9541 41.1919 48.3347 41.3821 48.5249C41.6041 48.7469 41.9372 48.3981 41.7152 48.1919C41.4615 47.9382 41.1285 47.5418 40.7796 47.4467C40.4783 47.3674 40.3514 47.8272 40.6527 47.8907Z" fill="white"/>
<path d="M18.3726 72.7379C17.6432 75.5446 16.9296 78.3513 16.2002 81.1739C20.4341 81.269 24.6521 81.3483 28.8859 81.4435C28.4261 78.3672 27.9503 75.3068 27.4905 72.2305L18.3726 72.7379Z" fill="#302C2A"/>
<path d="M29.8538 48.3348C29.3146 51.5063 27.3642 56.6123 24.8429 56.6123C22.0679 56.6123 19.832 52.9017 19.832 48.3348C19.832 43.768 22.0838 40.0574 24.8429 40.0574C24.9063 40.0574 25.1759 40.216 25.382 40.105C25.5723 39.994 25.6041 39.7086 25.6041 39.4707C26.2066 40.66 27.0312 42.0554 28.157 43.4667C28.7913 44.2754 29.4415 44.9731 30.0599 45.5916C30.0599 46.2417 30.044 47.1931 29.8538 48.3348Z" fill="#0E82FD"/>
<path d="M27.1258 66.1581C26.8087 65.4445 23.8909 58.8955 21.5124 52.6795C21.0684 51.5378 20.3548 49.5873 20.7354 47.1929C20.8622 46.4159 21.0684 45.8133 21.2111 45.4169C22.7175 43.4982 24.2398 41.5636 25.7462 39.6449C25.3657 38.5191 24.9692 37.4091 24.5887 36.2832C22.0674 38.2812 19.5461 40.2951 17.0089 42.2931C16.2478 44.4655 15.4867 46.6379 14.7255 48.8262C14.4877 51.1096 14.234 53.3772 13.9961 55.6606C15.344 58.0075 17.1834 61.9242 17.7067 67.0778C17.9921 69.8211 17.8177 72.2313 17.5323 74.1183C21.2428 74.4989 24.9693 74.8636 28.6798 75.2442C28.1565 72.1996 27.6491 69.1868 27.1258 66.1581Z" fill="#0E82FD"/>
<path d="M22.8761 48.811C22.8444 48.811 22.8127 48.811 22.7651 48.7951C22.559 48.7317 22.4321 48.5256 22.4797 48.3036L22.8761 46.813C22.9396 46.6069 23.1616 46.48 23.3677 46.5276C23.5739 46.591 23.7007 46.7971 23.6531 47.0191L23.2567 48.5097C23.2091 48.6841 23.0506 48.811 22.8761 48.811Z" fill="white"/>
<path d="M24.002 46.3523C23.9069 46.3523 23.7959 46.3206 23.7166 46.2413C23.558 46.0827 23.558 45.829 23.7166 45.6863L27.2527 42.1502C27.4113 41.9916 27.665 41.9916 27.8077 42.1502C27.9663 42.3088 27.9663 42.5625 27.8077 42.7052L24.2716 46.2413C24.2082 46.3206 24.0971 46.3523 24.002 46.3523Z" fill="white"/>
<path d="M24.8579 51.0465C24.7945 51.0465 24.7469 51.0306 24.6835 50.9989C24.4932 50.9038 24.4139 50.6659 24.5091 50.4756L25.2068 49.0644C25.3019 48.8741 25.5398 48.7948 25.7459 48.8899C25.9362 48.9851 26.0155 49.2229 25.9203 49.4132L25.2227 50.8245C25.1434 50.9672 25.0006 51.0465 24.8579 51.0465Z" fill="white"/>
<path d="M25.7308 48.2392C25.6515 48.2392 25.5723 48.2075 25.493 48.1599C25.3186 48.0331 25.271 47.7794 25.3978 47.6049L27.8081 44.2274C27.935 44.0529 28.1887 44.0054 28.3631 44.1322C28.5376 44.2591 28.5851 44.5128 28.4583 44.6872L26.048 48.0648C25.9846 48.1916 25.8577 48.2392 25.7308 48.2392Z" fill="white"/>
<path d="M21.2907 52.4889C21.0846 52.4889 20.9102 52.3304 20.8943 52.1242L20.4503 46.5901C20.4345 46.3681 20.593 46.1778 20.815 46.1619C21.0687 46.1302 21.2273 46.3047 21.2432 46.5267L21.6872 52.0608C21.703 52.2828 21.5444 52.4731 21.3224 52.4889C21.3066 52.4889 21.3066 52.4889 21.2907 52.4889Z" fill="white"/>
<path d="M21.0685 46.178C20.9892 46.178 20.9099 46.1463 20.8465 46.0988C20.6721 45.9719 20.6245 45.7182 20.7514 45.5438L25.1121 39.4071C25.2389 39.2326 25.4927 39.185 25.6671 39.3119C25.8415 39.4388 25.8891 39.6925 25.7622 39.8669L21.4015 46.0036C21.3222 46.1146 21.1953 46.178 21.0685 46.178Z" fill="white"/>
<path d="M28.6812 75.2279C28.1579 72.1992 27.6504 69.1704 27.1272 66.1576C28.7287 63.1764 30.3303 60.1953 31.9319 57.2142C31.3293 52.568 31.9953 49.1112 32.7565 46.7484C33.692 43.8783 35.1192 41.5473 34.4849 41.0399C33.8982 40.58 32.0111 41.9754 31.028 42.8476C29.7753 43.9734 27.5077 46.4789 26.6673 51.4422C24.8754 52.0447 23.0995 52.6314 21.3076 53.234L28.6812 75.2279Z" fill="#0E82FD"/>
<path d="M27.7771 53.3283C27.6344 53.3283 27.5075 53.2649 27.4441 53.138L26.5243 51.584C26.4133 51.3937 26.4768 51.1559 26.6671 51.0449C26.8415 50.9339 27.0952 50.9973 27.2062 51.1876L28.1259 52.7416C28.2369 52.9319 28.1735 53.1697 27.9832 53.2807C27.9039 53.3124 27.8405 53.3283 27.7771 53.3283Z" fill="white"/>
<path d="M20.5617 55.4393C20.4983 55.4393 20.419 55.4235 20.3555 55.3917C20.1652 55.2807 20.1018 55.0429 20.2128 54.8526L21.3387 52.918C21.4497 52.7277 21.6875 52.6643 21.8778 52.7753C22.0681 52.8863 22.1315 53.1242 22.0205 53.3145L20.8947 55.249C20.8312 55.3759 20.6885 55.4393 20.5617 55.4393Z" fill="white"/>
<path d="M22.4804 53.2508C22.3218 53.2508 22.1633 53.1398 22.0998 52.9812C22.0364 52.7751 22.1474 52.5531 22.3535 52.4738L26.524 51.0784C26.7301 51.0149 26.9521 51.1259 27.0314 51.3321C27.0948 51.5382 26.9838 51.7602 26.7777 51.8395L22.6072 53.2349C22.5597 53.2508 22.5121 53.2508 22.4804 53.2508Z" fill="white"/>
<path d="M26.6504 51.8549C26.6028 51.8549 26.5552 51.8391 26.5077 51.8232C26.3015 51.7439 26.2063 51.5219 26.2856 51.3158L28.7276 44.9412C28.8069 44.7351 29.0289 44.6399 29.2351 44.7192C29.4412 44.7985 29.5363 45.0205 29.4571 45.2267L27.015 51.6012C26.9516 51.7598 26.8089 51.8549 26.6504 51.8549Z" fill="white"/>
<path d="M66.2143 71.295C66.1826 74.958 66.1509 78.621 66.1191 82.2999C70.5909 81.9827 75.0626 81.6656 79.5184 81.3485C79.4074 80.9203 79.2806 80.4922 79.1537 80.064C77.9486 76.068 76.1409 72.6746 74.1746 69.8203L66.2143 71.295Z" fill="#302C2A"/>
<path d="M52.7362 43.5124C55.7649 43.1794 58.7777 42.8623 61.8065 42.5293C62.4883 42.8623 63.1543 43.1794 63.8362 43.5124C66.3257 45.8117 68.8154 48.111 71.3049 50.4262C71.7489 54.6759 72.1929 58.9414 72.6369 63.1912C70.0046 64.539 67.3723 65.8869 64.7559 67.2347C62.5993 66.093 60.4269 64.9513 58.2704 63.8096C56.3675 61.875 54.4488 59.9404 52.5459 58.0217C52.7996 54.2002 53.0533 50.3944 53.3071 46.5729C53.1009 45.558 52.9265 44.5273 52.7362 43.5124Z" fill="#0E82FD"/>
<path d="M64.0107 64.8255C64.4865 67.7908 64.9463 70.7561 65.422 73.7214C68.8947 72.7065 72.3516 71.7075 75.8243 70.6927C75.3169 69.0594 74.7143 67.331 74.0007 65.5391C73.081 63.1922 72.0979 61.0515 71.1147 59.1328L64.0107 64.8255Z" fill="#0E82FD"/>
<path d="M50.3082 38.6808L47.7148 40.6406L61.5008 58.8831L64.0942 56.9233L50.3082 38.6808Z" fill="#232120"/>
<path d="M60.3157 50.8198L56.6465 53.5918L64.4942 63.9794L68.1634 61.2074L60.3157 50.8198Z" fill="#232120"/>
<path d="M49.2784 37.3563L46.7227 39.2871L47.7646 40.6662L50.3203 38.7354L49.2784 37.3563Z" fill="#232120"/>
<path d="M49.4371 38.0416L47.3598 39.6115L46.5511 38.549C46.1705 38.0575 46.2816 37.3439 46.7731 36.9633L47.0427 36.7572C47.5343 36.3766 48.2478 36.4876 48.6284 36.9792L49.4371 38.0416Z" fill="#232120"/>
<path d="M48.0738 36.9321L46.6626 37.9945L46.1076 37.2492C45.8539 36.9162 45.9173 36.4405 46.2503 36.1868L46.4406 36.0441C46.7736 35.7904 47.2493 35.8538 47.5189 36.1868L48.0738 36.9321Z" fill="#232120"/>
<path d="M46.5352 36.3454C46.4401 36.4089 46.3609 36.393 46.3291 36.3454L45.6156 35.394C45.568 35.3306 45.5838 35.2513 45.6473 35.2196C45.7265 35.1561 45.8217 35.172 45.8534 35.2196L46.567 36.1551C46.5987 36.2186 46.5987 36.2979 46.5352 36.3454Z" fill="#232120"/>
<path d="M46.4799 35.5703L45.7588 36.1152L46.103 36.5707L46.824 36.0258L46.4799 35.5703Z" fill="#232120"/>
<path d="M46.8025 35.8919L46.1318 36.3984L46.2274 36.525L46.8981 36.0185L46.8025 35.8919Z" fill="#EBEBEC"/>
<path d="M47.7818 36.5961L46.4531 37.5996L46.5487 37.7261L47.8773 36.7227L47.7818 36.5961Z" fill="#EBEBEC"/>
<path d="M48.9021 37.5172L47.0293 38.9316L47.1249 39.0582L48.9976 37.6438L48.9021 37.5172Z" fill="#EBEBEC"/>
<path d="M59.6437 51.1908L57.3418 52.9316L57.4374 53.0581L59.7393 51.3173L59.6437 51.1908Z" fill="#EBEBEC"/>
<path d="M60.8393 43.0692C54.433 41.0871 52.4508 41.1664 52.102 41.8324C51.8165 42.3874 52.546 43.5132 53.1327 44.1158C53.9097 44.9087 54.8294 45.1148 55.1941 45.1624L60.8393 43.0692Z" fill="#0E82FD"/>
<path d="M60.3947 47.2226C60.3471 47.2226 60.3154 47.2226 60.2678 47.2068L55.5741 45.5894C55.368 45.5101 55.257 45.2881 55.3363 45.0819C55.4155 44.8758 55.6376 44.7648 55.8437 44.8441L60.5374 46.4615C60.7435 46.5408 60.8545 46.7628 60.7752 46.9689C60.7118 47.1275 60.5533 47.2226 60.3947 47.2226Z" fill="white"/>
<path d="M61.3613 47.2716C61.1552 47.2716 60.9807 47.113 60.9649 46.9069C60.949 46.6849 61.1235 46.4946 61.3455 46.4946L62.8836 46.3994C63.0898 46.3836 63.28 46.558 63.2959 46.7642C63.3117 46.9862 63.1373 47.1764 62.9153 47.1764L61.3772 47.2716C61.3772 47.2716 61.3772 47.2716 61.3613 47.2716Z" fill="white"/>
<path d="M65.406 53.8834C65.2792 53.8834 65.1523 53.8199 65.073 53.6931L61.3783 47.8735C61.2673 47.6832 61.3149 47.4454 61.5052 47.3344C61.6796 47.2234 61.9333 47.2709 62.0443 47.4612L65.739 53.2808C65.85 53.4711 65.8024 53.7089 65.6121 53.8199C65.5487 53.8675 65.4695 53.8834 65.406 53.8834Z" fill="white"/>
<path d="M63.772 55.2167C63.6293 55.2167 63.4866 55.1374 63.4231 54.9947C63.328 54.8044 63.4073 54.5665 63.5975 54.4555L65.0881 53.7102C65.2784 53.6151 65.5162 53.6944 65.6114 53.8847C65.7065 54.075 65.6273 54.3128 65.437 54.4238L63.9464 55.1691C63.8988 55.2008 63.8354 55.2167 63.772 55.2167Z" fill="#020202"/>
<path d="M55.3833 56.4998C55.2565 56.4998 55.1138 56.4364 55.0503 56.3095C54.9393 56.1192 55.0028 55.8814 55.1772 55.7704L57.2069 54.5494C57.3972 54.4384 57.635 54.5018 57.746 54.6762C57.857 54.8665 57.7936 55.1044 57.6192 55.2154L55.5895 56.4364C55.5261 56.4839 55.4626 56.4998 55.3833 56.4998Z" fill="white"/>
<path d="M52.894 52.5994C52.8306 51.87 52.7037 51.315 52.5927 50.9344C52.2756 49.7769 51.8633 49.1426 51.8633 48.0167C51.8633 47.3507 52.0218 47.208 52.0853 47.1446C52.5293 46.7799 53.56 47.2873 54.0674 47.7154C55.558 48.9999 54.9554 51.7431 54.8761 52.1079L52.894 52.5994Z" fill="#0E82FD"/>
</svg>
