<svg width="130" height="171" viewBox="0 0 130 171" fill="none" xmlns="http://www.w3.org/2000/svg">
<g clip-path="url(#clip0_908_158533)">
<path d="M120.905 76.764C120.905 98.363 114.82 121.264 104.379 138.306C101.828 142.463 98.2499 146.147 95.2585 149.387C82.076 163.544 71.9141 164.373 64.509 164.373C58.101 164.373 50.6226 164.728 34.5073 149.964C30.9294 146.694 27.2635 142.374 24.4774 137.759C14.1542 120.761 8.09814 98.2002 8.09814 76.764C8.09814 34.1283 33.3489 11.5234 64.509 11.5234C95.6545 11.5234 120.905 34.1283 120.905 76.764Z" fill="#FFCCB8"/>
<path opacity="0.2" d="M42.8506 115.673C39.9179 121.694 32.2782 123.514 25.7822 119.756C19.3009 115.984 16.4268 108.04 19.3596 102.018C22.2923 95.9974 28.2604 99.9474 34.7563 103.72C41.2376 107.477 45.7834 109.652 42.8506 115.673Z" fill="white"/>
<path opacity="0.2" d="M36.1347 108.793C35.7828 110.361 32.9967 111.057 29.888 110.361C26.794 109.666 24.5651 107.832 24.9024 106.263C25.2543 104.695 28.0404 104 31.1491 104.695C34.2431 105.405 36.472 107.24 36.1347 108.793Z" fill="white"/>
<path d="M74.9491 131.96C73.4241 131.354 71.9724 130.57 70.3741 130.215C68.7611 129.86 66.8988 130.037 65.7404 131.132H65.7257C65.6964 131.102 65.7404 131.383 65.711 131.354C65.711 131.443 65.711 131.517 65.711 131.591C65.6817 131.413 65.6671 131.236 65.6231 131.043C64.45 130.022 62.661 129.86 61.092 130.2C59.479 130.555 58.0273 131.339 56.517 131.946C55.0066 132.552 52.3232 132.715 50.4902 131.605C54.0095 136.754 57.6461 141.769 65.6231 141.813C65.6524 141.813 65.6671 141.813 65.6964 141.813C65.7257 141.813 65.7404 141.813 65.7697 141.813C65.8137 141.813 65.8577 141.813 65.9163 141.813C73.7907 141.695 77.5592 136.339 80.9905 131.605C79.1429 132.744 76.4595 132.567 74.9491 131.96Z" fill="#F8948D"/>
<path d="M52.6895 133.1C56.5606 134.254 59.3907 134.387 65.784 134.387V136.561C61.3703 136.547 56.6486 135.481 52.6895 133.1Z" fill="#E01802"/>
<path d="M65.5054 135.2H62.8513C62.4847 135.2 62.1914 134.905 62.1914 134.549V134.387H65.652V135.038C65.6813 135.126 65.608 135.2 65.5054 135.2Z" fill="white"/>
<path d="M78.7469 133.1C74.8757 134.254 72.1189 134.387 65.7109 134.387V136.561C70.1393 136.547 74.8024 135.481 78.7469 133.1Z" fill="#E01802"/>
<path d="M65.9308 135.2H68.5849C68.9515 135.2 69.2448 134.905 69.2448 134.549V134.387H65.7695V135.038C65.7695 135.126 65.8429 135.2 65.9308 135.2Z" fill="white"/>
<path d="M54.802 112.905C54.3914 111.751 55.0659 110.376 56.063 109.828C57.0602 109.296 58.2626 109.444 59.289 109.917C60.3155 110.376 61.2246 111.115 62.1631 111.766C63.1016 112.417 63.7761 113.024 65.2571 113.024C65.1838 113.941 65.2718 114.858 65.1985 115.775C63.0282 115.775 62.427 114.533 61.1806 114.37C59.9489 114.207 59.2304 114.281 57.9986 114.444C56.7522 114.607 55.2712 114.207 54.802 112.905Z" fill="#EDAD82"/>
<path d="M56.1807 112.727C56.1807 112.727 56.1953 112.698 56.2247 112.653C56.254 112.609 56.2833 112.52 56.3566 112.431C56.4886 112.254 56.6939 112.002 57.0018 111.795C57.2951 111.573 57.691 111.381 58.1456 111.292C58.6002 111.204 59.0987 111.218 59.5973 111.351C59.8172 111.425 60.0812 111.529 60.2865 111.662C60.5064 111.795 60.6971 111.943 60.873 112.106C61.2249 112.446 61.4889 112.831 61.6502 113.186C61.8115 113.541 61.8848 113.866 61.9141 114.088C61.9288 114.192 61.9288 114.295 61.9288 114.355C61.9288 114.414 61.9288 114.443 61.9288 114.443C61.9288 114.443 61.8555 114.34 61.7235 114.177C61.5915 114.014 61.4156 113.792 61.1809 113.556C60.9463 113.334 60.6677 113.097 60.3451 112.89C60.1838 112.786 60.0225 112.698 59.8466 112.609C59.6706 112.535 59.524 112.461 59.3187 112.402C58.6002 112.18 57.8083 112.224 57.1925 112.357C56.8992 112.431 56.6352 112.52 56.4446 112.594C56.2833 112.683 56.1807 112.727 56.1807 112.727Z" fill="#CF1111"/>
<path d="M63.3358 123.188C63.3358 123.188 63.3797 123.321 63.4384 123.557C63.5117 123.794 63.6144 124.12 63.761 124.475C63.9223 124.83 64.1422 125.214 64.4502 125.466C64.7435 125.732 65.1394 125.821 65.5793 125.821C65.6379 125.821 65.8579 125.806 65.9312 125.791C66.0192 125.776 66.1072 125.762 66.1952 125.732C66.3711 125.673 66.5324 125.584 66.6791 125.466C66.811 125.347 66.943 125.185 67.0456 125.007C67.1483 124.83 67.2363 124.652 67.3096 124.475C67.4562 124.12 67.5735 123.779 67.6615 123.557C67.7495 123.321 67.8081 123.188 67.8081 123.188C67.8081 123.188 67.8521 123.321 67.8961 123.572C67.9401 123.824 67.9988 124.179 67.9694 124.622C67.9548 124.844 67.9108 125.096 67.8375 125.362C67.7642 125.628 67.6175 125.895 67.4122 126.161C67.2069 126.427 66.899 126.634 66.5764 126.768C66.4151 126.827 66.2391 126.871 66.0485 126.901C65.8432 126.93 65.7992 126.916 65.5793 126.93C65.2567 126.916 64.9194 126.871 64.5968 126.723C64.2889 126.59 64.0103 126.368 63.7903 126.131C63.3797 125.628 63.2478 125.081 63.1891 124.637C63.1451 124.193 63.1891 123.824 63.2331 123.587C63.2918 123.335 63.3358 123.188 63.3358 123.188Z" fill="#EDAD82"/>
<path d="M75.6534 112.905C76.064 111.751 75.3894 110.376 74.3923 109.828C73.3952 109.296 72.1928 109.444 71.1663 109.917C70.1399 110.376 69.2307 111.115 68.2923 111.766C67.3538 112.417 66.6793 113.024 65.1982 113.024C65.2716 113.941 65.1836 114.858 65.2569 115.775C67.4271 115.775 68.0283 114.533 69.2747 114.37C70.5065 114.207 71.225 114.281 72.4567 114.444C73.7031 114.607 75.1842 114.207 75.6534 112.905Z" fill="#EDAD82"/>
<path d="M74.2755 112.727C74.2755 112.727 74.2608 112.698 74.2315 112.653C74.2021 112.609 74.1728 112.52 74.0995 112.431C73.9675 112.254 73.7622 112.002 73.469 111.795C73.1757 111.573 72.7651 111.381 72.3252 111.292C71.8706 111.204 71.3721 111.218 70.8735 111.351C70.6536 111.425 70.3896 111.529 70.1843 111.662C69.9644 111.795 69.7737 111.943 69.5978 112.106C69.2458 112.446 68.9819 112.831 68.8206 113.186C68.6593 113.541 68.586 113.866 68.5567 114.088C68.542 114.192 68.542 114.295 68.542 114.355C68.542 114.414 68.542 114.443 68.542 114.443C68.542 114.443 68.6153 114.34 68.7473 114.177C68.8793 114.014 69.0552 113.792 69.2898 113.556C69.5245 113.334 69.8031 113.097 70.1257 112.89C70.287 112.786 70.4483 112.698 70.6242 112.609C70.8002 112.535 70.9468 112.461 71.1521 112.402C71.8706 112.18 72.6625 112.224 73.2637 112.357C73.5716 112.431 73.8209 112.52 74.0115 112.594C74.1728 112.683 74.2755 112.727 74.2755 112.727Z" fill="#CF1111"/>
<path opacity="0.2" d="M87.3106 115.673C90.2434 121.694 97.8831 123.514 104.379 119.756C110.86 115.984 113.734 108.04 110.802 102.018C107.869 95.9974 101.901 99.9474 95.4049 103.72C88.909 107.477 84.3633 109.652 87.3106 115.673Z" fill="white"/>
<path opacity="0.2" d="M94.0268 108.793C94.3787 110.361 97.1648 111.057 100.273 110.361C103.367 109.666 105.596 107.832 105.259 106.263C104.907 104.695 102.121 104 99.0124 104.695C95.9037 105.405 93.6749 107.24 94.0268 108.793Z" fill="white"/>
<path opacity="0.2" d="M90.581 51.1716C90.581 55.1955 78.4395 50.5799 63.468 50.5799C48.4964 50.5799 36.355 55.1955 36.355 51.1716C36.355 47.1477 48.4964 38.375 63.468 38.375C78.4395 38.375 90.581 47.1477 90.581 51.1716Z" fill="white"/>
<path opacity="0.2" d="M78.483 153.501C78.483 157.081 73.0721 159.995 66.3855 159.995C59.6989 159.995 54.3027 157.081 54.3027 153.501C54.3027 145.039 59.7136 151.533 66.4002 151.533C73.0868 151.533 78.483 144.846 78.483 153.501Z" fill="white"/>
<path opacity="0.2" d="M68.2775 97.1514C68.2775 107.108 66.9725 107.389 65.3448 107.389C63.7318 107.389 62.4121 107.122 62.4121 97.1514C62.4121 87.1952 63.9665 76.8099 65.3448 71.3066C66.9725 76.2921 68.2775 87.1952 68.2775 97.1514Z" fill="white"/>
<path d="M25.2104 83.1543C30.9879 92.9182 47.6457 92.1933 54.5376 84.3082L25.2104 83.1543Z" fill="#EDAD82"/>
<path d="M51.4438 81.366C48.6431 79.7831 45.901 78.2297 42.5284 77.6676C37.3375 77.4013 32.5131 77.5048 27.3662 82.4904C28.3633 83.7922 29.9323 83.5259 31.5013 84.7242C31.6773 84.739 31.8679 84.7834 32.0586 84.8574C36.6923 86.6178 40.9594 86.9581 46.6195 86.3367C49.4936 86.0261 52.177 85.3012 54.5379 84.31C53.5261 83.2744 52.6756 82.0613 51.4438 81.366Z" fill="white"/>
<path d="M53.1596 80.1816C53.1596 80.1816 53.0716 80.0781 52.8956 79.9005C52.7197 79.723 52.4851 79.4419 52.1478 79.1165C51.8252 78.7762 51.4146 78.4064 50.9454 77.9774C50.4615 77.5631 49.9043 77.1341 49.2737 76.6755C48.6285 76.2465 47.9394 75.8027 47.1622 75.4032C46.3997 74.989 45.5492 74.6488 44.684 74.3233C43.8042 74.0126 42.8804 73.7907 41.9273 73.5984C40.9741 73.4357 39.9917 73.3469 39.0239 73.3469C38.0121 73.3617 37.0736 73.4505 36.1205 73.6132C35.1674 73.8203 34.2436 74.0422 33.3637 74.3677C32.4986 74.7079 31.6481 75.0482 30.8856 75.4624C30.1231 75.8618 29.4192 76.3204 28.774 76.7495C28.1435 77.2081 27.5863 77.6519 27.1024 78.0661C26.6332 78.4951 26.2079 78.865 25.9 79.2052C25.5627 79.5307 25.3281 79.8118 25.1521 79.9893C24.9762 80.1816 24.8882 80.2704 24.8882 80.2704C24.8882 80.2704 24.9615 80.152 25.0935 79.9301C25.2254 79.7082 25.4014 79.368 25.68 78.9833C25.944 78.5839 26.2959 78.1105 26.7211 77.6075C26.9411 77.356 27.1757 77.0897 27.425 76.8234C27.6889 76.5571 27.9675 76.2909 28.2755 76.0098C28.8913 75.4772 29.5805 74.9002 30.3577 74.4121C31.1349 73.8943 32 73.4357 32.9238 73.0362C33.8476 72.6516 34.8448 72.3113 35.8712 72.0894C36.8977 71.8823 37.9974 71.764 39.0385 71.7344C40.109 71.7492 41.1648 71.8675 42.1912 72.0598C43.2177 72.2817 44.2001 72.6072 45.1386 72.9771C46.0624 73.3617 46.9276 73.8203 47.7047 74.3381C48.4966 74.8263 49.1711 75.3884 49.787 75.921C50.0802 76.2021 50.3735 76.4684 50.6375 76.7347C50.8867 77.0158 51.1213 77.2673 51.3413 77.5187C51.7665 78.0217 52.1185 78.4951 52.3824 78.8946C52.661 79.2792 52.837 79.6195 52.969 79.8414C53.0863 80.0633 53.1596 80.1816 53.1596 80.1816Z" fill="#EDAD82"/>
<path d="M45.1676 86.4691C46.1794 85.4039 46.8392 83.9541 46.8979 82.3564C46.9566 80.7883 46.4433 79.3533 45.5635 78.2289C42.8361 77.3117 40.05 77.1046 37.1613 77.2673C35.7976 78.3621 34.8738 80.0486 34.8004 81.9718C34.7418 83.5399 35.255 85.0045 36.1495 86.1288C39.1115 86.8537 42.1469 86.4987 45.1676 86.4691Z" fill="#40A2DB"/>
<path d="M51.3559 81.5137C52.529 82.1942 53.5701 83.215 54.5379 84.3097C53.4528 85.0938 52.1184 85.0938 50.96 85.6411C50.9893 85.5524 51.1066 85.4932 51.1359 85.4044C51.3999 84.7535 51.5465 83.1706 51.3559 81.5137Z" fill="#FE9084"/>
<path d="M54.435 84.1464C47.4405 77.2969 34.3605 75.5217 28.803 82.2824C33.7593 85.4483 41.2524 87.2679 53.2912 84.8713C44.0239 88.8213 35.4017 87.4011 25.1958 83.318C31.4865 75.0187 45.8861 73.0363 54.435 84.1464Z" fill="#B54900"/>
<path d="M43.2174 82.0152C43.2174 83.3614 42.1323 84.4562 40.7979 84.4562C39.4635 84.4562 38.3784 83.3614 38.3784 82.0152C38.3784 80.669 39.4635 79.5742 40.7979 79.5742C42.1323 79.589 43.2174 80.669 43.2174 82.0152Z" fill="black"/>
<path d="M39.5078 80.6553C39.4784 81.395 38.8479 81.9868 38.1001 81.9572C37.3522 81.9276 36.7657 81.3063 36.795 80.5666C36.8243 79.8269 37.4549 79.2351 38.2027 79.2647C38.9505 79.2795 39.5371 79.9009 39.5078 80.6553Z" fill="white"/>
<path d="M55.4763 75.9951C56.4147 75.8619 57.016 74.8264 56.972 73.8648C56.928 72.918 56.4147 72.0451 55.8575 71.2759C52.9688 67.2815 48.5257 64.4707 43.7014 63.5831C38.8771 62.7103 33.7302 63.7754 29.6537 66.5123C29.1405 66.8673 28.5832 67.3111 28.5246 67.9325C28.4513 68.7313 29.2724 69.3823 30.0643 69.4414C30.8561 69.5006 31.6186 69.1604 32.3665 68.8793C39.405 66.1868 47.9978 68.465 52.8368 74.279C53.5407 75.137 54.3912 76.143 55.4763 75.9951Z" fill="#EDAD82"/>
<path d="M21.0754 73.2143C20.8261 73.2143 20.5915 73.096 20.4302 72.874C20.1809 72.519 20.2689 72.0308 20.6208 71.7793C21.1634 71.3947 21.7206 71.0248 22.2632 70.6698C22.6298 70.4331 23.1137 70.5366 23.3336 70.9065C23.5682 71.2763 23.4656 71.7645 23.099 71.9864C22.5711 72.3267 22.0432 72.6817 21.5007 73.0664C21.3834 73.1699 21.2367 73.2143 21.0754 73.2143Z" fill="#CF1111"/>
<path d="M25.6943 70.3436C25.4156 70.3436 25.137 70.1957 25.0051 69.9294C24.7998 69.5448 24.9464 69.0714 25.3277 68.8643C26.3834 68.3021 27.4686 67.7843 28.539 67.3405C28.9349 67.1778 29.3895 67.3701 29.5654 67.7695C29.7267 68.1689 29.5361 68.6275 29.1402 68.7903C28.1138 69.2193 27.0726 69.7075 26.0608 70.2549C25.9435 70.314 25.8262 70.3436 25.6943 70.3436ZM49.1853 67.8287C49.0974 67.8287 49.0094 67.8139 48.9214 67.7843C47.8803 67.4145 46.7952 67.1038 45.6807 66.8819C45.2555 66.7931 44.9915 66.3789 45.0649 65.9499C45.1528 65.5209 45.5634 65.2546 45.9887 65.3285C47.1618 65.5652 48.3348 65.8907 49.4346 66.2901C49.8452 66.4381 50.0505 66.8819 49.9039 67.2961C49.8159 67.6216 49.5079 67.8287 49.1853 67.8287ZM32.1169 67.6807C31.7797 67.6807 31.4717 67.4588 31.3691 67.1186C31.2518 66.7044 31.4864 66.2605 31.897 66.1422C33.0407 65.8019 34.2138 65.5209 35.3576 65.299C35.7828 65.225 36.1934 65.5061 36.2667 65.9351C36.34 66.3641 36.0614 66.7783 35.6362 66.8523C34.5511 67.0594 33.4366 67.3257 32.3515 67.6512C32.2635 67.6808 32.1902 67.6807 32.1169 67.6807ZM42.3961 66.4381C42.3814 66.4381 42.3668 66.4381 42.3521 66.4381C41.2377 66.3641 40.1086 66.3641 38.9795 66.4381C38.5542 66.4677 38.173 66.1422 38.1583 65.6984C38.129 65.2694 38.4516 64.8847 38.8915 64.8699C40.0792 64.796 41.2817 64.796 42.4547 64.8699C42.88 64.8995 43.2173 65.2694 43.1879 65.7132C43.1586 66.1126 42.8067 66.4381 42.3961 66.4381Z" fill="#CF1111"/>
<path d="M54.0388 70.2541C53.8921 70.2541 53.7455 70.2097 53.6135 70.1209C53.1003 69.7807 52.5577 69.4552 52.0005 69.1446C51.6193 68.9374 51.4726 68.464 51.6779 68.0794C51.8832 67.6948 52.3524 67.5468 52.7337 67.7539C53.3202 68.0794 53.9068 68.4197 54.464 68.7895C54.8306 69.0262 54.9186 69.5144 54.684 69.8842C54.5373 70.1357 54.288 70.2541 54.0388 70.2541Z" fill="#CF1111"/>
<path d="M34.1555 93.8225C33.7302 93.8225 33.3783 93.4823 33.3783 93.0385C33.3783 92.6094 33.7156 92.2544 34.1555 92.2396C35.4165 92.2248 36.6923 92.136 37.9533 91.9585C38.3786 91.8993 38.7745 92.1952 38.8332 92.639C38.8918 93.068 38.5985 93.4675 38.1586 93.5266C36.8242 93.7042 35.4899 93.8077 34.1555 93.8225ZM30.2696 93.6154C30.2403 93.6154 30.211 93.6154 30.1816 93.6154C28.8473 93.4527 27.5275 93.216 26.2518 92.8905C25.8412 92.787 25.5773 92.3579 25.6799 91.9289C25.7826 91.5147 26.2078 91.2484 26.633 91.352C27.8501 91.6626 29.0965 91.8993 30.3723 92.0473C30.7975 92.0916 31.1054 92.4911 31.0615 92.9201C30.9881 93.3195 30.6509 93.6154 30.2696 93.6154ZM41.8685 92.7574C41.5166 92.7574 41.2087 92.5207 41.1207 92.1656C41.0034 91.7514 41.2527 91.3076 41.6779 91.204C42.9096 90.8786 44.1121 90.4643 45.2851 89.9909C45.6811 89.8282 46.1356 90.0205 46.2969 90.42C46.4582 90.8194 46.2676 91.278 45.8717 91.4407C44.6399 91.9437 43.3789 92.3727 42.0885 92.7278C42.0005 92.7574 41.9272 92.7574 41.8685 92.7574ZM49.0683 89.7838C48.7897 89.7838 48.5405 89.6359 48.3938 89.3844C48.1739 88.9997 48.3058 88.5263 48.6871 88.3044C49.7869 87.6683 50.8573 86.9582 51.8398 86.1889C52.177 85.9226 52.6756 85.9818 52.9395 86.3369C53.2035 86.6771 53.1448 87.1801 52.7929 87.4464C51.7371 88.2601 50.6227 89.0145 49.4643 89.6803C49.3323 89.7542 49.2003 89.7838 49.0683 89.7838Z" fill="#CF1111"/>
<path d="M41.3699 140.599C41.0913 140.599 40.8273 140.451 40.6807 140.2C40.1381 139.209 39.5516 138.203 38.9504 137.241C38.7304 136.871 38.8331 136.383 39.1997 136.161C39.5662 135.939 40.0501 136.043 40.2701 136.413C40.886 137.404 41.4725 138.425 42.0297 139.445C42.235 139.83 42.103 140.303 41.7218 140.51C41.6192 140.57 41.5018 140.599 41.3699 140.599ZM37.484 134.312C37.2347 134.312 37.0001 134.194 36.8388 133.972C36.1056 132.906 35.3431 131.856 34.5513 130.835C34.2874 130.495 34.346 129.992 34.6979 129.726C35.0352 129.46 35.5338 129.519 35.7977 129.874C36.6042 130.924 37.3814 132.004 38.1292 133.084C38.3785 133.439 38.2905 133.927 37.9386 134.179C37.792 134.268 37.6453 134.312 37.484 134.312ZM32.7183 128.084C32.4984 128.084 32.2784 127.995 32.1318 127.803C31.296 126.826 30.4162 125.85 29.5363 124.918C29.2431 124.607 29.2577 124.104 29.5657 123.808C29.8736 123.512 30.3722 123.527 30.6654 123.838C31.5599 124.785 32.4544 125.776 33.3049 126.782C33.5835 127.107 33.5542 127.61 33.2169 127.891C33.0849 128.025 32.8943 128.084 32.7183 128.084ZM27.3368 122.388C27.1462 122.388 26.9556 122.314 26.7943 122.166C25.8558 121.279 24.9027 120.406 23.9202 119.563C23.5976 119.281 23.5536 118.778 23.8322 118.453C24.1108 118.128 24.6094 118.083 24.932 118.364C25.9291 119.222 26.9116 120.11 27.8647 121.027C28.1726 121.323 28.1873 121.826 27.894 122.137C27.7474 122.299 27.5421 122.388 27.3368 122.388ZM21.3981 117.284C21.2368 117.284 21.0608 117.225 20.9288 117.122C19.917 116.337 18.8613 115.568 17.8055 114.828C17.4535 114.577 17.3656 114.089 17.6002 113.734C17.8495 113.379 18.3334 113.29 18.6853 113.527C19.7704 114.266 20.8408 115.05 21.882 115.864C22.2192 116.13 22.2925 116.619 22.0286 116.974C21.8673 117.181 21.6327 117.284 21.3981 117.284Z" fill="#CF1111"/>
<path d="M65.8143 121.027C65.389 121.027 65.0371 120.672 65.0371 120.243V116.308C65.0371 115.879 65.389 115.524 65.8143 115.524C66.2395 115.524 66.5915 115.879 66.5915 116.308V120.243C66.5915 120.672 66.2395 121.027 65.8143 121.027ZM65.8143 113.157C65.389 113.157 65.0371 112.802 65.0371 112.373V108.438C65.0371 108.009 65.389 107.654 65.8143 107.654C66.2395 107.654 66.5915 108.009 66.5915 108.438V112.373C66.5915 112.802 66.2395 113.157 65.8143 113.157ZM65.8143 105.287C65.389 105.287 65.0371 104.932 65.0371 104.503V100.567C65.0371 100.138 65.389 99.7834 65.8143 99.7834C66.2395 99.7834 66.5915 100.138 66.5915 100.567V104.503C66.5915 104.932 66.2395 105.287 65.8143 105.287ZM65.8143 97.4164C65.389 97.4164 65.0371 97.0614 65.0371 96.6324V92.6972C65.0371 92.2682 65.389 91.9131 65.8143 91.9131C66.2395 91.9131 66.5915 92.2682 66.5915 92.6972V96.6324C66.5915 97.0614 66.2395 97.4164 65.8143 97.4164ZM65.8143 89.5461C65.389 89.5461 65.0371 89.1911 65.0371 88.7621V84.8269C65.0371 84.3979 65.389 84.0428 65.8143 84.0428C66.2395 84.0428 66.5915 84.3979 66.5915 84.8269V88.7621C66.5915 89.1911 66.2395 89.5461 65.8143 89.5461ZM65.8143 81.6758C65.389 81.6758 65.0371 81.3208 65.0371 80.8918V76.9566C65.0371 76.5276 65.389 76.1725 65.8143 76.1725C66.2395 76.1725 66.5915 76.5276 66.5915 76.9566V80.8918C66.5915 81.3208 66.2395 81.6758 65.8143 81.6758ZM65.8143 73.8055C65.389 73.8055 65.0371 73.4505 65.0371 73.0215V69.0715C65.0371 68.6425 65.389 68.2875 65.8143 68.2875C66.2395 68.2875 66.5915 68.6425 66.5915 69.0715V73.0067C66.5915 73.4505 66.2395 73.8055 65.8143 73.8055ZM65.8143 65.9205C65.389 65.9205 65.0371 65.5654 65.0371 65.1364V61.2012C65.0371 60.7722 65.389 60.4172 65.8143 60.4172C66.2395 60.4172 66.5915 60.7722 66.5915 61.2012V65.1364C66.5915 65.5802 66.2395 65.9205 65.8143 65.9205ZM65.8143 58.0502C65.389 58.0502 65.0371 57.6951 65.0371 57.2661V53.3309C65.0371 52.9019 65.389 52.5469 65.8143 52.5469C66.2395 52.5469 66.5915 52.9019 66.5915 53.3309V57.2661C66.5915 57.7099 66.2395 58.0502 65.8143 58.0502Z" fill="#CF1111"/>
<path d="M66.5916 162.554C66.1664 162.554 65.8145 162.199 65.8145 161.77V159.61C65.8145 159.181 66.1664 158.826 66.5916 158.826C67.0169 158.826 67.3688 159.181 67.3688 159.61V161.77C67.3688 162.199 67.0169 162.554 66.5916 162.554ZM66.5916 156.444C66.1664 156.444 65.8145 156.089 65.8145 155.66V151.725C65.8145 151.296 66.1664 150.941 66.5916 150.941C67.0169 150.941 67.3688 151.296 67.3688 151.725V155.66C67.3688 156.104 67.0169 156.444 66.5916 156.444ZM66.5916 148.574C66.1664 148.574 65.8145 148.219 65.8145 147.79V143.854C65.8145 143.425 66.1664 143.07 66.5916 143.07C67.0169 143.07 67.3688 143.425 67.3688 143.854V147.79C67.3688 148.233 67.0169 148.574 66.5916 148.574Z" fill="#CF1111"/>
<path d="M106.447 83.1543C100.67 92.9182 84.012 92.1933 77.1201 84.3082L106.447 83.1543Z" fill="#EDAD82"/>
<path d="M80.2141 81.366C83.0149 79.7831 85.757 78.2297 89.1296 77.6676C94.3205 77.4013 99.1448 77.5048 104.292 82.4904C103.295 83.7922 101.726 83.5259 100.157 84.7242C99.9807 84.739 99.79 84.7834 99.5994 84.8574C94.9657 86.6178 90.6986 86.9581 85.0385 86.3367C82.1644 86.0261 79.481 85.3012 77.1201 84.31C78.1172 83.2744 78.9824 82.0613 80.2141 81.366Z" fill="white"/>
<path d="M78.498 80.1816C78.498 80.1816 78.586 80.0781 78.762 79.9005C78.938 79.723 79.1726 79.4419 79.5098 79.1165C79.8324 78.7762 80.243 78.4064 80.7122 77.9774C81.1961 77.5631 81.7534 77.1341 82.3839 76.6755C83.0291 76.2465 83.7183 75.8027 84.4955 75.4032C85.258 74.989 86.1084 74.6488 86.9736 74.3233C87.8534 74.0126 88.7772 73.7907 89.7304 73.5984C90.6835 73.4357 91.666 73.3469 92.6337 73.3469C93.6455 73.3617 94.584 73.4505 95.5371 73.6132C96.4903 73.8203 97.4141 74.0422 98.2939 74.3677C99.159 74.7079 100.01 75.0482 100.772 75.4624C101.549 75.8618 102.238 76.3204 102.884 76.7495C103.514 77.2081 104.071 77.6519 104.555 78.0661C105.024 78.4951 105.45 78.865 105.758 79.2052C106.095 79.5307 106.33 79.8118 106.506 79.9893C106.681 80.1816 106.769 80.2704 106.769 80.2704C106.769 80.2704 106.696 80.152 106.564 79.9301C106.432 79.7082 106.256 79.368 105.978 78.9833C105.714 78.5839 105.362 78.1105 104.937 77.6075C104.717 77.356 104.482 77.0897 104.233 76.8234C103.969 76.5571 103.69 76.2909 103.382 76.0098C102.766 75.4772 102.077 74.9002 101.3 74.4121C100.523 73.8943 99.6576 73.4357 98.7338 73.0362C97.81 72.6516 96.8129 72.3113 95.7864 72.0894C94.76 71.8823 93.6602 71.764 92.6191 71.7344C91.5486 71.7492 90.4929 71.8675 89.4664 72.0598C88.44 72.2817 87.4575 72.6072 86.519 72.9771C85.5952 73.3617 84.7301 73.8203 83.9529 74.3381C83.1611 74.8263 82.4865 75.3884 81.8707 75.921C81.5774 76.2021 81.2841 76.4684 81.0202 76.7347C80.7709 77.0158 80.5363 77.2673 80.3163 77.5187C79.8911 78.0217 79.5392 78.4951 79.2752 78.8946C78.9966 79.2792 78.8206 79.6195 78.6887 79.8414C78.5567 80.0633 78.498 80.1816 78.498 80.1816Z" fill="#EDAD82"/>
<path d="M86.4897 86.4691C85.4779 85.4039 84.8181 83.9541 84.7594 82.3564C84.7008 80.7883 85.214 79.3533 86.0938 78.2289C88.8212 77.3117 91.6073 77.1046 94.4961 77.2673C95.8598 78.3621 96.7836 80.0486 96.8569 81.9718C96.9155 83.5399 96.4023 85.0045 95.5078 86.1288C92.5458 86.8537 89.5104 86.4987 86.4897 86.4691Z" fill="#40A2DB"/>
<path d="M77.2227 84.1464C84.2172 77.2969 97.2971 75.5217 102.855 82.2824C97.8983 85.4483 90.4052 87.2679 78.3664 84.8713C87.6338 88.8213 96.256 87.4011 106.462 83.318C100.171 75.0187 85.7569 73.0363 77.2227 84.1464Z" fill="#B54900"/>
<path d="M88.4404 82.0152C88.4404 83.3614 89.5255 84.4562 90.8599 84.4562C92.1943 84.4562 93.2794 83.3614 93.2794 82.0152C93.2794 80.669 92.1943 79.5742 90.8599 79.5742C89.5109 79.589 88.4404 80.669 88.4404 82.0152Z" fill="black"/>
<path d="M87.4581 80.5225C87.4874 81.2622 88.1179 81.854 88.8658 81.8244C89.6136 81.7948 90.2002 81.1735 90.1708 80.4338C90.1415 79.6941 89.511 79.1023 88.7631 79.1319C88.0153 79.1467 87.4288 79.7681 87.4581 80.5225Z" fill="white"/>
<path d="M76.1815 75.9951C75.2431 75.8619 74.6419 74.8264 74.6859 73.8648C74.7298 72.918 75.2431 72.0451 75.8003 71.2759C78.689 67.2815 83.1321 64.4707 87.9564 63.5831C92.7807 62.7103 97.9276 63.7754 102.004 66.5123C102.517 66.8673 103.075 67.3111 103.133 67.9325C103.207 68.7313 102.385 69.3823 101.594 69.4414C100.802 69.5006 100.039 69.1604 99.2914 68.8793C92.2528 66.1868 83.66 68.465 78.821 74.279C78.1025 75.137 77.2666 76.143 76.1815 75.9951Z" fill="#EDAD82"/>
<path d="M110.568 73.2143C110.406 73.2143 110.26 73.1699 110.113 73.0664C109.585 72.6965 109.057 72.3267 108.515 71.9864C108.148 71.7497 108.045 71.2615 108.28 70.9065C108.515 70.5366 108.999 70.4331 109.365 70.6698C109.908 71.0248 110.465 71.3947 111.007 71.7793C111.359 72.0308 111.447 72.519 111.198 72.874C111.066 73.096 110.817 73.2143 110.568 73.2143Z" fill="#CF1111"/>
<path d="M105.949 70.3448C105.831 70.3448 105.699 70.3152 105.582 70.256C104.57 69.7234 103.529 69.2204 102.503 68.7914C102.107 68.6287 101.916 68.1701 102.077 67.7706C102.239 67.3712 102.693 67.1789 103.089 67.3416C104.16 67.7854 105.245 68.3032 106.301 68.8654C106.682 69.0725 106.828 69.5459 106.623 69.9305C106.506 70.1968 106.227 70.3448 105.949 70.3448ZM82.4575 67.8298C82.1349 67.8298 81.8417 67.6227 81.7244 67.312C81.5777 66.8978 81.7977 66.454 82.1936 66.3061C83.308 65.9066 84.4664 65.5812 85.6395 65.3445C86.0648 65.2557 86.4754 65.5368 86.5633 65.9658C86.6513 66.3948 86.3727 66.809 85.9475 66.8978C84.8477 67.1197 83.7479 67.4304 82.7068 67.8002C82.6335 67.815 82.5455 67.8298 82.4575 67.8298ZM99.5406 67.6819C99.4673 67.6819 99.394 67.6671 99.3207 67.6523C98.2356 67.3268 97.1211 67.0605 96.036 66.8534C95.6108 66.7795 95.3322 66.3652 95.4055 65.9362C95.4788 65.5072 95.8894 65.2261 96.3146 65.3001C97.4584 65.5072 98.6315 65.7883 99.7752 66.1433C100.186 66.2617 100.42 66.7055 100.303 67.1197C100.186 67.46 99.8779 67.6819 99.5406 67.6819ZM89.2468 66.4392C88.8362 66.4392 88.4989 66.1137 88.4696 65.6995C88.4403 65.2705 88.7629 64.8858 89.2028 64.8563C90.3759 64.7823 91.5783 64.7823 92.766 64.8563C93.1913 64.8858 93.5286 65.2557 93.4992 65.6847C93.4699 66.1137 93.1033 66.454 92.6781 66.4244C91.549 66.3504 90.4199 66.3504 89.3054 66.4244C89.2761 66.4392 89.2614 66.4392 89.2468 66.4392Z" fill="#CF1111"/>
<path d="M77.6183 70.2569C77.369 70.2569 77.1197 70.1385 76.9731 69.9018C76.7385 69.532 76.8411 69.0438 77.193 68.8071C77.7502 68.4372 78.3368 68.0822 78.9233 67.7715C79.3046 67.5644 79.7738 67.7123 79.9791 68.097C80.1844 68.4816 80.0378 68.955 79.6565 69.1621C79.0993 69.458 78.5567 69.7835 78.0435 70.1385C77.9115 70.2125 77.7649 70.2569 77.6183 70.2569Z" fill="#CF1111"/>
<path d="M97.5023 93.822C97.4876 93.822 97.4876 93.822 97.5023 93.822C96.1679 93.8072 94.8335 93.7036 93.5138 93.5261C93.0885 93.4669 92.7953 93.0675 92.8392 92.6385C92.8979 92.2095 93.2938 91.8988 93.7191 91.958C94.9801 92.1355 96.2559 92.2242 97.5169 92.239C97.9422 92.239 98.2941 92.5941 98.2941 93.0379C98.2648 93.4817 97.9275 93.822 97.5023 93.822ZM101.388 93.6149C100.992 93.6149 100.655 93.319 100.611 92.9196C100.567 92.4905 100.86 92.0911 101.3 92.0467C102.561 91.8988 103.822 91.6621 105.039 91.3514C105.465 91.2479 105.875 91.4994 105.992 91.9284C106.095 92.3426 105.846 92.7716 105.421 92.89C104.145 93.2154 102.81 93.4669 101.491 93.6149C101.447 93.6149 101.417 93.6149 101.388 93.6149ZM89.7892 92.7568C89.7159 92.7568 89.6572 92.742 89.5839 92.7272C88.2935 92.387 87.0178 91.9432 85.8007 91.4402C85.4048 91.2774 85.2142 90.8188 85.3755 90.4194C85.5368 90.02 85.9913 89.8277 86.3873 89.9904C87.5457 90.4638 88.7628 90.878 89.9945 91.2035C90.4051 91.3218 90.6544 91.7508 90.5517 92.1651C90.4491 92.5349 90.1265 92.7568 89.7892 92.7568ZM82.5894 89.7833C82.4574 89.7833 82.3254 89.7537 82.2081 89.6797C81.0497 89.014 79.9206 88.2595 78.8795 87.4459C78.5422 87.1796 78.4689 86.6914 78.7329 86.3363C78.9968 85.9961 79.4807 85.9221 79.8326 86.1884C80.8298 86.9577 81.8855 87.6678 82.9853 88.3039C83.3666 88.5258 83.4839 88.9992 83.2786 89.3838C83.1173 89.6501 82.8533 89.7833 82.5894 89.7833Z" fill="#CF1111"/>
<path d="M90.2875 140.6C90.1555 140.6 90.0236 140.57 89.9062 140.496C89.525 140.289 89.393 139.801 89.5983 139.431C90.1555 138.41 90.7421 137.404 91.3579 136.398C91.5779 136.029 92.0618 135.91 92.4284 136.147C92.795 136.369 92.9123 136.857 92.6777 137.227C92.0765 138.203 91.5046 139.194 90.9474 140.186C90.8301 140.452 90.5514 140.6 90.2875 140.6ZM94.1587 134.313C94.0121 134.313 93.8508 134.268 93.7188 134.179C93.3669 133.928 93.2789 133.44 93.5282 133.085C94.276 132.005 95.0532 130.925 95.8597 129.874C96.1236 129.534 96.6075 129.475 96.9594 129.726C97.2967 129.993 97.37 130.481 97.1061 130.836C96.3142 131.857 95.5517 132.922 94.8185 133.972C94.6572 134.194 94.408 134.313 94.1587 134.313ZM98.939 128.084C98.7631 128.084 98.5724 128.025 98.4258 127.892C98.1032 127.611 98.0592 127.108 98.3378 126.783C99.1883 125.777 100.083 124.785 100.977 123.839C101.271 123.528 101.769 123.513 102.077 123.809C102.385 124.105 102.4 124.608 102.106 124.918C101.227 125.85 100.347 126.827 99.5109 127.803C99.3643 127.996 99.159 128.084 98.939 128.084ZM104.321 122.389C104.115 122.389 103.91 122.3 103.749 122.137C103.455 121.827 103.47 121.324 103.778 121.028C104.731 120.125 105.714 119.223 106.711 118.365C107.033 118.084 107.532 118.128 107.81 118.454C108.089 118.779 108.045 119.282 107.723 119.563C106.755 120.406 105.787 121.279 104.848 122.167C104.702 122.315 104.511 122.389 104.321 122.389ZM110.245 117.285C110.01 117.285 109.775 117.181 109.629 116.974C109.365 116.634 109.438 116.131 109.775 115.865C110.817 115.066 111.887 114.282 112.972 113.527C113.324 113.276 113.808 113.379 114.057 113.734C114.306 114.089 114.204 114.578 113.852 114.829C112.796 115.554 111.74 116.323 110.729 117.122C110.582 117.226 110.421 117.285 110.245 117.285Z" fill="#CF1111"/>
<path d="M65.2862 0.724609C30.3135 0.724609 1.9541 30.5637 1.9541 67.3706C1.9541 79.324 4.96014 90.5377 10.195 100.228C10.0924 98.5559 10.0191 96.8842 10.0191 95.1829C10.0191 60.817 32.1024 32.546 60.4618 28.9511C63.1306 28.6109 65.1542 26.3622 65.1542 23.655V20.1488H68.2775V23.6846C68.2775 26.3918 70.2864 28.6257 72.9552 28.9807C101.007 32.6792 122.841 60.5359 123.149 94.4876C126.653 86.2031 128.618 77.0309 128.618 67.3854C128.618 30.5637 100.259 0.724609 65.2862 0.724609Z" fill="#764D2B"/>
<path d="M65.682 8.86133C25.5918 8.86133 -7.13738 32.4722 1.42616 86.9577C5.06273 110.11 19.1691 128.395 30.3134 146.606C51.0624 180.499 84.9793 175.262 99.2323 149.491C109.702 130.57 125.817 111.619 128.882 87.5643C136.155 30.3715 105.171 8.86133 65.682 8.86133ZM66.1953 164.448C38.1878 164.448 11.5734 121.723 11.5734 83.8954C11.5734 59.101 20.1516 26.1701 65.7993 26.1701C110.406 26.1701 118.72 56.6009 118.72 82.4456C118.735 120.273 94.2027 164.448 66.1953 164.448Z" fill="#0E82FD"/>
<path d="M11.7495 60.0323C10.0779 65.7131 9.24203 71.3496 8.99275 76.4978C8.74347 81.646 9.03674 86.3061 9.52064 90.1968C10.0045 94.0728 10.6204 97.1943 11.119 99.3394C11.3389 100.419 11.5882 101.233 11.7202 101.795C11.8521 102.357 11.9255 102.653 11.9255 102.653C11.9255 102.653 11.8375 102.357 11.6615 101.81C11.5002 101.263 11.2069 100.449 10.9283 99.3838C10.3125 97.2683 9.5353 94.1764 8.8901 90.2856C8.2449 86.3948 7.79033 81.6904 7.90764 76.4534C8.02495 71.2164 8.80212 65.4616 10.5031 59.6477C12.2627 53.8485 14.8289 48.6263 17.7469 44.2769C19.1986 42.1023 20.7529 40.1643 22.278 38.4186C23.8323 36.7025 25.372 35.1788 26.8677 33.8917C29.8444 31.3176 32.5131 29.5719 34.4194 28.5068C35.3579 27.9298 36.1351 27.6043 36.6483 27.3233C37.1615 27.057 37.4255 26.9238 37.4255 26.9238C37.4255 26.9238 37.1615 27.0718 36.6776 27.3676C36.1937 27.6783 35.4312 28.0482 34.5367 28.6695C32.6891 29.8382 30.1376 31.7022 27.3076 34.3651C25.8852 35.6965 24.4335 37.2499 22.9525 38.9956C21.5155 40.7708 20.0344 42.7088 18.6707 44.8835C15.8993 49.2329 13.4651 54.3663 11.7495 60.0323Z" fill="#B7E1FB"/>
<path d="M99.9069 28.1821C102.092 29.9721 104.13 31.8953 105.963 33.9664C107.781 36.0376 109.394 38.2418 110.817 40.5053C113.647 45.047 115.685 49.8254 117.107 54.515C118.486 59.2194 119.351 63.8203 119.673 68.1697C120.011 72.5191 119.952 76.5578 119.791 80.2414C119.453 87.6087 118.618 93.5262 117.928 97.5797C117.577 99.6065 117.254 101.175 117.019 102.225C116.785 103.275 116.653 103.837 116.653 103.837C116.653 103.837 116.755 103.275 116.961 102.21C117.166 101.145 117.43 99.5769 117.723 97.5353C118.295 93.467 118.955 87.5495 119.146 80.197C119.219 76.5282 119.204 72.5043 118.794 68.2289C118.412 63.9534 117.489 59.4265 116.066 54.8257C114.615 50.2396 112.562 45.5796 109.776 41.171C108.382 38.9667 106.799 36.8364 105.01 34.8245C103.221 32.8125 101.227 30.9485 99.1004 29.2028C96.9449 27.4868 94.672 25.963 92.3698 24.602C90.0383 23.2853 87.6482 22.1314 85.2433 21.155C80.4043 19.2614 75.5214 17.9892 70.7704 17.3974C61.2684 16.1547 52.5435 17.3086 45.5197 19.0247C38.4518 20.7704 32.9969 23.1078 29.3164 24.8387C27.4688 25.7115 26.0611 26.4364 25.1226 26.9542C24.1695 27.4572 23.6709 27.7383 23.6709 27.7383C23.6709 27.7383 24.1548 27.4572 25.0933 26.9098C26.0171 26.3624 27.4101 25.5932 29.2284 24.6612C32.865 22.8119 38.2758 20.3118 45.3584 18.3886C52.4115 16.495 61.2097 15.1488 70.9023 16.2879C75.7413 16.8205 80.7416 18.0631 85.6979 19.9715C88.1614 20.9479 90.6102 22.1166 93.015 23.4629C95.3759 24.8535 97.7074 26.4068 99.9069 28.1821Z" fill="white"/>
<path d="M3.0098 77.5034C2.86316 84.5749 3.71365 91.306 5.03338 97.2827C6.41175 103.259 8.23004 108.511 10.107 112.742C11.9839 116.988 13.8022 120.302 15.1806 122.506C15.8258 123.63 16.427 124.459 16.7789 125.036C17.1455 125.613 17.3508 125.909 17.3508 125.909C17.3508 125.909 17.1455 125.613 16.7349 125.065C16.3537 124.503 15.7085 123.704 15.0193 122.61C13.5383 120.465 11.5733 117.225 9.5351 113.009C7.4822 108.807 5.50261 103.555 3.9776 97.5194C2.51124 91.4835 1.5581 84.6488 1.7194 77.459C1.79272 73.8642 2.10066 70.358 2.65787 67.0294C3.20043 63.686 3.91894 60.4906 4.81342 57.517C6.54373 51.5403 8.93389 46.4365 11.3094 42.4126C13.6996 38.3887 16.0604 35.4003 17.8494 33.5067C18.2746 33.0037 18.6852 32.6043 19.0371 32.2492C19.389 31.8942 19.697 31.5983 19.9462 31.3616C20.4301 30.8882 20.6941 30.6367 20.6941 30.6367C20.6941 30.6367 20.4448 30.903 19.9902 31.406C19.7556 31.6575 19.477 31.9682 19.1398 32.338C18.8025 32.7079 18.4066 33.1221 18.0107 33.6399C16.339 35.6222 14.1101 38.6697 11.8959 42.738C9.68174 46.8063 7.4822 51.9102 5.89853 57.8277C5.0627 60.7717 4.41751 63.9375 3.90428 67.2217C3.36173 70.5208 3.08312 73.9677 3.0098 77.5034Z" fill="#B7E1FB"/>
<path d="M25.7383 18.6551C29.0523 16.5248 32.4396 14.8974 35.5922 13.6252C36.3841 13.3293 37.1613 13.0334 37.9238 12.7523C38.6863 12.4861 39.4341 12.2789 40.1526 12.0422C41.5897 11.5688 42.9534 11.273 44.1998 10.9623C45.4315 10.6368 46.5899 10.4889 47.5871 10.2818C48.5842 10.0895 49.4493 9.98591 50.1532 9.89715C51.5609 9.73442 52.3527 9.63086 52.3527 9.63086C52.3527 9.63086 51.5756 9.79359 50.1825 10.0895C49.4933 10.2374 48.6282 10.4001 47.6604 10.6812C46.6926 10.9623 45.5635 11.1842 44.3611 11.5836C43.1587 11.9683 41.8096 12.3381 40.4312 12.8855C39.7274 13.1518 39.0089 13.3885 38.2757 13.6844C37.5425 13.995 36.7947 14.3057 36.0175 14.6312C32.9675 15.9922 29.6828 17.6491 26.4422 19.7498C23.2162 21.8505 20.3274 24.1436 17.8493 26.3774C16.6469 27.5313 15.4591 28.6113 14.4767 29.7208C13.9781 30.2682 13.4502 30.7712 13.0103 31.3038C12.5557 31.8363 12.1305 32.3393 11.7199 32.8275C10.8548 33.7891 10.2096 34.7507 9.57904 35.5496C8.9485 36.3484 8.4646 37.0733 8.06869 37.6651C7.26219 38.8486 6.80762 39.4995 6.80762 39.4995C6.80762 39.4995 7.18887 38.8042 7.89272 37.5467C8.24465 36.9106 8.66989 36.1561 9.24177 35.2981C9.81365 34.4548 10.4002 33.4341 11.192 32.4281C11.5733 31.9103 11.9839 31.3777 12.3944 30.8008C12.805 30.2386 13.3036 29.6912 13.7875 29.1143C14.7406 27.9308 15.8844 26.7769 17.0721 25.5638C19.5356 23.2116 22.439 20.8002 25.7383 18.6551Z" fill="#B7E1FB"/>
<path d="M67.6322 22.4128C71.0781 22.901 74.3188 23.6703 77.2075 24.5432C78.6445 25.0166 80.0083 25.4456 81.24 25.9634C81.8559 26.2148 82.4717 26.4368 83.0436 26.6882C83.6155 26.9397 84.158 27.1912 84.6713 27.4279C85.7124 27.8865 86.6215 28.3895 87.4134 28.8038C88.2199 29.218 88.8944 29.6026 89.4369 29.9429C90.522 30.5938 91.1233 30.9637 91.1233 30.9637C91.1233 30.9637 90.4781 30.6678 89.3343 30.1352C88.7624 29.8541 88.0586 29.5287 87.2374 29.1884C86.4016 28.8481 85.4778 28.4191 84.422 28.0493C83.8941 27.857 83.3369 27.6498 82.765 27.4279C82.1931 27.2208 81.5773 27.0285 80.9467 26.8214C79.7003 26.3776 78.3366 26.0225 76.8996 25.6083C74.0255 24.8686 70.8288 24.1881 67.4416 23.7147C64.0543 23.2709 60.7989 23.0638 57.8369 23.0046C56.3559 23.0194 54.9482 22.9898 53.6284 23.0786C52.9686 23.1082 52.3234 23.1229 51.7222 23.1821C51.1063 23.2413 50.5198 23.2857 49.9626 23.3301C48.8335 23.404 47.8363 23.5668 46.9418 23.6703C46.0474 23.7739 45.2849 23.8922 44.669 24.0106C43.4226 24.2177 42.7334 24.336 42.7334 24.336C42.7334 24.336 43.4079 24.1437 44.625 23.8035C45.2409 23.6259 45.9887 23.4336 46.8685 23.2561C47.7483 23.0786 48.7455 22.8271 49.8746 22.6643C50.4318 22.5756 51.033 22.4868 51.6342 22.3833C52.2501 22.2945 52.8953 22.2353 53.5551 22.1614C54.8895 21.9986 56.3119 21.9394 57.8222 21.8655C60.8576 21.8211 64.1862 21.9542 67.6322 22.4128Z" fill="#B7E1FB"/>
<path d="M99.6133 18.4325C103.983 21.0215 107.678 24.2613 110.567 27.5603C113.456 30.8889 115.597 34.2471 117.166 37.1615C118.749 40.0758 119.82 42.5316 120.524 44.2329C121.227 45.949 121.594 46.8958 121.594 46.8958C121.594 46.8958 121.154 45.9786 120.348 44.3217C119.526 42.6648 118.309 40.2978 116.608 37.4869C114.907 34.6761 112.664 31.4807 109.761 28.3C106.828 25.1489 103.206 22.0866 98.9388 19.5569C90.4339 14.4086 81.6211 11.9529 75.1838 11.0356C71.9578 10.5622 69.3183 10.3995 67.4854 10.3551C66.5762 10.3108 65.8577 10.3403 65.3738 10.3403C64.8899 10.3403 64.6406 10.3403 64.6406 10.3403C64.6406 10.3403 64.8899 10.3255 65.3738 10.2812C65.8577 10.2516 66.5616 10.1776 67.4854 10.148C69.3183 10.0741 71.9871 10.0593 75.2571 10.3699C78.5271 10.6954 82.4276 11.3463 86.6067 12.6334C88.7036 13.2547 90.8591 14.0536 93.044 15.0152C95.2435 15.9916 97.4431 17.1159 99.6133 18.4325Z" fill="#B7E1FB"/>
<path d="M125.847 87.4304C124.19 97.4753 121.213 106.204 118.793 112.358C118.163 113.896 117.606 115.272 117.107 116.5C116.609 117.713 116.125 118.734 115.758 119.592C114.996 121.279 114.585 122.211 114.585 122.211C114.585 122.211 114.937 121.249 115.582 119.518C115.89 118.645 116.315 117.595 116.741 116.352C117.166 115.11 117.664 113.704 118.207 112.136C120.318 105.878 122.958 97.1203 124.586 87.2233C125.421 82.2673 125.817 77.5037 125.905 73.1544C125.993 70.9797 125.876 68.9085 125.847 66.9854C125.773 66.0238 125.715 65.0917 125.641 64.1893C125.612 63.7455 125.568 63.3017 125.539 62.8727C125.48 62.4437 125.436 62.0294 125.377 61.6152C125.275 60.8015 125.187 60.0175 125.099 59.2778C124.996 58.5381 124.864 57.8576 124.761 57.2067C124.542 55.9196 124.366 54.7953 124.146 53.8928C123.75 52.088 123.53 51.082 123.53 51.082C123.53 51.082 123.823 52.0732 124.336 53.8485C124.615 54.7361 124.864 55.8456 125.157 57.1179C125.304 57.754 125.48 58.4493 125.612 59.1742C125.744 59.9139 125.876 60.698 126.023 61.5116C126.096 61.9259 126.169 62.3401 126.243 62.7691C126.301 63.1981 126.345 63.642 126.404 64.0858C126.506 64.9882 126.609 65.935 126.726 66.8966C126.829 68.8494 127.02 70.9353 126.99 73.1396C127.02 77.5629 126.697 82.4153 125.847 87.4304Z" fill="#B7E1FB"/>
<path d="M28.1286 142.124C31.0173 146 34.038 149.476 36.912 152.524C38.3784 154.018 39.7568 155.453 41.1352 156.711C41.8243 157.347 42.4549 157.983 43.1001 158.56C43.7453 159.137 44.3758 159.684 44.977 160.202C46.1501 161.267 47.2939 162.14 48.2617 162.939C49.2295 163.752 50.0946 164.403 50.8131 164.936C52.2355 166.001 53.0127 166.608 53.0127 166.608C53.0127 166.608 52.1915 166.075 50.6958 165.113C49.948 164.64 49.0388 164.034 48.0124 163.279C46.9859 162.539 45.7982 161.726 44.5518 160.72C43.9212 160.217 43.276 159.699 42.5869 159.166C41.8977 158.619 41.2378 158.012 40.5193 157.406C39.0823 156.193 37.6452 154.787 36.1202 153.323C33.1288 150.32 30.0055 146.858 27.0874 142.923C24.184 138.973 21.7499 134.979 19.7703 131.221C18.8318 129.313 17.908 127.522 17.2042 125.777C16.8376 124.904 16.4563 124.076 16.1484 123.262C15.8405 122.433 15.5619 121.649 15.2832 120.895C14.6967 119.401 14.3154 117.995 13.9342 116.782C13.7582 116.176 13.5676 115.613 13.421 115.081C13.289 114.548 13.1717 114.075 13.069 113.631C12.6438 111.9 12.4092 110.924 12.4092 110.924C12.4092 110.924 12.7171 111.871 13.2597 113.572C13.3916 114.001 13.5383 114.474 13.7142 114.992C13.8902 115.51 14.1102 116.057 14.3301 116.649C14.7847 117.833 15.2393 119.194 15.8845 120.658C16.1924 121.398 16.515 122.152 16.8522 122.951C17.1895 123.75 17.6148 124.549 18.0107 125.392C18.7732 127.093 19.7556 128.839 20.7381 130.688C22.8057 134.328 25.2545 138.233 28.1286 142.124Z" fill="#B7E1FB"/>
<path d="M70.1544 165.558C72.3686 165.484 74.5095 165.247 76.5331 164.744C78.5713 164.271 80.4629 163.546 82.2372 162.791C85.7858 161.253 88.7478 159.344 91.1087 157.569C93.4695 155.794 95.1852 154.107 96.2996 152.894C96.8715 152.302 97.282 151.785 97.5607 151.459C97.8393 151.119 97.9859 150.941 97.9859 150.941C97.9859 150.941 97.8539 151.134 97.6046 151.489C97.3554 151.844 96.9888 152.391 96.4462 153.027C95.4051 154.329 93.7921 156.149 91.5046 158.087C89.2171 160.01 86.2844 162.111 82.6918 163.797C80.8881 164.64 78.9526 165.425 76.841 165.957C74.7441 166.519 72.4712 166.8 70.1837 166.86C67.8815 166.933 65.638 166.712 63.4971 166.386C61.3562 166.031 59.3473 165.469 57.4557 164.833C53.7018 163.501 50.5785 161.711 48.159 159.951C45.7395 158.176 44.0239 156.459 42.8948 155.232C42.3229 154.625 41.9416 154.092 41.663 153.767C41.3844 153.427 41.2378 153.249 41.2378 153.249C41.2378 153.249 41.3991 153.412 41.707 153.737C42.015 154.048 42.4402 154.536 43.0414 155.098C44.2438 156.238 46.0475 157.821 48.5256 159.418C50.9891 161.016 54.1271 162.614 57.8077 163.797C59.6553 164.359 61.6202 164.848 63.6878 165.158C65.77 165.439 67.9255 165.617 70.1544 165.558Z" fill="#B7E1FB"/>
<path d="M97.4585 145.852C102.4 140.556 106.345 135.289 109.101 131.383C109.776 130.407 110.392 129.519 110.934 128.735C111.448 127.936 111.902 127.256 112.269 126.694C113.002 125.584 113.412 124.963 113.412 124.963C113.412 124.963 113.061 125.614 112.445 126.797C112.122 127.389 111.741 128.114 111.286 128.957C110.802 129.786 110.245 130.718 109.644 131.738C107.151 135.836 103.427 141.369 98.4116 146.739C93.426 152.124 88.1618 156.267 84.0706 158.752C82.0471 160.024 80.2728 160.853 79.0557 161.4C78.4398 161.666 77.9559 161.829 77.6333 161.962C77.3107 162.08 77.1348 162.154 77.1348 162.154C77.1348 162.154 77.2961 162.066 77.6187 161.918C77.9266 161.755 78.3958 161.548 78.9824 161.222C80.1408 160.557 81.8125 159.61 83.7187 158.219C87.5752 155.482 92.5462 151.163 97.4585 145.852Z" fill="#B7E1FB"/>
<path d="M128.164 52.7092C129.718 59.4552 130.026 65.7573 129.938 70.2694C129.953 71.3938 129.836 72.4145 129.806 73.3169C129.762 74.2046 129.689 74.9739 129.616 75.61C129.484 76.8527 129.396 77.548 129.396 77.548C129.396 77.548 129.396 76.8527 129.41 75.5952C129.425 74.9739 129.44 74.2046 129.396 73.3022C129.352 72.4145 129.381 71.3938 129.293 70.2842C129.058 65.8165 128.428 59.6475 126.903 53.0199C125.407 46.3775 123.34 40.5487 121.375 36.5396C120.891 35.5336 120.451 34.6164 120.011 33.8619C119.586 33.0926 119.219 32.3973 118.882 31.8796C118.222 30.8144 117.841 30.2227 117.841 30.2227C117.841 30.2227 118.266 30.77 119.043 31.7612C119.439 32.2494 119.864 32.9003 120.363 33.64C120.876 34.3797 121.404 35.2525 121.961 36.2289C124.219 40.1197 126.654 45.9484 128.164 52.7092Z" fill="#B7E1FB"/>
<path d="M20.7967 121.887C22.527 125.837 24.3013 129.565 26.061 132.864C27.8353 136.163 29.5216 139.092 31.0613 141.459C31.4425 142.05 31.8091 142.627 32.1464 143.16C32.4983 143.693 32.8502 144.181 33.1728 144.639C33.818 145.557 34.3606 146.37 34.8591 146.992C35.8269 148.249 36.3548 148.959 36.3548 148.959C36.3548 148.959 35.7683 148.308 34.6978 147.125C34.1553 146.548 33.5541 145.779 32.8355 144.891C32.4836 144.447 32.1024 143.988 31.7065 143.471C31.3252 142.953 30.9293 142.406 30.504 141.829C28.8177 139.536 26.9848 136.666 25.0785 133.396C23.2016 130.112 21.3393 126.399 19.5797 122.404C17.8494 118.395 16.471 114.46 15.3419 110.85C14.3008 107.211 13.4503 103.897 12.9957 101.072C12.8784 100.362 12.7464 99.6959 12.6438 99.0598C12.5558 98.4236 12.4825 97.8171 12.4092 97.2549C12.2625 96.1306 12.1452 95.1542 12.1159 94.3553C12.0132 92.7576 11.9546 91.8848 11.9546 91.8848C11.9546 91.8848 12.0866 92.7576 12.3065 94.3405C12.3945 95.1246 12.5851 96.0862 12.8051 97.1957C12.9077 97.7431 13.025 98.3497 13.1423 98.971C13.289 99.5923 13.4503 100.258 13.6116 100.939C14.2274 103.705 15.2246 106.945 16.3683 110.51C17.6294 114.061 19.0664 117.922 20.7967 121.887Z" fill="white"/>
<path d="M112.84 119.577C111.3 123.794 109.467 127.433 107.928 129.933C107.165 131.19 106.476 132.152 105.992 132.818C105.493 133.454 105.215 133.824 105.215 133.824C105.215 133.824 105.435 133.424 105.831 132.714C106.212 131.989 106.755 130.939 107.37 129.637C108.602 127.004 110.112 123.291 111.623 119.134C113.133 114.976 114.409 111.16 115.274 108.378C116.125 105.627 116.652 103.852 116.652 103.852C116.652 103.852 116.594 104.31 116.476 105.109C116.374 105.923 116.169 107.091 115.89 108.541C115.347 111.411 114.365 115.361 112.84 119.577Z" fill="white"/>
<path d="M90.0967 29.335C92.5748 30.3558 94.833 31.5541 96.8126 32.7524C97.7804 33.3885 98.7188 33.9655 99.54 34.6016C100.376 35.1934 101.124 35.7999 101.798 36.3621C102.487 36.9095 103.059 37.4568 103.572 37.9154C104.086 38.374 104.511 38.8031 104.848 39.1581C105.523 39.8534 105.904 40.2529 105.904 40.2529C105.904 40.2529 105.479 39.9126 104.716 39.3209C104.335 39.0102 103.88 38.6403 103.309 38.2409C102.751 37.8415 102.135 37.3533 101.417 36.8799C100.698 36.3917 99.9213 35.8591 99.0561 35.3413C98.2056 34.794 97.2525 34.2762 96.27 33.714C94.2758 32.6341 92.0322 31.5393 89.6128 30.5481C87.1933 29.5717 84.8178 28.8025 82.6476 28.1811C81.5478 27.9 80.5067 27.6042 79.5242 27.4119C78.5417 27.1752 77.6179 27.0124 76.7674 26.8645C75.917 26.7018 75.1398 26.613 74.4653 26.5094C73.7907 26.4059 73.2042 26.3467 72.7203 26.3023C71.7672 26.1988 71.2246 26.1544 71.2246 26.1544C71.2246 26.1544 71.7672 26.1396 72.735 26.0952C73.2189 26.0804 73.8201 26.0656 74.5093 26.0952C75.1984 26.1248 75.9903 26.1248 76.8554 26.2136C77.7206 26.2727 78.6737 26.3615 79.6855 26.5242C80.712 26.6426 81.7824 26.8793 82.9115 27.1012C85.155 27.619 87.6038 28.3439 90.0967 29.335Z" fill="white"/>
<path d="M36.0321 33.7741C31.501 36.3926 27.8351 39.455 25.357 41.8663C24.1252 43.0794 23.1574 44.1002 22.5269 44.8399C21.8817 45.5648 21.5298 45.979 21.5298 45.979C21.5298 45.979 21.8377 45.5204 22.3656 44.7215C22.8935 43.8931 23.7587 42.7688 24.8731 41.4225C27.1313 38.7448 30.7092 35.3423 35.3722 32.635C37.7037 31.2888 40.0352 30.2532 42.2201 29.4396C44.4197 28.6999 46.4286 28.1081 48.1442 27.7974C48.9947 27.6051 49.7719 27.5016 50.4611 27.398C51.1502 27.2797 51.7368 27.2205 52.2207 27.1761C53.1885 27.0873 53.731 27.043 53.731 27.043C53.731 27.043 53.2031 27.1613 52.2647 27.3832C51.7954 27.4868 51.2089 27.6199 50.549 27.8122C49.8892 27.9898 49.1267 28.1821 48.3055 28.4484C46.6485 28.9218 44.7276 29.6467 42.616 30.4899C40.5338 31.3775 38.2903 32.4723 36.0321 33.7741Z" fill="white"/>
</g>
<defs>
<clipPath id="clip0_908_158533">
<rect width="129.905" height="169.714" fill="white" transform="translate(0.0478516 0.724609)"/>
</clipPath>
</defs>
</svg>
