<svg width="40" height="40" viewBox="0 0 40 40" fill="none" xmlns="http://www.w3.org/2000/svg">
<path d="M16.25 36.25V27.4866C16.25 26.875 16.875 26.25 17.5 26.25H22.5C23.125 26.25 23.75 26.875 23.75 27.5V36.25C23.75 36.9404 24.3096 37.5 25 37.5H35C35.6904 37.5 36.25 36.9404 36.25 36.25V18.75C36.25 18.4185 36.1183 18.1005 35.8839 17.8661L32.5 14.4822V6.25C32.5 5.55964 31.9404 5 31.25 5H28.75C28.0596 5 27.5 5.55964 27.5 6.25V9.48223L20.8839 2.86612C20.3957 2.37796 19.6043 2.37796 19.1161 2.86612L4.11612 17.8661C3.8817 18.1005 3.75 18.4185 3.75 18.75V36.25C3.75 36.9404 4.30964 37.5 5 37.5H15C15.6904 37.5 16.25 36.9404 16.25 36.25Z" fill="#0092E4"/>
</svg>
