<svg width="195" height="78" viewBox="0 0 195 78" fill="none" xmlns="http://www.w3.org/2000/svg">
<g clip-path="url(#clip0_2578_54456)">
<path fill-rule="evenodd" clip-rule="evenodd" d="M42.278 27.4253L44.2557 24L49.8627 27.2378L47.8857 30.6623C47.5385 31.263 48.0582 31.9935 48.7392 31.8622L52.5282 31.131L53.7545 37.4888L49.9655 38.2192C43.8365 39.4012 39.1572 32.8313 42.278 27.4253Z" fill="#3A724F"/>
<path fill-rule="evenodd" clip-rule="evenodd" d="M38.8515 50.575L36.8737 54.0003L31.266 50.7633L33.2437 47.338C33.591 46.7373 33.0712 46.0068 32.3895 46.138L28.6012 46.8685L27.375 40.5115L31.164 39.781C37.293 38.599 41.9715 45.169 38.8515 50.575Z" fill="#DC8E43"/>
<path fill-rule="evenodd" clip-rule="evenodd" d="M39.0229 27.4253L37.0459 24L31.4381 27.2378L33.4159 30.6623C33.7624 31.263 33.2434 31.9935 32.5616 31.8622L28.7726 31.131L27.5479 37.4888L31.3361 38.2192C37.4659 39.4012 42.1451 32.8313 39.0236 27.4253H39.0229Z" fill="#14424C"/>
<path fill-rule="evenodd" clip-rule="evenodd" d="M42.1122 50.575L44.0884 54.0003L49.6962 50.7633L47.7184 47.338C47.3719 46.7373 47.8909 46.0068 48.5727 46.138L52.3609 46.8685L53.5872 40.5115L49.7982 39.781C43.6692 38.599 38.9907 45.169 42.1107 50.575H42.1122Z" fill="#C85D1B"/>
<path d="M149.711 46.6147V40.2397C149.711 39.3562 149.914 38.5635 150.321 37.8622C150.741 37.1467 151.338 36.5858 152.109 36.1785C152.881 35.772 153.8 35.5687 154.866 35.5687C155.363 35.5639 155.859 35.6275 156.339 35.7577C156.788 35.8702 157.194 36.0315 157.559 36.2415C157.938 36.438 158.26 36.6765 158.527 36.957H158.569C158.855 36.6725 159.181 36.4314 159.537 36.2415C159.928 36.0264 160.345 35.8637 160.779 35.7577C161.266 35.6284 161.769 35.5649 162.273 35.5687C163.338 35.5687 164.257 35.7713 165.029 36.1785C165.8 36.5858 166.396 37.146 166.817 37.8622C167.238 38.5635 167.448 39.3555 167.448 40.2397V46.6147H164.166V40.3447C164.166 39.9945 164.075 39.6787 163.893 39.3982C163.725 39.1049 163.486 38.8587 163.198 38.6827C162.894 38.4978 162.544 38.4028 162.188 38.409C161.809 38.409 161.466 38.5005 161.157 38.6827C160.869 38.8585 160.63 39.1047 160.463 39.3982C160.293 39.6843 160.205 40.0119 160.21 40.3447V46.6147H156.949V40.3447C156.949 39.9945 156.858 39.6787 156.675 39.3982C156.505 39.1006 156.258 38.8537 155.96 38.6827C155.656 38.4978 155.306 38.4028 154.95 38.409C154.571 38.409 154.227 38.5005 153.919 38.6827C153.631 38.8585 153.392 39.1047 153.225 39.3982C153.055 39.6845 152.967 40.012 152.972 40.3447V46.6147H149.711ZM142.578 46.8675C141.47 46.8675 140.508 46.6575 139.695 46.236C138.896 45.801 138.279 45.219 137.844 44.49C137.409 43.7467 137.191 42.9255 137.191 42.0278V35.8207H140.453V41.9437C140.453 42.3225 140.544 42.6735 140.726 42.996C140.908 43.3042 141.154 43.557 141.462 43.7535C141.785 43.9357 142.15 44.0272 142.557 44.0272C142.95 44.0272 143.3 43.9357 143.609 43.7535C143.931 43.557 144.184 43.3042 144.366 42.996C144.549 42.6735 144.64 42.3225 144.64 41.9437V35.8207H147.901V42.0278C147.901 42.9255 147.69 43.7467 147.27 44.49C146.849 45.219 146.239 45.8017 145.44 46.236C144.654 46.6567 143.7 46.8675 142.578 46.8675ZM126.686 46.6147V44.0272H131.883C132.024 44.0272 132.15 43.9987 132.262 43.9425C132.374 43.8727 132.465 43.7812 132.535 43.6695C132.604 43.559 132.64 43.4314 132.64 43.3012C132.64 43.1711 132.604 43.0435 132.535 42.933C132.47 42.8248 132.375 42.7373 132.262 42.6802C132.149 42.6098 132.017 42.5734 131.883 42.5752H129.99C129.288 42.5752 128.649 42.4627 128.075 42.2385C127.529 42.0124 127.061 41.6322 126.728 41.1442C126.405 40.6395 126.244 39.987 126.244 39.1875C126.244 38.5702 126.391 38.0092 126.686 37.5045C126.993 37.0013 127.419 36.5818 127.927 36.2835C128.458 35.9757 129.061 35.8159 129.674 35.8207H134.871V38.43H130.179C129.992 38.4263 129.812 38.4942 129.674 38.6197C129.612 38.6799 129.564 38.7519 129.531 38.8315C129.499 38.9111 129.483 38.9965 129.484 39.0825C129.484 39.279 129.548 39.447 129.674 39.5872C129.812 39.7128 129.992 39.7807 130.179 39.777H132.03C132.816 39.777 133.489 39.8962 134.05 40.134C134.625 40.359 135.067 40.7235 135.376 41.229C135.699 41.7337 135.86 42.3855 135.86 43.185C135.86 43.8165 135.699 44.3917 135.376 44.91C135.07 45.4266 134.635 45.8546 134.113 46.152C133.594 46.461 133.005 46.6147 132.346 46.6147H126.686ZM119.58 35.5687C120.492 35.5687 121.299 35.7157 122 36.0105C122.689 36.2731 123.308 36.6906 123.81 37.2308C124.321 37.76 124.715 38.3909 124.967 39.0825C125.233 39.7837 125.367 40.5623 125.367 41.418C125.367 42.4837 125.142 43.431 124.693 44.2582C124.278 45.0511 123.652 45.7137 122.884 46.173C122.112 46.6357 121.215 46.8675 120.191 46.8675C119.756 46.8675 119.342 46.8112 118.949 46.6995C118.577 46.5901 118.223 46.4268 117.897 46.215C117.591 46.0071 117.327 45.7429 117.119 45.4365H117.055V51.1815H113.794V41.4172C113.794 40.2247 114.033 39.1935 114.51 38.3243C114.972 37.4686 115.674 36.7665 116.529 36.3038C117.399 35.8133 118.416 35.568 119.58 35.568V35.5687ZM119.58 38.388C119.076 38.388 118.634 38.514 118.255 38.7667C117.89 39.0052 117.609 39.342 117.413 39.777C117.217 40.197 117.119 40.6747 117.119 41.2072C117.119 41.7405 117.217 42.2175 117.413 42.6382C117.609 43.059 117.89 43.3957 118.255 43.6485C118.634 43.887 119.076 44.0062 119.58 44.0062C120.085 44.0062 120.52 43.8862 120.885 43.6485C121.252 43.394 121.543 43.0449 121.727 42.6382C121.937 42.2175 122.042 41.7405 122.042 41.2072C122.042 40.6747 121.937 40.1977 121.727 39.777C121.53 39.342 121.25 39.0045 120.885 38.7667C120.52 38.514 120.085 38.388 119.58 38.388ZM108.838 46.6147V35.8207H112.121V46.6147H108.838ZM110.479 34.6005C109.96 34.6005 109.512 34.4115 109.133 34.0327C108.754 33.654 108.564 33.2048 108.564 32.6858C108.564 32.1668 108.754 31.7183 109.133 31.3395C109.512 30.9465 109.96 30.75 110.479 30.75C110.998 30.75 111.447 30.9465 111.826 31.3395C112.205 31.7183 112.394 32.1668 112.394 32.6858C112.394 33.2048 112.205 33.6532 111.826 34.0327C111.447 34.4115 110.998 34.6005 110.479 34.6005ZM101.704 46.8675C100.596 46.8675 99.6005 46.6222 98.7162 46.131C97.8488 45.6555 97.1229 44.9586 96.6125 44.1112C96.1077 43.2555 95.855 42.2947 95.855 41.2282C95.855 40.1482 96.1077 39.1875 96.6125 38.346C97.1229 37.4987 97.8488 36.8017 98.7162 36.3262C99.6005 35.8207 100.596 35.5687 101.704 35.5687C102.813 35.5687 103.801 35.8207 104.671 36.3262C105.536 36.7984 106.255 37.4965 106.754 38.346C107.273 39.1875 107.532 40.1482 107.532 41.2282C107.532 42.2947 107.273 43.2555 106.754 44.1112C106.255 44.9607 105.536 45.6588 104.671 46.131C103.788 46.6222 102.798 46.8675 101.704 46.8675ZM101.704 44.0272C102.223 44.0272 102.672 43.9005 103.051 43.6485C103.43 43.396 103.735 43.0474 103.935 42.6382C104.145 42.2175 104.25 41.7405 104.25 41.2072C104.25 40.6882 104.145 40.2187 103.935 39.7972C103.735 39.3884 103.43 39.04 103.051 38.7877C102.672 38.535 102.223 38.409 101.704 38.409C101.185 38.409 100.729 38.535 100.337 38.7877C99.958 39.0402 99.6528 39.3889 99.4527 39.798C99.2384 40.2367 99.1305 40.7198 99.1377 41.208C99.1377 41.7405 99.2427 42.2175 99.4527 42.6382C99.6529 43.0473 99.958 43.396 100.337 43.6485C100.729 43.9005 101.185 44.0272 101.704 44.0272ZM85.256 50.8867V48.0877H90.6417C90.8525 48.0877 91.028 48.018 91.1682 47.8777C91.2366 47.8173 91.2909 47.7426 91.3271 47.6589C91.3634 47.5751 91.3809 47.4845 91.3782 47.3932V45.0157H91.3152C91.0488 45.3256 90.745 45.6012 90.4107 45.8362C90.1017 46.0612 89.7507 46.2292 89.3585 46.3417C88.941 46.4591 88.5088 46.5156 88.0752 46.5097C87.1212 46.5097 86.2655 46.2847 85.508 45.8362C84.7647 45.3735 84.1752 44.7352 83.7402 43.9215C83.3202 43.1085 83.1095 42.1822 83.1095 41.1442C83.1095 40.1205 83.327 39.1875 83.762 38.346C84.2105 37.5045 84.863 36.831 85.7187 36.3262C86.5737 35.8207 87.6192 35.5687 88.8537 35.5687C90.032 35.5687 91.049 35.814 91.9047 36.3052C92.7641 36.7717 93.4666 37.4813 93.9245 38.3453C94.4015 39.2153 94.64 40.2397 94.64 41.418V47.73C94.64 48.6975 94.3527 49.4625 93.7775 50.0235C93.2165 50.5987 92.438 50.886 91.442 50.886L85.256 50.8867ZM88.8747 43.7745C89.3795 43.7745 89.8145 43.662 90.1797 43.4377C90.5401 43.2037 90.8306 42.8767 91.0205 42.4913C91.22 42.0855 91.3209 41.6384 91.3152 41.1862C91.3152 40.6815 91.2177 40.2187 91.0212 39.798C90.8247 39.3772 90.5442 39.0472 90.179 38.8088C89.8145 38.556 89.3795 38.43 88.874 38.43C88.3835 38.43 87.9485 38.5492 87.5697 38.7877C87.2052 39.0262 86.9247 39.3487 86.7282 39.7552C86.5325 40.1625 86.4342 40.6177 86.4342 41.1232C86.4342 41.6145 86.5317 42.063 86.7282 42.4703C86.9247 42.8625 87.2052 43.1782 87.5705 43.4167C87.9485 43.6552 88.3835 43.7745 88.8747 43.7745ZM76.4802 46.8675C75.3725 46.8675 74.3765 46.6222 73.493 46.131C72.6252 45.6557 71.8991 44.9587 71.3885 44.1112C70.8837 43.2555 70.631 42.2947 70.631 41.2282C70.631 40.1482 70.8837 39.1875 71.3885 38.346C71.8991 37.4985 72.6252 36.8016 73.493 36.3262C74.3765 35.8207 75.3725 35.5687 76.4802 35.5687C77.5887 35.5687 78.5772 35.8207 79.4472 36.3262C80.3115 36.7985 81.0314 37.4966 81.53 38.346C82.049 39.1875 82.3085 40.1482 82.3085 41.2282C82.3085 42.2947 82.049 43.2555 81.53 44.1112C81.0314 44.9607 80.3115 45.6587 79.4472 46.131C78.5637 46.6222 77.5745 46.8675 76.4802 46.8675ZM76.4802 44.0272C76.9992 44.0272 77.4477 43.9005 77.8272 43.6485C78.2059 43.3959 78.5108 43.0472 78.7107 42.6382C78.9207 42.2175 79.0257 41.7405 79.0257 41.2072C79.0257 40.6882 78.9207 40.2187 78.7107 39.7972C78.5107 39.3885 78.2058 39.0402 77.8272 38.7877C77.4485 38.535 76.9992 38.409 76.4802 38.409C75.9612 38.409 75.5052 38.535 75.113 38.7877C74.734 39.0402 74.4288 39.3889 74.2287 39.798C74.0145 40.2367 73.9065 40.7198 73.9137 41.208C73.9137 41.7405 74.0187 42.2175 74.2287 42.6382C74.4289 43.0473 74.734 43.396 75.113 43.6485C75.5052 43.9005 75.9612 44.0272 76.4802 44.0272ZM66.0357 46.6147C65.1237 46.6147 64.3242 46.4122 63.6372 46.005C62.9691 45.6176 62.4169 45.0582 62.0382 44.385C61.6595 43.7115 61.4697 42.9675 61.4697 42.1545V31.8863H65.0045V42.4065C65.0045 42.744 65.1245 43.038 65.3622 43.2907C65.6007 43.5427 65.8947 43.6695 66.2457 43.6695H70.1382V46.6147H66.0357Z" fill="#14424C"/>
</g>
<defs>
<clipPath id="clip0_2578_54456">
<rect width="140.25" height="30" fill="white" transform="translate(27.375 24)"/>
</clipPath>
</defs>
</svg>
