<svg width="66" height="66" viewBox="0 0 66 66" fill="none" xmlns="http://www.w3.org/2000/svg">
<path fill-rule="evenodd" clip-rule="evenodd" d="M43.664 65.5C42.6906 65.5 41.7174 65.5 40.7441 65.5C39.6161 65.08 39.2012 64.2513 39.2318 63.0744C39.2777 61.3193 39.2416 59.5623 39.2442 57.806C39.2498 53.9204 41.2308 51.1181 44.9073 49.8251C45.2356 49.7096 45.3829 49.5798 45.3774 49.2122C45.3571 47.7948 45.3583 46.3769 45.3764 44.9595C45.3812 44.5835 45.2327 44.4577 44.8812 44.3839C43.4341 44.0802 41.9916 43.7538 40.5528 43.413C40.1572 43.3192 39.9555 43.4396 39.7509 43.7849C38.1241 46.5312 36.4779 49.2657 34.8329 52.0013C33.8018 53.7161 32.1977 53.7153 31.1666 52.0008C29.5214 49.2654 27.8735 46.5317 26.2446 43.7868C26.0409 43.4435 25.844 43.3212 25.4433 43.4174C24.0262 43.7577 22.6063 44.0912 21.1763 44.3715C20.7084 44.4631 20.6198 44.6679 20.6224 45.0913C20.6378 47.7783 20.6413 50.4657 20.6197 53.1527C20.6158 53.6352 20.7443 53.8761 21.2081 54.0994C23.4748 55.1905 24.7059 57.0413 24.6859 59.5477C24.6654 62.1065 23.379 63.9537 21.0353 65.0155C20.5619 65.23 20.0415 65.341 19.543 65.4997C18.9928 65.4997 18.4427 65.4997 17.8926 65.4997C17.8186 65.4643 17.7483 65.4127 17.6704 65.3959C15.0374 64.8337 13.0982 62.8277 12.8092 60.363C12.4788 57.5448 13.7911 55.203 16.4121 54.0159C16.7913 53.8441 16.8258 53.6166 16.825 53.2812C16.8184 50.8481 16.8223 48.4152 16.8199 45.9823C16.8197 45.7993 16.7977 45.6163 16.7811 45.36C16.1099 45.5112 15.4981 45.6544 14.8839 45.7861C11.5973 46.4912 9.45335 48.4658 8.39375 51.6363C7.06836 55.6027 5.73519 59.5665 4.4445 63.5442C4.16297 64.4118 3.76412 65.1144 2.91207 65.4995C2.57349 65.4995 2.2349 65.4995 1.89649 65.4995C1.26114 65.2039 0.808111 64.7258 0.5 64.103C0.5 63.7644 0.5 63.426 0.5 63.0874C0.584477 62.9 0.686052 62.7184 0.750891 62.5247C2.10387 58.4805 3.4384 54.4302 4.80628 50.391C6.35462 45.8193 9.53122 43.0585 14.2279 42.0172C17.6286 41.263 21.0267 40.4956 24.4318 39.7615C24.8797 39.665 25.0084 39.4937 24.9965 39.0503C24.9654 37.8881 24.9541 36.7232 24.9999 35.5621C25.0218 35.0065 24.8317 34.7144 24.3658 34.4089C19.7905 31.4073 17.1956 27.1774 16.8861 21.7021C16.7144 18.6667 16.825 15.6142 16.847 12.5697C16.8605 10.7156 17.4803 9.03824 18.5983 7.56997C21.0475 4.35342 24.2137 2.16854 28.1345 1.13518C29.1887 0.857545 30.2769 0.708229 31.3496 0.5C32.4498 0.5 33.5502 0.5 34.6504 0.5C34.7679 0.536736 34.8834 0.594804 35.0034 0.607331C39.9406 1.12299 43.9554 3.34292 47.0947 7.16587C48.3814 8.73267 49.1349 10.5294 49.1508 12.5697C49.175 15.6984 49.1599 18.8281 49.1156 21.9566C49.1049 22.7101 48.9656 23.4729 48.7965 24.211C47.7739 28.6748 45.3062 32.1219 41.4262 34.5519C41.1258 34.7402 40.9982 34.9445 41.0051 35.309C41.0288 36.5561 41.0332 37.8045 41.0041 39.0515C40.9938 39.4937 41.1196 39.6594 41.5702 39.757C45.1609 40.533 48.757 41.2909 52.3265 42.1572C56.5011 43.1704 59.4331 45.7165 60.9445 49.7421C62.0124 52.5861 62.89 55.5013 63.8646 58.3804C64.3971 59.9538 64.9544 61.5189 65.5005 63.0878C65.5005 63.4263 65.5005 63.7648 65.5005 64.1033C65.035 64.5689 64.5694 65.0343 64.104 65.4998C63.7654 65.4998 63.4268 65.4998 63.0883 65.4998C62.234 65.1169 61.8379 64.4131 61.5565 63.5457C60.2662 59.5695 58.9711 55.5935 57.5822 51.6514C57.1969 50.5576 56.6088 49.4813 55.8952 48.5676C54.2265 46.4306 51.8019 45.7538 49.1791 45.4072C49.1791 46.6764 49.2019 47.8797 49.1676 49.0814C49.1542 49.549 49.3257 49.7169 49.7541 49.8703C52.9817 51.0255 54.904 53.3123 55.2208 56.7288C55.4151 58.8267 55.2665 60.9545 55.3223 63.0678C55.3533 64.2388 54.9475 65.0752 53.8209 65.5C52.8476 65.5 51.8742 65.5 50.9009 65.5C50.7366 65.4121 50.5671 65.3326 50.4088 65.2352C49.7587 64.8354 49.4354 64.2516 49.4746 63.4873C49.5127 62.7465 49.886 62.2049 50.5468 61.8892C50.8253 61.7561 51.1459 61.7114 51.4667 61.621C51.4667 60.1118 51.5666 58.5851 51.4432 57.077C51.2622 54.8647 49.4982 53.3086 47.3419 53.277C45.1565 53.245 43.3255 54.7774 43.1199 57.0105C42.9793 58.5369 43.093 60.0867 43.093 61.623C44.5388 61.9484 45.1823 62.6566 45.0778 63.7973C44.9955 64.6874 44.3964 65.1492 43.664 65.5ZM32.9741 33.2013C33.8527 33.0882 34.7415 33.0259 35.6083 32.8532C41.1842 31.7428 45.4096 26.5227 45.3548 20.8244C45.3531 20.6398 45.2242 20.3371 45.0871 20.2913C43.4722 19.7504 42.339 18.5755 41.2239 17.3867C40.8809 17.021 40.6 16.9718 40.1309 17.1461C35.4283 18.8941 30.7042 18.9017 25.9944 17.1888C25.4232 16.9811 25.0927 17.0393 24.691 17.473C23.6111 18.6393 22.4883 19.7597 20.9195 20.2911C20.7744 20.3403 20.6447 20.6781 20.6457 20.8812C20.6757 27.6235 26.2087 33.1173 32.9741 33.2013ZM45.1648 16.0329C45.231 16.0031 45.297 15.9735 45.3631 15.944C45.3631 14.8956 45.3724 13.8472 45.3607 12.7991C45.3473 11.5907 44.9226 10.5314 44.1641 9.59674C41.6837 6.53983 38.4956 4.77225 34.5722 4.39896C29.9197 3.95643 25.951 5.37104 22.586 8.67494C20.4406 10.7814 20.5105 13.3135 20.6994 16.1438C21.6127 15.2106 22.4135 14.3819 23.2263 13.5651C24.1555 12.6313 24.7736 12.5272 25.9569 13.063C30.6577 15.1917 35.3589 15.1952 40.0578 13.0562C41.2212 12.5267 41.8155 12.6172 42.7377 13.5343C43.5611 14.3528 44.357 15.1989 45.1648 16.0329ZM33.0036 47.6507C34.4085 45.3077 35.7437 43.0834 37.0742 40.8563C37.1368 40.7515 37.1951 40.6234 37.1957 40.5057C37.2042 39.1575 37.2011 37.8094 37.2011 36.3936C34.3782 37.1177 31.6098 37.1118 28.8671 36.4138C28.6367 38.8509 28.5859 41.1575 30.2622 43.1294C30.7611 43.7164 31.0794 44.4565 31.4818 45.1255C31.9678 45.9339 32.4556 46.7414 33.0036 47.6507ZM18.7407 57.3552C17.5342 57.3477 16.5601 58.2982 16.5455 59.4976C16.5311 60.6818 17.5132 61.6801 18.7024 61.6896C19.8912 61.6992 20.8861 60.7243 20.9002 59.536C20.9142 58.3488 19.9378 57.3628 18.7407 57.3552Z" fill="#FFAF14"/>
</svg>
