<svg width="195" height="78" viewBox="0 0 195 78" fill="none" xmlns="http://www.w3.org/2000/svg">
<g style="mix-blend-mode:luminosity">
<g clip-path="url(#clip0_2578_54412)">
<path fill-rule="evenodd" clip-rule="evenodd" d="M40.9168 32.764C39.6834 31.9399 38.2334 31.5 36.75 31.5V24C39.7167 24 42.6168 24.8797 45.0835 26.528C47.5503 28.1762 49.4729 30.5189 50.6082 33.2597C51.7435 36.0006 52.0406 39.0167 51.4618 41.9263C50.883 44.8361 49.4544 47.5088 47.3566 49.6066C45.2588 51.7044 42.5861 53.133 39.6763 53.7118C36.7667 54.2906 33.7506 53.9935 31.0097 52.8582C28.2689 51.7229 25.9262 49.8003 24.278 47.3335C22.6297 44.8668 21.75 41.9667 21.75 39H29.25C29.25 40.4834 29.6899 41.9334 30.514 43.1668C31.3381 44.4002 32.5094 45.3614 33.8799 45.9291C35.2503 46.4968 36.7583 46.6453 38.2132 46.3559C39.668 46.0665 41.0044 45.3522 42.0533 44.3033C43.1022 43.2544 43.8165 41.918 44.1059 40.4632C44.3953 39.0083 44.2468 37.5003 43.6791 36.1299C43.1114 34.7594 42.1502 33.5881 40.9168 32.764Z" fill="#007DFC"/>
<path fill-rule="evenodd" clip-rule="evenodd" d="M29.25 24C29.25 24.9849 29.056 25.9602 28.6791 26.8701C28.3022 27.7801 27.7497 28.6069 27.0533 29.3033C26.3569 29.9997 25.5301 30.5522 24.6201 30.9291C23.7102 31.306 22.7349 31.5 21.75 31.5L21.75 39C23.7198 39 25.6704 38.612 27.4903 37.8582C29.3101 37.1044 30.9637 35.9995 32.3566 34.6066C33.7495 33.2138 34.8544 31.5602 35.6082 29.7403C36.362 27.9204 36.75 25.9698 36.75 24L29.25 24Z" fill="#007DFC"/>
<path d="M115.964 34.8398H112.325V46.3991H115.964V34.8398Z" fill="#007DFC"/>
<path d="M112.73 32.6749C113.11 33.0555 113.586 33.2458 114.157 33.2458C114.727 33.2458 115.195 33.0555 115.56 32.6749C115.925 32.2786 116.107 31.8028 116.107 31.2479C116.107 30.6771 115.925 30.2014 115.56 29.8208C115.195 29.4403 114.727 29.25 114.157 29.25C113.586 29.25 113.11 29.4403 112.73 29.8208C112.365 30.2014 112.183 30.6771 112.183 31.2479C112.183 31.8028 112.365 32.2786 112.73 32.6749Z" fill="#007DFC"/>
<path d="M60.1172 46.3983V29.6064H63.8514V43.1161H71.2959V46.3983H60.1172Z" fill="#007DFC"/>
<path fill-rule="evenodd" clip-rule="evenodd" d="M78.021 46.6606C76.8318 46.6606 75.7536 46.399 74.7863 45.8758C73.8349 45.3367 73.0818 44.6073 72.5268 43.6876C71.9718 42.7679 71.6943 41.7373 71.6943 40.5956C71.6943 39.4539 71.9718 38.4312 72.5268 37.5274C73.0818 36.6236 73.8349 35.9101 74.7863 35.3869C75.7377 34.8477 76.8159 34.5781 78.021 34.5781C79.2261 34.5781 80.3043 34.8398 81.2556 35.363C82.207 35.8863 82.9602 36.6078 83.5152 37.5274C84.0702 38.4312 84.3477 39.4539 84.3477 40.5956C84.3477 41.7373 84.0702 42.7679 83.5152 43.6876C82.9602 44.6073 82.207 45.3367 81.2556 45.8758C80.3043 46.399 79.2261 46.6606 78.021 46.6606ZM78.021 43.3546C78.5442 43.3546 79.0041 43.2436 79.4005 43.0216C79.7969 42.7838 80.0982 42.4587 80.3043 42.0465C80.5263 41.6184 80.6373 41.1347 80.6373 40.5956C80.6373 40.0565 80.5263 39.5887 80.3043 39.1923C80.0823 38.7801 79.7731 38.463 79.3767 38.241C78.9961 38.0031 78.5442 37.8842 78.021 37.8842C77.5136 37.8842 77.0617 38.0031 76.6653 38.241C76.2689 38.463 75.9597 38.7801 75.7377 39.1923C75.5157 39.6046 75.4047 40.0803 75.4047 40.6194C75.4047 41.1427 75.5157 41.6184 75.7377 42.0465C75.9597 42.4587 76.2689 42.7838 76.6653 43.0216C77.0617 43.2436 77.5136 43.3546 78.021 43.3546Z" fill="#007DFC"/>
<path fill-rule="evenodd" clip-rule="evenodd" d="M87.229 50.9177C88.1962 51.3617 89.314 51.5837 90.5826 51.5837C91.8193 51.5837 92.9214 51.3379 93.8886 50.8463C94.8559 50.3548 95.6169 49.673 96.1719 48.8009C96.7268 47.9288 97.0047 46.8982 97.0047 45.7089V34.8395H93.4366V35.6161C93.1713 35.3927 92.8699 35.2052 92.5329 35.0535C91.9144 34.7522 91.2088 34.6016 90.4161 34.6016C89.3537 34.6016 88.4102 34.8553 87.5857 35.3627C86.7611 35.8542 86.1111 36.536 85.6354 37.4081C85.1596 38.2644 84.9219 39.2316 84.9219 40.3099C84.9219 41.3723 85.1596 42.3395 85.6354 43.2116C86.1111 44.0837 86.7611 44.7734 87.5857 45.2808C88.4102 45.7882 89.3537 46.0419 90.4161 46.0419C91.193 46.0419 91.8986 45.8913 92.5329 45.59C92.8401 45.4441 93.1176 45.2721 93.3653 45.074V45.8041C93.3653 46.6127 93.1037 47.2391 92.5804 47.6831C92.0731 48.1271 91.3674 48.349 90.4636 48.349C89.7343 48.349 89.1079 48.2222 88.5846 47.9684C88.0773 47.7148 87.6174 47.3421 87.2051 46.8506L84.9694 49.0863C85.5244 49.8791 86.2776 50.4896 87.229 50.9177ZM92.4139 42.4742C92.0492 42.6962 91.6132 42.8072 91.1058 42.8072C90.5984 42.8072 90.1544 42.6962 89.7738 42.4742C89.4091 42.2522 89.1237 41.951 88.9176 41.5704C88.7115 41.174 88.6084 40.7538 88.6084 40.3099C88.6084 39.8342 88.7115 39.4061 88.9176 39.0255C89.1237 38.645 89.4171 38.3437 89.7976 38.1217C90.1782 37.8997 90.6142 37.7887 91.1058 37.7887C91.6132 37.7887 92.0492 37.8997 92.4139 38.1217C92.7945 38.3437 93.0799 38.645 93.2702 39.0255C93.4763 39.4061 93.5794 39.8342 93.5794 40.3099C93.5794 40.7855 93.4763 41.2136 93.2702 41.5942C93.0799 41.9589 92.7945 42.2522 92.4139 42.4742Z" fill="#007DFC"/>
<path fill-rule="evenodd" clip-rule="evenodd" d="M104.663 46.6606C103.473 46.6606 102.395 46.399 101.428 45.8758C100.476 45.3367 99.7234 44.6073 99.1684 43.6876C98.6134 42.7679 98.3359 41.7373 98.3359 40.5956C98.3359 39.4539 98.6134 38.4312 99.1684 37.5274C99.7234 36.6236 100.476 35.9101 101.428 35.3869C102.379 34.8477 103.458 34.5781 104.663 34.5781C105.867 34.5781 106.946 34.8398 107.897 35.363C108.849 35.8863 109.602 36.6078 110.157 37.5274C110.712 38.4312 110.989 39.4539 110.989 40.5956C110.989 41.7373 110.712 42.7679 110.157 43.6876C109.602 44.6073 108.849 45.3367 107.897 45.8758C106.946 46.399 105.867 46.6606 104.663 46.6606ZM104.663 43.3546C105.186 43.3546 105.645 43.2436 106.042 43.0216C106.438 42.7838 106.74 42.4587 106.946 42.0465C107.168 41.6184 107.279 41.1347 107.279 40.5956C107.279 40.0565 107.168 39.5887 106.946 39.1923C106.724 38.7801 106.415 38.463 106.018 38.241C105.638 38.0031 105.186 37.8842 104.663 37.8842C104.155 37.8842 103.703 38.0031 103.307 38.241C102.91 38.463 102.601 38.7801 102.379 39.1923C102.157 39.6046 102.046 40.0803 102.046 40.6194C102.046 41.1427 102.157 41.6184 102.379 42.0465C102.601 42.4587 102.91 42.7838 103.307 43.0216C103.703 43.2436 104.155 43.3546 104.663 43.3546Z" fill="#007DFC"/>
<path fill-rule="evenodd" clip-rule="evenodd" d="M124.711 46.6365C123.935 46.6365 123.221 46.4859 122.571 46.1846C122.229 46.0261 121.92 45.8368 121.644 45.6167V51.2745H118.052V34.8395H121.691V35.6372C121.955 35.4213 122.248 35.2346 122.571 35.0773C123.221 34.7601 123.935 34.6016 124.711 34.6016C125.805 34.6016 126.773 34.8632 127.613 35.3865C128.469 35.9097 129.135 36.6233 129.611 37.5271C130.103 38.4309 130.348 39.4616 130.348 40.619C130.348 41.7766 130.103 42.8072 129.611 43.7111C129.135 44.6149 128.469 45.3284 127.613 45.8516C126.773 46.3749 125.805 46.6365 124.711 46.6365ZM124.046 43.3543C124.569 43.3543 125.021 43.2353 125.401 42.9975C125.798 42.7597 126.107 42.4346 126.329 42.0224C126.551 41.6101 126.662 41.1423 126.662 40.619C126.662 40.0799 126.551 39.6043 126.329 39.192C126.107 38.7797 125.798 38.4626 125.401 38.2406C125.021 38.0027 124.577 37.8839 124.069 37.8839C123.562 37.8839 123.11 38.0027 122.714 38.2406C122.333 38.4626 122.032 38.7797 121.81 39.192C121.588 39.6043 121.477 40.0799 121.477 40.619C121.477 41.1423 121.58 41.6101 121.786 42.0224C122.008 42.4346 122.317 42.7597 122.714 42.9975C123.11 43.2353 123.554 43.3543 124.046 43.3543Z" fill="#007DFC"/>
<path d="M133.909 46.4228C134.575 46.5973 135.249 46.6844 135.93 46.6844C137.373 46.6844 138.515 46.3515 139.356 45.6855C140.211 45.0196 140.64 44.1237 140.64 42.9979C140.64 42.2685 140.505 41.6818 140.235 41.2379C139.966 40.778 139.617 40.4133 139.189 40.1438C138.761 39.8742 138.309 39.6601 137.833 39.5015C137.358 39.343 136.905 39.2082 136.478 39.0972C136.05 38.9862 135.701 38.8594 135.431 38.7167C135.162 38.5739 135.027 38.3837 135.027 38.1458C135.027 37.9238 135.13 37.7573 135.336 37.6463C135.542 37.5195 135.851 37.4561 136.263 37.4561C136.692 37.4561 137.127 37.5433 137.571 37.7177C138.031 37.8921 138.444 38.1935 138.808 38.6216L140.877 36.5285C140.355 35.8625 139.673 35.363 138.832 35.0301C138.008 34.6813 137.104 34.5068 136.121 34.5068C135.186 34.5068 134.369 34.6654 133.671 34.9825C132.973 35.2997 132.434 35.7357 132.054 36.2906C131.673 36.8297 131.483 37.472 131.483 38.2172C131.483 38.9149 131.618 39.4937 131.887 39.9535C132.156 40.3974 132.506 40.7463 132.933 41C133.362 41.2537 133.814 41.4519 134.289 41.5946C134.765 41.7373 135.217 41.8721 135.645 41.999C136.073 42.11 136.422 42.2447 136.692 42.4033C136.977 42.546 137.12 42.7601 137.12 43.0454C137.12 43.2674 137.001 43.4418 136.763 43.5687C136.541 43.6955 136.216 43.759 135.788 43.759C135.169 43.759 134.598 43.648 134.076 43.426C133.552 43.1882 133.1 42.8631 132.72 42.4508L130.65 44.5439C131.047 44.972 131.523 45.3526 132.078 45.6855C132.648 46.0026 133.259 46.2484 133.909 46.4228Z" fill="#007DFC"/>
<path d="M147.276 46.6607C146.214 46.6607 145.271 46.4466 144.446 46.0185C143.637 45.5745 143.003 44.972 142.544 44.2109C142.083 43.4339 141.854 42.546 141.854 41.547V34.8398H145.493V41.4995C145.493 41.8958 145.556 42.2368 145.683 42.5222C145.826 42.8076 146.032 43.0296 146.301 43.1882C146.571 43.3467 146.896 43.426 147.276 43.426C147.815 43.426 148.244 43.2595 148.561 42.9265C148.878 42.5777 149.036 42.102 149.036 41.4995V34.8398H152.675V41.5232C152.675 42.5381 152.446 43.4339 151.985 44.2109C151.526 44.972 150.892 45.5745 150.083 46.0185C149.274 46.4466 148.339 46.6607 147.276 46.6607Z" fill="#007DFC"/>
<path d="M158.123 34.8395H154.484V46.3987H158.123V39.6439C158.123 39.2475 158.203 38.9145 158.361 38.645C158.536 38.3754 158.766 38.1692 159.051 38.0266C159.337 37.868 159.662 37.7887 160.026 37.7887C160.55 37.7887 160.985 37.9552 161.334 38.2882C161.699 38.6053 161.882 39.0572 161.882 39.6439V46.3987H165.521V39.6439C165.521 39.2475 165.6 38.9145 165.758 38.645C165.933 38.3754 166.163 38.1692 166.448 38.0266C166.733 37.868 167.059 37.7887 167.423 37.7887C167.947 37.7887 168.383 37.9552 168.731 38.2882C169.096 38.6053 169.278 39.0572 169.278 39.6439V46.3987H172.918V39.2396C172.918 38.2724 172.712 37.4478 172.299 36.766C171.902 36.0683 171.356 35.5371 170.658 35.1725C169.976 34.7918 169.191 34.6016 168.303 34.6016C167.399 34.6016 166.583 34.7998 165.854 35.1962C165.38 35.4488 164.966 35.7747 164.611 36.174C164.28 35.7563 163.878 35.4146 163.403 35.1486C162.77 34.784 162.048 34.6016 161.24 34.6016C160.383 34.6016 159.614 34.784 158.933 35.1486C158.636 35.3003 158.366 35.4821 158.123 35.6938V34.8395Z" fill="#007DFC"/>
</g>
</g>
<defs>
<clipPath id="clip0_2578_54412">
<rect width="151.5" height="30" fill="white" transform="translate(21.75 24)"/>
</clipPath>
</defs>
</svg>
