<svg width="180" height="189" viewBox="0 0 180 189" fill="none" xmlns="http://www.w3.org/2000/svg">
<g clip-path="url(#clip0_908_158491)">
<path d="M125.037 97.0671C120.852 95.4795 119.357 91.452 119.722 87.0736C123.21 83.3637 127.479 80.4392 131.698 77.5816C135.485 75.008 139.356 72.3843 143.741 71.0975C151.963 68.6911 160.733 71.2312 168.906 73.7714C171.995 74.7239 175.367 75.9439 177.776 77.9826C172.709 99.5069 144.023 105.339 125.037 97.0671Z" fill="#DBF2FF"/>
<path d="M114.756 95.0615C115.487 92.4211 117.048 90.0815 118.842 88.0093C119.124 87.6917 119.423 87.3742 119.722 87.0567C119.357 91.4351 120.868 95.4625 125.038 97.0501C144.023 105.322 172.71 99.5067 177.776 77.9824C179.071 79.0854 180.085 80.4056 180.649 82.06C181.762 85.419 180.467 89.2125 178.175 91.8863C175.882 94.5601 172.726 96.3148 169.554 97.8523C157.079 103.885 143.392 107.344 129.572 107.879C124.406 108.08 118.377 107.411 115.636 102.999C114.174 100.693 114.008 97.7019 114.756 95.0615Z" fill="#B7E1FB"/>
<path d="M93.4945 86.5888C93.5111 91.2346 88.2788 100.225 85.9201 105.239C80.9536 115.8 88.8104 136.756 80.555 144.995C78.3956 147.151 75.5054 148.321 72.6816 149.44C61.4031 153.936 50.1412 158.414 38.8627 162.91C31.2717 140.349 26.5211 116.82 24.777 93.0561C23.8634 80.5059 23.7803 67.7718 26.3882 55.4555C28.996 43.1392 34.4443 31.2072 43.3475 22.3669C47.7327 18.022 54.2107 14.3287 59.7919 16.9023C65.0075 19.3087 66.652 25.7928 68.0307 31.3911C72.4657 49.2723 71.9839 49.7402 82.9801 64.4964C87.3985 70.3621 93.4613 79.169 93.4945 86.5888Z" fill="#0A72F0"/>
<path d="M24.9098 60.5195L12.5682 116.519C8.66477 100.476 4.99385 84.2999 2.80127 67.9561C3.76468 68.2235 4.81114 68.4073 5.95726 68.5076C12.9337 69.7777 19.4782 66.0844 24.9098 60.5195Z" fill="#0855B3"/>
<path d="M7.08672 15.7C13.2492 5.53946 26.6373 -1.04483 37.351 4.03543L24.9098 60.52C19.4781 66.0849 12.9502 69.7781 5.95721 68.4913C4.81109 68.391 3.76463 68.2072 2.80122 67.9398C2.02053 62.0908 1.42255 56.2251 1.09034 50.3427C0.409313 38.4609 0.940848 25.8772 7.08672 15.7Z" fill="#0A72F0"/>
<path d="M164.77 87.0072C161.697 89.5975 158.474 91.419 155.983 92.4719C154.737 93.0066 153.69 93.3743 152.943 93.6082C152.212 93.8422 151.78 93.9759 151.78 93.9759C151.78 93.9759 152.229 93.9926 152.993 94.0093C153.774 94.0093 154.92 93.9592 156.332 93.7085C159.122 93.2406 163.009 91.8535 166.398 88.9792C169.819 86.1215 171.862 82.5286 172.776 79.8046C173.241 78.4176 173.307 77.1475 173.092 76.3454C172.992 75.9443 172.842 75.6602 172.743 75.4764C172.626 75.3093 172.56 75.209 172.56 75.209C172.56 75.209 172.726 75.6268 172.693 76.3788C172.66 77.1308 172.311 78.1335 171.613 79.2699C170.201 81.5593 167.843 84.4337 164.77 87.0072Z" fill="#B7E1FB"/>
<path d="M138.907 90.3653C136.349 89.9642 134.007 89.2122 132.296 87.9756C130.552 86.7556 129.622 85.0678 129.439 83.3967C129.223 81.7589 129.672 80.3719 130.22 79.5865C130.486 79.1854 130.751 78.9013 130.951 78.7342C131.15 78.5671 131.25 78.4668 131.25 78.4668C131.25 78.4668 131.117 78.5336 130.884 78.6339C130.635 78.7509 130.286 78.9514 129.904 79.3191C129.107 80.0042 128.243 81.4414 128.144 83.4301C128.094 84.4161 128.227 85.519 128.692 86.6387C129.157 87.775 129.938 88.7777 130.934 89.6634C132.927 91.4181 135.668 92.4375 138.475 92.8887C144.14 93.8413 149.339 92.6046 152.661 91.1173C154.338 90.382 155.617 89.63 156.448 89.0618C157.295 88.4936 157.727 88.1427 157.727 88.1427C157.727 88.1427 157.195 88.3432 156.265 88.6942C155.335 89.0451 153.956 89.4796 152.245 89.8974C148.874 90.733 144.04 91.2176 138.907 90.3653Z" fill="#B7E1FB"/>
<path d="M153.226 81.2088C151.266 81.8773 149.322 82.2784 147.512 82.4622C145.684 82.646 144.057 82.6961 142.844 82.2784C141.615 81.9107 140.834 81.0417 140.502 80.3565C140.336 80.0056 140.253 79.7048 140.22 79.5043C140.203 79.287 140.186 79.1868 140.186 79.1868C140.186 79.1868 140.153 79.287 140.12 79.5043C140.087 79.7215 140.053 80.0557 140.12 80.4902C140.253 81.3258 140.867 82.6126 142.296 83.4649C143.708 84.3172 145.618 84.6012 147.578 84.6514C149.588 84.7015 151.814 84.4174 154.023 83.6654C156.199 82.9468 158.358 81.7603 159.687 79.922C161.016 78.1172 161.298 75.8779 160.634 74.2903C159.953 72.7027 158.69 72.0176 157.877 71.817C157.461 71.7168 157.129 71.7335 156.913 71.7335C156.697 71.7669 156.581 71.7836 156.581 71.7836C156.581 71.7836 157.063 71.8003 157.727 72.1847C158.375 72.569 159.189 73.438 159.405 74.658C159.621 75.8612 159.122 77.3652 158.009 78.535C156.93 79.7048 155.202 80.5404 153.226 81.2088Z" fill="#B7E1FB"/>
<path d="M40.7393 146.867C37.4836 144.077 37.5169 139.063 37.9155 134.768C41.2874 97.1844 50.0246 60.1018 63.7946 25.0078C79.3587 74.4903 61.4692 90.5165 61.2865 124.357C61.2532 130.323 72.5982 138.294 68.6615 142.773C64.4092 147.603 57.2999 148.371 50.9049 148.806C47.3503 149.073 43.4302 149.19 40.7393 146.867Z" fill="#0855B3"/>
<path d="M137.811 95.48C133.625 94.6778 130.054 92.9733 127.762 91.2353C126.615 90.383 125.752 89.5641 125.204 88.9458C124.639 88.3442 124.356 87.9766 124.356 87.9766C124.356 87.9766 124.506 88.4111 124.888 89.1798C125.253 89.9485 125.901 91.018 126.914 92.1878C128.891 94.5441 132.645 97.1177 137.346 98.0034C142.03 98.8891 146.282 98.1538 149.156 97.4185C152.063 96.6498 153.757 95.8978 153.757 95.8978C153.757 95.8978 151.814 95.998 148.973 96.1317C146.033 96.2487 142.013 96.2821 137.811 95.48Z" fill="white"/>
<path d="M135.552 82.5444C134.921 81.6921 134.389 80.773 134.057 79.9374C133.725 79.1185 133.592 78.4668 133.592 78.4668C133.592 78.4668 133.093 78.918 132.778 79.9541C132.446 80.9568 132.446 82.6446 133.492 84.0818C134.555 85.5023 136.15 86.0036 137.196 85.9702C138.276 85.9702 138.841 85.6193 138.841 85.6193C138.841 85.6193 138.259 85.3018 137.578 84.7503C136.897 84.1821 136.183 83.3967 135.552 82.5444Z" fill="white"/>
<path d="M45.9549 155.724C48.4797 142.238 51.4197 129.772 55.1903 116.586C63.0803 88.9121 67.9139 74.4902 65.8044 41.1175C65.2563 32.5112 65.8542 11.2877 59.5755 5.43871C52.3001 -1.3294 40.4236 -0.945042 31.9356 4.16865C23.4477 9.28233 24.5274 21.5318 21.471 30.9904C12.9333 57.4112 9.362 75.2088 10.2424 98.0867C11.1227 120.948 7.784 139.715 12.1526 162.158C13.2488 167.823 15.5909 173.037 17.5676 178.435C21.3382 188.696 26.4376 186.824 32.0519 185.738C37.8324 184.618 41.7857 178.987 43.3803 173.288C44.9915 167.606 44.8586 161.557 45.9549 155.724Z" fill="#FFCCB8"/>
<path d="M21.5212 186.556C20.0761 183.899 21.1392 177.716 22.0195 174.825C26.1888 161.121 35.5405 149.474 46.52 140.316C57.4995 131.175 97.3813 121.064 109.906 114.212C119.257 109.099 117.663 105.489 121.134 101.445C123.742 98.4035 132.828 95.7463 136.416 93.3733C139.057 91.6353 147.844 80.8732 151.017 83.9648C155.319 87.6246 142.828 93.2563 140.12 97.4676C137.695 101.211 137.595 103.785 138.476 105.355C140.054 107.261 142.894 105.706 147.927 104.002C150.601 103.099 152.595 103.35 157.827 101.579C167.079 98.4536 176.148 90.4655 176.264 92.7216C176.896 94.7938 174.105 97.1668 171.182 100.375C166.664 103.534 161.381 106.776 154.405 110.051C144.09 114.898 134.539 119.51 130.719 121.114C94.8399 136.171 73.2629 177.749 35.474 186.907C30.6404 188.06 23.9297 190.951 21.5212 186.556Z" fill="#FFCCB8"/>
<path d="M166.248 83.2308C164.438 85.9046 161.78 87.0577 160.019 87.6426C158.209 88.2108 157.046 88.3612 157.046 88.3612C157.046 88.3612 158.076 87.5758 159.454 86.523C160.9 85.4033 162.826 83.8993 164.188 81.8438C164.869 80.8244 165.335 79.7716 165.55 78.7522C165.75 77.7328 165.717 76.7468 165.534 75.9279C165.351 75.1091 165.019 74.4573 164.737 74.0228C164.454 73.6051 164.255 73.3711 164.255 73.3711C164.255 73.3711 164.537 73.4546 165.002 73.7387C165.467 74.0228 166.115 74.5409 166.663 75.4266C167.212 76.2956 167.643 77.5155 167.643 78.9527C167.627 80.3732 167.128 81.9106 166.248 83.2308Z" fill="white"/>
<path d="M84.5742 116.536C84.1257 116.536 83.6773 116.336 83.3949 115.951C82.8966 115.3 83.0128 114.347 83.6773 113.846C84.5078 113.211 85.3549 112.509 86.2187 111.757C86.8499 111.222 87.7967 111.289 88.3282 111.924C88.8597 112.559 88.7933 113.495 88.1621 114.046C87.2485 114.832 86.3515 115.567 85.4878 116.235C85.2054 116.436 84.8898 116.536 84.5742 116.536ZM92.6303 109.25C92.2483 109.25 91.8662 109.1 91.5838 108.816C91.0025 108.231 90.9859 107.278 91.5672 106.693C93.3113 104.922 95.0222 103.033 96.5504 101.229C97.0819 100.594 98.0287 100.51 98.6599 101.062C99.2911 101.596 99.3575 102.549 98.826 103.184C97.2646 105.039 95.4873 106.977 93.6934 108.799C93.3944 109.1 93.0123 109.25 92.6303 109.25ZM102.248 97.7527C101.949 97.7527 101.65 97.6691 101.401 97.4853C100.72 97.0174 100.554 96.0815 101.019 95.3964C102.53 93.2072 103.793 91.1015 104.756 89.1463C105.121 88.3943 106.018 88.0935 106.766 88.4611C107.513 88.8288 107.812 89.7312 107.447 90.4832C106.417 92.5888 105.088 94.8115 103.494 97.1176C103.195 97.5354 102.729 97.7527 102.248 97.7527ZM108.493 84.2164C108.427 84.2164 108.344 84.2164 108.261 84.1997C107.447 84.0827 106.882 83.314 106.998 82.4952C107.098 81.8601 107.148 81.2418 107.148 80.6569C107.148 80.2558 107.131 79.8548 107.081 79.4537C106.882 77.816 106.65 76.6796 106.367 75.7605C106.118 74.975 106.55 74.1227 107.331 73.8721C108.111 73.6214 108.958 74.0559 109.208 74.8413C109.556 75.9276 109.822 77.2478 110.055 79.086C110.121 79.6041 110.154 80.1388 110.154 80.6736C110.154 81.4089 110.088 82.1776 109.972 82.9631C109.855 83.6817 109.208 84.2164 108.493 84.2164ZM103.61 70.6468C103.195 70.6468 102.779 70.4797 102.497 70.1454C100.902 68.3406 99.2081 66.6527 97.3311 65.015C96.6999 64.4636 96.6334 63.5277 97.1816 62.8927C97.7297 62.2576 98.6599 62.1908 99.2911 62.7423C101.284 64.4803 103.062 66.2517 104.739 68.1568C105.287 68.7751 105.221 69.7276 104.606 70.2791C104.307 70.5298 103.959 70.6468 103.61 70.6468ZM92.3811 60.7703C92.0822 60.7703 91.7832 60.6868 91.5174 60.503C89.7567 59.2496 87.996 58.0798 86.2685 56.9434L85.3383 56.3251C84.6573 55.8739 84.4579 54.9381 84.9064 54.2362C85.3549 53.5343 86.2851 53.3505 86.9827 53.8017L87.8963 54.4033C89.6238 55.5564 91.4177 56.7429 93.2117 58.0129C93.8927 58.4976 94.0422 59.4334 93.5771 60.1019C93.3113 60.5531 92.8628 60.7703 92.3811 60.7703ZM80.0396 52.2977C79.724 52.2977 79.4084 52.1974 79.1426 51.9968C76.9002 50.2923 75.0066 48.6044 73.3621 46.8664C72.7974 46.2648 72.814 45.3123 73.412 44.7441C74.01 44.1759 74.9568 44.1926 75.5215 44.8109C77.0497 46.432 78.827 48.0028 80.9365 49.6238C81.6009 50.1252 81.7172 51.061 81.2189 51.7295C80.9365 52.0971 80.5047 52.2977 80.0396 52.2977Z" fill="#CF1111"/>
<path d="M141.233 64.949C140.967 64.949 140.685 64.8821 140.436 64.715C130.768 58.6154 118.743 56.2925 107.447 58.3313C106.617 58.4817 105.853 57.9302 105.72 57.1113C105.57 56.2925 106.119 55.507 106.932 55.3733C118.958 53.2009 131.749 55.6909 142.047 62.1749C142.745 62.6094 142.961 63.5452 142.529 64.2471C142.213 64.6983 141.731 64.949 141.233 64.949Z" fill="#CF1111"/>
<path d="M113.743 46.2148L115.586 47.7356L108.128 56.9101L117.762 63.7451L116.384 65.7003L104.64 57.3948L113.743 46.2148Z" fill="#CF1111"/>
<path d="M94.4577 45.3115C94.0258 45.3115 93.5773 45.111 93.2949 44.7434C92.78 44.0916 92.8797 43.1391 93.5275 42.621C103.112 34.9171 115.586 31.0066 127.745 31.909C128.576 31.9759 129.19 32.6944 129.124 33.5133C129.057 34.3322 128.343 34.9672 127.529 34.9003C116.101 34.0648 104.407 37.7246 95.4045 44.9606C95.1055 45.1946 94.7733 45.3115 94.4577 45.3115Z" fill="#CF1111"/>
<path d="M95.1719 31.291L97.5306 31.7422L95.3047 43.4068L107.015 44.7771L106.733 47.1668L92.4644 45.4957L95.1719 31.291Z" fill="#CF1111"/>
<path d="M176.298 92.9062C176.746 94.8949 174.902 97.4183 171.397 100.176C172.992 97.7024 174.055 94.6777 176.298 92.9062Z" fill="#FFCCB8"/>
<path d="M10.2425 98.087C9.36218 75.2091 12.9334 57.4114 21.4712 30.9907C24.5275 21.5321 23.4479 9.28261 31.9358 4.16892C32.5504 3.80127 33.1982 3.45033 33.846 3.13281C30.2249 18.2733 29.5937 29.3029 28.0822 36.7227C24.6106 53.8352 12.8338 109.434 20.2919 169.779C20.8566 174.391 27.9991 188.011 47.151 173.004C56.1207 170.848 92.9793 142.94 114.822 124.04C119.606 119.895 122.662 121.299 128.974 118.843C139.256 114.832 150.485 109.685 165.8 104.02C162.561 105.991 158.707 108.014 154.438 110.019C144.123 114.865 134.572 119.478 130.752 121.082C94.8729 136.139 73.2959 177.717 35.5071 186.875C30.6568 188.044 23.9296 190.936 21.5377 186.54C21.2221 185.956 21.0393 185.204 20.9397 184.351C19.7271 183.098 18.6142 181.226 17.5844 178.435C15.5911 173.038 13.2656 167.807 12.1693 162.159C7.78418 139.715 11.1229 120.948 10.2425 98.087Z" fill="#EDAD82"/>
<path d="M138.259 101.362C139.306 97.7026 142.312 94.5107 145.335 92.3884C146.78 91.3857 147.428 90.8509 148.774 89.6978C150.385 88.3275 151.88 87.2747 151.93 85.1523C152.428 86.6731 151.863 88.3776 150.883 89.5976C149.903 90.8175 148.591 91.6531 147.329 92.5555C145.136 94.1264 142.578 95.0956 141.1 97.4018C139.621 99.6913 137.91 105.641 142.196 106.125C139.256 107.445 138.16 105.005 137.994 104.086C137.827 103.167 138.01 102.231 138.259 101.362Z" fill="#EDAD82"/>
<path d="M152.993 82.5782C153.508 82.9626 153.807 83.6311 153.74 84.2661C153.657 85.0014 151.531 86.8229 150.966 87.2908C150.269 87.859 149.455 88.2768 148.574 88.5108C148.01 88.6612 147.312 88.6946 146.93 88.2434C146.531 87.7755 146.133 87.1739 146.365 86.6057C146.747 85.6698 148.707 84.0321 149.505 83.4138C150.302 82.7955 152.179 81.9933 152.993 82.5782Z" fill="#0A72F0"/>
<path d="M173.075 96.4661C174.271 93.9259 176.414 91.8537 178.988 90.7508C179.154 90.6839 179.354 90.6171 179.52 90.6839C179.819 90.8176 179.752 91.2521 179.62 91.5529C178.59 94.0095 176.497 95.8645 174.271 97.3184C173.889 97.569 173.324 97.7863 173.042 97.4353C172.793 97.1847 172.926 96.7836 173.075 96.4661Z" fill="#0A72F0"/>
<path d="M153.574 110.42C152.162 111.757 151.996 112.459 150.817 112.977C149.638 113.495 148.442 113.311 146.914 113.495C148.292 111.774 151.382 110.554 153.574 110.42Z" fill="#EDAD82"/>
</g>
<defs>
<clipPath id="clip0_908_158491">
<rect width="180.19" height="188.571" fill="white" transform="translate(0.857422 0.341797)"/>
</clipPath>
</defs>
</svg>
