<svg width="12" height="13" viewBox="0 0 12 13" fill="none" xmlns="http://www.w3.org/2000/svg">
<path fill-rule="evenodd" clip-rule="evenodd" d="M9.35355 3.14645C9.54882 3.34171 9.54882 3.65829 9.35355 3.85355L3.35355 9.85355C3.15829 10.0488 2.84171 10.0488 2.64645 9.85355C2.45118 9.65829 2.45118 9.34171 2.64645 9.14645L8.64645 3.14645C8.84171 2.95118 9.15829 2.95118 9.35355 3.14645Z" fill="#74788D"/>
<path fill-rule="evenodd" clip-rule="evenodd" d="M2.64645 3.14645C2.84171 2.95118 3.15829 2.95118 3.35355 3.14645L9.35355 9.14645C9.54882 9.34171 9.54882 9.65829 9.35355 9.85355C9.15829 10.0488 8.84171 10.0488 8.64645 9.85355L2.64645 3.85355C2.45118 3.65829 2.45118 3.34171 2.64645 3.14645Z" fill="#74788D"/>
</svg>
