<svg width="98" height="94" viewBox="0 0 98 94" fill="none" xmlns="http://www.w3.org/2000/svg">
<path fill-rule="evenodd" clip-rule="evenodd" d="M-15.8502 2.93759C-14.7064 3.3611 -13.5622 3.68873 -12.5762 3.98152C-2.51301 7.13947 11.7111 -3.54002 4.11788 -13.9091C3.41053 -14.9093 1.49374 -17.0432 -0.578513 -18.6712L-2.52374 -15.9188C9.90521 -7.4235 -2.25019 4.37171 -13.7734 -0.000918604L-15.8502 2.93759Z" fill="#F3FBFF" fill-opacity="0.25"/>
<path fill-rule="evenodd" clip-rule="evenodd" d="M-21.1007 10.3675C-17.8974 12.2466 -14.226 13.504 -11.1997 13.9592C1.61092 16.4421 13.6622 6.46858 18.3326 -4.86347C20.8583 -14.4403 14.6027 -24.143 7.9708 -30.5905L7.90097 -30.6687L5.93308 -27.8842C6.74029 -27.1887 7.6268 -26.5236 8.04587 -25.8234C12.3819 -20.7964 16.4263 -14.0226 15.4917 -7.15985C10.8831 7.02506 -5.66179 16.0741 -19.1419 7.59589L-21.1007 10.3675Z" fill="#F3FBFF" fill-opacity="0.25"/>
<path fill-rule="evenodd" clip-rule="evenodd" d="M-26.7823 18.4049C-19.4112 24.3647 -9.89059 26.9564 -0.503376 27.0006C13.8171 26.9525 27.5237 11.4241 31.3037 -1.54742C34.9862 -17.1853 28.7595 -33.1498 16.6432 -43.0404L14.6662 -40.2431C16.4395 -38.8455 18.1521 -37.3754 19.7029 -35.731C26.082 -28.8849 28.8317 -19.4761 29.0935 -10.2767C29.403 3.17021 19.5476 15.0324 8.39014 21.4816C1.51599 25.3684 -6.81983 23.5371 -14.0482 21.6225C-17.9299 20.3223 -21.6644 18.3372 -24.9122 15.7725L-26.7758 18.4094L-26.7823 18.4049Z" fill="#F3FBFF" fill-opacity="0.25"/>
<path fill-rule="evenodd" clip-rule="evenodd" d="M-33.8241 28.3702C-22.1588 36.6529 -6.82357 42.0841 6.78234 39.0585C24.0645 34.071 37.992 18.6794 41.2294 0.975957C45.7002 -17.9145 37.1167 -38.3442 23.0108 -51.0552C22.8704 -51.1832 22.7236 -51.3159 22.5832 -51.4439L20.6969 -48.7749C23.1694 -46.5561 25.493 -44.1539 27.5629 -41.5559C36.5837 -29.3409 41.8397 -13.3505 37.6747 1.67698C33.3047 22.4667 11.5291 41.6532 -10.3825 35.5764C-17.0407 34.0937 -23.2479 31.1018 -29.0433 27.5543C-30.0118 26.9372 -30.9712 26.3073 -31.9215 25.6646L-33.8305 28.3657L-33.8241 28.3702Z" fill="#F3FBFF" fill-opacity="0.25"/>
<path fill-rule="evenodd" clip-rule="evenodd" d="M-40.5027 37.8222C-29.037 47.1087 -12.5604 51.2108 1.5476 51.5994C27.2783 52.8712 46.8951 30.2734 53.1893 7.10128C59.1469 -13.0762 56.2724 -30.7891 41.9791 -46.6245C40.8065 -48.069 34.4633 -55.034 28.782 -60.2132L26.8414 -57.4672C28.0954 -56.3693 29.3248 -55.2502 30.5425 -54.101C50.0546 -35.8761 57.995 -18.4024 49.5303 7.94985C43.1857 29.2874 24.7526 49.8837 0.898164 48.312C-13.2163 47.9188 -27.315 43.7464 -38.6055 35.1513L-40.4963 37.8267L-40.5027 37.8222Z" fill="#F3FBFF" fill-opacity="0.25"/>
<path fill-rule="evenodd" clip-rule="evenodd" d="M35.2022 -69.2997C38.0697 -66.4554 40.7807 -63.4715 43.057 -60.1311C58.076 -38.203 67.9416 -9.62304 58.0737 16.3051C50.1816 37.0011 36.4225 50.4529 15.2415 57.0912C-2.75848 64.1017 -22.75 60.9981 -39.8295 52.8622C-42.591 51.4878 -45.4408 50.1568 -48.1228 48.5884L-50 51.2446C-39.399 58.0248 -24.0557 62.6824 -13.8204 63.9224C5.94704 65.8864 26.4669 58.7135 41.896 46.4516C70.3031 19.8011 71.2928 -18.857 52.2271 -51.3125C48.9215 -57.1987 45.4052 -63.0317 40.8063 -68.0135C39.6031 -69.3738 38.3662 -70.7002 37.1002 -71.9989L35.1958 -69.3042L35.2022 -69.2997Z" fill="#F3FBFF" fill-opacity="0.25"/>
</svg>
