<svg width="18" height="18" viewBox="0 0 18 18" fill="none" xmlns="http://www.w3.org/2000/svg">
<path d="M10.5238 13.7728L9.48206 15.5087C9.43209 15.592 9.36139 15.6609 9.27687 15.7088C9.19234 15.7566 9.09686 15.7818 8.99972 15.7818C8.90258 15.7818 8.8071 15.7566 8.72257 15.7088C8.63804 15.6609 8.56735 15.592 8.51738 15.5087L7.47675 13.7728C7.42671 13.6895 7.35596 13.6206 7.27138 13.5728C7.1868 13.525 7.09128 13.4999 6.99413 13.5H2.8125C2.66332 13.5 2.52024 13.4407 2.41475 13.3352C2.30926 13.2298 2.25 13.0867 2.25 12.9375V3.9375C2.25 3.78832 2.30926 3.64524 2.41475 3.53975C2.52024 3.43426 2.66332 3.375 2.8125 3.375H15.1875C15.3367 3.375 15.4798 3.43426 15.5852 3.53975C15.6907 3.64524 15.75 3.78832 15.75 3.9375V12.9375C15.75 13.0867 15.6907 13.2298 15.5852 13.3352C15.4798 13.4407 15.3367 13.5 15.1875 13.5H11.0059C10.9088 13.5 10.8134 13.5252 10.7289 13.573C10.6445 13.6208 10.5738 13.6896 10.5238 13.7728V13.7728Z" stroke="#1E293B" stroke-width="1.2" stroke-linecap="round" stroke-linejoin="round"/>
</svg>
