<svg width="36" height="48" viewBox="0 0 36 48" fill="none" xmlns="http://www.w3.org/2000/svg">
<g clip-path="url(#clip0_2383_21766)">
<path d="M18.6932 0.603516C18.8519 0.640139 19.0106 0.688971 19.1693 0.725594C21.4278 1.26274 23.0636 3.00847 23.4176 5.27913C23.7595 7.42772 22.7218 9.60073 20.7807 10.7971C20.7075 10.8459 20.622 10.8948 20.5122 10.9558C20.5854 11.0413 20.6465 11.1267 20.7075 11.1877C23.8571 14.4473 27.019 17.719 30.1686 20.9785C30.8278 21.6621 31.133 22.4922 31.072 23.4323C31.0598 23.7008 31.1574 23.7985 31.365 23.8962C32.8788 24.653 33.7089 25.8982 33.8432 27.5707C34.1972 32.2952 34.539 37.0196 34.8808 41.7319C34.9785 43.0869 35.0884 44.4298 35.186 45.7849C35.2471 46.615 34.7221 47.2987 33.9408 47.3597C33.1839 47.4207 32.5247 46.8836 32.4637 46.0657C32.2806 43.734 32.1097 41.39 31.9387 39.0583C31.6702 35.5181 31.4138 31.99 31.1452 28.4497C31.1208 28.1201 31.1086 27.7783 31.0476 27.4486C30.8767 26.6551 30.1564 26.1424 29.3629 26.2157C28.545 26.2889 27.9224 26.9359 27.9101 27.7661C27.9101 28.1445 27.9468 28.5229 27.9712 28.9014C28.0444 29.7681 27.5317 30.4396 26.726 30.525C25.9447 30.5983 25.3221 30.0123 25.2366 29.1455C25.1145 27.998 25.0535 26.8627 25.6517 25.7762C24.0158 24.6775 22.4044 23.591 20.6953 22.4434C20.6953 22.712 20.6953 22.8829 20.6953 23.0538C20.6953 28.2666 20.6953 33.4671 20.6953 38.6799C20.6953 39.8274 20.4389 40.1571 19.328 40.4867C19.328 41.7807 19.328 43.0869 19.328 44.4054C19.328 44.9425 19.3402 45.4675 19.328 46.0046C19.3158 46.7981 18.7664 47.3841 17.9851 47.3841C14.3106 47.3963 10.6482 47.3963 6.97362 47.3841C6.18011 47.3841 5.63076 46.7615 5.63076 45.8948C5.61855 43.8682 5.61855 41.8417 5.64296 39.8152C5.64296 39.3635 5.50868 39.2537 5.0814 39.2415C4.32451 39.217 3.56763 39.1316 2.81074 39.0583C2.1393 38.9973 1.6632 38.5334 1.56553 37.862C1.54112 37.6666 1.54112 37.4713 1.54112 37.276C1.54112 32.5393 1.54112 27.8027 1.52891 23.066C1.52891 22.7608 1.45566 22.4312 1.33358 22.1504C1.02839 21.3691 0.698772 20.6 0.356952 19.8431C0.149418 19.367 0.13721 18.9153 0.332536 18.427C0.906307 17.0109 1.44345 15.5948 2.01722 14.1909C3.6775 10.089 7.44973 7.5498 11.8812 7.5498C12.1376 7.5498 12.3939 7.5498 12.5526 7.5498C12.5526 6.84174 12.4916 6.1581 12.5648 5.48667C12.809 3.04509 14.6402 1.11625 17.0695 0.688971C17.155 0.676763 17.2405 0.640139 17.3259 0.603516C17.7776 0.603516 18.2415 0.603516 18.6932 0.603516ZM17.9729 37.5812C17.9729 37.3492 17.9729 37.1783 17.9729 37.0196C17.9729 33.9188 17.9729 30.8058 17.9729 27.705C17.9729 25.1414 17.9729 22.5899 17.9729 20.0263C17.9729 19.4525 18.1805 18.9886 18.7054 18.6956C19.2303 18.4026 19.7309 18.4881 20.207 18.8177C20.622 19.0985 21.0371 19.3792 21.4522 19.66C23.3932 20.9663 25.3465 22.2725 27.2997 23.5665C27.4829 23.6886 27.727 23.8107 27.9101 23.7741C28.4107 23.7008 28.4595 23.1759 28.0322 22.7242C25.0779 19.6722 22.1236 16.6203 19.1815 13.5439C17.3869 11.6761 15.2384 10.5651 12.6625 10.3332C9.45182 10.0402 6.14349 11.4807 4.69075 14.9234C4.16581 16.1686 3.6897 17.4382 3.17697 18.6834C3.05489 18.9764 3.0671 19.2205 3.18918 19.5013C4.32451 22.126 5.44764 24.7507 6.57076 27.3876C6.60739 27.4853 6.65622 27.5829 6.70505 27.6806C6.85155 27.9492 7.07129 28.0468 7.35207 27.937C7.65727 27.8271 7.76714 27.5951 7.7061 27.2899C7.68168 27.1679 7.63285 27.058 7.59623 26.9481C6.88817 24.7629 6.19232 22.5777 5.47205 20.3925C5.30114 19.8798 5.33777 19.4281 5.59413 18.952C6.27777 17.7312 6.937 16.4982 7.60843 15.2652C8.04792 14.4595 8.84143 14.1787 9.54949 14.5815C10.2453 14.9722 10.4407 15.7779 10.0134 16.5592C9.47624 17.5603 8.91468 18.5613 8.38974 19.5746C8.29208 19.7699 8.25545 20.0751 8.3287 20.2826C8.97572 22.3458 9.65936 24.3845 10.2942 26.4476C10.7825 28.0102 10.0866 29.6339 8.67052 30.3663C7.2422 31.0988 5.55751 30.7082 4.54426 29.4019C4.48322 29.3287 4.42218 29.2554 4.3001 29.1211C4.3001 31.5993 4.3001 33.9921 4.3001 36.4337C8.85364 36.8243 13.3828 37.1905 17.9729 37.5812ZM20.7319 6.09706C20.7319 4.58329 19.5233 3.35029 18.0218 3.35029C16.508 3.33808 15.2506 4.59549 15.2506 6.09706C15.2628 7.59863 16.4958 8.83163 17.9973 8.83163C19.4989 8.83163 20.7197 7.61084 20.7319 6.09706ZM11.0877 44.6251C11.0877 42.9893 11.0877 41.3901 11.0877 39.7542C10.1843 39.6809 9.31754 39.6077 8.40195 39.5345C8.40195 41.2436 8.40195 42.916 8.40195 44.6251C9.30533 44.6251 10.1843 44.6251 11.0877 44.6251ZM16.6056 44.6373C16.6056 43.2212 16.6056 41.8417 16.5934 40.4622C16.5934 40.3768 16.4836 40.2181 16.4225 40.2059C15.5802 40.1204 14.75 40.0594 13.9077 39.9984C13.9077 41.5854 13.9077 43.0992 13.9077 44.6373C14.8111 44.6373 15.6656 44.6373 16.6056 44.6373Z" fill="#FFAF14"/>
</g>
<defs>
<clipPath id="clip0_2383_21766">
<rect width="35" height="46.7928" fill="white" transform="translate(0.199219 0.603516)"/>
</clipPath>
</defs>
</svg>
