<svg width="68" height="28" viewBox="0 0 68 28" fill="none" xmlns="http://www.w3.org/2000/svg">
<path d="M68 24L64 27.5V24H68Z" fill="#01A1B9"/>
<rect width="68" height="24" fill="#01A1B9"/>
<path d="M5.02989 16V14.6705L8.13642 11.794C8.40063 11.5384 8.62222 11.3082 8.80119 11.1037C8.98301 10.8991 9.1208 10.6989 9.21455 10.5028C9.3083 10.304 9.35517 10.0895 9.35517 9.85938C9.35517 9.60369 9.29693 9.38352 9.18045 9.19886C9.06398 9.01136 8.90489 8.8679 8.70318 8.76847C8.50148 8.66619 8.27278 8.61506 8.0171 8.61506C7.75006 8.61506 7.5171 8.66903 7.31824 8.77699C7.11938 8.88494 6.96597 9.03977 6.85801 9.24148C6.75006 9.44318 6.69608 9.68324 6.69608 9.96165H4.94466C4.94466 9.39062 5.07392 8.89489 5.33244 8.47443C5.59097 8.05398 5.95318 7.72869 6.41909 7.49858C6.885 7.26847 7.42193 7.15341 8.02989 7.15341C8.65489 7.15341 9.19892 7.2642 9.66199 7.4858C10.1279 7.70455 10.4901 8.00852 10.7486 8.39773C11.0072 8.78693 11.1364 9.23295 11.1364 9.7358C11.1364 10.0653 11.0711 10.3906 10.9404 10.7116C10.8126 11.0327 10.5839 11.3892 10.2543 11.7812C9.92477 12.1705 9.46028 12.6378 8.86085 13.1832L7.5867 14.4318V14.4915H11.2515V16H5.02989ZM15.836 16.1193C15.2337 16.1193 14.6968 16.0085 14.2252 15.7869C13.7564 15.5653 13.3843 15.2599 13.1087 14.8707C12.8331 14.4815 12.6897 14.0355 12.6783 13.5327H14.4681C14.488 13.8707 14.63 14.1449 14.8942 14.3551C15.1584 14.5653 15.4723 14.6705 15.836 14.6705C16.1258 14.6705 16.3814 14.6065 16.603 14.4787C16.8275 14.348 17.0022 14.1676 17.1272 13.9375C17.255 13.7045 17.3189 13.4375 17.3189 13.1364C17.3189 12.8295 17.2536 12.5597 17.1229 12.3267C16.9951 12.0937 16.8175 11.9119 16.5902 11.7812C16.363 11.6506 16.103 11.5838 15.8104 11.581C15.5547 11.581 15.3062 11.6335 15.0647 11.7386C14.826 11.8437 14.64 11.9872 14.5064 12.169L12.8658 11.875L13.2792 7.27273H18.6144V8.78125H14.8005L14.5746 10.9673H14.6258C14.7792 10.7514 15.0107 10.5724 15.3204 10.4304C15.63 10.2884 15.9766 10.2173 16.3601 10.2173C16.8857 10.2173 17.3544 10.3409 17.7664 10.5881C18.1783 10.8352 18.5036 11.1747 18.7422 11.6065C18.9809 12.0355 19.0988 12.5298 19.0959 13.0895C19.0988 13.6776 18.9624 14.2003 18.6868 14.6577C18.4141 15.1122 18.032 15.4702 17.5405 15.7315C17.0519 15.9901 16.4837 16.1193 15.836 16.1193ZM25.2198 14.3636V13.9034C25.2198 13.554 25.2937 13.233 25.4414 12.9403C25.592 12.6449 25.8093 12.4091 26.0934 12.233C26.3804 12.054 26.7298 11.9645 27.1417 11.9645C27.5593 11.9645 27.9102 12.0526 28.1943 12.2287C28.4812 12.4048 28.6971 12.6406 28.842 12.9361C28.9897 13.2287 29.0636 13.5511 29.0636 13.9034V14.3636C29.0636 14.7131 28.9897 15.0355 28.842 15.331C28.6943 15.6236 28.4769 15.858 28.19 16.0341C27.9031 16.2131 27.5537 16.3026 27.1417 16.3026C26.7241 16.3026 26.3733 16.2131 26.0892 16.0341C25.8051 15.858 25.5892 15.6236 25.4414 15.331C25.2937 15.0355 25.2198 14.7131 25.2198 14.3636ZM26.4599 13.9034V14.3636C26.4599 14.5653 26.5082 14.7557 26.6048 14.9347C26.7042 15.1136 26.8832 15.2031 27.1417 15.2031C27.4002 15.2031 27.5764 15.1151 27.6701 14.9389C27.7667 14.7628 27.815 14.571 27.815 14.3636V13.9034C27.815 13.696 27.7696 13.5028 27.6787 13.3239C27.5877 13.1449 27.4088 13.0554 27.1417 13.0554C26.886 13.0554 26.7085 13.1449 26.609 13.3239C26.5096 13.5028 26.4599 13.696 26.4599 13.9034ZM20.7412 9.36932V8.90909C20.7412 8.55682 20.8164 8.23437 20.967 7.94176C21.1176 7.64631 21.3349 7.41051 21.619 7.23438C21.9059 7.05824 22.2525 6.97017 22.6588 6.97017C23.0792 6.97017 23.4315 7.05824 23.7156 7.23438C23.9997 7.41051 24.2156 7.64631 24.3633 7.94176C24.511 8.23437 24.5849 8.55682 24.5849 8.90909V9.36932C24.5849 9.72159 24.5096 10.044 24.359 10.3366C24.2113 10.6293 23.994 10.8636 23.7071 11.0398C23.423 11.2131 23.0735 11.2997 22.6588 11.2997C22.244 11.2997 21.8931 11.2116 21.6062 11.0355C21.3221 10.8565 21.1062 10.6222 20.9585 10.3324C20.8136 10.0398 20.7412 9.71875 20.7412 9.36932ZM21.9897 8.90909V9.36932C21.9897 9.5767 22.038 9.76847 22.1346 9.9446C22.234 10.1207 22.4088 10.2088 22.6588 10.2088C22.9201 10.2088 23.0977 10.1207 23.1914 9.9446C23.288 9.76847 23.3363 9.5767 23.3363 9.36932V8.90909C23.3363 8.7017 23.2909 8.50852 23.2 8.32955C23.109 8.15057 22.9287 8.06108 22.6588 8.06108C22.4059 8.06108 22.2312 8.15199 22.1346 8.33381C22.038 8.51562 21.9897 8.70739 21.9897 8.90909ZM21.3037 16L27.3037 7.27273H28.4201L22.4201 16H21.3037ZM41.7237 11.6364C41.7237 12.5881 41.5433 13.3977 41.1825 14.0653C40.8246 14.733 40.3359 15.2429 39.7166 15.5952C39.1001 15.9446 38.407 16.1193 37.6371 16.1193C36.8615 16.1193 36.1655 15.9432 35.549 15.5909C34.9325 15.2386 34.4453 14.7287 34.0874 14.0611C33.7294 13.3935 33.5504 12.5852 33.5504 11.6364C33.5504 10.6847 33.7294 9.875 34.0874 9.20739C34.4453 8.53977 34.9325 8.03125 35.549 7.68182C36.1655 7.32955 36.8615 7.15341 37.6371 7.15341C38.407 7.15341 39.1001 7.32955 39.7166 7.68182C40.3359 8.03125 40.8246 8.53977 41.1825 9.20739C41.5433 9.875 41.7237 10.6847 41.7237 11.6364ZM39.853 11.6364C39.853 11.0199 39.7607 10.5 39.576 10.0767C39.3942 9.65341 39.1371 9.33239 38.8047 9.11364C38.4723 8.89489 38.0831 8.78551 37.6371 8.78551C37.1911 8.78551 36.8018 8.89489 36.4695 9.11364C36.1371 9.33239 35.8786 9.65341 35.6939 10.0767C35.5121 10.5 35.4212 11.0199 35.4212 11.6364C35.4212 12.2528 35.5121 12.7727 35.6939 13.196C35.8786 13.6193 36.1371 13.9403 36.4695 14.1591C36.8018 14.3778 37.1911 14.4872 37.6371 14.4872C38.0831 14.4872 38.4723 14.3778 38.8047 14.1591C39.1371 13.9403 39.3942 13.6193 39.576 13.196C39.7607 12.7727 39.853 12.2528 39.853 11.6364ZM46.6363 9.45455V10.8182H42.5966V9.45455H46.6363ZM43.5213 16V8.98153C43.5213 8.5071 43.6136 8.11364 43.7983 7.80114C43.9858 7.48864 44.2415 7.25426 44.5653 7.09801C44.8892 6.94176 45.2571 6.86364 45.669 6.86364C45.9474 6.86364 46.2017 6.88494 46.4318 6.92756C46.6648 6.97017 46.8381 7.00852 46.9517 7.04261L46.6278 8.40625C46.5568 8.38352 46.4687 8.36222 46.3636 8.34233C46.2613 8.32244 46.1562 8.3125 46.0483 8.3125C45.7812 8.3125 45.5952 8.375 45.49 8.5C45.3849 8.62216 45.3324 8.79403 45.3324 9.01562V16H43.5213ZM51.3253 9.45455V10.8182H47.2855V9.45455H51.3253ZM48.2102 16V8.98153C48.2102 8.5071 48.3025 8.11364 48.4872 7.80114C48.6747 7.48864 48.9304 7.25426 49.2542 7.09801C49.5781 6.94176 49.946 6.86364 50.3579 6.86364C50.6363 6.86364 50.8906 6.88494 51.1207 6.92756C51.3537 6.97017 51.527 7.00852 51.6406 7.04261L51.3167 8.40625C51.2457 8.38352 51.1576 8.36222 51.0525 8.34233C50.9503 8.32244 50.8451 8.3125 50.7372 8.3125C50.4701 8.3125 50.2841 8.375 50.179 8.5C50.0738 8.62216 50.0213 8.79403 50.0213 9.01562V16H48.2102ZM55.2429 16.1278C54.5696 16.1278 53.99 15.9915 53.5042 15.7188C53.0213 15.4432 52.6491 15.054 52.3877 14.5511C52.1264 14.0455 51.9957 13.4474 51.9957 12.7571C51.9957 12.0838 52.1264 11.4929 52.3877 10.9844C52.6491 10.4759 53.017 10.0795 53.4914 9.79545C53.9687 9.51136 54.5284 9.36932 55.1704 9.36932C55.6022 9.36932 56.0042 9.43892 56.3764 9.57812C56.7514 9.71449 57.0781 9.92045 57.3565 10.196C57.6377 10.4716 57.8565 10.8182 58.0127 11.2358C58.169 11.6506 58.2471 12.1364 58.2471 12.6932V13.1918H52.7201V12.0668H56.5383C56.5383 11.8054 56.4815 11.5739 56.3679 11.3722C56.2542 11.1705 56.0965 11.0128 55.8948 10.8991C55.696 10.7827 55.4644 10.7244 55.2002 10.7244C54.9247 10.7244 54.6804 10.7884 54.4673 10.9162C54.2571 11.0412 54.0923 11.2102 53.973 11.4233C53.8537 11.6335 53.7926 11.8679 53.7897 12.1264V13.196C53.7897 13.5199 53.8494 13.7997 53.9687 14.0355C54.0909 14.2713 54.2627 14.4531 54.4843 14.581C54.7059 14.7088 54.9687 14.7727 55.2727 14.7727C55.4744 14.7727 55.659 14.7443 55.8267 14.6875C55.9943 14.6307 56.1377 14.5455 56.2571 14.4318C56.3764 14.3182 56.4673 14.179 56.5298 14.0142L58.2088 14.125C58.1235 14.5284 57.9488 14.8807 57.6846 15.1818C57.4233 15.4801 57.0852 15.7131 56.6704 15.8807C56.2585 16.0455 55.7826 16.1278 55.2429 16.1278ZM59.4918 16V9.45455H61.2517V10.5966H61.3199C61.4392 10.1903 61.6395 9.88352 61.9208 9.67614C62.202 9.46591 62.5259 9.3608 62.8923 9.3608C62.9833 9.3608 63.0813 9.36648 63.1864 9.37784C63.2915 9.3892 63.3838 9.40483 63.4634 9.42472V11.0355C63.3781 11.0099 63.2602 10.9872 63.1097 10.9673C62.9591 10.9474 62.8213 10.9375 62.6963 10.9375C62.4293 10.9375 62.1906 10.9957 61.9804 11.1122C61.773 11.2259 61.6083 11.3849 61.4861 11.5895C61.3668 11.794 61.3071 12.0298 61.3071 12.2969V16H59.4918Z" fill="#FDF2F8"/>
</svg>
