<svg width="33" height="32" viewBox="0 0 33 32" fill="none" xmlns="http://www.w3.org/2000/svg">
<g clip-path="url(#clip0_2578_54198)">
<path d="M31.2166 7.54411C31.2166 7.42254 31.1895 7.30097 31.1355 7.18616C31.0274 6.95652 30.8181 6.80118 30.5884 6.75391L16.8307 0.0810469C16.6079 -0.0270156 16.3445 -0.0270156 16.1216 0.0810469L2.2288 6.81469C1.95864 6.94301 1.78304 7.21317 1.76953 7.5171V7.52385C1.76953 7.5306 1.76953 7.53736 1.76953 7.55087V24.4491C1.76953 24.7598 1.94513 25.0435 2.2288 25.1786L16.1216 31.9122C16.1283 31.9122 16.1283 31.9122 16.1351 31.919C16.1553 31.9257 16.1756 31.9325 16.1959 31.946C16.2026 31.946 16.2094 31.9527 16.2229 31.9527C16.2431 31.9595 16.2634 31.9662 16.2837 31.973C16.2904 31.973 16.2972 31.9797 16.3039 31.9797C16.3242 31.9865 16.3512 31.9865 16.3715 31.9932C16.3782 31.9932 16.385 31.9932 16.3917 31.9932C16.4187 31.9932 16.4525 32 16.4795 32C16.5066 32 16.5403 32 16.5673 31.9932C16.5741 31.9932 16.5808 31.9932 16.5876 31.9932C16.6079 31.9932 16.6349 31.9865 16.6551 31.9797C16.6619 31.9797 16.6686 31.973 16.6754 31.973C16.6957 31.9662 16.7159 31.9595 16.7362 31.9527C16.7429 31.9527 16.7497 31.946 16.7632 31.946C16.7835 31.9392 16.8037 31.9325 16.824 31.919C16.8307 31.919 16.8307 31.919 16.8375 31.9122L30.7708 25.1583C31.0477 25.0232 31.2301 24.7396 31.2301 24.4289V7.56437C31.2166 7.55762 31.2166 7.55087 31.2166 7.54411ZM16.4728 1.70874L28.5217 7.55087L24.0844 9.70536L12.0355 3.86323L16.4728 1.70874ZM16.4728 13.393L4.42382 7.55087L10.1781 4.7615L22.2271 10.6036L16.4728 13.393ZM3.39047 8.85437L15.6623 14.8046V29.886L3.39047 23.9358V8.85437ZM17.2832 29.886V14.8046L23.0443 12.0084V15.9527C23.0443 16.3985 23.409 16.7632 23.8548 16.7632C24.3006 16.7632 24.6653 16.3985 24.6653 15.9527V11.2182L29.5956 8.82735V23.9088L17.2832 29.886Z" fill="#0F172A"/>
</g>
<defs>
<clipPath id="clip0_2578_54198">
<rect width="32" height="32" fill="white" transform="translate(0.5)"/>
</clipPath>
</defs>
</svg>
